<?xml version="1.0" encoding="UTF-8" standalone="yes"?>
<svg xmlns="http://www.w3.org/2000/svg" xmlns:xlink="http://www.w3.org/1999/xlink" width="612pt" height="792pt">
 <g id="SFixTitle" />
 <g id="SContent">
  <g transform="scale(1.33333)">
   <rect width="100%" height="100%" fill="white" />
   <g>
    <g>
     <g />
     <g shape-rendering="crispEdges" />
    </g>
    <g>
     <g />
    </g>
    <g>
     <g />
    </g>
   </g>
   <g transform="matrix(1,0,0,1,50.400001526,54)">
    <defs>
     <clipPath id="CLIP0">
      <path d="M-0.5,-0.5 L499.5,-0.5 L499.5,117.5 L-0.5,117.5 Z " />
     </clipPath>
    </defs>
    <g clip-path="url(#CLIP0)">
     <g />
     <g shape-rendering="crispEdges" />
    </g>
    <defs>
     <clipPath id="CLIP1">
      <path d="M-0.5,-1.453799963 L499.5,-1.453799963 L499.5,118.546203613 L-0.5,118.546203613 Z " />
     </clipPath>
    </defs>
    <g clip-path="url(#CLIP1)">
     <g>
      <g />
      <path d="M 0,0 L 307.99786377,0" class="p0" fill="none" />
      <path d="M 0,58.152000427 L 307.99786377,58.152000427" class="p0" fill="none" />
      <path d="M 0,116.304000854 L 307.99786377,116.304000854" class="p0" fill="none" />
      <path d="M 0,0 L 0,14.538000107" class="p0" fill="none" />
      <path d="M 0,58.152000427 L 0,72.690002441" class="p0" fill="none" />
      <path d="M 307.99786377,0 L 415.232727051,0" class="p0" fill="none" />
      <path d="M 307.99786377,58.152000427 L 415.232727051,58.152000427" class="p0" fill="none" />
      <path d="M 307.99786377,116.304000854 L 415.232727051,116.304000854" class="p0" fill="none" />
      <path d="M 307.99798584,0 L 307.99798584,14.538000107" class="p0" fill="none" />
      <path d="M 307.99798584,58.152000427 L 307.99798584,72.690002441" class="p0" fill="none" />
      <path d="M 415.232727051,0 L 498.279266357,0" class="p0" fill="none" />
      <path d="M 415.232727051,58.152000427 L 498.279266357,58.152000427" class="p0" fill="none" />
      <path d="M 415.232727051,116.304000854 L 498.279266357,116.304000854" class="p0" fill="none" />
      <path d="M 415.233001709,0 L 415.233001709,14.538000107" class="p0" fill="none" />
      <path d="M 415.233001709,58.152000427 L 415.233001709,72.690002441" class="p0" fill="none" />
      <path d="M 498.278991699,0 L 498.278991699,14.538000107" class="p0" fill="none" />
      <path d="M 498.278991699,58.152000427 L 498.278991699,72.690002441" class="p0" fill="none" />
      <path d="M 0,14.538000107 L 307.99786377,14.538000107" class="p0" fill="none" />
      <path d="M 0,72.690002441 L 307.99786377,72.690002441" class="p0" fill="none" />
      <path d="M 0,14.538000107 L 0,29.076000214" class="p0" fill="none" />
      <path d="M 0,72.690002441 L 0,87.228004456" class="p0" fill="none" />
      <path d="M 307.99786377,14.538000107 L 415.232727051,14.538000107" class="p0" fill="none" />
      <path d="M 307.99786377,72.690002441 L 415.232727051,72.690002441" class="p0" fill="none" />
      <path d="M 307.99798584,14.538000107 L 307.99798584,29.076000214" class="p0" fill="none" />
      <path d="M 307.99798584,72.690002441 L 307.99798584,87.228004456" class="p0" fill="none" />
      <path d="M 415.232727051,14.538000107 L 498.279266357,14.538000107" class="p0" fill="none" />
      <path d="M 415.232727051,72.690002441 L 498.279266357,72.690002441" class="p0" fill="none" />
      <path d="M 415.233001709,14.538000107 L 415.233001709,29.076000214" class="p0" fill="none" />
      <path d="M 415.233001709,72.690002441 L 415.233001709,87.228004456" class="p0" fill="none" />
      <path d="M 498.278991699,14.538000107 L 498.278991699,29.076000214" class="p0" fill="none" />
      <path d="M 498.278991699,72.690002441 L 498.278991699,87.228004456" class="p0" fill="none" />
      <path d="M 0,29.076000214 L 307.99786377,29.076000214" class="p0" fill="none" />
      <path d="M 0,87.227996826 L 307.99786377,87.227996826" class="p0" fill="none" />
      <path d="M 0,29.076000214 L 0,43.613998413" class="p0" fill="none" />
      <path d="M 0,87.227996826 L 0,101.76599884" class="p0" fill="none" />
      <path d="M 307.99786377,29.076000214 L 415.232727051,29.076000214" class="p0" fill="none" />
      <path d="M 307.99786377,87.227996826 L 415.232727051,87.227996826" class="p0" fill="none" />
      <path d="M 307.99798584,29.076000214 L 307.99798584,43.613998413" class="p0" fill="none" />
      <path d="M 307.99798584,87.227996826 L 307.99798584,101.76599884" class="p0" fill="none" />
      <path d="M 415.232727051,29.076000214 L 498.279266357,29.076000214" class="p0" fill="none" />
      <path d="M 415.232727051,87.227996826 L 498.279266357,87.227996826" class="p0" fill="none" />
      <path d="M 415.233001709,29.076000214 L 415.233001709,43.613998413" class="p0" fill="none" />
      <path d="M 415.233001709,87.227996826 L 415.233001709,101.76599884" class="p0" fill="none" />
      <path d="M 498.278991699,29.076000214 L 498.278991699,43.613998413" class="p0" fill="none" />
      <path d="M 498.278991699,87.227996826 L 498.278991699,101.76599884" class="p0" fill="none" />
      <path d="M 0,43.613998413 L 307.99786377,43.613998413" class="p0" fill="none" />
      <path d="M 0,101.76599884 L 307.99786377,101.76599884" class="p0" fill="none" />
      <path d="M 0,43.613998413 L 0,58.152000427" class="p0" fill="none" />
      <path d="M 0,101.76599884 L 0,116.304000854" class="p0" fill="none" />
      <path d="M 307.99786377,43.613998413 L 415.232727051,43.613998413" class="p0" fill="none" />
      <path d="M 307.99786377,101.76599884 L 415.232727051,101.76599884" class="p0" fill="none" />
      <path d="M 307.99798584,43.613998413 L 307.99798584,58.152000427" class="p0" fill="none" />
      <path d="M 307.99798584,101.76599884 L 307.99798584,116.304000854" class="p0" fill="none" />
      <path d="M 415.232727051,43.613998413 L 498.279266357,43.613998413" class="p0" fill="none" />
      <path d="M 415.232727051,101.76599884 L 498.279266357,101.76599884" class="p0" fill="none" />
      <path d="M 415.233001709,43.613998413 L 415.233001709,58.152000427" class="p0" fill="none" />
      <path d="M 415.233001709,101.76599884 L 415.233001709,116.304000854" class="p0" fill="none" />
      <path d="M 498.278991699,43.613998413 L 498.278991699,58.152000427" class="p0" fill="none" />
      <path d="M 498.278991699,101.76599884 L 498.278991699,116.304000854" class="p0" fill="none" />
     </g>
    </g>
    <defs>
     <clipPath id="CLIP2">
      <path d="M-0.5,-0.5 L499.5,-0.5 L499.5,117.5 L-0.5,117.5 Z " />
     </clipPath>
    </defs>
    <g clip-path="url(#CLIP2)">
     <g>
      <defs>
       <clipPath id="CLIP3">
        <path d="M308.24786377,0.25 L414.982727051,0.25 L414.982727051,14.288000107 L308.24786377,14.288000107 Z " />
       </clipPath>
      </defs>
      <g clip-path="url(#CLIP3)">
       <g>
        <g transform="matrix(1,0,0,1,309.072906494,13.568799973)">
         <text x="1" y="-2.75999999" class="f0">2016</text>
        </g>
       </g>
      </g>
      <defs>
       <clipPath id="CLIP4">
        <path d="M415.482727051,0.25 L498.029266357,0.25 L498.029266357,14.288000107 L415.482727051,14.288000107 Z " />
       </clipPath>
      </defs>
      <g clip-path="url(#CLIP4)">
       <g>
        <g transform="matrix(1,0,0,1,416.307769775,13.568799973)">
         <text x="1" y="-2.75999999" class="f0">2017</text>
        </g>
       </g>
      </g>
      <defs>
       <clipPath id="CLIP5">
        <path d="M0.25,14.788000107 L307.74786377,14.788000107 L307.74786377,28.826000214 L0.25,28.826000214 Z " />
       </clipPath>
      </defs>
      <g clip-path="url(#CLIP5)">
       <g>
        <g transform="matrix(1,0,0,1,1.075036168,28.106800079)">
         <text x="1" y="-2.770781279" class="f1">营</text>
         <text x="12.039999962" y="-2.770781279" class="f1">业</text>
         <text x="23.079999924" y="-2.770781279" class="f1">收</text>
         <text x="34.119998932" y="-2.770781279" class="f1">入</text>
         <text x="45.159999847" y="-2.770781279" class="f0">(</text>
         <text x="48.507575989" y="-2.770781279" class="f1">百</text>
         <text x="59.547576904" y="-2.770781279" class="f1">万</text>
         <text x="70.58757782" y="-2.770781279" class="f1">元</text>
         <text x="81.627578735" y="-2.770781279" class="f0">)</text>
        </g>
       </g>
      </g>
      <defs>
       <clipPath id="CLIP6">
        <path d="M308.24786377,14.788000107 L414.982727051,14.788000107 L414.982727051,28.826000214 L308.24786377,28.826000214 Z " />
       </clipPath>
      </defs>
      <g clip-path="url(#CLIP6)">
       <g>
        <g transform="matrix(1,0,0,1,309.072906494,28.106800079)">
         <text x="1" y="-2.75999999" class="f0">119</text>
        </g>
       </g>
      </g>
      <defs>
       <clipPath id="CLIP7">
        <path d="M415.482727051,14.788000107 L498.029266357,14.788000107 L498.029266357,28.826000214 L415.482727051,28.826000214 Z " />
       </clipPath>
      </defs>
      <g clip-path="url(#CLIP7)">
       <g>
        <g transform="matrix(1,0,0,1,416.307769775,28.106800079)">
         <text x="1" y="-2.75999999" class="f0">126</text>
        </g>
       </g>
      </g>
      <defs>
       <clipPath id="CLIP8">
        <path d="M0.25,29.326000214 L307.74786377,29.326000214 L307.74786377,43.363998413 L0.25,43.363998413 Z " />
       </clipPath>
      </defs>
      <g clip-path="url(#CLIP8)">
       <g>
        <g transform="matrix(1,0,0,1,1.075036168,42.644798279)">
         <text x="1" y="-2.770781279" class="f1">增</text>
         <text x="12.039999962" y="-2.770781279" class="f1">长</text>
         <text x="23.079999924" y="-2.770781279" class="f1">率</text>
         <text x="34.119998932" y="-2.770781279" class="f0">(</text>
         <text x="37.467575073" y="-2.770781279" class="f0">%</text>
         <text x="45.359451294" y="-2.770781279" class="f0">)</text>
        </g>
       </g>
      </g>
      <defs>
       <clipPath id="CLIP9">
        <path d="M308.24786377,29.326000214 L414.982727051,29.326000214 L414.982727051,43.363998413 L308.24786377,43.363998413 Z " />
       </clipPath>
      </defs>
      <g clip-path="url(#CLIP9)">
       <g>
        <g transform="matrix(1,0,0,1,309.072906494,42.644798279)">
         <text x="1" y="-2.75999999" class="f0">7%</text>
        </g>
       </g>
      </g>
      <defs>
       <clipPath id="CLIP10">
        <path d="M415.482727051,29.326000214 L498.029266357,29.326000214 L498.029266357,43.363998413 L415.482727051,43.363998413 Z " />
       </clipPath>
      </defs>
      <g clip-path="url(#CLIP10)">
       <g>
        <g transform="matrix(1,0,0,1,416.307769775,42.644798279)">
         <text x="1" y="-2.75999999" class="f0">7%</text>
        </g>
       </g>
      </g>
      <defs>
       <clipPath id="CLIP11">
        <path d="M0.25,43.863998413 L307.74786377,43.863998413 L307.74786377,57.902000427 L0.25,57.902000427 Z " />
       </clipPath>
      </defs>
      <g clip-path="url(#CLIP11)">
       <g>
        <g transform="matrix(1,0,0,1,1.075036168,57.182800293)">
         <text x="1" y="-2.770781279" class="f1">净</text>
         <text x="12.039999962" y="-2.770781279" class="f1">利</text>
         <text x="23.079999924" y="-2.770781279" class="f1">润</text>
         <text x="34.119998932" y="-2.770781279" class="f0">(</text>
         <text x="37.467575073" y="-2.770781279" class="f1">百</text>
         <text x="48.507575989" y="-2.770781279" class="f1">万</text>
         <text x="59.547576904" y="-2.770781279" class="f1">元</text>
         <text x="70.58757782" y="-2.770781279" class="f0">)</text>
        </g>
       </g>
      </g>
      <defs>
       <clipPath id="CLIP12">
        <path d="M308.24786377,43.863998413 L414.982727051,43.863998413 L414.982727051,57.902000427 L308.24786377,57.902000427 Z " />
       </clipPath>
      </defs>
      <g clip-path="url(#CLIP12)">
       <g>
        <g transform="matrix(1,0,0,1,309.072906494,57.182800293)">
         <text x="1" y="-2.75999999" class="f0">36</text>
        </g>
       </g>
      </g>
      <defs>
       <clipPath id="CLIP13">
        <path d="M415.482727051,43.863998413 L498.029266357,43.863998413 L498.029266357,57.902000427 L415.482727051,57.902000427 Z " />
       </clipPath>
      </defs>
      <g clip-path="url(#CLIP13)">
       <g>
        <g transform="matrix(1,0,0,1,416.307769775,57.182800293)">
         <text x="1" y="-2.75999999" class="f0">44</text>
        </g>
       </g>
      </g>
      <defs>
       <clipPath id="CLIP14">
        <path d="M0.25,58.402000427 L307.74786377,58.402000427 L307.74786377,72.440002441 L0.25,72.440002441 Z " />
       </clipPath>
      </defs>
      <g clip-path="url(#CLIP14)">
       <g>
        <g transform="matrix(1,0,0,1,1.075036168,71.720802307)">
         <text x="1" y="-2.770781279" class="f1">增</text>
         <text x="12.039999962" y="-2.770781279" class="f1">长</text>
         <text x="23.079999924" y="-2.770781279" class="f1">率</text>
         <text x="34.119998932" y="-2.770781279" class="f0">(</text>
         <text x="37.467575073" y="-2.770781279" class="f0">%</text>
         <text x="45.359451294" y="-2.770781279" class="f0">)</text>
        </g>
       </g>
      </g>
      <defs>
       <clipPath id="CLIP15">
        <path d="M308.24786377,58.402000427 L414.982727051,58.402000427 L414.982727051,72.440002441 L308.24786377,72.440002441 Z " />
       </clipPath>
      </defs>
      <g clip-path="url(#CLIP15)">
       <g>
        <g transform="matrix(1,0,0,1,309.072906494,71.720802307)">
         <text x="1" y="-2.75999999" class="f0">-120%</text>
        </g>
       </g>
      </g>
      <defs>
       <clipPath id="CLIP16">
        <path d="M415.482727051,58.402000427 L498.029266357,58.402000427 L498.029266357,72.440002441 L415.482727051,72.440002441 Z " />
       </clipPath>
      </defs>
      <g clip-path="url(#CLIP16)">
       <g>
        <g transform="matrix(1,0,0,1,416.307769775,71.720802307)">
         <text x="1" y="-2.75999999" class="f0">21%</text>
        </g>
       </g>
      </g>
      <defs>
       <clipPath id="CLIP17">
        <path d="M0.25,72.940002441 L307.74786377,72.940002441 L307.74786377,86.978004456 L0.25,86.978004456 Z " />
       </clipPath>
      </defs>
      <g clip-path="url(#CLIP17)">
       <g>
        <g transform="matrix(1,0,0,1,1.075036168,86.258804321)">
         <text x="1" y="-2.770781279" class="f1">每</text>
         <text x="12.039999962" y="-2.770781279" class="f1">股</text>
         <text x="23.079999924" y="-2.770781279" class="f1">收</text>
         <text x="34.119998932" y="-2.770781279" class="f1">益</text>
         <text x="45.159999847" y="-2.770781279" class="f0"> </text>
         <text x="47.655860901" y="-2.770781279" class="f0">(</text>
         <text x="51.003440857" y="-2.770781279" class="f0">E</text>
         <text x="56.394065857" y="-2.770781279" class="f0">P</text>
         <text x="62.09734726" y="-2.770781279" class="f0">S</text>
         <text x="67.169921875" y="-2.770781279" class="f0">)</text>
        </g>
       </g>
      </g>
      <defs>
       <clipPath id="CLIP18">
        <path d="M308.24786377,72.940002441 L414.982727051,72.940002441 L414.982727051,86.978004456 L308.24786377,86.978004456 Z " />
       </clipPath>
      </defs>
      <g clip-path="url(#CLIP18)">
       <g>
        <g transform="matrix(1,0,0,1,309.072906494,86.258804321)">
         <text x="1" y="-2.75999999" class="f0">0.10</text>
        </g>
       </g>
      </g>
      <defs>
       <clipPath id="CLIP19">
        <path d="M415.482727051,72.940002441 L498.029266357,72.940002441 L498.029266357,86.978004456 L415.482727051,86.978004456 Z " />
       </clipPath>
      </defs>
      <g clip-path="url(#CLIP19)">
       <g>
        <g transform="matrix(1,0,0,1,416.307769775,86.258804321)">
         <text x="1" y="-2.75999999" class="f0">0.12</text>
        </g>
       </g>
      </g>
      <defs>
       <clipPath id="CLIP20">
        <path d="M0.25,87.477996826 L307.74786377,87.477996826 L307.74786377,101.51599884 L0.25,101.51599884 Z " />
       </clipPath>
      </defs>
      <g clip-path="url(#CLIP20)">
       <g>
        <g transform="matrix(1,0,0,1,1.075036168,100.796798706)">
         <text x="1" y="-2.770781279" class="f1">市</text>
         <text x="12.039999962" y="-2.770781279" class="f1">盈</text>
         <text x="23.079999924" y="-2.770781279" class="f1">率</text>
         <text x="34.119998932" y="-2.770781279" class="f0"> </text>
         <text x="36.615859985" y="-2.770781279" class="f0">(</text>
         <text x="39.963439941" y="-2.770781279" class="f0">P</text>
         <text x="45.666721344" y="-2.770781279" class="f0">/</text>
         <text x="49.930706024" y="-2.770781279" class="f0">E</text>
         <text x="55.321331024" y="-2.770781279" class="f0">)</text>
        </g>
       </g>
      </g>
      <defs>
       <clipPath id="CLIP21">
        <path d="M308.24786377,87.477996826 L414.982727051,87.477996826 L414.982727051,101.51599884 L308.24786377,101.51599884 Z " />
       </clipPath>
      </defs>
      <g clip-path="url(#CLIP21)">
       <g>
        <g transform="matrix(1,0,0,1,309.072906494,100.796798706)">
         <text x="1" y="-2.75999999" class="f0">23.9</text>
        </g>
       </g>
      </g>
      <defs>
       <clipPath id="CLIP22">
        <path d="M415.482727051,87.477996826 L498.029266357,87.477996826 L498.029266357,101.51599884 L415.482727051,101.51599884 Z " />
       </clipPath>
      </defs>
      <g clip-path="url(#CLIP22)">
       <g>
        <g transform="matrix(1,0,0,1,416.307769775,100.796798706)">
         <text x="1" y="-2.75999999" class="f0">19.7</text>
        </g>
       </g>
      </g>
      <defs>
       <clipPath id="CLIP23">
        <path d="M0.25,102.01599884 L307.74786377,102.01599884 L307.74786377,116.054000854 L0.25,116.054000854 Z " />
       </clipPath>
      </defs>
      <g clip-path="url(#CLIP23)">
       <g>
        <g transform="matrix(1,0,0,1,1.075036168,115.33480072)">
         <text x="1" y="-2.770781279" class="f1">市</text>
         <text x="12.039999962" y="-2.770781279" class="f1">净</text>
         <text x="23.079999924" y="-2.770781279" class="f1">率</text>
         <text x="34.119998932" y="-2.770781279" class="f0">(</text>
         <text x="37.467575073" y="-2.770781279" class="f0">P</text>
         <text x="43.170856476" y="-2.770781279" class="f0">/</text>
         <text x="47.434841156" y="-2.770781279" class="f0">B</text>
         <text x="53.439998627" y="-2.770781279" class="f0">)</text>
        </g>
       </g>
      </g>
      <defs>
       <clipPath id="CLIP24">
        <path d="M308.24786377,102.01599884 L414.982727051,102.01599884 L414.982727051,116.054000854 L308.24786377,116.054000854 Z " />
       </clipPath>
      </defs>
      <g clip-path="url(#CLIP24)">
       <g>
        <g transform="matrix(1,0,0,1,309.072906494,115.33480072)">
         <text x="1" y="-2.75999999" class="f0">4.7</text>
        </g>
       </g>
      </g>
      <defs>
       <clipPath id="CLIP25">
        <path d="M415.482727051,102.01599884 L498.029266357,102.01599884 L498.029266357,116.054000854 L415.482727051,116.054000854 Z " />
       </clipPath>
      </defs>
      <g clip-path="url(#CLIP25)">
       <g>
        <g transform="matrix(1,0,0,1,416.307769775,115.33480072)">
         <text x="1" y="-2.75999999" class="f0">3.7</text>
        </g>
       </g>
      </g>
     </g>
    </g>
    <defs>
     <clipPath id="CLIP26">
      <path d="M-0.5,-0.5 L499.5,-0.5 L499.5,117.5 L-0.5,117.5 Z " />
     </clipPath>
    </defs>
    <g clip-path="url(#CLIP26)">
     <g />
    </g>
   </g>
   <g />
   <g />
   <g />
   <g>
    <g>
     <g />
     <g shape-rendering="crispEdges" />
    </g>
    <g>
     <g />
    </g>
    <g>
     <g />
    </g>
   </g>
   <g>
    <text x="10" y="10" class="f2">Evaluation Only. Created with Aspose.Cells for Python via Java.Copyright 2003 - 2023 Aspose Pty Ltd.</text>
   </g>
  </g>
 </g>
 <defs />
 <defs>
  <style type="text/css">
   <![CDATA[
   
.f0
{
font-family:Calibri;
font-size:11.039999962px;
fill:#000000;
}

.f1
{
font-family:Microsoft YaHei Light;
font-size:11.039999962px;
fill:#000000;
}

.f2
{
font-family:Arial;
font-size:10px;
fill:#FF0000;
}

   
.p0
{
stroke:#000000;
stroke-width:2.907599926px;
stroke-linecap:butt;
stroke-linejoin:miter;
}

   ]]></style>
 </defs>
</svg>
