<?xml version="1.0" encoding="UTF-8" standalone="yes"?>
<svg xmlns="http://www.w3.org/2000/svg" xmlns:xlink="http://www.w3.org/1999/xlink" width="612pt" height="792pt">
 <g id="SFixTitle" />
 <g id="SContent">
  <g transform="scale(1.33333)">
   <rect width="100%" height="100%" fill="white" />
   <g>
    <g>
     <g />
     <g shape-rendering="crispEdges" />
    </g>
    <g>
     <g />
    </g>
    <g>
     <g />
    </g>
   </g>
   <g transform="matrix(1,0,0,1,50.400001526,54)">
    <defs>
     <clipPath id="CLIP0">
      <path d="M-0.5,-0.5 L495.5,-0.5 L495.5,131.5 L-0.5,131.5 Z " />
     </clipPath>
    </defs>
    <g clip-path="url(#CLIP0)">
     <g />
     <g shape-rendering="crispEdges" />
    </g>
    <defs>
     <clipPath id="CLIP1">
      <path d="M-0.5,-1.453799963 L495.5,-1.453799963 L495.5,132.546203613 L-0.5,132.546203613 Z " />
     </clipPath>
    </defs>
    <g clip-path="url(#CLIP1)">
     <g>
      <g />
      <path d="M 0,0 L 275.746765137,0" class="p0" fill="none" />
      <path d="M 0,58.152000427 L 275.746765137,58.152000427" class="p0" fill="none" />
      <path d="M 0,116.304000854 L 275.746765137,116.304000854" class="p0" fill="none" />
      <path d="M 0,0 L 0,14.538000107" class="p0" fill="none" />
      <path d="M 0,58.152000427 L 0,72.690002441" class="p0" fill="none" />
      <path d="M 0,116.304000854 L 0,130.841995239" class="p0" fill="none" />
      <path d="M 275.746765137,0 L 387.819274902,0" class="p0" fill="none" />
      <path d="M 275.746765137,58.152000427 L 387.819274902,58.152000427" class="p0" fill="none" />
      <path d="M 275.746765137,116.304000854 L 387.819274902,116.304000854" class="p0" fill="none" />
      <path d="M 275.747009277,0 L 275.747009277,14.538000107" class="p0" fill="none" />
      <path d="M 275.747009277,58.152000427 L 275.747009277,72.690002441" class="p0" fill="none" />
      <path d="M 275.747009277,116.304000854 L 275.747009277,130.841995239" class="p0" fill="none" />
      <path d="M 387.81930542,0 L 471.672119141,0" class="p0" fill="none" />
      <path d="M 387.81930542,58.152000427 L 471.672119141,58.152000427" class="p0" fill="none" />
      <path d="M 387.81930542,116.304000854 L 471.672119141,116.304000854" class="p0" fill="none" />
      <path d="M 387.819000244,0 L 387.819000244,14.538000107" class="p0" fill="none" />
      <path d="M 387.819000244,58.152000427 L 387.819000244,72.690002441" class="p0" fill="none" />
      <path d="M 387.819000244,116.304000854 L 387.819000244,130.841995239" class="p0" fill="none" />
      <path d="M 471.672119141,0 L 494.24786377,0" class="p0" fill="none" />
      <path d="M 471.672119141,58.152000427 L 494.24786377,58.152000427" class="p0" fill="none" />
      <path d="M 471.672119141,116.304000854 L 494.24786377,116.304000854" class="p0" fill="none" />
      <path d="M 471.67199707,0 L 471.67199707,14.538000107" class="p0" fill="none" />
      <path d="M 471.67199707,58.152000427 L 471.67199707,72.690002441" class="p0" fill="none" />
      <path d="M 471.67199707,116.304000854 L 471.67199707,130.841995239" class="p0" fill="none" />
      <path d="M 494.24798584,0 L 494.24798584,14.538000107" class="p0" fill="none" />
      <path d="M 494.24798584,58.152000427 L 494.24798584,72.690002441" class="p0" fill="none" />
      <path d="M 494.24798584,116.304000854 L 494.24798584,130.841995239" class="p0" fill="none" />
      <path d="M 0,14.538000107 L 275.746765137,14.538000107" class="p0" fill="none" />
      <path d="M 0,72.690002441 L 275.746765137,72.690002441" class="p0" fill="none" />
      <path d="M 0,130.841995239 L 275.746765137,130.841995239" class="p0" fill="none" />
      <path d="M 0,14.538000107 L 0,29.076000214" class="p0" fill="none" />
      <path d="M 0,72.690002441 L 0,87.228004456" class="p0" fill="none" />
      <path d="M 275.746765137,14.538000107 L 387.819274902,14.538000107" class="p0" fill="none" />
      <path d="M 275.746765137,72.690002441 L 387.819274902,72.690002441" class="p0" fill="none" />
      <path d="M 275.746765137,130.841995239 L 387.819274902,130.841995239" class="p0" fill="none" />
      <path d="M 275.747009277,14.538000107 L 275.747009277,29.076000214" class="p0" fill="none" />
      <path d="M 275.747009277,72.690002441 L 275.747009277,87.228004456" class="p0" fill="none" />
      <path d="M 387.81930542,14.538000107 L 471.672119141,14.538000107" class="p0" fill="none" />
      <path d="M 387.81930542,72.690002441 L 471.672119141,72.690002441" class="p0" fill="none" />
      <path d="M 387.81930542,130.841995239 L 471.672119141,130.841995239" class="p0" fill="none" />
      <path d="M 387.819000244,14.538000107 L 387.819000244,29.076000214" class="p0" fill="none" />
      <path d="M 387.819000244,72.690002441 L 387.819000244,87.228004456" class="p0" fill="none" />
      <path d="M 471.672119141,14.538000107 L 494.24786377,14.538000107" class="p0" fill="none" />
      <path d="M 471.672119141,72.690002441 L 494.24786377,72.690002441" class="p0" fill="none" />
      <path d="M 471.672119141,130.841995239 L 494.24786377,130.841995239" class="p0" fill="none" />
      <path d="M 471.67199707,14.538000107 L 471.67199707,29.076000214" class="p0" fill="none" />
      <path d="M 471.67199707,72.690002441 L 471.67199707,87.228004456" class="p0" fill="none" />
      <path d="M 494.24798584,14.538000107 L 494.24798584,29.076000214" class="p0" fill="none" />
      <path d="M 494.24798584,72.690002441 L 494.24798584,87.228004456" class="p0" fill="none" />
      <path d="M 0,29.076000214 L 275.746765137,29.076000214" class="p0" fill="none" />
      <path d="M 0,87.227996826 L 275.746765137,87.227996826" class="p0" fill="none" />
      <path d="M 0,29.076000214 L 0,43.613998413" class="p0" fill="none" />
      <path d="M 0,87.227996826 L 0,101.76599884" class="p0" fill="none" />
      <path d="M 275.746765137,29.076000214 L 387.819274902,29.076000214" class="p0" fill="none" />
      <path d="M 275.746765137,87.227996826 L 387.819274902,87.227996826" class="p0" fill="none" />
      <path d="M 275.747009277,29.076000214 L 275.747009277,43.613998413" class="p0" fill="none" />
      <path d="M 275.747009277,87.227996826 L 275.747009277,101.76599884" class="p0" fill="none" />
      <path d="M 387.81930542,29.076000214 L 471.672119141,29.076000214" class="p0" fill="none" />
      <path d="M 387.81930542,87.227996826 L 471.672119141,87.227996826" class="p0" fill="none" />
      <path d="M 387.819000244,29.076000214 L 387.819000244,43.613998413" class="p0" fill="none" />
      <path d="M 387.819000244,87.227996826 L 387.819000244,101.76599884" class="p0" fill="none" />
      <path d="M 471.672119141,29.076000214 L 494.24786377,29.076000214" class="p0" fill="none" />
      <path d="M 471.672119141,87.227996826 L 494.24786377,87.227996826" class="p0" fill="none" />
      <path d="M 471.67199707,29.076000214 L 471.67199707,43.613998413" class="p0" fill="none" />
      <path d="M 471.67199707,87.227996826 L 471.67199707,101.76599884" class="p0" fill="none" />
      <path d="M 494.24798584,29.076000214 L 494.24798584,43.613998413" class="p0" fill="none" />
      <path d="M 494.24798584,87.227996826 L 494.24798584,101.76599884" class="p0" fill="none" />
      <path d="M 0,43.613998413 L 275.746765137,43.613998413" class="p0" fill="none" />
      <path d="M 0,101.76599884 L 275.746765137,101.76599884" class="p0" fill="none" />
      <path d="M 0,43.613998413 L 0,58.152000427" class="p0" fill="none" />
      <path d="M 0,101.76599884 L 0,116.304000854" class="p0" fill="none" />
      <path d="M 275.746765137,43.613998413 L 387.819274902,43.613998413" class="p0" fill="none" />
      <path d="M 275.746765137,101.76599884 L 387.819274902,101.76599884" class="p0" fill="none" />
      <path d="M 275.747009277,43.613998413 L 275.747009277,58.152000427" class="p0" fill="none" />
      <path d="M 275.747009277,101.76599884 L 275.747009277,116.304000854" class="p0" fill="none" />
      <path d="M 387.81930542,43.613998413 L 471.672119141,43.613998413" class="p0" fill="none" />
      <path d="M 387.81930542,101.76599884 L 471.672119141,101.76599884" class="p0" fill="none" />
      <path d="M 387.819000244,43.613998413 L 387.819000244,58.152000427" class="p0" fill="none" />
      <path d="M 387.819000244,101.76599884 L 387.819000244,116.304000854" class="p0" fill="none" />
      <path d="M 471.672119141,43.613998413 L 494.24786377,43.613998413" class="p0" fill="none" />
      <path d="M 471.672119141,101.76599884 L 494.24786377,101.76599884" class="p0" fill="none" />
      <path d="M 471.67199707,43.613998413 L 471.67199707,58.152000427" class="p0" fill="none" />
      <path d="M 471.67199707,101.76599884 L 471.67199707,116.304000854" class="p0" fill="none" />
      <path d="M 494.24798584,43.613998413 L 494.24798584,58.152000427" class="p0" fill="none" />
      <path d="M 494.24798584,101.76599884 L 494.24798584,116.304000854" class="p0" fill="none" />
     </g>
    </g>
    <defs>
     <clipPath id="CLIP2">
      <path d="M-0.5,-0.5 L495.5,-0.5 L495.5,131.5 L-0.5,131.5 Z " />
     </clipPath>
    </defs>
    <g clip-path="url(#CLIP2)">
     <g>
      <defs>
       <clipPath id="CLIP3">
        <path d="M275.996765137,0.25 L387.569274902,0.25 L387.569274902,14.288000107 L275.996765137,14.288000107 Z " />
       </clipPath>
      </defs>
      <g clip-path="url(#CLIP3)">
       <g>
        <g transform="matrix(1,0,0,1,276.821807861,13.568799973)">
         <text x="1" y="-2.75999999" class="f0">2016</text>
        </g>
       </g>
      </g>
      <defs>
       <clipPath id="CLIP4">
        <path d="M388.06930542,0.25 L471.422119141,0.25 L471.422119141,14.288000107 L388.06930542,14.288000107 Z " />
       </clipPath>
      </defs>
      <g clip-path="url(#CLIP4)">
       <g>
        <g transform="matrix(1,0,0,1,388.894348145,13.568799973)">
         <text x="1" y="-2.75999999" class="f0">2017</text>
        </g>
       </g>
      </g>
      <defs>
       <clipPath id="CLIP5">
        <path d="M0.25,14.788000107 L275.496765137,14.788000107 L275.496765137,28.826000214 L0.25,28.826000214 Z " />
       </clipPath>
      </defs>
      <g clip-path="url(#CLIP5)">
       <g>
        <g transform="matrix(1,0,0,1,1.075036168,28.106800079)">
         <text x="1" y="-2.770781279" class="f1">营</text>
         <text x="12.039999962" y="-2.770781279" class="f1">业</text>
         <text x="23.079999924" y="-2.770781279" class="f1">收</text>
         <text x="34.119998932" y="-2.770781279" class="f1">入</text>
         <text x="45.159999847" y="-2.770781279" class="f0">(</text>
         <text x="48.507575989" y="-2.770781279" class="f1">百</text>
         <text x="59.547576904" y="-2.770781279" class="f1">万</text>
         <text x="70.58757782" y="-2.770781279" class="f1">元</text>
         <text x="81.627578735" y="-2.770781279" class="f0">)</text>
        </g>
       </g>
      </g>
      <defs>
       <clipPath id="CLIP6">
        <path d="M275.996765137,14.788000107 L387.569274902,14.788000107 L387.569274902,28.826000214 L275.996765137,28.826000214 Z " />
       </clipPath>
      </defs>
      <g clip-path="url(#CLIP6)">
       <g>
        <g transform="matrix(1,0,0,1,276.821807861,28.106800079)">
         <text x="1" y="-2.75999999" class="f0">119</text>
        </g>
       </g>
      </g>
      <defs>
       <clipPath id="CLIP7">
        <path d="M388.06930542,14.788000107 L471.422119141,14.788000107 L471.422119141,28.826000214 L388.06930542,28.826000214 Z " />
       </clipPath>
      </defs>
      <g clip-path="url(#CLIP7)">
       <g>
        <g transform="matrix(1,0,0,1,388.894348145,28.106800079)">
         <text x="1" y="-2.75999999" class="f0">126</text>
        </g>
       </g>
      </g>
      <defs>
       <clipPath id="CLIP8">
        <path d="M0.25,29.326000214 L275.496765137,29.326000214 L275.496765137,43.363998413 L0.25,43.363998413 Z " />
       </clipPath>
      </defs>
      <g clip-path="url(#CLIP8)">
       <g>
        <g transform="matrix(1,0,0,1,1.075036168,42.644798279)">
         <text x="1" y="-2.770781279" class="f1">增</text>
         <text x="12.039999962" y="-2.770781279" class="f1">长</text>
         <text x="23.079999924" y="-2.770781279" class="f1">率</text>
         <text x="34.119998932" y="-2.770781279" class="f0">(</text>
         <text x="37.467575073" y="-2.770781279" class="f0">%</text>
         <text x="45.359451294" y="-2.770781279" class="f0">)</text>
        </g>
       </g>
      </g>
      <defs>
       <clipPath id="CLIP9">
        <path d="M275.996765137,29.326000214 L387.569274902,29.326000214 L387.569274902,43.363998413 L275.996765137,43.363998413 Z " />
       </clipPath>
      </defs>
      <g clip-path="url(#CLIP9)">
       <g>
        <g transform="matrix(1,0,0,1,276.821807861,42.644798279)">
         <text x="1" y="-2.75999999" class="f0">7%</text>
        </g>
       </g>
      </g>
      <defs>
       <clipPath id="CLIP10">
        <path d="M388.06930542,29.326000214 L471.422119141,29.326000214 L471.422119141,43.363998413 L388.06930542,43.363998413 Z " />
       </clipPath>
      </defs>
      <g clip-path="url(#CLIP10)">
       <g>
        <g transform="matrix(1,0,0,1,388.894348145,42.644798279)">
         <text x="1" y="-2.75999999" class="f0">7%</text>
        </g>
       </g>
      </g>
      <defs>
       <clipPath id="CLIP11">
        <path d="M0.25,58.402000427 L275.496765137,58.402000427 L275.496765137,72.440002441 L0.25,72.440002441 Z " />
       </clipPath>
      </defs>
      <g clip-path="url(#CLIP11)">
       <g>
        <g transform="matrix(1,0,0,1,1.075036168,71.720802307)">
         <text x="1" y="-2.770781279" class="f1">净</text>
         <text x="12.039999962" y="-2.770781279" class="f1">利</text>
         <text x="23.079999924" y="-2.770781279" class="f1">润</text>
         <text x="34.119998932" y="-2.770781279" class="f0">(</text>
         <text x="37.467575073" y="-2.770781279" class="f1">百</text>
         <text x="48.507575989" y="-2.770781279" class="f1">万</text>
         <text x="59.547576904" y="-2.770781279" class="f1">元</text>
         <text x="70.58757782" y="-2.770781279" class="f0">)</text>
        </g>
       </g>
      </g>
      <defs>
       <clipPath id="CLIP12">
        <path d="M275.996765137,58.402000427 L387.569274902,58.402000427 L387.569274902,72.440002441 L275.996765137,72.440002441 Z " />
       </clipPath>
      </defs>
      <g clip-path="url(#CLIP12)">
       <g>
        <g transform="matrix(1,0,0,1,276.821807861,71.720802307)">
         <text x="1" y="-2.75999999" class="f0">36</text>
        </g>
       </g>
      </g>
      <defs>
       <clipPath id="CLIP13">
        <path d="M388.06930542,58.402000427 L471.422119141,58.402000427 L471.422119141,72.440002441 L388.06930542,72.440002441 Z " />
       </clipPath>
      </defs>
      <g clip-path="url(#CLIP13)">
       <g>
        <g transform="matrix(1,0,0,1,388.894348145,71.720802307)">
         <text x="1" y="-2.75999999" class="f0">44</text>
        </g>
       </g>
      </g>
      <defs>
       <clipPath id="CLIP14">
        <path d="M0.25,72.940002441 L275.496765137,72.940002441 L275.496765137,86.978004456 L0.25,86.978004456 Z " />
       </clipPath>
      </defs>
      <g clip-path="url(#CLIP14)">
       <g>
        <g transform="matrix(1,0,0,1,1.075036168,86.258804321)">
         <text x="1" y="-2.770781279" class="f1">增</text>
         <text x="12.039999962" y="-2.770781279" class="f1">长</text>
         <text x="23.079999924" y="-2.770781279" class="f1">率</text>
         <text x="34.119998932" y="-2.770781279" class="f0">(</text>
         <text x="37.467575073" y="-2.770781279" class="f0">%</text>
         <text x="45.359451294" y="-2.770781279" class="f0">)</text>
        </g>
       </g>
      </g>
      <defs>
       <clipPath id="CLIP15">
        <path d="M275.996765137,72.940002441 L387.569274902,72.940002441 L387.569274902,86.978004456 L275.996765137,86.978004456 Z " />
       </clipPath>
      </defs>
      <g clip-path="url(#CLIP15)">
       <g>
        <g transform="matrix(1,0,0,1,276.821807861,86.258804321)">
         <text x="1" y="-2.75999999" class="f0">-120%</text>
        </g>
       </g>
      </g>
      <defs>
       <clipPath id="CLIP16">
        <path d="M388.06930542,72.940002441 L471.422119141,72.940002441 L471.422119141,86.978004456 L388.06930542,86.978004456 Z " />
       </clipPath>
      </defs>
      <g clip-path="url(#CLIP16)">
       <g>
        <g transform="matrix(1,0,0,1,388.894348145,86.258804321)">
         <text x="1" y="-2.75999999" class="f0">21%</text>
        </g>
       </g>
      </g>
      <defs>
       <clipPath id="CLIP17">
        <path d="M0.25,87.477996826 L275.496765137,87.477996826 L275.496765137,101.51599884 L0.25,101.51599884 Z " />
       </clipPath>
      </defs>
      <g clip-path="url(#CLIP17)">
       <g>
        <g transform="matrix(1,0,0,1,1.075036168,100.796798706)">
         <text x="1" y="-2.770781279" class="f1">每</text>
         <text x="12.039999962" y="-2.770781279" class="f1">股</text>
         <text x="23.079999924" y="-2.770781279" class="f1">收</text>
         <text x="34.119998932" y="-2.770781279" class="f1">益</text>
         <text x="45.159999847" y="-2.770781279" class="f0">(</text>
         <text x="48.507575989" y="-2.770781279" class="f0">E</text>
         <text x="53.898200989" y="-2.770781279" class="f0">P</text>
         <text x="59.601482391" y="-2.770781279" class="f0">S</text>
         <text x="64.674057007" y="-2.770781279" class="f0">)</text>
        </g>
       </g>
      </g>
      <defs>
       <clipPath id="CLIP18">
        <path d="M275.996765137,87.477996826 L387.569274902,87.477996826 L387.569274902,101.51599884 L275.996765137,101.51599884 Z " />
       </clipPath>
      </defs>
      <g clip-path="url(#CLIP18)">
       <g>
        <g transform="matrix(1,0,0,1,276.821807861,100.796798706)">
         <text x="1" y="-2.75999999" class="f0">0.10</text>
        </g>
       </g>
      </g>
      <defs>
       <clipPath id="CLIP19">
        <path d="M388.06930542,87.477996826 L471.422119141,87.477996826 L471.422119141,101.51599884 L388.06930542,101.51599884 Z " />
       </clipPath>
      </defs>
      <g clip-path="url(#CLIP19)">
       <g>
        <g transform="matrix(1,0,0,1,388.894348145,100.796798706)">
         <text x="1" y="-2.75999999" class="f0">0.12</text>
        </g>
       </g>
      </g>
      <defs>
       <clipPath id="CLIP20">
        <path d="M0.25,102.01599884 L275.496765137,102.01599884 L275.496765137,116.054000854 L0.25,116.054000854 Z " />
       </clipPath>
      </defs>
      <g clip-path="url(#CLIP20)">
       <g>
        <g transform="matrix(1,0,0,1,1.075036168,115.33480072)">
         <text x="1" y="-2.770781279" class="f1">市</text>
         <text x="12.039999962" y="-2.770781279" class="f1">盈</text>
         <text x="23.079999924" y="-2.770781279" class="f1">率</text>
         <text x="34.119998932" y="-2.770781279" class="f0">(</text>
         <text x="37.467575073" y="-2.770781279" class="f0">P</text>
         <text x="43.170856476" y="-2.770781279" class="f0">/</text>
         <text x="47.434841156" y="-2.770781279" class="f0">E</text>
         <text x="52.825466156" y="-2.770781279" class="f0">)</text>
        </g>
       </g>
      </g>
      <defs>
       <clipPath id="CLIP21">
        <path d="M275.996765137,102.01599884 L387.569274902,102.01599884 L387.569274902,116.054000854 L275.996765137,116.054000854 Z " />
       </clipPath>
      </defs>
      <g clip-path="url(#CLIP21)">
       <g>
        <g transform="matrix(1,0,0,1,276.821807861,115.33480072)">
         <text x="1" y="-2.75999999" class="f0">23.9</text>
        </g>
       </g>
      </g>
      <defs>
       <clipPath id="CLIP22">
        <path d="M388.06930542,102.01599884 L471.422119141,102.01599884 L471.422119141,116.054000854 L388.06930542,116.054000854 Z " />
       </clipPath>
      </defs>
      <g clip-path="url(#CLIP22)">
       <g>
        <g transform="matrix(1,0,0,1,388.894348145,115.33480072)">
         <text x="1" y="-2.75999999" class="f0">19.7</text>
        </g>
       </g>
      </g>
      <defs>
       <clipPath id="CLIP23">
        <path d="M0.25,116.554000854 L275.496765137,116.554000854 L275.496765137,130.591995239 L0.25,130.591995239 Z " />
       </clipPath>
      </defs>
      <g clip-path="url(#CLIP23)">
       <g>
        <g transform="matrix(1,0,0,1,1.075036168,129.872802734)">
         <text x="1" y="-2.770781279" class="f1">市</text>
         <text x="12.039999962" y="-2.770781279" class="f1">净</text>
         <text x="23.079999924" y="-2.770781279" class="f1">率</text>
         <text x="34.119998932" y="-2.770781279" class="f0">(</text>
         <text x="37.467575073" y="-2.770781279" class="f0">P</text>
         <text x="43.170856476" y="-2.770781279" class="f0">/</text>
         <text x="47.434841156" y="-2.770781279" class="f0">B</text>
         <text x="53.439998627" y="-2.770781279" class="f0">)</text>
        </g>
       </g>
      </g>
      <defs>
       <clipPath id="CLIP24">
        <path d="M275.996765137,116.554000854 L387.569274902,116.554000854 L387.569274902,130.591995239 L275.996765137,130.591995239 Z " />
       </clipPath>
      </defs>
      <g clip-path="url(#CLIP24)">
       <g>
        <g transform="matrix(1,0,0,1,276.821807861,129.872802734)">
         <text x="1" y="-2.75999999" class="f0">4.7</text>
        </g>
       </g>
      </g>
      <defs>
       <clipPath id="CLIP25">
        <path d="M388.06930542,116.554000854 L471.422119141,116.554000854 L471.422119141,130.591995239 L388.06930542,130.591995239 Z " />
       </clipPath>
      </defs>
      <g clip-path="url(#CLIP25)">
       <g>
        <g transform="matrix(1,0,0,1,388.894348145,129.872802734)">
         <text x="1" y="-2.75999999" class="f0">3.75</text>
        </g>
       </g>
      </g>
      <defs>
       <clipPath id="CLIP26">
        <path d="M471.922119141,116.554000854 L493.99786377,116.554000854 L493.99786377,130.591995239 L471.922119141,130.591995239 Z " />
       </clipPath>
      </defs>
      <g clip-path="url(#CLIP26)">
       <g>
        <g transform="matrix(1,0,0,1,472.747161865,129.872802734)">
         <text x="1" y="-2.770781279" class="f1">飞</text>
        </g>
       </g>
      </g>
     </g>
    </g>
    <defs>
     <clipPath id="CLIP27">
      <path d="M-0.5,-0.5 L495.5,-0.5 L495.5,131.5 L-0.5,131.5 Z " />
     </clipPath>
    </defs>
    <g clip-path="url(#CLIP27)">
     <g />
    </g>
   </g>
   <g />
   <g />
   <g />
   <g>
    <g>
     <g />
     <g shape-rendering="crispEdges" />
    </g>
    <g>
     <g />
    </g>
    <g>
     <g />
    </g>
   </g>
   <g>
    <text x="10" y="10" class="f2">Evaluation Only. Created with Aspose.Cells for Python via Java.Copyright 2003 - 2023 Aspose Pty Ltd.</text>
   </g>
  </g>
 </g>
 <defs />
 <defs>
  <style type="text/css">
   <![CDATA[
   
.f0
{
font-family:Calibri;
font-size:11.039999962px;
fill:#000000;
}

.f1
{
font-family:Microsoft YaHei Light;
font-size:11.039999962px;
fill:#000000;
}

.f2
{
font-family:Arial;
font-size:10px;
fill:#FF0000;
}

   
.p0
{
stroke:#101010;
stroke-width:0.969200015px;
stroke-linecap:butt;
stroke-linejoin:miter;
}

   ]]></style>
 </defs>
</svg>
