<?xml version="1.0" encoding="UTF-8" standalone="yes"?>
<svg xmlns="http://www.w3.org/2000/svg" xmlns:xlink="http://www.w3.org/1999/xlink" width="612pt" height="792pt">
 <g id="SFixTitle" />
 <g id="SContent">
  <g transform="scale(1.33333)">
   <rect width="100%" height="100%" fill="white" />
   <g>
    <g>
     <g />
     <g shape-rendering="crispEdges" />
    </g>
    <g>
     <g />
    </g>
    <g>
     <g />
    </g>
   </g>
   <g transform="matrix(1,0,0,1,50.400001526,54)">
    <defs>
     <clipPath id="CLIP0">
      <path d="M-0.5,-0.5 L504.5,-0.5 L504.5,509.5 L-0.5,509.5 Z " />
     </clipPath>
    </defs>
    <g clip-path="url(#CLIP0)">
     <g />
     <g shape-rendering="crispEdges" />
    </g>
    <defs>
     <clipPath id="CLIP1">
      <path d="M-0.5,-1.453799963 L504.5,-1.453799963 L504.5,510.546203613 L-0.5,510.546203613 Z " />
     </clipPath>
    </defs>
    <g clip-path="url(#CLIP1)">
     <g>
      <g />
      <path d="M 0,0 L 209.632049561,0" class="p0" fill="none" />
      <path d="M 0,232.608001709 L 209.632049561,232.608001709" class="p0" fill="none" />
      <path d="M 0,0 L 0,14.538000107" class="p0" fill="none" />
      <path d="M 0,232.608001709 L 0,247.145996094" class="p0" fill="none" />
      <path d="M 209.632049561,0 L 288.647216797,0" class="p0" fill="none" />
      <path d="M 209.632049561,232.608001709 L 288.647216797,232.608001709" class="p0" fill="none" />
      <path d="M 209.632003784,0 L 209.632003784,14.538000107" class="p0" fill="none" />
      <path d="M 209.632003784,232.608001709 L 209.632003784,247.145996094" class="p0" fill="none" />
      <path d="M 288.647216797,0 L 366.049804688,0" class="p0" fill="none" />
      <path d="M 288.647216797,232.608001709 L 366.049804688,232.608001709" class="p0" fill="none" />
      <path d="M 288.647003174,0 L 288.647003174,14.538000107" class="p0" fill="none" />
      <path d="M 288.647003174,232.608001709 L 288.647003174,247.145996094" class="p0" fill="none" />
      <path d="M 366.049804688,0 L 433.777099609,0" class="p0" fill="none" />
      <path d="M 366.049804688,232.608001709 L 433.777099609,232.608001709" class="p0" fill="none" />
      <path d="M 366.049987793,0 L 366.049987793,14.538000107" class="p0" fill="none" />
      <path d="M 366.049987793,232.608001709 L 366.049987793,247.145996094" class="p0" fill="none" />
      <path d="M 433.777099609,0 L 503.116943359,0" class="p0" fill="none" />
      <path d="M 433.777099609,232.608001709 L 503.116943359,232.608001709" class="p0" fill="none" />
      <path d="M 433.777008057,0 L 433.777008057,14.538000107" class="p0" fill="none" />
      <path d="M 433.777008057,232.608001709 L 433.777008057,247.145996094" class="p0" fill="none" />
      <path d="M 503.117004395,0 L 503.117004395,14.538000107" class="p0" fill="none" />
      <path d="M 503.117004395,232.608001709 L 503.117004395,247.145996094" class="p0" fill="none" />
      <path d="M 0,14.538000107 L 209.632049561,14.538000107" class="p0" fill="none" />
      <path d="M 0,247.145996094 L 209.632049561,247.145996094" class="p0" fill="none" />
      <path d="M 0,14.538000107 L 0,29.076000214" class="p0" fill="none" />
      <path d="M 0,247.145996094 L 0,261.683990479" class="p0" fill="none" />
      <path d="M 209.632049561,14.538000107 L 288.647216797,14.538000107" class="p0" fill="none" />
      <path d="M 209.632049561,247.145996094 L 288.647216797,247.145996094" class="p0" fill="none" />
      <path d="M 209.632003784,14.538000107 L 209.632003784,29.076000214" class="p0" fill="none" />
      <path d="M 209.632003784,247.145996094 L 209.632003784,261.683990479" class="p0" fill="none" />
      <path d="M 288.647216797,14.538000107 L 366.049804688,14.538000107" class="p0" fill="none" />
      <path d="M 288.647216797,247.145996094 L 366.049804688,247.145996094" class="p0" fill="none" />
      <path d="M 288.647003174,14.538000107 L 288.647003174,29.076000214" class="p0" fill="none" />
      <path d="M 288.647003174,247.145996094 L 288.647003174,261.683990479" class="p0" fill="none" />
      <path d="M 366.049804688,14.538000107 L 433.777099609,14.538000107" class="p0" fill="none" />
      <path d="M 366.049804688,247.145996094 L 433.777099609,247.145996094" class="p0" fill="none" />
      <path d="M 366.049987793,14.538000107 L 366.049987793,29.076000214" class="p0" fill="none" />
      <path d="M 366.049987793,247.145996094 L 366.049987793,261.683990479" class="p0" fill="none" />
      <path d="M 433.777099609,14.538000107 L 503.116943359,14.538000107" class="p0" fill="none" />
      <path d="M 433.777099609,247.145996094 L 503.116943359,247.145996094" class="p0" fill="none" />
      <path d="M 433.777008057,14.538000107 L 433.777008057,29.076000214" class="p0" fill="none" />
      <path d="M 433.777008057,247.145996094 L 433.777008057,261.683990479" class="p0" fill="none" />
      <path d="M 503.117004395,14.538000107 L 503.117004395,29.076000214" class="p0" fill="none" />
      <path d="M 503.117004395,247.145996094 L 503.117004395,261.683990479" class="p0" fill="none" />
      <path d="M 0,29.076000214 L 209.632049561,29.076000214" class="p0" fill="none" />
      <path d="M 0,261.683990479 L 209.632049561,261.683990479" class="p0" fill="none" />
      <path d="M 0,29.076000214 L 0,43.613998413" class="p0" fill="none" />
      <path d="M 0,261.683990479 L 0,276.221984863" class="p0" fill="none" />
      <path d="M 209.632049561,29.076000214 L 288.647216797,29.076000214" class="p0" fill="none" />
      <path d="M 209.632049561,261.683990479 L 288.647216797,261.683990479" class="p0" fill="none" />
      <path d="M 209.632003784,29.076000214 L 209.632003784,43.613998413" class="p0" fill="none" />
      <path d="M 209.632003784,261.683990479 L 209.632003784,276.221984863" class="p0" fill="none" />
      <path d="M 288.647216797,29.076000214 L 366.049804688,29.076000214" class="p0" fill="none" />
      <path d="M 288.647216797,261.683990479 L 366.049804688,261.683990479" class="p0" fill="none" />
      <path d="M 288.647003174,29.076000214 L 288.647003174,43.613998413" class="p0" fill="none" />
      <path d="M 288.647003174,261.683990479 L 288.647003174,276.221984863" class="p0" fill="none" />
      <path d="M 366.049804688,29.076000214 L 433.777099609,29.076000214" class="p0" fill="none" />
      <path d="M 366.049804688,261.683990479 L 433.777099609,261.683990479" class="p0" fill="none" />
      <path d="M 366.049987793,29.076000214 L 366.049987793,43.613998413" class="p0" fill="none" />
      <path d="M 366.049987793,261.683990479 L 366.049987793,276.221984863" class="p0" fill="none" />
      <path d="M 433.777099609,29.076000214 L 503.116943359,29.076000214" class="p0" fill="none" />
      <path d="M 433.777099609,261.683990479 L 503.116943359,261.683990479" class="p0" fill="none" />
      <path d="M 433.777008057,29.076000214 L 433.777008057,43.613998413" class="p0" fill="none" />
      <path d="M 433.777008057,261.683990479 L 433.777008057,276.221984863" class="p0" fill="none" />
      <path d="M 503.117004395,29.076000214 L 503.117004395,43.613998413" class="p0" fill="none" />
      <path d="M 503.117004395,261.683990479 L 503.117004395,276.221984863" class="p0" fill="none" />
      <path d="M 0,43.613998413 L 209.632049561,43.613998413" class="p0" fill="none" />
      <path d="M 0,276.221984863 L 209.632049561,276.221984863" class="p0" fill="none" />
      <path d="M 0,43.613998413 L 0,58.152000427" class="p0" fill="none" />
      <path d="M 0,276.222015381 L 0,290.760009766" class="p0" fill="none" />
      <path d="M 209.632049561,43.613998413 L 288.647216797,43.613998413" class="p0" fill="none" />
      <path d="M 209.632049561,276.221984863 L 288.647216797,276.221984863" class="p0" fill="none" />
      <path d="M 209.632003784,43.613998413 L 209.632003784,58.152000427" class="p0" fill="none" />
      <path d="M 209.632003784,276.222015381 L 209.632003784,290.760009766" class="p0" fill="none" />
      <path d="M 288.647216797,43.613998413 L 366.049804688,43.613998413" class="p0" fill="none" />
      <path d="M 288.647216797,276.221984863 L 366.049804688,276.221984863" class="p0" fill="none" />
      <path d="M 288.647003174,43.613998413 L 288.647003174,58.152000427" class="p0" fill="none" />
      <path d="M 288.647003174,276.222015381 L 288.647003174,290.760009766" class="p0" fill="none" />
      <path d="M 366.049804688,43.613998413 L 433.777099609,43.613998413" class="p0" fill="none" />
      <path d="M 366.049804688,276.221984863 L 433.777099609,276.221984863" class="p0" fill="none" />
      <path d="M 366.049987793,43.613998413 L 366.049987793,58.152000427" class="p0" fill="none" />
      <path d="M 366.049987793,276.222015381 L 366.049987793,290.760009766" class="p0" fill="none" />
      <path d="M 433.777099609,43.613998413 L 503.116943359,43.613998413" class="p0" fill="none" />
      <path d="M 433.777099609,276.221984863 L 503.116943359,276.221984863" class="p0" fill="none" />
      <path d="M 433.777008057,43.613998413 L 433.777008057,58.152000427" class="p0" fill="none" />
      <path d="M 433.777008057,276.222015381 L 433.777008057,290.760009766" class="p0" fill="none" />
      <path d="M 503.117004395,43.613998413 L 503.117004395,58.152000427" class="p0" fill="none" />
      <path d="M 503.117004395,276.222015381 L 503.117004395,290.760009766" class="p0" fill="none" />
      <path d="M 0,58.152000427 L 209.632049561,58.152000427" class="p0" fill="none" />
      <path d="M 0,290.760009766 L 209.632049561,290.760009766" class="p0" fill="none" />
      <path d="M 0,58.152000427 L 0,72.690002441" class="p0" fill="none" />
      <path d="M 0,290.760009766 L 0,305.29800415" class="p0" fill="none" />
      <path d="M 209.632049561,58.152000427 L 288.647216797,58.152000427" class="p0" fill="none" />
      <path d="M 209.632049561,290.760009766 L 288.647216797,290.760009766" class="p0" fill="none" />
      <path d="M 209.632003784,58.152000427 L 209.632003784,72.690002441" class="p0" fill="none" />
      <path d="M 209.632003784,290.760009766 L 209.632003784,305.29800415" class="p0" fill="none" />
      <path d="M 288.647216797,58.152000427 L 366.049804688,58.152000427" class="p0" fill="none" />
      <path d="M 288.647216797,290.760009766 L 366.049804688,290.760009766" class="p0" fill="none" />
      <path d="M 288.647003174,58.152000427 L 288.647003174,72.690002441" class="p0" fill="none" />
      <path d="M 288.647003174,290.760009766 L 288.647003174,305.29800415" class="p0" fill="none" />
      <path d="M 366.049804688,58.152000427 L 433.777099609,58.152000427" class="p0" fill="none" />
      <path d="M 366.049804688,290.760009766 L 433.777099609,290.760009766" class="p0" fill="none" />
      <path d="M 366.049987793,58.152000427 L 366.049987793,72.690002441" class="p0" fill="none" />
      <path d="M 366.049987793,290.760009766 L 366.049987793,305.29800415" class="p0" fill="none" />
      <path d="M 433.777099609,58.152000427 L 503.116943359,58.152000427" class="p0" fill="none" />
      <path d="M 433.777099609,290.760009766 L 503.116943359,290.760009766" class="p0" fill="none" />
      <path d="M 433.777008057,58.152000427 L 433.777008057,72.690002441" class="p0" fill="none" />
      <path d="M 433.777008057,290.760009766 L 433.777008057,305.29800415" class="p0" fill="none" />
      <path d="M 503.117004395,58.152000427 L 503.117004395,72.690002441" class="p0" fill="none" />
      <path d="M 503.117004395,290.760009766 L 503.117004395,305.29800415" class="p0" fill="none" />
      <path d="M 0,72.690002441 L 209.632049561,72.690002441" class="p0" fill="none" />
      <path d="M 0,305.29800415 L 209.632049561,305.29800415" class="p0" fill="none" />
      <path d="M 0,72.690002441 L 0,87.228004456" class="p0" fill="none" />
      <path d="M 0,305.29800415 L 0,319.835998535" class="p0" fill="none" />
      <path d="M 209.632049561,72.690002441 L 288.647216797,72.690002441" class="p0" fill="none" />
      <path d="M 209.632049561,305.29800415 L 288.647216797,305.29800415" class="p0" fill="none" />
      <path d="M 209.632003784,72.690002441 L 209.632003784,87.228004456" class="p0" fill="none" />
      <path d="M 209.632003784,305.29800415 L 209.632003784,319.835998535" class="p0" fill="none" />
      <path d="M 288.647216797,72.690002441 L 366.049804688,72.690002441" class="p0" fill="none" />
      <path d="M 288.647216797,305.29800415 L 366.049804688,305.29800415" class="p0" fill="none" />
      <path d="M 288.647003174,72.690002441 L 288.647003174,87.228004456" class="p0" fill="none" />
      <path d="M 288.647003174,305.29800415 L 288.647003174,319.835998535" class="p0" fill="none" />
      <path d="M 366.049804688,72.690002441 L 433.777099609,72.690002441" class="p0" fill="none" />
      <path d="M 366.049804688,305.29800415 L 433.777099609,305.29800415" class="p0" fill="none" />
      <path d="M 366.049987793,72.690002441 L 366.049987793,87.228004456" class="p0" fill="none" />
      <path d="M 366.049987793,305.29800415 L 366.049987793,319.835998535" class="p0" fill="none" />
      <path d="M 433.777099609,72.690002441 L 503.116943359,72.690002441" class="p0" fill="none" />
      <path d="M 433.777099609,305.29800415 L 503.116943359,305.29800415" class="p0" fill="none" />
      <path d="M 433.777008057,72.690002441 L 433.777008057,87.228004456" class="p0" fill="none" />
      <path d="M 433.777008057,305.29800415 L 433.777008057,319.835998535" class="p0" fill="none" />
      <path d="M 503.117004395,72.690002441 L 503.117004395,87.228004456" class="p0" fill="none" />
      <path d="M 503.117004395,305.29800415 L 503.117004395,319.835998535" class="p0" fill="none" />
      <path d="M 0,87.227996826 L 209.632049561,87.227996826" class="p0" fill="none" />
      <path d="M 0,319.835998535 L 209.632049561,319.835998535" class="p0" fill="none" />
      <path d="M 0,87.227996826 L 0,101.76599884" class="p0" fill="none" />
      <path d="M 0,319.835998535 L 0,334.37399292" class="p0" fill="none" />
      <path d="M 209.632049561,87.227996826 L 288.647216797,87.227996826" class="p0" fill="none" />
      <path d="M 209.632049561,319.835998535 L 288.647216797,319.835998535" class="p0" fill="none" />
      <path d="M 209.632003784,87.227996826 L 209.632003784,101.76599884" class="p0" fill="none" />
      <path d="M 209.632003784,319.835998535 L 209.632003784,334.37399292" class="p0" fill="none" />
      <path d="M 288.647216797,87.227996826 L 366.049804688,87.227996826" class="p0" fill="none" />
      <path d="M 288.647216797,319.835998535 L 366.049804688,319.835998535" class="p0" fill="none" />
      <path d="M 288.647003174,87.227996826 L 288.647003174,101.76599884" class="p0" fill="none" />
      <path d="M 288.647003174,319.835998535 L 288.647003174,334.37399292" class="p0" fill="none" />
      <path d="M 366.049804688,87.227996826 L 433.777099609,87.227996826" class="p0" fill="none" />
      <path d="M 366.049804688,319.835998535 L 433.777099609,319.835998535" class="p0" fill="none" />
      <path d="M 366.049987793,87.227996826 L 366.049987793,101.76599884" class="p0" fill="none" />
      <path d="M 366.049987793,319.835998535 L 366.049987793,334.37399292" class="p0" fill="none" />
      <path d="M 433.777099609,87.227996826 L 503.116943359,87.227996826" class="p0" fill="none" />
      <path d="M 433.777099609,319.835998535 L 503.116943359,319.835998535" class="p0" fill="none" />
      <path d="M 433.777008057,87.227996826 L 433.777008057,101.76599884" class="p0" fill="none" />
      <path d="M 433.777008057,319.835998535 L 433.777008057,334.37399292" class="p0" fill="none" />
      <path d="M 503.117004395,87.227996826 L 503.117004395,101.76599884" class="p0" fill="none" />
      <path d="M 503.117004395,319.835998535 L 503.117004395,334.37399292" class="p0" fill="none" />
      <path d="M 0,101.76599884 L 209.632049561,101.76599884" class="p0" fill="none" />
      <path d="M 0,334.37399292 L 209.632049561,334.37399292" class="p0" fill="none" />
      <path d="M 0,101.76599884 L 0,116.304000854" class="p0" fill="none" />
      <path d="M 0,334.37399292 L 0,366.018371582" class="p0" fill="none" />
      <path d="M 209.632049561,101.76599884 L 288.647216797,101.76599884" class="p0" fill="none" />
      <path d="M 209.632049561,334.37399292 L 288.647216797,334.37399292" class="p0" fill="none" />
      <path d="M 209.632003784,101.76599884 L 209.632003784,116.304000854" class="p0" fill="none" />
      <path d="M 288.647216797,101.76599884 L 366.049804688,101.76599884" class="p0" fill="none" />
      <path d="M 288.647216797,334.37399292 L 366.049804688,334.37399292" class="p0" fill="none" />
      <path d="M 288.647003174,101.76599884 L 288.647003174,116.304000854" class="p0" fill="none" />
      <path d="M 366.049804688,101.76599884 L 433.777099609,101.76599884" class="p0" fill="none" />
      <path d="M 366.049804688,334.37399292 L 433.777099609,334.37399292" class="p0" fill="none" />
      <path d="M 366.049987793,101.76599884 L 366.049987793,116.304000854" class="p0" fill="none" />
      <path d="M 433.777099609,101.76599884 L 503.116943359,101.76599884" class="p0" fill="none" />
      <path d="M 433.777099609,334.37399292 L 503.116943359,334.37399292" class="p0" fill="none" />
      <path d="M 433.777008057,101.76599884 L 433.777008057,116.304000854" class="p0" fill="none" />
      <path d="M 503.117004395,101.76599884 L 503.117004395,116.304000854" class="p0" fill="none" />
      <path d="M 0,116.304000854 L 209.632049561,116.304000854" class="p0" fill="none" />
      <path d="M 0,366.018005371 L 209.632049561,366.018005371" class="p0" fill="none" />
      <path d="M 0,116.304000854 L 0,130.841995239" class="p0" fill="none" />
      <path d="M 0,366.018371582 L 0,410.020050049" class="p0" fill="none" />
      <path d="M 209.632049561,116.304000854 L 288.647216797,116.304000854" class="p0" fill="none" />
      <path d="M 209.632049561,366.018005371 L 288.647216797,366.018005371" class="p0" fill="none" />
      <path d="M 209.632003784,116.304000854 L 209.632003784,130.841995239" class="p0" fill="none" />
      <path d="M 288.647216797,116.304000854 L 366.049804688,116.304000854" class="p0" fill="none" />
      <path d="M 288.647216797,366.018005371 L 366.049804688,366.018005371" class="p0" fill="none" />
      <path d="M 288.647003174,116.304000854 L 288.647003174,130.841995239" class="p0" fill="none" />
      <path d="M 366.049804688,116.304000854 L 433.777099609,116.304000854" class="p0" fill="none" />
      <path d="M 366.049804688,366.018005371 L 433.777099609,366.018005371" class="p0" fill="none" />
      <path d="M 366.049987793,116.304000854 L 366.049987793,130.841995239" class="p0" fill="none" />
      <path d="M 433.777099609,116.304000854 L 503.116943359,116.304000854" class="p0" fill="none" />
      <path d="M 433.777099609,366.018005371 L 503.116943359,366.018005371" class="p0" fill="none" />
      <path d="M 433.777008057,116.304000854 L 433.777008057,130.841995239" class="p0" fill="none" />
      <path d="M 503.117004395,116.304000854 L 503.117004395,130.841995239" class="p0" fill="none" />
      <path d="M 0,130.841995239 L 209.632049561,130.841995239" class="p0" fill="none" />
      <path d="M 0,410.019989014 L 209.632049561,410.019989014" class="p0" fill="none" />
      <path d="M 0,130.841995239 L 0,145.379989624" class="p0" fill="none" />
      <path d="M 0,410.020080566 L 0,452.228729248" class="p0" fill="none" />
      <path d="M 209.632049561,130.841995239 L 288.647216797,130.841995239" class="p0" fill="none" />
      <path d="M 209.632049561,410.019989014 L 288.647216797,410.019989014" class="p0" fill="none" />
      <path d="M 209.632003784,130.841995239 L 209.632003784,145.379989624" class="p0" fill="none" />
      <path d="M 288.647216797,130.841995239 L 366.049804688,130.841995239" class="p0" fill="none" />
      <path d="M 288.647216797,410.019989014 L 366.049804688,410.019989014" class="p0" fill="none" />
      <path d="M 288.647003174,130.841995239 L 288.647003174,145.379989624" class="p0" fill="none" />
      <path d="M 366.049804688,130.841995239 L 433.777099609,130.841995239" class="p0" fill="none" />
      <path d="M 366.049804688,410.019989014 L 433.777099609,410.019989014" class="p0" fill="none" />
      <path d="M 366.049987793,130.841995239 L 366.049987793,145.379989624" class="p0" fill="none" />
      <path d="M 433.777099609,130.841995239 L 503.116943359,130.841995239" class="p0" fill="none" />
      <path d="M 433.777099609,410.019989014 L 503.116943359,410.019989014" class="p0" fill="none" />
      <path d="M 433.777008057,130.841995239 L 433.777008057,145.379989624" class="p0" fill="none" />
      <path d="M 503.117004395,130.841995239 L 503.117004395,145.379989624" class="p0" fill="none" />
      <path d="M 0,145.380004883 L 209.632049561,145.380004883" class="p0" fill="none" />
      <path d="M 0,452.229003906 L 209.632049561,452.229003906" class="p0" fill="none" />
      <path d="M 0,145.380004883 L 0,159.917999268" class="p0" fill="none" />
      <path d="M 0,452.228729248 L 0,480.335540771" class="p0" fill="none" />
      <path d="M 209.632049561,145.380004883 L 288.647216797,145.380004883" class="p0" fill="none" />
      <path d="M 209.632049561,452.229003906 L 288.647216797,452.229003906" class="p0" fill="none" />
      <path d="M 209.632003784,145.380004883 L 209.632003784,159.917999268" class="p0" fill="none" />
      <path d="M 288.647216797,145.380004883 L 366.049804688,145.380004883" class="p0" fill="none" />
      <path d="M 288.647216797,452.229003906 L 366.049804688,452.229003906" class="p0" fill="none" />
      <path d="M 288.647003174,145.380004883 L 288.647003174,159.917999268" class="p0" fill="none" />
      <path d="M 366.049804688,145.380004883 L 433.777099609,145.380004883" class="p0" fill="none" />
      <path d="M 366.049804688,452.229003906 L 433.777099609,452.229003906" class="p0" fill="none" />
      <path d="M 366.049987793,145.380004883 L 366.049987793,159.917999268" class="p0" fill="none" />
      <path d="M 433.777099609,145.380004883 L 503.116943359,145.380004883" class="p0" fill="none" />
      <path d="M 433.777099609,452.229003906 L 503.116943359,452.229003906" class="p0" fill="none" />
      <path d="M 433.777008057,145.380004883 L 433.777008057,159.917999268" class="p0" fill="none" />
      <path d="M 503.117004395,145.380004883 L 503.117004395,159.917999268" class="p0" fill="none" />
      <path d="M 0,159.917999268 L 209.632049561,159.917999268" class="p0" fill="none" />
      <path d="M 0,480.335998535 L 209.632049561,480.335998535" class="p0" fill="none" />
      <path d="M 0,159.917999268 L 0,174.455993652" class="p0" fill="none" />
      <path d="M 0,480.335540771 L 0,508.442352295" class="p0" fill="none" />
      <path d="M 209.632049561,159.917999268 L 288.647216797,159.917999268" class="p0" fill="none" />
      <path d="M 209.632049561,480.335998535 L 288.647216797,480.335998535" class="p0" fill="none" />
      <path d="M 209.632003784,159.917999268 L 209.632003784,174.455993652" class="p0" fill="none" />
      <path d="M 288.647216797,159.917999268 L 366.049804688,159.917999268" class="p0" fill="none" />
      <path d="M 288.647216797,480.335998535 L 366.049804688,480.335998535" class="p0" fill="none" />
      <path d="M 288.647003174,159.917999268 L 288.647003174,174.455993652" class="p0" fill="none" />
      <path d="M 366.049804688,159.917999268 L 433.777099609,159.917999268" class="p0" fill="none" />
      <path d="M 366.049804688,480.335998535 L 433.777099609,480.335998535" class="p0" fill="none" />
      <path d="M 366.049987793,159.917999268 L 366.049987793,174.455993652" class="p0" fill="none" />
      <path d="M 433.777099609,159.917999268 L 503.116943359,159.917999268" class="p0" fill="none" />
      <path d="M 433.777099609,480.335998535 L 503.116943359,480.335998535" class="p0" fill="none" />
      <path d="M 433.777008057,159.917999268 L 433.777008057,174.455993652" class="p0" fill="none" />
      <path d="M 503.117004395,159.917999268 L 503.117004395,174.455993652" class="p0" fill="none" />
      <path d="M 0,174.455993652 L 209.632049561,174.455993652" class="p0" fill="none" />
      <path d="M 0,508.441986084 L 209.632049561,508.441986084" class="p0" fill="none" />
      <path d="M 0,174.455993652 L 0,188.993988037" class="p0" fill="none" />
      <path d="M 209.632049561,174.455993652 L 288.647216797,174.455993652" class="p0" fill="none" />
      <path d="M 209.632049561,508.441986084 L 288.647216797,508.441986084" class="p0" fill="none" />
      <path d="M 209.632003784,174.455993652 L 209.632003784,188.993988037" class="p0" fill="none" />
      <path d="M 288.647216797,174.455993652 L 366.049804688,174.455993652" class="p0" fill="none" />
      <path d="M 288.647216797,508.441986084 L 366.049804688,508.441986084" class="p0" fill="none" />
      <path d="M 288.647003174,174.455993652 L 288.647003174,188.993988037" class="p0" fill="none" />
      <path d="M 366.049804688,174.455993652 L 433.777099609,174.455993652" class="p0" fill="none" />
      <path d="M 366.049804688,508.441986084 L 433.777099609,508.441986084" class="p0" fill="none" />
      <path d="M 366.049987793,174.455993652 L 366.049987793,188.993988037" class="p0" fill="none" />
      <path d="M 433.777099609,174.455993652 L 503.116943359,174.455993652" class="p0" fill="none" />
      <path d="M 433.777099609,508.441986084 L 503.116943359,508.441986084" class="p0" fill="none" />
      <path d="M 433.777008057,174.455993652 L 433.777008057,188.993988037" class="p0" fill="none" />
      <path d="M 503.117004395,174.455993652 L 503.117004395,188.993988037" class="p0" fill="none" />
      <path d="M 0,188.994003296 L 209.632049561,188.994003296" class="p0" fill="none" />
      <path d="M 0,188.994003296 L 0,203.531997681" class="p0" fill="none" />
      <path d="M 209.632049561,188.994003296 L 288.647216797,188.994003296" class="p0" fill="none" />
      <path d="M 209.632003784,188.994003296 L 209.632003784,203.531997681" class="p0" fill="none" />
      <path d="M 288.647216797,188.994003296 L 366.049804688,188.994003296" class="p0" fill="none" />
      <path d="M 288.647003174,188.994003296 L 288.647003174,203.531997681" class="p0" fill="none" />
      <path d="M 366.049804688,188.994003296 L 433.777099609,188.994003296" class="p0" fill="none" />
      <path d="M 366.049987793,188.994003296 L 366.049987793,203.531997681" class="p0" fill="none" />
      <path d="M 433.777099609,188.994003296 L 503.116943359,188.994003296" class="p0" fill="none" />
      <path d="M 433.777008057,188.994003296 L 433.777008057,203.531997681" class="p0" fill="none" />
      <path d="M 503.117004395,188.994003296 L 503.117004395,203.531997681" class="p0" fill="none" />
      <path d="M 0,203.531997681 L 209.632049561,203.531997681" class="p0" fill="none" />
      <path d="M 0,203.531997681 L 0,218.069992065" class="p0" fill="none" />
      <path d="M 209.632049561,203.531997681 L 288.647216797,203.531997681" class="p0" fill="none" />
      <path d="M 209.632003784,203.531997681 L 209.632003784,218.069992065" class="p0" fill="none" />
      <path d="M 288.647216797,203.531997681 L 366.049804688,203.531997681" class="p0" fill="none" />
      <path d="M 288.647003174,203.531997681 L 288.647003174,218.069992065" class="p0" fill="none" />
      <path d="M 366.049804688,203.531997681 L 433.777099609,203.531997681" class="p0" fill="none" />
      <path d="M 366.049987793,203.531997681 L 366.049987793,218.069992065" class="p0" fill="none" />
      <path d="M 433.777099609,203.531997681 L 503.116943359,203.531997681" class="p0" fill="none" />
      <path d="M 433.777008057,203.531997681 L 433.777008057,218.069992065" class="p0" fill="none" />
      <path d="M 503.117004395,203.531997681 L 503.117004395,218.069992065" class="p0" fill="none" />
      <path d="M 0,218.070007324 L 209.632049561,218.070007324" class="p0" fill="none" />
      <path d="M 0,218.070007324 L 0,232.608001709" class="p0" fill="none" />
      <path d="M 209.632049561,218.070007324 L 288.647216797,218.070007324" class="p0" fill="none" />
      <path d="M 209.632003784,218.070007324 L 209.632003784,232.608001709" class="p0" fill="none" />
      <path d="M 288.647216797,218.070007324 L 366.049804688,218.070007324" class="p0" fill="none" />
      <path d="M 288.647003174,218.070007324 L 288.647003174,232.608001709" class="p0" fill="none" />
      <path d="M 366.049804688,218.070007324 L 433.777099609,218.070007324" class="p0" fill="none" />
      <path d="M 366.049987793,218.070007324 L 366.049987793,232.608001709" class="p0" fill="none" />
      <path d="M 433.777099609,218.070007324 L 503.116943359,218.070007324" class="p0" fill="none" />
      <path d="M 433.777008057,218.070007324 L 433.777008057,232.608001709" class="p0" fill="none" />
      <path d="M 503.117004395,218.070007324 L 503.117004395,232.608001709" class="p0" fill="none" />
     </g>
    </g>
    <defs>
     <clipPath id="CLIP2">
      <path d="M-0.5,-0.5 L504.5,-0.5 L504.5,509.5 L-0.5,509.5 Z " />
     </clipPath>
    </defs>
    <g clip-path="url(#CLIP2)">
     <g>
      <defs>
       <clipPath id="CLIP3">
        <path d="M0.25,0.25 L209.382049561,0.25 L209.382049561,14.288000107 L0.25,14.288000107 Z " />
       </clipPath>
      </defs>
      <g clip-path="url(#CLIP3)">
       <g>
        <g transform="matrix(1,0,0,1,1.075036168,13.568799973)">
         <text x="1" y="-2.770781279" class="f0">主</text>
         <text x="12.039999962" y="-2.770781279" class="f0">要</text>
         <text x="23.079999924" y="-2.770781279" class="f0">财</text>
         <text x="34.119998932" y="-2.770781279" class="f0">务</text>
         <text x="45.159999847" y="-2.770781279" class="f0">比</text>
         <text x="56.200000763" y="-2.770781279" class="f0">率</text>
        </g>
       </g>
      </g>
      <defs>
       <clipPath id="CLIP4">
        <path d="M209.882049561,0.25 L288.397216797,0.25 L288.397216797,14.288000107 L209.882049561,14.288000107 Z " />
       </clipPath>
      </defs>
      <g clip-path="url(#CLIP4)">
       <g>
        <g transform="matrix(1,0,0,1,210.707092285,13.568799973)">
         <text x="1" y="-2.75999999" class="f1">2020</text>
        </g>
       </g>
      </g>
      <defs>
       <clipPath id="CLIP5">
        <path d="M288.897216797,0.25 L365.799804688,0.25 L365.799804688,14.288000107 L288.897216797,14.288000107 Z " />
       </clipPath>
      </defs>
      <g clip-path="url(#CLIP5)">
       <g>
        <g transform="matrix(1,0,0,1,289.722259521,13.568799973)">
         <text x="1" y="-2.75999999" class="f1">2021</text>
        </g>
       </g>
      </g>
      <defs>
       <clipPath id="CLIP6">
        <path d="M366.299804688,0.25 L433.527099609,0.25 L433.527099609,14.288000107 L366.299804688,14.288000107 Z " />
       </clipPath>
      </defs>
      <g clip-path="url(#CLIP6)">
       <g>
        <g transform="matrix(1,0,0,1,367.124847412,13.568799973)">
         <text x="1" y="-2.75999999" class="f1">2022E</text>
        </g>
       </g>
      </g>
      <defs>
       <clipPath id="CLIP7">
        <path d="M434.027099609,0.25 L502.866943359,0.25 L502.866943359,14.288000107 L434.027099609,14.288000107 Z " />
       </clipPath>
      </defs>
      <g clip-path="url(#CLIP7)">
       <g>
        <g transform="matrix(1,0,0,1,434.852142334,13.568799973)">
         <text x="1" y="-2.75999999" class="f1">2023E</text>
        </g>
       </g>
      </g>
      <defs>
       <clipPath id="CLIP8">
        <path d="M0.25,14.788000107 L209.382049561,14.788000107 L209.382049561,28.826000214 L0.25,28.826000214 Z " />
       </clipPath>
      </defs>
      <g clip-path="url(#CLIP8)">
       <g>
        <g transform="matrix(1,0,0,1,1.075036168,28.106800079)">
         <text x="1" y="-2.770781279" class="f0">成</text>
         <text x="12.039999962" y="-2.770781279" class="f0">长</text>
         <text x="23.079999924" y="-2.770781279" class="f0">能</text>
         <text x="34.119998932" y="-2.770781279" class="f0">力</text>
        </g>
       </g>
      </g>
      <defs>
       <clipPath id="CLIP9">
        <path d="M0.25,29.326000214 L209.382049561,29.326000214 L209.382049561,43.363998413 L0.25,43.363998413 Z " />
       </clipPath>
      </defs>
      <g clip-path="url(#CLIP9)">
       <g>
        <g transform="matrix(1,0,0,1,1.075036168,42.644798279)">
         <text x="1" y="-2.770781279" class="f0">营</text>
         <text x="12.039999962" y="-2.770781279" class="f0">业</text>
         <text x="23.079999924" y="-2.770781279" class="f0">收</text>
         <text x="34.119998932" y="-2.770781279" class="f0">入</text>
        </g>
       </g>
      </g>
      <defs>
       <clipPath id="CLIP10">
        <path d="M209.882049561,29.326000214 L288.397216797,29.326000214 L288.397216797,43.363998413 L209.882049561,43.363998413 Z " />
       </clipPath>
      </defs>
      <g clip-path="url(#CLIP10)">
       <g>
        <g transform="matrix(1,0,0,1,232.609283447,42.644798279)">
         <text x="0" y="-2.75999999" class="f1">97.08%</text>
        </g>
       </g>
      </g>
      <defs>
       <clipPath id="CLIP11">
        <path d="M288.897216797,29.326000214 L365.799804688,29.326000214 L365.799804688,43.363998413 L288.897216797,43.363998413 Z " />
       </clipPath>
      </defs>
      <g clip-path="url(#CLIP11)">
       <g>
        <g transform="matrix(1,0,0,1,289.722259521,42.644798279)">
         <text x="1" y="-2.75999999" class="f1">33.28%</text>
        </g>
       </g>
      </g>
      <defs>
       <clipPath id="CLIP12">
        <path d="M366.299804688,29.326000214 L433.527099609,29.326000214 L433.527099609,43.363998413 L366.299804688,43.363998413 Z " />
       </clipPath>
      </defs>
      <g clip-path="url(#CLIP12)">
       <g>
        <g transform="matrix(1,0,0,1,367.124847412,42.644798279)">
         <text x="1" y="-2.75999999" class="f1">65.00%</text>
        </g>
       </g>
      </g>
      <defs>
       <clipPath id="CLIP13">
        <path d="M434.027099609,29.326000214 L502.866943359,29.326000214 L502.866943359,43.363998413 L434.027099609,43.363998413 Z " />
       </clipPath>
      </defs>
      <g clip-path="url(#CLIP13)">
       <g>
        <g transform="matrix(1,0,0,1,434.852142334,42.644798279)">
         <text x="1" y="-2.75999999" class="f1">42.10%</text>
        </g>
       </g>
      </g>
      <defs>
       <clipPath id="CLIP14">
        <path d="M0.25,43.863998413 L209.382049561,43.863998413 L209.382049561,57.902000427 L0.25,57.902000427 Z " />
       </clipPath>
      </defs>
      <g clip-path="url(#CLIP14)">
       <g>
        <g transform="matrix(1,0,0,1,1.075036168,57.182800293)">
         <text x="1" y="-2.770781279" class="f0">营</text>
         <text x="12.039999962" y="-2.770781279" class="f0">业</text>
         <text x="23.079999924" y="-2.770781279" class="f0">利</text>
         <text x="34.119998932" y="-2.770781279" class="f0">润</text>
        </g>
       </g>
      </g>
      <defs>
       <clipPath id="CLIP15">
        <path d="M209.882049561,43.863998413 L288.397216797,43.863998413 L288.397216797,57.902000427 L209.882049561,57.902000427 Z " />
       </clipPath>
      </defs>
      <g clip-path="url(#CLIP15)">
       <g>
        <g transform="matrix(1,0,0,1,210.707092285,57.182800293)">
         <text x="1" y="-2.75999999" class="f1">165.21%</text>
        </g>
       </g>
      </g>
      <defs>
       <clipPath id="CLIP16">
        <path d="M288.897216797,43.863998413 L365.799804688,43.863998413 L365.799804688,57.902000427 L288.897216797,57.902000427 Z " />
       </clipPath>
      </defs>
      <g clip-path="url(#CLIP16)">
       <g>
        <g transform="matrix(1,0,0,1,289.722259521,57.182800293)">
         <text x="1" y="-2.75999999" class="f1">22.38%</text>
        </g>
       </g>
      </g>
      <defs>
       <clipPath id="CLIP17">
        <path d="M366.299804688,43.863998413 L433.527099609,43.863998413 L433.527099609,57.902000427 L366.299804688,57.902000427 Z " />
       </clipPath>
      </defs>
      <g clip-path="url(#CLIP17)">
       <g>
        <g transform="matrix(1,0,0,1,367.124847412,57.182800293)">
         <text x="1" y="-2.75999999" class="f1">31.65%</text>
        </g>
       </g>
      </g>
      <defs>
       <clipPath id="CLIP18">
        <path d="M434.027099609,43.863998413 L502.866943359,43.863998413 L502.866943359,57.902000427 L434.027099609,57.902000427 Z " />
       </clipPath>
      </defs>
      <g clip-path="url(#CLIP18)">
       <g>
        <g transform="matrix(1,0,0,1,434.852142334,57.182800293)">
         <text x="1" y="-2.75999999" class="f1">64.55%</text>
        </g>
       </g>
      </g>
      <defs>
       <clipPath id="CLIP19">
        <path d="M0.25,58.402000427 L209.382049561,58.402000427 L209.382049561,72.440002441 L0.25,72.440002441 Z " />
       </clipPath>
      </defs>
      <g clip-path="url(#CLIP19)">
       <g>
        <g transform="matrix(1,0,0,1,1.075036168,71.720802307)">
         <text x="1" y="-2.770781279" class="f0">归</text>
         <text x="12.039999962" y="-2.770781279" class="f0">属</text>
         <text x="23.079999924" y="-2.770781279" class="f0">于</text>
         <text x="34.119998932" y="-2.770781279" class="f0">母</text>
         <text x="45.159999847" y="-2.770781279" class="f0">公</text>
         <text x="56.200000763" y="-2.770781279" class="f0">司</text>
         <text x="67.239997864" y="-2.770781279" class="f0">净</text>
         <text x="78.279998779" y="-2.770781279" class="f0">利</text>
         <text x="89.319999695" y="-2.770781279" class="f0">润</text>
        </g>
       </g>
      </g>
      <defs>
       <clipPath id="CLIP20">
        <path d="M209.882049561,58.402000427 L288.397216797,58.402000427 L288.397216797,72.440002441 L209.882049561,72.440002441 Z " />
       </clipPath>
      </defs>
      <g clip-path="url(#CLIP20)">
       <g>
        <g transform="matrix(1,0,0,1,210.707092285,71.720802307)">
         <text x="1" y="-2.75999999" class="f1">164.75%</text>
        </g>
       </g>
      </g>
      <defs>
       <clipPath id="CLIP21">
        <path d="M288.897216797,58.402000427 L365.799804688,58.402000427 L365.799804688,72.440002441 L288.897216797,72.440002441 Z " />
       </clipPath>
      </defs>
      <g clip-path="url(#CLIP21)">
       <g>
        <g transform="matrix(1,0,0,1,289.722259521,71.720802307)">
         <text x="1" y="-2.75999999" class="f1">24.17%</text>
        </g>
       </g>
      </g>
      <defs>
       <clipPath id="CLIP22">
        <path d="M366.299804688,58.402000427 L433.527099609,58.402000427 L433.527099609,72.440002441 L366.299804688,72.440002441 Z " />
       </clipPath>
      </defs>
      <g clip-path="url(#CLIP22)">
       <g>
        <g transform="matrix(1,0,0,1,367.124847412,71.720802307)">
         <text x="1" y="-2.75999999" class="f1">39.44%</text>
        </g>
       </g>
      </g>
      <defs>
       <clipPath id="CLIP23">
        <path d="M434.027099609,58.402000427 L502.866943359,58.402000427 L502.866943359,72.440002441 L434.027099609,72.440002441 Z " />
       </clipPath>
      </defs>
      <g clip-path="url(#CLIP23)">
       <g>
        <g transform="matrix(1,0,0,1,434.852142334,71.720802307)">
         <text x="1" y="-2.75999999" class="f1">64.13%</text>
        </g>
       </g>
      </g>
      <defs>
       <clipPath id="CLIP24">
        <path d="M0.25,72.940002441 L209.382049561,72.940002441 L209.382049561,86.978004456 L0.25,86.978004456 Z " />
       </clipPath>
      </defs>
      <g clip-path="url(#CLIP24)">
       <g>
        <g transform="matrix(1,0,0,1,1.075036168,86.258804321)">
         <text x="1" y="-2.770781279" class="f0">获</text>
         <text x="12.039999962" y="-2.770781279" class="f0">利</text>
         <text x="23.079999924" y="-2.770781279" class="f0">能</text>
         <text x="34.119998932" y="-2.770781279" class="f0">力</text>
        </g>
       </g>
      </g>
      <defs>
       <clipPath id="CLIP25">
        <path d="M0.25,87.477996826 L209.382049561,87.477996826 L209.382049561,101.51599884 L0.25,101.51599884 Z " />
       </clipPath>
      </defs>
      <g clip-path="url(#CLIP25)">
       <g>
        <g transform="matrix(1,0,0,1,1.075036168,100.796798706)">
         <text x="1" y="-2.770781279" class="f0">毛</text>
         <text x="12.039999962" y="-2.770781279" class="f0">利</text>
         <text x="23.079999924" y="-2.770781279" class="f0">率</text>
        </g>
       </g>
      </g>
      <defs>
       <clipPath id="CLIP26">
        <path d="M209.882049561,87.477996826 L288.397216797,87.477996826 L288.397216797,101.51599884 L209.882049561,101.51599884 Z " />
       </clipPath>
      </defs>
      <g clip-path="url(#CLIP26)">
       <g>
        <g transform="matrix(1,0,0,1,210.707092285,100.796798706)">
         <text x="1" y="-2.75999999" class="f1">25.45%</text>
        </g>
       </g>
      </g>
      <defs>
       <clipPath id="CLIP27">
        <path d="M288.897216797,87.477996826 L365.799804688,87.477996826 L365.799804688,101.51599884 L288.897216797,101.51599884 Z " />
       </clipPath>
      </defs>
      <g clip-path="url(#CLIP27)">
       <g>
        <g transform="matrix(1,0,0,1,289.722259521,100.796798706)">
         <text x="1" y="-2.75999999" class="f1">23.01%</text>
        </g>
       </g>
      </g>
      <defs>
       <clipPath id="CLIP28">
        <path d="M366.299804688,87.477996826 L433.527099609,87.477996826 L433.527099609,101.51599884 L366.299804688,101.51599884 Z " />
       </clipPath>
      </defs>
      <g clip-path="url(#CLIP28)">
       <g>
        <g transform="matrix(1,0,0,1,367.124847412,100.796798706)">
         <text x="1" y="-2.75999999" class="f1">16.80%</text>
        </g>
       </g>
      </g>
      <defs>
       <clipPath id="CLIP29">
        <path d="M434.027099609,87.477996826 L502.866943359,87.477996826 L502.866943359,101.51599884 L434.027099609,101.51599884 Z " />
       </clipPath>
      </defs>
      <g clip-path="url(#CLIP29)">
       <g>
        <g transform="matrix(1,0,0,1,434.852142334,100.796798706)">
         <text x="1" y="-2.75999999" class="f1">17.00%</text>
        </g>
       </g>
      </g>
      <defs>
       <clipPath id="CLIP30">
        <path d="M0.25,102.01599884 L209.382049561,102.01599884 L209.382049561,116.054000854 L0.25,116.054000854 Z " />
       </clipPath>
      </defs>
      <g clip-path="url(#CLIP30)">
       <g>
        <g transform="matrix(1,0,0,1,1.075036168,115.33480072)">
         <text x="1" y="-2.770781279" class="f0">净</text>
         <text x="12.039999962" y="-2.770781279" class="f0">利</text>
         <text x="23.079999924" y="-2.770781279" class="f0">率</text>
        </g>
       </g>
      </g>
      <defs>
       <clipPath id="CLIP31">
        <path d="M209.882049561,102.01599884 L288.397216797,102.01599884 L288.397216797,116.054000854 L209.882049561,116.054000854 Z " />
       </clipPath>
      </defs>
      <g clip-path="url(#CLIP31)">
       <g>
        <g transform="matrix(1,0,0,1,210.707092285,115.33480072)">
         <text x="1" y="-2.75999999" class="f1">13.98%</text>
        </g>
       </g>
      </g>
      <defs>
       <clipPath id="CLIP32">
        <path d="M288.897216797,102.01599884 L365.799804688,102.01599884 L365.799804688,116.054000854 L288.897216797,116.054000854 Z " />
       </clipPath>
      </defs>
      <g clip-path="url(#CLIP32)">
       <g>
        <g transform="matrix(1,0,0,1,289.722259521,115.33480072)">
         <text x="1" y="-2.75999999" class="f1">13.03%</text>
        </g>
       </g>
      </g>
      <defs>
       <clipPath id="CLIP33">
        <path d="M366.299804688,102.01599884 L433.527099609,102.01599884 L433.527099609,116.054000854 L366.299804688,116.054000854 Z " />
       </clipPath>
      </defs>
      <g clip-path="url(#CLIP33)">
       <g>
        <g transform="matrix(1,0,0,1,367.124847412,115.33480072)">
         <text x="1" y="-2.75999999" class="f1">11.01%</text>
        </g>
       </g>
      </g>
      <defs>
       <clipPath id="CLIP34">
        <path d="M434.027099609,102.01599884 L502.866943359,102.01599884 L502.866943359,116.054000854 L434.027099609,116.054000854 Z " />
       </clipPath>
      </defs>
      <g clip-path="url(#CLIP34)">
       <g>
        <g transform="matrix(1,0,0,1,434.852142334,115.33480072)">
         <text x="1" y="-2.75999999" class="f1">12.72%</text>
        </g>
       </g>
      </g>
      <defs>
       <clipPath id="CLIP35">
        <path d="M0.25,116.554000854 L209.382049561,116.554000854 L209.382049561,130.591995239 L0.25,130.591995239 Z " />
       </clipPath>
      </defs>
      <g clip-path="url(#CLIP35)">
       <g>
        <g transform="matrix(1,0,0,1,1.075036168,129.872802734)">
         <text x="1" y="-2.75999999" class="f1">ROE</text>
        </g>
       </g>
      </g>
      <defs>
       <clipPath id="CLIP36">
        <path d="M209.882049561,116.554000854 L288.397216797,116.554000854 L288.397216797,130.591995239 L209.882049561,130.591995239 Z " />
       </clipPath>
      </defs>
      <g clip-path="url(#CLIP36)">
       <g>
        <g transform="matrix(1,0,0,1,210.707092285,129.872802734)">
         <text x="1" y="-2.75999999" class="f1">19.29%</text>
        </g>
       </g>
      </g>
      <defs>
       <clipPath id="CLIP37">
        <path d="M288.897216797,116.554000854 L365.799804688,116.554000854 L365.799804688,130.591995239 L288.897216797,130.591995239 Z " />
       </clipPath>
      </defs>
      <g clip-path="url(#CLIP37)">
       <g>
        <g transform="matrix(1,0,0,1,289.722259521,129.872802734)">
         <text x="1" y="-2.770781279" class="f1">1</text>
         <text x="6.595468521" y="-2.770781279" class="f1">9</text>
         <text x="12.190937042" y="-2.770781279" class="f1">.</text>
         <text x="14.977890015" y="-2.770781279" class="f1">2</text>
         <text x="20.573358536" y="-2.770781279" class="f1">5</text>
         <text x="26.168827057" y="-2.770781279" class="f0">号</text>
        </g>
       </g>
      </g>
      <defs>
       <clipPath id="CLIP38">
        <path d="M366.299804688,116.554000854 L433.527099609,116.554000854 L433.527099609,130.591995239 L366.299804688,130.591995239 Z " />
       </clipPath>
      </defs>
      <g clip-path="url(#CLIP38)">
       <g>
        <g transform="matrix(1,0,0,1,367.124847412,129.872802734)">
         <text x="1" y="-2.75999999" class="f1">20.77%</text>
        </g>
       </g>
      </g>
      <defs>
       <clipPath id="CLIP39">
        <path d="M434.027099609,116.554000854 L502.866943359,116.554000854 L502.866943359,130.591995239 L434.027099609,130.591995239 Z " />
       </clipPath>
      </defs>
      <g clip-path="url(#CLIP39)">
       <g>
        <g transform="matrix(1,0,0,1,434.852142334,129.872802734)">
         <text x="1" y="-2.75999999" class="f1">47.11%</text>
        </g>
       </g>
      </g>
      <defs>
       <clipPath id="CLIP40">
        <path d="M0.25,131.091995239 L209.382049561,131.091995239 L209.382049561,145.129989624 L0.25,145.129989624 Z " />
       </clipPath>
      </defs>
      <g clip-path="url(#CLIP40)">
       <g>
        <g transform="matrix(1,0,0,1,1.075036168,144.410797119)">
         <text x="1" y="-2.75999999" class="f1">ROIC</text>
        </g>
       </g>
      </g>
      <defs>
       <clipPath id="CLIP41">
        <path d="M209.882049561,131.091995239 L288.397216797,131.091995239 L288.397216797,145.129989624 L209.882049561,145.129989624 Z " />
       </clipPath>
      </defs>
      <g clip-path="url(#CLIP41)">
       <g>
        <g transform="matrix(1,0,0,1,210.707092285,144.410797119)">
         <text x="1" y="-2.75999999" class="f1">44.53%</text>
        </g>
       </g>
      </g>
      <defs>
       <clipPath id="CLIP42">
        <path d="M288.897216797,131.091995239 L365.799804688,131.091995239 L365.799804688,145.129989624 L288.897216797,145.129989624 Z " />
       </clipPath>
      </defs>
      <g clip-path="url(#CLIP42)">
       <g>
        <g transform="matrix(1,0,0,1,289.722259521,144.410797119)">
         <text x="1" y="-2.75999999" class="f1">41.55%</text>
        </g>
       </g>
      </g>
      <defs>
       <clipPath id="CLIP43">
        <path d="M366.299804688,131.091995239 L433.527099609,131.091995239 L433.527099609,145.129989624 L366.299804688,145.129989624 Z " />
       </clipPath>
      </defs>
      <g clip-path="url(#CLIP43)">
       <g>
        <g transform="matrix(1,0,0,1,367.124847412,144.410797119)">
         <text x="1" y="-2.75999999" class="f1">44.21%</text>
        </g>
       </g>
      </g>
      <defs>
       <clipPath id="CLIP44">
        <path d="M434.027099609,131.091995239 L502.866943359,131.091995239 L502.866943359,145.129989624 L434.027099609,145.129989624 Z " />
       </clipPath>
      </defs>
      <g clip-path="url(#CLIP44)">
       <g>
        <g transform="matrix(1,0,0,1,434.852142334,144.410797119)">
         <text x="1" y="-2.75999999" class="f1">32.59%</text>
        </g>
       </g>
      </g>
      <defs>
       <clipPath id="CLIP45">
        <path d="M0.25,145.630004883 L209.382049561,145.630004883 L209.382049561,159.667999268 L0.25,159.667999268 Z " />
       </clipPath>
      </defs>
      <g clip-path="url(#CLIP45)">
       <g>
        <g transform="matrix(1,0,0,1,1.075036168,158.948806763)">
         <text x="1" y="-2.770781279" class="f0">偿</text>
         <text x="12.039999962" y="-2.770781279" class="f0">债</text>
         <text x="23.079999924" y="-2.770781279" class="f0">能</text>
         <text x="34.119998932" y="-2.770781279" class="f0">力</text>
        </g>
       </g>
      </g>
      <defs>
       <clipPath id="CLIP46">
        <path d="M0.25,160.167999268 L209.382049561,160.167999268 L209.382049561,174.205993652 L0.25,174.205993652 Z " />
       </clipPath>
      </defs>
      <g clip-path="url(#CLIP46)">
       <g>
        <g transform="matrix(1,0,0,1,77.216026306,173.486801147)">
         <text x="0" y="-2.770781279" class="f0">资</text>
         <text x="11.039999962" y="-2.770781279" class="f0">产</text>
         <text x="22.079999924" y="-2.770781279" class="f0">负</text>
         <text x="33.119998932" y="-2.770781279" class="f0">债</text>
         <text x="44.159999847" y="-2.770781279" class="f0">率</text>
        </g>
       </g>
      </g>
      <defs>
       <clipPath id="CLIP47">
        <path d="M209.882049561,160.167999268 L288.397216797,160.167999268 L288.397216797,174.205993652 L209.882049561,174.205993652 Z " />
       </clipPath>
      </defs>
      <g clip-path="url(#CLIP47)">
       <g>
        <g transform="matrix(1,0,0,1,210.707092285,173.486801147)">
         <text x="1" y="-2.75999999" class="f1">48.28%</text>
        </g>
       </g>
      </g>
      <defs>
       <clipPath id="CLIP48">
        <path d="M288.897216797,160.167999268 L365.799804688,160.167999268 L365.799804688,174.205993652 L288.897216797,174.205993652 Z " />
       </clipPath>
      </defs>
      <g clip-path="url(#CLIP48)">
       <g>
        <g transform="matrix(1,0,0,1,289.722259521,173.486801147)">
         <text x="1" y="-2.75999999" class="f1">54.90%</text>
        </g>
       </g>
      </g>
      <defs>
       <clipPath id="CLIP49">
        <path d="M366.299804688,160.167999268 L433.527099609,160.167999268 L433.527099609,174.205993652 L366.299804688,174.205993652 Z " />
       </clipPath>
      </defs>
      <g clip-path="url(#CLIP49)">
       <g>
        <g transform="matrix(1,0,0,1,367.124847412,173.486801147)">
         <text x="1" y="-2.75999999" class="f1">57.79%</text>
        </g>
       </g>
      </g>
      <defs>
       <clipPath id="CLIP50">
        <path d="M434.027099609,160.167999268 L502.866943359,160.167999268 L502.866943359,174.205993652 L434.027099609,174.205993652 Z " />
       </clipPath>
      </defs>
      <g clip-path="url(#CLIP50)">
       <g>
        <g transform="matrix(1,0,0,1,434.852142334,173.486801147)">
         <text x="1" y="-2.75999999" class="f1">65.62%</text>
        </g>
       </g>
      </g>
      <defs>
       <clipPath id="CLIP51">
        <path d="M0.25,174.705993652 L209.382049561,174.705993652 L209.382049561,188.743988037 L0.25,188.743988037 Z " />
       </clipPath>
      </defs>
      <g clip-path="url(#CLIP51)">
       <g>
        <g transform="matrix(1,0,0,1,1.075036168,188.024795532)">
         <text x="1" y="-2.770781279" class="f0">净</text>
         <text x="12.039999962" y="-2.770781279" class="f0">负</text>
         <text x="23.079999924" y="-2.770781279" class="f0">债</text>
         <text x="34.119998932" y="-2.770781279" class="f0">率</text>
        </g>
       </g>
      </g>
      <defs>
       <clipPath id="CLIP52">
        <path d="M209.882049561,174.705993652 L288.397216797,174.705993652 L288.397216797,188.743988037 L209.882049561,188.743988037 Z " />
       </clipPath>
      </defs>
      <g clip-path="url(#CLIP52)">
       <g>
        <g transform="matrix(1,0,0,1,210.707092285,188.024795532)">
         <text x="1" y="-2.75999999" class="f1">-39.12%</text>
        </g>
       </g>
      </g>
      <defs>
       <clipPath id="CLIP53">
        <path d="M288.897216797,174.705993652 L365.799804688,174.705993652 L365.799804688,188.743988037 L288.897216797,188.743988037 Z " />
       </clipPath>
      </defs>
      <g clip-path="url(#CLIP53)">
       <g>
        <g transform="matrix(1,0,0,1,289.722259521,188.024795532)">
         <text x="1" y="-2.75999999" class="f1">-36.03%</text>
        </g>
       </g>
      </g>
      <defs>
       <clipPath id="CLIP54">
        <path d="M366.299804688,174.705993652 L433.527099609,174.705993652 L433.527099609,188.743988037 L366.299804688,188.743988037 Z " />
       </clipPath>
      </defs>
      <g clip-path="url(#CLIP54)">
       <g>
        <g transform="matrix(1,0,0,1,367.124847412,188.024795532)">
         <text x="1" y="-2.75999999" class="f1">6.62%</text>
        </g>
       </g>
      </g>
      <defs>
       <clipPath id="CLIP55">
        <path d="M434.027099609,174.705993652 L502.866943359,174.705993652 L502.866943359,188.743988037 L434.027099609,188.743988037 Z " />
       </clipPath>
      </defs>
      <g clip-path="url(#CLIP55)">
       <g>
        <g transform="matrix(1,0,0,1,434.852142334,188.024795532)">
         <text x="1" y="-2.75999999" class="f1">8.70%</text>
        </g>
       </g>
      </g>
      <defs>
       <clipPath id="CLIP56">
        <path d="M0.25,189.244003296 L209.382049561,189.244003296 L209.382049561,203.281997681 L0.25,203.281997681 Z " />
       </clipPath>
      </defs>
      <g clip-path="url(#CLIP56)">
       <g>
        <g transform="matrix(1,0,0,1,1.075036168,202.562805176)">
         <text x="1" y="-2.770781279" class="f0">流</text>
         <text x="12.039999962" y="-2.770781279" class="f0">动</text>
         <text x="23.079999924" y="-2.770781279" class="f0">比</text>
         <text x="34.119998932" y="-2.770781279" class="f0">率</text>
        </g>
       </g>
      </g>
      <defs>
       <clipPath id="CLIP57">
        <path d="M209.882049561,189.244003296 L288.397216797,189.244003296 L288.397216797,203.281997681 L209.882049561,203.281997681 Z " />
       </clipPath>
      </defs>
      <g clip-path="url(#CLIP57)">
       <g>
        <g transform="matrix(1,0,0,1,210.707092285,202.562805176)">
         <text x="1" y="-2.75999999" class="f1">1.77</text>
        </g>
       </g>
      </g>
      <defs>
       <clipPath id="CLIP58">
        <path d="M288.897216797,189.244003296 L365.799804688,189.244003296 L365.799804688,203.281997681 L288.897216797,203.281997681 Z " />
       </clipPath>
      </defs>
      <g clip-path="url(#CLIP58)">
       <g>
        <g transform="matrix(1,0,0,1,289.722259521,202.562805176)">
         <text x="1" y="-2.75999999" class="f1">1.74</text>
        </g>
       </g>
      </g>
      <defs>
       <clipPath id="CLIP59">
        <path d="M366.299804688,189.244003296 L433.527099609,189.244003296 L433.527099609,203.281997681 L366.299804688,203.281997681 Z " />
       </clipPath>
      </defs>
      <g clip-path="url(#CLIP59)">
       <g>
        <g transform="matrix(1,0,0,1,367.124847412,202.562805176)">
         <text x="1" y="-2.75999999" class="f1">1.60</text>
        </g>
       </g>
      </g>
      <defs>
       <clipPath id="CLIP60">
        <path d="M434.027099609,189.244003296 L502.866943359,189.244003296 L502.866943359,203.281997681 L434.027099609,203.281997681 Z " />
       </clipPath>
      </defs>
      <g clip-path="url(#CLIP60)">
       <g>
        <g transform="matrix(1,0,0,1,434.852142334,202.562805176)">
         <text x="1" y="-2.75999999" class="f1">1.41</text>
        </g>
       </g>
      </g>
      <defs>
       <clipPath id="CLIP61">
        <path d="M0.25,203.781997681 L209.382049561,203.781997681 L209.382049561,217.819992065 L0.25,217.819992065 Z " />
       </clipPath>
      </defs>
      <g clip-path="url(#CLIP61)">
       <g>
        <g transform="matrix(1,0,0,1,1.075036168,217.100799561)">
         <text x="1" y="-2.770781279" class="f0">速</text>
         <text x="12.039999962" y="-2.770781279" class="f0">动</text>
         <text x="23.079999924" y="-2.770781279" class="f0">比</text>
         <text x="34.119998932" y="-2.770781279" class="f0">率</text>
        </g>
       </g>
      </g>
      <defs>
       <clipPath id="CLIP62">
        <path d="M209.882049561,203.781997681 L288.397216797,203.781997681 L288.397216797,217.819992065 L209.882049561,217.819992065 Z " />
       </clipPath>
      </defs>
      <g clip-path="url(#CLIP62)">
       <g>
        <g transform="matrix(1,0,0,1,210.707092285,217.100799561)">
         <text x="1" y="-2.75999999" class="f1">1.26</text>
        </g>
       </g>
      </g>
      <defs>
       <clipPath id="CLIP63">
        <path d="M288.897216797,203.781997681 L365.799804688,203.781997681 L365.799804688,217.819992065 L288.897216797,217.819992065 Z " />
       </clipPath>
      </defs>
      <g clip-path="url(#CLIP63)">
       <g>
        <g transform="matrix(1,0,0,1,289.722259521,217.100799561)">
         <text x="1" y="-2.75999999" class="f1">1.07</text>
        </g>
       </g>
      </g>
      <defs>
       <clipPath id="CLIP64">
        <path d="M366.299804688,203.781997681 L433.527099609,203.781997681 L433.527099609,217.819992065 L366.299804688,217.819992065 Z " />
       </clipPath>
      </defs>
      <g clip-path="url(#CLIP64)">
       <g>
        <g transform="matrix(1,0,0,1,367.124847412,217.100799561)">
         <text x="1" y="-2.75999999" class="f1">0.85</text>
        </g>
       </g>
      </g>
      <defs>
       <clipPath id="CLIP65">
        <path d="M434.027099609,203.781997681 L502.866943359,203.781997681 L502.866943359,217.819992065 L434.027099609,217.819992065 Z " />
       </clipPath>
      </defs>
      <g clip-path="url(#CLIP65)">
       <g>
        <g transform="matrix(1,0,0,1,434.852142334,217.100799561)">
         <text x="1" y="-2.75999999" class="f1">0.62</text>
        </g>
       </g>
      </g>
      <defs>
       <clipPath id="CLIP66">
        <path d="M0.25,218.320007324 L209.382049561,218.320007324 L209.382049561,232.358001709 L0.25,232.358001709 Z " />
       </clipPath>
      </defs>
      <g clip-path="url(#CLIP66)">
       <g>
        <g transform="matrix(1,0,0,1,1.075036168,231.638809204)">
         <text x="1" y="-2.770781279" class="f0">营</text>
         <text x="12.039999962" y="-2.770781279" class="f0">运</text>
         <text x="23.079999924" y="-2.770781279" class="f0">能</text>
         <text x="34.119998932" y="-2.770781279" class="f0">力</text>
        </g>
       </g>
      </g>
      <defs>
       <clipPath id="CLIP67">
        <path d="M0.25,232.858001709 L209.382049561,232.858001709 L209.382049561,246.895996094 L0.25,246.895996094 Z " />
       </clipPath>
      </defs>
      <g clip-path="url(#CLIP67)">
       <g>
        <g transform="matrix(1,0,0,1,1.075036168,246.176803589)">
         <text x="1" y="-2.770781279" class="f0">应</text>
         <text x="12.039999962" y="-2.770781279" class="f0">收</text>
         <text x="23.079999924" y="-2.770781279" class="f0">账</text>
         <text x="34.119998932" y="-2.770781279" class="f0">款</text>
         <text x="45.159999847" y="-2.770781279" class="f0">周</text>
         <text x="56.200000763" y="-2.770781279" class="f0">转</text>
         <text x="67.239997864" y="-2.770781279" class="f0">率</text>
        </g>
       </g>
      </g>
      <defs>
       <clipPath id="CLIP68">
        <path d="M209.882049561,232.858001709 L288.397216797,232.858001709 L288.397216797,246.895996094 L209.882049561,246.895996094 Z " />
       </clipPath>
      </defs>
      <g clip-path="url(#CLIP68)">
       <g>
        <g transform="matrix(1,0,0,1,210.707092285,246.176803589)">
         <text x="1" y="-2.75999999" class="f1">5.15</text>
        </g>
       </g>
      </g>
      <defs>
       <clipPath id="CLIP69">
        <path d="M288.897216797,232.858001709 L365.799804688,232.858001709 L365.799804688,246.895996094 L288.897216797,246.895996094 Z " />
       </clipPath>
      </defs>
      <g clip-path="url(#CLIP69)">
       <g>
        <g transform="matrix(1,0,0,1,289.722259521,246.176803589)">
         <text x="1" y="-2.75999999" class="f1">4.59</text>
        </g>
       </g>
      </g>
      <defs>
       <clipPath id="CLIP70">
        <path d="M366.299804688,232.858001709 L433.527099609,232.858001709 L433.527099609,246.895996094 L366.299804688,246.895996094 Z " />
       </clipPath>
      </defs>
      <g clip-path="url(#CLIP70)">
       <g>
        <g transform="matrix(1,0,0,1,367.124847412,246.176803589)">
         <text x="1" y="-2.75999999" class="f1">4.11</text>
        </g>
       </g>
      </g>
      <defs>
       <clipPath id="CLIP71">
        <path d="M434.027099609,232.858001709 L502.866943359,232.858001709 L502.866943359,246.895996094 L434.027099609,246.895996094 Z " />
       </clipPath>
      </defs>
      <g clip-path="url(#CLIP71)">
       <g>
        <g transform="matrix(1,0,0,1,434.852142334,246.176803589)">
         <text x="1" y="-2.75999999" class="f1">5.24</text>
        </g>
       </g>
      </g>
      <defs>
       <clipPath id="CLIP72">
        <path d="M0.25,247.395996094 L209.382049561,247.395996094 L209.382049561,261.433990479 L0.25,261.433990479 Z " />
       </clipPath>
      </defs>
      <g clip-path="url(#CLIP72)">
       <g>
        <g transform="matrix(1,0,0,1,1.075036168,260.714813232)">
         <text x="1" y="-2.770781279" class="f0">存</text>
         <text x="12.039999962" y="-2.770781279" class="f0">货</text>
         <text x="23.079999924" y="-2.770781279" class="f0">周</text>
         <text x="34.119998932" y="-2.770781279" class="f0">转</text>
         <text x="45.159999847" y="-2.770781279" class="f0">率</text>
        </g>
       </g>
      </g>
      <defs>
       <clipPath id="CLIP73">
        <path d="M209.882049561,247.395996094 L288.397216797,247.395996094 L288.397216797,261.433990479 L209.882049561,261.433990479 Z " />
       </clipPath>
      </defs>
      <g clip-path="url(#CLIP73)">
       <g>
        <g transform="matrix(1,0,0,1,210.707092285,260.714813232)">
         <text x="1" y="-2.75999999" class="f1">3.48</text>
        </g>
       </g>
      </g>
      <defs>
       <clipPath id="CLIP74">
        <path d="M288.897216797,247.395996094 L365.799804688,247.395996094 L365.799804688,261.433990479 L288.897216797,261.433990479 Z " />
       </clipPath>
      </defs>
      <g clip-path="url(#CLIP74)">
       <g>
        <g transform="matrix(1,0,0,1,289.722259521,260.714813232)">
         <text x="1" y="-2.75999999" class="f1">2.89</text>
        </g>
       </g>
      </g>
      <defs>
       <clipPath id="CLIP75">
        <path d="M366.299804688,247.395996094 L433.527099609,247.395996094 L433.527099609,261.433990479 L366.299804688,261.433990479 Z " />
       </clipPath>
      </defs>
      <g clip-path="url(#CLIP75)">
       <g>
        <g transform="matrix(1,0,0,1,367.124847412,260.714813232)">
         <text x="1" y="-2.75999999" class="f1">2.55</text>
        </g>
       </g>
      </g>
      <defs>
       <clipPath id="CLIP76">
        <path d="M434.027099609,247.395996094 L502.866943359,247.395996094 L502.866943359,261.433990479 L434.027099609,261.433990479 Z " />
       </clipPath>
      </defs>
      <g clip-path="url(#CLIP76)">
       <g>
        <g transform="matrix(1,0,0,1,434.852142334,260.714813232)">
         <text x="1" y="-2.75999999" class="f1">2.77</text>
        </g>
       </g>
      </g>
      <defs>
       <clipPath id="CLIP77">
        <path d="M0.25,261.933990479 L209.382049561,261.933990479 L209.382049561,275.971984863 L0.25,275.971984863 Z " />
       </clipPath>
      </defs>
      <g clip-path="url(#CLIP77)">
       <g>
        <g transform="matrix(1,0,0,1,1.075036168,275.2527771)">
         <text x="1" y="-2.770781279" class="f0">总</text>
         <text x="12.039999962" y="-2.770781279" class="f0">资</text>
         <text x="23.079999924" y="-2.770781279" class="f0">产</text>
         <text x="34.119998932" y="-2.770781279" class="f0">周</text>
         <text x="45.159999847" y="-2.770781279" class="f0">转</text>
         <text x="56.200000763" y="-2.770781279" class="f0">率</text>
        </g>
       </g>
      </g>
      <defs>
       <clipPath id="CLIP78">
        <path d="M209.882049561,261.933990479 L288.397216797,261.933990479 L288.397216797,275.971984863 L209.882049561,275.971984863 Z " />
       </clipPath>
      </defs>
      <g clip-path="url(#CLIP78)">
       <g>
        <g transform="matrix(1,0,0,1,210.707092285,275.2527771)">
         <text x="1" y="-2.75999999" class="f1">0.80</text>
        </g>
       </g>
      </g>
      <defs>
       <clipPath id="CLIP79">
        <path d="M288.897216797,261.933990479 L365.799804688,261.933990479 L365.799804688,275.971984863 L288.897216797,275.971984863 Z " />
       </clipPath>
      </defs>
      <g clip-path="url(#CLIP79)">
       <g>
        <g transform="matrix(1,0,0,1,289.722259521,275.2527771)">
         <text x="1" y="-2.75999999" class="f1">0.78</text>
        </g>
       </g>
      </g>
      <defs>
       <clipPath id="CLIP80">
        <path d="M366.299804688,261.933990479 L433.527099609,261.933990479 L433.527099609,275.971984863 L366.299804688,275.971984863 Z " />
       </clipPath>
      </defs>
      <g clip-path="url(#CLIP80)">
       <g>
        <g transform="matrix(1,0,0,1,367.124847412,275.2527771)">
         <text x="1" y="-2.75999999" class="f1">0.93</text>
        </g>
       </g>
      </g>
      <defs>
       <clipPath id="CLIP81">
        <path d="M434.027099609,261.933990479 L502.866943359,261.933990479 L502.866943359,275.971984863 L434.027099609,275.971984863 Z " />
       </clipPath>
      </defs>
      <g clip-path="url(#CLIP81)">
       <g>
        <g transform="matrix(1,0,0,1,434.852142334,275.2527771)">
         <text x="1" y="-2.75999999" class="f1">1.21</text>
        </g>
       </g>
      </g>
      <defs>
       <clipPath id="CLIP82">
        <path d="M0.25,276.472015381 L209.382049561,276.472015381 L209.382049561,290.510009766 L0.25,290.510009766 Z " />
       </clipPath>
      </defs>
      <g clip-path="url(#CLIP82)">
       <g>
        <g transform="matrix(1,0,0,1,1.075036168,289.790802002)">
         <text x="1" y="-2.770781279" class="f0">每</text>
         <text x="12.039999962" y="-2.770781279" class="f0">股</text>
         <text x="23.079999924" y="-2.770781279" class="f0">指</text>
         <text x="34.119998932" y="-2.770781279" class="f0">标</text>
         <text x="45.159999847" y="-2.770781279" class="f1">(</text>
         <text x="48.507575989" y="-2.770781279" class="f0">元</text>
         <text x="59.547576904" y="-2.770781279" class="f1">)</text>
        </g>
       </g>
      </g>
      <defs>
       <clipPath id="CLIP83">
        <path d="M0.25,291.010009766 L209.382049561,291.010009766 L209.382049561,305.04800415 L0.25,305.04800415 Z " />
       </clipPath>
      </defs>
      <g clip-path="url(#CLIP83)">
       <g>
        <g transform="matrix(1,0,0,1,1.075036168,304.328796387)">
         <text x="1" y="-2.770781279" class="f0">每</text>
         <text x="12.039999962" y="-2.770781279" class="f0">股</text>
         <text x="23.079999924" y="-2.770781279" class="f0">收</text>
         <text x="34.119998932" y="-2.770781279" class="f0">益</text>
        </g>
       </g>
      </g>
      <defs>
       <clipPath id="CLIP84">
        <path d="M209.882049561,291.010009766 L288.397216797,291.010009766 L288.397216797,305.04800415 L209.882049561,305.04800415 Z " />
       </clipPath>
      </defs>
      <g clip-path="url(#CLIP84)">
       <g>
        <g transform="matrix(1,0,0,1,210.707092285,304.328796387)">
         <text x="1" y="-2.75999999" class="f1">0.84</text>
        </g>
       </g>
      </g>
      <defs>
       <clipPath id="CLIP85">
        <path d="M288.897216797,291.010009766 L365.799804688,291.010009766 L365.799804688,305.04800415 L288.897216797,305.04800415 Z " />
       </clipPath>
      </defs>
      <g clip-path="url(#CLIP85)">
       <g>
        <g transform="matrix(1,0,0,1,289.722259521,304.328796387)">
         <text x="1" y="-2.75999999" class="f1">1.04</text>
        </g>
       </g>
      </g>
      <defs>
       <clipPath id="CLIP86">
        <path d="M366.299804688,291.010009766 L433.527099609,291.010009766 L433.527099609,305.04800415 L366.299804688,305.04800415 Z " />
       </clipPath>
      </defs>
      <g clip-path="url(#CLIP86)">
       <g>
        <g transform="matrix(1,0,0,1,367.124847412,304.328796387)">
         <text x="1" y="-2.75999999" class="f1">1.45</text>
        </g>
       </g>
      </g>
      <defs>
       <clipPath id="CLIP87">
        <path d="M434.027099609,291.010009766 L502.866943359,291.010009766 L502.866943359,305.04800415 L434.027099609,305.04800415 Z " />
       </clipPath>
      </defs>
      <g clip-path="url(#CLIP87)">
       <g>
        <g transform="matrix(1,0,0,1,434.852142334,304.328796387)">
         <text x="1" y="-2.75999999" class="f1">2.38</text>
        </g>
       </g>
      </g>
      <defs>
       <clipPath id="CLIP88">
        <path d="M0.25,305.54800415 L209.382049561,305.54800415 L209.382049561,319.585998535 L0.25,319.585998535 Z " />
       </clipPath>
      </defs>
      <g clip-path="url(#CLIP88)">
       <g>
        <g transform="matrix(1,0,0,1,1.075036168,318.866790771)">
         <text x="1" y="-2.770781279" class="f0">每</text>
         <text x="12.039999962" y="-2.770781279" class="f0">股</text>
         <text x="23.079999924" y="-2.770781279" class="f0">经</text>
         <text x="34.119998932" y="-2.770781279" class="f0">营</text>
         <text x="45.159999847" y="-2.770781279" class="f0">现</text>
         <text x="56.200000763" y="-2.770781279" class="f0">金</text>
         <text x="67.239997864" y="-2.770781279" class="f0">流</text>
        </g>
       </g>
      </g>
      <defs>
       <clipPath id="CLIP89">
        <path d="M209.882049561,305.54800415 L288.397216797,305.54800415 L288.397216797,319.585998535 L209.882049561,319.585998535 Z " />
       </clipPath>
      </defs>
      <g clip-path="url(#CLIP89)">
       <g>
        <g transform="matrix(1,0,0,1,210.707092285,318.866790771)">
         <text x="1" y="-2.75999999" class="f1">0.03</text>
        </g>
       </g>
      </g>
      <defs>
       <clipPath id="CLIP90">
        <path d="M288.897216797,305.54800415 L365.799804688,305.54800415 L365.799804688,319.585998535 L288.897216797,319.585998535 Z " />
       </clipPath>
      </defs>
      <g clip-path="url(#CLIP90)">
       <g>
        <g transform="matrix(1,0,0,1,289.722259521,318.866790771)">
         <text x="1" y="-2.75999999" class="f1">0.04</text>
        </g>
       </g>
      </g>
      <defs>
       <clipPath id="CLIP91">
        <path d="M366.299804688,305.54800415 L433.527099609,305.54800415 L433.527099609,319.585998535 L366.299804688,319.585998535 Z " />
       </clipPath>
      </defs>
      <g clip-path="url(#CLIP91)">
       <g>
        <g transform="matrix(1,0,0,1,367.124847412,318.866790771)">
         <text x="1" y="-2.75999999" class="f1">-2.54</text>
        </g>
       </g>
      </g>
      <defs>
       <clipPath id="CLIP92">
        <path d="M434.027099609,305.54800415 L502.866943359,305.54800415 L502.866943359,319.585998535 L434.027099609,319.585998535 Z " />
       </clipPath>
      </defs>
      <g clip-path="url(#CLIP92)">
       <g>
        <g transform="matrix(1,0,0,1,434.852142334,318.866790771)">
         <text x="1" y="-2.75999999" class="f1">4.28</text>
        </g>
       </g>
      </g>
      <defs>
       <clipPath id="CLIP93">
        <path d="M0.25,320.085998535 L209.382049561,320.085998535 L209.382049561,334.12399292 L0.25,334.12399292 Z " />
       </clipPath>
      </defs>
      <g clip-path="url(#CLIP93)">
       <g>
        <g transform="matrix(1,0,0,1,1.075036168,333.404785156)">
         <text x="1" y="-2.770781279" class="f0">每</text>
         <text x="12.039999962" y="-2.770781279" class="f0">股</text>
         <text x="23.079999924" y="-2.770781279" class="f0">净</text>
         <text x="34.119998932" y="-2.770781279" class="f0">资</text>
         <text x="45.159999847" y="-2.770781279" class="f0">产</text>
        </g>
       </g>
      </g>
      <defs>
       <clipPath id="CLIP94">
        <path d="M209.882049561,320.085998535 L288.397216797,320.085998535 L288.397216797,334.12399292 L209.882049561,334.12399292 Z " />
       </clipPath>
      </defs>
      <g clip-path="url(#CLIP94)">
       <g>
        <g transform="matrix(1,0,0,1,210.707092285,333.404785156)">
         <text x="1" y="-2.75999999" class="f1">4.34</text>
        </g>
       </g>
      </g>
      <defs>
       <clipPath id="CLIP95">
        <path d="M288.897216797,320.085998535 L365.799804688,320.085998535 L365.799804688,334.12399292 L288.897216797,334.12399292 Z " />
       </clipPath>
      </defs>
      <g clip-path="url(#CLIP95)">
       <g>
        <g transform="matrix(1,0,0,1,289.722259521,333.404785156)">
         <text x="1" y="-2.75999999" class="f1">5.40</text>
        </g>
       </g>
      </g>
      <defs>
       <clipPath id="CLIP96">
        <path d="M366.299804688,320.085998535 L433.527099609,320.085998535 L433.527099609,334.12399292 L366.299804688,334.12399292 Z " />
       </clipPath>
      </defs>
      <g clip-path="url(#CLIP96)">
       <g>
        <g transform="matrix(1,0,0,1,367.124847412,333.404785156)">
         <text x="1" y="-2.75999999" class="f1">6.97</text>
        </g>
       </g>
      </g>
      <defs>
       <clipPath id="CLIP97">
        <path d="M434.027099609,320.085998535 L502.866943359,320.085998535 L502.866943359,334.12399292 L434.027099609,334.12399292 Z " />
       </clipPath>
      </defs>
      <g clip-path="url(#CLIP97)">
       <g>
        <g transform="matrix(1,0,0,1,434.852142334,333.404785156)">
         <text x="1" y="-2.75999999" class="f1">5.05</text>
        </g>
       </g>
      </g>
      <defs>
       <clipPath id="CLIP98">
        <path d="M0.25,334.62399292 L570.594177246,334.62399292 L570.594177246,365.768371582 L0.25,365.768371582 Z " />
       </clipPath>
      </defs>
      <g clip-path="url(#CLIP98)">
       <g>
        <g transform="matrix(1,0,0,1,1.075036168,356.49597168)">
         <text x="1" y="-2.770781279" class="f0">估</text>
         <text x="12.039999962" y="-2.770781279" class="f0">值</text>
         <text x="23.079999924" y="-2.770781279" class="f0">比</text>
         <text x="34.119998932" y="-2.770781279" class="f0">率</text>
        </g>
       </g>
      </g>
      <defs>
       <clipPath id="CLIP99">
        <path d="M0.25,366.268371582 L570.594177246,366.268371582 L570.594177246,409.770050049 L0.25,409.770050049 Z " />
       </clipPath>
      </defs>
      <g clip-path="url(#CLIP99)">
       <g>
        <g transform="matrix(1,0,0,1,1.075036168,394.319000244)">
         <text x="1" y="-2.770781279" class="f0">市</text>
         <text x="12.039999962" y="-2.770781279" class="f0">盈</text>
         <text x="23.079999924" y="-2.770781279" class="f0">率</text>
         <text x="34.119998932" y="-2.770781279" class="f1"> </text>
         <text x="36.615859985" y="-2.770781279" class="f1"> </text>
         <text x="39.111721039" y="-2.770781279" class="f1"> </text>
         <text x="41.607582092" y="-2.770781279" class="f1"> </text>
         <text x="44.103443146" y="-2.770781279" class="f1"> </text>
         <text x="46.599304199" y="-2.770781279" class="f1"> </text>
         <text x="49.095165253" y="-2.770781279" class="f1"> </text>
         <text x="51.591026306" y="-2.770781279" class="f1"> </text>
         <text x="54.08688736" y="-2.770781279" class="f1"> </text>
         <text x="56.582748413" y="-2.770781279" class="f1"> </text>
         <text x="59.078609467" y="-2.770781279" class="f1"> </text>
         <text x="61.57447052" y="-2.770781279" class="f1"> </text>
         <text x="64.070327759" y="-2.770781279" class="f1"> </text>
         <text x="66.566184998" y="-2.770781279" class="f1"> </text>
         <text x="69.062042236" y="-2.770781279" class="f1"> </text>
         <text x="71.557899475" y="-2.770781279" class="f1"> </text>
         <text x="74.053756714" y="-2.770781279" class="f1"> </text>
         <text x="76.549613953" y="-2.770781279" class="f1"> </text>
         <text x="79.045471191" y="-2.770781279" class="f1"> </text>
         <text x="81.54132843" y="-2.770781279" class="f1"> </text>
         <text x="84.037185669" y="-2.770781279" class="f1">4</text>
         <text x="89.632652283" y="-2.770781279" class="f1">1</text>
         <text x="95.228118896" y="-2.770781279" class="f1">.</text>
         <text x="98.015075684" y="-2.770781279" class="f1">3</text>
         <text x="103.610542297" y="-2.770781279" class="f1">0</text>
         <text x="109.206008911" y="-2.770781279" class="f1"> </text>
         <text x="111.70186615" y="-2.770781279" class="f1"> </text>
         <text x="114.197723389" y="-2.770781279" class="f1"> </text>
         <text x="116.693580627" y="-2.770781279" class="f1"> </text>
         <text x="119.189437866" y="-2.770781279" class="f1"> </text>
         <text x="121.685295105" y="-2.770781279" class="f1"> </text>
         <text x="124.181152344" y="-2.770781279" class="f1"> </text>
         <text x="126.677009583" y="-2.770781279" class="f1">3</text>
         <text x="132.272476196" y="-2.770781279" class="f1">3</text>
         <text x="137.867950439" y="-2.770781279" class="f1">.</text>
         <text x="140.654907227" y="-2.770781279" class="f1">2</text>
         <text x="146.25038147" y="-2.770781279" class="f1">6</text>
         <text x="151.845855713" y="-2.770781279" class="f1"> </text>
         <text x="154.341720581" y="-2.770781279" class="f1"> </text>
         <text x="156.837585449" y="-2.770781279" class="f1"> </text>
         <text x="159.333450317" y="-2.770781279" class="f1"> </text>
         <text x="161.829315186" y="-2.770781279" class="f1"> </text>
         <text x="164.325180054" y="-2.770781279" class="f1"> </text>
         <text x="166.821044922" y="-2.770781279" class="f1"> </text>
         <text x="169.31690979" y="-2.770781279" class="f1"> </text>
         <text x="171.812774658" y="-2.770781279" class="f1">2</text>
         <text x="177.408248901" y="-2.770781279" class="f1">3</text>
         <text x="183.003723145" y="-2.770781279" class="f1">.</text>
         <text x="185.790679932" y="-2.770781279" class="f1">8</text>
         <text x="191.386154175" y="-2.770781279" class="f1">5</text>
         <text x="196.981628418" y="-2.770781279" class="f1"> </text>
         <text x="199.477493286" y="-2.770781279" class="f1"> </text>
         <text x="201.973358154" y="-2.770781279" class="f1"> </text>
         <text x="204.469223022" y="-2.770781279" class="f1"> </text>
         <text x="206.965087891" y="-2.770781279" class="f1"> </text>
         <text x="209.460952759" y="-2.770781279" class="f1"> </text>
         <text x="211.956817627" y="-2.770781279" class="f1"> </text>
         <text x="214.452682495" y="-2.770781279" class="f1"> </text>
         <text x="216.948547363" y="-2.770781279" class="f1">1</text>
         <text x="222.544021606" y="-2.770781279" class="f1">4</text>
         <text x="228.13949585" y="-2.770781279" class="f1">.</text>
         <text x="230.926452637" y="-2.770781279" class="f1">5</text>
         <text x="236.52192688" y="-2.770781279" class="f1">3</text>
         <text x="242.117401123" y="-2.770781279" class="f1"> </text>
         <text x="244.613265991" y="-2.770781279" class="f1"> </text>
         <text x="247.109130859" y="-2.770781279" class="f1"> </text>
         <text x="249.604995728" y="-2.770781279" class="f1"> </text>
         <text x="252.100860596" y="-2.770781279" class="f1"> </text>
         <text x="254.596725464" y="-2.770781279" class="f1"> </text>
         <text x="257.092590332" y="-2.770781279" class="f1"> </text>
         <text x="259.588439941" y="-2.770781279" class="f1"> </text>
         <text x="262.084289551" y="-2.770781279" class="f1">1</text>
         <text x="267.679748535" y="-2.770781279" class="f1">0</text>
         <text x="273.27520752" y="-2.770781279" class="f1">.</text>
         <text x="276.062164307" y="-2.770781279" class="f1">4</text>
         <text x="281.657623291" y="-2.770781279" class="f1">8</text>
        </g>
       </g>
      </g>
      <defs>
       <clipPath id="CLIP100">
        <path d="M0.25,410.270080566 L570.594177246,410.270080566 L570.594177246,451.978729248 L0.25,451.978729248 Z " />
       </clipPath>
      </defs>
      <g clip-path="url(#CLIP100)">
       <g>
        <g transform="matrix(1,0,0,1,1.075036168,437.424194336)">
         <text x="1" y="-2.770781279" class="f0">市</text>
         <text x="12.039999962" y="-2.770781279" class="f0">净</text>
         <text x="23.079999924" y="-2.770781279" class="f0">率</text>
         <text x="34.119998932" y="-2.770781279" class="f1"> </text>
         <text x="36.615859985" y="-2.770781279" class="f1"> </text>
         <text x="39.111721039" y="-2.770781279" class="f1"> </text>
         <text x="41.607582092" y="-2.770781279" class="f1"> </text>
         <text x="44.103443146" y="-2.770781279" class="f1"> </text>
         <text x="46.599304199" y="-2.770781279" class="f1"> </text>
         <text x="49.095165253" y="-2.770781279" class="f1"> </text>
         <text x="51.591026306" y="-2.770781279" class="f1"> </text>
         <text x="54.08688736" y="-2.770781279" class="f1"> </text>
         <text x="56.582748413" y="-2.770781279" class="f1"> </text>
         <text x="59.078609467" y="-2.770781279" class="f1"> </text>
         <text x="61.57447052" y="-2.770781279" class="f1"> </text>
         <text x="64.070327759" y="-2.770781279" class="f1"> </text>
         <text x="66.566184998" y="-2.770781279" class="f1"> </text>
         <text x="69.062042236" y="-2.770781279" class="f1"> </text>
         <text x="71.557899475" y="-2.770781279" class="f1"> </text>
         <text x="74.053756714" y="-2.770781279" class="f1"> </text>
         <text x="76.549613953" y="-2.770781279" class="f1"> </text>
         <text x="79.045471191" y="-2.770781279" class="f1"> </text>
         <text x="81.54132843" y="-2.770781279" class="f1"> </text>
         <text x="84.037185669" y="-2.770781279" class="f1"> </text>
         <text x="86.533042908" y="-2.770781279" class="f1">7</text>
         <text x="92.128509521" y="-2.770781279" class="f1">.</text>
         <text x="94.915466309" y="-2.770781279" class="f1">9</text>
         <text x="100.510932922" y="-2.770781279" class="f1">7</text>
         <text x="106.106399536" y="-2.770781279" class="f1"> </text>
         <text x="108.602256775" y="-2.770781279" class="f1"> </text>
         <text x="111.098114014" y="-2.770781279" class="f1"> </text>
         <text x="113.593971252" y="-2.770781279" class="f1"> </text>
         <text x="116.089828491" y="-2.770781279" class="f1"> </text>
         <text x="118.58568573" y="-2.770781279" class="f1"> </text>
         <text x="121.081542969" y="-2.770781279" class="f1"> </text>
         <text x="123.577400208" y="-2.770781279" class="f1"> </text>
         <text x="126.073257446" y="-2.770781279" class="f1"> </text>
         <text x="128.569122314" y="-2.770781279" class="f1">6</text>
         <text x="134.164596558" y="-2.770781279" class="f1">.</text>
         <text x="136.951553345" y="-2.770781279" class="f1">4</text>
         <text x="142.547027588" y="-2.770781279" class="f1">0</text>
         <text x="148.142501831" y="-2.770781279" class="f1"> </text>
         <text x="150.638366699" y="-2.770781279" class="f1"> </text>
         <text x="153.134231567" y="-2.770781279" class="f1"> </text>
         <text x="155.630096436" y="-2.770781279" class="f1"> </text>
         <text x="158.125961304" y="-2.770781279" class="f1"> </text>
         <text x="160.621826172" y="-2.770781279" class="f1"> </text>
         <text x="163.11769104" y="-2.770781279" class="f1"> </text>
         <text x="165.613555908" y="-2.770781279" class="f1"> </text>
         <text x="168.109420776" y="-2.770781279" class="f1"> </text>
         <text x="170.605285645" y="-2.770781279" class="f1">4</text>
         <text x="176.200759888" y="-2.770781279" class="f1">.</text>
         <text x="178.987716675" y="-2.770781279" class="f1">9</text>
         <text x="184.583190918" y="-2.770781279" class="f1">5</text>
         <text x="190.178665161" y="-2.770781279" class="f1"> </text>
         <text x="192.674530029" y="-2.770781279" class="f1"> </text>
         <text x="195.170394897" y="-2.770781279" class="f1"> </text>
         <text x="197.666259766" y="-2.770781279" class="f1"> </text>
         <text x="200.162124634" y="-2.770781279" class="f1"> </text>
         <text x="202.657989502" y="-2.770781279" class="f1"> </text>
         <text x="205.15385437" y="-2.770781279" class="f1"> </text>
         <text x="207.649719238" y="-2.770781279" class="f1"> </text>
         <text x="210.145584106" y="-2.770781279" class="f1"> </text>
         <text x="212.641448975" y="-2.770781279" class="f1">6</text>
         <text x="218.236923218" y="-2.770781279" class="f1">.</text>
         <text x="221.023880005" y="-2.770781279" class="f1">8</text>
         <text x="226.619354248" y="-2.770781279" class="f1">5</text>
         <text x="232.214828491" y="-2.770781279" class="f1"> </text>
         <text x="234.710693359" y="-2.770781279" class="f1"> </text>
         <text x="237.206558228" y="-2.770781279" class="f1"> </text>
         <text x="239.702423096" y="-2.770781279" class="f1"> </text>
         <text x="242.198287964" y="-2.770781279" class="f1"> </text>
         <text x="244.694152832" y="-2.770781279" class="f1"> </text>
         <text x="247.1900177" y="-2.770781279" class="f1"> </text>
         <text x="249.685882568" y="-2.770781279" class="f1"> </text>
         <text x="252.181747437" y="-2.770781279" class="f1"> </text>
         <text x="254.677612305" y="-2.770781279" class="f1">3</text>
         <text x="260.273071289" y="-2.770781279" class="f1">.</text>
         <text x="263.060028076" y="-2.770781279" class="f1">6</text>
         <text x="268.655487061" y="-2.770781279" class="f1">9</text>
        </g>
       </g>
      </g>
      <defs>
       <clipPath id="CLIP101">
        <path d="M0.25,452.478729248 L570.594177246,452.478729248 L570.594177246,480.085540771 L0.25,480.085540771 Z " />
       </clipPath>
      </defs>
      <g clip-path="url(#CLIP101)">
       <g>
        <g transform="matrix(1,0,0,1,1.075036168,472.58190918)">
         <text x="1" y="-2.75999999" class="f1">EV/EBITDA</text>
         <text x="49.655780792" y="-2.75999999" class="f1">                    </text>
         <text x="99.572967529" y="-2.75999999" class="f1">5.08</text>
         <text x="119.146324158" y="-2.75999999" class="f1">        </text>
         <text x="139.113204956" y="-2.75999999" class="f1">22.72</text>
         <text x="164.282028198" y="-2.75999999" class="f1">        </text>
         <text x="184.248901367" y="-2.75999999" class="f1">23.65</text>
         <text x="209.417724609" y="-2.75999999" class="f1">        </text>
         <text x="229.384597778" y="-2.75999999" class="f1">14.40</text>
         <text x="254.553421021" y="-2.75999999" class="f1">        </text>
         <text x="274.520294189" y="-2.75999999" class="f1">10.60</text>
        </g>
       </g>
      </g>
      <defs>
       <clipPath id="CLIP102">
        <path d="M0.25,480.585540771 L570.594177246,480.585540771 L570.594177246,508.192352295 L0.25,508.192352295 Z " />
       </clipPath>
      </defs>
      <g clip-path="url(#CLIP102)">
       <g>
        <g transform="matrix(1,0,0,1,1.075036168,500.688720703)">
         <text x="1" y="-2.75999999" class="f1">EV/EBIT</text>
         <text x="36.475704193" y="-2.75999999" class="f1">                       </text>
         <text x="93.880470276" y="-2.75999999" class="f1">5.33</text>
         <text x="113.453826904" y="-2.75999999" class="f1">        </text>
         <text x="133.420700073" y="-2.75999999" class="f1">24.19</text>
         <text x="158.589523315" y="-2.75999999" class="f1">        </text>
         <text x="178.556396484" y="-2.75999999" class="f1">25.45</text>
         <text x="203.725219727" y="-2.75999999" class="f1">        </text>
         <text x="223.692092896" y="-2.75999999" class="f1">15.05</text>
         <text x="248.860916138" y="-2.75999999" class="f1">        </text>
         <text x="268.827789307" y="-2.75999999" class="f1">10.95</text>
        </g>
       </g>
      </g>
     </g>
    </g>
    <defs>
     <clipPath id="CLIP103">
      <path d="M-0.5,-0.5 L504.5,-0.5 L504.5,509.5 L-0.5,509.5 Z " />
     </clipPath>
    </defs>
    <g clip-path="url(#CLIP103)">
     <g />
    </g>
   </g>
   <g />
   <g />
   <g />
   <g>
    <g>
     <g />
     <g shape-rendering="crispEdges" />
    </g>
    <g>
     <g />
    </g>
    <g>
     <g />
    </g>
   </g>
   <g>
    <text x="10" y="10" class="f2">Evaluation Only. Created with Aspose.Cells for Python via Java.Copyright 2003 - 2023 Aspose Pty Ltd.</text>
   </g>
  </g>
 </g>
 <defs />
 <defs>
  <style type="text/css">
   <![CDATA[
   
.f0
{
font-family:Microsoft YaHei Light;
font-size:11.039999962px;
fill:#000000;
}

.f1
{
font-family:Calibri;
font-size:11.039999962px;
fill:#000000;
}

.f2
{
font-family:Arial;
font-size:10px;
fill:#FF0000;
}

   
.p0
{
stroke:#FF0000;
stroke-width:2.907599926px;
stroke-linecap:butt;
stroke-linejoin:miter;
}

   ]]></style>
 </defs>
</svg>
