<?xml version="1.0" encoding="UTF-8" standalone="yes"?>
<svg xmlns="http://www.w3.org/2000/svg" xmlns:xlink="http://www.w3.org/1999/xlink" width="612pt" height="792pt">
 <g id="SFixTitle" />
 <g id="SContent">
  <g transform="scale(1.33333)">
   <rect width="100%" height="100%" fill="white" />
   <g>
    <g>
     <g />
     <g shape-rendering="crispEdges" />
    </g>
    <g>
     <g />
    </g>
    <g>
     <g />
    </g>
   </g>
   <g transform="matrix(1,0,0,1,50.400001526,54)">
    <defs>
     <clipPath id="CLIP0">
      <path d="M-0.5,-0.5 L475.5,-0.5 L475.5,88.5 L-0.5,88.5 Z " />
     </clipPath>
    </defs>
    <g clip-path="url(#CLIP0)">
     <g />
     <g shape-rendering="crispEdges" />
    </g>
    <defs>
     <clipPath id="CLIP1">
      <path d="M-0.5,-1.453799963 L475.5,-1.453799963 L475.5,89.546203613 L-0.5,89.546203613 Z " />
     </clipPath>
    </defs>
    <g clip-path="url(#CLIP1)">
     <g>
      <g />
      <path d="M 0,0 L 99.978363037,0" class="p0" fill="none" />
      <path d="M 0,58.152000427 L 99.978363037,58.152000427" class="p0" fill="none" />
      <path d="M 0,0 L 0,14.538000107" class="p0" fill="none" />
      <path d="M 0,58.152000427 L 0,72.690002441" class="p0" fill="none" />
      <path d="M 99.978363037,0 L 237.851745605,0" class="p0" fill="none" />
      <path d="M 99.978363037,58.152000427 L 237.851745605,58.152000427" class="p0" fill="none" />
      <path d="M 99.977996826,0 L 99.977996826,14.538000107" class="p0" fill="none" />
      <path d="M 99.977996826,58.152000427 L 99.977996826,72.690002441" class="p0" fill="none" />
      <path d="M 237.851745605,0 L 336.217559814,0" class="p0" fill="none" />
      <path d="M 237.851745605,58.152000427 L 336.217559814,58.152000427" class="p0" fill="none" />
      <path d="M 237.852005005,58.152000427 L 237.852005005,72.690002441" class="p0" fill="none" />
      <path d="M 336.217559814,0 L 474.090942383,0" class="p0" fill="none" />
      <path d="M 336.217559814,58.152000427 L 474.090942383,58.152000427" class="p0" fill="none" />
      <path d="M 336.217987061,0 L 336.217987061,14.538000107" class="p0" fill="none" />
      <path d="M 336.217987061,58.152000427 L 336.217987061,72.690002441" class="p0" fill="none" />
      <path d="M 474.091003418,58.152000427 L 474.091003418,72.690002441" class="p0" fill="none" />
      <path d="M 0,14.538000107 L 99.978363037,14.538000107" class="p0" fill="none" />
      <path d="M 0,72.690002441 L 99.978363037,72.690002441" class="p0" fill="none" />
      <path d="M 0,14.538000107 L 0,29.076000214" class="p0" fill="none" />
      <path d="M 0,72.690002441 L 0,87.228004456" class="p0" fill="none" />
      <path d="M 99.978363037,14.538000107 L 237.851745605,14.538000107" class="p0" fill="none" />
      <path d="M 99.978363037,72.690002441 L 237.851745605,72.690002441" class="p0" fill="none" />
      <path d="M 99.977996826,14.538000107 L 99.977996826,29.076000214" class="p0" fill="none" />
      <path d="M 99.977996826,72.690002441 L 99.977996826,87.228004456" class="p0" fill="none" />
      <path d="M 237.851745605,14.538000107 L 336.217559814,14.538000107" class="p0" fill="none" />
      <path d="M 237.851745605,72.690002441 L 336.217559814,72.690002441" class="p0" fill="none" />
      <path d="M 237.852005005,14.538000107 L 237.852005005,29.076000214" class="p0" fill="none" />
      <path d="M 237.852005005,72.690002441 L 237.852005005,87.228004456" class="p0" fill="none" />
      <path d="M 336.217559814,14.538000107 L 474.090942383,14.538000107" class="p0" fill="none" />
      <path d="M 336.217559814,72.690002441 L 474.090942383,72.690002441" class="p0" fill="none" />
      <path d="M 336.217987061,14.538000107 L 336.217987061,29.076000214" class="p0" fill="none" />
      <path d="M 336.217987061,72.690002441 L 336.217987061,87.228004456" class="p0" fill="none" />
      <path d="M 474.091003418,14.538000107 L 474.091003418,29.076000214" class="p0" fill="none" />
      <path d="M 474.091003418,72.690002441 L 474.091003418,87.228004456" class="p0" fill="none" />
      <path d="M 0,29.076000214 L 99.978363037,29.076000214" class="p0" fill="none" />
      <path d="M 0,87.227996826 L 99.978363037,87.227996826" class="p0" fill="none" />
      <path d="M 0,29.076000214 L 0,43.613998413" class="p0" fill="none" />
      <path d="M 99.978363037,29.076000214 L 237.851745605,29.076000214" class="p0" fill="none" />
      <path d="M 99.978363037,87.227996826 L 237.851745605,87.227996826" class="p0" fill="none" />
      <path d="M 99.977996826,29.076000214 L 99.977996826,43.613998413" class="p0" fill="none" />
      <path d="M 237.851745605,29.076000214 L 336.217559814,29.076000214" class="p0" fill="none" />
      <path d="M 237.851745605,87.227996826 L 336.217559814,87.227996826" class="p0" fill="none" />
      <path d="M 237.852005005,29.076000214 L 237.852005005,43.613998413" class="p0" fill="none" />
      <path d="M 336.217559814,29.076000214 L 474.090942383,29.076000214" class="p0" fill="none" />
      <path d="M 336.217559814,87.227996826 L 474.090942383,87.227996826" class="p0" fill="none" />
      <path d="M 336.217987061,29.076000214 L 336.217987061,43.613998413" class="p0" fill="none" />
      <path d="M 474.091003418,29.076000214 L 474.091003418,43.613998413" class="p0" fill="none" />
      <path d="M 0,43.613998413 L 99.978363037,43.613998413" class="p0" fill="none" />
      <path d="M 0,43.613998413 L 0,58.152000427" class="p0" fill="none" />
      <path d="M 99.978363037,43.613998413 L 237.851745605,43.613998413" class="p0" fill="none" />
      <path d="M 99.977996826,43.613998413 L 99.977996826,58.152000427" class="p0" fill="none" />
      <path d="M 237.851745605,43.613998413 L 336.217559814,43.613998413" class="p0" fill="none" />
      <path d="M 237.852005005,43.613998413 L 237.852005005,58.152000427" class="p0" fill="none" />
      <path d="M 336.217559814,43.613998413 L 474.090942383,43.613998413" class="p0" fill="none" />
      <path d="M 336.217987061,43.613998413 L 336.217987061,58.152000427" class="p0" fill="none" />
      <path d="M 474.091003418,43.613998413 L 474.091003418,58.152000427" class="p0" fill="none" />
     </g>
    </g>
    <defs>
     <clipPath id="CLIP2">
      <path d="M-0.5,-0.5 L475.5,-0.5 L475.5,88.5 L-0.5,88.5 Z " />
     </clipPath>
    </defs>
    <g clip-path="url(#CLIP2)">
     <g>
      <defs>
       <clipPath id="CLIP3">
        <path d="M100.228363037,0.25 L335.967559814,0.25 L335.967559814,14.288000107 L100.228363037,14.288000107 Z " />
       </clipPath>
      </defs>
      <g clip-path="url(#CLIP3)">
       <g>
        <g transform="matrix(1,0,0,1,101.053398132,13.568799973)">
         <text x="1" y="-2.770781279" class="f0">广</text>
         <text x="12.039999962" y="-2.770781279" class="f0">东</text>
         <text x="23.079999924" y="-2.770781279" class="f0">理</text>
         <text x="34.119998932" y="-2.770781279" class="f0">工</text>
         <text x="45.159999847" y="-2.770781279" class="f0">学</text>
         <text x="56.200000763" y="-2.770781279" class="f0">院</text>
        </g>
       </g>
      </g>
      <defs>
       <clipPath id="CLIP4">
        <path d="M336.467559814,0.25 L573.013061523,0.25 L573.013061523,14.288000107 L336.467559814,14.288000107 Z " />
       </clipPath>
      </defs>
      <g clip-path="url(#CLIP4)">
       <g>
        <g transform="matrix(1,0,0,1,337.292602539,13.568799973)">
         <text x="1" y="-2.770781279" class="f0">肇</text>
         <text x="12.039999962" y="-2.770781279" class="f0">庆</text>
         <text x="23.079999924" y="-2.770781279" class="f0">学</text>
         <text x="34.119998932" y="-2.770781279" class="f0">校</text>
        </g>
       </g>
      </g>
      <defs>
       <clipPath id="CLIP5">
        <path d="M100.228363037,14.788000107 L237.601745605,14.788000107 L237.601745605,28.826000214 L100.228363037,28.826000214 Z " />
       </clipPath>
      </defs>
      <g clip-path="url(#CLIP5)">
       <g>
        <g transform="matrix(1,0,0,1,101.053398132,28.106800079)">
         <text x="1" y="-2.770781279" class="f0">可</text>
         <text x="12.039999962" y="-2.770781279" class="f0">容</text>
         <text x="23.079999924" y="-2.770781279" class="f0">纳</text>
         <text x="34.119998932" y="-2.770781279" class="f0">学</text>
         <text x="45.159999847" y="-2.770781279" class="f0">生</text>
         <text x="56.200000763" y="-2.770781279" class="f0">人</text>
         <text x="67.239997864" y="-2.770781279" class="f0">数</text>
        </g>
       </g>
      </g>
      <defs>
       <clipPath id="CLIP6">
        <path d="M238.101745605,14.788000107 L335.967559814,14.788000107 L335.967559814,28.826000214 L238.101745605,28.826000214 Z " />
       </clipPath>
      </defs>
      <g clip-path="url(#CLIP6)">
       <g>
        <g transform="matrix(1,0,0,1,238.92678833,28.106800079)">
         <text x="1" y="-2.770781279" class="f0">学</text>
         <text x="12.039999962" y="-2.770781279" class="f0">校</text>
         <text x="23.079999924" y="-2.770781279" class="f0">利</text>
         <text x="34.119998932" y="-2.770781279" class="f0">用</text>
         <text x="45.159999847" y="-2.770781279" class="f0">率</text>
        </g>
       </g>
      </g>
      <defs>
       <clipPath id="CLIP7">
        <path d="M336.467559814,14.788000107 L473.840942383,14.788000107 L473.840942383,28.826000214 L336.467559814,28.826000214 Z " />
       </clipPath>
      </defs>
      <g clip-path="url(#CLIP7)">
       <g>
        <g transform="matrix(1,0,0,1,337.292602539,28.106800079)">
         <text x="1" y="-2.770781279" class="f0">可</text>
         <text x="12.039999962" y="-2.770781279" class="f0">容</text>
         <text x="23.079999924" y="-2.770781279" class="f0">纳</text>
         <text x="34.119998932" y="-2.770781279" class="f0">学</text>
         <text x="45.159999847" y="-2.770781279" class="f0">生</text>
         <text x="56.200000763" y="-2.770781279" class="f0">人</text>
         <text x="67.239997864" y="-2.770781279" class="f0">数</text>
        </g>
       </g>
      </g>
      <defs>
       <clipPath id="CLIP8">
        <path d="M0.25,29.326000214 L99.728363037,29.326000214 L99.728363037,43.363998413 L0.25,43.363998413 Z " />
       </clipPath>
      </defs>
      <g clip-path="url(#CLIP8)">
       <g>
        <g transform="matrix(1,0,0,1,1.075036168,42.644798279)">
         <text x="1" y="-2.75999999" class="f1">2015/2016</text>
        </g>
       </g>
      </g>
      <defs>
       <clipPath id="CLIP9">
        <path d="M100.228363037,29.326000214 L237.601745605,29.326000214 L237.601745605,43.363998413 L100.228363037,43.363998413 Z " />
       </clipPath>
      </defs>
      <g clip-path="url(#CLIP9)">
       <g>
        <g transform="matrix(1,0,0,1,101.053398132,42.644798279)">
         <text x="1" y="-2.770781279" class="f1">1</text>
         <text x="6.595468521" y="-2.770781279" class="f1">9</text>
         <text x="12.190937042" y="-2.770781279" class="f0">，</text>
         <text x="23.230937958" y="-2.770781279" class="f1">1</text>
         <text x="28.826406479" y="-2.770781279" class="f1">5</text>
         <text x="34.421875" y="-2.770781279" class="f1">2</text>
        </g>
       </g>
      </g>
      <defs>
       <clipPath id="CLIP10">
        <path d="M238.101745605,29.326000214 L335.967559814,29.326000214 L335.967559814,43.363998413 L238.101745605,43.363998413 Z " />
       </clipPath>
      </defs>
      <g clip-path="url(#CLIP10)">
       <g>
        <g transform="matrix(1,0,0,1,238.92678833,42.644798279)">
         <text x="1" y="-2.75999999" class="f1">94.3%</text>
        </g>
       </g>
      </g>
      <defs>
       <clipPath id="CLIP11">
        <path d="M336.467559814,29.326000214 L473.840942383,29.326000214 L473.840942383,43.363998413 L336.467559814,43.363998413 Z " />
       </clipPath>
      </defs>
      <g clip-path="url(#CLIP11)">
       <g>
        <g transform="matrix(1,0,0,1,337.292602539,42.644798279)">
         <text x="1" y="-2.770781279" class="f1">6</text>
         <text x="6.595468521" y="-2.770781279" class="f0">，</text>
         <text x="17.635467529" y="-2.770781279" class="f1">8</text>
         <text x="23.23093605" y="-2.770781279" class="f1">2</text>
         <text x="28.826404572" y="-2.770781279" class="f1">9</text>
        </g>
       </g>
      </g>
      <defs>
       <clipPath id="CLIP12">
        <path d="M0.25,43.863998413 L99.728363037,43.863998413 L99.728363037,57.902000427 L0.25,57.902000427 Z " />
       </clipPath>
      </defs>
      <g clip-path="url(#CLIP12)">
       <g>
        <g transform="matrix(1,0,0,1,1.075036168,57.182800293)">
         <text x="1" y="-2.75999999" class="f1">2016/2017</text>
        </g>
       </g>
      </g>
      <defs>
       <clipPath id="CLIP13">
        <path d="M100.228363037,43.863998413 L237.601745605,43.863998413 L237.601745605,57.902000427 L100.228363037,57.902000427 Z " />
       </clipPath>
      </defs>
      <g clip-path="url(#CLIP13)">
       <g>
        <g transform="matrix(1,0,0,1,101.053398132,57.182800293)">
         <text x="1" y="-2.770781279" class="f1">1</text>
         <text x="6.595468521" y="-2.770781279" class="f1">9</text>
         <text x="12.190937042" y="-2.770781279" class="f0">，</text>
         <text x="23.230937958" y="-2.770781279" class="f1">1</text>
         <text x="28.826406479" y="-2.770781279" class="f1">5</text>
         <text x="34.421875" y="-2.770781279" class="f1">2</text>
        </g>
       </g>
      </g>
      <defs>
       <clipPath id="CLIP14">
        <path d="M238.101745605,43.863998413 L335.967559814,43.863998413 L335.967559814,57.902000427 L238.101745605,57.902000427 Z " />
       </clipPath>
      </defs>
      <g clip-path="url(#CLIP14)">
       <g>
        <g transform="matrix(1,0,0,1,238.92678833,57.182800293)">
         <text x="1" y="-2.75999999" class="f1">90.1%</text>
        </g>
       </g>
      </g>
      <defs>
       <clipPath id="CLIP15">
        <path d="M336.467559814,43.863998413 L473.840942383,43.863998413 L473.840942383,57.902000427 L336.467559814,57.902000427 Z " />
       </clipPath>
      </defs>
      <g clip-path="url(#CLIP15)">
       <g>
        <g transform="matrix(1,0,0,1,337.292602539,57.182800293)">
         <text x="1" y="-2.770781279" class="f1">6</text>
         <text x="6.595468521" y="-2.770781279" class="f0">，</text>
         <text x="17.635467529" y="-2.770781279" class="f1">8</text>
         <text x="23.23093605" y="-2.770781279" class="f1">2</text>
         <text x="28.826404572" y="-2.770781279" class="f1">9</text>
        </g>
       </g>
      </g>
      <defs>
       <clipPath id="CLIP16">
        <path d="M0.25,58.402000427 L99.728363037,58.402000427 L99.728363037,72.440002441 L0.25,72.440002441 Z " />
       </clipPath>
      </defs>
      <g clip-path="url(#CLIP16)">
       <g>
        <g transform="matrix(1,0,0,1,1.075036168,71.720802307)">
         <text x="1" y="-2.75999999" class="f1">2017/2018</text>
        </g>
       </g>
      </g>
      <defs>
       <clipPath id="CLIP17">
        <path d="M100.228363037,58.402000427 L237.601745605,58.402000427 L237.601745605,72.440002441 L100.228363037,72.440002441 Z " />
       </clipPath>
      </defs>
      <g clip-path="url(#CLIP17)">
       <g>
        <g transform="matrix(1,0,0,1,101.053398132,71.720802307)">
         <text x="1" y="-2.770781279" class="f1">2</text>
         <text x="6.595468521" y="-2.770781279" class="f1">5</text>
         <text x="12.190937042" y="-2.770781279" class="f0">，</text>
         <text x="23.230937958" y="-2.770781279" class="f1">1</text>
         <text x="28.826406479" y="-2.770781279" class="f1">4</text>
         <text x="34.421875" y="-2.770781279" class="f1">8</text>
        </g>
       </g>
      </g>
      <defs>
       <clipPath id="CLIP18">
        <path d="M238.101745605,58.402000427 L335.967559814,58.402000427 L335.967559814,72.440002441 L238.101745605,72.440002441 Z " />
       </clipPath>
      </defs>
      <g clip-path="url(#CLIP18)">
       <g>
        <g transform="matrix(1,0,0,1,238.92678833,71.720802307)">
         <text x="1" y="-2.75999999" class="f1">86.3%</text>
        </g>
       </g>
      </g>
      <defs>
       <clipPath id="CLIP19">
        <path d="M336.467559814,58.402000427 L473.840942383,58.402000427 L473.840942383,72.440002441 L336.467559814,72.440002441 Z " />
       </clipPath>
      </defs>
      <g clip-path="url(#CLIP19)">
       <g>
        <g transform="matrix(1,0,0,1,337.292602539,71.720802307)">
         <text x="1" y="-2.770781279" class="f1">6</text>
         <text x="6.595468521" y="-2.770781279" class="f0">，</text>
         <text x="17.635467529" y="-2.770781279" class="f1">8</text>
         <text x="23.23093605" y="-2.770781279" class="f1">2</text>
         <text x="28.826404572" y="-2.770781279" class="f1">9</text>
        </g>
       </g>
      </g>
      <defs>
       <clipPath id="CLIP20">
        <path d="M0.25,72.940002441 L99.728363037,72.940002441 L99.728363037,86.978004456 L0.25,86.978004456 Z " />
       </clipPath>
      </defs>
      <g clip-path="url(#CLIP20)">
       <g>
        <g transform="matrix(1,0,0,1,1.075036168,86.258804321)">
         <text x="1" y="-2.75999999" class="f1">2018/2019</text>
        </g>
       </g>
      </g>
      <defs>
       <clipPath id="CLIP21">
        <path d="M100.228363037,72.940002441 L237.601745605,72.940002441 L237.601745605,86.978004456 L100.228363037,86.978004456 Z " />
       </clipPath>
      </defs>
      <g clip-path="url(#CLIP21)">
       <g>
        <g transform="matrix(1,0,0,1,101.053398132,86.258804321)">
         <text x="1" y="-2.75999999" class="f1">29.148</text>
        </g>
       </g>
      </g>
      <defs>
       <clipPath id="CLIP22">
        <path d="M238.101745605,72.940002441 L335.967559814,72.940002441 L335.967559814,86.978004456 L238.101745605,86.978004456 Z " />
       </clipPath>
      </defs>
      <g clip-path="url(#CLIP22)">
       <g>
        <g transform="matrix(1,0,0,1,238.92678833,86.258804321)">
         <text x="1" y="-2.75999999" class="f1">90.8%</text>
        </g>
       </g>
      </g>
      <defs>
       <clipPath id="CLIP23">
        <path d="M336.467559814,72.940002441 L473.840942383,72.940002441 L473.840942383,86.978004456 L336.467559814,86.978004456 Z " />
       </clipPath>
      </defs>
      <g clip-path="url(#CLIP23)">
       <g>
        <g transform="matrix(1,0,0,1,337.292602539,86.258804321)">
         <text x="1" y="-2.770781279" class="f1">6</text>
         <text x="6.595468521" y="-2.770781279" class="f0">，</text>
         <text x="17.635467529" y="-2.770781279" class="f1">8</text>
         <text x="23.23093605" y="-2.770781279" class="f1">2</text>
         <text x="28.826404572" y="-2.770781279" class="f1">9</text>
        </g>
       </g>
      </g>
     </g>
    </g>
    <defs>
     <clipPath id="CLIP24">
      <path d="M-0.5,-0.5 L475.5,-0.5 L475.5,88.5 L-0.5,88.5 Z " />
     </clipPath>
    </defs>
    <g clip-path="url(#CLIP24)">
     <g />
    </g>
   </g>
   <g />
   <g />
   <g />
   <g>
    <g>
     <g />
     <g shape-rendering="crispEdges" />
    </g>
    <g>
     <g />
    </g>
    <g>
     <g />
    </g>
   </g>
   <g>
    <text x="10" y="10" class="f2">Evaluation Only. Created with Aspose.Cells for Python via Java.Copyright 2003 - 2023 Aspose Pty Ltd.</text>
   </g>
  </g>
 </g>
 <defs />
 <defs>
  <style type="text/css">
   <![CDATA[
   
.f0
{
font-family:Microsoft YaHei Light;
font-size:11.039999962px;
fill:#000000;
}

.f1
{
font-family:Calibri;
font-size:11.039999962px;
fill:#000000;
}

.f2
{
font-family:Arial;
font-size:10px;
fill:#FF0000;
}

   
.p0
{
stroke:#FF0000;
stroke-width:2.907599926px;
stroke-linecap:butt;
stroke-linejoin:miter;
}

   ]]></style>
 </defs>
</svg>
