<?xml version="1.0" encoding="UTF-8" standalone="yes"?>
<svg xmlns="http://www.w3.org/2000/svg" xmlns:xlink="http://www.w3.org/1999/xlink" width="612pt" height="792pt">
 <g id="SFixTitle" />
 <g id="SContent">
  <g transform="scale(1.33333)">
   <rect width="100%" height="100%" fill="white" />
   <g>
    <g>
     <g />
     <g shape-rendering="crispEdges" />
    </g>
    <g>
     <g />
    </g>
    <g>
     <g />
    </g>
   </g>
   <g transform="matrix(1,0,0,1,50.400001526,54)">
    <defs>
     <clipPath id="CLIP0">
      <path d="M-0.5,-0.5 L464.5,-0.5 L464.5,88.5 L-0.5,88.5 Z " />
     </clipPath>
    </defs>
    <g clip-path="url(#CLIP0)">
     <g />
     <g shape-rendering="crispEdges" />
    </g>
    <defs>
     <clipPath id="CLIP1">
      <path d="M-0.5,-1.453799963 L464.5,-1.453799963 L464.5,89.546203613 L-0.5,89.546203613 Z " />
     </clipPath>
    </defs>
    <g clip-path="url(#CLIP1)">
     <g>
      <g />
      <path d="M 0,0 L 87.077926636,0" class="p0" fill="none" />
      <path d="M 0,58.152000427 L 87.077926636,58.152000427" class="p0" fill="none" />
      <path d="M 0,0 L 0,14.538000107" class="p0" fill="none" />
      <path d="M 0,58.152000427 L 0,72.690002441" class="p0" fill="none" />
      <path d="M 87.077926636,0 L 224.14503479,0" class="p0" fill="none" />
      <path d="M 87.077926636,58.152000427 L 224.14503479,58.152000427" class="p0" fill="none" />
      <path d="M 87.07800293,0 L 87.07800293,14.538000107" class="p0" fill="none" />
      <path d="M 87.07800293,58.152000427 L 87.07800293,72.690002441" class="p0" fill="none" />
      <path d="M 224.14503479,0 L 323.317108154,0" class="p0" fill="none" />
      <path d="M 224.14503479,58.152000427 L 323.317138672,58.152000427" class="p0" fill="none" />
      <path d="M 224.145004272,58.152000427 L 224.145004272,72.690002441" class="p0" fill="none" />
      <path d="M 323.317138672,0 L 463.609375,0" class="p0" fill="none" />
      <path d="M 323.317138672,58.152000427 L 463.609375,58.152000427" class="p0" fill="none" />
      <path d="M 323.316986084,0 L 323.316986084,14.538000107" class="p0" fill="none" />
      <path d="M 323.316986084,58.152000427 L 323.316986084,72.690002441" class="p0" fill="none" />
      <path d="M 463.609008789,58.152000427 L 463.609008789,72.690002441" class="p0" fill="none" />
      <path d="M 0,14.538000107 L 87.077926636,14.538000107" class="p0" fill="none" />
      <path d="M 0,72.690002441 L 87.077926636,72.690002441" class="p0" fill="none" />
      <path d="M 0,14.538000107 L 0,29.076000214" class="p0" fill="none" />
      <path d="M 0,72.690002441 L 0,87.228004456" class="p0" fill="none" />
      <path d="M 87.077926636,14.538000107 L 224.14503479,14.538000107" class="p0" fill="none" />
      <path d="M 87.077926636,72.690002441 L 224.14503479,72.690002441" class="p0" fill="none" />
      <path d="M 87.07800293,14.538000107 L 87.07800293,29.076000214" class="p0" fill="none" />
      <path d="M 87.07800293,72.690002441 L 87.07800293,87.228004456" class="p0" fill="none" />
      <path d="M 224.14503479,14.538000107 L 323.317108154,14.538000107" class="p0" fill="none" />
      <path d="M 224.14503479,72.690002441 L 323.317138672,72.690002441" class="p0" fill="none" />
      <path d="M 224.145004272,14.538000107 L 224.145004272,29.076000214" class="p0" fill="none" />
      <path d="M 224.145004272,72.690002441 L 224.145004272,87.228004456" class="p0" fill="none" />
      <path d="M 323.317138672,14.538000107 L 463.609375,14.538000107" class="p0" fill="none" />
      <path d="M 323.317138672,72.690002441 L 463.609375,72.690002441" class="p0" fill="none" />
      <path d="M 323.316986084,14.538000107 L 323.316986084,29.076000214" class="p0" fill="none" />
      <path d="M 323.316986084,72.690002441 L 323.316986084,87.228004456" class="p0" fill="none" />
      <path d="M 463.609008789,14.538000107 L 463.609008789,29.076000214" class="p0" fill="none" />
      <path d="M 463.609008789,72.690002441 L 463.609008789,87.228004456" class="p0" fill="none" />
      <path d="M 0,29.076000214 L 87.077926636,29.076000214" class="p0" fill="none" />
      <path d="M 0,87.227996826 L 87.077926636,87.227996826" class="p0" fill="none" />
      <path d="M 0,29.076000214 L 0,43.613998413" class="p0" fill="none" />
      <path d="M 87.077926636,29.076000214 L 224.14503479,29.076000214" class="p0" fill="none" />
      <path d="M 87.077926636,87.227996826 L 224.14503479,87.227996826" class="p0" fill="none" />
      <path d="M 87.07800293,29.076000214 L 87.07800293,43.613998413" class="p0" fill="none" />
      <path d="M 224.14503479,29.076000214 L 323.317138672,29.076000214" class="p0" fill="none" />
      <path d="M 224.14503479,87.227996826 L 323.317138672,87.227996826" class="p0" fill="none" />
      <path d="M 224.145004272,29.076000214 L 224.145004272,43.613998413" class="p0" fill="none" />
      <path d="M 323.317138672,29.076000214 L 463.609375,29.076000214" class="p0" fill="none" />
      <path d="M 323.317138672,87.227996826 L 463.609375,87.227996826" class="p0" fill="none" />
      <path d="M 323.316986084,29.076000214 L 323.316986084,43.613998413" class="p0" fill="none" />
      <path d="M 463.609008789,29.076000214 L 463.609008789,43.613998413" class="p0" fill="none" />
      <path d="M 0,43.613998413 L 87.077926636,43.613998413" class="p0" fill="none" />
      <path d="M 0,43.613998413 L 0,58.152000427" class="p0" fill="none" />
      <path d="M 87.077926636,43.613998413 L 224.14503479,43.613998413" class="p0" fill="none" />
      <path d="M 87.07800293,43.613998413 L 87.07800293,58.152000427" class="p0" fill="none" />
      <path d="M 224.14503479,43.613998413 L 323.317138672,43.613998413" class="p0" fill="none" />
      <path d="M 224.145004272,43.613998413 L 224.145004272,58.152000427" class="p0" fill="none" />
      <path d="M 323.317138672,43.613998413 L 463.609375,43.613998413" class="p0" fill="none" />
      <path d="M 323.316986084,43.613998413 L 323.316986084,58.152000427" class="p0" fill="none" />
      <path d="M 463.609008789,43.613998413 L 463.609008789,58.152000427" class="p0" fill="none" />
     </g>
    </g>
    <defs>
     <clipPath id="CLIP2">
      <path d="M-0.5,-0.5 L464.5,-0.5 L464.5,88.5 L-0.5,88.5 Z " />
     </clipPath>
    </defs>
    <g clip-path="url(#CLIP2)">
     <g>
      <defs>
       <clipPath id="CLIP3">
        <path d="M87.327926636,0.25 L323.067138672,0.25 L323.067138672,14.288000107 L87.327926636,14.288000107 Z " />
       </clipPath>
      </defs>
      <g clip-path="url(#CLIP3)">
       <g>
        <g transform="matrix(1,0,0,1,172.077529907,13.568799973)">
         <text x="0" y="-2.770781279" class="f0">广</text>
         <text x="11.039999962" y="-2.770781279" class="f0">东</text>
         <text x="22.079999924" y="-2.770781279" class="f0">理</text>
         <text x="33.119998932" y="-2.770781279" class="f0">工</text>
         <text x="44.159999847" y="-2.770781279" class="f0">学</text>
         <text x="55.200000763" y="-2.770781279" class="f0">院</text>
        </g>
       </g>
      </g>
      <defs>
       <clipPath id="CLIP4">
        <path d="M323.567138672,0.25 L562.531433105,0.25 L562.531433105,14.288000107 L323.567138672,14.288000107 Z " />
       </clipPath>
      </defs>
      <g clip-path="url(#CLIP4)">
       <g>
        <g transform="matrix(1,0,0,1,420.969299316,13.568799973)">
         <text x="0" y="-2.770781279" class="f0">肇</text>
         <text x="11.039999962" y="-2.770781279" class="f0">庆</text>
         <text x="22.079999924" y="-2.770781279" class="f0">学</text>
         <text x="33.119998932" y="-2.770781279" class="f0">校</text>
        </g>
       </g>
      </g>
      <defs>
       <clipPath id="CLIP5">
        <path d="M87.327926636,14.788000107 L223.89503479,14.788000107 L223.89503479,28.826000214 L87.327926636,28.826000214 Z " />
       </clipPath>
      </defs>
      <g clip-path="url(#CLIP5)">
       <g>
        <g transform="matrix(1,0,0,1,116.971481323,28.106800079)">
         <text x="0" y="-2.770781279" class="f0">可</text>
         <text x="11.039999962" y="-2.770781279" class="f0">容</text>
         <text x="22.079999924" y="-2.770781279" class="f0">纳</text>
         <text x="33.119998932" y="-2.770781279" class="f0">学</text>
         <text x="44.159999847" y="-2.770781279" class="f0">生</text>
         <text x="55.200000763" y="-2.770781279" class="f0">人</text>
         <text x="66.239997864" y="-2.770781279" class="f0">数</text>
        </g>
       </g>
      </g>
      <defs>
       <clipPath id="CLIP6">
        <path d="M224.39503479,14.788000107 L323.067138672,14.788000107 L323.067138672,28.826000214 L224.39503479,28.826000214 Z " />
       </clipPath>
      </defs>
      <g clip-path="url(#CLIP6)">
       <g>
        <g transform="matrix(1,0,0,1,246.131072998,28.106800079)">
         <text x="0" y="-2.770781279" class="f0">学</text>
         <text x="11.039999962" y="-2.770781279" class="f0">校</text>
         <text x="22.079999924" y="-2.770781279" class="f0">利</text>
         <text x="33.119998932" y="-2.770781279" class="f0">用</text>
         <text x="44.159999847" y="-2.770781279" class="f0">率</text>
        </g>
       </g>
      </g>
      <defs>
       <clipPath id="CLIP7">
        <path d="M323.567138672,14.788000107 L463.359375,14.788000107 L463.359375,28.826000214 L323.567138672,28.826000214 Z " />
       </clipPath>
      </defs>
      <g clip-path="url(#CLIP7)">
       <g>
        <g transform="matrix(1,0,0,1,354.823242188,28.106800079)">
         <text x="0" y="-2.770781279" class="f0">可</text>
         <text x="11.039999962" y="-2.770781279" class="f0">容</text>
         <text x="22.079999924" y="-2.770781279" class="f0">纳</text>
         <text x="33.119998932" y="-2.770781279" class="f0">学</text>
         <text x="44.159999847" y="-2.770781279" class="f0">生</text>
         <text x="55.200000763" y="-2.770781279" class="f0">人</text>
         <text x="66.239997864" y="-2.770781279" class="f0">数</text>
        </g>
       </g>
      </g>
      <defs>
       <clipPath id="CLIP8">
        <path d="M0.25,29.326000214 L86.827926636,29.326000214 L86.827926636,43.363998413 L0.25,43.363998413 Z " />
       </clipPath>
      </defs>
      <g clip-path="url(#CLIP8)">
       <g>
        <g transform="matrix(1,0,0,1,1.075036168,42.644798279)">
         <text x="1" y="-2.75999999" class="f1">2015/2016</text>
        </g>
       </g>
      </g>
      <defs>
       <clipPath id="CLIP9">
        <path d="M87.327926636,29.326000214 L223.89503479,29.326000214 L223.89503479,43.363998413 L87.327926636,43.363998413 Z " />
       </clipPath>
      </defs>
      <g clip-path="url(#CLIP9)">
       <g>
        <g transform="matrix(1,0,0,1,136.102813721,42.644798279)">
         <text x="0" y="-2.770781279" class="f1">1</text>
         <text x="5.595468521" y="-2.770781279" class="f1">9</text>
         <text x="11.190937042" y="-2.770781279" class="f0">，</text>
         <text x="22.230937958" y="-2.770781279" class="f1">1</text>
         <text x="27.826406479" y="-2.770781279" class="f1">5</text>
         <text x="33.421875" y="-2.770781279" class="f1">2</text>
        </g>
       </g>
      </g>
      <defs>
       <clipPath id="CLIP10">
        <path d="M224.39503479,29.326000214 L323.067138672,29.326000214 L323.067138672,43.363998413 L224.39503479,43.363998413 Z " />
       </clipPath>
      </defs>
      <g clip-path="url(#CLIP10)">
       <g>
        <g transform="matrix(1,0,0,1,259.998474121,42.644798279)">
         <text x="0" y="-2.75999999" class="f1">94.3%</text>
        </g>
       </g>
      </g>
      <defs>
       <clipPath id="CLIP11">
        <path d="M323.567138672,29.326000214 L463.359375,29.326000214 L463.359375,43.363998413 L323.567138672,43.363998413 Z " />
       </clipPath>
      </defs>
      <g clip-path="url(#CLIP11)">
       <g>
        <g transform="matrix(1,0,0,1,380.878845215,42.644798279)">
         <text x="0" y="-2.75999999" class="f1">6.829</text>
        </g>
       </g>
      </g>
      <defs>
       <clipPath id="CLIP12">
        <path d="M0.25,43.863998413 L86.827926636,43.863998413 L86.827926636,57.902000427 L0.25,57.902000427 Z " />
       </clipPath>
      </defs>
      <g clip-path="url(#CLIP12)">
       <g>
        <g transform="matrix(1,0,0,1,1.075036168,57.182800293)">
         <text x="1" y="-2.75999999" class="f1">2016/2017</text>
        </g>
       </g>
      </g>
      <defs>
       <clipPath id="CLIP13">
        <path d="M87.327926636,43.863998413 L223.89503479,43.863998413 L223.89503479,57.902000427 L87.327926636,57.902000427 Z " />
       </clipPath>
      </defs>
      <g clip-path="url(#CLIP13)">
       <g>
        <g transform="matrix(1,0,0,1,140.2293396,57.182800293)">
         <text x="0" y="-2.75999999" class="f1">19.152</text>
        </g>
       </g>
      </g>
      <defs>
       <clipPath id="CLIP14">
        <path d="M224.39503479,43.863998413 L323.067138672,43.863998413 L323.067138672,57.902000427 L224.39503479,57.902000427 Z " />
       </clipPath>
      </defs>
      <g clip-path="url(#CLIP14)">
       <g>
        <g transform="matrix(1,0,0,1,225.220077515,57.182800293)">
         <text x="1" y="-2.75999999" class="f1">90.1%</text>
        </g>
       </g>
      </g>
      <defs>
       <clipPath id="CLIP15">
        <path d="M323.567138672,43.863998413 L463.359375,43.863998413 L463.359375,57.902000427 L323.567138672,57.902000427 Z " />
       </clipPath>
      </defs>
      <g clip-path="url(#CLIP15)">
       <g>
        <g transform="matrix(1,0,0,1,324.392181396,57.182800293)">
         <text x="1" y="-2.75999999" class="f1">6.829</text>
        </g>
       </g>
      </g>
      <defs>
       <clipPath id="CLIP16">
        <path d="M0.25,58.402000427 L86.827926636,58.402000427 L86.827926636,72.440002441 L0.25,72.440002441 Z " />
       </clipPath>
      </defs>
      <g clip-path="url(#CLIP16)">
       <g>
        <g transform="matrix(1,0,0,1,1.075036168,71.720802307)">
         <text x="1" y="-2.75999999" class="f1">2017/2018</text>
        </g>
       </g>
      </g>
      <defs>
       <clipPath id="CLIP17">
        <path d="M87.327926636,58.402000427 L223.89503479,58.402000427 L223.89503479,72.440002441 L87.327926636,72.440002441 Z " />
       </clipPath>
      </defs>
      <g clip-path="url(#CLIP17)">
       <g>
        <g transform="matrix(1,0,0,1,88.152961731,71.720802307)">
         <text x="1" y="-2.770781279" class="f1">2</text>
         <text x="6.595468521" y="-2.770781279" class="f1">5</text>
         <text x="12.190937042" y="-2.770781279" class="f0">，</text>
         <text x="23.230937958" y="-2.770781279" class="f1">1</text>
         <text x="28.826406479" y="-2.770781279" class="f1">4</text>
         <text x="34.421875" y="-2.770781279" class="f1">8</text>
        </g>
       </g>
      </g>
      <defs>
       <clipPath id="CLIP18">
        <path d="M224.39503479,58.402000427 L323.067138672,58.402000427 L323.067138672,72.440002441 L224.39503479,72.440002441 Z " />
       </clipPath>
      </defs>
      <g clip-path="url(#CLIP18)">
       <g>
        <g transform="matrix(1,0,0,1,225.220077515,71.720802307)">
         <text x="1" y="-2.75999999" class="f1">86.3%</text>
        </g>
       </g>
      </g>
      <defs>
       <clipPath id="CLIP19">
        <path d="M323.567138672,58.402000427 L463.359375,58.402000427 L463.359375,72.440002441 L323.567138672,72.440002441 Z " />
       </clipPath>
      </defs>
      <g clip-path="url(#CLIP19)">
       <g>
        <g transform="matrix(1,0,0,1,324.392181396,71.720802307)">
         <text x="1" y="-2.75999999" class="f1">6.829</text>
        </g>
       </g>
      </g>
      <defs>
       <clipPath id="CLIP20">
        <path d="M0.25,72.940002441 L86.827926636,72.940002441 L86.827926636,86.978004456 L0.25,86.978004456 Z " />
       </clipPath>
      </defs>
      <g clip-path="url(#CLIP20)">
       <g>
        <g transform="matrix(1,0,0,1,1.075036168,86.258804321)">
         <text x="1" y="-2.75999999" class="f1">2018/2019</text>
        </g>
       </g>
      </g>
      <defs>
       <clipPath id="CLIP21">
        <path d="M87.327926636,72.940002441 L223.89503479,72.940002441 L223.89503479,86.978004456 L87.327926636,86.978004456 Z " />
       </clipPath>
      </defs>
      <g clip-path="url(#CLIP21)">
       <g>
        <g transform="matrix(1,0,0,1,136.102813721,86.258804321)">
         <text x="0" y="-2.770781279" class="f1">2</text>
         <text x="5.595468521" y="-2.770781279" class="f1">9</text>
         <text x="11.190937042" y="-2.770781279" class="f0">，</text>
         <text x="22.230937958" y="-2.770781279" class="f1">1</text>
         <text x="27.826406479" y="-2.770781279" class="f1">4</text>
         <text x="33.421875" y="-2.770781279" class="f1">8</text>
        </g>
       </g>
      </g>
      <defs>
       <clipPath id="CLIP22">
        <path d="M224.39503479,72.940002441 L323.067138672,72.940002441 L323.067138672,86.978004456 L224.39503479,86.978004456 Z " />
       </clipPath>
      </defs>
      <g clip-path="url(#CLIP22)">
       <g>
        <g transform="matrix(1,0,0,1,225.220077515,86.258804321)">
         <text x="1" y="-2.75999999" class="f1">90.8%</text>
        </g>
       </g>
      </g>
      <defs>
       <clipPath id="CLIP23">
        <path d="M323.567138672,72.940002441 L463.359375,72.940002441 L463.359375,86.978004456 L323.567138672,86.978004456 Z " />
       </clipPath>
      </defs>
      <g clip-path="url(#CLIP23)">
       <g>
        <g transform="matrix(1,0,0,1,324.392181396,86.258804321)">
         <text x="1" y="-2.770781279" class="f1">6</text>
         <text x="6.595468521" y="-2.770781279" class="f0">，</text>
         <text x="17.635467529" y="-2.770781279" class="f1">8</text>
         <text x="23.23093605" y="-2.770781279" class="f1">2</text>
         <text x="28.826404572" y="-2.770781279" class="f1">9</text>
        </g>
       </g>
      </g>
     </g>
    </g>
    <defs>
     <clipPath id="CLIP24">
      <path d="M-0.5,-0.5 L464.5,-0.5 L464.5,88.5 L-0.5,88.5 Z " />
     </clipPath>
    </defs>
    <g clip-path="url(#CLIP24)">
     <g />
    </g>
   </g>
   <g />
   <g />
   <g />
   <g>
    <g>
     <g />
     <g shape-rendering="crispEdges" />
    </g>
    <g>
     <g />
    </g>
    <g>
     <g />
    </g>
   </g>
   <g>
    <text x="10" y="10" class="f2">Evaluation Only. Created with Aspose.Cells for Python via Java.Copyright 2003 - 2023 Aspose Pty Ltd.</text>
   </g>
  </g>
 </g>
 <defs />
 <defs>
  <style type="text/css">
   <![CDATA[
   
.f0
{
font-family:Microsoft YaHei Light;
font-size:11.039999962px;
fill:#000000;
}

.f1
{
font-family:Calibri;
font-size:11.039999962px;
fill:#000000;
}

.f2
{
font-family:Arial;
font-size:10px;
fill:#FF0000;
}

   
.p0
{
stroke:#FF0000;
stroke-width:2.907599926px;
stroke-linecap:butt;
stroke-linejoin:miter;
}

   ]]></style>
 </defs>
</svg>
