<?xml version="1.0" encoding="UTF-8" standalone="yes"?>
<svg xmlns="http://www.w3.org/2000/svg" xmlns:xlink="http://www.w3.org/1999/xlink" width="612pt" height="792pt">
 <g id="SFixTitle" />
 <g id="SContent">
  <g transform="scale(1.33333)">
   <rect width="100%" height="100%" fill="white" />
   <g>
    <g>
     <g />
     <g shape-rendering="crispEdges" />
    </g>
    <g>
     <g />
    </g>
    <g>
     <g />
    </g>
   </g>
   <g transform="matrix(1,0,0,1,50.400001526,54)">
    <defs>
     <clipPath id="CLIP0">
      <path d="M-0.5,-0.5 L184.5,-0.5 L184.5,684.5 L-0.5,684.5 Z " />
     </clipPath>
    </defs>
    <g clip-path="url(#CLIP0)">
     <g />
     <g shape-rendering="crispEdges" />
    </g>
    <defs>
     <clipPath id="CLIP1">
      <path d="M-0.5,-1.453799963 L184.5,-1.453799963 L184.5,685.546203613 L-0.5,685.546203613 Z " />
     </clipPath>
    </defs>
    <g clip-path="url(#CLIP1)">
     <g>
      <g />
      <path d="M 0,0 L 25.800868988,0" class="p0" fill="none" />
      <path d="M 0,0 L 0,14.538000107" class="p0" fill="none" />
      <path d="M 0,232.60798645 L 0,247.145980835" class="p0" fill="none" />
      <path d="M 0,465.2159729 L 0,479.753967285" class="p0" fill="none" />
      <path d="M 25.800868988,0 L 105.622299194,0" class="p0" fill="none" />
      <path d="M 25.801000595,0 L 25.801000595,14.538000107" class="p0" fill="none" />
      <path d="M 25.801000595,232.60798645 L 25.801000595,247.145980835" class="p0" fill="none" />
      <path d="M 25.801000595,465.2159729 L 25.801000595,479.753967285" class="p0" fill="none" />
      <path d="M 105.622306824,0 L 183.024902344,0" class="p0" fill="none" />
      <path d="M 105.622001648,0 L 105.622001648,14.538000107" class="p0" fill="none" />
      <path d="M 105.622001648,232.60798645 L 105.622001648,247.145980835" class="p0" fill="none" />
      <path d="M 105.622001648,465.2159729 L 105.622001648,479.753967285" class="p0" fill="none" />
      <path d="M 183.024993896,0 L 183.024993896,14.538000107" class="p0" fill="none" />
      <path d="M 183.024993896,232.60798645 L 183.024993896,247.145980835" class="p0" fill="none" />
      <path d="M 183.024993896,465.2159729 L 183.024993896,479.753967285" class="p0" fill="none" />
      <path d="M 0,14.538000107 L 25.800868988,14.538000107" class="p0" fill="none" />
      <path d="M 0,14.538000107 L 0,29.076000214" class="p0" fill="none" />
      <path d="M 0,247.145980835 L 0,261.683990479" class="p0" fill="none" />
      <path d="M 0,479.753967285 L 0,494.29196167" class="p0" fill="none" />
      <path d="M 25.801000595,14.538000107 L 25.801000595,29.076000214" class="p0" fill="none" />
      <path d="M 25.801000595,247.145980835 L 25.801000595,261.683990479" class="p0" fill="none" />
      <path d="M 25.801000595,479.753967285 L 25.801000595,494.29196167" class="p0" fill="none" />
      <path d="M 105.622001648,14.538000107 L 105.622001648,29.076000214" class="p0" fill="none" />
      <path d="M 105.622001648,247.145980835 L 105.622001648,261.683990479" class="p0" fill="none" />
      <path d="M 105.622001648,479.753967285 L 105.622001648,494.29196167" class="p0" fill="none" />
      <path d="M 183.024993896,14.538000107 L 183.024993896,29.076000214" class="p0" fill="none" />
      <path d="M 183.024993896,247.145980835 L 183.024993896,261.683990479" class="p0" fill="none" />
      <path d="M 183.024993896,479.753967285 L 183.024993896,494.29196167" class="p0" fill="none" />
      <path d="M 0,29.076000214 L 25.800868988,29.076000214" class="p0" fill="none" />
      <path d="M 0,494.291992188 L 25.800868988,494.291992188" class="p0" fill="none" />
      <path d="M 0,29.076000214 L 0,43.613998413" class="p0" fill="none" />
      <path d="M 0,261.683990479 L 0,276.221984863" class="p0" fill="none" />
      <path d="M 0,494.291992188 L 0,508.829986572" class="p0" fill="none" />
      <path d="M 25.800868988,29.076000214 L 105.622299194,29.076000214" class="p0" fill="none" />
      <path d="M 25.800868988,494.291992188 L 105.622299194,494.291992188" class="p0" fill="none" />
      <path d="M 25.801000595,29.076000214 L 25.801000595,43.613998413" class="p0" fill="none" />
      <path d="M 25.801000595,261.683990479 L 25.801000595,276.221984863" class="p0" fill="none" />
      <path d="M 25.801000595,494.291992188 L 25.801000595,508.829986572" class="p0" fill="none" />
      <path d="M 105.622306824,29.076000214 L 183.024902344,29.076000214" class="p0" fill="none" />
      <path d="M 105.622306824,494.291992188 L 183.024902344,494.291992188" class="p0" fill="none" />
      <path d="M 105.622001648,29.076000214 L 105.622001648,43.613998413" class="p0" fill="none" />
      <path d="M 105.622001648,261.683990479 L 105.622001648,276.221984863" class="p0" fill="none" />
      <path d="M 105.622001648,494.291992188 L 105.622001648,508.829986572" class="p0" fill="none" />
      <path d="M 183.024993896,29.076000214 L 183.024993896,43.613998413" class="p0" fill="none" />
      <path d="M 183.024993896,261.683990479 L 183.024993896,276.221984863" class="p0" fill="none" />
      <path d="M 183.024993896,494.291992188 L 183.024993896,508.829986572" class="p0" fill="none" />
      <path d="M 0,43.613998413 L 0,58.152000427" class="p0" fill="none" />
      <path d="M 0,276.221984863 L 0,290.759979248" class="p0" fill="none" />
      <path d="M 0,508.829986572 L 0,523.367980957" class="p0" fill="none" />
      <path d="M 25.801000595,43.613998413 L 25.801000595,58.152000427" class="p0" fill="none" />
      <path d="M 25.801000595,276.221984863 L 25.801000595,290.759979248" class="p0" fill="none" />
      <path d="M 25.801000595,508.829986572 L 25.801000595,523.367980957" class="p0" fill="none" />
      <path d="M 105.622001648,43.613998413 L 105.622001648,58.152000427" class="p0" fill="none" />
      <path d="M 105.622001648,276.221984863 L 105.622001648,290.759979248" class="p0" fill="none" />
      <path d="M 105.622001648,508.829986572 L 105.622001648,523.367980957" class="p0" fill="none" />
      <path d="M 183.024993896,43.613998413 L 183.024993896,58.152000427" class="p0" fill="none" />
      <path d="M 183.024993896,276.221984863 L 183.024993896,290.759979248" class="p0" fill="none" />
      <path d="M 183.024993896,508.829986572 L 183.024993896,523.367980957" class="p0" fill="none" />
      <path d="M 0,290.760009766 L 25.800868988,290.760009766" class="p0" fill="none" />
      <path d="M 0,58.152000427 L 0,72.690002441" class="p0" fill="none" />
      <path d="M 0,290.760009766 L 0,305.29800415" class="p0" fill="none" />
      <path d="M 0,523.367980957 L 0,537.906005859" class="p0" fill="none" />
      <path d="M 25.800868988,290.760009766 L 105.622299194,290.760009766" class="p0" fill="none" />
      <path d="M 25.801000595,58.152000427 L 25.801000595,72.690002441" class="p0" fill="none" />
      <path d="M 25.801000595,290.760009766 L 25.801000595,305.29800415" class="p0" fill="none" />
      <path d="M 25.801000595,523.367980957 L 25.801000595,537.906005859" class="p0" fill="none" />
      <path d="M 105.622306824,290.760009766 L 183.024902344,290.760009766" class="p0" fill="none" />
      <path d="M 105.622001648,58.152000427 L 105.622001648,72.690002441" class="p0" fill="none" />
      <path d="M 105.622001648,290.760009766 L 105.622001648,305.29800415" class="p0" fill="none" />
      <path d="M 105.622001648,523.367980957 L 105.622001648,537.906005859" class="p0" fill="none" />
      <path d="M 183.024993896,58.152000427 L 183.024993896,72.690002441" class="p0" fill="none" />
      <path d="M 183.024993896,290.760009766 L 183.024993896,305.29800415" class="p0" fill="none" />
      <path d="M 183.024993896,523.367980957 L 183.024993896,537.906005859" class="p0" fill="none" />
      <path d="M 0,72.690002441 L 0,87.228004456" class="p0" fill="none" />
      <path d="M 0,305.29800415 L 0,319.835998535" class="p0" fill="none" />
      <path d="M 0,537.906005859 L 0,552.444030762" class="p0" fill="none" />
      <path d="M 25.801000595,72.690002441 L 25.801000595,87.228004456" class="p0" fill="none" />
      <path d="M 25.801000595,305.29800415 L 25.801000595,319.835998535" class="p0" fill="none" />
      <path d="M 25.801000595,537.906005859 L 25.801000595,552.444030762" class="p0" fill="none" />
      <path d="M 105.622001648,72.690002441 L 105.622001648,87.228004456" class="p0" fill="none" />
      <path d="M 105.622001648,305.29800415 L 105.622001648,319.835998535" class="p0" fill="none" />
      <path d="M 105.622001648,537.906005859 L 105.622001648,552.444030762" class="p0" fill="none" />
      <path d="M 183.024993896,72.690002441 L 183.024993896,87.228004456" class="p0" fill="none" />
      <path d="M 183.024993896,305.29800415 L 183.024993896,319.835998535" class="p0" fill="none" />
      <path d="M 183.024993896,537.906005859 L 183.024993896,552.444030762" class="p0" fill="none" />
      <path d="M 0,552.443969727 L 25.800868988,552.443969727" class="p0" fill="none" />
      <path d="M 0,87.228004456 L 0,101.76600647" class="p0" fill="none" />
      <path d="M 0,319.835998535 L 0,334.37399292" class="p0" fill="none" />
      <path d="M 0,552.444030762 L 0,566.982055664" class="p0" fill="none" />
      <path d="M 25.800868988,552.443969727 L 105.622299194,552.443969727" class="p0" fill="none" />
      <path d="M 25.801000595,87.228004456 L 25.801000595,101.76600647" class="p0" fill="none" />
      <path d="M 25.801000595,319.835998535 L 25.801000595,334.37399292" class="p0" fill="none" />
      <path d="M 25.801000595,552.444030762 L 25.801000595,566.982055664" class="p0" fill="none" />
      <path d="M 105.622306824,552.443969727 L 183.024902344,552.443969727" class="p0" fill="none" />
      <path d="M 105.622001648,87.228004456 L 105.622001648,101.76600647" class="p0" fill="none" />
      <path d="M 105.622001648,319.835998535 L 105.622001648,334.37399292" class="p0" fill="none" />
      <path d="M 105.622001648,552.444030762 L 105.622001648,566.982055664" class="p0" fill="none" />
      <path d="M 183.024993896,87.228004456 L 183.024993896,101.76600647" class="p0" fill="none" />
      <path d="M 183.024993896,319.835998535 L 183.024993896,334.37399292" class="p0" fill="none" />
      <path d="M 183.024993896,552.444030762 L 183.024993896,566.982055664" class="p0" fill="none" />
      <path d="M 0,566.981994629 L 25.800868988,566.981994629" class="p0" fill="none" />
      <path d="M 0,101.76600647 L 0,116.304008484" class="p0" fill="none" />
      <path d="M 0,334.37399292 L 0,348.911987305" class="p0" fill="none" />
      <path d="M 0,566.981994629 L 0,581.520019531" class="p0" fill="none" />
      <path d="M 25.800868988,566.981994629 L 105.622299194,566.981994629" class="p0" fill="none" />
      <path d="M 25.801000595,101.76600647 L 25.801000595,116.304008484" class="p0" fill="none" />
      <path d="M 25.801000595,334.37399292 L 25.801000595,348.911987305" class="p0" fill="none" />
      <path d="M 25.801000595,566.981994629 L 25.801000595,581.520019531" class="p0" fill="none" />
      <path d="M 105.622306824,566.981994629 L 183.024902344,566.981994629" class="p0" fill="none" />
      <path d="M 105.622001648,101.76600647 L 105.622001648,116.304008484" class="p0" fill="none" />
      <path d="M 105.622001648,334.37399292 L 105.622001648,348.911987305" class="p0" fill="none" />
      <path d="M 105.622001648,566.981994629 L 105.622001648,581.520019531" class="p0" fill="none" />
      <path d="M 183.024993896,101.76600647 L 183.024993896,116.304008484" class="p0" fill="none" />
      <path d="M 183.024993896,334.37399292 L 183.024993896,348.911987305" class="p0" fill="none" />
      <path d="M 183.024993896,566.981994629 L 183.024993896,581.520019531" class="p0" fill="none" />
      <path d="M 0,116.304000854 L 25.800868988,116.304000854" class="p0" fill="none" />
      <path d="M 0,116.304000854 L 0,130.841995239" class="p0" fill="none" />
      <path d="M 0,348.911987305 L 0,363.449981689" class="p0" fill="none" />
      <path d="M 0,581.520019531 L 0,596.058044434" class="p0" fill="none" />
      <path d="M 25.800868988,116.304000854 L 105.622299194,116.304000854" class="p0" fill="none" />
      <path d="M 25.801000595,116.304000854 L 25.801000595,130.841995239" class="p0" fill="none" />
      <path d="M 25.801000595,348.911987305 L 25.801000595,363.449981689" class="p0" fill="none" />
      <path d="M 25.801000595,581.520019531 L 25.801000595,596.058044434" class="p0" fill="none" />
      <path d="M 105.622306824,116.304000854 L 183.024902344,116.304000854" class="p0" fill="none" />
      <path d="M 105.622001648,116.304000854 L 105.622001648,130.841995239" class="p0" fill="none" />
      <path d="M 105.622001648,348.911987305 L 105.622001648,363.449981689" class="p0" fill="none" />
      <path d="M 105.622001648,581.520019531 L 105.622001648,596.058044434" class="p0" fill="none" />
      <path d="M 183.024993896,116.304000854 L 183.024993896,130.841995239" class="p0" fill="none" />
      <path d="M 183.024993896,348.911987305 L 183.024993896,363.449981689" class="p0" fill="none" />
      <path d="M 183.024993896,581.520019531 L 183.024993896,596.058044434" class="p0" fill="none" />
      <path d="M 0,363.450012207 L 25.800868988,363.450012207" class="p0" fill="none" />
      <path d="M 0,130.841995239 L 0,145.379989624" class="p0" fill="none" />
      <path d="M 0,363.450012207 L 0,377.988006592" class="p0" fill="none" />
      <path d="M 0,596.058044434 L 0,610.596069336" class="p0" fill="none" />
      <path d="M 25.800868988,363.450012207 L 105.622299194,363.450012207" class="p0" fill="none" />
      <path d="M 25.801000595,130.841995239 L 25.801000595,145.379989624" class="p0" fill="none" />
      <path d="M 25.801000595,363.450012207 L 25.801000595,377.988006592" class="p0" fill="none" />
      <path d="M 25.801000595,596.058044434 L 25.801000595,610.596069336" class="p0" fill="none" />
      <path d="M 105.622306824,363.450012207 L 183.024902344,363.450012207" class="p0" fill="none" />
      <path d="M 105.622001648,130.841995239 L 105.622001648,145.379989624" class="p0" fill="none" />
      <path d="M 105.622001648,363.450012207 L 105.622001648,377.988006592" class="p0" fill="none" />
      <path d="M 105.622001648,596.058044434 L 105.622001648,610.596069336" class="p0" fill="none" />
      <path d="M 183.024993896,130.841995239 L 183.024993896,145.379989624" class="p0" fill="none" />
      <path d="M 183.024993896,363.450012207 L 183.024993896,377.988006592" class="p0" fill="none" />
      <path d="M 183.024993896,596.058044434 L 183.024993896,610.596069336" class="p0" fill="none" />
      <path d="M 0,145.379989624 L 0,159.917984009" class="p0" fill="none" />
      <path d="M 0,377.988006592 L 0,392.526000977" class="p0" fill="none" />
      <path d="M 0,610.596069336 L 0,625.134094238" class="p0" fill="none" />
      <path d="M 25.801000595,145.379989624 L 25.801000595,159.917984009" class="p0" fill="none" />
      <path d="M 25.801000595,377.988006592 L 25.801000595,392.526000977" class="p0" fill="none" />
      <path d="M 25.801000595,610.596069336 L 25.801000595,625.134094238" class="p0" fill="none" />
      <path d="M 105.622001648,145.379989624 L 105.622001648,159.917984009" class="p0" fill="none" />
      <path d="M 105.622001648,377.988006592 L 105.622001648,392.526000977" class="p0" fill="none" />
      <path d="M 105.622001648,610.596069336 L 105.622001648,625.134094238" class="p0" fill="none" />
      <path d="M 183.024993896,145.379989624 L 183.024993896,159.917984009" class="p0" fill="none" />
      <path d="M 183.024993896,377.988006592 L 183.024993896,392.526000977" class="p0" fill="none" />
      <path d="M 183.024993896,610.596069336 L 183.024993896,625.134094238" class="p0" fill="none" />
      <path d="M 0,159.917984009 L 0,174.455978394" class="p0" fill="none" />
      <path d="M 0,392.526000977 L 0,407.063995361" class="p0" fill="none" />
      <path d="M 0,625.134094238 L 0,639.672119141" class="p0" fill="none" />
      <path d="M 25.801000595,159.917984009 L 25.801000595,174.455978394" class="p0" fill="none" />
      <path d="M 25.801000595,392.526000977 L 25.801000595,407.063995361" class="p0" fill="none" />
      <path d="M 25.801000595,625.134094238 L 25.801000595,639.672119141" class="p0" fill="none" />
      <path d="M 105.622001648,159.917984009 L 105.622001648,174.455978394" class="p0" fill="none" />
      <path d="M 105.622001648,392.526000977 L 105.622001648,407.063995361" class="p0" fill="none" />
      <path d="M 105.622001648,625.134094238 L 105.622001648,639.672119141" class="p0" fill="none" />
      <path d="M 183.024993896,159.917984009 L 183.024993896,174.455978394" class="p0" fill="none" />
      <path d="M 183.024993896,392.526000977 L 183.024993896,407.063995361" class="p0" fill="none" />
      <path d="M 183.024993896,625.134094238 L 183.024993896,639.672119141" class="p0" fill="none" />
      <path d="M 0,174.455978394 L 0,188.993972778" class="p0" fill="none" />
      <path d="M 0,407.063995361 L 0,421.601989746" class="p0" fill="none" />
      <path d="M 0,639.672119141 L 0,654.210144043" class="p0" fill="none" />
      <path d="M 25.801000595,174.455978394 L 25.801000595,188.993972778" class="p0" fill="none" />
      <path d="M 25.801000595,407.063995361 L 25.801000595,421.601989746" class="p0" fill="none" />
      <path d="M 25.801000595,639.672119141 L 25.801000595,654.210144043" class="p0" fill="none" />
      <path d="M 105.622001648,174.455978394 L 105.622001648,188.993972778" class="p0" fill="none" />
      <path d="M 105.622001648,407.063995361 L 105.622001648,421.601989746" class="p0" fill="none" />
      <path d="M 105.622001648,639.672119141 L 105.622001648,654.210144043" class="p0" fill="none" />
      <path d="M 183.024993896,174.455978394 L 183.024993896,188.993972778" class="p0" fill="none" />
      <path d="M 183.024993896,407.063995361 L 183.024993896,421.601989746" class="p0" fill="none" />
      <path d="M 183.024993896,639.672119141 L 183.024993896,654.210144043" class="p0" fill="none" />
      <path d="M 0,421.601989746 L 25.800868988,421.601989746" class="p0" fill="none" />
      <path d="M 0,654.210021973 L 25.800868988,654.210021973" class="p0" fill="none" />
      <path d="M 0,188.993972778 L 0,203.531967163" class="p0" fill="none" />
      <path d="M 0,421.601989746 L 0,436.139984131" class="p0" fill="none" />
      <path d="M 0,654.210021973 L 0,668.748046875" class="p0" fill="none" />
      <path d="M 25.800868988,421.601989746 L 105.622299194,421.601989746" class="p0" fill="none" />
      <path d="M 25.800868988,654.210021973 L 105.622299194,654.210021973" class="p0" fill="none" />
      <path d="M 25.801000595,188.993972778 L 25.801000595,203.531967163" class="p0" fill="none" />
      <path d="M 25.801000595,421.601989746 L 25.801000595,436.139984131" class="p0" fill="none" />
      <path d="M 25.801000595,654.210021973 L 25.801000595,668.748046875" class="p0" fill="none" />
      <path d="M 105.622306824,421.601989746 L 183.024902344,421.601989746" class="p0" fill="none" />
      <path d="M 105.622306824,654.210021973 L 183.024902344,654.210021973" class="p0" fill="none" />
      <path d="M 105.622001648,188.993972778 L 105.622001648,203.531967163" class="p0" fill="none" />
      <path d="M 105.622001648,421.601989746 L 105.622001648,436.139984131" class="p0" fill="none" />
      <path d="M 105.622001648,654.210021973 L 105.622001648,668.748046875" class="p0" fill="none" />
      <path d="M 183.024993896,188.993972778 L 183.024993896,203.531967163" class="p0" fill="none" />
      <path d="M 183.024993896,421.601989746 L 183.024993896,436.139984131" class="p0" fill="none" />
      <path d="M 183.024993896,654.210021973 L 183.024993896,668.748046875" class="p0" fill="none" />
      <path d="M 0,203.531997681 L 25.800868988,203.531997681" class="p0" fill="none" />
      <path d="M 0,203.531997681 L 0,218.069992065" class="p0" fill="none" />
      <path d="M 0,436.139984131 L 0,450.677978516" class="p0" fill="none" />
      <path d="M 0,668.748046875 L 0,683.286071777" class="p0" fill="none" />
      <path d="M 25.800868988,203.531997681 L 105.622299194,203.531997681" class="p0" fill="none" />
      <path d="M 25.801000595,203.531997681 L 25.801000595,218.069992065" class="p0" fill="none" />
      <path d="M 25.801000595,436.139984131 L 25.801000595,450.677978516" class="p0" fill="none" />
      <path d="M 25.801000595,668.748046875 L 25.801000595,683.286071777" class="p0" fill="none" />
      <path d="M 105.622306824,203.531997681 L 183.024902344,203.531997681" class="p0" fill="none" />
      <path d="M 105.622001648,203.531997681 L 105.622001648,218.069992065" class="p0" fill="none" />
      <path d="M 105.622001648,436.139984131 L 105.622001648,450.677978516" class="p0" fill="none" />
      <path d="M 105.622001648,668.748046875 L 105.622001648,683.286071777" class="p0" fill="none" />
      <path d="M 183.024993896,203.531997681 L 183.024993896,218.069992065" class="p0" fill="none" />
      <path d="M 183.024993896,436.139984131 L 183.024993896,450.677978516" class="p0" fill="none" />
      <path d="M 183.024993896,668.748046875 L 183.024993896,683.286071777" class="p0" fill="none" />
      <path d="M 0,218.069992065 L 0,232.60798645" class="p0" fill="none" />
      <path d="M 0,450.677978516 L 0,465.2159729" class="p0" fill="none" />
      <path d="M 25.801000595,218.069992065 L 25.801000595,232.60798645" class="p0" fill="none" />
      <path d="M 25.801000595,450.677978516 L 25.801000595,465.2159729" class="p0" fill="none" />
      <path d="M 105.622001648,218.069992065 L 105.622001648,232.60798645" class="p0" fill="none" />
      <path d="M 105.622001648,450.677978516 L 105.622001648,465.2159729" class="p0" fill="none" />
      <path d="M 183.024993896,218.069992065 L 183.024993896,232.60798645" class="p0" fill="none" />
      <path d="M 183.024993896,450.677978516 L 183.024993896,465.2159729" class="p0" fill="none" />
     </g>
    </g>
    <defs>
     <clipPath id="CLIP2">
      <path d="M-0.5,-0.5 L184.5,-0.5 L184.5,684.5 L-0.5,684.5 Z " />
     </clipPath>
    </defs>
    <g clip-path="url(#CLIP2)">
     <g>
      <defs>
       <clipPath id="CLIP3">
        <path d="M0.25,0.25 L25.550868988,0.25 L25.550868988,14.288000107 L0.25,14.288000107 Z " />
       </clipPath>
      </defs>
      <g clip-path="url(#CLIP3)">
       <g>
        <g transform="matrix(1,0,0,1,1.075036168,28.106800079)">
         <text x="1" y="-17.30878067" class="f0">省</text>
         <text x="1" y="-2.770781279" class="f0">份</text>
        </g>
       </g>
      </g>
      <defs>
       <clipPath id="CLIP4">
        <path d="M26.050868988,0.25 L105.372299194,0.25 L105.372299194,28.826000214 L26.050868988,28.826000214 Z " />
       </clipPath>
      </defs>
      <g clip-path="url(#CLIP4)">
       <g>
        <g transform="matrix(1,0,0,1,26.875905991,28.106800079)">
         <text x="1" y="-17.30878067" class="f1">2</text>
         <text x="6.595468521" y="-17.30878067" class="f1">0</text>
         <text x="12.190937042" y="-17.30878067" class="f1">2</text>
         <text x="17.786405563" y="-17.30878067" class="f1">1</text>
         <text x="23.381874084" y="-17.30878067" class="f0">年</text>
         <text x="34.421875" y="-17.30878067" class="f0">固</text>
         <text x="45.461875916" y="-17.30878067" class="f0">定</text>
         <text x="56.501876831" y="-17.30878067" class="f0">量</text>
         <text x="1" y="-2.770781279" class="f0">产</text>
         <text x="12.039999962" y="-2.770781279" class="f0">投</text>
         <text x="23.079999924" y="-2.770781279" class="f0">资</text>
         <text x="34.119998932" y="-2.770781279" class="f0">增</text>
         <text x="45.159999847" y="-2.770781279" class="f0">速</text>
        </g>
       </g>
      </g>
      <defs>
       <clipPath id="CLIP5">
        <path d="M105.872306824,0.25 L182.774902344,0.25 L182.774902344,28.826000214 L105.872306824,28.826000214 Z " />
       </clipPath>
      </defs>
      <g clip-path="url(#CLIP5)">
       <g>
        <g transform="matrix(1,0,0,1,106.697341919,42.644798279)">
         <text x="1" y="-31.846780777" class="f1">2</text>
         <text x="6.595468521" y="-31.846780777" class="f1">0</text>
         <text x="12.190937042" y="-31.846780777" class="f1">2</text>
         <text x="17.786405563" y="-31.846780777" class="f1">2</text>
         <text x="23.381874084" y="-31.846780777" class="f0">年</text>
         <text x="34.421875" y="-31.846780777" class="f0">固</text>
         <text x="45.461875916" y="-31.846780777" class="f0">定</text>
         <text x="56.501876831" y="-31.846780777" class="f0">责</text>
         <text x="1" y="-17.30878067" class="f0">产</text>
         <text x="12.039999962" y="-17.30878067" class="f0">投</text>
         <text x="23.079999924" y="-17.30878067" class="f0">资</text>
         <text x="34.119998932" y="-17.30878067" class="f0">增</text>
         <text x="45.159999847" y="-17.30878067" class="f0">速</text>
         <text x="56.200000763" y="-17.30878067" class="f0">目</text>
         <text x="1" y="-2.770781279" class="f0">标</text>
        </g>
       </g>
      </g>
      <defs>
       <clipPath id="CLIP6">
        <path d="M0.25,29.326000214 L25.550868988,29.326000214 L25.550868988,116.054000854 L0.25,116.054000854 Z " />
       </clipPath>
      </defs>
      <g clip-path="url(#CLIP6)">
       <g>
        <g transform="matrix(1,0,0,1,1.075036168,86.258804321)">
         <text x="1" y="-17.30878067" class="f0">安</text>
         <text x="1" y="-2.770781279" class="f0">徽</text>
        </g>
       </g>
      </g>
      <defs>
       <clipPath id="CLIP7">
        <path d="M26.050868988,29.326000214 L105.372299194,29.326000214 L105.372299194,116.054000854 L26.050868988,116.054000854 Z " />
       </clipPath>
      </defs>
      <g clip-path="url(#CLIP7)">
       <g>
        <g transform="matrix(1,0,0,1,26.875905991,78.989807129)">
         <text x="1" y="-2.75999999" class="f1">9.40%</text>
        </g>
       </g>
      </g>
      <defs>
       <clipPath id="CLIP8">
        <path d="M105.872306824,29.326000214 L182.774902344,29.326000214 L182.774902344,116.054000854 L105.872306824,116.054000854 Z " />
       </clipPath>
      </defs>
      <g clip-path="url(#CLIP8)">
       <g>
        <g transform="matrix(1,0,0,1,106.697341919,78.989807129)">
         <text x="1" y="-2.770781279" class="f1">1</text>
         <text x="6.595468521" y="-2.770781279" class="f1">0</text>
         <text x="12.190937042" y="-2.770781279" class="f1">%</text>
         <text x="20.082811356" y="-2.770781279" class="f0">以</text>
         <text x="31.122810364" y="-2.770781279" class="f0">上</text>
        </g>
       </g>
      </g>
      <defs>
       <clipPath id="CLIP9">
        <path d="M0.25,116.554000854 L25.550868988,116.554000854 L25.550868988,203.282012939 L0.25,203.282012939 Z " />
       </clipPath>
      </defs>
      <g clip-path="url(#CLIP9)">
       <g>
        <g transform="matrix(1,0,0,1,1.075036168,173.486816406)">
         <text x="1" y="-17.30878067" class="f0">辽</text>
         <text x="1" y="-2.770781279" class="f0">宁</text>
        </g>
       </g>
      </g>
      <defs>
       <clipPath id="CLIP10">
        <path d="M26.050868988,116.554000854 L105.372299194,116.554000854 L105.372299194,203.282012939 L26.050868988,203.282012939 Z " />
       </clipPath>
      </defs>
      <g clip-path="url(#CLIP10)">
       <g>
        <g transform="matrix(1,0,0,1,26.875905991,166.217803955)">
         <text x="1" y="-2.75999999" class="f1">2.60%</text>
        </g>
       </g>
      </g>
      <defs>
       <clipPath id="CLIP11">
        <path d="M105.872306824,116.554000854 L182.774902344,116.554000854 L182.774902344,203.282012939 L105.872306824,203.282012939 Z " />
       </clipPath>
      </defs>
      <g clip-path="url(#CLIP11)">
       <g>
        <g transform="matrix(1,0,0,1,106.697341919,166.217803955)">
         <text x="1" y="-2.770781279" class="f1">1</text>
         <text x="6.595468521" y="-2.770781279" class="f1">0</text>
         <text x="12.190937042" y="-2.770781279" class="f1">%</text>
         <text x="20.082811356" y="-2.770781279" class="f0">左</text>
         <text x="31.122810364" y="-2.770781279" class="f0">右</text>
        </g>
       </g>
      </g>
      <defs>
       <clipPath id="CLIP12">
        <path d="M0.25,203.781997681 L25.550868988,203.781997681 L25.550868988,290.510009766 L0.25,290.510009766 Z " />
       </clipPath>
      </defs>
      <g clip-path="url(#CLIP12)">
       <g>
        <g transform="matrix(1,0,0,1,1.075036168,260.714813232)">
         <text x="1" y="-17.30878067" class="f0">寸</text>
         <text x="1" y="-2.770781279" class="f0">肃</text>
        </g>
       </g>
      </g>
      <defs>
       <clipPath id="CLIP13">
        <path d="M26.050868988,203.781997681 L105.372299194,203.781997681 L105.372299194,290.510009766 L26.050868988,290.510009766 Z " />
       </clipPath>
      </defs>
      <g clip-path="url(#CLIP13)">
       <g>
        <g transform="matrix(1,0,0,1,26.875905991,253.445800781)">
         <text x="1" y="-2.75999999" class="f1">11.10%</text>
        </g>
       </g>
      </g>
      <defs>
       <clipPath id="CLIP14">
        <path d="M105.872306824,203.781997681 L182.774902344,203.781997681 L182.774902344,290.510009766 L105.872306824,290.510009766 Z " />
       </clipPath>
      </defs>
      <g clip-path="url(#CLIP14)">
       <g>
        <g transform="matrix(1,0,0,1,106.697341919,253.445800781)">
         <text x="1" y="-2.75999999" class="f1">9%</text>
        </g>
       </g>
      </g>
      <defs>
       <clipPath id="CLIP15">
        <path d="M0.25,291.010009766 L25.550868988,291.010009766 L25.550868988,363.200012207 L0.25,363.200012207 Z " />
       </clipPath>
      </defs>
      <g clip-path="url(#CLIP15)">
       <g>
        <g transform="matrix(1,0,0,1,1.075036168,340.673797607)">
         <text x="1" y="-17.30878067" class="f0">湖</text>
         <text x="1" y="-2.770781279" class="f0">南</text>
        </g>
       </g>
      </g>
      <defs>
       <clipPath id="CLIP16">
        <path d="M26.050868988,291.010009766 L105.372299194,291.010009766 L105.372299194,363.200012207 L26.050868988,363.200012207 Z " />
       </clipPath>
      </defs>
      <g clip-path="url(#CLIP16)">
       <g>
        <g transform="matrix(1,0,0,1,26.875905991,333.404785156)">
         <text x="1" y="-2.75999999" class="f1">8%</text>
        </g>
       </g>
      </g>
      <defs>
       <clipPath id="CLIP17">
        <path d="M105.872306824,291.010009766 L182.774902344,291.010009766 L182.774902344,363.200012207 L105.872306824,363.200012207 Z " />
       </clipPath>
      </defs>
      <g clip-path="url(#CLIP17)">
       <g>
        <g transform="matrix(1,0,0,1,106.697341919,333.404785156)">
         <text x="1" y="-2.75999999" class="f1">7.50%</text>
        </g>
       </g>
      </g>
      <defs>
       <clipPath id="CLIP18">
        <path d="M0.25,363.700012207 L25.550868988,363.700012207 L25.550868988,421.352020264 L0.25,421.352020264 Z " />
       </clipPath>
      </defs>
      <g clip-path="url(#CLIP18)">
       <g>
        <g transform="matrix(1,0,0,1,1.075036168,406.094787598)">
         <text x="1" y="-17.30878067" class="f0">重</text>
         <text x="1" y="-2.770781279" class="f0">庆</text>
        </g>
       </g>
      </g>
      <defs>
       <clipPath id="CLIP19">
        <path d="M26.050868988,363.700012207 L105.372299194,363.700012207 L105.372299194,421.352020264 L26.050868988,421.352020264 Z " />
       </clipPath>
      </defs>
      <g clip-path="url(#CLIP19)">
       <g>
        <g transform="matrix(1,0,0,1,26.875905991,398.825805664)">
         <text x="1" y="-2.75999999" class="f1">6.10%</text>
        </g>
       </g>
      </g>
      <defs>
       <clipPath id="CLIP20">
        <path d="M105.872306824,363.700012207 L182.774902344,363.700012207 L182.774902344,421.352020264 L105.872306824,421.352020264 Z " />
       </clipPath>
      </defs>
      <g clip-path="url(#CLIP20)">
       <g>
        <g transform="matrix(1,0,0,1,106.697341919,398.825805664)">
         <text x="1" y="-2.75999999" class="f1">6%</text>
        </g>
       </g>
      </g>
      <defs>
       <clipPath id="CLIP21">
        <path d="M0.25,421.851989746 L25.550868988,421.851989746 L25.550868988,494.041992188 L0.25,494.041992188 Z " />
       </clipPath>
      </defs>
      <g clip-path="url(#CLIP21)">
       <g>
        <g transform="matrix(1,0,0,1,1.075036168,471.515777588)">
         <text x="1" y="-17.30878067" class="f0">江</text>
         <text x="1" y="-2.770781279" class="f0">西</text>
        </g>
       </g>
      </g>
      <defs>
       <clipPath id="CLIP22">
        <path d="M26.050868988,421.851989746 L105.372299194,421.851989746 L105.372299194,494.041992188 L26.050868988,494.041992188 Z " />
       </clipPath>
      </defs>
      <g clip-path="url(#CLIP22)">
       <g>
        <g transform="matrix(1,0,0,1,26.875905991,464.246765137)">
         <text x="1" y="-2.75999999" class="f1">10.80%</text>
        </g>
       </g>
      </g>
      <defs>
       <clipPath id="CLIP23">
        <path d="M105.872306824,421.851989746 L182.774902344,421.851989746 L182.774902344,494.041992188 L105.872306824,494.041992188 Z " />
       </clipPath>
      </defs>
      <g clip-path="url(#CLIP23)">
       <g>
        <g transform="matrix(1,0,0,1,106.697341919,464.246765137)">
         <text x="1" y="-2.770781279" class="f1">8</text>
         <text x="6.595468521" y="-2.770781279" class="f1">%</text>
         <text x="14.487342834" y="-2.770781279" class="f0">以</text>
         <text x="25.52734375" y="-2.770781279" class="f0">上</text>
        </g>
       </g>
      </g>
      <defs>
       <clipPath id="CLIP24">
        <path d="M0.25,494.541992188 L25.550868988,494.541992188 L25.550868988,552.193969727 L0.25,552.193969727 Z " />
       </clipPath>
      </defs>
      <g clip-path="url(#CLIP24)">
       <g>
        <g transform="matrix(1,0,0,1,1.075036168,536.936767578)">
         <text x="1" y="-17.30878067" class="f0">广</text>
         <text x="1" y="-2.770781279" class="f0">西</text>
        </g>
       </g>
      </g>
      <defs>
       <clipPath id="CLIP25">
        <path d="M26.050868988,494.541992188 L105.372299194,494.541992188 L105.372299194,552.193969727 L26.050868988,552.193969727 Z " />
       </clipPath>
      </defs>
      <g clip-path="url(#CLIP25)">
       <g>
        <g transform="matrix(1,0,0,1,26.875905991,529.66784668)">
         <text x="1" y="-2.75999999" class="f1">7.60%</text>
        </g>
       </g>
      </g>
      <defs>
       <clipPath id="CLIP26">
        <path d="M105.872306824,494.541992188 L182.774902344,494.541992188 L182.774902344,552.193969727 L105.872306824,552.193969727 Z " />
       </clipPath>
      </defs>
      <g clip-path="url(#CLIP26)">
       <g>
        <g transform="matrix(1,0,0,1,106.697341919,529.66784668)">
         <text x="1" y="-2.75999999" class="f1">10%</text>
        </g>
       </g>
      </g>
      <defs>
       <clipPath id="CLIP27">
        <path d="M0.25,567.231994629 L25.550868988,567.231994629 L25.550868988,653.960021973 L0.25,653.960021973 Z " />
       </clipPath>
      </defs>
      <g clip-path="url(#CLIP27)">
       <g>
        <g transform="matrix(1,0,0,1,1.075036168,624.164794922)">
         <text x="1" y="-17.30878067" class="f0">广</text>
         <text x="1" y="-2.770781279" class="f0">东</text>
        </g>
       </g>
      </g>
      <defs>
       <clipPath id="CLIP28">
        <path d="M26.050868988,567.231994629 L105.372299194,567.231994629 L105.372299194,653.960021973 L26.050868988,653.960021973 Z " />
       </clipPath>
      </defs>
      <g clip-path="url(#CLIP28)">
       <g>
        <g transform="matrix(1,0,0,1,26.875905991,616.895874023)">
         <text x="1" y="-2.75999999" class="f1">6.30%</text>
        </g>
       </g>
      </g>
      <defs>
       <clipPath id="CLIP29">
        <path d="M105.872306824,567.231994629 L182.774902344,567.231994629 L182.774902344,653.960021973 L105.872306824,653.960021973 Z " />
       </clipPath>
      </defs>
      <g clip-path="url(#CLIP29)">
       <g>
        <g transform="matrix(1,0,0,1,106.697341919,616.895874023)">
         <text x="1" y="-2.75999999" class="f1">8%</text>
        </g>
       </g>
      </g>
      <defs>
       <clipPath id="CLIP30">
        <path d="M0.25,654.460021973 L25.550868988,654.460021973 L25.550868988,726.650024414 L0.25,726.650024414 Z " />
       </clipPath>
      </defs>
      <g clip-path="url(#CLIP30)">
       <g>
        <g transform="matrix(1,0,0,1,1.075036168,704.123840332)">
         <text x="1" y="-17.30878067" class="f0">新</text>
         <text x="1" y="-2.770781279" class="f0">疆</text>
        </g>
       </g>
      </g>
      <defs>
       <clipPath id="CLIP31">
        <path d="M26.050868988,654.460021973 L105.372299194,654.460021973 L105.372299194,726.650024414 L26.050868988,726.650024414 Z " />
       </clipPath>
      </defs>
      <g clip-path="url(#CLIP31)">
       <g>
        <g transform="matrix(1,0,0,1,26.875905991,696.854858398)">
         <text x="1" y="-2.75999999" class="f1">15%</text>
        </g>
       </g>
      </g>
      <defs>
       <clipPath id="CLIP32">
        <path d="M105.872306824,654.460021973 L182.774902344,654.460021973 L182.774902344,726.650024414 L105.872306824,726.650024414 Z " />
       </clipPath>
      </defs>
      <g clip-path="url(#CLIP32)">
       <g>
        <g transform="matrix(1,0,0,1,106.697341919,696.854858398)">
         <text x="1" y="-2.770781279" class="f1">1</text>
         <text x="6.595468521" y="-2.770781279" class="f1">0</text>
         <text x="12.190937042" y="-2.770781279" class="f1">%</text>
         <text x="20.082811356" y="-2.770781279" class="f0">左</text>
         <text x="31.122810364" y="-2.770781279" class="f0">右</text>
        </g>
       </g>
      </g>
     </g>
    </g>
    <defs>
     <clipPath id="CLIP33">
      <path d="M-0.5,-0.5 L184.5,-0.5 L184.5,684.5 L-0.5,684.5 Z " />
     </clipPath>
    </defs>
    <g clip-path="url(#CLIP33)">
     <g />
    </g>
   </g>
   <g />
   <g />
   <g />
   <g>
    <g>
     <g />
     <g shape-rendering="crispEdges" />
    </g>
    <g>
     <g />
    </g>
    <g>
     <g />
    </g>
   </g>
   <g>
    <text x="10" y="10" class="f2">Evaluation Only. Created with Aspose.Cells for Python via Java.Copyright 2003 - 2023 Aspose Pty Ltd.</text>
   </g>
  </g>
 </g>
 <defs />
 <defs>
  <style type="text/css">
   <![CDATA[
   
.f0
{
font-family:Microsoft YaHei Light;
font-size:11.039999962px;
fill:#000000;
}

.f1
{
font-family:Calibri;
font-size:11.039999962px;
fill:#000000;
}

.f2
{
font-family:Arial;
font-size:10px;
fill:#FF0000;
}

   
.p0
{
stroke:#FF0000;
stroke-width:2.907599926px;
stroke-linecap:butt;
stroke-linejoin:miter;
}

   ]]></style>
 </defs>
</svg>
