<?xml version="1.0" encoding="UTF-8" standalone="yes"?>
<svg xmlns="http://www.w3.org/2000/svg" xmlns:xlink="http://www.w3.org/1999/xlink" width="612pt" height="792pt">
 <g id="SFixTitle" />
 <g id="SContent">
  <g transform="scale(1.33333)">
   <rect width="100%" height="100%" fill="white" />
   <g>
    <g>
     <g />
     <g shape-rendering="crispEdges" />
    </g>
    <g>
     <g />
    </g>
    <g>
     <g />
    </g>
   </g>
   <g transform="matrix(1,0,0,1,50.400001526,54)">
    <defs>
     <clipPath id="CLIP0">
      <path d="M-0.5,-0.5 L512.5,-0.5 L512.5,397.5 L-0.5,397.5 Z " />
     </clipPath>
    </defs>
    <g clip-path="url(#CLIP0)">
     <g />
     <g shape-rendering="crispEdges" />
    </g>
    <defs>
     <clipPath id="CLIP1">
      <path d="M-0.5,-1.453799963 L512.5,-1.453799963 L512.5,398.546203613 L-0.5,398.546203613 Z " />
     </clipPath>
    </defs>
    <g clip-path="url(#CLIP1)">
     <g>
      <g />
      <path d="M 0,0 L 511.1796875,0" class="p0" fill="none" />
      <path d="M 0,396.886993408 L 511.1796875,396.886993408" class="p0" fill="none" />
      <path d="M 0,0 L 0,396.887390137" class="p0" fill="none" />
      <path d="M 511.179992676,0 L 511.179992676,396.887390137" class="p0" fill="none" />
     </g>
    </g>
    <defs>
     <clipPath id="CLIP2">
      <path d="M-0.5,-0.5 L512.5,-0.5 L512.5,397.5 L-0.5,397.5 Z " />
     </clipPath>
    </defs>
    <g clip-path="url(#CLIP2)">
     <g>
      <defs>
       <clipPath id="CLIP3">
        <path d="M0.25,0.25 L510.9296875,0.25 L510.9296875,396.637420654 L0.25,396.637420654 Z " />
       </clipPath>
      </defs>
      <g clip-path="url(#CLIP3)">
       <g>
        <g transform="matrix(1,0,0,1,1.075036168,226.550506592)">
         <text x="1" y="-46.384780884" class="f0">项</text>
         <text x="12.039999962" y="-46.384780884" class="f0">目</text>
         <text x="23.079999924" y="-46.384780884" class="f0">名</text>
         <text x="34.119998932" y="-46.384780884" class="f0">称</text>
         <text x="45.159999847" y="-46.384780884" class="f1"> </text>
         <text x="47.655860901" y="-46.384780884" class="f1"> </text>
         <text x="50.151721954" y="-46.384780884" class="f1"> </text>
         <text x="52.647583008" y="-46.384780884" class="f1"> </text>
         <text x="55.143444061" y="-46.384780884" class="f1"> </text>
         <text x="57.639305115" y="-46.384780884" class="f1"> </text>
         <text x="60.135166168" y="-46.384780884" class="f1"> </text>
         <text x="62.631027222" y="-46.384780884" class="f1"> </text>
         <text x="65.12688446" y="-46.384780884" class="f1"> </text>
         <text x="67.622741699" y="-46.384780884" class="f1"> </text>
         <text x="70.118598938" y="-46.384780884" class="f0">结</text>
         <text x="81.158599854" y="-46.384780884" class="f0">果</text>
         <text x="92.198600769" y="-46.384780884" class="f1"> </text>
         <text x="94.694458008" y="-46.384780884" class="f1"> </text>
         <text x="97.190315247" y="-46.384780884" class="f1"> </text>
         <text x="99.686172485" y="-46.384780884" class="f1"> </text>
         <text x="102.182029724" y="-46.384780884" class="f0">单</text>
         <text x="113.22203064" y="-46.384780884" class="f0">位</text>
         <text x="124.262031555" y="-46.384780884" class="f1"> </text>
         <text x="126.757888794" y="-46.384780884" class="f1"> </text>
         <text x="129.253753662" y="-46.384780884" class="f1"> </text>
         <text x="131.74961853" y="-46.384780884" class="f1"> </text>
         <text x="134.245483398" y="-46.384780884" class="f0">参</text>
         <text x="145.285476685" y="-46.384780884" class="f0">考</text>
         <text x="156.325469971" y="-46.384780884" class="f0">范</text>
         <text x="167.365463257" y="-46.384780884" class="f0">围</text>
         <text x="178.405456543" y="-46.384780884" class="f0">项</text>
         <text x="189.445449829" y="-46.384780884" class="f0">目</text>
         <text x="200.485443115" y="-46.384780884" class="f0">名</text>
         <text x="211.525436401" y="-46.384780884" class="f0">称</text>
         <text x="222.565429688" y="-46.384780884" class="f0">总</text>
         <text x="233.605422974" y="-46.384780884" class="f0">蛋</text>
         <text x="244.64541626" y="-46.384780884" class="f0">白</text>
         <text x="255.685409546" y="-46.384780884" class="f1"> </text>
         <text x="258.181274414" y="-46.384780884" class="f1"> </text>
         <text x="260.677124023" y="-46.384780884" class="f1"> </text>
         <text x="263.172973633" y="-46.384780884" class="f1"> </text>
         <text x="265.668823242" y="-46.384780884" class="f1"> </text>
         <text x="268.164672852" y="-46.384780884" class="f1"> </text>
         <text x="270.660522461" y="-46.384780884" class="f1"> </text>
         <text x="273.15637207" y="-46.384780884" class="f1"> </text>
         <text x="275.65222168" y="-46.384780884" class="f1"> </text>
         <text x="278.148071289" y="-46.384780884" class="f1"> </text>
         <text x="280.643920898" y="-46.384780884" class="f1"> </text>
         <text x="283.139770508" y="-46.384780884" class="f1">7</text>
         <text x="288.735229492" y="-46.384780884" class="f1">2</text>
         <text x="294.330688477" y="-46.384780884" class="f1"> </text>
         <text x="296.826538086" y="-46.384780884" class="f1"> </text>
         <text x="299.322387695" y="-46.384780884" class="f1"> </text>
         <text x="301.818237305" y="-46.384780884" class="f1"> </text>
         <text x="304.314086914" y="-46.384780884" class="f1"> </text>
         <text x="306.809936523" y="-46.384780884" class="f1"> </text>
         <text x="309.305786133" y="-46.384780884" class="f1"> </text>
         <text x="311.801635742" y="-46.384780884" class="f1">g</text>
         <text x="316.998199463" y="-46.384780884" class="f1">/</text>
         <text x="321.262176514" y="-46.384780884" class="f1">L</text>
         <text x="325.903503418" y="-46.384780884" class="f1"> </text>
         <text x="328.399353027" y="-46.384780884" class="f1"> </text>
         <text x="330.895202637" y="-46.384780884" class="f1"> </text>
         <text x="333.391052246" y="-46.384780884" class="f1"> </text>
         <text x="335.886901855" y="-46.384780884" class="f1">6</text>
         <text x="341.48236084" y="-46.384780884" class="f1">2</text>
         <text x="347.077819824" y="-46.384780884" class="f1">-</text>
         <text x="350.457733154" y="-46.384780884" class="f1">8</text>
         <text x="356.053192139" y="-46.384780884" class="f1">2</text>
         <text x="361.648651123" y="-46.384780884" class="f0">白</text>
         <text x="372.688659668" y="-46.384780884" class="f0">蛋</text>
         <text x="383.728668213" y="-46.384780884" class="f0">白</text>
         <text x="394.768676758" y="-46.384780884" class="f1"> </text>
         <text x="397.264526367" y="-46.384780884" class="f1"> </text>
         <text x="399.760375977" y="-46.384780884" class="f1"> </text>
         <text x="402.256225586" y="-46.384780884" class="f1"> </text>
         <text x="404.752075195" y="-46.384780884" class="f1"> </text>
         <text x="407.247924805" y="-46.384780884" class="f1"> </text>
         <text x="409.743774414" y="-46.384780884" class="f1"> </text>
         <text x="412.239624023" y="-46.384780884" class="f1"> </text>
         <text x="414.735473633" y="-46.384780884" class="f1"> </text>
         <text x="417.231323242" y="-46.384780884" class="f1"> </text>
         <text x="419.727172852" y="-46.384780884" class="f1"> </text>
         <text x="422.223022461" y="-46.384780884" class="f1">4</text>
         <text x="427.818481445" y="-46.384780884" class="f1">2</text>
         <text x="433.41394043" y="-46.384780884" class="f1"> </text>
         <text x="435.909790039" y="-46.384780884" class="f1"> </text>
         <text x="438.405639648" y="-46.384780884" class="f1"> </text>
         <text x="440.901489258" y="-46.384780884" class="f1"> </text>
         <text x="443.397338867" y="-46.384780884" class="f1"> </text>
         <text x="445.893188477" y="-46.384780884" class="f1"> </text>
         <text x="448.389038086" y="-46.384780884" class="f1"> </text>
         <text x="450.884887695" y="-46.384780884" class="f1">g</text>
         <text x="456.081451416" y="-46.384780884" class="f1">/</text>
         <text x="460.345428467" y="-46.384780884" class="f1">L</text>
         <text x="464.986755371" y="-46.384780884" class="f1"> </text>
         <text x="467.48260498" y="-46.384780884" class="f1"> </text>
         <text x="469.97845459" y="-46.384780884" class="f1"> </text>
         <text x="472.474304199" y="-46.384780884" class="f1"> </text>
         <text x="474.970153809" y="-46.384780884" class="f1"> </text>
         <text x="477.466003418" y="-46.384780884" class="f1">3</text>
         <text x="483.061462402" y="-46.384780884" class="f1">5</text>
         <text x="488.656921387" y="-46.384780884" class="f1">-</text>
         <text x="492.036834717" y="-46.384780884" class="f1">5</text>
         <text x="497.632293701" y="-46.384780884" class="f1">5</text>
         <text x="1" y="-31.846780777" class="f0">谷</text>
         <text x="12.039999962" y="-31.846780777" class="f0">丙</text>
         <text x="23.079999924" y="-31.846780777" class="f0">转</text>
         <text x="34.119998932" y="-31.846780777" class="f0">氨</text>
         <text x="45.159999847" y="-31.846780777" class="f0">酶</text>
         <text x="56.200000763" y="-31.846780777" class="f1"> </text>
         <text x="58.695861816" y="-31.846780777" class="f1"> </text>
         <text x="61.19172287" y="-31.846780777" class="f1"> </text>
         <text x="63.687583923" y="-31.846780777" class="f1"> </text>
         <text x="66.183441162" y="-31.846780777" class="f1"> </text>
         <text x="68.679298401" y="-31.846780777" class="f1"> </text>
         <text x="71.17515564" y="-31.846780777" class="f1"> </text>
         <text x="73.671012878" y="-31.846780777" class="f1"> </text>
         <text x="76.166870117" y="-31.846780777" class="f1">1</text>
         <text x="81.762336731" y="-31.846780777" class="f1">1</text>
         <text x="87.357803345" y="-31.846780777" class="f1">6</text>
         <text x="92.953269958" y="-31.846780777" class="f1"> </text>
         <text x="95.449127197" y="-31.846780777" class="f1"> </text>
         <text x="97.944984436" y="-31.846780777" class="f1"> </text>
         <text x="100.440841675" y="-31.846780777" class="f1"> </text>
         <text x="102.936698914" y="-31.846780777" class="f1"> </text>
         <text x="105.432556152" y="-31.846780777" class="f1">U</text>
         <text x="112.515838623" y="-31.846780777" class="f1">/</text>
         <text x="116.779823303" y="-31.846780777" class="f1">L</text>
         <text x="121.421150208" y="-31.846780777" class="f1"> </text>
         <text x="123.917007446" y="-31.846780777" class="f1"> </text>
         <text x="126.412864685" y="-31.846780777" class="f1"> </text>
         <text x="128.908721924" y="-31.846780777" class="f1"> </text>
         <text x="131.404586792" y="-31.846780777" class="f1">0</text>
         <text x="137.000061035" y="-31.846780777" class="f1">-</text>
         <text x="140.379989624" y="-31.846780777" class="f1">4</text>
         <text x="145.975463867" y="-31.846780777" class="f1">0</text>
         <text x="151.57093811" y="-31.846780777" class="f0">谷</text>
         <text x="162.610931396" y="-31.846780777" class="f0">草</text>
         <text x="173.650924683" y="-31.846780777" class="f0">转</text>
         <text x="184.690917969" y="-31.846780777" class="f0">氨</text>
         <text x="195.730911255" y="-31.846780777" class="f0">酶</text>
         <text x="206.770904541" y="-31.846780777" class="f1"> </text>
         <text x="209.266769409" y="-31.846780777" class="f1"> </text>
         <text x="211.762634277" y="-31.846780777" class="f1"> </text>
         <text x="214.258499146" y="-31.846780777" class="f1"> </text>
         <text x="216.754364014" y="-31.846780777" class="f1"> </text>
         <text x="219.250228882" y="-31.846780777" class="f1"> </text>
         <text x="221.74609375" y="-31.846780777" class="f1"> </text>
         <text x="224.241958618" y="-31.846780777" class="f1">4</text>
         <text x="229.837432861" y="-31.846780777" class="f1">5</text>
         <text x="235.432907104" y="-31.846780777" class="f1"> </text>
         <text x="237.928771973" y="-31.846780777" class="f1"> </text>
         <text x="240.424636841" y="-31.846780777" class="f1"> </text>
         <text x="242.920501709" y="-31.846780777" class="f1"> </text>
         <text x="245.416366577" y="-31.846780777" class="f1"> </text>
         <text x="247.912231445" y="-31.846780777" class="f1"> </text>
         <text x="250.408096313" y="-31.846780777" class="f1">U</text>
         <text x="257.491363525" y="-31.846780777" class="f1">/</text>
         <text x="261.755340576" y="-31.846780777" class="f1">L</text>
         <text x="266.39666748" y="-31.846780777" class="f1"> </text>
         <text x="268.89251709" y="-31.846780777" class="f1"> </text>
         <text x="271.388366699" y="-31.846780777" class="f1"> </text>
         <text x="273.884216309" y="-31.846780777" class="f1"> </text>
         <text x="276.380065918" y="-31.846780777" class="f1"> </text>
         <text x="278.875915527" y="-31.846780777" class="f1">0</text>
         <text x="284.471374512" y="-31.846780777" class="f1">-</text>
         <text x="287.851287842" y="-31.846780777" class="f1">4</text>
         <text x="293.446746826" y="-31.846780777" class="f1">0</text>
         <text x="299.042205811" y="-31.846780777" class="f1">r</text>
         <text x="302.891113281" y="-31.846780777" class="f1">-</text>
         <text x="306.271026611" y="-31.846780777" class="f0">谷</text>
         <text x="317.311035156" y="-31.846780777" class="f0">氨</text>
         <text x="328.351043701" y="-31.846780777" class="f0">酰</text>
         <text x="339.391052246" y="-31.846780777" class="f0">转</text>
         <text x="350.431060791" y="-31.846780777" class="f0">移</text>
         <text x="361.471069336" y="-31.846780777" class="f0">酶</text>
         <text x="372.511077881" y="-31.846780777" class="f1"> </text>
         <text x="375.00692749" y="-31.846780777" class="f1"> </text>
         <text x="377.5027771" y="-31.846780777" class="f1"> </text>
         <text x="379.998626709" y="-31.846780777" class="f1"> </text>
         <text x="382.494476318" y="-31.846780777" class="f1">7</text>
         <text x="388.089935303" y="-31.846780777" class="f1">8</text>
         <text x="393.685394287" y="-31.846780777" class="f1"> </text>
         <text x="396.181243896" y="-31.846780777" class="f1"> </text>
         <text x="398.677093506" y="-31.846780777" class="f1"> </text>
         <text x="401.172943115" y="-31.846780777" class="f1"> </text>
         <text x="403.668792725" y="-31.846780777" class="f1"> </text>
         <text x="406.164642334" y="-31.846780777" class="f1"> </text>
         <text x="408.660491943" y="-31.846780777" class="f1">U</text>
         <text x="415.743774414" y="-31.846780777" class="f1">/</text>
         <text x="420.007751465" y="-31.846780777" class="f1">L</text>
         <text x="424.649078369" y="-31.846780777" class="f1"> </text>
         <text x="427.144927979" y="-31.846780777" class="f1"> </text>
         <text x="429.640777588" y="-31.846780777" class="f1"> </text>
         <text x="432.136627197" y="-31.846780777" class="f1"> </text>
         <text x="434.632476807" y="-31.846780777" class="f1">8</text>
         <text x="440.227935791" y="-31.846780777" class="f1">-</text>
         <text x="443.607849121" y="-31.846780777" class="f1">4</text>
         <text x="449.203308105" y="-31.846780777" class="f1">0</text>
         <text x="454.79876709" y="-31.846780777" class="f0">总</text>
         <text x="465.838775635" y="-31.846780777" class="f0">胆</text>
         <text x="476.87878418" y="-31.846780777" class="f0">红</text>
         <text x="487.918792725" y="-31.846780777" class="f0">素</text>
         <text x="1" y="-17.30878067" class="f1"> </text>
         <text x="3.495859385" y="-17.30878067" class="f1"> </text>
         <text x="5.991718769" y="-17.30878067" class="f1"> </text>
         <text x="8.487578392" y="-17.30878067" class="f1"> </text>
         <text x="10.983437538" y="-17.30878067" class="f1"> </text>
         <text x="13.479296684" y="-17.30878067" class="f1">1</text>
         <text x="19.074764252" y="-17.30878067" class="f1">8</text>
         <text x="24.670232773" y="-17.30878067" class="f1">.</text>
         <text x="27.457185745" y="-17.30878067" class="f1">0</text>
         <text x="33.052654266" y="-17.30878067" class="f1"> </text>
         <text x="35.54851532" y="-17.30878067" class="f1"> </text>
         <text x="38.044376373" y="-17.30878067" class="f1"> </text>
         <text x="40.540237427" y="-17.30878067" class="f1"> </text>
         <text x="43.03609848" y="-17.30878067" class="f1"> </text>
         <text x="45.531959534" y="-17.30878067" class="f1">u</text>
         <text x="51.332271576" y="-17.30878067" class="f1">m</text>
         <text x="60.151332855" y="-17.30878067" class="f1">o</text>
         <text x="65.973205566" y="-17.30878067" class="f1">1</text>
         <text x="71.56867218" y="-17.30878067" class="f1">/</text>
         <text x="75.83265686" y="-17.30878067" class="f1">L</text>
         <text x="80.473983765" y="-17.30878067" class="f1">0</text>
         <text x="86.069450378" y="-17.30878067" class="f1">-</text>
         <text x="89.449371338" y="-17.30878067" class="f1">1</text>
         <text x="95.044837952" y="-17.30878067" class="f1">7</text>
         <text x="100.640304565" y="-17.30878067" class="f0">直</text>
         <text x="111.680305481" y="-17.30878067" class="f0">接</text>
         <text x="122.720306396" y="-17.30878067" class="f0">胆</text>
         <text x="133.760299683" y="-17.30878067" class="f0">红</text>
         <text x="144.800292969" y="-17.30878067" class="f0">素</text>
         <text x="155.840286255" y="-17.30878067" class="f1"> </text>
         <text x="158.336151123" y="-17.30878067" class="f1"> </text>
         <text x="160.832015991" y="-17.30878067" class="f1"> </text>
         <text x="163.327880859" y="-17.30878067" class="f1"> </text>
         <text x="165.823745728" y="-17.30878067" class="f1"> </text>
         <text x="168.319610596" y="-17.30878067" class="f1"> </text>
         <text x="170.815475464" y="-17.30878067" class="f1"> </text>
         <text x="173.311340332" y="-17.30878067" class="f1"> </text>
         <text x="175.8072052" y="-17.30878067" class="f1">4</text>
         <text x="181.402679443" y="-17.30878067" class="f1">.</text>
         <text x="184.18963623" y="-17.30878067" class="f1">1</text>
         <text x="189.785110474" y="-17.30878067" class="f1"> </text>
         <text x="192.280975342" y="-17.30878067" class="f1"> </text>
         <text x="194.77684021" y="-17.30878067" class="f1"> </text>
         <text x="197.272705078" y="-17.30878067" class="f1"> </text>
         <text x="199.768569946" y="-17.30878067" class="f1"> </text>
         <text x="202.264434814" y="-17.30878067" class="f1"> </text>
         <text x="204.760299683" y="-17.30878067" class="f1">u</text>
         <text x="210.56060791" y="-17.30878067" class="f1">m</text>
         <text x="219.379669189" y="-17.30878067" class="f1">o</text>
         <text x="225.201538086" y="-17.30878067" class="f1">1</text>
         <text x="230.797012329" y="-17.30878067" class="f1">/</text>
         <text x="235.06098938" y="-17.30878067" class="f1">L</text>
         <text x="239.702316284" y="-17.30878067" class="f1">0</text>
         <text x="245.297790527" y="-17.30878067" class="f1">-</text>
         <text x="248.677719116" y="-17.30878067" class="f1">6</text>
         <text x="254.273193359" y="-17.30878067" class="f0">碱</text>
         <text x="265.313201904" y="-17.30878067" class="f0">性</text>
         <text x="276.353210449" y="-17.30878067" class="f0">磷</text>
         <text x="287.393218994" y="-17.30878067" class="f0">酸</text>
         <text x="298.433227539" y="-17.30878067" class="f0">酶</text>
         <text x="309.473236084" y="-17.30878067" class="f1"> </text>
         <text x="311.969085693" y="-17.30878067" class="f1"> </text>
         <text x="314.464935303" y="-17.30878067" class="f1"> </text>
         <text x="316.960784912" y="-17.30878067" class="f1"> </text>
         <text x="319.456634521" y="-17.30878067" class="f1"> </text>
         <text x="321.952484131" y="-17.30878067" class="f1"> </text>
         <text x="324.44833374" y="-17.30878067" class="f1"> </text>
         <text x="326.94418335" y="-17.30878067" class="f1"> </text>
         <text x="329.440032959" y="-17.30878067" class="f1">8</text>
         <text x="335.035491943" y="-17.30878067" class="f1">4</text>
         <text x="340.630950928" y="-17.30878067" class="f1"> </text>
         <text x="343.126800537" y="-17.30878067" class="f1"> </text>
         <text x="345.622650146" y="-17.30878067" class="f1"> </text>
         <text x="348.118499756" y="-17.30878067" class="f1"> </text>
         <text x="350.614349365" y="-17.30878067" class="f1"> </text>
         <text x="353.110198975" y="-17.30878067" class="f1"> </text>
         <text x="355.606048584" y="-17.30878067" class="f1"> </text>
         <text x="358.101898193" y="-17.30878067" class="f1">U</text>
         <text x="365.185180664" y="-17.30878067" class="f1">/</text>
         <text x="369.449157715" y="-17.30878067" class="f1">L</text>
         <text x="374.090484619" y="-17.30878067" class="f1"> </text>
         <text x="376.586334229" y="-17.30878067" class="f1"> </text>
         <text x="379.082183838" y="-17.30878067" class="f1"> </text>
         <text x="381.578033447" y="-17.30878067" class="f1"> </text>
         <text x="384.073883057" y="-17.30878067" class="f1"> </text>
         <text x="386.569732666" y="-17.30878067" class="f1">4</text>
         <text x="392.16519165" y="-17.30878067" class="f1">2</text>
         <text x="397.760650635" y="-17.30878067" class="f1">-</text>
         <text x="401.140563965" y="-17.30878067" class="f1">1</text>
         <text x="406.736022949" y="-17.30878067" class="f1">4</text>
         <text x="412.331481934" y="-17.30878067" class="f1">0</text>
         <text x="417.926940918" y="-17.30878067" class="f0">乳</text>
         <text x="428.966949463" y="-17.30878067" class="f0">酸</text>
         <text x="440.006958008" y="-17.30878067" class="f0">脱</text>
         <text x="451.046966553" y="-17.30878067" class="f0">氢</text>
         <text x="462.086975098" y="-17.30878067" class="f0">酶</text>
         <text x="1" y="-2.75999999" class="f1">1</text>
         <text x="6.595468521" y="-2.75999999" class="f1">3</text>
         <text x="12.190937042" y="-2.75999999" class="f1">4</text>
         <text x="17.786405563" y="-2.75999999" class="f1"> </text>
         <text x="20.282264709" y="-2.75999999" class="f1"> </text>
         <text x="22.778123856" y="-2.75999999" class="f1"> </text>
         <text x="25.273983002" y="-2.75999999" class="f1"> </text>
         <text x="27.769842148" y="-2.75999999" class="f1"> </text>
         <text x="30.265701294" y="-2.75999999" class="f1"> </text>
         <text x="32.761562347" y="-2.75999999" class="f1">U</text>
         <text x="39.844844818" y="-2.75999999" class="f1">/</text>
         <text x="44.108829498" y="-2.75999999" class="f1">L</text>
         <text x="48.750156403" y="-2.75999999" class="f1"> </text>
         <text x="51.246017456" y="-2.75999999" class="f1"> </text>
         <text x="53.74187851" y="-2.75999999" class="f1"> </text>
         <text x="56.237739563" y="-2.75999999" class="f1"> </text>
         <text x="58.733600616" y="-2.75999999" class="f1"> </text>
         <text x="61.22946167" y="-2.75999999" class="f1">1</text>
         <text x="66.824928284" y="-2.75999999" class="f1">1</text>
         <text x="72.420394897" y="-2.75999999" class="f1">5</text>
         <text x="78.015861511" y="-2.75999999" class="f1">-</text>
         <text x="81.395782471" y="-2.75999999" class="f1">2</text>
         <text x="86.991249084" y="-2.75999999" class="f1">2</text>
         <text x="92.586715698" y="-2.75999999" class="f1">0</text>
        </g>
       </g>
      </g>
     </g>
    </g>
    <defs>
     <clipPath id="CLIP4">
      <path d="M-0.5,-0.5 L512.5,-0.5 L512.5,397.5 L-0.5,397.5 Z " />
     </clipPath>
    </defs>
    <g clip-path="url(#CLIP4)">
     <g />
    </g>
   </g>
   <g />
   <g />
   <g />
   <g>
    <g>
     <g />
     <g shape-rendering="crispEdges" />
    </g>
    <g>
     <g />
    </g>
    <g>
     <g />
    </g>
   </g>
   <g>
    <text x="10" y="10" class="f2">Evaluation Only. Created with Aspose.Cells for Python via Java.Copyright 2003 - 2023 Aspose Pty Ltd.</text>
   </g>
  </g>
 </g>
 <defs />
 <defs>
  <style type="text/css">
   <![CDATA[
   
.f0
{
font-family:Microsoft YaHei Light;
font-size:11.039999962px;
fill:#000000;
}

.f1
{
font-family:Calibri;
font-size:11.039999962px;
fill:#000000;
}

.f2
{
font-family:Arial;
font-size:10px;
fill:#FF0000;
}

   
.p0
{
stroke:#101010;
stroke-width:0.969200015px;
stroke-linecap:butt;
stroke-linejoin:miter;
}

   ]]></style>
 </defs>
</svg>
