<?xml version="1.0" encoding="UTF-8" standalone="yes"?>
<svg xmlns="http://www.w3.org/2000/svg" xmlns:xlink="http://www.w3.org/1999/xlink" width="612pt" height="792pt">
 <g id="SFixTitle" />
 <g id="SContent">
  <g transform="scale(1.33333)">
   <rect width="100%" height="100%" fill="white" />
   <g>
    <g>
     <g />
     <g shape-rendering="crispEdges" />
    </g>
    <g>
     <g />
    </g>
    <g>
     <g />
    </g>
   </g>
   <g transform="matrix(1,0,0,1,50.400001526,54)">
    <defs>
     <clipPath id="CLIP0">
      <path d="M-0.5,-0.5 L468.5,-0.5 L468.5,451.5 L-0.5,451.5 Z " />
     </clipPath>
    </defs>
    <g clip-path="url(#CLIP0)">
     <g />
     <g shape-rendering="crispEdges" />
    </g>
    <defs>
     <clipPath id="CLIP1">
      <path d="M-0.5,-1.453799963 L468.5,-1.453799963 L468.5,452.546203613 L-0.5,452.546203613 Z " />
     </clipPath>
    </defs>
    <g clip-path="url(#CLIP1)">
     <g>
      <g />
      <path d="M 0,0 L 332.992462158,0" class="p0" fill="none" />
      <path d="M 0,116.304000854 L 332.992462158,116.304000854" class="p0" fill="none" />
      <path d="M 0,232.608001709 L 332.992462158,232.608001709" class="p0" fill="none" />
      <path d="M 0,348.911987305 L 332.992462158,348.911987305" class="p0" fill="none" />
      <path d="M 0,0 L 0,14.538000107" class="p0" fill="none" />
      <path d="M 0,116.304000854 L 0,130.841995239" class="p0" fill="none" />
      <path d="M 0,232.608001709 L 0,247.145996094" class="p0" fill="none" />
      <path d="M 0,348.911987305 L 0,363.449981689" class="p0" fill="none" />
      <path d="M 332.992462158,0 L 467.64074707,0" class="p0" fill="none" />
      <path d="M 332.992462158,116.304000854 L 467.64074707,116.304000854" class="p0" fill="none" />
      <path d="M 332.992462158,232.608001709 L 467.64074707,232.608001709" class="p0" fill="none" />
      <path d="M 332.992462158,348.911987305 L 467.64074707,348.911987305" class="p0" fill="none" />
      <path d="M 332.992004395,0 L 332.992004395,14.538000107" class="p0" fill="none" />
      <path d="M 332.992004395,116.304000854 L 332.992004395,130.841995239" class="p0" fill="none" />
      <path d="M 332.992004395,232.608001709 L 332.992004395,247.145996094" class="p0" fill="none" />
      <path d="M 332.992004395,348.911987305 L 332.992004395,363.449981689" class="p0" fill="none" />
      <path d="M 467.640991211,0 L 467.640991211,14.538000107" class="p0" fill="none" />
      <path d="M 467.640991211,116.304000854 L 467.640991211,130.841995239" class="p0" fill="none" />
      <path d="M 467.640991211,232.608001709 L 467.640991211,247.145996094" class="p0" fill="none" />
      <path d="M 467.640991211,348.911987305 L 467.640991211,363.449981689" class="p0" fill="none" />
      <path d="M 0,14.538000107 L 332.992462158,14.538000107" class="p0" fill="none" />
      <path d="M 0,130.841995239 L 332.992462158,130.841995239" class="p0" fill="none" />
      <path d="M 0,247.145996094 L 332.992462158,247.145996094" class="p0" fill="none" />
      <path d="M 0,363.450012207 L 332.992462158,363.450012207" class="p0" fill="none" />
      <path d="M 0,14.538000107 L 0,29.076000214" class="p0" fill="none" />
      <path d="M 0,130.841995239 L 0,145.379989624" class="p0" fill="none" />
      <path d="M 0,247.145996094 L 0,261.683990479" class="p0" fill="none" />
      <path d="M 0,363.450012207 L 0,377.988006592" class="p0" fill="none" />
      <path d="M 332.992462158,14.538000107 L 467.64074707,14.538000107" class="p0" fill="none" />
      <path d="M 332.992462158,130.841995239 L 467.64074707,130.841995239" class="p0" fill="none" />
      <path d="M 332.992462158,247.145996094 L 467.64074707,247.145996094" class="p0" fill="none" />
      <path d="M 332.992462158,363.450012207 L 467.64074707,363.450012207" class="p0" fill="none" />
      <path d="M 332.992004395,14.538000107 L 332.992004395,29.076000214" class="p0" fill="none" />
      <path d="M 332.992004395,130.841995239 L 332.992004395,145.379989624" class="p0" fill="none" />
      <path d="M 332.992004395,247.145996094 L 332.992004395,261.683990479" class="p0" fill="none" />
      <path d="M 332.992004395,363.450012207 L 332.992004395,377.988006592" class="p0" fill="none" />
      <path d="M 467.640991211,14.538000107 L 467.640991211,29.076000214" class="p0" fill="none" />
      <path d="M 467.640991211,130.841995239 L 467.640991211,145.379989624" class="p0" fill="none" />
      <path d="M 467.640991211,247.145996094 L 467.640991211,261.683990479" class="p0" fill="none" />
      <path d="M 467.640991211,363.450012207 L 467.640991211,377.988006592" class="p0" fill="none" />
      <path d="M 0,29.076000214 L 332.992462158,29.076000214" class="p0" fill="none" />
      <path d="M 0,145.380004883 L 332.992462158,145.380004883" class="p0" fill="none" />
      <path d="M 0,261.683990479 L 332.992462158,261.683990479" class="p0" fill="none" />
      <path d="M 0,377.988006592 L 332.992462158,377.988006592" class="p0" fill="none" />
      <path d="M 0,29.076000214 L 0,43.613998413" class="p0" fill="none" />
      <path d="M 0,145.380004883 L 0,159.917999268" class="p0" fill="none" />
      <path d="M 0,261.683990479 L 0,276.221984863" class="p0" fill="none" />
      <path d="M 0,377.988006592 L 0,392.526000977" class="p0" fill="none" />
      <path d="M 332.992462158,29.076000214 L 467.64074707,29.076000214" class="p0" fill="none" />
      <path d="M 332.992462158,145.380004883 L 467.64074707,145.380004883" class="p0" fill="none" />
      <path d="M 332.992462158,261.683990479 L 467.64074707,261.683990479" class="p0" fill="none" />
      <path d="M 332.992462158,377.988006592 L 467.64074707,377.988006592" class="p0" fill="none" />
      <path d="M 332.992004395,29.076000214 L 332.992004395,43.613998413" class="p0" fill="none" />
      <path d="M 332.992004395,145.380004883 L 332.992004395,159.917999268" class="p0" fill="none" />
      <path d="M 332.992004395,261.683990479 L 332.992004395,276.221984863" class="p0" fill="none" />
      <path d="M 332.992004395,377.988006592 L 332.992004395,392.526000977" class="p0" fill="none" />
      <path d="M 467.640991211,29.076000214 L 467.640991211,43.613998413" class="p0" fill="none" />
      <path d="M 467.640991211,145.380004883 L 467.640991211,159.917999268" class="p0" fill="none" />
      <path d="M 467.640991211,261.683990479 L 467.640991211,276.221984863" class="p0" fill="none" />
      <path d="M 467.640991211,377.988006592 L 467.640991211,392.526000977" class="p0" fill="none" />
      <path d="M 0,43.613998413 L 332.992462158,43.613998413" class="p0" fill="none" />
      <path d="M 0,159.917999268 L 332.992462158,159.917999268" class="p0" fill="none" />
      <path d="M 0,276.221984863 L 332.992462158,276.221984863" class="p0" fill="none" />
      <path d="M 0,392.526000977 L 332.992462158,392.526000977" class="p0" fill="none" />
      <path d="M 0,43.613998413 L 0,58.152000427" class="p0" fill="none" />
      <path d="M 0,159.917999268 L 0,174.455993652" class="p0" fill="none" />
      <path d="M 0,276.222015381 L 0,290.760009766" class="p0" fill="none" />
      <path d="M 0,392.526000977 L 0,407.063995361" class="p0" fill="none" />
      <path d="M 332.992462158,43.613998413 L 467.64074707,43.613998413" class="p0" fill="none" />
      <path d="M 332.992462158,159.917999268 L 467.64074707,159.917999268" class="p0" fill="none" />
      <path d="M 332.992462158,276.221984863 L 467.64074707,276.221984863" class="p0" fill="none" />
      <path d="M 332.992462158,392.526000977 L 467.64074707,392.526000977" class="p0" fill="none" />
      <path d="M 332.992004395,43.613998413 L 332.992004395,58.152000427" class="p0" fill="none" />
      <path d="M 332.992004395,159.917999268 L 332.992004395,174.455993652" class="p0" fill="none" />
      <path d="M 332.992004395,276.222015381 L 332.992004395,290.760009766" class="p0" fill="none" />
      <path d="M 332.992004395,392.526000977 L 332.992004395,407.063995361" class="p0" fill="none" />
      <path d="M 467.640991211,43.613998413 L 467.640991211,58.152000427" class="p0" fill="none" />
      <path d="M 467.640991211,159.917999268 L 467.640991211,174.455993652" class="p0" fill="none" />
      <path d="M 467.640991211,276.222015381 L 467.640991211,290.760009766" class="p0" fill="none" />
      <path d="M 467.640991211,392.526000977 L 467.640991211,407.063995361" class="p0" fill="none" />
      <path d="M 0,58.152000427 L 332.992462158,58.152000427" class="p0" fill="none" />
      <path d="M 0,174.455993652 L 332.992462158,174.455993652" class="p0" fill="none" />
      <path d="M 0,290.760009766 L 332.992462158,290.760009766" class="p0" fill="none" />
      <path d="M 0,407.063995361 L 332.992462158,407.063995361" class="p0" fill="none" />
      <path d="M 0,58.152000427 L 0,72.690002441" class="p0" fill="none" />
      <path d="M 0,174.455993652 L 0,188.993988037" class="p0" fill="none" />
      <path d="M 0,290.760009766 L 0,305.29800415" class="p0" fill="none" />
      <path d="M 0,407.063995361 L 0,421.601989746" class="p0" fill="none" />
      <path d="M 332.992462158,58.152000427 L 467.64074707,58.152000427" class="p0" fill="none" />
      <path d="M 332.992462158,174.455993652 L 467.64074707,174.455993652" class="p0" fill="none" />
      <path d="M 332.992462158,290.760009766 L 467.64074707,290.760009766" class="p0" fill="none" />
      <path d="M 332.992462158,407.063995361 L 467.64074707,407.063995361" class="p0" fill="none" />
      <path d="M 332.992004395,58.152000427 L 332.992004395,72.690002441" class="p0" fill="none" />
      <path d="M 332.992004395,174.455993652 L 332.992004395,188.993988037" class="p0" fill="none" />
      <path d="M 332.992004395,290.760009766 L 332.992004395,305.29800415" class="p0" fill="none" />
      <path d="M 332.992004395,407.063995361 L 332.992004395,421.601989746" class="p0" fill="none" />
      <path d="M 467.640991211,58.152000427 L 467.640991211,72.690002441" class="p0" fill="none" />
      <path d="M 467.640991211,174.455993652 L 467.640991211,188.993988037" class="p0" fill="none" />
      <path d="M 467.640991211,290.760009766 L 467.640991211,305.29800415" class="p0" fill="none" />
      <path d="M 467.640991211,407.063995361 L 467.640991211,421.601989746" class="p0" fill="none" />
      <path d="M 0,72.690002441 L 332.992462158,72.690002441" class="p0" fill="none" />
      <path d="M 0,188.994003296 L 332.992462158,188.994003296" class="p0" fill="none" />
      <path d="M 0,305.29800415 L 332.992462158,305.29800415" class="p0" fill="none" />
      <path d="M 0,421.601989746 L 332.992462158,421.601989746" class="p0" fill="none" />
      <path d="M 0,72.690002441 L 0,87.228004456" class="p0" fill="none" />
      <path d="M 0,188.994003296 L 0,203.531997681" class="p0" fill="none" />
      <path d="M 0,305.29800415 L 0,319.835998535" class="p0" fill="none" />
      <path d="M 0,421.601989746 L 0,436.139984131" class="p0" fill="none" />
      <path d="M 332.992462158,72.690002441 L 467.64074707,72.690002441" class="p0" fill="none" />
      <path d="M 332.992462158,188.994003296 L 467.64074707,188.994003296" class="p0" fill="none" />
      <path d="M 332.992462158,305.29800415 L 467.64074707,305.29800415" class="p0" fill="none" />
      <path d="M 332.992462158,421.601989746 L 467.64074707,421.601989746" class="p0" fill="none" />
      <path d="M 332.992004395,72.690002441 L 332.992004395,87.228004456" class="p0" fill="none" />
      <path d="M 332.992004395,188.994003296 L 332.992004395,203.531997681" class="p0" fill="none" />
      <path d="M 332.992004395,305.29800415 L 332.992004395,319.835998535" class="p0" fill="none" />
      <path d="M 332.992004395,421.601989746 L 332.992004395,436.139984131" class="p0" fill="none" />
      <path d="M 467.640991211,72.690002441 L 467.640991211,87.228004456" class="p0" fill="none" />
      <path d="M 467.640991211,188.994003296 L 467.640991211,203.531997681" class="p0" fill="none" />
      <path d="M 467.640991211,305.29800415 L 467.640991211,319.835998535" class="p0" fill="none" />
      <path d="M 467.640991211,421.601989746 L 467.640991211,436.139984131" class="p0" fill="none" />
      <path d="M 0,87.227996826 L 332.992462158,87.227996826" class="p0" fill="none" />
      <path d="M 0,203.531997681 L 332.992462158,203.531997681" class="p0" fill="none" />
      <path d="M 0,319.835998535 L 332.992462158,319.835998535" class="p0" fill="none" />
      <path d="M 0,436.140014648 L 332.992462158,436.140014648" class="p0" fill="none" />
      <path d="M 0,87.227996826 L 0,101.76599884" class="p0" fill="none" />
      <path d="M 0,203.531997681 L 0,218.069992065" class="p0" fill="none" />
      <path d="M 0,319.835998535 L 0,334.37399292" class="p0" fill="none" />
      <path d="M 0,436.140014648 L 0,450.678009033" class="p0" fill="none" />
      <path d="M 332.992462158,87.227996826 L 467.64074707,87.227996826" class="p0" fill="none" />
      <path d="M 332.992462158,203.531997681 L 467.64074707,203.531997681" class="p0" fill="none" />
      <path d="M 332.992462158,319.835998535 L 467.64074707,319.835998535" class="p0" fill="none" />
      <path d="M 332.992462158,436.140014648 L 467.64074707,436.140014648" class="p0" fill="none" />
      <path d="M 332.992004395,87.227996826 L 332.992004395,101.76599884" class="p0" fill="none" />
      <path d="M 332.992004395,203.531997681 L 332.992004395,218.069992065" class="p0" fill="none" />
      <path d="M 332.992004395,319.835998535 L 332.992004395,334.37399292" class="p0" fill="none" />
      <path d="M 332.992004395,436.140014648 L 332.992004395,450.678009033" class="p0" fill="none" />
      <path d="M 467.640991211,87.227996826 L 467.640991211,101.76599884" class="p0" fill="none" />
      <path d="M 467.640991211,203.531997681 L 467.640991211,218.069992065" class="p0" fill="none" />
      <path d="M 467.640991211,319.835998535 L 467.640991211,334.37399292" class="p0" fill="none" />
      <path d="M 467.640991211,436.140014648 L 467.640991211,450.678009033" class="p0" fill="none" />
      <path d="M 0,101.76599884 L 332.992462158,101.76599884" class="p0" fill="none" />
      <path d="M 0,218.070007324 L 332.992462158,218.070007324" class="p0" fill="none" />
      <path d="M 0,334.37399292 L 332.992462158,334.37399292" class="p0" fill="none" />
      <path d="M 0,450.678009033 L 332.992462158,450.678009033" class="p0" fill="none" />
      <path d="M 0,101.76599884 L 0,116.304000854" class="p0" fill="none" />
      <path d="M 0,218.070007324 L 0,232.608001709" class="p0" fill="none" />
      <path d="M 0,334.37399292 L 0,348.911987305" class="p0" fill="none" />
      <path d="M 332.992462158,101.76599884 L 467.64074707,101.76599884" class="p0" fill="none" />
      <path d="M 332.992462158,218.070007324 L 467.64074707,218.070007324" class="p0" fill="none" />
      <path d="M 332.992462158,334.37399292 L 467.64074707,334.37399292" class="p0" fill="none" />
      <path d="M 332.992462158,450.678009033 L 467.64074707,450.678009033" class="p0" fill="none" />
      <path d="M 332.992004395,101.76599884 L 332.992004395,116.304000854" class="p0" fill="none" />
      <path d="M 332.992004395,218.070007324 L 332.992004395,232.608001709" class="p0" fill="none" />
      <path d="M 332.992004395,334.37399292 L 332.992004395,348.911987305" class="p0" fill="none" />
      <path d="M 467.640991211,101.76599884 L 467.640991211,116.304000854" class="p0" fill="none" />
      <path d="M 467.640991211,218.070007324 L 467.640991211,232.608001709" class="p0" fill="none" />
      <path d="M 467.640991211,334.37399292 L 467.640991211,348.911987305" class="p0" fill="none" />
     </g>
    </g>
    <defs>
     <clipPath id="CLIP2">
      <path d="M-0.5,-0.5 L468.5,-0.5 L468.5,451.5 L-0.5,451.5 Z " />
     </clipPath>
    </defs>
    <g clip-path="url(#CLIP2)">
     <g>
      <defs>
       <clipPath id="CLIP3">
        <path d="M0.25,0.25 L332.742462158,0.25 L332.742462158,14.288000107 L0.25,14.288000107 Z " />
       </clipPath>
      </defs>
      <g clip-path="url(#CLIP3)">
       <g>
        <g transform="matrix(1,0,0,1,1.075036168,13.568799973)">
         <text x="1" y="-2.770781279" class="f0">病</text>
         <text x="12.039999962" y="-2.770781279" class="f0">名</text>
        </g>
       </g>
      </g>
      <defs>
       <clipPath id="CLIP4">
        <path d="M333.242462158,0.25 L467.39074707,0.25 L467.39074707,14.288000107 L333.242462158,14.288000107 Z " />
       </clipPath>
      </defs>
      <g clip-path="url(#CLIP4)">
       <g>
        <g transform="matrix(1,0,0,1,334.067504883,13.568799973)">
         <text x="1" y="-2.770781279" class="f0">发</text>
         <text x="12.039999962" y="-2.770781279" class="f0">病</text>
         <text x="23.079999924" y="-2.770781279" class="f0">例</text>
         <text x="34.119998932" y="-2.770781279" class="f0">数</text>
        </g>
       </g>
      </g>
      <defs>
       <clipPath id="CLIP5">
        <path d="M333.242462158,14.788000107 L467.39074707,14.788000107 L467.39074707,28.826000214 L333.242462158,28.826000214 Z " />
       </clipPath>
      </defs>
      <g clip-path="url(#CLIP5)">
       <g>
        <g transform="matrix(1,0,0,1,334.067504883,28.106800079)">
         <text x="1" y="-2.75999999" class="f1">2017</text>
        </g>
       </g>
      </g>
      <defs>
       <clipPath id="CLIP6">
        <path d="M0.25,29.326000214 L332.742462158,29.326000214 L332.742462158,43.363998413 L0.25,43.363998413 Z " />
       </clipPath>
      </defs>
      <g clip-path="url(#CLIP6)">
       <g>
        <g transform="matrix(1,0,0,1,1.075036168,42.644798279)">
         <text x="1" y="-2.770781279" class="f0">总</text>
         <text x="12.039999962" y="-2.770781279" class="f0">计</text>
        </g>
       </g>
      </g>
      <defs>
       <clipPath id="CLIP7">
        <path d="M333.242462158,29.326000214 L467.39074707,29.326000214 L467.39074707,43.363998413 L333.242462158,43.363998413 Z " />
       </clipPath>
      </defs>
      <g clip-path="url(#CLIP7)">
       <g>
        <g transform="matrix(1,0,0,1,334.067504883,42.644798279)">
         <text x="1" y="-2.75999999" class="f1">3064073</text>
        </g>
       </g>
      </g>
      <defs>
       <clipPath id="CLIP8">
        <path d="M0.25,43.863998413 L332.742462158,43.863998413 L332.742462158,57.902000427 L0.25,57.902000427 Z " />
       </clipPath>
      </defs>
      <g clip-path="url(#CLIP8)">
       <g>
        <g transform="matrix(1,0,0,1,1.075036168,57.182800293)">
         <text x="1" y="-2.770781279" class="f0">鼠</text>
         <text x="12.039999962" y="-2.770781279" class="f0">疫</text>
        </g>
       </g>
      </g>
      <defs>
       <clipPath id="CLIP9">
        <path d="M333.242462158,43.863998413 L467.39074707,43.863998413 L467.39074707,57.902000427 L333.242462158,57.902000427 Z " />
       </clipPath>
      </defs>
      <g clip-path="url(#CLIP9)">
       <g>
        <g transform="matrix(1,0,0,1,334.067504883,57.182800293)">
         <text x="1" y="-2.75999999" class="f1">1</text>
        </g>
       </g>
      </g>
      <defs>
       <clipPath id="CLIP10">
        <path d="M0.25,58.402000427 L332.742462158,58.402000427 L332.742462158,72.440002441 L0.25,72.440002441 Z " />
       </clipPath>
      </defs>
      <g clip-path="url(#CLIP10)">
       <g>
        <g transform="matrix(1,0,0,1,1.075036168,71.720802307)">
         <text x="1" y="-2.770781279" class="f0">霍</text>
         <text x="12.039999962" y="-2.770781279" class="f0">乱</text>
        </g>
       </g>
      </g>
      <defs>
       <clipPath id="CLIP11">
        <path d="M333.242462158,58.402000427 L467.39074707,58.402000427 L467.39074707,72.440002441 L333.242462158,72.440002441 Z " />
       </clipPath>
      </defs>
      <g clip-path="url(#CLIP11)">
       <g>
        <g transform="matrix(1,0,0,1,334.067504883,71.720802307)">
         <text x="1" y="-2.75999999" class="f1">14</text>
        </g>
       </g>
      </g>
      <defs>
       <clipPath id="CLIP12">
        <path d="M0.25,72.940002441 L332.742462158,72.940002441 L332.742462158,86.978004456 L0.25,86.978004456 Z " />
       </clipPath>
      </defs>
      <g clip-path="url(#CLIP12)">
       <g>
        <g transform="matrix(1,0,0,1,1.075036168,86.258804321)">
         <text x="1" y="-2.770781279" class="f0">传</text>
         <text x="12.039999962" y="-2.770781279" class="f0">染</text>
         <text x="23.079999924" y="-2.770781279" class="f0">性</text>
         <text x="34.119998932" y="-2.770781279" class="f0">非</text>
         <text x="45.159999847" y="-2.770781279" class="f0">典</text>
         <text x="56.200000763" y="-2.770781279" class="f0">型</text>
         <text x="67.239997864" y="-2.770781279" class="f0">师</text>
         <text x="78.279998779" y="-2.770781279" class="f0">炎</text>
        </g>
       </g>
      </g>
      <defs>
       <clipPath id="CLIP13">
        <path d="M333.242462158,72.940002441 L467.39074707,72.940002441 L467.39074707,86.978004456 L333.242462158,86.978004456 Z " />
       </clipPath>
      </defs>
      <g clip-path="url(#CLIP13)">
       <g>
        <g transform="matrix(1,0,0,1,334.067504883,86.258804321)">
         <text x="1" y="-2.75999999" class="f1">0</text>
        </g>
       </g>
      </g>
      <defs>
       <clipPath id="CLIP14">
        <path d="M0.25,87.477996826 L332.742462158,87.477996826 L332.742462158,101.51599884 L0.25,101.51599884 Z " />
       </clipPath>
      </defs>
      <g clip-path="url(#CLIP14)">
       <g>
        <g transform="matrix(1,0,0,1,1.075036168,100.796798706)">
         <text x="1" y="-2.770781279" class="f0">艾</text>
         <text x="12.039999962" y="-2.770781279" class="f0">滋</text>
         <text x="23.079999924" y="-2.770781279" class="f0">病</text>
        </g>
       </g>
      </g>
      <defs>
       <clipPath id="CLIP15">
        <path d="M333.242462158,87.477996826 L467.39074707,87.477996826 L467.39074707,101.51599884 L333.242462158,101.51599884 Z " />
       </clipPath>
      </defs>
      <g clip-path="url(#CLIP15)">
       <g>
        <g transform="matrix(1,0,0,1,334.067504883,100.796798706)">
         <text x="1" y="-2.75999999" class="f1">57194</text>
        </g>
       </g>
      </g>
      <defs>
       <clipPath id="CLIP16">
        <path d="M0.25,102.01599884 L332.742462158,102.01599884 L332.742462158,116.054000854 L0.25,116.054000854 Z " />
       </clipPath>
      </defs>
      <g clip-path="url(#CLIP16)">
       <g>
        <g transform="matrix(1,0,0,1,1.075036168,115.33480072)">
         <text x="1" y="-2.770781279" class="f0">病</text>
         <text x="12.039999962" y="-2.770781279" class="f0">毒</text>
         <text x="23.079999924" y="-2.770781279" class="f0">性</text>
         <text x="34.119998932" y="-2.770781279" class="f0">肝</text>
         <text x="45.159999847" y="-2.770781279" class="f0">炎</text>
        </g>
       </g>
      </g>
      <defs>
       <clipPath id="CLIP17">
        <path d="M333.242462158,102.01599884 L467.39074707,102.01599884 L467.39074707,116.054000854 L333.242462158,116.054000854 Z " />
       </clipPath>
      </defs>
      <g clip-path="url(#CLIP17)">
       <g>
        <g transform="matrix(1,0,0,1,334.067504883,115.33480072)">
         <text x="1" y="-2.75999999" class="f1">1283523</text>
        </g>
       </g>
      </g>
      <defs>
       <clipPath id="CLIP18">
        <path d="M0.25,116.554000854 L332.742462158,116.554000854 L332.742462158,130.591995239 L0.25,130.591995239 Z " />
       </clipPath>
      </defs>
      <g clip-path="url(#CLIP18)">
       <g>
        <g transform="matrix(1,0,0,1,1.075036168,129.872802734)">
         <text x="1" y="-2.770781279" class="f0">脊</text>
         <text x="12.039999962" y="-2.770781279" class="f0">髓</text>
         <text x="23.079999924" y="-2.770781279" class="f0">灰</text>
         <text x="34.119998932" y="-2.770781279" class="f0">质</text>
         <text x="45.159999847" y="-2.770781279" class="f0">炎</text>
        </g>
       </g>
      </g>
      <defs>
       <clipPath id="CLIP19">
        <path d="M333.242462158,116.554000854 L467.39074707,116.554000854 L467.39074707,130.591995239 L333.242462158,130.591995239 Z " />
       </clipPath>
      </defs>
      <g clip-path="url(#CLIP19)">
       <g>
        <g transform="matrix(1,0,0,1,334.067504883,129.872802734)">
         <text x="1" y="-2.75999999" class="f1">0</text>
        </g>
       </g>
      </g>
      <defs>
       <clipPath id="CLIP20">
        <path d="M0.25,131.091995239 L332.742462158,131.091995239 L332.742462158,145.129989624 L0.25,145.129989624 Z " />
       </clipPath>
      </defs>
      <g clip-path="url(#CLIP20)">
       <g>
        <g transform="matrix(1,0,0,1,1.075036168,144.410797119)">
         <text x="1" y="-2.770781279" class="f0">人</text>
         <text x="12.039999962" y="-2.770781279" class="f0">感</text>
         <text x="23.079999924" y="-2.770781279" class="f0">染</text>
         <text x="34.119998932" y="-2.770781279" class="f0">高</text>
         <text x="45.159999847" y="-2.770781279" class="f0">致</text>
         <text x="56.200000763" y="-2.770781279" class="f0">病</text>
         <text x="67.239997864" y="-2.770781279" class="f0">性</text>
         <text x="78.279998779" y="-2.770781279" class="f0">高</text>
         <text x="89.319999695" y="-2.770781279" class="f0">流</text>
         <text x="100.36000061" y="-2.770781279" class="f0">感</text>
        </g>
       </g>
      </g>
      <defs>
       <clipPath id="CLIP21">
        <path d="M333.242462158,131.091995239 L467.39074707,131.091995239 L467.39074707,145.129989624 L333.242462158,145.129989624 Z " />
       </clipPath>
      </defs>
      <g clip-path="url(#CLIP21)">
       <g>
        <g transform="matrix(1,0,0,1,334.067504883,144.410797119)">
         <text x="1" y="-2.75999999" class="f1">0</text>
        </g>
       </g>
      </g>
      <defs>
       <clipPath id="CLIP22">
        <path d="M0.25,145.630004883 L332.742462158,145.630004883 L332.742462158,159.667999268 L0.25,159.667999268 Z " />
       </clipPath>
      </defs>
      <g clip-path="url(#CLIP22)">
       <g>
        <g transform="matrix(1,0,0,1,1.075036168,158.948806763)">
         <text x="1" y="-2.770781279" class="f0">麻</text>
         <text x="12.039999962" y="-2.770781279" class="f0">疹</text>
        </g>
       </g>
      </g>
      <defs>
       <clipPath id="CLIP23">
        <path d="M333.242462158,145.630004883 L467.39074707,145.630004883 L467.39074707,159.667999268 L333.242462158,159.667999268 Z " />
       </clipPath>
      </defs>
      <g clip-path="url(#CLIP23)">
       <g>
        <g transform="matrix(1,0,0,1,334.067504883,158.948806763)">
         <text x="1" y="-2.75999999" class="f1">5941</text>
        </g>
       </g>
      </g>
      <defs>
       <clipPath id="CLIP24">
        <path d="M0.25,160.167999268 L332.742462158,160.167999268 L332.742462158,174.205993652 L0.25,174.205993652 Z " />
       </clipPath>
      </defs>
      <g clip-path="url(#CLIP24)">
       <g>
        <g transform="matrix(1,0,0,1,1.075036168,173.486801147)">
         <text x="1" y="-2.770781279" class="f0">流</text>
         <text x="12.039999962" y="-2.770781279" class="f0">行</text>
         <text x="23.079999924" y="-2.770781279" class="f0">性</text>
         <text x="34.119998932" y="-2.770781279" class="f0">出</text>
         <text x="45.159999847" y="-2.770781279" class="f0">血</text>
         <text x="56.200000763" y="-2.770781279" class="f0">热</text>
        </g>
       </g>
      </g>
      <defs>
       <clipPath id="CLIP25">
        <path d="M333.242462158,160.167999268 L467.39074707,160.167999268 L467.39074707,174.205993652 L333.242462158,174.205993652 Z " />
       </clipPath>
      </defs>
      <g clip-path="url(#CLIP25)">
       <g>
        <g transform="matrix(1,0,0,1,334.067504883,173.486801147)">
         <text x="1" y="-2.75999999" class="f1">11262</text>
        </g>
       </g>
      </g>
      <defs>
       <clipPath id="CLIP26">
        <path d="M0.25,174.705993652 L332.742462158,174.705993652 L332.742462158,188.743988037 L0.25,188.743988037 Z " />
       </clipPath>
      </defs>
      <g clip-path="url(#CLIP26)">
       <g>
        <g transform="matrix(1,0,0,1,1.075036168,188.024795532)">
         <text x="1" y="-2.770781279" class="f0">狂</text>
         <text x="12.039999962" y="-2.770781279" class="f0">犬</text>
         <text x="23.079999924" y="-2.770781279" class="f0">病</text>
        </g>
       </g>
      </g>
      <defs>
       <clipPath id="CLIP27">
        <path d="M333.242462158,174.705993652 L467.39074707,174.705993652 L467.39074707,188.743988037 L333.242462158,188.743988037 Z " />
       </clipPath>
      </defs>
      <g clip-path="url(#CLIP27)">
       <g>
        <g transform="matrix(1,0,0,1,334.067504883,188.024795532)">
         <text x="1" y="-2.75999999" class="f1">516</text>
        </g>
       </g>
      </g>
      <defs>
       <clipPath id="CLIP28">
        <path d="M0.25,189.244003296 L332.742462158,189.244003296 L332.742462158,203.281997681 L0.25,203.281997681 Z " />
       </clipPath>
      </defs>
      <g clip-path="url(#CLIP28)">
       <g>
        <g transform="matrix(1,0,0,1,1.075036168,202.562805176)">
         <text x="1" y="-2.770781279" class="f0">流</text>
         <text x="12.039999962" y="-2.770781279" class="f0">行</text>
         <text x="23.079999924" y="-2.770781279" class="f0">性</text>
         <text x="34.119998932" y="-2.770781279" class="f0">乙</text>
         <text x="45.159999847" y="-2.770781279" class="f0">型</text>
         <text x="56.200000763" y="-2.770781279" class="f0">脑</text>
         <text x="67.239997864" y="-2.770781279" class="f0">炎</text>
        </g>
       </g>
      </g>
      <defs>
       <clipPath id="CLIP29">
        <path d="M333.242462158,189.244003296 L467.39074707,189.244003296 L467.39074707,203.281997681 L333.242462158,203.281997681 Z " />
       </clipPath>
      </defs>
      <g clip-path="url(#CLIP29)">
       <g>
        <g transform="matrix(1,0,0,1,334.067504883,202.562805176)">
         <text x="1" y="-2.75999999" class="f1">1147</text>
        </g>
       </g>
      </g>
      <defs>
       <clipPath id="CLIP30">
        <path d="M0.25,203.781997681 L332.742462158,203.781997681 L332.742462158,217.819992065 L0.25,217.819992065 Z " />
       </clipPath>
      </defs>
      <g clip-path="url(#CLIP30)">
       <g>
        <g transform="matrix(1,0,0,1,1.075036168,217.100799561)">
         <text x="1" y="-2.770781279" class="f0">登</text>
         <text x="12.039999962" y="-2.770781279" class="f0">革</text>
         <text x="23.079999924" y="-2.770781279" class="f0">热</text>
        </g>
       </g>
      </g>
      <defs>
       <clipPath id="CLIP31">
        <path d="M333.242462158,203.781997681 L467.39074707,203.781997681 L467.39074707,217.819992065 L333.242462158,217.819992065 Z " />
       </clipPath>
      </defs>
      <g clip-path="url(#CLIP31)">
       <g>
        <g transform="matrix(1,0,0,1,334.067504883,217.100799561)">
         <text x="1" y="-2.75999999" class="f1">5893</text>
        </g>
       </g>
      </g>
      <defs>
       <clipPath id="CLIP32">
        <path d="M0.25,218.320007324 L332.742462158,218.320007324 L332.742462158,232.358001709 L0.25,232.358001709 Z " />
       </clipPath>
      </defs>
      <g clip-path="url(#CLIP32)">
       <g>
        <g transform="matrix(1,0,0,1,1.075036168,231.638809204)">
         <text x="1" y="-2.770781279" class="f0">炭</text>
         <text x="12.039999962" y="-2.770781279" class="f0">疽</text>
        </g>
       </g>
      </g>
      <defs>
       <clipPath id="CLIP33">
        <path d="M333.242462158,218.320007324 L467.39074707,218.320007324 L467.39074707,232.358001709 L333.242462158,232.358001709 Z " />
       </clipPath>
      </defs>
      <g clip-path="url(#CLIP33)">
       <g>
        <g transform="matrix(1,0,0,1,334.067504883,231.638809204)">
         <text x="1" y="-2.75999999" class="f1">318</text>
        </g>
       </g>
      </g>
      <defs>
       <clipPath id="CLIP34">
        <path d="M0.25,232.858001709 L332.742462158,232.858001709 L332.742462158,246.895996094 L0.25,246.895996094 Z " />
       </clipPath>
      </defs>
      <g clip-path="url(#CLIP34)">
       <g>
        <g transform="matrix(1,0,0,1,1.075036168,246.176803589)">
         <text x="1" y="-2.770781279" class="f0">细</text>
         <text x="12.039999962" y="-2.770781279" class="f0">菌</text>
         <text x="23.079999924" y="-2.770781279" class="f0">性</text>
         <text x="34.119998932" y="-2.770781279" class="f0">和</text>
         <text x="45.159999847" y="-2.770781279" class="f0">阿</text>
         <text x="56.200000763" y="-2.770781279" class="f0">米</text>
         <text x="67.239997864" y="-2.770781279" class="f0">巴</text>
         <text x="78.279998779" y="-2.770781279" class="f0">性</text>
         <text x="89.319999695" y="-2.770781279" class="f0">痢</text>
         <text x="100.36000061" y="-2.770781279" class="f0">疾</text>
        </g>
       </g>
      </g>
      <defs>
       <clipPath id="CLIP35">
        <path d="M333.242462158,232.858001709 L467.39074707,232.858001709 L467.39074707,246.895996094 L333.242462158,246.895996094 Z " />
       </clipPath>
      </defs>
      <g clip-path="url(#CLIP35)">
       <g>
        <g transform="matrix(1,0,0,1,334.067504883,246.176803589)">
         <text x="1" y="-2.75999999" class="f1">109368</text>
        </g>
       </g>
      </g>
      <defs>
       <clipPath id="CLIP36">
        <path d="M0.25,247.395996094 L332.742462158,247.395996094 L332.742462158,261.433990479 L0.25,261.433990479 Z " />
       </clipPath>
      </defs>
      <g clip-path="url(#CLIP36)">
       <g>
        <g transform="matrix(1,0,0,1,1.075036168,260.714813232)">
         <text x="1" y="-2.770781279" class="f0">肺</text>
         <text x="12.039999962" y="-2.770781279" class="f0">结</text>
         <text x="23.079999924" y="-2.770781279" class="f0">核</text>
        </g>
       </g>
      </g>
      <defs>
       <clipPath id="CLIP37">
        <path d="M333.242462158,247.395996094 L467.39074707,247.395996094 L467.39074707,261.433990479 L333.242462158,261.433990479 Z " />
       </clipPath>
      </defs>
      <g clip-path="url(#CLIP37)">
       <g>
        <g transform="matrix(1,0,0,1,334.067504883,260.714813232)">
         <text x="1" y="-2.75999999" class="f1">835193</text>
        </g>
       </g>
      </g>
      <defs>
       <clipPath id="CLIP38">
        <path d="M0.25,261.933990479 L332.742462158,261.933990479 L332.742462158,275.971984863 L0.25,275.971984863 Z " />
       </clipPath>
      </defs>
      <g clip-path="url(#CLIP38)">
       <g>
        <g transform="matrix(1,0,0,1,1.075036168,275.2527771)">
         <text x="1" y="-2.770781279" class="f0">伤</text>
         <text x="12.039999962" y="-2.770781279" class="f0">寒</text>
         <text x="23.079999924" y="-2.770781279" class="f0">和</text>
         <text x="34.119998932" y="-2.770781279" class="f0">副</text>
         <text x="45.159999847" y="-2.770781279" class="f0">伤</text>
         <text x="56.200000763" y="-2.770781279" class="f0">寒</text>
        </g>
       </g>
      </g>
      <defs>
       <clipPath id="CLIP39">
        <path d="M333.242462158,261.933990479 L467.39074707,261.933990479 L467.39074707,275.971984863 L333.242462158,275.971984863 Z " />
       </clipPath>
      </defs>
      <g clip-path="url(#CLIP39)">
       <g>
        <g transform="matrix(1,0,0,1,334.067504883,275.2527771)">
         <text x="1" y="-2.75999999" class="f1">10791</text>
        </g>
       </g>
      </g>
      <defs>
       <clipPath id="CLIP40">
        <path d="M0.25,276.472015381 L332.742462158,276.472015381 L332.742462158,290.510009766 L0.25,290.510009766 Z " />
       </clipPath>
      </defs>
      <g clip-path="url(#CLIP40)">
       <g>
        <g transform="matrix(1,0,0,1,1.075036168,289.790802002)">
         <text x="1" y="-2.770781279" class="f0">流</text>
         <text x="12.039999962" y="-2.770781279" class="f0">行</text>
         <text x="23.079999924" y="-2.770781279" class="f0">性</text>
         <text x="34.119998932" y="-2.770781279" class="f0">脑</text>
         <text x="45.159999847" y="-2.770781279" class="f0">脊</text>
         <text x="56.200000763" y="-2.770781279" class="f0">髓</text>
         <text x="67.239997864" y="-2.770781279" class="f0">膜</text>
         <text x="78.279998779" y="-2.770781279" class="f0">炎</text>
        </g>
       </g>
      </g>
      <defs>
       <clipPath id="CLIP41">
        <path d="M333.242462158,276.472015381 L467.39074707,276.472015381 L467.39074707,290.510009766 L333.242462158,290.510009766 Z " />
       </clipPath>
      </defs>
      <g clip-path="url(#CLIP41)">
       <g>
        <g transform="matrix(1,0,0,1,334.067504883,289.790802002)">
         <text x="1" y="-2.75999999" class="f1">118</text>
        </g>
       </g>
      </g>
      <defs>
       <clipPath id="CLIP42">
        <path d="M0.25,291.010009766 L332.742462158,291.010009766 L332.742462158,305.04800415 L0.25,305.04800415 Z " />
       </clipPath>
      </defs>
      <g clip-path="url(#CLIP42)">
       <g>
        <g transform="matrix(1,0,0,1,1.075036168,304.328796387)">
         <text x="1" y="-2.770781279" class="f0">百</text>
         <text x="12.039999962" y="-2.770781279" class="f0">日</text>
         <text x="23.079999924" y="-2.770781279" class="f0">咳</text>
        </g>
       </g>
      </g>
      <defs>
       <clipPath id="CLIP43">
        <path d="M333.242462158,291.010009766 L467.39074707,291.010009766 L467.39074707,305.04800415 L333.242462158,305.04800415 Z " />
       </clipPath>
      </defs>
      <g clip-path="url(#CLIP43)">
       <g>
        <g transform="matrix(1,0,0,1,334.067504883,304.328796387)">
         <text x="1" y="-2.75999999" class="f1">10390</text>
        </g>
       </g>
      </g>
      <defs>
       <clipPath id="CLIP44">
        <path d="M0.25,305.54800415 L332.742462158,305.54800415 L332.742462158,319.585998535 L0.25,319.585998535 Z " />
       </clipPath>
      </defs>
      <g clip-path="url(#CLIP44)">
       <g>
        <g transform="matrix(1,0,0,1,1.075036168,318.866790771)">
         <text x="1" y="-2.770781279" class="f0">白</text>
         <text x="12.039999962" y="-2.770781279" class="f0">喉</text>
        </g>
       </g>
      </g>
      <defs>
       <clipPath id="CLIP45">
        <path d="M333.242462158,305.54800415 L467.39074707,305.54800415 L467.39074707,319.585998535 L333.242462158,319.585998535 Z " />
       </clipPath>
      </defs>
      <g clip-path="url(#CLIP45)">
       <g>
        <g transform="matrix(1,0,0,1,334.067504883,318.866790771)">
         <text x="1" y="-2.75999999" class="f1">0</text>
        </g>
       </g>
      </g>
      <defs>
       <clipPath id="CLIP46">
        <path d="M0.25,320.085998535 L332.742462158,320.085998535 L332.742462158,334.12399292 L0.25,334.12399292 Z " />
       </clipPath>
      </defs>
      <g clip-path="url(#CLIP46)">
       <g>
        <g transform="matrix(1,0,0,1,1.075036168,333.404785156)">
         <text x="1" y="-2.770781279" class="f0">新</text>
         <text x="12.039999962" y="-2.770781279" class="f0">生</text>
         <text x="23.079999924" y="-2.770781279" class="f0">儿</text>
         <text x="34.119998932" y="-2.770781279" class="f0">破</text>
         <text x="45.159999847" y="-2.770781279" class="f0">伤</text>
         <text x="56.200000763" y="-2.770781279" class="f0">风</text>
        </g>
       </g>
      </g>
      <defs>
       <clipPath id="CLIP47">
        <path d="M333.242462158,320.085998535 L467.39074707,320.085998535 L467.39074707,334.12399292 L333.242462158,334.12399292 Z " />
       </clipPath>
      </defs>
      <g clip-path="url(#CLIP47)">
       <g>
        <g transform="matrix(1,0,0,1,334.067504883,333.404785156)">
         <text x="1" y="-2.75999999" class="f1">93</text>
        </g>
       </g>
      </g>
      <defs>
       <clipPath id="CLIP48">
        <path d="M0.25,334.62399292 L332.742462158,334.62399292 L332.742462158,348.661987305 L0.25,348.661987305 Z " />
       </clipPath>
      </defs>
      <g clip-path="url(#CLIP48)">
       <g>
        <g transform="matrix(1,0,0,1,1.075036168,347.942779541)">
         <text x="1" y="-2.770781279" class="f0">捏</text>
         <text x="12.039999962" y="-2.770781279" class="f0">红</text>
         <text x="23.079999924" y="-2.770781279" class="f0">热</text>
        </g>
       </g>
      </g>
      <defs>
       <clipPath id="CLIP49">
        <path d="M333.242462158,334.62399292 L467.39074707,334.62399292 L467.39074707,348.661987305 L333.242462158,348.661987305 Z " />
       </clipPath>
      </defs>
      <g clip-path="url(#CLIP49)">
       <g>
        <g transform="matrix(1,0,0,1,334.067504883,347.942779541)">
         <text x="1" y="-2.75999999" class="f1">74369</text>
        </g>
       </g>
      </g>
      <defs>
       <clipPath id="CLIP50">
        <path d="M0.25,349.161987305 L332.742462158,349.161987305 L332.742462158,363.199981689 L0.25,363.199981689 Z " />
       </clipPath>
      </defs>
      <g clip-path="url(#CLIP50)">
       <g>
        <g transform="matrix(1,0,0,1,1.075036168,362.480773926)">
         <text x="1" y="-2.770781279" class="f0">布</text>
         <text x="12.039999962" y="-2.770781279" class="f0">鲁</text>
         <text x="23.079999924" y="-2.770781279" class="f0">氏</text>
         <text x="34.119998932" y="-2.770781279" class="f0">菌</text>
         <text x="45.159999847" y="-2.770781279" class="f0">病</text>
        </g>
       </g>
      </g>
      <defs>
       <clipPath id="CLIP51">
        <path d="M333.242462158,349.161987305 L467.39074707,349.161987305 L467.39074707,363.199981689 L333.242462158,363.199981689 Z " />
       </clipPath>
      </defs>
      <g clip-path="url(#CLIP51)">
       <g>
        <g transform="matrix(1,0,0,1,334.067504883,362.480773926)">
         <text x="1" y="-2.75999999" class="f1">38554</text>
        </g>
       </g>
      </g>
      <defs>
       <clipPath id="CLIP52">
        <path d="M0.25,363.700012207 L332.742462158,363.700012207 L332.742462158,377.738006592 L0.25,377.738006592 Z " />
       </clipPath>
      </defs>
      <g clip-path="url(#CLIP52)">
       <g>
        <g transform="matrix(1,0,0,1,1.075036168,377.018798828)">
         <text x="1" y="-2.770781279" class="f0">淋</text>
         <text x="12.039999962" y="-2.770781279" class="f0">病</text>
        </g>
       </g>
      </g>
      <defs>
       <clipPath id="CLIP53">
        <path d="M333.242462158,363.700012207 L467.39074707,363.700012207 L467.39074707,377.738006592 L333.242462158,377.738006592 Z " />
       </clipPath>
      </defs>
      <g clip-path="url(#CLIP53)">
       <g>
        <g transform="matrix(1,0,0,1,334.067504883,377.018798828)">
         <text x="1" y="-2.75999999" class="f1">138855</text>
        </g>
       </g>
      </g>
      <defs>
       <clipPath id="CLIP54">
        <path d="M0.25,378.238006592 L332.742462158,378.238006592 L332.742462158,392.276000977 L0.25,392.276000977 Z " />
       </clipPath>
      </defs>
      <g clip-path="url(#CLIP54)">
       <g>
        <g transform="matrix(1,0,0,1,1.075036168,391.556793213)">
         <text x="1" y="-2.770781279" class="f0">梅</text>
         <text x="12.039999962" y="-2.770781279" class="f0">毒</text>
        </g>
       </g>
      </g>
      <defs>
       <clipPath id="CLIP55">
        <path d="M333.242462158,378.238006592 L467.39074707,378.238006592 L467.39074707,392.276000977 L333.242462158,392.276000977 Z " />
       </clipPath>
      </defs>
      <g clip-path="url(#CLIP55)">
       <g>
        <g transform="matrix(1,0,0,1,334.067504883,391.556793213)">
         <text x="1" y="-2.75999999" class="f1">475860</text>
        </g>
       </g>
      </g>
      <defs>
       <clipPath id="CLIP56">
        <path d="M0.25,392.776000977 L332.742462158,392.776000977 L332.742462158,406.813995361 L0.25,406.813995361 Z " />
       </clipPath>
      </defs>
      <g clip-path="url(#CLIP56)">
       <g>
        <g transform="matrix(1,0,0,1,1.075036168,406.094787598)">
         <text x="1" y="-2.770781279" class="f0">钩</text>
         <text x="12.039999962" y="-2.770781279" class="f0">端</text>
         <text x="23.079999924" y="-2.770781279" class="f0">螺</text>
         <text x="34.119998932" y="-2.770781279" class="f0">旋</text>
         <text x="45.159999847" y="-2.770781279" class="f0">体</text>
         <text x="56.200000763" y="-2.770781279" class="f0">病</text>
        </g>
       </g>
      </g>
      <defs>
       <clipPath id="CLIP57">
        <path d="M333.242462158,392.776000977 L467.39074707,392.776000977 L467.39074707,406.813995361 L333.242462158,406.813995361 Z " />
       </clipPath>
      </defs>
      <g clip-path="url(#CLIP57)">
       <g>
        <g transform="matrix(1,0,0,1,334.067504883,406.094787598)">
         <text x="1" y="-2.75999999" class="f1">201</text>
        </g>
       </g>
      </g>
      <defs>
       <clipPath id="CLIP58">
        <path d="M0.25,407.313995361 L332.742462158,407.313995361 L332.742462158,421.351989746 L0.25,421.351989746 Z " />
       </clipPath>
      </defs>
      <g clip-path="url(#CLIP58)">
       <g>
        <g transform="matrix(1,0,0,1,1.075036168,420.632781982)">
         <text x="1" y="-2.770781279" class="f0">血</text>
         <text x="12.039999962" y="-2.770781279" class="f0">吸</text>
         <text x="23.079999924" y="-2.770781279" class="f0">虫</text>
         <text x="34.119998932" y="-2.770781279" class="f0">病</text>
        </g>
       </g>
      </g>
      <defs>
       <clipPath id="CLIP59">
        <path d="M333.242462158,407.313995361 L467.39074707,407.313995361 L467.39074707,421.351989746 L333.242462158,421.351989746 Z " />
       </clipPath>
      </defs>
      <g clip-path="url(#CLIP59)">
       <g>
        <g transform="matrix(1,0,0,1,334.067504883,420.632781982)">
         <text x="1" y="-2.75999999" class="f1">1186</text>
        </g>
       </g>
      </g>
      <defs>
       <clipPath id="CLIP60">
        <path d="M0.25,421.851989746 L332.742462158,421.851989746 L332.742462158,435.889984131 L0.25,435.889984131 Z " />
       </clipPath>
      </defs>
      <g clip-path="url(#CLIP60)">
       <g>
        <g transform="matrix(1,0,0,1,1.075036168,435.170776367)">
         <text x="1" y="-2.770781279" class="f0">疟</text>
         <text x="12.039999962" y="-2.770781279" class="f0">疾</text>
        </g>
       </g>
      </g>
      <defs>
       <clipPath id="CLIP61">
        <path d="M333.242462158,421.851989746 L467.39074707,421.851989746 L467.39074707,435.889984131 L333.242462158,435.889984131 Z " />
       </clipPath>
      </defs>
      <g clip-path="url(#CLIP61)">
       <g>
        <g transform="matrix(1,0,0,1,334.067504883,435.170776367)">
         <text x="1" y="-2.75999999" class="f1">2697</text>
        </g>
       </g>
      </g>
      <defs>
       <clipPath id="CLIP62">
        <path d="M0.25,436.390014648 L332.742462158,436.390014648 L332.742462158,450.428009033 L0.25,450.428009033 Z " />
       </clipPath>
      </defs>
      <g clip-path="url(#CLIP62)">
       <g>
        <g transform="matrix(1,0,0,1,1.075036168,449.70880127)">
         <text x="1" y="-2.770781279" class="f0">人</text>
         <text x="12.039999962" y="-2.770781279" class="f0">感</text>
         <text x="23.079999924" y="-2.770781279" class="f0">染</text>
         <text x="34.119998932" y="-2.770781279" class="f1">H</text>
         <text x="40.998435974" y="-2.770781279" class="f1">7</text>
         <text x="46.593902588" y="-2.770781279" class="f1">N</text>
         <text x="53.720310211" y="-2.770781279" class="f1">9</text>
         <text x="59.31578064" y="-2.770781279" class="f0">离</text>
         <text x="70.355781555" y="-2.770781279" class="f0">流</text>
         <text x="81.395782471" y="-2.770781279" class="f0">感</text>
        </g>
       </g>
      </g>
      <defs>
       <clipPath id="CLIP63">
        <path d="M333.242462158,436.390014648 L467.39074707,436.390014648 L467.39074707,450.428009033 L333.242462158,450.428009033 Z " />
       </clipPath>
      </defs>
      <g clip-path="url(#CLIP63)">
       <g>
        <g transform="matrix(1,0,0,1,334.067504883,449.70880127)">
         <text x="1" y="-2.75999999" class="f1">589</text>
        </g>
       </g>
      </g>
     </g>
    </g>
    <defs>
     <clipPath id="CLIP64">
      <path d="M-0.5,-0.5 L468.5,-0.5 L468.5,451.5 L-0.5,451.5 Z " />
     </clipPath>
    </defs>
    <g clip-path="url(#CLIP64)">
     <g />
    </g>
   </g>
   <g />
   <g />
   <g />
   <g>
    <g>
     <g />
     <g shape-rendering="crispEdges" />
    </g>
    <g>
     <g />
    </g>
    <g>
     <g />
    </g>
   </g>
   <g>
    <text x="10" y="10" class="f2">Evaluation Only. Created with Aspose.Cells for Python via Java.Copyright 2003 - 2023 Aspose Pty Ltd.</text>
   </g>
  </g>
 </g>
 <defs />
 <defs>
  <style type="text/css">
   <![CDATA[
   
.f0
{
font-family:Microsoft YaHei Light;
font-size:11.039999962px;
fill:#000000;
}

.f1
{
font-family:Calibri;
font-size:11.039999962px;
fill:#000000;
}

.f2
{
font-family:Arial;
font-size:10px;
fill:#FF0000;
}

   
.p0
{
stroke:#FF0000;
stroke-width:2.907599926px;
stroke-linecap:butt;
stroke-linejoin:miter;
}

   ]]></style>
 </defs>
</svg>
