<?xml version="1.0" encoding="UTF-8" standalone="yes"?>
<svg xmlns="http://www.w3.org/2000/svg" xmlns:xlink="http://www.w3.org/1999/xlink" width="612pt" height="792pt">
 <g id="SFixTitle" />
 <g id="SContent">
  <g transform="scale(1.33333)">
   <rect width="100%" height="100%" fill="white" />
   <g>
    <g>
     <g />
     <g shape-rendering="crispEdges" />
    </g>
    <g>
     <g />
    </g>
    <g>
     <g />
    </g>
   </g>
   <g transform="matrix(1,0,0,1,50.400001526,54)">
    <defs>
     <clipPath id="CLIP0">
      <path d="M-0.5,-0.5 L434.5,-0.5 L434.5,146.5 L-0.5,146.5 Z " />
     </clipPath>
    </defs>
    <g clip-path="url(#CLIP0)">
     <g />
     <g shape-rendering="crispEdges" />
    </g>
    <defs>
     <clipPath id="CLIP1">
      <path d="M-0.5,-1.453799963 L434.5,-1.453799963 L434.5,147.546203613 L-0.5,147.546203613 Z " />
     </clipPath>
    </defs>
    <g clip-path="url(#CLIP1)">
     <g>
      <g />
      <path d="M 0,0 L 274.940490723,0" class="p0" fill="none" />
      <path d="M 0,58.152000427 L 274.940490723,58.152000427" class="p0" fill="none" />
      <path d="M 0,116.304000854 L 274.940490723,116.304000854" class="p0" fill="none" />
      <path d="M 0,0 L 0,14.538000107" class="p0" fill="none" />
      <path d="M 0,58.152000427 L 0,72.690002441" class="p0" fill="none" />
      <path d="M 0,116.304000854 L 0,130.841995239" class="p0" fill="none" />
      <path d="M 274.940490723,0 L 354.761932373,0" class="p0" fill="none" />
      <path d="M 274.940490723,58.152000427 L 354.761932373,58.152000427" class="p0" fill="none" />
      <path d="M 274.940490723,116.304000854 L 354.761932373,116.304000854" class="p0" fill="none" />
      <path d="M 274.940002441,0 L 274.940002441,14.538000107" class="p0" fill="none" />
      <path d="M 274.940002441,58.152000427 L 274.940002441,72.690002441" class="p0" fill="none" />
      <path d="M 274.940002441,116.304000854 L 274.940002441,130.841995239" class="p0" fill="none" />
      <path d="M 354.761932373,0 L 433.777099609,0" class="p0" fill="none" />
      <path d="M 354.761932373,58.152000427 L 433.777099609,58.152000427" class="p0" fill="none" />
      <path d="M 354.761932373,116.304000854 L 433.777099609,116.304000854" class="p0" fill="none" />
      <path d="M 354.761993408,58.152000427 L 354.761993408,72.690002441" class="p0" fill="none" />
      <path d="M 354.761993408,116.304000854 L 354.761993408,130.841995239" class="p0" fill="none" />
      <path d="M 433.777008057,58.152000427 L 433.777008057,72.690002441" class="p0" fill="none" />
      <path d="M 433.777008057,116.304000854 L 433.777008057,130.841995239" class="p0" fill="none" />
      <path d="M 0,14.538000107 L 274.940490723,14.538000107" class="p0" fill="none" />
      <path d="M 0,72.690002441 L 274.940490723,72.690002441" class="p0" fill="none" />
      <path d="M 0,130.841995239 L 274.940490723,130.841995239" class="p0" fill="none" />
      <path d="M 0,14.538000107 L 0,29.076000214" class="p0" fill="none" />
      <path d="M 0,72.690002441 L 0,87.228004456" class="p0" fill="none" />
      <path d="M 0,130.841995239 L 0,145.379989624" class="p0" fill="none" />
      <path d="M 274.940490723,14.538000107 L 354.761932373,14.538000107" class="p0" fill="none" />
      <path d="M 274.940490723,72.690002441 L 354.761932373,72.690002441" class="p0" fill="none" />
      <path d="M 274.940490723,130.841995239 L 354.761932373,130.841995239" class="p0" fill="none" />
      <path d="M 274.940002441,14.538000107 L 274.940002441,29.076000214" class="p0" fill="none" />
      <path d="M 274.940002441,72.690002441 L 274.940002441,87.228004456" class="p0" fill="none" />
      <path d="M 274.940002441,130.841995239 L 274.940002441,145.379989624" class="p0" fill="none" />
      <path d="M 354.761932373,14.538000107 L 433.777099609,14.538000107" class="p0" fill="none" />
      <path d="M 354.761932373,72.690002441 L 433.777099609,72.690002441" class="p0" fill="none" />
      <path d="M 354.761932373,130.841995239 L 433.777099609,130.841995239" class="p0" fill="none" />
      <path d="M 354.761993408,14.538000107 L 354.761993408,29.076000214" class="p0" fill="none" />
      <path d="M 354.761993408,72.690002441 L 354.761993408,87.228004456" class="p0" fill="none" />
      <path d="M 354.761993408,130.841995239 L 354.761993408,145.379989624" class="p0" fill="none" />
      <path d="M 433.777008057,14.538000107 L 433.777008057,29.076000214" class="p0" fill="none" />
      <path d="M 433.777008057,72.690002441 L 433.777008057,87.228004456" class="p0" fill="none" />
      <path d="M 433.777008057,130.841995239 L 433.777008057,145.379989624" class="p0" fill="none" />
      <path d="M 0,29.076000214 L 274.940490723,29.076000214" class="p0" fill="none" />
      <path d="M 0,87.227996826 L 274.940490723,87.227996826" class="p0" fill="none" />
      <path d="M 0,145.380004883 L 274.940490723,145.380004883" class="p0" fill="none" />
      <path d="M 0,29.076000214 L 0,43.613998413" class="p0" fill="none" />
      <path d="M 0,87.227996826 L 0,101.76599884" class="p0" fill="none" />
      <path d="M 274.940490723,29.076000214 L 354.761932373,29.076000214" class="p0" fill="none" />
      <path d="M 274.940490723,87.227996826 L 354.761932373,87.227996826" class="p0" fill="none" />
      <path d="M 274.940490723,145.380004883 L 354.761932373,145.380004883" class="p0" fill="none" />
      <path d="M 274.940002441,29.076000214 L 274.940002441,43.613998413" class="p0" fill="none" />
      <path d="M 274.940002441,87.227996826 L 274.940002441,101.76599884" class="p0" fill="none" />
      <path d="M 354.761932373,29.076000214 L 433.777099609,29.076000214" class="p0" fill="none" />
      <path d="M 354.761932373,87.227996826 L 433.777099609,87.227996826" class="p0" fill="none" />
      <path d="M 354.761932373,145.380004883 L 433.777099609,145.380004883" class="p0" fill="none" />
      <path d="M 354.761993408,29.076000214 L 354.761993408,43.613998413" class="p0" fill="none" />
      <path d="M 354.761993408,87.227996826 L 354.761993408,101.76599884" class="p0" fill="none" />
      <path d="M 433.777008057,29.076000214 L 433.777008057,43.613998413" class="p0" fill="none" />
      <path d="M 433.777008057,87.227996826 L 433.777008057,101.76599884" class="p0" fill="none" />
      <path d="M 0,43.613998413 L 274.940490723,43.613998413" class="p0" fill="none" />
      <path d="M 0,101.76599884 L 274.940490723,101.76599884" class="p0" fill="none" />
      <path d="M 0,43.613998413 L 0,58.152000427" class="p0" fill="none" />
      <path d="M 0,101.76599884 L 0,116.304000854" class="p0" fill="none" />
      <path d="M 274.940490723,43.613998413 L 354.761932373,43.613998413" class="p0" fill="none" />
      <path d="M 274.940490723,101.76599884 L 354.761932373,101.76599884" class="p0" fill="none" />
      <path d="M 274.940002441,43.613998413 L 274.940002441,58.152000427" class="p0" fill="none" />
      <path d="M 274.940002441,101.76599884 L 274.940002441,116.304000854" class="p0" fill="none" />
      <path d="M 354.761932373,43.613998413 L 433.777099609,43.613998413" class="p0" fill="none" />
      <path d="M 354.761932373,101.76599884 L 433.777099609,101.76599884" class="p0" fill="none" />
      <path d="M 354.761993408,43.613998413 L 354.761993408,58.152000427" class="p0" fill="none" />
      <path d="M 354.761993408,101.76599884 L 354.761993408,116.304000854" class="p0" fill="none" />
      <path d="M 433.777008057,43.613998413 L 433.777008057,58.152000427" class="p0" fill="none" />
      <path d="M 433.777008057,101.76599884 L 433.777008057,116.304000854" class="p0" fill="none" />
     </g>
    </g>
    <defs>
     <clipPath id="CLIP2">
      <path d="M-0.5,-0.5 L434.5,-0.5 L434.5,146.5 L-0.5,146.5 Z " />
     </clipPath>
    </defs>
    <g clip-path="url(#CLIP2)">
     <g>
      <defs>
       <clipPath id="CLIP3">
        <path d="M0.25,0.25 L274.690490723,0.25 L274.690490723,14.288000107 L0.25,14.288000107 Z " />
       </clipPath>
      </defs>
      <g clip-path="url(#CLIP3)">
       <g>
        <g transform="matrix(1,0,0,1,1.075036168,13.568799973)">
         <text x="1" y="-2.770781279" class="f0">(</text>
         <text x="4.347578049" y="-2.770781279" class="f1">人</text>
         <text x="15.387578011" y="-2.770781279" class="f1">民</text>
         <text x="26.427577972" y="-2.770781279" class="f1">币</text>
         <text x="37.467578888" y="-2.770781279" class="f1">百</text>
         <text x="48.507579803" y="-2.770781279" class="f1">万</text>
         <text x="59.547580719" y="-2.770781279" class="f1">元</text>
         <text x="70.58757782" y="-2.770781279" class="f0">)</text>
        </g>
       </g>
      </g>
      <defs>
       <clipPath id="CLIP4">
        <path d="M275.190490723,0.25 L537.536865234,0.25 L537.536865234,14.288000107 L275.190490723,14.288000107 Z " />
       </clipPath>
      </defs>
      <g clip-path="url(#CLIP4)">
       <g>
        <g transform="matrix(1,0,0,1,276.015533447,13.568799973)">
         <text x="1" y="-2.75999999" class="f0">2018E</text>
        </g>
       </g>
      </g>
      <defs>
       <clipPath id="CLIP5">
        <path d="M275.190490723,14.788000107 L354.511932373,14.788000107 L354.511932373,28.826000214 L275.190490723,28.826000214 Z " />
       </clipPath>
      </defs>
      <g clip-path="url(#CLIP5)">
       <g>
        <g transform="matrix(1,0,0,1,276.015533447,28.106800079)">
         <text x="1" y="-2.770781279" class="f1">调</text>
         <text x="12.039999962" y="-2.770781279" class="f1">整</text>
         <text x="23.079999924" y="-2.770781279" class="f1">前</text>
        </g>
       </g>
      </g>
      <defs>
       <clipPath id="CLIP6">
        <path d="M355.011932373,14.788000107 L433.527099609,14.788000107 L433.527099609,28.826000214 L355.011932373,28.826000214 Z " />
       </clipPath>
      </defs>
      <g clip-path="url(#CLIP6)">
       <g>
        <g transform="matrix(1,0,0,1,355.836975098,28.106800079)">
         <text x="1" y="-2.770781279" class="f1">调</text>
         <text x="12.039999962" y="-2.770781279" class="f1">整</text>
         <text x="23.079999924" y="-2.770781279" class="f1">后</text>
        </g>
       </g>
      </g>
      <defs>
       <clipPath id="CLIP7">
        <path d="M0.25,29.326000214 L274.690490723,29.326000214 L274.690490723,43.363998413 L0.25,43.363998413 Z " />
       </clipPath>
      </defs>
      <g clip-path="url(#CLIP7)">
       <g>
        <g transform="matrix(1,0,0,1,1.075036168,42.644798279)">
         <text x="1" y="-2.770781279" class="f1">营</text>
         <text x="12.039999962" y="-2.770781279" class="f1">业</text>
         <text x="23.079999924" y="-2.770781279" class="f1">收</text>
         <text x="34.119998932" y="-2.770781279" class="f1">入</text>
        </g>
       </g>
      </g>
      <defs>
       <clipPath id="CLIP8">
        <path d="M275.190490723,29.326000214 L354.511932373,29.326000214 L354.511932373,43.363998413 L275.190490723,43.363998413 Z " />
       </clipPath>
      </defs>
      <g clip-path="url(#CLIP8)">
       <g>
        <g transform="matrix(1,0,0,1,276.015533447,42.644798279)">
         <text x="1" y="-2.75999999" class="f0">158</text>
        </g>
       </g>
      </g>
      <defs>
       <clipPath id="CLIP9">
        <path d="M355.011932373,29.326000214 L433.527099609,29.326000214 L433.527099609,43.363998413 L355.011932373,43.363998413 Z " />
       </clipPath>
      </defs>
      <g clip-path="url(#CLIP9)">
       <g>
        <g transform="matrix(1,0,0,1,355.836975098,42.644798279)">
         <text x="1" y="-2.75999999" class="f0">132</text>
        </g>
       </g>
      </g>
      <defs>
       <clipPath id="CLIP10">
        <path d="M0.25,43.863998413 L274.690490723,43.863998413 L274.690490723,57.902000427 L0.25,57.902000427 Z " />
       </clipPath>
      </defs>
      <g clip-path="url(#CLIP10)">
       <g>
        <g transform="matrix(1,0,0,1,1.075036168,57.182800293)">
         <text x="1" y="-2.770781279" class="f1">毛</text>
         <text x="12.039999962" y="-2.770781279" class="f1">利</text>
         <text x="23.079999924" y="-2.770781279" class="f1">润</text>
        </g>
       </g>
      </g>
      <defs>
       <clipPath id="CLIP11">
        <path d="M275.190490723,43.863998413 L354.511932373,43.863998413 L354.511932373,57.902000427 L275.190490723,57.902000427 Z " />
       </clipPath>
      </defs>
      <g clip-path="url(#CLIP11)">
       <g>
        <g transform="matrix(1,0,0,1,276.015533447,57.182800293)">
         <text x="1" y="-2.75999999" class="f0">100</text>
        </g>
       </g>
      </g>
      <defs>
       <clipPath id="CLIP12">
        <path d="M355.011932373,43.863998413 L433.527099609,43.863998413 L433.527099609,57.902000427 L355.011932373,57.902000427 Z " />
       </clipPath>
      </defs>
      <g clip-path="url(#CLIP12)">
       <g>
        <g transform="matrix(1,0,0,1,355.836975098,57.182800293)">
         <text x="1" y="-2.75999999" class="f0">85</text>
        </g>
       </g>
      </g>
      <defs>
       <clipPath id="CLIP13">
        <path d="M0.25,58.402000427 L274.690490723,58.402000427 L274.690490723,72.440002441 L0.25,72.440002441 Z " />
       </clipPath>
      </defs>
      <g clip-path="url(#CLIP13)">
       <g>
        <g transform="matrix(1,0,0,1,1.075036168,71.720802307)">
         <text x="1" y="-2.770781279" class="f1">营</text>
         <text x="12.039999962" y="-2.770781279" class="f1">业</text>
         <text x="23.079999924" y="-2.770781279" class="f1">利</text>
         <text x="34.119998932" y="-2.770781279" class="f1">润</text>
        </g>
       </g>
      </g>
      <defs>
       <clipPath id="CLIP14">
        <path d="M275.190490723,58.402000427 L354.511932373,58.402000427 L354.511932373,72.440002441 L275.190490723,72.440002441 Z " />
       </clipPath>
      </defs>
      <g clip-path="url(#CLIP14)">
       <g>
        <g transform="matrix(1,0,0,1,276.015533447,71.720802307)">
         <text x="1" y="-2.75999999" class="f0">73</text>
        </g>
       </g>
      </g>
      <defs>
       <clipPath id="CLIP15">
        <path d="M355.011932373,58.402000427 L433.527099609,58.402000427 L433.527099609,72.440002441 L355.011932373,72.440002441 Z " />
       </clipPath>
      </defs>
      <g clip-path="url(#CLIP15)">
       <g>
        <g transform="matrix(1,0,0,1,355.836975098,71.720802307)">
         <text x="1" y="-2.75999999" class="f0">61</text>
        </g>
       </g>
      </g>
      <defs>
       <clipPath id="CLIP16">
        <path d="M0.25,72.940002441 L274.690490723,72.940002441 L274.690490723,86.978004456 L0.25,86.978004456 Z " />
       </clipPath>
      </defs>
      <g clip-path="url(#CLIP16)">
       <g>
        <g transform="matrix(1,0,0,1,1.075036168,86.258804321)">
         <text x="1" y="-2.770781279" class="f1">归</text>
         <text x="12.039999962" y="-2.770781279" class="f1">母</text>
         <text x="23.079999924" y="-2.770781279" class="f1">净</text>
         <text x="34.119998932" y="-2.770781279" class="f1">利</text>
         <text x="45.159999847" y="-2.770781279" class="f1">润</text>
        </g>
       </g>
      </g>
      <defs>
       <clipPath id="CLIP17">
        <path d="M275.190490723,72.940002441 L354.511932373,72.940002441 L354.511932373,86.978004456 L275.190490723,86.978004456 Z " />
       </clipPath>
      </defs>
      <g clip-path="url(#CLIP17)">
       <g>
        <g transform="matrix(1,0,0,1,276.015533447,86.258804321)">
         <text x="1" y="-2.75999999" class="f0">58</text>
        </g>
       </g>
      </g>
      <defs>
       <clipPath id="CLIP18">
        <path d="M355.011932373,72.940002441 L433.527099609,72.940002441 L433.527099609,86.978004456 L355.011932373,86.978004456 Z " />
       </clipPath>
      </defs>
      <g clip-path="url(#CLIP18)">
       <g>
        <g transform="matrix(1,0,0,1,355.836975098,86.258804321)">
         <text x="1" y="-2.75999999" class="f0">49</text>
        </g>
       </g>
      </g>
      <defs>
       <clipPath id="CLIP19">
        <path d="M0.25,87.477996826 L274.690490723,87.477996826 L274.690490723,101.51599884 L0.25,101.51599884 Z " />
       </clipPath>
      </defs>
      <g clip-path="url(#CLIP19)">
       <g>
        <g transform="matrix(1,0,0,1,1.075036168,100.796798706)">
         <text x="1" y="-2.770781279" class="f1">全</text>
         <text x="12.039999962" y="-2.770781279" class="f1">面</text>
         <text x="23.079999924" y="-2.770781279" class="f1">摊</text>
         <text x="34.119998932" y="-2.770781279" class="f1">薄</text>
         <text x="45.159999847" y="-2.770781279" class="f1">每</text>
         <text x="56.200000763" y="-2.770781279" class="f1">股</text>
         <text x="67.239997864" y="-2.770781279" class="f1">收</text>
         <text x="78.279998779" y="-2.770781279" class="f1">益</text>
         <text x="89.319999695" y="-2.770781279" class="f0">(</text>
         <text x="92.667579651" y="-2.770781279" class="f1">元</text>
         <text x="103.707580566" y="-2.770781279" class="f0">)</text>
        </g>
       </g>
      </g>
      <defs>
       <clipPath id="CLIP20">
        <path d="M275.190490723,87.477996826 L354.511932373,87.477996826 L354.511932373,101.51599884 L275.190490723,101.51599884 Z " />
       </clipPath>
      </defs>
      <g clip-path="url(#CLIP20)">
       <g>
        <g transform="matrix(1,0,0,1,276.015533447,100.796798706)">
         <text x="1" y="-2.75999999" class="f0">0.16</text>
        </g>
       </g>
      </g>
      <defs>
       <clipPath id="CLIP21">
        <path d="M355.011932373,87.477996826 L433.527099609,87.477996826 L433.527099609,101.51599884 L355.011932373,101.51599884 Z " />
       </clipPath>
      </defs>
      <g clip-path="url(#CLIP21)">
       <g>
        <g transform="matrix(1,0,0,1,355.836975098,100.796798706)">
         <text x="1" y="-2.75999999" class="f0">0.14</text>
        </g>
       </g>
      </g>
      <defs>
       <clipPath id="CLIP22">
        <path d="M0.25,102.01599884 L274.690490723,102.01599884 L274.690490723,116.054000854 L0.25,116.054000854 Z " />
       </clipPath>
      </defs>
      <g clip-path="url(#CLIP22)">
       <g>
        <g transform="matrix(1,0,0,1,1.075036168,115.33480072)">
         <text x="1" y="-2.770781279" class="f1">毛</text>
         <text x="12.039999962" y="-2.770781279" class="f1">利</text>
         <text x="23.079999924" y="-2.770781279" class="f1">率</text>
        </g>
       </g>
      </g>
      <defs>
       <clipPath id="CLIP23">
        <path d="M275.190490723,102.01599884 L354.511932373,102.01599884 L354.511932373,116.054000854 L275.190490723,116.054000854 Z " />
       </clipPath>
      </defs>
      <g clip-path="url(#CLIP23)">
       <g>
        <g transform="matrix(1,0,0,1,276.015533447,115.33480072)">
         <text x="1" y="-2.75999999" class="f0">63.2%</text>
        </g>
       </g>
      </g>
      <defs>
       <clipPath id="CLIP24">
        <path d="M355.011932373,102.01599884 L433.527099609,102.01599884 L433.527099609,116.054000854 L355.011932373,116.054000854 Z " />
       </clipPath>
      </defs>
      <g clip-path="url(#CLIP24)">
       <g>
        <g transform="matrix(1,0,0,1,355.836975098,115.33480072)">
         <text x="1" y="-2.75999999" class="f0">64.1%</text>
        </g>
       </g>
      </g>
      <defs>
       <clipPath id="CLIP25">
        <path d="M0.25,116.554000854 L274.690490723,116.554000854 L274.690490723,130.591995239 L0.25,130.591995239 Z " />
       </clipPath>
      </defs>
      <g clip-path="url(#CLIP25)">
       <g>
        <g transform="matrix(1,0,0,1,1.075036168,129.872802734)">
         <text x="1" y="-2.770781279" class="f1">营</text>
         <text x="12.039999962" y="-2.770781279" class="f1">业</text>
         <text x="23.079999924" y="-2.770781279" class="f1">利</text>
         <text x="34.119998932" y="-2.770781279" class="f1">润</text>
         <text x="45.159999847" y="-2.770781279" class="f1">率</text>
        </g>
       </g>
      </g>
      <defs>
       <clipPath id="CLIP26">
        <path d="M275.190490723,116.554000854 L354.511932373,116.554000854 L354.511932373,130.591995239 L275.190490723,130.591995239 Z " />
       </clipPath>
      </defs>
      <g clip-path="url(#CLIP26)">
       <g>
        <g transform="matrix(1,0,0,1,276.015533447,129.872802734)">
         <text x="1" y="-2.75999999" class="f0">46.2%</text>
        </g>
       </g>
      </g>
      <defs>
       <clipPath id="CLIP27">
        <path d="M355.011932373,116.554000854 L433.527099609,116.554000854 L433.527099609,130.591995239 L355.011932373,130.591995239 Z " />
       </clipPath>
      </defs>
      <g clip-path="url(#CLIP27)">
       <g>
        <g transform="matrix(1,0,0,1,355.836975098,129.872802734)">
         <text x="1" y="-2.75999999" class="f0">46.6%</text>
        </g>
       </g>
      </g>
      <defs>
       <clipPath id="CLIP28">
        <path d="M0.25,131.091995239 L274.690490723,131.091995239 L274.690490723,145.129989624 L0.25,145.129989624 Z " />
       </clipPath>
      </defs>
      <g clip-path="url(#CLIP28)">
       <g>
        <g transform="matrix(1,0,0,1,1.075036168,144.410797119)">
         <text x="1" y="-2.770781279" class="f1">净</text>
         <text x="12.039999962" y="-2.770781279" class="f1">利</text>
         <text x="23.079999924" y="-2.770781279" class="f1">润</text>
         <text x="34.119998932" y="-2.770781279" class="f1">率</text>
        </g>
       </g>
      </g>
      <defs>
       <clipPath id="CLIP29">
        <path d="M275.190490723,131.091995239 L354.511932373,131.091995239 L354.511932373,145.129989624 L275.190490723,145.129989624 Z " />
       </clipPath>
      </defs>
      <g clip-path="url(#CLIP29)">
       <g>
        <g transform="matrix(1,0,0,1,276.015533447,144.410797119)">
         <text x="1" y="-2.75999999" class="f0">36.8%</text>
        </g>
       </g>
      </g>
      <defs>
       <clipPath id="CLIP30">
        <path d="M355.011932373,131.091995239 L433.527099609,131.091995239 L433.527099609,145.129989624 L355.011932373,145.129989624 Z " />
       </clipPath>
      </defs>
      <g clip-path="url(#CLIP30)">
       <g>
        <g transform="matrix(1,0,0,1,355.836975098,144.410797119)">
         <text x="1" y="-2.75999999" class="f0">37.4%</text>
        </g>
       </g>
      </g>
     </g>
    </g>
    <defs>
     <clipPath id="CLIP31">
      <path d="M-0.5,-0.5 L434.5,-0.5 L434.5,146.5 L-0.5,146.5 Z " />
     </clipPath>
    </defs>
    <g clip-path="url(#CLIP31)">
     <g />
    </g>
   </g>
   <g />
   <g />
   <g />
   <g>
    <g>
     <g />
     <g shape-rendering="crispEdges" />
    </g>
    <g>
     <g />
    </g>
    <g>
     <g />
    </g>
   </g>
   <g>
    <text x="10" y="10" class="f2">Evaluation Only. Created with Aspose.Cells for Python via Java.Copyright 2003 - 2023 Aspose Pty Ltd.</text>
   </g>
  </g>
 </g>
 <defs />
 <defs>
  <style type="text/css">
   <![CDATA[
   
.f0
{
font-family:Calibri;
font-size:11.039999962px;
fill:#000000;
}

.f1
{
font-family:Microsoft YaHei Light;
font-size:11.039999962px;
fill:#000000;
}

.f2
{
font-family:Arial;
font-size:10px;
fill:#FF0000;
}

   
.p0
{
stroke:#FF0000;
stroke-width:2.907599926px;
stroke-linecap:butt;
stroke-linejoin:miter;
}

   ]]></style>
 </defs>
</svg>
