<?xml version="1.0" encoding="UTF-8" standalone="yes"?>
<svg xmlns="http://www.w3.org/2000/svg" xmlns:xlink="http://www.w3.org/1999/xlink" width="612pt" height="792pt">
 <g id="SFixTitle" />
 <g id="SContent">
  <g transform="scale(1.33333)">
   <rect width="100%" height="100%" fill="white" />
   <g>
    <g>
     <g />
     <g shape-rendering="crispEdges" />
    </g>
    <g>
     <g />
    </g>
    <g>
     <g />
    </g>
   </g>
   <g transform="matrix(1,0,0,1,50.400001526,54)">
    <defs>
     <clipPath id="CLIP0">
      <path d="M-0.5,-0.5 L472.5,-0.5 L472.5,160.5 L-0.5,160.5 Z " />
     </clipPath>
    </defs>
    <g clip-path="url(#CLIP0)">
     <g />
     <g shape-rendering="crispEdges" />
    </g>
    <defs>
     <clipPath id="CLIP1">
      <path d="M-0.5,-1.453799963 L472.5,-1.453799963 L472.5,161.546203613 L-0.5,161.546203613 Z " />
     </clipPath>
    </defs>
    <g clip-path="url(#CLIP1)">
     <g>
      <g />
      <path d="M 0,0 L 299.128814697,0" class="p0" fill="none" />
      <path d="M 0,58.152000427 L 299.128814697,58.152000427" class="p0" fill="none" />
      <path d="M 0,116.304000854 L 299.128814697,116.304000854" class="p0" fill="none" />
      <path d="M 0,0 L 0,14.538000107" class="p0" fill="none" />
      <path d="M 0,58.152000427 L 0,72.690002441" class="p0" fill="none" />
      <path d="M 0,116.304000854 L 0,130.841995239" class="p0" fill="none" />
      <path d="M 299.128814697,0 L 385.40045166,0" class="p0" fill="none" />
      <path d="M 299.128814697,58.152000427 L 385.40045166,58.152000427" class="p0" fill="none" />
      <path d="M 299.128814697,116.304000854 L 385.40045166,116.304000854" class="p0" fill="none" />
      <path d="M 299.128997803,0 L 299.128997803,14.538000107" class="p0" fill="none" />
      <path d="M 299.128997803,58.152000427 L 299.128997803,72.690002441" class="p0" fill="none" />
      <path d="M 299.128997803,116.304000854 L 299.128997803,130.841995239" class="p0" fill="none" />
      <path d="M 385.40045166,0 L 471.672119141,0" class="p0" fill="none" />
      <path d="M 385.40045166,58.152000427 L 471.672119141,58.152000427" class="p0" fill="none" />
      <path d="M 385.40045166,116.304000854 L 471.672119141,116.304000854" class="p0" fill="none" />
      <path d="M 385.399993896,58.152000427 L 385.399993896,72.690002441" class="p0" fill="none" />
      <path d="M 385.399993896,116.304000854 L 385.399993896,130.841995239" class="p0" fill="none" />
      <path d="M 471.67199707,58.152000427 L 471.67199707,72.690002441" class="p0" fill="none" />
      <path d="M 471.67199707,116.304000854 L 471.67199707,130.841995239" class="p0" fill="none" />
      <path d="M 0,14.538000107 L 299.128814697,14.538000107" class="p0" fill="none" />
      <path d="M 0,72.690002441 L 299.128814697,72.690002441" class="p0" fill="none" />
      <path d="M 0,130.841995239 L 299.128814697,130.841995239" class="p0" fill="none" />
      <path d="M 0,14.538000107 L 0,29.076000214" class="p0" fill="none" />
      <path d="M 0,72.690002441 L 0,87.228004456" class="p0" fill="none" />
      <path d="M 0,130.841995239 L 0,145.379989624" class="p0" fill="none" />
      <path d="M 299.128814697,14.538000107 L 385.40045166,14.538000107" class="p0" fill="none" />
      <path d="M 299.128814697,72.690002441 L 385.40045166,72.690002441" class="p0" fill="none" />
      <path d="M 299.128814697,130.841995239 L 385.40045166,130.841995239" class="p0" fill="none" />
      <path d="M 299.128997803,14.538000107 L 299.128997803,29.076000214" class="p0" fill="none" />
      <path d="M 299.128997803,72.690002441 L 299.128997803,87.228004456" class="p0" fill="none" />
      <path d="M 299.128997803,130.841995239 L 299.128997803,145.379989624" class="p0" fill="none" />
      <path d="M 385.40045166,14.538000107 L 471.672119141,14.538000107" class="p0" fill="none" />
      <path d="M 385.40045166,72.690002441 L 471.672119141,72.690002441" class="p0" fill="none" />
      <path d="M 385.40045166,130.841995239 L 471.672119141,130.841995239" class="p0" fill="none" />
      <path d="M 385.399993896,14.538000107 L 385.399993896,29.076000214" class="p0" fill="none" />
      <path d="M 385.399993896,72.690002441 L 385.399993896,87.228004456" class="p0" fill="none" />
      <path d="M 385.399993896,130.841995239 L 385.399993896,145.379989624" class="p0" fill="none" />
      <path d="M 471.67199707,14.538000107 L 471.67199707,29.076000214" class="p0" fill="none" />
      <path d="M 471.67199707,72.690002441 L 471.67199707,87.228004456" class="p0" fill="none" />
      <path d="M 471.67199707,130.841995239 L 471.67199707,145.379989624" class="p0" fill="none" />
      <path d="M 0,29.076000214 L 299.128814697,29.076000214" class="p0" fill="none" />
      <path d="M 0,87.227996826 L 299.128814697,87.227996826" class="p0" fill="none" />
      <path d="M 0,145.380004883 L 299.128814697,145.380004883" class="p0" fill="none" />
      <path d="M 0,29.076000214 L 0,43.613998413" class="p0" fill="none" />
      <path d="M 0,87.227996826 L 0,101.76599884" class="p0" fill="none" />
      <path d="M 0,145.380004883 L 0,159.917999268" class="p0" fill="none" />
      <path d="M 299.128814697,29.076000214 L 385.40045166,29.076000214" class="p0" fill="none" />
      <path d="M 299.128814697,87.227996826 L 385.40045166,87.227996826" class="p0" fill="none" />
      <path d="M 299.128814697,145.380004883 L 385.40045166,145.380004883" class="p0" fill="none" />
      <path d="M 299.128997803,29.076000214 L 299.128997803,43.613998413" class="p0" fill="none" />
      <path d="M 299.128997803,87.227996826 L 299.128997803,101.76599884" class="p0" fill="none" />
      <path d="M 299.128997803,145.380004883 L 299.128997803,159.917999268" class="p0" fill="none" />
      <path d="M 385.40045166,29.076000214 L 471.672119141,29.076000214" class="p0" fill="none" />
      <path d="M 385.40045166,87.227996826 L 471.672119141,87.227996826" class="p0" fill="none" />
      <path d="M 385.40045166,145.380004883 L 471.672119141,145.380004883" class="p0" fill="none" />
      <path d="M 385.399993896,29.076000214 L 385.399993896,43.613998413" class="p0" fill="none" />
      <path d="M 385.399993896,87.227996826 L 385.399993896,101.76599884" class="p0" fill="none" />
      <path d="M 385.399993896,145.380004883 L 385.399993896,159.917999268" class="p0" fill="none" />
      <path d="M 471.67199707,29.076000214 L 471.67199707,43.613998413" class="p0" fill="none" />
      <path d="M 471.67199707,87.227996826 L 471.67199707,101.76599884" class="p0" fill="none" />
      <path d="M 471.67199707,145.380004883 L 471.67199707,159.917999268" class="p0" fill="none" />
      <path d="M 0,43.613998413 L 299.128814697,43.613998413" class="p0" fill="none" />
      <path d="M 0,101.76599884 L 299.128814697,101.76599884" class="p0" fill="none" />
      <path d="M 0,159.917999268 L 299.128814697,159.917999268" class="p0" fill="none" />
      <path d="M 0,43.613998413 L 0,58.152000427" class="p0" fill="none" />
      <path d="M 0,101.76599884 L 0,116.304000854" class="p0" fill="none" />
      <path d="M 299.128814697,43.613998413 L 385.40045166,43.613998413" class="p0" fill="none" />
      <path d="M 299.128814697,101.76599884 L 385.40045166,101.76599884" class="p0" fill="none" />
      <path d="M 299.128814697,159.917999268 L 385.40045166,159.917999268" class="p0" fill="none" />
      <path d="M 299.128997803,43.613998413 L 299.128997803,58.152000427" class="p0" fill="none" />
      <path d="M 299.128997803,101.76599884 L 299.128997803,116.304000854" class="p0" fill="none" />
      <path d="M 385.40045166,43.613998413 L 471.672119141,43.613998413" class="p0" fill="none" />
      <path d="M 385.40045166,101.76599884 L 471.672119141,101.76599884" class="p0" fill="none" />
      <path d="M 385.40045166,159.917999268 L 471.672119141,159.917999268" class="p0" fill="none" />
      <path d="M 385.399993896,43.613998413 L 385.399993896,58.152000427" class="p0" fill="none" />
      <path d="M 385.399993896,101.76599884 L 385.399993896,116.304000854" class="p0" fill="none" />
      <path d="M 471.67199707,43.613998413 L 471.67199707,58.152000427" class="p0" fill="none" />
      <path d="M 471.67199707,101.76599884 L 471.67199707,116.304000854" class="p0" fill="none" />
     </g>
    </g>
    <defs>
     <clipPath id="CLIP2">
      <path d="M-0.5,-0.5 L472.5,-0.5 L472.5,160.5 L-0.5,160.5 Z " />
     </clipPath>
    </defs>
    <g clip-path="url(#CLIP2)">
     <g>
      <defs>
       <clipPath id="CLIP3">
        <path d="M0.25,0.25 L298.878814697,0.25 L298.878814697,14.288000107 L0.25,14.288000107 Z " />
       </clipPath>
      </defs>
      <g clip-path="url(#CLIP3)">
       <g>
        <g transform="matrix(1,0,0,1,113.096832275,13.568799973)">
         <text x="0" y="-2.770781279" class="f0">(</text>
         <text x="3.347578049" y="-2.770781279" class="f1">人</text>
         <text x="14.387578011" y="-2.770781279" class="f1">民</text>
         <text x="25.427577972" y="-2.770781279" class="f1">币</text>
         <text x="36.467578888" y="-2.770781279" class="f1">百</text>
         <text x="47.507579803" y="-2.770781279" class="f1">万</text>
         <text x="58.547580719" y="-2.770781279" class="f1">元</text>
         <text x="69.58757782" y="-2.770781279" class="f0">)</text>
        </g>
       </g>
      </g>
      <defs>
       <clipPath id="CLIP4">
        <path d="M299.378814697,0.25 L586.719726562,0.25 L586.719726562,14.288000107 L299.378814697,14.288000107 Z " />
       </clipPath>
      </defs>
      <g clip-path="url(#CLIP4)">
       <g>
        <g transform="matrix(1,0,0,1,429.163024902,13.568799973)">
         <text x="0" y="-2.75999999" class="f0">2018E</text>
        </g>
       </g>
      </g>
      <defs>
       <clipPath id="CLIP5">
        <path d="M299.378814697,14.788000107 L385.15045166,14.788000107 L385.15045166,28.826000214 L299.378814697,28.826000214 Z " />
       </clipPath>
      </defs>
      <g clip-path="url(#CLIP5)">
       <g>
        <g transform="matrix(1,0,0,1,300.203857422,28.106800079)">
         <text x="1" y="-2.770781279" class="f1">调</text>
         <text x="12.039999962" y="-2.770781279" class="f1">整</text>
         <text x="23.079999924" y="-2.770781279" class="f1">前</text>
        </g>
       </g>
      </g>
      <defs>
       <clipPath id="CLIP6">
        <path d="M385.65045166,14.788000107 L471.422119141,14.788000107 L471.422119141,28.826000214 L385.65045166,28.826000214 Z " />
       </clipPath>
      </defs>
      <g clip-path="url(#CLIP6)">
       <g>
        <g transform="matrix(1,0,0,1,386.475494385,28.106800079)">
         <text x="1" y="-2.770781279" class="f1">调</text>
         <text x="12.039999962" y="-2.770781279" class="f1">整</text>
         <text x="23.079999924" y="-2.770781279" class="f1">后</text>
        </g>
       </g>
      </g>
      <defs>
       <clipPath id="CLIP7">
        <path d="M0.25,29.326000214 L298.878814697,29.326000214 L298.878814697,43.363998413 L0.25,43.363998413 Z " />
       </clipPath>
      </defs>
      <g clip-path="url(#CLIP7)">
       <g>
        <g transform="matrix(1,0,0,1,127.484405518,42.644798279)">
         <text x="0" y="-2.770781279" class="f1">营</text>
         <text x="11.039999962" y="-2.770781279" class="f1">业</text>
         <text x="22.079999924" y="-2.770781279" class="f1">收</text>
         <text x="33.119998932" y="-2.770781279" class="f1">入</text>
        </g>
       </g>
      </g>
      <defs>
       <clipPath id="CLIP8">
        <path d="M299.378814697,29.326000214 L385.15045166,29.326000214 L385.15045166,43.363998413 L299.378814697,43.363998413 Z " />
       </clipPath>
      </defs>
      <g clip-path="url(#CLIP8)">
       <g>
        <g transform="matrix(1,0,0,1,300.203857422,42.644798279)">
         <text x="1" y="-2.75999999" class="f0">158</text>
        </g>
       </g>
      </g>
      <defs>
       <clipPath id="CLIP9">
        <path d="M385.65045166,29.326000214 L471.422119141,29.326000214 L471.422119141,43.363998413 L385.65045166,43.363998413 Z " />
       </clipPath>
      </defs>
      <g clip-path="url(#CLIP9)">
       <g>
        <g transform="matrix(1,0,0,1,386.475494385,42.644798279)">
         <text x="1" y="-2.75999999" class="f0">132</text>
        </g>
       </g>
      </g>
      <defs>
       <clipPath id="CLIP10">
        <path d="M0.25,43.863998413 L298.878814697,43.863998413 L298.878814697,57.902000427 L0.25,57.902000427 Z " />
       </clipPath>
      </defs>
      <g clip-path="url(#CLIP10)">
       <g>
        <g transform="matrix(1,0,0,1,133.00440979,57.182800293)">
         <text x="0" y="-2.770781279" class="f1">毛</text>
         <text x="11.039999962" y="-2.770781279" class="f1">利</text>
         <text x="22.079999924" y="-2.770781279" class="f1">润</text>
        </g>
       </g>
      </g>
      <defs>
       <clipPath id="CLIP11">
        <path d="M299.378814697,43.863998413 L385.15045166,43.863998413 L385.15045166,57.902000427 L299.378814697,57.902000427 Z " />
       </clipPath>
      </defs>
      <g clip-path="url(#CLIP11)">
       <g>
        <g transform="matrix(1,0,0,1,300.203857422,57.182800293)">
         <text x="1" y="-2.75999999" class="f0">100</text>
        </g>
       </g>
      </g>
      <defs>
       <clipPath id="CLIP12">
        <path d="M385.65045166,43.863998413 L471.422119141,43.863998413 L471.422119141,57.902000427 L385.65045166,57.902000427 Z " />
       </clipPath>
      </defs>
      <g clip-path="url(#CLIP12)">
       <g>
        <g transform="matrix(1,0,0,1,386.475494385,57.182800293)">
         <text x="1" y="-2.75999999" class="f0">85</text>
        </g>
       </g>
      </g>
      <defs>
       <clipPath id="CLIP13">
        <path d="M0.25,58.402000427 L298.878814697,58.402000427 L298.878814697,72.440002441 L0.25,72.440002441 Z " />
       </clipPath>
      </defs>
      <g clip-path="url(#CLIP13)">
       <g>
        <g transform="matrix(1,0,0,1,127.484405518,71.720802307)">
         <text x="0" y="-2.770781279" class="f1">营</text>
         <text x="11.039999962" y="-2.770781279" class="f1">业</text>
         <text x="22.079999924" y="-2.770781279" class="f1">利</text>
         <text x="33.119998932" y="-2.770781279" class="f1">润</text>
        </g>
       </g>
      </g>
      <defs>
       <clipPath id="CLIP14">
        <path d="M299.378814697,58.402000427 L385.15045166,58.402000427 L385.15045166,72.440002441 L299.378814697,72.440002441 Z " />
       </clipPath>
      </defs>
      <g clip-path="url(#CLIP14)">
       <g>
        <g transform="matrix(1,0,0,1,300.203857422,71.720802307)">
         <text x="1" y="-2.75999999" class="f0">73</text>
        </g>
       </g>
      </g>
      <defs>
       <clipPath id="CLIP15">
        <path d="M385.65045166,58.402000427 L471.422119141,58.402000427 L471.422119141,72.440002441 L385.65045166,72.440002441 Z " />
       </clipPath>
      </defs>
      <g clip-path="url(#CLIP15)">
       <g>
        <g transform="matrix(1,0,0,1,386.475494385,71.720802307)">
         <text x="1" y="-2.75999999" class="f0">61</text>
        </g>
       </g>
      </g>
      <defs>
       <clipPath id="CLIP16">
        <path d="M0.25,72.940002441 L298.878814697,72.940002441 L298.878814697,86.978004456 L0.25,86.978004456 Z " />
       </clipPath>
      </defs>
      <g clip-path="url(#CLIP16)">
       <g>
        <g transform="matrix(1,0,0,1,121.964408875,86.258804321)">
         <text x="0" y="-2.770781279" class="f1">归</text>
         <text x="11.039999962" y="-2.770781279" class="f1">母</text>
         <text x="22.079999924" y="-2.770781279" class="f1">净</text>
         <text x="33.119998932" y="-2.770781279" class="f1">利</text>
         <text x="44.159999847" y="-2.770781279" class="f1">润</text>
        </g>
       </g>
      </g>
      <defs>
       <clipPath id="CLIP17">
        <path d="M299.378814697,72.940002441 L385.15045166,72.940002441 L385.15045166,86.978004456 L299.378814697,86.978004456 Z " />
       </clipPath>
      </defs>
      <g clip-path="url(#CLIP17)">
       <g>
        <g transform="matrix(1,0,0,1,300.203857422,86.258804321)">
         <text x="1" y="-2.75999999" class="f0">58</text>
        </g>
       </g>
      </g>
      <defs>
       <clipPath id="CLIP18">
        <path d="M385.65045166,72.940002441 L471.422119141,72.940002441 L471.422119141,86.978004456 L385.65045166,86.978004456 Z " />
       </clipPath>
      </defs>
      <g clip-path="url(#CLIP18)">
       <g>
        <g transform="matrix(1,0,0,1,386.475494385,86.258804321)">
         <text x="1" y="-2.75999999" class="f0">49</text>
        </g>
       </g>
      </g>
      <defs>
       <clipPath id="CLIP19">
        <path d="M0.25,87.477996826 L298.878814697,87.477996826 L298.878814697,101.51599884 L0.25,101.51599884 Z " />
       </clipPath>
      </defs>
      <g clip-path="url(#CLIP19)">
       <g>
        <g transform="matrix(1,0,0,1,96.536827087,100.796798706)">
         <text x="0" y="-2.770781279" class="f1">全</text>
         <text x="11.039999962" y="-2.770781279" class="f1">面</text>
         <text x="22.079999924" y="-2.770781279" class="f1">摊</text>
         <text x="33.119998932" y="-2.770781279" class="f1">薄</text>
         <text x="44.159999847" y="-2.770781279" class="f1">每</text>
         <text x="55.200000763" y="-2.770781279" class="f1">股</text>
         <text x="66.239997864" y="-2.770781279" class="f1">收</text>
         <text x="77.279998779" y="-2.770781279" class="f1">益</text>
         <text x="88.319999695" y="-2.770781279" class="f0">(</text>
         <text x="91.667579651" y="-2.770781279" class="f1">元</text>
         <text x="102.707580566" y="-2.770781279" class="f0">)</text>
        </g>
       </g>
      </g>
      <defs>
       <clipPath id="CLIP20">
        <path d="M299.378814697,87.477996826 L385.15045166,87.477996826 L385.15045166,101.51599884 L299.378814697,101.51599884 Z " />
       </clipPath>
      </defs>
      <g clip-path="url(#CLIP20)">
       <g>
        <g transform="matrix(1,0,0,1,300.203857422,100.796798706)">
         <text x="1" y="-2.75999999" class="f0">0.16</text>
        </g>
       </g>
      </g>
      <defs>
       <clipPath id="CLIP21">
        <path d="M385.65045166,87.477996826 L471.422119141,87.477996826 L471.422119141,101.51599884 L385.65045166,101.51599884 Z " />
       </clipPath>
      </defs>
      <g clip-path="url(#CLIP21)">
       <g>
        <g transform="matrix(1,0,0,1,386.475494385,100.796798706)">
         <text x="1" y="-2.75999999" class="f0">0.14</text>
        </g>
       </g>
      </g>
      <defs>
       <clipPath id="CLIP22">
        <path d="M0.25,102.01599884 L298.878814697,102.01599884 L298.878814697,116.054000854 L0.25,116.054000854 Z " />
       </clipPath>
      </defs>
      <g clip-path="url(#CLIP22)">
       <g>
        <g transform="matrix(1,0,0,1,133.00440979,115.33480072)">
         <text x="0" y="-2.770781279" class="f1">毛</text>
         <text x="11.039999962" y="-2.770781279" class="f1">利</text>
         <text x="22.079999924" y="-2.770781279" class="f1">率</text>
        </g>
       </g>
      </g>
      <defs>
       <clipPath id="CLIP23">
        <path d="M299.378814697,102.01599884 L385.15045166,102.01599884 L385.15045166,116.054000854 L299.378814697,116.054000854 Z " />
       </clipPath>
      </defs>
      <g clip-path="url(#CLIP23)">
       <g>
        <g transform="matrix(1,0,0,1,328.532012939,115.33480072)">
         <text x="0" y="-2.75999999" class="f0">63.2%</text>
        </g>
       </g>
      </g>
      <defs>
       <clipPath id="CLIP24">
        <path d="M385.65045166,102.01599884 L471.422119141,102.01599884 L471.422119141,116.054000854 L385.65045166,116.054000854 Z " />
       </clipPath>
      </defs>
      <g clip-path="url(#CLIP24)">
       <g>
        <g transform="matrix(1,0,0,1,443.206878662,115.33480072)">
         <text x="-1" y="-2.75999999" class="f0">64.1%</text>
        </g>
       </g>
      </g>
      <defs>
       <clipPath id="CLIP25">
        <path d="M0.25,116.554000854 L298.878814697,116.554000854 L298.878814697,130.591995239 L0.25,130.591995239 Z " />
       </clipPath>
      </defs>
      <g clip-path="url(#CLIP25)">
       <g>
        <g transform="matrix(1,0,0,1,121.964408875,129.872802734)">
         <text x="0" y="-2.770781279" class="f1">营</text>
         <text x="11.039999962" y="-2.770781279" class="f1">业</text>
         <text x="22.079999924" y="-2.770781279" class="f1">利</text>
         <text x="33.119998932" y="-2.770781279" class="f1">润</text>
         <text x="44.159999847" y="-2.770781279" class="f1">率</text>
        </g>
       </g>
      </g>
      <defs>
       <clipPath id="CLIP26">
        <path d="M299.378814697,116.554000854 L385.15045166,116.554000854 L385.15045166,130.591995239 L299.378814697,130.591995239 Z " />
       </clipPath>
      </defs>
      <g clip-path="url(#CLIP26)">
       <g>
        <g transform="matrix(1,0,0,1,328.532012939,129.872802734)">
         <text x="0" y="-2.75999999" class="f0">46.2%</text>
        </g>
       </g>
      </g>
      <defs>
       <clipPath id="CLIP27">
        <path d="M385.65045166,116.554000854 L471.422119141,116.554000854 L471.422119141,130.591995239 L385.65045166,130.591995239 Z " />
       </clipPath>
      </defs>
      <g clip-path="url(#CLIP27)">
       <g>
        <g transform="matrix(1,0,0,1,386.475494385,129.872802734)">
         <text x="1" y="-2.75999999" class="f0">46.6%</text>
        </g>
       </g>
      </g>
      <defs>
       <clipPath id="CLIP28">
        <path d="M0.25,131.091995239 L298.878814697,131.091995239 L298.878814697,145.129989624 L0.25,145.129989624 Z " />
       </clipPath>
      </defs>
      <g clip-path="url(#CLIP28)">
       <g>
        <g transform="matrix(1,0,0,1,1.075036168,144.410797119)">
         <text x="1" y="-2.770781279" class="f1">净</text>
         <text x="12.039999962" y="-2.770781279" class="f1">利</text>
         <text x="23.079999924" y="-2.770781279" class="f1">润</text>
         <text x="34.119998932" y="-2.770781279" class="f1">率</text>
        </g>
       </g>
      </g>
      <defs>
       <clipPath id="CLIP29">
        <path d="M299.378814697,131.091995239 L385.15045166,131.091995239 L385.15045166,145.129989624 L299.378814697,145.129989624 Z " />
       </clipPath>
      </defs>
      <g clip-path="url(#CLIP29)">
       <g>
        <g transform="matrix(1,0,0,1,356.935241699,144.410797119)">
         <text x="-1" y="-2.75999999" class="f0">36.8%</text>
        </g>
       </g>
      </g>
      <defs>
       <clipPath id="CLIP30">
        <path d="M385.65045166,131.091995239 L471.422119141,131.091995239 L471.422119141,145.129989624 L385.65045166,145.129989624 Z " />
       </clipPath>
      </defs>
      <g clip-path="url(#CLIP30)">
       <g>
        <g transform="matrix(1,0,0,1,443.206878662,144.410797119)">
         <text x="-1" y="-2.75999999" class="f0">37.4%</text>
        </g>
       </g>
      </g>
     </g>
    </g>
    <defs>
     <clipPath id="CLIP31">
      <path d="M-0.5,-0.5 L472.5,-0.5 L472.5,160.5 L-0.5,160.5 Z " />
     </clipPath>
    </defs>
    <g clip-path="url(#CLIP31)">
     <g />
    </g>
   </g>
   <g />
   <g />
   <g />
   <g>
    <g>
     <g />
     <g shape-rendering="crispEdges" />
    </g>
    <g>
     <g />
    </g>
    <g>
     <g />
    </g>
   </g>
   <g>
    <text x="10" y="10" class="f2">Evaluation Only. Created with Aspose.Cells for Python via Java.Copyright 2003 - 2023 Aspose Pty Ltd.</text>
   </g>
  </g>
 </g>
 <defs />
 <defs>
  <style type="text/css">
   <![CDATA[
   
.f0
{
font-family:Calibri;
font-size:11.039999962px;
fill:#000000;
}

.f1
{
font-family:Microsoft YaHei Light;
font-size:11.039999962px;
fill:#000000;
}

.f2
{
font-family:Arial;
font-size:10px;
fill:#FF0000;
}

   
.p0
{
stroke:#000000;
stroke-width:0.969200015px;
stroke-linecap:butt;
stroke-linejoin:miter;
}

   ]]></style>
 </defs>
</svg>
