<?xml version="1.0" encoding="UTF-8" standalone="yes"?>
<svg xmlns="http://www.w3.org/2000/svg" xmlns:xlink="http://www.w3.org/1999/xlink" width="612pt" height="792pt">
 <g id="SFixTitle" />
 <g id="SContent">
  <g transform="scale(1.33333)">
   <rect width="100%" height="100%" fill="white" />
   <g>
    <g>
     <g />
     <g shape-rendering="crispEdges" />
    </g>
    <g>
     <g />
    </g>
    <g>
     <g />
    </g>
   </g>
   <g transform="matrix(1,0,0,1,50.400001526,54)">
    <defs>
     <clipPath id="CLIP0">
      <path d="M-0.5,-0.5 L464.5,-0.5 L464.5,378.5 L-0.5,378.5 Z " />
     </clipPath>
    </defs>
    <g clip-path="url(#CLIP0)">
     <g />
     <g shape-rendering="crispEdges" />
    </g>
    <defs>
     <clipPath id="CLIP1">
      <path d="M-0.5,-1.453799963 L464.5,-1.453799963 L464.5,379.546203613 L-0.5,379.546203613 Z " />
     </clipPath>
    </defs>
    <g clip-path="url(#CLIP1)">
     <g>
      <g />
      <path d="M 0,0 L 73.37121582,0" class="p0" fill="none" />
      <path d="M 0,232.608001709 L 73.37121582,232.608001709" class="p0" fill="none" />
      <path d="M 0,0 L 0,14.538000107" class="p0" fill="none" />
      <path d="M 0,232.608001709 L 0,247.145996094" class="p0" fill="none" />
      <path d="M 73.37121582,0 L 173.349578857,0" class="p0" fill="none" />
      <path d="M 73.37121582,232.608001709 L 173.349578857,232.608001709" class="p0" fill="none" />
      <path d="M 73.371002197,232.608001709 L 73.371002197,247.145996094" class="p0" fill="none" />
      <path d="M 173.349578857,0 L 275.746765137,0" class="p0" fill="none" />
      <path d="M 173.349578857,232.608001709 L 275.746765137,232.608001709" class="p0" fill="none" />
      <path d="M 173.350006104,232.608001709 L 173.350006104,247.145996094" class="p0" fill="none" />
      <path d="M 275.746765137,0 L 378.143951416,0" class="p0" fill="none" />
      <path d="M 275.746765137,232.608001709 L 378.143951416,232.608001709" class="p0" fill="none" />
      <path d="M 378.143951416,0 L 463.609313965,0" class="p0" fill="none" />
      <path d="M 378.143951416,232.608001709 L 463.609313965,232.608001709" class="p0" fill="none" />
      <path d="M 463.609008789,0 L 463.609008789,14.538000107" class="p0" fill="none" />
      <path d="M 463.609008789,232.608001709 L 463.609008789,247.145996094" class="p0" fill="none" />
      <path d="M 0,14.538000107 L 73.37121582,14.538000107" class="p0" fill="none" />
      <path d="M 0,247.145996094 L 73.37121582,247.145996094" class="p0" fill="none" />
      <path d="M 0,14.538000107 L 0,29.076000214" class="p0" fill="none" />
      <path d="M 0,247.145996094 L 0,261.683990479" class="p0" fill="none" />
      <path d="M 73.37121582,14.538000107 L 173.349578857,14.538000107" class="p0" fill="none" />
      <path d="M 73.37121582,247.145996094 L 173.349578857,247.145996094" class="p0" fill="none" />
      <path d="M 73.371002197,247.145996094 L 73.371002197,261.683990479" class="p0" fill="none" />
      <path d="M 173.349578857,14.538000107 L 275.746765137,14.538000107" class="p0" fill="none" />
      <path d="M 173.349578857,247.145996094 L 275.746765137,247.145996094" class="p0" fill="none" />
      <path d="M 173.350006104,247.145996094 L 173.350006104,261.683990479" class="p0" fill="none" />
      <path d="M 275.746765137,14.538000107 L 378.143951416,14.538000107" class="p0" fill="none" />
      <path d="M 275.746765137,247.145996094 L 378.143951416,247.145996094" class="p0" fill="none" />
      <path d="M 275.747009277,247.145996094 L 275.747009277,261.683990479" class="p0" fill="none" />
      <path d="M 378.143951416,14.538000107 L 463.609313965,14.538000107" class="p0" fill="none" />
      <path d="M 378.143951416,247.145996094 L 463.609313965,247.145996094" class="p0" fill="none" />
      <path d="M 378.144012451,247.145996094 L 378.144012451,261.683990479" class="p0" fill="none" />
      <path d="M 463.609008789,14.538000107 L 463.609008789,29.076000214" class="p0" fill="none" />
      <path d="M 463.609008789,247.145996094 L 463.609008789,261.683990479" class="p0" fill="none" />
      <path d="M 0,29.076000214 L 73.37121582,29.076000214" class="p0" fill="none" />
      <path d="M 0,261.683990479 L 73.37121582,261.683990479" class="p0" fill="none" />
      <path d="M 0,29.076000214 L 0,43.613998413" class="p0" fill="none" />
      <path d="M 0,261.683990479 L 0,276.221984863" class="p0" fill="none" />
      <path d="M 73.37121582,29.076000214 L 173.349578857,29.076000214" class="p0" fill="none" />
      <path d="M 73.37121582,261.683990479 L 173.349578857,261.683990479" class="p0" fill="none" />
      <path d="M 73.371002197,261.683990479 L 73.371002197,276.221984863" class="p0" fill="none" />
      <path d="M 173.349578857,29.076000214 L 275.746765137,29.076000214" class="p0" fill="none" />
      <path d="M 173.349578857,261.683990479 L 275.746765137,261.683990479" class="p0" fill="none" />
      <path d="M 173.350006104,261.683990479 L 173.350006104,276.221984863" class="p0" fill="none" />
      <path d="M 275.746765137,29.076000214 L 378.143951416,29.076000214" class="p0" fill="none" />
      <path d="M 275.746765137,261.683990479 L 378.143951416,261.683990479" class="p0" fill="none" />
      <path d="M 275.747009277,261.683990479 L 275.747009277,276.221984863" class="p0" fill="none" />
      <path d="M 378.143951416,29.076000214 L 463.609313965,29.076000214" class="p0" fill="none" />
      <path d="M 378.143981934,261.683990479 L 463.609375,261.683990479" class="p0" fill="none" />
      <path d="M 378.144012451,261.683990479 L 378.144012451,276.221984863" class="p0" fill="none" />
      <path d="M 463.609008789,29.076000214 L 463.609008789,43.613998413" class="p0" fill="none" />
      <path d="M 463.609008789,261.683990479 L 463.609008789,276.221984863" class="p0" fill="none" />
      <path d="M 0,43.613998413 L 73.37121582,43.613998413" class="p0" fill="none" />
      <path d="M 0,276.221984863 L 73.37121582,276.221984863" class="p0" fill="none" />
      <path d="M 0,43.613998413 L 0,58.152000427" class="p0" fill="none" />
      <path d="M 0,276.222015381 L 0,290.760009766" class="p0" fill="none" />
      <path d="M 73.37121582,43.613998413 L 173.349578857,43.613998413" class="p0" fill="none" />
      <path d="M 73.37121582,276.221984863 L 173.349578857,276.221984863" class="p0" fill="none" />
      <path d="M 73.371002197,276.222015381 L 73.371002197,290.760009766" class="p0" fill="none" />
      <path d="M 173.349578857,43.613998413 L 275.746765137,43.613998413" class="p0" fill="none" />
      <path d="M 173.349578857,276.221984863 L 275.746765137,276.221984863" class="p0" fill="none" />
      <path d="M 173.350006104,276.222015381 L 173.350006104,290.760009766" class="p0" fill="none" />
      <path d="M 275.746765137,43.613998413 L 378.143951416,43.613998413" class="p0" fill="none" />
      <path d="M 275.746765137,276.221984863 L 378.143951416,276.221984863" class="p0" fill="none" />
      <path d="M 275.747009277,276.222015381 L 275.747009277,290.760009766" class="p0" fill="none" />
      <path d="M 378.143951416,43.613998413 L 463.609313965,43.613998413" class="p0" fill="none" />
      <path d="M 378.143981934,276.221984863 L 463.609375,276.221984863" class="p0" fill="none" />
      <path d="M 378.144012451,43.613998413 L 378.144012451,58.152000427" class="p0" fill="none" />
      <path d="M 378.144012451,276.222015381 L 378.144012451,290.760009766" class="p0" fill="none" />
      <path d="M 463.609008789,276.222015381 L 463.609008789,290.760009766" class="p0" fill="none" />
      <path d="M 0,58.152000427 L 73.37121582,58.152000427" class="p0" fill="none" />
      <path d="M 0,290.760009766 L 73.37121582,290.760009766" class="p0" fill="none" />
      <path d="M 0,58.152000427 L 0,72.690002441" class="p0" fill="none" />
      <path d="M 0,290.760009766 L 0,305.29800415" class="p0" fill="none" />
      <path d="M 73.37121582,58.152000427 L 173.349578857,58.152000427" class="p0" fill="none" />
      <path d="M 73.37121582,290.760009766 L 173.349578857,290.760009766" class="p0" fill="none" />
      <path d="M 73.371002197,290.760009766 L 73.371002197,305.29800415" class="p0" fill="none" />
      <path d="M 173.349578857,58.152000427 L 275.746765137,58.152000427" class="p0" fill="none" />
      <path d="M 173.349578857,290.760009766 L 275.746765137,290.760009766" class="p0" fill="none" />
      <path d="M 173.350006104,290.760009766 L 173.350006104,305.29800415" class="p0" fill="none" />
      <path d="M 275.746765137,58.152000427 L 378.143951416,58.152000427" class="p0" fill="none" />
      <path d="M 275.746765137,290.760009766 L 378.143951416,290.760009766" class="p0" fill="none" />
      <path d="M 275.747009277,290.760009766 L 275.747009277,305.29800415" class="p0" fill="none" />
      <path d="M 378.143981934,58.152000427 L 463.609344482,58.152000427" class="p0" fill="none" />
      <path d="M 378.143981934,290.760009766 L 463.609375,290.760009766" class="p0" fill="none" />
      <path d="M 378.144012451,290.760009766 L 378.144012451,305.29800415" class="p0" fill="none" />
      <path d="M 463.609008789,290.760009766 L 463.609008789,305.29800415" class="p0" fill="none" />
      <path d="M 0,72.690002441 L 73.37121582,72.690002441" class="p0" fill="none" />
      <path d="M 0,305.29800415 L 73.37121582,305.29800415" class="p0" fill="none" />
      <path d="M 0,72.690002441 L 0,87.228004456" class="p0" fill="none" />
      <path d="M 0,305.29800415 L 0,319.835998535" class="p0" fill="none" />
      <path d="M 73.37121582,72.690002441 L 173.349578857,72.690002441" class="p0" fill="none" />
      <path d="M 73.37121582,305.29800415 L 173.349578857,305.29800415" class="p0" fill="none" />
      <path d="M 73.371002197,72.690002441 L 73.371002197,87.228004456" class="p0" fill="none" />
      <path d="M 73.371002197,305.29800415 L 73.371002197,319.835998535" class="p0" fill="none" />
      <path d="M 173.349578857,72.690002441 L 275.746765137,72.690002441" class="p0" fill="none" />
      <path d="M 173.349578857,305.29800415 L 275.746765137,305.29800415" class="p0" fill="none" />
      <path d="M 173.350006104,72.690002441 L 173.350006104,87.228004456" class="p0" fill="none" />
      <path d="M 173.350006104,305.29800415 L 173.350006104,319.835998535" class="p0" fill="none" />
      <path d="M 275.746765137,72.690002441 L 378.143951416,72.690002441" class="p0" fill="none" />
      <path d="M 275.746765137,305.29800415 L 378.143951416,305.29800415" class="p0" fill="none" />
      <path d="M 275.747009277,305.29800415 L 275.747009277,319.835998535" class="p0" fill="none" />
      <path d="M 378.143951416,72.690002441 L 463.609313965,72.690002441" class="p0" fill="none" />
      <path d="M 378.143981934,305.29800415 L 463.609375,305.29800415" class="p0" fill="none" />
      <path d="M 378.144012451,305.29800415 L 378.144012451,319.835998535" class="p0" fill="none" />
      <path d="M 463.609008789,72.690002441 L 463.609008789,87.228004456" class="p0" fill="none" />
      <path d="M 463.609008789,305.29800415 L 463.609008789,319.835998535" class="p0" fill="none" />
      <path d="M 0,87.227996826 L 73.37121582,87.227996826" class="p0" fill="none" />
      <path d="M 0,319.835998535 L 73.37121582,319.835998535" class="p0" fill="none" />
      <path d="M 0,87.227996826 L 0,101.76599884" class="p0" fill="none" />
      <path d="M 0,319.835998535 L 0,334.37399292" class="p0" fill="none" />
      <path d="M 73.37121582,87.227996826 L 173.349578857,87.227996826" class="p0" fill="none" />
      <path d="M 73.37121582,319.835998535 L 173.349578857,319.835998535" class="p0" fill="none" />
      <path d="M 73.371002197,87.227996826 L 73.371002197,101.76599884" class="p0" fill="none" />
      <path d="M 173.349578857,87.227996826 L 275.746765137,87.227996826" class="p0" fill="none" />
      <path d="M 173.349578857,319.835998535 L 275.746765137,319.835998535" class="p0" fill="none" />
      <path d="M 173.350006104,87.227996826 L 173.350006104,101.76599884" class="p0" fill="none" />
      <path d="M 173.350006104,319.835998535 L 173.350006104,334.37399292" class="p0" fill="none" />
      <path d="M 275.746765137,87.227996826 L 378.143951416,87.227996826" class="p0" fill="none" />
      <path d="M 275.746765137,319.835998535 L 378.143951416,319.835998535" class="p0" fill="none" />
      <path d="M 378.143951416,87.227996826 L 463.609313965,87.227996826" class="p0" fill="none" />
      <path d="M 378.143981934,319.835998535 L 463.609375,319.835998535" class="p0" fill="none" />
      <path d="M 378.144012451,319.835998535 L 378.144012451,334.37399292" class="p0" fill="none" />
      <path d="M 463.609008789,87.227996826 L 463.609008789,101.76599884" class="p0" fill="none" />
      <path d="M 0,101.76599884 L 73.37121582,101.76599884" class="p0" fill="none" />
      <path d="M 0,334.37399292 L 73.37121582,334.37399292" class="p0" fill="none" />
      <path d="M 0,101.76599884 L 0,116.304000854" class="p0" fill="none" />
      <path d="M 0,334.37399292 L 0,348.911987305" class="p0" fill="none" />
      <path d="M 73.37121582,101.76599884 L 173.349578857,101.76599884" class="p0" fill="none" />
      <path d="M 73.37121582,334.37399292 L 173.349578857,334.37399292" class="p0" fill="none" />
      <path d="M 73.371002197,101.76599884 L 73.371002197,116.304000854" class="p0" fill="none" />
      <path d="M 73.371002197,334.37399292 L 73.371002197,348.911987305" class="p0" fill="none" />
      <path d="M 173.349578857,101.76599884 L 275.746765137,101.76599884" class="p0" fill="none" />
      <path d="M 173.349578857,334.37399292 L 275.746765137,334.37399292" class="p0" fill="none" />
      <path d="M 173.350006104,101.76599884 L 173.350006104,116.304000854" class="p0" fill="none" />
      <path d="M 173.350006104,334.37399292 L 173.350006104,348.911987305" class="p0" fill="none" />
      <path d="M 275.746765137,101.76599884 L 378.143951416,101.76599884" class="p0" fill="none" />
      <path d="M 275.746765137,334.37399292 L 378.143951416,334.37399292" class="p0" fill="none" />
      <path d="M 275.747009277,334.37399292 L 275.747009277,348.911987305" class="p0" fill="none" />
      <path d="M 378.143951416,101.76599884 L 463.609313965,101.76599884" class="p0" fill="none" />
      <path d="M 378.143981934,334.37399292 L 463.609344482,334.37399292" class="p0" fill="none" />
      <path d="M 378.144012451,334.37399292 L 378.144012451,348.911987305" class="p0" fill="none" />
      <path d="M 463.609008789,101.76599884 L 463.609008789,116.304000854" class="p0" fill="none" />
      <path d="M 463.609008789,334.37399292 L 463.609008789,348.911987305" class="p0" fill="none" />
      <path d="M 0,116.304000854 L 73.37121582,116.304000854" class="p0" fill="none" />
      <path d="M 0,348.911987305 L 73.37121582,348.911987305" class="p0" fill="none" />
      <path d="M 0,116.304000854 L 0,130.841995239" class="p0" fill="none" />
      <path d="M 0,348.911987305 L 0,363.449981689" class="p0" fill="none" />
      <path d="M 73.37121582,116.304000854 L 173.349578857,116.304000854" class="p0" fill="none" />
      <path d="M 73.37121582,348.911987305 L 173.349578857,348.911987305" class="p0" fill="none" />
      <path d="M 73.371002197,116.304000854 L 73.371002197,130.841995239" class="p0" fill="none" />
      <path d="M 173.349578857,116.304000854 L 275.746765137,116.304000854" class="p0" fill="none" />
      <path d="M 173.349578857,348.911987305 L 275.746765137,348.911987305" class="p0" fill="none" />
      <path d="M 173.350006104,116.304000854 L 173.350006104,130.841995239" class="p0" fill="none" />
      <path d="M 173.350006104,348.911987305 L 173.350006104,363.449981689" class="p0" fill="none" />
      <path d="M 275.746765137,116.304000854 L 378.143951416,116.304000854" class="p0" fill="none" />
      <path d="M 275.746765137,348.911987305 L 378.143951416,348.911987305" class="p0" fill="none" />
      <path d="M 275.747009277,348.911987305 L 275.747009277,363.449981689" class="p0" fill="none" />
      <path d="M 378.143951416,116.304000854 L 463.609313965,116.304000854" class="p0" fill="none" />
      <path d="M 378.143981934,348.911987305 L 463.609375,348.911987305" class="p0" fill="none" />
      <path d="M 378.144012451,348.911987305 L 378.144012451,363.449981689" class="p0" fill="none" />
      <path d="M 463.609008789,116.304000854 L 463.609008789,130.841995239" class="p0" fill="none" />
      <path d="M 0,130.841995239 L 73.37121582,130.841995239" class="p0" fill="none" />
      <path d="M 0,363.450012207 L 73.37121582,363.450012207" class="p0" fill="none" />
      <path d="M 0,130.841995239 L 0,145.379989624" class="p0" fill="none" />
      <path d="M 0,363.450012207 L 0,377.988006592" class="p0" fill="none" />
      <path d="M 73.37121582,130.841995239 L 173.349578857,130.841995239" class="p0" fill="none" />
      <path d="M 73.37121582,363.450012207 L 173.349578857,363.450012207" class="p0" fill="none" />
      <path d="M 73.371002197,130.841995239 L 73.371002197,145.379989624" class="p0" fill="none" />
      <path d="M 73.371002197,363.450012207 L 73.371002197,377.988006592" class="p0" fill="none" />
      <path d="M 173.349578857,130.841995239 L 275.746765137,130.841995239" class="p0" fill="none" />
      <path d="M 173.349578857,363.450012207 L 275.746765137,363.450012207" class="p0" fill="none" />
      <path d="M 173.350006104,130.841995239 L 173.350006104,145.379989624" class="p0" fill="none" />
      <path d="M 173.350006104,363.450012207 L 173.350006104,377.988006592" class="p0" fill="none" />
      <path d="M 275.746765137,130.841995239 L 378.143951416,130.841995239" class="p0" fill="none" />
      <path d="M 275.746765137,363.450012207 L 378.143951416,363.450012207" class="p0" fill="none" />
      <path d="M 275.747009277,363.450012207 L 275.747009277,377.988006592" class="p0" fill="none" />
      <path d="M 378.143951416,130.841995239 L 463.609313965,130.841995239" class="p0" fill="none" />
      <path d="M 378.143981934,363.450012207 L 463.609344482,363.450012207" class="p0" fill="none" />
      <path d="M 378.144012451,363.450012207 L 378.144012451,377.988006592" class="p0" fill="none" />
      <path d="M 463.609008789,130.841995239 L 463.609008789,145.379989624" class="p0" fill="none" />
      <path d="M 463.609008789,363.450012207 L 463.609008789,377.988006592" class="p0" fill="none" />
      <path d="M 0,145.380004883 L 73.37121582,145.380004883" class="p0" fill="none" />
      <path d="M 0,377.988006592 L 73.37121582,377.988006592" class="p0" fill="none" />
      <path d="M 0,145.380004883 L 0,159.917999268" class="p0" fill="none" />
      <path d="M 73.37121582,145.380004883 L 173.349578857,145.380004883" class="p0" fill="none" />
      <path d="M 73.37121582,377.988006592 L 173.349578857,377.988006592" class="p0" fill="none" />
      <path d="M 73.371002197,145.380004883 L 73.371002197,159.917999268" class="p0" fill="none" />
      <path d="M 173.349578857,145.380004883 L 275.746765137,145.380004883" class="p0" fill="none" />
      <path d="M 173.349578857,377.988006592 L 275.746765137,377.988006592" class="p0" fill="none" />
      <path d="M 173.350006104,145.380004883 L 173.350006104,159.917999268" class="p0" fill="none" />
      <path d="M 275.746765137,145.380004883 L 378.143951416,145.380004883" class="p0" fill="none" />
      <path d="M 275.746765137,377.988006592 L 378.143951416,377.988006592" class="p0" fill="none" />
      <path d="M 378.143951416,145.380004883 L 463.609313965,145.380004883" class="p0" fill="none" />
      <path d="M 378.143981934,377.988006592 L 463.609375,377.988006592" class="p0" fill="none" />
      <path d="M 463.609008789,145.380004883 L 463.609008789,159.917999268" class="p0" fill="none" />
      <path d="M 0,159.917999268 L 73.37121582,159.917999268" class="p0" fill="none" />
      <path d="M 0,159.917999268 L 0,174.455993652" class="p0" fill="none" />
      <path d="M 73.37121582,159.917999268 L 173.349578857,159.917999268" class="p0" fill="none" />
      <path d="M 73.371002197,159.917999268 L 73.371002197,174.455993652" class="p0" fill="none" />
      <path d="M 173.349578857,159.917999268 L 275.746765137,159.917999268" class="p0" fill="none" />
      <path d="M 173.350006104,159.917999268 L 173.350006104,174.455993652" class="p0" fill="none" />
      <path d="M 275.746765137,159.917999268 L 378.143951416,159.917999268" class="p0" fill="none" />
      <path d="M 378.143951416,159.917999268 L 463.609313965,159.917999268" class="p0" fill="none" />
      <path d="M 463.609008789,159.917999268 L 463.609008789,174.455993652" class="p0" fill="none" />
      <path d="M 0,174.455993652 L 73.37121582,174.455993652" class="p0" fill="none" />
      <path d="M 0,174.455993652 L 0,188.993988037" class="p0" fill="none" />
      <path d="M 73.37121582,174.455993652 L 173.349578857,174.455993652" class="p0" fill="none" />
      <path d="M 73.371002197,174.455993652 L 73.371002197,188.993988037" class="p0" fill="none" />
      <path d="M 173.349578857,174.455993652 L 275.746765137,174.455993652" class="p0" fill="none" />
      <path d="M 173.350006104,174.455993652 L 173.350006104,188.993988037" class="p0" fill="none" />
      <path d="M 275.746765137,174.455993652 L 378.143951416,174.455993652" class="p0" fill="none" />
      <path d="M 378.143951416,174.455993652 L 463.609313965,174.455993652" class="p0" fill="none" />
      <path d="M 463.609008789,174.455993652 L 463.609008789,188.993988037" class="p0" fill="none" />
      <path d="M 0,188.994003296 L 73.37121582,188.994003296" class="p0" fill="none" />
      <path d="M 0,188.994003296 L 0,203.531997681" class="p0" fill="none" />
      <path d="M 73.37121582,188.994003296 L 173.349578857,188.994003296" class="p0" fill="none" />
      <path d="M 73.371002197,188.994003296 L 73.371002197,203.531997681" class="p0" fill="none" />
      <path d="M 173.349578857,188.994003296 L 275.746765137,188.994003296" class="p0" fill="none" />
      <path d="M 173.350006104,188.994003296 L 173.350006104,203.531997681" class="p0" fill="none" />
      <path d="M 275.746765137,188.994003296 L 378.143951416,188.994003296" class="p0" fill="none" />
      <path d="M 378.143951416,188.994003296 L 463.609313965,188.994003296" class="p0" fill="none" />
      <path d="M 463.609008789,188.994003296 L 463.609008789,203.531997681" class="p0" fill="none" />
      <path d="M 0,203.531997681 L 73.37121582,203.531997681" class="p0" fill="none" />
      <path d="M 0,203.531997681 L 0,218.069992065" class="p0" fill="none" />
      <path d="M 73.37121582,203.531997681 L 173.349578857,203.531997681" class="p0" fill="none" />
      <path d="M 73.371002197,203.531997681 L 73.371002197,218.069992065" class="p0" fill="none" />
      <path d="M 173.349578857,203.531997681 L 275.746765137,203.531997681" class="p0" fill="none" />
      <path d="M 173.350006104,203.531997681 L 173.350006104,218.069992065" class="p0" fill="none" />
      <path d="M 275.746765137,203.531997681 L 378.143951416,203.531997681" class="p0" fill="none" />
      <path d="M 378.143951416,203.531997681 L 463.609313965,203.531997681" class="p0" fill="none" />
      <path d="M 463.609008789,203.531997681 L 463.609008789,218.069992065" class="p0" fill="none" />
      <path d="M 0,218.070007324 L 73.37121582,218.070007324" class="p0" fill="none" />
      <path d="M 0,218.070007324 L 0,232.608001709" class="p0" fill="none" />
      <path d="M 73.37121582,218.070007324 L 173.349578857,218.070007324" class="p0" fill="none" />
      <path d="M 73.371002197,218.070007324 L 73.371002197,232.608001709" class="p0" fill="none" />
      <path d="M 173.349578857,218.070007324 L 275.746765137,218.070007324" class="p0" fill="none" />
      <path d="M 173.350006104,218.070007324 L 173.350006104,232.608001709" class="p0" fill="none" />
      <path d="M 275.746765137,218.070007324 L 378.143951416,218.070007324" class="p0" fill="none" />
      <path d="M 378.143951416,218.070007324 L 463.609313965,218.070007324" class="p0" fill="none" />
      <path d="M 463.609008789,218.070007324 L 463.609008789,232.608001709" class="p0" fill="none" />
     </g>
    </g>
    <defs>
     <clipPath id="CLIP2">
      <path d="M-0.5,-0.5 L464.5,-0.5 L464.5,378.5 L-0.5,378.5 Z " />
     </clipPath>
    </defs>
    <g clip-path="url(#CLIP2)">
     <g>
      <defs>
       <clipPath id="CLIP3">
        <path d="M0.25,0.25 L463.359344482,0.25 L463.359344482,14.288000107 L0.25,14.288000107 Z " />
       </clipPath>
      </defs>
      <g clip-path="url(#CLIP3)">
       <g>
        <g transform="matrix(1,0,0,1,1.075036168,28.106800079)">
         <text x="1" y="-17.30878067" class="f0">P</text>
         <text x="6.703281403" y="-17.30878067" class="f0">.</text>
         <text x="9.490234375" y="-17.30878067" class="f0">O</text>
         <text x="16.799922943" y="-17.30878067" class="f1">，</text>
         <text x="27.839923859" y="-17.30878067" class="f0"> </text>
         <text x="30.335783005" y="-17.30878067" class="f0">1</text>
         <text x="35.931251526" y="-17.30878067" class="f0">5</text>
         <text x="41.52671814" y="-17.30878067" class="f0">3</text>
         <text x="47.122184753" y="-17.30878067" class="f0">4</text>
         <text x="52.717651367" y="-17.30878067" class="f0"> </text>
         <text x="55.213512421" y="-17.30878067" class="f0">R</text>
         <text x="61.207885742" y="-17.30878067" class="f0">E</text>
         <text x="66.598510742" y="-17.30878067" class="f0">V</text>
         <text x="72.862419128" y="-17.30878067" class="f0">.</text>
         <text x="75.649375916" y="-17.30878067" class="f0">1</text>
         <text x="81.244842529" y="-17.30878067" class="f0">0</text>
         <text x="86.840309143" y="-17.30878067" class="f0">/</text>
         <text x="91.104293823" y="-17.30878067" class="f0">7</text>
         <text x="96.699760437" y="-17.30878067" class="f0">9</text>
         <text x="102.295227051" y="-17.30878067" class="f0">P</text>
         <text x="107.998504639" y="-17.30878067" class="f0">U</text>
         <text x="115.081787109" y="-17.30878067" class="f0">R</text>
         <text x="121.076164246" y="-17.30878067" class="f0">C</text>
         <text x="126.962722778" y="-17.30878067" class="f0">H</text>
         <text x="133.841156006" y="-17.30878067" class="f0">A</text>
         <text x="140.229049683" y="-17.30878067" class="f0">S</text>
         <text x="145.301620483" y="-17.30878067" class="f0">I</text>
         <text x="148.083175659" y="-17.30878067" class="f0">N</text>
         <text x="155.209579468" y="-17.30878067" class="f0">G</text>
         <text x="162.17427063" y="-17.30878067" class="f0"> </text>
         <text x="164.670135498" y="-17.30878067" class="f0"> </text>
         <text x="167.166000366" y="-17.30878067" class="f0"> </text>
         <text x="169.661865234" y="-17.30878067" class="f0"> </text>
         <text x="172.157730103" y="-17.30878067" class="f0"> </text>
         <text x="174.653594971" y="-17.30878067" class="f0"> </text>
         <text x="177.149459839" y="-17.30878067" class="f0"> </text>
         <text x="179.645324707" y="-17.30878067" class="f0"> </text>
         <text x="182.141189575" y="-17.30878067" class="f0"> </text>
         <text x="184.637054443" y="-17.30878067" class="f0"> </text>
         <text x="187.132919312" y="-17.30878067" class="f0"> </text>
         <text x="189.62878418" y="-17.30878067" class="f0"> </text>
         <text x="192.124649048" y="-17.30878067" class="f0"> </text>
         <text x="194.620513916" y="-17.30878067" class="f0"> </text>
         <text x="197.116378784" y="-17.30878067" class="f0"> </text>
         <text x="199.612243652" y="-17.30878067" class="f0"> </text>
         <text x="202.108108521" y="-17.30878067" class="f0"> </text>
         <text x="204.603973389" y="-17.30878067" class="f0">P</text>
         <text x="210.307250977" y="-17.30878067" class="f0">U</text>
         <text x="217.390533447" y="-17.30878067" class="f0">R</text>
         <text x="223.384902954" y="-17.30878067" class="f0">C</text>
         <text x="229.271469116" y="-17.30878067" class="f0">H</text>
         <text x="236.149902344" y="-17.30878067" class="f0">A</text>
         <text x="242.537796021" y="-17.30878067" class="f0">S</text>
         <text x="247.610366821" y="-17.30878067" class="f0">E</text>
         <text x="253.000991821" y="-17.30878067" class="f0"> </text>
         <text x="255.496856689" y="-17.30878067" class="f0">R</text>
         <text x="261.491241455" y="-17.30878067" class="f0">E</text>
         <text x="266.881866455" y="-17.30878067" class="f0">Q</text>
         <text x="274.310150146" y="-17.30878067" class="f0">U</text>
         <text x="281.393432617" y="-17.30878067" class="f0">I</text>
         <text x="284.174987793" y="-17.30878067" class="f0">S</text>
         <text x="289.247558594" y="-17.30878067" class="f0">I</text>
         <text x="292.02911377" y="-17.30878067" class="f0">T</text>
         <text x="297.408966064" y="-17.30878067" class="f0">I</text>
         <text x="300.19052124" y="-17.30878067" class="f0">O</text>
         <text x="307.500213623" y="-17.30878067" class="f0">N</text>
         <text x="314.626617432" y="-17.30878067" class="f0"> </text>
         <text x="317.122467041" y="-17.30878067" class="f0"> </text>
         <text x="319.61831665" y="-17.30878067" class="f0"> </text>
         <text x="322.11416626" y="-17.30878067" class="f0"> </text>
         <text x="324.610015869" y="-17.30878067" class="f0"> </text>
         <text x="327.105865479" y="-17.30878067" class="f0"> </text>
         <text x="329.601715088" y="-17.30878067" class="f0"> </text>
         <text x="332.097564697" y="-17.30878067" class="f0"> </text>
         <text x="334.593414307" y="-17.30878067" class="f0"> </text>
         <text x="337.089263916" y="-17.30878067" class="f0"> </text>
         <text x="339.585113525" y="-17.30878067" class="f0"> </text>
         <text x="342.080963135" y="-17.30878067" class="f0"> </text>
         <text x="344.576812744" y="-17.30878067" class="f0"> </text>
         <text x="347.072662354" y="-17.30878067" class="f0"> </text>
         <text x="349.568511963" y="-17.30878067" class="f0">L</text>
         <text x="354.209838867" y="-17.30878067" class="f0">T</text>
         <text x="359.589691162" y="-17.30878067" class="f0">-</text>
         <text x="362.969604492" y="-17.30878067" class="f0">1</text>
         <text x="368.565063477" y="-17.30878067" class="f0">0</text>
         <text x="374.160522461" y="-17.30878067" class="f0">-</text>
         <text x="377.540435791" y="-17.30878067" class="f0">7</text>
         <text x="383.135894775" y="-17.30878067" class="f0">9</text>
         <text x="388.73135376" y="-17.30878067" class="f0">I</text>
         <text x="391.512908936" y="-17.30878067" class="f0">S</text>
         <text x="396.585479736" y="-17.30878067" class="f0">T</text>
         <text x="401.965332031" y="-17.30878067" class="f0">A</text>
         <text x="408.353210449" y="-17.30878067" class="f0">T</text>
         <text x="413.733062744" y="-17.30878067" class="f0">I</text>
         <text x="416.51461792" y="-17.30878067" class="f0">O</text>
         <text x="423.824310303" y="-17.30878067" class="f0">N</text>
         <text x="430.950714111" y="-17.30878067" class="f0">A</text>
         <text x="437.338592529" y="-17.30878067" class="f0">R</text>
         <text x="443.332977295" y="-17.30878067" class="f0">Y</text>
         <text x="1" y="-2.75999999" class="f0"> </text>
         <text x="3.495859385" y="-2.75999999" class="f0">P</text>
         <text x="9.199140549" y="-2.75999999" class="f0">L</text>
         <text x="13.840468407" y="-2.75999999" class="f0">E</text>
         <text x="19.23109436" y="-2.75999999" class="f0">A</text>
         <text x="25.618984222" y="-2.75999999" class="f0">S</text>
         <text x="30.691562653" y="-2.75999999" class="f0">E</text>
         <text x="36.082187653" y="-2.75999999" class="f0"> </text>
         <text x="38.578048706" y="-2.75999999" class="f0">I</text>
         <text x="41.359611511" y="-2.75999999" class="f0">N</text>
         <text x="48.486019135" y="-2.75999999" class="f0">C</text>
         <text x="54.372581482" y="-2.75999999" class="f0">L</text>
         <text x="59.013908386" y="-2.75999999" class="f0">U</text>
         <text x="66.097190857" y="-2.75999999" class="f0">D</text>
         <text x="72.889381409" y="-2.75999999" class="f0">E</text>
         <text x="78.280006409" y="-2.75999999" class="f0"> </text>
         <text x="80.775863647" y="-2.75999999" class="f0">O</text>
         <text x="88.085548401" y="-2.75999999" class="f0">N</text>
         <text x="95.211952209" y="-2.75999999" class="f0">L</text>
         <text x="99.853279114" y="-2.75999999" class="f0">Y</text>
         <text x="105.233123779" y="-2.75999999" class="f0"> </text>
         <text x="107.728981018" y="-2.75999999" class="f0">O</text>
         <text x="115.038665771" y="-2.75999999" class="f0">N</text>
         <text x="122.16506958" y="-2.75999999" class="f0">E</text>
         <text x="127.55569458" y="-2.75999999" class="f0"> </text>
         <text x="130.051559448" y="-2.75999999" class="f0">T</text>
         <text x="135.431396484" y="-2.75999999" class="f0">Y</text>
         <text x="140.811233521" y="-2.75999999" class="f0">P</text>
         <text x="146.514511108" y="-2.75999999" class="f0">E</text>
         <text x="151.905136108" y="-2.75999999" class="f0"> </text>
         <text x="154.401000977" y="-2.75999999" class="f0">O</text>
         <text x="161.710693359" y="-2.75999999" class="f0">F</text>
         <text x="166.78326416" y="-2.75999999" class="f0"> </text>
         <text x="169.279129028" y="-2.75999999" class="f0">M</text>
         <text x="178.718109131" y="-2.75999999" class="f0">A</text>
         <text x="185.106002808" y="-2.75999999" class="f0">T</text>
         <text x="190.485839844" y="-2.75999999" class="f0">E</text>
         <text x="195.876464844" y="-2.75999999" class="f0">R</text>
         <text x="201.870834351" y="-2.75999999" class="f0">I</text>
         <text x="204.652389526" y="-2.75999999" class="f0">A</text>
         <text x="211.040283203" y="-2.75999999" class="f0">L</text>
         <text x="215.681610107" y="-2.75999999" class="f0"> </text>
         <text x="218.177474976" y="-2.75999999" class="f0">O</text>
         <text x="225.487167358" y="-2.75999999" class="f0">N</text>
         <text x="232.613571167" y="-2.75999999" class="f0"> </text>
         <text x="235.109436035" y="-2.75999999" class="f0">T</text>
         <text x="240.489273071" y="-2.75999999" class="f0">H</text>
         <text x="247.367706299" y="-2.75999999" class="f0">I</text>
         <text x="250.149261475" y="-2.75999999" class="f0">S</text>
         <text x="255.221832275" y="-2.75999999" class="f0"> </text>
         <text x="257.717681885" y="-2.75999999" class="f0">R</text>
         <text x="263.71206665" y="-2.75999999" class="f0">E</text>
         <text x="269.10269165" y="-2.75999999" class="f0">Q</text>
         <text x="276.530975342" y="-2.75999999" class="f0">U</text>
         <text x="283.614257812" y="-2.75999999" class="f0">I</text>
         <text x="286.395812988" y="-2.75999999" class="f0">S</text>
         <text x="291.468383789" y="-2.75999999" class="f0">I</text>
         <text x="294.249938965" y="-2.75999999" class="f0">T</text>
         <text x="299.62979126" y="-2.75999999" class="f0">I</text>
         <text x="302.411346436" y="-2.75999999" class="f0">O</text>
         <text x="309.721038818" y="-2.75999999" class="f0">N</text>
        </g>
       </g>
      </g>
      <defs>
       <clipPath id="CLIP4">
        <path d="M0.25,14.788000107 L463.359344482,14.788000107 L463.359344482,28.826000214 L0.25,28.826000214 Z " />
       </clipPath>
      </defs>
      <g clip-path="url(#CLIP4)">
       <g>
        <g transform="matrix(1,0,0,1,1.075036168,42.644798279)">
         <text x="1" y="-17.298000336" class="f0">V</text>
         <text x="7.263906002" y="-17.298000336" class="f0">E</text>
         <text x="12.654531479" y="-17.298000336" class="f0">N</text>
         <text x="19.780937195" y="-17.298000336" class="f0">D</text>
         <text x="26.573123932" y="-17.298000336" class="f0">O</text>
         <text x="33.8828125" y="-17.298000336" class="f0">R</text>
         <text x="39.877185822" y="-17.298000336" class="f0"> </text>
         <text x="42.373046875" y="-17.298000336" class="f0"> </text>
         <text x="44.868907928" y="-17.298000336" class="f0"> </text>
         <text x="47.364768982" y="-17.298000336" class="f0"> </text>
         <text x="49.860630035" y="-17.298000336" class="f0"> </text>
         <text x="52.356491089" y="-17.298000336" class="f0"> </text>
         <text x="54.852352142" y="-17.298000336" class="f0"> </text>
         <text x="57.348213196" y="-17.298000336" class="f0"> </text>
         <text x="59.844074249" y="-17.298000336" class="f0"> </text>
         <text x="62.339935303" y="-17.298000336" class="f0"> </text>
         <text x="64.835792542" y="-17.298000336" class="f0"> </text>
         <text x="67.33164978" y="-17.298000336" class="f0"> </text>
         <text x="69.827507019" y="-17.298000336" class="f0"> </text>
         <text x="72.323364258" y="-17.298000336" class="f0"> </text>
         <text x="74.819221497" y="-17.298000336" class="f0"> </text>
         <text x="77.315078735" y="-17.298000336" class="f0"> </text>
         <text x="79.810935974" y="-17.298000336" class="f0"> </text>
         <text x="82.306793213" y="-17.298000336" class="f0"> </text>
         <text x="84.802650452" y="-17.298000336" class="f0"> </text>
         <text x="87.29850769" y="-17.298000336" class="f0"> </text>
         <text x="89.794364929" y="-17.298000336" class="f0">F</text>
         <text x="94.866943359" y="-17.298000336" class="f0">O</text>
         <text x="102.176628113" y="-17.298000336" class="f0">R</text>
         <text x="108.171005249" y="-17.298000336" class="f0"> </text>
         <text x="110.666862488" y="-17.298000336" class="f0">P</text>
         <text x="116.370147705" y="-17.298000336" class="f0">U</text>
         <text x="123.453430176" y="-17.298000336" class="f0">R</text>
         <text x="129.447799683" y="-17.298000336" class="f0">C</text>
         <text x="135.334365845" y="-17.298000336" class="f0">H</text>
         <text x="142.212799072" y="-17.298000336" class="f0">A</text>
         <text x="148.600692749" y="-17.298000336" class="f0">S</text>
         <text x="153.67326355" y="-17.298000336" class="f0">I</text>
         <text x="156.454818726" y="-17.298000336" class="f0">N</text>
         <text x="163.581222534" y="-17.298000336" class="f0">G</text>
         <text x="170.545913696" y="-17.298000336" class="f0"> </text>
         <text x="173.041778564" y="-17.298000336" class="f0">D</text>
         <text x="179.833969116" y="-17.298000336" class="f0">E</text>
         <text x="185.224594116" y="-17.298000336" class="f0">P</text>
         <text x="190.927871704" y="-17.298000336" class="f0">A</text>
         <text x="197.315765381" y="-17.298000336" class="f0">R</text>
         <text x="203.310134888" y="-17.298000336" class="f0">T</text>
         <text x="208.689971924" y="-17.298000336" class="f0">M</text>
         <text x="218.128952026" y="-17.298000336" class="f0">E</text>
         <text x="223.519577026" y="-17.298000336" class="f0">N</text>
         <text x="230.645980835" y="-17.298000336" class="f0">T</text>
         <text x="236.025817871" y="-17.298000336" class="f0"> </text>
         <text x="238.521682739" y="-17.298000336" class="f0">U</text>
         <text x="245.60496521" y="-17.298000336" class="f0">S</text>
         <text x="250.677536011" y="-17.298000336" class="f0">E</text>
         <text x="256.06817627" y="-17.298000336" class="f0"> </text>
         <text x="258.564025879" y="-17.298000336" class="f0">O</text>
         <text x="265.873718262" y="-17.298000336" class="f0">N</text>
         <text x="273.00012207" y="-17.298000336" class="f0">L</text>
         <text x="277.641448975" y="-17.298000336" class="f0">Y</text>
         <text x="283.02130127" y="-17.298000336" class="f0">P</text>
         <text x="288.724578857" y="-17.298000336" class="f0">i</text>
         <text x="291.258178711" y="-17.298000336" class="f0">e</text>
         <text x="296.751220703" y="-17.298000336" class="f0">d</text>
         <text x="302.551544189" y="-17.298000336" class="f0">m</text>
         <text x="311.370605469" y="-17.298000336" class="f0">o</text>
         <text x="317.192474365" y="-17.298000336" class="f0">n</text>
         <text x="322.992797852" y="-17.298000336" class="f0">t</text>
         <text x="326.690765381" y="-17.298000336" class="f0"> </text>
         <text x="329.18661499" y="-17.298000336" class="f0">R</text>
         <text x="335.180999756" y="-17.298000336" class="f0">e</text>
         <text x="340.674041748" y="-17.298000336" class="f0">s</text>
         <text x="344.991943359" y="-17.298000336" class="f0">e</text>
         <text x="350.484985352" y="-17.298000336" class="f0">a</text>
         <text x="355.773193359" y="-17.298000336" class="f0">r</text>
         <text x="359.62210083" y="-17.298000336" class="f0">c</text>
         <text x="364.290374756" y="-17.298000336" class="f0">h</text>
         <text x="370.090698242" y="-17.298000336" class="f0"> </text>
         <text x="372.586547852" y="-17.298000336" class="f0">L</text>
         <text x="377.227874756" y="-17.298000336" class="f0">a</text>
         <text x="382.516082764" y="-17.298000336" class="f0">b</text>
         <text x="388.31640625" y="-17.298000336" class="f0">o</text>
         <text x="394.138275146" y="-17.298000336" class="f0">r</text>
         <text x="397.987182617" y="-17.298000336" class="f0">a</text>
         <text x="403.275390625" y="-17.298000336" class="f0">t</text>
         <text x="406.973358154" y="-17.298000336" class="f0">o</text>
         <text x="412.795227051" y="-17.298000336" class="f0">r</text>
         <text x="416.644134521" y="-17.298000336" class="f0">y</text>
         <text x="421.641235352" y="-17.298000336" class="f0"> </text>
         <text x="424.137084961" y="-17.298000336" class="f0">2</text>
         <text x="429.732543945" y="-17.298000336" class="f0">7</text>
         <text x="435.32800293" y="-17.298000336" class="f0">4</text>
         <text x="440.923461914" y="-17.298000336" class="f0">8</text>
         <text x="1" y="-2.770781279" class="f0">P</text>
         <text x="6.703281403" y="-2.770781279" class="f0">a</text>
         <text x="11.991484642" y="-2.770781279" class="f0">t</text>
         <text x="15.689453125" y="-2.770781279" class="f0">t</text>
         <text x="19.387422562" y="-2.770781279" class="f0">e</text>
         <text x="24.880470276" y="-2.770781279" class="f0">r</text>
         <text x="28.729375839" y="-2.770781279" class="f0">s</text>
         <text x="33.047267914" y="-2.770781279" class="f0">o</text>
         <text x="38.86914444" y="-2.770781279" class="f0">n</text>
         <text x="44.669456482" y="-2.770781279" class="f0"> </text>
         <text x="47.165317535" y="-2.770781279" class="f0">A</text>
         <text x="53.553207397" y="-2.770781279" class="f0">v</text>
         <text x="58.539535522" y="-2.770781279" class="f0">e</text>
         <text x="64.032585144" y="-2.770781279" class="f0">.</text>
         <text x="66.819541931" y="-2.770781279" class="f1">，</text>
         <text x="77.859542847" y="-2.770781279" class="f0"> </text>
         <text x="80.355400085" y="-2.770781279" class="f0">G</text>
         <text x="87.320083618" y="-2.770781279" class="f0">r</text>
         <text x="91.168991089" y="-2.770781279" class="f0">e</text>
         <text x="96.66204071" y="-2.770781279" class="f0">e</text>
         <text x="102.155090332" y="-2.770781279" class="f0">n</text>
         <text x="107.955406189" y="-2.770781279" class="f0">s</text>
         <text x="112.273300171" y="-2.770781279" class="f0">b</text>
         <text x="118.073616028" y="-2.770781279" class="f0">o</text>
         <text x="123.895492554" y="-2.770781279" class="f0">r</text>
         <text x="127.744400024" y="-2.770781279" class="f0">o</text>
         <text x="133.566268921" y="-2.770781279" class="f1">，</text>
         <text x="144.606262207" y="-2.770781279" class="f0">l</text>
        </g>
       </g>
      </g>
      <defs>
       <clipPath id="CLIP5">
        <path d="M0.25,29.326000214 L463.359344482,29.326000214 L463.359344482,43.363998413 L0.25,43.363998413 Z " />
       </clipPath>
      </defs>
      <g clip-path="url(#CLIP5)">
       <g>
        <g transform="matrix(1,0,0,1,116.318618774,42.644798279)">
         <text x="0" y="-2.75999999" class="f0">TERMS27407NET</text>
         <text x="77.150627136" y="-2.75999999" class="f0"> </text>
         <text x="79.646484375" y="-2.75999999" class="f0">15</text>
         <text x="90.837417603" y="-2.75999999" class="f0">    </text>
         <text x="100.820854187" y="-2.75999999" class="f0">F.O.B.</text>
         <text x="127.569137573" y="-2.75999999" class="f0">         </text>
         <text x="150.03187561" y="-2.75999999" class="f0">N/A</text>
         <text x="167.810150146" y="-2.75999999" class="f0">      </text>
         <text x="182.785308838" y="-2.75999999" class="f0">VIA</text>
         <text x="198.218673706" y="-2.75999999" class="f0">      </text>
         <text x="213.193832397" y="-2.75999999" class="f0">N/A</text>
        </g>
       </g>
      </g>
      <defs>
       <clipPath id="CLIP6">
        <path d="M0.25,43.863998413 L377.893981934,43.863998413 L377.893981934,57.902000427 L0.25,57.902000427 Z " />
       </clipPath>
      </defs>
      <g clip-path="url(#CLIP6)">
       <g>
        <g transform="matrix(1,0,0,1,1.075036168,57.182800293)">
         <text x="1" y="-2.770781279" class="f0">S</text>
         <text x="6.072577953" y="-2.770781279" class="f0">H</text>
         <text x="12.951015472" y="-2.770781279" class="f0">I</text>
         <text x="15.732578278" y="-2.770781279" class="f0">P</text>
         <text x="21.43585968" y="-2.770781279" class="f0"> </text>
         <text x="23.931718826" y="-2.770781279" class="f0">T</text>
         <text x="29.311561584" y="-2.770781279" class="f0">O</text>
         <text x="36.621250153" y="-2.770781279" class="f1">，</text>
         <text x="47.661251068" y="-2.770781279" class="f0">(</text>
         <text x="51.008827209" y="-2.770781279" class="f0">D</text>
         <text x="57.801013947" y="-2.770781279" class="f0">E</text>
         <text x="63.191638947" y="-2.770781279" class="f0">P</text>
         <text x="68.894920349" y="-2.770781279" class="f0">T</text>
         <text x="74.274765015" y="-2.770781279" class="f0">.</text>
         <text x="77.061721802" y="-2.770781279" class="f0">.</text>
         <text x="79.848678589" y="-2.770781279" class="f0">B</text>
         <text x="85.85383606" y="-2.770781279" class="f0">R</text>
         <text x="91.848213196" y="-2.770781279" class="f0">A</text>
         <text x="98.236106873" y="-2.770781279" class="f0">N</text>
         <text x="105.362510681" y="-2.770781279" class="f0">C</text>
         <text x="111.249069214" y="-2.770781279" class="f0">H</text>
         <text x="118.127510071" y="-2.770781279" class="f0">)</text>
         <text x="121.475090027" y="-2.770781279" class="f0">L</text>
         <text x="126.116416931" y="-2.770781279" class="f0">o</text>
         <text x="131.938293457" y="-2.770781279" class="f0">r</text>
         <text x="135.787200928" y="-2.770781279" class="f0">i</text>
         <text x="138.320800781" y="-2.770781279" class="f0">l</text>
         <text x="140.854400635" y="-2.770781279" class="f0">l</text>
         <text x="143.388000488" y="-2.770781279" class="f0">a</text>
         <text x="148.676208496" y="-2.770781279" class="f0">r</text>
         <text x="152.525115967" y="-2.770781279" class="f0">d</text>
         <text x="158.325424194" y="-2.770781279" class="f0"> </text>
         <text x="160.821289062" y="-2.770781279" class="f0">R</text>
         <text x="166.815658569" y="-2.770781279" class="f0">e</text>
         <text x="172.308700562" y="-2.770781279" class="f0">s</text>
         <text x="176.626586914" y="-2.770781279" class="f0">e</text>
         <text x="182.119628906" y="-2.770781279" class="f0">a</text>
         <text x="187.407836914" y="-2.770781279" class="f0">r</text>
         <text x="191.256744385" y="-2.770781279" class="f0">c</text>
         <text x="195.925018311" y="-2.770781279" class="f0">h</text>
         <text x="201.725326538" y="-2.770781279" class="f0"> </text>
         <text x="204.221191406" y="-2.770781279" class="f0">C</text>
         <text x="210.107757568" y="-2.770781279" class="f0">e</text>
         <text x="215.600799561" y="-2.770781279" class="f0">n</text>
         <text x="221.401107788" y="-2.770781279" class="f0">t</text>
         <text x="225.099075317" y="-2.770781279" class="f0">e</text>
         <text x="230.59211731" y="-2.770781279" class="f0">r</text>
         <text x="234.44102478" y="-2.770781279" class="f0"> </text>
         <text x="236.936889648" y="-2.770781279" class="f0"> </text>
         <text x="239.432754517" y="-2.770781279" class="f0"> </text>
         <text x="241.928619385" y="-2.770781279" class="f0"> </text>
         <text x="244.424484253" y="-2.770781279" class="f0"> </text>
         <text x="246.920349121" y="-2.770781279" class="f0"> </text>
         <text x="249.416213989" y="-2.770781279" class="f0"> </text>
         <text x="251.912078857" y="-2.770781279" class="f0"> </text>
         <text x="254.407943726" y="-2.770781279" class="f0"> </text>
         <text x="256.903808594" y="-2.770781279" class="f0"> </text>
         <text x="259.399658203" y="-2.770781279" class="f0"> </text>
         <text x="261.895507812" y="-2.770781279" class="f0">N</text>
         <text x="269.021911621" y="-2.770781279" class="f0">.</text>
         <text x="271.808868408" y="-2.770781279" class="f0"> </text>
         <text x="274.304718018" y="-2.770781279" class="f0">A</text>
         <text x="280.692596436" y="-2.770781279" class="f0">.</text>
         <text x="283.479553223" y="-2.770781279" class="f0"> </text>
         <text x="285.975402832" y="-2.770781279" class="f0">T</text>
         <text x="291.355255127" y="-2.770781279" class="f0">h</text>
         <text x="297.155578613" y="-2.770781279" class="f0">a</text>
         <text x="302.443786621" y="-2.770781279" class="f0">g</text>
         <text x="307.640350342" y="-2.770781279" class="f0">g</text>
         <text x="312.836914062" y="-2.770781279" class="f0">a</text>
         <text x="318.12512207" y="-2.770781279" class="f0">r</text>
         <text x="321.974029541" y="-2.770781279" class="f0">d</text>
        </g>
       </g>
      </g>
      <defs>
       <clipPath id="CLIP7">
        <path d="M378.393981934,43.863998413 L587.526000977,43.863998413 L587.526000977,57.902000427 L378.393981934,57.902000427 Z " />
       </clipPath>
      </defs>
      <g clip-path="url(#CLIP7)">
       <g>
        <g transform="matrix(1,0,0,1,423.377441406,57.182800293)">
         <text x="0" y="-2.75999999" class="f0">DATE</text>
         <text x="23.950546265" y="-2.75999999" class="f0"> </text>
         <text x="26.446405411" y="-2.75999999" class="f0">WANTEDAs</text>
         <text x="78.050857544" y="-2.75999999" class="f0"> </text>
         <text x="80.546714783" y="-2.75999999" class="f0">required</text>
        </g>
       </g>
      </g>
      <defs>
       <clipPath id="CLIP8">
        <path d="M0.25,58.402000427 L587.526000977,58.402000427 L587.526000977,72.440002441 L0.25,72.440002441 Z " />
       </clipPath>
      </defs>
      <g clip-path="url(#CLIP8)">
       <g>
        <g transform="matrix(1,0,0,1,1.075036168,71.720802307)">
         <text x="1" y="-2.770781279" class="f0">4</text>
         <text x="6.595468521" y="-2.770781279" class="f0">2</text>
         <text x="12.190937042" y="-2.770781279" class="f0">0</text>
         <text x="17.786405563" y="-2.770781279" class="f0">E</text>
         <text x="23.177030563" y="-2.770781279" class="f0">n</text>
         <text x="28.977342606" y="-2.770781279" class="f0">g</text>
         <text x="34.173904419" y="-2.770781279" class="f0">l</text>
         <text x="36.707496643" y="-2.770781279" class="f0">i</text>
         <text x="39.241088867" y="-2.770781279" class="f0">s</text>
         <text x="43.558979034" y="-2.770781279" class="f0">h</text>
         <text x="49.359291077" y="-2.770781279" class="f0"> </text>
         <text x="51.85515213" y="-2.770781279" class="f0">S</text>
         <text x="56.92773056" y="-2.770781279" class="f0">t</text>
         <text x="60.62569809" y="-2.770781279" class="f0">.</text>
         <text x="63.412651062" y="-2.770781279" class="f1">，</text>
         <text x="74.452651978" y="-2.770781279" class="f0"> </text>
         <text x="76.948509216" y="-2.770781279" class="f0">G</text>
         <text x="83.913192749" y="-2.770781279" class="f0">r</text>
         <text x="87.76210022" y="-2.770781279" class="f0">e</text>
         <text x="93.255149841" y="-2.770781279" class="f0">e</text>
         <text x="98.748199463" y="-2.770781279" class="f0">n</text>
         <text x="104.54851532" y="-2.770781279" class="f0">s</text>
         <text x="108.866409302" y="-2.770781279" class="f0">b</text>
         <text x="114.666725159" y="-2.770781279" class="f0">o</text>
         <text x="120.488601685" y="-2.770781279" class="f0">r</text>
         <text x="124.337509155" y="-2.770781279" class="f0">o</text>
         <text x="130.159378052" y="-2.770781279" class="f1">，</text>
         <text x="141.199371338" y="-2.770781279" class="f0"> </text>
         <text x="143.695236206" y="-2.770781279" class="f0">N</text>
         <text x="150.821640015" y="-2.770781279" class="f0">C</text>
         <text x="156.708206177" y="-2.770781279" class="f0"> </text>
         <text x="159.204071045" y="-2.770781279" class="f0">2</text>
         <text x="164.799545288" y="-2.770781279" class="f0">7</text>
         <text x="170.395019531" y="-2.770781279" class="f0">4</text>
         <text x="175.990493774" y="-2.770781279" class="f0">0</text>
         <text x="181.585968018" y="-2.770781279" class="f0">5</text>
        </g>
       </g>
      </g>
      <defs>
       <clipPath id="CLIP9">
        <path d="M0.25,72.940002441 L73.12121582,72.940002441 L73.12121582,86.978004456 L0.25,86.978004456 Z " />
       </clipPath>
      </defs>
      <g clip-path="url(#CLIP9)">
       <g>
        <g transform="matrix(1,0,0,1,13.2121315,86.258804321)">
         <text x="0" y="-2.75999999" class="f0">QUANTITY</text>
        </g>
       </g>
      </g>
      <defs>
       <clipPath id="CLIP10">
        <path d="M73.62121582,72.940002441 L173.099578857,72.940002441 L173.099578857,86.978004456 L73.62121582,86.978004456 Z " />
       </clipPath>
      </defs>
      <g clip-path="url(#CLIP10)">
       <g>
        <g transform="matrix(1,0,0,1,110.67086792,86.258804321)">
         <text x="0" y="-2.75999999" class="f0">CODE</text>
        </g>
       </g>
      </g>
      <defs>
       <clipPath id="CLIP11">
        <path d="M173.599578857,72.940002441 L463.359344482,72.940002441 L463.359344482,86.978004456 L173.599578857,86.978004456 Z " />
       </clipPath>
      </defs>
      <g clip-path="url(#CLIP11)">
       <g>
        <g transform="matrix(1,0,0,1,288.370117188,86.258804321)">
         <text x="0" y="-2.75999999" class="f0">DESCRIPTION</text>
        </g>
       </g>
      </g>
      <defs>
       <clipPath id="CLIP12">
        <path d="M73.62121582,87.477996826 L173.099578857,87.477996826 L173.099578857,101.51599884 L73.62121582,101.51599884 Z " />
       </clipPath>
      </defs>
      <g clip-path="url(#CLIP12)">
       <g>
        <g transform="matrix(1,0,0,1,74.446250916,100.796798706)">
         <text x="1" y="-2.75999999" class="f0">This</text>
         <text x="19.031641006" y="-2.75999999" class="f0"> </text>
         <text x="21.527500153" y="-2.75999999" class="f0">is</text>
         <text x="28.378984451" y="-2.75999999" class="f0"> </text>
         <text x="30.874843597" y="-2.75999999" class="f0">your</text>
        </g>
       </g>
      </g>
      <defs>
       <clipPath id="CLIP13">
        <path d="M173.599578857,87.477996826 L463.359344482,87.477996826 L463.359344482,101.51599884 L173.599578857,101.51599884 Z " />
       </clipPath>
      </defs>
      <g clip-path="url(#CLIP13)">
       <g>
        <g transform="matrix(1,0,0,1,174.424621582,100.796798706)">
         <text x="1" y="-2.75999999" class="f0">authorization</text>
         <text x="61.294139862" y="-2.75999999" class="f0"> </text>
         <text x="63.790000916" y="-2.75999999" class="f0">to</text>
         <text x="73.309844971" y="-2.75999999" class="f0"> </text>
         <text x="75.805702209" y="-2.75999999" class="f0">prepare</text>
         <text x="111.378433228" y="-2.75999999" class="f0"> </text>
         <text x="113.874290466" y="-2.75999999" class="f0">cigarettesmoke</text>
         <text x="183.262420654" y="-2.75999999" class="f0"> </text>
         <text x="185.758285522" y="-2.75999999" class="f0">con</text>
        </g>
       </g>
      </g>
      <defs>
       <clipPath id="CLIP14">
        <path d="M73.62121582,102.01599884 L173.099578857,102.01599884 L173.099578857,116.054000854 L73.62121582,116.054000854 Z " />
       </clipPath>
      </defs>
      <g clip-path="url(#CLIP14)">
       <g>
        <g transform="matrix(1,0,0,1,74.446250916,115.33480072)">
         <text x="1" y="-2.75999999" class="f0">according</text>
         <text x="44.626327515" y="-2.75999999" class="f0"> </text>
         <text x="47.122188568" y="-2.75999999" class="f0">td</text>
        </g>
       </g>
      </g>
      <defs>
       <clipPath id="CLIP15">
        <path d="M173.599578857,102.01599884 L463.359344482,102.01599884 L463.359344482,116.054000854 L173.599578857,116.054000854 Z " />
       </clipPath>
      </defs>
      <g clip-path="url(#CLIP15)">
       <g>
        <g transform="matrix(1,0,0,1,174.424621582,115.33480072)">
         <text x="1" y="-2.75999999" class="f0">the</text>
         <text x="15.991328239" y="-2.75999999" class="f0"> </text>
         <text x="18.487188339" y="-2.75999999" class="f0">protocol"Standard</text>
         <text x="101.524375916" y="-2.75999999" class="f0"> </text>
         <text x="104.020233154" y="-2.75999999" class="f0">Operating</text>
         <text x="148.988830566" y="-2.75999999" class="f0"> </text>
         <text x="151.484695435" y="-2.75999999" class="f0">Proceduref</text>
        </g>
       </g>
      </g>
      <defs>
       <clipPath id="CLIP16">
        <path d="M73.62121582,116.554000854 L173.099578857,116.554000854 L173.099578857,130.591995239 L73.62121582,130.591995239 Z " />
       </clipPath>
      </defs>
      <g clip-path="url(#CLIP16)">
       <g>
        <g transform="matrix(1,0,0,1,74.446250916,129.872802734)">
         <text x="1" y="-2.75999999" class="f0">Preparation</text>
        </g>
       </g>
      </g>
      <defs>
       <clipPath id="CLIP17">
        <path d="M173.599578857,116.554000854 L463.359344482,116.554000854 L463.359344482,130.591995239 L173.599578857,130.591995239 Z " />
       </clipPath>
      </defs>
      <g clip-path="url(#CLIP17)">
       <g>
        <g transform="matrix(1,0,0,1,174.424621582,129.872802734)">
         <text x="1" y="-2.770781279" class="f0">o</text>
         <text x="6.821875095" y="-2.770781279" class="f0">f</text>
         <text x="10.191015244" y="-2.770781279" class="f0"> </text>
         <text x="12.68687439" y="-2.770781279" class="f0">S</text>
         <text x="17.75945282" y="-2.770781279" class="f0">m</text>
         <text x="26.578514099" y="-2.770781279" class="f0">o</text>
         <text x="32.400390625" y="-2.770781279" class="f0">k</text>
         <text x="37.419063568" y="-2.770781279" class="f0">e</text>
         <text x="42.912109375" y="-2.770781279" class="f0"> </text>
         <text x="45.407970428" y="-2.770781279" class="f0">C</text>
         <text x="51.294532776" y="-2.770781279" class="f0">o</text>
         <text x="57.116409302" y="-2.770781279" class="f0">n</text>
         <text x="62.916721344" y="-2.770781279" class="f0">d</text>
         <text x="68.717033386" y="-2.770781279" class="f0">e</text>
         <text x="74.210083008" y="-2.770781279" class="f0">n</text>
         <text x="80.010398865" y="-2.770781279" class="f0">s</text>
         <text x="84.328292847" y="-2.770781279" class="f0">a</text>
         <text x="89.616493225" y="-2.770781279" class="f0">t</text>
         <text x="93.314460754" y="-2.770781279" class="f0">e</text>
         <text x="98.807510376" y="-2.770781279" class="f0"> </text>
         <text x="101.303367615" y="-2.770781279" class="f0">f</text>
         <text x="104.67250824" y="-2.770781279" class="f0">o</text>
         <text x="110.494384766" y="-2.770781279" class="f0">r</text>
         <text x="114.343292236" y="-2.770781279" class="f0"> </text>
         <text x="116.839149475" y="-2.770781279" class="f0">M</text>
         <text x="126.278137207" y="-2.770781279" class="f0">o</text>
         <text x="132.100006104" y="-2.770781279" class="f0">u</text>
         <text x="137.900314331" y="-2.770781279" class="f0">s</text>
         <text x="142.218200684" y="-2.770781279" class="f0">e</text>
         <text x="147.711242676" y="-2.770781279" class="f0"> </text>
         <text x="150.207107544" y="-2.770781279" class="f0">S</text>
         <text x="155.279678345" y="-2.770781279" class="f0">k</text>
         <text x="160.298355103" y="-2.770781279" class="f0">i</text>
         <text x="162.831954956" y="-2.770781279" class="f0">n</text>
         <text x="168.632263184" y="-2.770781279" class="f0"> </text>
         <text x="171.128128052" y="-2.770781279" class="f0">B</text>
         <text x="177.133285522" y="-2.770781279" class="f0">i</text>
         <text x="179.666885376" y="-2.770781279" class="f0">o</text>
         <text x="185.488754272" y="-2.770781279" class="f0">a</text>
         <text x="190.77696228" y="-2.770781279" class="f0">s</text>
         <text x="195.094848633" y="-2.770781279" class="f0">s</text>
         <text x="199.412734985" y="-2.770781279" class="f0">a</text>
         <text x="204.700942993" y="-2.770781279" class="f0">y</text>
         <text x="209.698059082" y="-2.770781279" class="f1">，</text>
        </g>
       </g>
      </g>
      <defs>
       <clipPath id="CLIP18">
        <path d="M73.62121582,131.091995239 L173.099578857,131.091995239 L173.099578857,145.129989624 L73.62121582,145.129989624 Z " />
       </clipPath>
      </defs>
      <g clip-path="url(#CLIP18)">
       <g>
        <g transform="matrix(1,0,0,1,74.446250916,144.410797119)">
         <text x="1" y="-2.75999999" class="f0">period</text>
         <text x="30.298046112" y="-2.75999999" class="f0"> </text>
         <text x="32.793907166" y="-2.75999999" class="f0">April</text>
        </g>
       </g>
      </g>
      <defs>
       <clipPath id="CLIP19">
        <path d="M173.599578857,131.091995239 L463.359344482,131.091995239 L463.359344482,145.129989624 L173.599578857,145.129989624 Z " />
       </clipPath>
      </defs>
      <g clip-path="url(#CLIP19)">
       <g>
        <g transform="matrix(1,0,0,1,174.424621582,144.410797119)">
         <text x="1" y="-2.770781279" class="f0">1</text>
         <text x="6.595468521" y="-2.770781279" class="f1">，</text>
         <text x="17.635467529" y="-2.770781279" class="f0">1</text>
         <text x="23.23093605" y="-2.770781279" class="f0">9</text>
         <text x="28.826404572" y="-2.770781279" class="f0">8</text>
         <text x="34.421875" y="-2.770781279" class="f0">8</text>
         <text x="40.017341614" y="-2.770781279" class="f0">t</text>
         <text x="43.715309143" y="-2.770781279" class="f0">h</text>
         <text x="49.515621185" y="-2.770781279" class="f0">r</text>
         <text x="53.364528656" y="-2.770781279" class="f0">o</text>
         <text x="59.186405182" y="-2.770781279" class="f0">u</text>
         <text x="64.986717224" y="-2.770781279" class="f0">g</text>
         <text x="70.183280945" y="-2.770781279" class="f0">h</text>
         <text x="75.983596802" y="-2.770781279" class="f0"> </text>
         <text x="78.479454041" y="-2.770781279" class="f0">D</text>
         <text x="85.271644592" y="-2.770781279" class="f0">e</text>
         <text x="90.764694214" y="-2.770781279" class="f0">c</text>
         <text x="95.432975769" y="-2.770781279" class="f0">e</text>
         <text x="100.926025391" y="-2.770781279" class="f0">m</text>
         <text x="109.74508667" y="-2.770781279" class="f0">b</text>
         <text x="115.545402527" y="-2.770781279" class="f0">e</text>
         <text x="121.038452148" y="-2.770781279" class="f0">r</text>
         <text x="124.887359619" y="-2.770781279" class="f0"> </text>
         <text x="127.383216858" y="-2.770781279" class="f0">3</text>
         <text x="132.978683472" y="-2.770781279" class="f0">1</text>
         <text x="138.574157715" y="-2.770781279" class="f1">，</text>
         <text x="149.614151001" y="-2.770781279" class="f0">1</text>
         <text x="155.209625244" y="-2.770781279" class="f0">9</text>
         <text x="160.805099487" y="-2.770781279" class="f0">8</text>
         <text x="166.40057373" y="-2.770781279" class="f0">8</text>
         <text x="171.996047974" y="-2.770781279" class="f0">.</text>
         <text x="174.783004761" y="-2.770781279" class="f0">C</text>
         <text x="180.669570923" y="-2.770781279" class="f0">o</text>
         <text x="186.491439819" y="-2.770781279" class="f0">n</text>
         <text x="192.291748047" y="-2.770781279" class="f0">d</text>
         <text x="198.092056274" y="-2.770781279" class="f0">e</text>
         <text x="203.585098267" y="-2.770781279" class="f0">n</text>
         <text x="209.385406494" y="-2.770781279" class="f0">s</text>
         <text x="213.703292847" y="-2.770781279" class="f0">a</text>
        </g>
       </g>
      </g>
      <defs>
       <clipPath id="CLIP20">
        <path d="M73.62121582,145.630004883 L173.099578857,145.630004883 L173.099578857,159.667999268 L73.62121582,159.667999268 Z " />
       </clipPath>
      </defs>
      <g clip-path="url(#CLIP20)">
       <g>
        <g transform="matrix(1,0,0,1,74.446250916,158.948806763)">
         <text x="1" y="-2.75999999" class="f0">prepared</text>
         <text x="42.373046875" y="-2.75999999" class="f0"> </text>
         <text x="44.868907928" y="-2.75999999" class="f0">acdc</text>
        </g>
       </g>
      </g>
      <defs>
       <clipPath id="CLIP21">
        <path d="M173.599578857,145.630004883 L463.359344482,145.630004883 L463.359344482,159.667999268 L173.599578857,159.667999268 Z " />
       </clipPath>
      </defs>
      <g clip-path="url(#CLIP21)">
       <g>
        <g transform="matrix(1,0,0,1,174.424621582,158.948806763)">
         <text x="1" y="-2.75999999" class="f0">ording</text>
         <text x="30.001562119" y="-2.75999999" class="f0"> </text>
         <text x="32.497421265" y="-2.75999999" class="f0">to</text>
         <text x="42.01726532" y="-2.75999999" class="f0"> </text>
         <text x="44.513126373" y="-2.75999999" class="f0">a</text>
         <text x="49.801330566" y="-2.75999999" class="f0"> </text>
         <text x="52.29719162" y="-2.75999999" class="f0">time</text>
         <text x="72.840866089" y="-2.75999999" class="f0"> </text>
         <text x="75.336723328" y="-2.75999999" class="f0">schedule</text>
         <text x="115.243515015" y="-2.75999999" class="f0"> </text>
         <text x="117.739372253" y="-2.75999999" class="f0">provided</text>
         <text x="157.824066162" y="-2.75999999" class="f0"> </text>
         <text x="160.31993103" y="-2.75999999" class="f0">by</text>
         <text x="171.117355347" y="-2.75999999" class="f0"> </text>
         <text x="173.613220215" y="-2.75999999" class="f0">Lorilla</text>
        </g>
       </g>
      </g>
      <defs>
       <clipPath id="CLIP22">
        <path d="M73.62121582,160.167999268 L173.099578857,160.167999268 L173.099578857,174.205993652 L73.62121582,174.205993652 Z " />
       </clipPath>
      </defs>
      <g clip-path="url(#CLIP22)">
       <g>
        <g transform="matrix(1,0,0,1,74.446250916,173.486801147)">
         <text x="1" y="-2.75999999" class="f0">fixed</text>
         <text x="22.977577209" y="-2.75999999" class="f0"> </text>
         <text x="25.473436356" y="-2.75999999" class="f0">price</text>
        </g>
       </g>
      </g>
      <defs>
       <clipPath id="CLIP23">
        <path d="M173.599578857,160.167999268 L463.359344482,160.167999268 L463.359344482,174.205993652 L173.599578857,174.205993652 Z " />
       </clipPath>
      </defs>
      <g clip-path="url(#CLIP23)">
       <g>
        <g transform="matrix(1,0,0,1,174.424621582,173.486801147)">
         <text x="1" y="-2.75999999" class="f0">for</text>
         <text x="14.039921761" y="-2.75999999" class="f0"> </text>
         <text x="16.53578186" y="-2.75999999" class="f0">condensate</text>
         <text x="68.717025757" y="-2.75999999" class="f0"> </text>
         <text x="71.212882996" y="-2.75999999" class="f0">collection</text>
         <text x="114.785308838" y="-2.75999999" class="f0"> </text>
         <text x="117.281166077" y="-2.75999999" class="f0">will</text>
         <text x="132.77381897" y="-2.75999999" class="f0"> </text>
         <text x="135.269683838" y="-2.75999999" class="f0">be</text>
         <text x="146.563049316" y="-2.75999999" class="f0"> </text>
         <text x="149.058914185" y="-2.75999999" class="f0">at</text>
         <text x="158.045089722" y="-2.75999999" class="f0"> </text>
         <text x="160.54095459" y="-2.75999999" class="f0">a</text>
         <text x="165.829162598" y="-2.75999999" class="f0"> </text>
         <text x="168.325027466" y="-2.75999999" class="f0">rate</text>
         <text x="186.653152466" y="-2.75999999" class="f0"> </text>
         <text x="189.149017334" y="-2.75999999" class="f0">o</text>
        </g>
       </g>
      </g>
      <defs>
       <clipPath id="CLIP24">
        <path d="M73.62121582,174.705993652 L173.099578857,174.705993652 L173.099578857,188.743988037 L73.62121582,188.743988037 Z " />
       </clipPath>
      </defs>
      <g clip-path="url(#CLIP24)">
       <g>
        <g transform="matrix(1,0,0,1,74.446250916,188.024795532)">
         <text x="1" y="-2.770781279" class="f0">$</text>
         <text x="6.595468521" y="-2.770781279" class="f0">1</text>
         <text x="12.190937042" y="-2.770781279" class="f1">，</text>
         <text x="23.230937958" y="-2.770781279" class="f0">7</text>
         <text x="28.826406479" y="-2.770781279" class="f0">5</text>
         <text x="34.421875" y="-2.770781279" class="f0">0</text>
         <text x="40.017341614" y="-2.770781279" class="f0">/</text>
         <text x="44.281326294" y="-2.770781279" class="f0">1</text>
         <text x="49.876792908" y="-2.770781279" class="f0">0</text>
         <text x="55.472259521" y="-2.770781279" class="f1">，</text>
         <text x="66.512260437" y="-2.770781279" class="f0">0</text>
         <text x="72.107727051" y="-2.770781279" class="f0">0</text>
        </g>
       </g>
      </g>
      <defs>
       <clipPath id="CLIP25">
        <path d="M173.599578857,174.705993652 L463.359344482,174.705993652 L463.359344482,188.743988037 L173.599578857,188.743988037 Z " />
       </clipPath>
      </defs>
      <g clip-path="url(#CLIP25)">
       <g>
        <g transform="matrix(1,0,0,1,174.424621582,188.024795532)">
         <text x="1" y="-2.75999999" class="f0">0</text>
         <text x="6.595468521" y="-2.75999999" class="f0"> </text>
         <text x="9.091327667" y="-2.75999999" class="f0">cigarettessmoked.</text>
         <text x="91.384613037" y="-2.75999999" class="f0">  </text>
         <text x="96.376335144" y="-2.75999999" class="f0">Piedmont</text>
         <text x="140.045791626" y="-2.75999999" class="f0"> </text>
         <text x="142.541656494" y="-2.75999999" class="f0">will</text>
         <text x="158.034317017" y="-2.75999999" class="f0"> </text>
         <text x="160.530181885" y="-2.75999999" class="f0">pay</text>
         <text x="176.615814209" y="-2.75999999" class="f0"> </text>
         <text x="179.111679077" y="-2.75999999" class="f0">the</text>
         <text x="194.103012085" y="-2.75999999" class="f0"> </text>
         <text x="196.598876953" y="-2.75999999" class="f0">cost</text>
         <text x="215.104888916" y="-2.75999999" class="f0"> </text>
         <text x="217.600753784" y="-2.75999999" class="f0">of</text>
        </g>
       </g>
      </g>
      <defs>
       <clipPath id="CLIP26">
        <path d="M73.62121582,189.244003296 L173.099578857,189.244003296 L173.099578857,203.281997681 L73.62121582,203.281997681 Z " />
       </clipPath>
      </defs>
      <g clip-path="url(#CLIP26)">
       <g>
        <g transform="matrix(1,0,0,1,74.446250916,202.562805176)">
         <text x="1" y="-2.75999999" class="f0">consumable</text>
         <text x="55.342891693" y="-2.75999999" class="f0"> </text>
         <text x="57.838752747" y="-2.75999999" class="f0">s</text>
        </g>
       </g>
      </g>
      <defs>
       <clipPath id="CLIP27">
        <path d="M173.599578857,189.244003296 L463.359344482,189.244003296 L463.359344482,203.281997681 L173.599578857,203.281997681 Z " />
       </clipPath>
      </defs>
      <g clip-path="url(#CLIP27)">
       <g>
        <g transform="matrix(1,0,0,1,174.424621582,202.562805176)">
         <text x="1" y="-2.75999999" class="f0">upplies.This</text>
         <text x="54.09765625" y="-2.75999999" class="f0"> </text>
         <text x="56.593517303" y="-2.75999999" class="f0">work</text>
         <text x="79.174842834" y="-2.75999999" class="f0"> </text>
         <text x="81.670700073" y="-2.75999999" class="f0">is</text>
         <text x="88.522186279" y="-2.75999999" class="f0"> </text>
         <text x="91.018043518" y="-2.75999999" class="f0">to</text>
         <text x="100.537887573" y="-2.75999999" class="f0"> </text>
         <text x="103.033744812" y="-2.75999999" class="f0">be</text>
         <text x="114.327102661" y="-2.75999999" class="f0"> </text>
         <text x="116.8229599" y="-2.75999999" class="f0">conducted</text>
         <text x="164.373657227" y="-2.75999999" class="f0"> </text>
         <text x="166.869522095" y="-2.75999999" class="f0">in</text>
         <text x="175.203430176" y="-2.75999999" class="f0"> </text>
         <text x="177.699295044" y="-2.75999999" class="f0">accordance</text>
        </g>
       </g>
      </g>
      <defs>
       <clipPath id="CLIP28">
        <path d="M73.62121582,203.781997681 L173.099578857,203.781997681 L173.099578857,217.819992065 L73.62121582,217.819992065 Z " />
       </clipPath>
      </defs>
      <g clip-path="url(#CLIP28)">
       <g>
        <g transform="matrix(1,0,0,1,74.446250916,217.100799561)">
         <text x="1" y="-2.75999999" class="f0">with</text>
         <text x="20.923749924" y="-2.75999999" class="f0"> </text>
         <text x="23.41960907" y="-2.75999999" class="f0">the</text>
         <text x="38.410938263" y="-2.75999999" class="f0"> </text>
         <text x="40.906799316" y="-2.75999999" class="f0">Dede</text>
        </g>
       </g>
      </g>
      <defs>
       <clipPath id="CLIP29">
        <path d="M173.599578857,203.781997681 L463.359344482,203.781997681 L463.359344482,217.819992065 L173.599578857,217.819992065 Z " />
       </clipPath>
      </defs>
      <g clip-path="url(#CLIP29)">
       <g>
        <g transform="matrix(1,0,0,1,174.424621582,231.638809204)">
         <text x="1" y="-17.30878067" class="f0">e</text>
         <text x="6.493046761" y="-17.30878067" class="f0">m</text>
         <text x="15.312108994" y="-17.30878067" class="f0">b</text>
         <text x="21.112421036" y="-17.30878067" class="f0">e</text>
         <text x="26.60546875" y="-17.30878067" class="f0">r</text>
         <text x="30.454374313" y="-17.30878067" class="f0"> </text>
         <text x="32.950233459" y="-17.30878067" class="f0">1</text>
         <text x="38.545700073" y="-17.30878067" class="f0">0</text>
         <text x="44.141166687" y="-17.30878067" class="f1">，</text>
         <text x="55.181167603" y="-17.30878067" class="f0"> </text>
         <text x="57.677028656" y="-17.30878067" class="f0">1</text>
         <text x="63.272499084" y="-17.30878067" class="f0">9</text>
         <text x="68.867965698" y="-17.30878067" class="f0">8</text>
         <text x="74.463432312" y="-17.30878067" class="f0">4</text>
         <text x="80.058898926" y="-17.30878067" class="f0"> </text>
         <text x="82.554756165" y="-17.30878067" class="f0">f</text>
         <text x="85.92389679" y="-17.30878067" class="f0">o</text>
         <text x="91.745773315" y="-17.30878067" class="f0">r</text>
         <text x="95.594680786" y="-17.30878067" class="f0">m</text>
         <text x="104.413742065" y="-17.30878067" class="f0">a</text>
         <text x="109.701942444" y="-17.30878067" class="f0">l</text>
         <text x="112.235534668" y="-17.30878067" class="f0"> </text>
         <text x="114.731391907" y="-17.30878067" class="f0">a</text>
         <text x="120.019592285" y="-17.30878067" class="f0">g</text>
         <text x="125.216156006" y="-17.30878067" class="f0">r</text>
         <text x="129.065063477" y="-17.30878067" class="f0">e</text>
         <text x="134.558105469" y="-17.30878067" class="f0">e</text>
         <text x="140.051147461" y="-17.30878067" class="f0">m</text>
         <text x="148.87020874" y="-17.30878067" class="f0">e</text>
         <text x="154.363250732" y="-17.30878067" class="f0">n</text>
         <text x="160.16355896" y="-17.30878067" class="f0">t</text>
         <text x="163.861526489" y="-17.30878067" class="f0"> </text>
         <text x="166.357391357" y="-17.30878067" class="f0">b</text>
         <text x="172.157699585" y="-17.30878067" class="f0">e</text>
         <text x="177.650741577" y="-17.30878067" class="f0">t</text>
         <text x="181.348709106" y="-17.30878067" class="f0">w</text>
         <text x="189.240585327" y="-17.30878067" class="f0">e</text>
         <text x="194.733627319" y="-17.30878067" class="f0">e</text>
         <text x="200.226669312" y="-17.30878067" class="f0">n</text>
         <text x="206.026977539" y="-17.30878067" class="f0"> </text>
         <text x="208.522842407" y="-17.30878067" class="f0">P</text>
         <text x="214.226119995" y="-17.30878067" class="f0">i</text>
         <text x="216.759719849" y="-17.30878067" class="f0">e</text>
         <text x="222.252761841" y="-17.30878067" class="f0">d</text>
         <text x="228.053070068" y="-17.30878067" class="f0">m</text>
         <text x="236.872131348" y="-17.30878067" class="f0">o</text>
         <text x="242.694000244" y="-17.30878067" class="f0">n</text>
         <text x="248.494308472" y="-17.30878067" class="f0">t</text>
         <text x="1" y="-2.75999999" class="f0">R</text>
         <text x="6.994374752" y="-2.75999999" class="f0">e</text>
         <text x="12.487421036" y="-2.75999999" class="f0">s</text>
         <text x="16.805311203" y="-2.75999999" class="f0">e</text>
         <text x="22.298358917" y="-2.75999999" class="f0">a</text>
         <text x="27.58656311" y="-2.75999999" class="f0">c</text>
         <text x="32.254844666" y="-2.75999999" class="f0">h</text>
        </g>
       </g>
      </g>
      <defs>
       <clipPath id="CLIP30">
        <path d="M73.62121582,218.320007324 L173.099578857,218.320007324 L173.099578857,232.358001709 L73.62121582,232.358001709 Z " />
       </clipPath>
      </defs>
      <g clip-path="url(#CLIP30)">
       <g>
        <g transform="matrix(1,0,0,1,74.446250916,231.638809204)">
         <text x="1" y="-2.75999999" class="f0">Laboratories</text>
        </g>
       </g>
      </g>
      <defs>
       <clipPath id="CLIP31">
        <path d="M173.599578857,218.320007324 L463.359344482,218.320007324 L463.359344482,232.358001709 L173.599578857,232.358001709 Z " />
       </clipPath>
      </defs>
      <g clip-path="url(#CLIP31)">
       <g>
        <g transform="matrix(1,0,0,1,174.424621582,231.638809204)">
         <text x="1" y="-2.75999999" class="f0">and</text>
         <text x="17.888828278" y="-2.75999999" class="f0"> </text>
         <text x="20.384687424" y="-2.75999999" class="f0">Lorillard.1All</text>
         <text x="77.072502136" y="-2.75999999" class="f0"> </text>
         <text x="79.568359375" y="-2.75999999" class="f0">work</text>
         <text x="102.149688721" y="-2.75999999" class="f0"> </text>
         <text x="104.645545959" y="-2.75999999" class="f0">is</text>
         <text x="111.497032166" y="-2.75999999" class="f0"> </text>
         <text x="113.992889404" y="-2.75999999" class="f0">to</text>
         <text x="123.512733459" y="-2.75999999" class="f0"> </text>
         <text x="126.008590698" y="-2.75999999" class="f0">be</text>
         <text x="137.301956177" y="-2.75999999" class="f0"> </text>
         <text x="139.797821045" y="-2.75999999" class="f0">coordinatei</text>
        </g>
       </g>
      </g>
      <defs>
       <clipPath id="CLIP32">
        <path d="M73.62121582,232.858001709 L173.099578857,232.858001709 L173.099578857,246.895996094 L73.62121582,246.895996094 Z " />
       </clipPath>
      </defs>
      <g clip-path="url(#CLIP32)">
       <g>
        <g transform="matrix(1,0,0,1,74.446250916,260.714813232)">
         <text x="1" y="-17.298000336" class="f0">Mr.</text>
         <text x="17.07484436" y="-17.298000336" class="f0"> </text>
         <text x="19.570703506" y="-17.298000336" class="f0">Neil</text>
         <text x="37.257343292" y="-17.298000336" class="f0"> </text>
         <text x="39.753204346" y="-17.298000336" class="f0">Thaggard</text>
         <text x="1" y="-2.75999999" class="f0">(919)</text>
        </g>
       </g>
      </g>
      <defs>
       <clipPath id="CLIP33">
        <path d="M173.599578857,232.858001709 L463.359344482,232.858001709 L463.359344482,246.895996094 L173.599578857,246.895996094 Z " />
       </clipPath>
      </defs>
      <g clip-path="url(#CLIP33)">
       <g>
        <g transform="matrix(1,0,0,1,174.424621582,246.176803589)">
         <text x="1" y="-2.75999999" class="f0">Mr.</text>
         <text x="17.07484436" y="-2.75999999" class="f0"> </text>
         <text x="19.570703506" y="-2.75999999" class="f0">Neil</text>
         <text x="37.257343292" y="-2.75999999" class="f0"> </text>
         <text x="39.753204346" y="-2.75999999" class="f0">Thaggard</text>
         <text x="81.552108765" y="-2.75999999" class="f0"> </text>
         <text x="84.047966003" y="-2.75999999" class="f0">(919))373-6628.</text>
        </g>
       </g>
      </g>
      <defs>
       <clipPath id="CLIP34">
        <path d="M0.25,320.085998535 L173.099578857,320.085998535 L173.099578857,334.12399292 L0.25,334.12399292 Z " />
       </clipPath>
      </defs>
      <g clip-path="url(#CLIP34)">
       <g>
        <g transform="matrix(1,0,0,1,46.412208557,333.404785156)">
         <text x="0" y="-2.75999999" class="f0">FOLLOW</text>
         <text x="38.796329498" y="-2.75999999" class="f0"> </text>
         <text x="41.292190552" y="-2.75999999" class="f0">UP</text>
         <text x="54.07875061" y="-2.75999999" class="f0"> </text>
         <text x="56.574611664" y="-2.75999999" class="f0">DATE</text>
        </g>
       </g>
      </g>
      <defs>
       <clipPath id="CLIP35">
        <path d="M173.599578857,320.085998535 L377.893981934,320.085998535 L377.893981934,334.12399292 L173.599578857,334.12399292 Z " />
       </clipPath>
      </defs>
      <g clip-path="url(#CLIP35)">
       <g>
        <g transform="matrix(1,0,0,1,236.322433472,333.404785156)">
         <text x="0" y="-2.75999999" class="f0">REQUISITION</text>
         <text x="59.129764557" y="-2.75999999" class="f0"> </text>
         <text x="61.62562561" y="-2.75999999" class="f0">NO.</text>
        </g>
       </g>
      </g>
      <defs>
       <clipPath id="CLIP36">
        <path d="M378.393981934,320.085998535 L587.526000977,320.085998535 L587.526000977,334.12399292 L378.393981934,334.12399292 Z " />
       </clipPath>
      </defs>
      <g clip-path="url(#CLIP36)">
       <g>
        <g transform="matrix(1,0,0,1,459.923156738,333.404785156)">
         <text x="0" y="-2.75999999" class="f0">ISSUED</text>
         <text x="32.192813873" y="-2.75999999" class="f0"> </text>
         <text x="34.688674927" y="-2.75999999" class="f0">BY</text>
        </g>
       </g>
      </g>
      <defs>
       <clipPath id="CLIP37">
        <path d="M0.25,349.161987305 L173.099578857,349.161987305 L173.099578857,363.199981689 L0.25,363.199981689 Z " />
       </clipPath>
      </defs>
      <g clip-path="url(#CLIP37)">
       <g>
        <g transform="matrix(1,0,0,1,1.075036168,362.480773926)">
         <text x="1" y="-2.75999999" class="f0">BUDGET</text>
         <text x="38.615779877" y="-2.75999999" class="f0"> </text>
         <text x="41.11164093" y="-2.75999999" class="f0">NO.</text>
        </g>
       </g>
      </g>
      <defs>
       <clipPath id="CLIP38">
        <path d="M173.599578857,349.161987305 L275.496765137,349.161987305 L275.496765137,363.199981689 L173.599578857,363.199981689 Z " />
       </clipPath>
      </defs>
      <g clip-path="url(#CLIP38)">
       <g>
        <g transform="matrix(1,0,0,1,202.772750854,362.480773926)">
         <text x="0" y="-2.75999999" class="f0">ACCT.NO.</text>
        </g>
       </g>
      </g>
      <defs>
       <clipPath id="CLIP39">
        <path d="M275.996765137,349.161987305 L377.893951416,349.161987305 L377.893951416,363.199981689 L275.996765137,363.199981689 Z " />
       </clipPath>
      </defs>
      <g clip-path="url(#CLIP39)">
       <g>
        <g transform="matrix(1,0,0,1,304.059448242,362.480773926)">
         <text x="0" y="-2.75999999" class="f0">DEPT.</text>
         <text x="26.052890778" y="-2.75999999" class="f0"> </text>
         <text x="28.548749924" y="-2.75999999" class="f0">NO.</text>
        </g>
       </g>
      </g>
      <defs>
       <clipPath id="CLIP40">
        <path d="M378.393981934,349.161987305 L587.526000977,349.161987305 L587.526000977,363.199981689 L378.393981934,363.199981689 Z " />
       </clipPath>
      </defs>
      <g clip-path="url(#CLIP40)">
       <g>
        <g transform="matrix(1,0,0,1,451.246948242,362.480773926)">
         <text x="0" y="-2.75999999" class="f0">APPROVED</text>
         <text x="49.54523468" y="-2.75999999" class="f0"> </text>
         <text x="52.041095734" y="-2.75999999" class="f0">BY</text>
        </g>
       </g>
      </g>
      <defs>
       <clipPath id="CLIP41">
        <path d="M173.599578857,363.700012207 L275.496765137,363.700012207 L275.496765137,377.738006592 L173.599578857,377.738006592 Z " />
       </clipPath>
      </defs>
      <g clip-path="url(#CLIP41)">
       <g>
        <g transform="matrix(1,0,0,1,213.35723877,377.018798828)">
         <text x="0" y="-2.75999999" class="f0">4111</text>
        </g>
       </g>
      </g>
      <defs>
       <clipPath id="CLIP42">
        <path d="M275.996765137,363.700012207 L377.893951416,363.700012207 L377.893951416,377.738006592 L275.996765137,377.738006592 Z " />
       </clipPath>
      </defs>
      <g clip-path="url(#CLIP42)">
       <g>
        <g transform="matrix(1,0,0,1,315.754425049,377.018798828)">
         <text x="0" y="-2.75999999" class="f0">8700</text>
        </g>
       </g>
      </g>
     </g>
    </g>
    <defs>
     <clipPath id="CLIP43">
      <path d="M-0.5,-0.5 L464.5,-0.5 L464.5,378.5 L-0.5,378.5 Z " />
     </clipPath>
    </defs>
    <g clip-path="url(#CLIP43)">
     <g />
    </g>
   </g>
   <g />
   <g />
   <g />
   <g>
    <g>
     <g />
     <g shape-rendering="crispEdges" />
    </g>
    <g>
     <g />
    </g>
    <g>
     <g />
    </g>
   </g>
   <g>
    <text x="10" y="10" class="f2">Evaluation Only. Created with Aspose.Cells for Python via Java.Copyright 2003 - 2023 Aspose Pty Ltd.</text>
   </g>
  </g>
 </g>
 <defs />
 <defs>
  <style type="text/css">
   <![CDATA[
   
.f0
{
font-family:Calibri;
font-size:11.039999962px;
fill:#000000;
}

.f1
{
font-family:Microsoft YaHei Light;
font-size:11.039999962px;
fill:#000000;
}

.f2
{
font-family:Arial;
font-size:10px;
fill:#FF0000;
}

   
.p0
{
stroke:#000000;
stroke-width:0.969200015px;
stroke-linecap:butt;
stroke-linejoin:miter;
}

   ]]></style>
 </defs>
</svg>
