<?xml version="1.0" encoding="UTF-8" standalone="yes"?>
<svg xmlns="http://www.w3.org/2000/svg" xmlns:xlink="http://www.w3.org/1999/xlink" width="612pt" height="792pt">
 <g id="SFixTitle" />
 <g id="SContent">
  <g transform="scale(1.33333)">
   <rect width="100%" height="100%" fill="white" />
   <g>
    <g>
     <g />
     <g shape-rendering="crispEdges" />
    </g>
    <g>
     <g />
    </g>
    <g>
     <g />
    </g>
   </g>
   <g transform="matrix(1,0,0,1,50.400001526,54)">
    <defs>
     <clipPath id="CLIP0">
      <path d="M-0.5,-0.5 L458.5,-0.5 L458.5,117.5 L-0.5,117.5 Z " />
     </clipPath>
    </defs>
    <g clip-path="url(#CLIP0)">
     <g />
     <g shape-rendering="crispEdges" />
    </g>
    <defs>
     <clipPath id="CLIP1">
      <path d="M-0.5,-1.453799963 L458.5,-1.453799963 L458.5,118.546203613 L-0.5,118.546203613 Z " />
     </clipPath>
    </defs>
    <g clip-path="url(#CLIP1)">
     <g>
      <g />
      <path d="M 0,0 L 457.965393066,0" class="p0" fill="none" />
      <path d="M 0,29.076000214 L 457.965393066,29.076000214" class="p0" fill="none" />
      <path d="M 0,58.152000427 L 457.965393066,58.152000427" class="p0" fill="none" />
      <path d="M 0,87.227996826 L 457.965393066,87.227996826" class="p0" fill="none" />
      <path d="M 0,116.304000854 L 457.965393066,116.304000854" class="p0" fill="none" />
      <path d="M 0,0 L 0,14.538000107" class="p0" fill="none" />
      <path d="M 0,29.076000214 L 0,43.613998413" class="p0" fill="none" />
      <path d="M 0,58.152000427 L 0,72.690002441" class="p0" fill="none" />
      <path d="M 0,87.227996826 L 0,101.76599884" class="p0" fill="none" />
      <path d="M 457.964996338,58.152000427 L 457.964996338,72.690002441" class="p0" fill="none" />
      <path d="M 457.964996338,87.227996826 L 457.964996338,101.76599884" class="p0" fill="none" />
      <path d="M 0,14.538000107 L 457.965393066,14.538000107" class="p0" fill="none" />
      <path d="M 0,43.613998413 L 457.965393066,43.613998413" class="p0" fill="none" />
      <path d="M 0,72.690002441 L 457.965393066,72.690002441" class="p0" fill="none" />
      <path d="M 0,101.76599884 L 457.965393066,101.76599884" class="p0" fill="none" />
      <path d="M 0,14.538000107 L 0,29.076000214" class="p0" fill="none" />
      <path d="M 0,43.613998413 L 0,58.152000427" class="p0" fill="none" />
      <path d="M 0,72.690002441 L 0,87.228004456" class="p0" fill="none" />
      <path d="M 0,101.76599884 L 0,116.304000854" class="p0" fill="none" />
      <path d="M 457.964996338,43.613998413 L 457.964996338,58.152000427" class="p0" fill="none" />
      <path d="M 457.964996338,72.690002441 L 457.964996338,87.228004456" class="p0" fill="none" />
      <path d="M 457.964996338,101.76599884 L 457.964996338,116.304000854" class="p0" fill="none" />
     </g>
    </g>
    <defs>
     <clipPath id="CLIP2">
      <path d="M-0.5,-0.5 L458.5,-0.5 L458.5,117.5 L-0.5,117.5 Z " />
     </clipPath>
    </defs>
    <g clip-path="url(#CLIP2)">
     <g>
      <defs>
       <clipPath id="CLIP3">
        <path d="M0.25,0.25 L796.351806641,0.25 L796.351806641,14.288000107 L0.25,14.288000107 Z " />
       </clipPath>
      </defs>
      <g clip-path="url(#CLIP3)">
       <g>
        <g transform="matrix(1,0,0,1,1.075036168,13.568799973)">
         <text x="1" y="-2.770781279" class="f0">门</text>
         <text x="12.039999962" y="-2.770781279" class="f0">诊</text>
         <text x="23.079999924" y="-2.770781279" class="f0">检</text>
         <text x="34.119998932" y="-2.770781279" class="f0">验</text>
         <text x="45.159999847" y="-2.770781279" class="f0">报</text>
         <text x="56.200000763" y="-2.770781279" class="f0">告</text>
         <text x="67.239997864" y="-2.770781279" class="f0">单</text>
        </g>
       </g>
      </g>
      <defs>
       <clipPath id="CLIP4">
        <path d="M0.25,14.788000107 L796.351806641,14.788000107 L796.351806641,28.826000214 L0.25,28.826000214 Z " />
       </clipPath>
      </defs>
      <g clip-path="url(#CLIP4)">
       <g>
        <g transform="matrix(1,0,0,1,1.075036168,28.106800079)">
         <text x="1" y="-2.770781279" class="f1">*</text>
         <text x="6.498437405" y="-2.770781279" class="f1">*</text>
         <text x="11.996874809" y="-2.770781279" class="f0">血</text>
         <text x="23.036874771" y="-2.770781279" class="f0">常</text>
         <text x="34.076873779" y="-2.770781279" class="f0">规</text>
         <text x="45.116874695" y="-2.770781279" class="f1">(</text>
         <text x="48.464454651" y="-2.770781279" class="f1">5</text>
         <text x="54.059921265" y="-2.770781279" class="f0">分</text>
         <text x="65.09992218" y="-2.770781279" class="f0">类</text>
         <text x="76.139923096" y="-2.770781279" class="f1">)</text>
        </g>
       </g>
      </g>
      <defs>
       <clipPath id="CLIP5">
        <path d="M0.25,29.326000214 L796.351806641,29.326000214 L796.351806641,43.363998413 L0.25,43.363998413 Z " />
       </clipPath>
      </defs>
      <g clip-path="url(#CLIP5)">
       <g>
        <g transform="matrix(1,0,0,1,1.075036168,42.644798279)">
         <text x="1" y="-2.770781279" class="f0">标</text>
         <text x="12.039999962" y="-2.770781279" class="f0">本</text>
         <text x="23.079999924" y="-2.770781279" class="f0">状</text>
         <text x="34.119998932" y="-2.770781279" class="f0">态</text>
         <text x="45.159999847" y="-2.770781279" class="f0">：</text>
         <text x="56.200000763" y="-2.770781279" class="f0">正</text>
         <text x="67.239997864" y="-2.770781279" class="f0">常</text>
         <text x="78.279998779" y="-2.770781279" class="f1"> </text>
         <text x="80.775856018" y="-2.770781279" class="f1"> </text>
         <text x="83.271713257" y="-2.770781279" class="f1"> </text>
         <text x="85.767570496" y="-2.770781279" class="f1"> </text>
         <text x="88.263427734" y="-2.770781279" class="f1"> </text>
         <text x="90.759284973" y="-2.770781279" class="f1"> </text>
         <text x="93.255142212" y="-2.770781279" class="f1"> </text>
         <text x="95.750999451" y="-2.770781279" class="f1"> </text>
         <text x="98.246856689" y="-2.770781279" class="f1"> </text>
         <text x="100.742713928" y="-2.770781279" class="f1"> </text>
         <text x="103.238571167" y="-2.770781279" class="f1"> </text>
         <text x="105.734428406" y="-2.770781279" class="f1"> </text>
         <text x="108.230285645" y="-2.770781279" class="f1"> </text>
         <text x="110.726142883" y="-2.770781279" class="f1"> </text>
         <text x="113.222000122" y="-2.770781279" class="f1"> </text>
         <text x="115.717857361" y="-2.770781279" class="f1"> </text>
         <text x="118.2137146" y="-2.770781279" class="f0">临</text>
         <text x="129.253707886" y="-2.770781279" class="f0">床</text>
         <text x="140.293701172" y="-2.770781279" class="f0">诊</text>
         <text x="151.333694458" y="-2.770781279" class="f0">断</text>
         <text x="162.373687744" y="-2.770781279" class="f0">：</text>
         <text x="173.41368103" y="-2.770781279" class="f1">1</text>
         <text x="179.009155273" y="-2.770781279" class="f1">.</text>
         <text x="181.796112061" y="-2.770781279" class="f0">慢</text>
         <text x="192.836105347" y="-2.770781279" class="f0">性</text>
         <text x="203.876098633" y="-2.770781279" class="f0">扁</text>
         <text x="214.916091919" y="-2.770781279" class="f0">桃</text>
         <text x="225.956085205" y="-2.770781279" class="f0">体</text>
         <text x="236.996078491" y="-2.770781279" class="f0">炎</text>
        </g>
       </g>
      </g>
      <defs>
       <clipPath id="CLIP6">
        <path d="M0.25,43.863998413 L457.715393066,43.863998413 L457.715393066,57.902000427 L0.25,57.902000427 Z " />
       </clipPath>
      </defs>
      <g clip-path="url(#CLIP6)">
       <g>
        <g transform="matrix(1,0,0,1,1.075036168,57.182800293)">
         <text x="1" y="-2.770781279" class="f0">检</text>
         <text x="12.039999962" y="-2.770781279" class="f0">验</text>
         <text x="23.079999924" y="-2.770781279" class="f0">项</text>
         <text x="34.119998932" y="-2.770781279" class="f0">目</text>
        </g>
       </g>
      </g>
      <defs>
       <clipPath id="CLIP7">
        <path d="M0.25,58.402000427 L457.715393066,58.402000427 L457.715393066,72.440002441 L0.25,72.440002441 Z " />
       </clipPath>
      </defs>
      <g clip-path="url(#CLIP7)">
       <g>
        <g transform="matrix(1,0,0,1,1.075036168,71.720802307)">
         <text x="1" y="-2.770781279" class="f0">中</text>
         <text x="12.039999962" y="-2.770781279" class="f0">性</text>
         <text x="23.079999924" y="-2.770781279" class="f0">细</text>
         <text x="34.119998932" y="-2.770781279" class="f0">胞</text>
         <text x="45.159999847" y="-2.770781279" class="f0">百</text>
         <text x="56.200000763" y="-2.770781279" class="f0">分</text>
         <text x="67.239997864" y="-2.770781279" class="f0">率</text>
         <text x="78.279998779" y="-2.770781279" class="f1">(</text>
         <text x="81.627578735" y="-2.770781279" class="f1">N</text>
         <text x="88.753982544" y="-2.770781279" class="f1">E</text>
         <text x="94.144607544" y="-2.770781279" class="f1">L</text>
         <text x="98.785934448" y="-2.770781279" class="f1">%</text>
         <text x="106.677810669" y="-2.770781279" class="f1">)</text>
        </g>
       </g>
      </g>
      <defs>
       <clipPath id="CLIP8">
        <path d="M0.25,72.940002441 L457.715393066,72.940002441 L457.715393066,86.978004456 L0.25,86.978004456 Z " />
       </clipPath>
      </defs>
      <g clip-path="url(#CLIP8)">
       <g>
        <g transform="matrix(1,0,0,1,1.075036168,86.258804321)">
         <text x="1" y="-2.770781279" class="f0">淋</text>
         <text x="12.039999962" y="-2.770781279" class="f0">巴</text>
         <text x="23.079999924" y="-2.770781279" class="f0">细</text>
         <text x="34.119998932" y="-2.770781279" class="f0">胞</text>
         <text x="45.159999847" y="-2.770781279" class="f0">百</text>
         <text x="56.200000763" y="-2.770781279" class="f0">分</text>
         <text x="67.239997864" y="-2.770781279" class="f0">率</text>
         <text x="78.279998779" y="-2.770781279" class="f1">(</text>
         <text x="81.627578735" y="-2.770781279" class="f1">L</text>
         <text x="86.26890564" y="-2.770781279" class="f1">Y</text>
         <text x="91.648750305" y="-2.770781279" class="f1">M</text>
         <text x="101.087738037" y="-2.770781279" class="f1">%</text>
         <text x="108.979614258" y="-2.770781279" class="f1">)</text>
        </g>
       </g>
      </g>
      <defs>
       <clipPath id="CLIP9">
        <path d="M0.25,87.477996826 L457.715393066,87.477996826 L457.715393066,101.51599884 L0.25,101.51599884 Z " />
       </clipPath>
      </defs>
      <g clip-path="url(#CLIP9)">
       <g>
        <g transform="matrix(1,0,0,1,1.075036168,100.796798706)">
         <text x="1" y="-2.770781279" class="f0">单</text>
         <text x="12.039999962" y="-2.770781279" class="f0">核</text>
         <text x="23.079999924" y="-2.770781279" class="f0">细</text>
         <text x="34.119998932" y="-2.770781279" class="f0">胞</text>
         <text x="45.159999847" y="-2.770781279" class="f0">百</text>
         <text x="56.200000763" y="-2.770781279" class="f0">分</text>
         <text x="67.239997864" y="-2.770781279" class="f0">率</text>
         <text x="78.279998779" y="-2.770781279" class="f1">(</text>
         <text x="81.627578735" y="-2.770781279" class="f1">M</text>
         <text x="91.066558838" y="-2.770781279" class="f1">O</text>
         <text x="98.376243591" y="-2.770781279" class="f1">N</text>
         <text x="105.5026474" y="-2.770781279" class="f1">O</text>
         <text x="112.812332153" y="-2.770781279" class="f1">%</text>
         <text x="120.704208374" y="-2.770781279" class="f1">)</text>
        </g>
       </g>
      </g>
      <defs>
       <clipPath id="CLIP10">
        <path d="M0.25,102.01599884 L457.715393066,102.01599884 L457.715393066,116.054000854 L0.25,116.054000854 Z " />
       </clipPath>
      </defs>
      <g clip-path="url(#CLIP10)">
       <g>
        <g transform="matrix(1,0,0,1,1.075036168,115.33480072)">
         <text x="1" y="-2.770781279" class="f0">红</text>
         <text x="12.039999962" y="-2.770781279" class="f0">细</text>
         <text x="23.079999924" y="-2.770781279" class="f0">胞</text>
         <text x="34.119998932" y="-2.770781279" class="f0">计</text>
         <text x="45.159999847" y="-2.770781279" class="f0">数</text>
         <text x="56.200000763" y="-2.770781279" class="f1">(</text>
         <text x="59.547576904" y="-2.770781279" class="f1">R</text>
         <text x="65.541954041" y="-2.770781279" class="f1">B</text>
         <text x="71.547111511" y="-2.770781279" class="f1">C</text>
         <text x="77.433670044" y="-2.770781279" class="f1">)</text>
        </g>
       </g>
      </g>
     </g>
    </g>
    <defs>
     <clipPath id="CLIP11">
      <path d="M-0.5,-0.5 L458.5,-0.5 L458.5,117.5 L-0.5,117.5 Z " />
     </clipPath>
    </defs>
    <g clip-path="url(#CLIP11)">
     <g />
    </g>
   </g>
   <g />
   <g />
   <g />
   <g>
    <g>
     <g />
     <g shape-rendering="crispEdges" />
    </g>
    <g>
     <g />
    </g>
    <g>
     <g />
    </g>
   </g>
   <g>
    <text x="10" y="10" class="f2">Evaluation Only. Created with Aspose.Cells for Python via Java.Copyright 2003 - 2023 Aspose Pty Ltd.</text>
   </g>
  </g>
 </g>
 <defs />
 <defs>
  <style type="text/css">
   <![CDATA[
   
.f0
{
font-family:Microsoft YaHei Light;
font-size:11.039999962px;
fill:#000000;
}

.f1
{
font-family:Calibri;
font-size:11.039999962px;
fill:#000000;
}

.f2
{
font-family:Arial;
font-size:10px;
fill:#FF0000;
}

   
.p0
{
stroke:#FF0000;
stroke-width:2.907599926px;
stroke-linecap:butt;
stroke-linejoin:miter;
}

   ]]></style>
 </defs>
</svg>
