<?xml version="1.0" encoding="UTF-8" standalone="yes"?>
<svg xmlns="http://www.w3.org/2000/svg" xmlns:xlink="http://www.w3.org/1999/xlink" width="612pt" height="792pt">
 <g id="SFixTitle" />
 <g id="SContent">
  <g transform="scale(1.33333)">
   <rect width="100%" height="100%" fill="white" />
   <g>
    <g>
     <g />
     <g shape-rendering="crispEdges" />
    </g>
    <g>
     <g />
    </g>
    <g>
     <g />
    </g>
   </g>
   <g transform="matrix(1,0,0,1,54,72)">
    <defs>
     <clipPath id="CLIP0">
      <path d="M-0.5,-0.5 L441.5,-0.5 L441.5,117.5 L-0.5,117.5 Z " />
     </clipPath>
    </defs>
    <g clip-path="url(#CLIP0)">
     <g />
     <g shape-rendering="crispEdges" />
    </g>
    <defs>
     <clipPath id="CLIP1">
      <path d="M-0.5,-1.453799963 L441.5,-1.453799963 L441.5,118.546203613 L-0.5,118.546203613 Z " />
     </clipPath>
    </defs>
    <g clip-path="url(#CLIP1)">
     <g>
      <g />
      <path d="M 0,0 L 73.37121582,0" class="p0" fill="none" />
      <path d="M 0,116.304000854 L 73.37121582,116.304000854" class="p0" fill="none" />
      <path d="M 0,0 L 0,14.538000107" class="p0" fill="none" />
      <path d="M 73.37121582,0 L 146.742431641,0" class="p0" fill="none" />
      <path d="M 73.37121582,116.304000854 L 146.742431641,116.304000854" class="p0" fill="none" />
      <path d="M 73.371002197,0 L 73.371002197,14.538000107" class="p0" fill="none" />
      <path d="M 146.742431641,0 L 220.113647461,0" class="p0" fill="none" />
      <path d="M 146.742431641,116.304000854 L 220.113647461,116.304000854" class="p0" fill="none" />
      <path d="M 146.742004395,0 L 146.742004395,14.538000107" class="p0" fill="none" />
      <path d="M 220.11366272,0 L 293.484863281,0" class="p0" fill="none" />
      <path d="M 220.11366272,116.304000854 L 293.484863281,116.304000854" class="p0" fill="none" />
      <path d="M 220.113998413,0 L 220.113998413,14.538000107" class="p0" fill="none" />
      <path d="M 293.484863281,0 L 366.856079102,0" class="p0" fill="none" />
      <path d="M 293.484863281,116.304000854 L 366.856079102,116.304000854" class="p0" fill="none" />
      <path d="M 293.484985352,0 L 293.484985352,14.538000107" class="p0" fill="none" />
      <path d="M 366.856079102,0 L 440.227294922,0" class="p0" fill="none" />
      <path d="M 366.856079102,116.304000854 L 440.227294922,116.304000854" class="p0" fill="none" />
      <path d="M 366.855987549,0 L 366.855987549,14.538000107" class="p0" fill="none" />
      <path d="M 440.226989746,0 L 440.226989746,14.538000107" class="p0" fill="none" />
      <path d="M 0,14.538000107 L 73.37121582,14.538000107" class="p0" fill="none" />
      <path d="M 0,14.538000107 L 0,29.076000214" class="p0" fill="none" />
      <path d="M 73.37121582,14.538000107 L 146.742431641,14.538000107" class="p0" fill="none" />
      <path d="M 73.371002197,14.538000107 L 73.371002197,29.076000214" class="p0" fill="none" />
      <path d="M 146.742431641,14.538000107 L 220.113647461,14.538000107" class="p0" fill="none" />
      <path d="M 146.742004395,14.538000107 L 146.742004395,29.076000214" class="p0" fill="none" />
      <path d="M 220.11366272,14.538000107 L 293.484863281,14.538000107" class="p0" fill="none" />
      <path d="M 220.113998413,14.538000107 L 220.113998413,29.076000214" class="p0" fill="none" />
      <path d="M 293.484863281,14.538000107 L 366.856079102,14.538000107" class="p0" fill="none" />
      <path d="M 293.484985352,14.538000107 L 293.484985352,29.076000214" class="p0" fill="none" />
      <path d="M 366.856079102,14.538000107 L 440.227294922,14.538000107" class="p0" fill="none" />
      <path d="M 366.855987549,14.538000107 L 366.855987549,29.076000214" class="p0" fill="none" />
      <path d="M 440.226989746,14.538000107 L 440.226989746,29.076000214" class="p0" fill="none" />
      <path d="M 0,29.076000214 L 73.37121582,29.076000214" class="p0" fill="none" />
      <path d="M 0,29.076000214 L 0,43.613998413" class="p0" fill="none" />
      <path d="M 73.37121582,29.076000214 L 146.742431641,29.076000214" class="p0" fill="none" />
      <path d="M 73.371002197,29.076000214 L 73.371002197,43.613998413" class="p0" fill="none" />
      <path d="M 146.742431641,29.076000214 L 220.113647461,29.076000214" class="p0" fill="none" />
      <path d="M 146.742004395,29.076000214 L 146.742004395,43.613998413" class="p0" fill="none" />
      <path d="M 220.11366272,29.076000214 L 293.484863281,29.076000214" class="p0" fill="none" />
      <path d="M 220.113998413,29.076000214 L 220.113998413,43.613998413" class="p0" fill="none" />
      <path d="M 293.484863281,29.076000214 L 366.856079102,29.076000214" class="p0" fill="none" />
      <path d="M 293.484985352,29.076000214 L 293.484985352,43.613998413" class="p0" fill="none" />
      <path d="M 366.856079102,29.076000214 L 440.227294922,29.076000214" class="p0" fill="none" />
      <path d="M 366.855987549,29.076000214 L 366.855987549,43.613998413" class="p0" fill="none" />
      <path d="M 440.226989746,29.076000214 L 440.226989746,43.613998413" class="p0" fill="none" />
      <path d="M 0,43.613998413 L 73.37121582,43.613998413" class="p0" fill="none" />
      <path d="M 0,43.613998413 L 0,58.152000427" class="p0" fill="none" />
      <path d="M 73.37121582,43.613998413 L 146.742431641,43.613998413" class="p0" fill="none" />
      <path d="M 73.371002197,43.613998413 L 73.371002197,58.152000427" class="p0" fill="none" />
      <path d="M 146.742431641,43.613998413 L 220.113647461,43.613998413" class="p0" fill="none" />
      <path d="M 146.742004395,43.613998413 L 146.742004395,58.152000427" class="p0" fill="none" />
      <path d="M 220.11366272,43.613998413 L 293.484863281,43.613998413" class="p0" fill="none" />
      <path d="M 220.113998413,43.613998413 L 220.113998413,58.152000427" class="p0" fill="none" />
      <path d="M 293.484863281,43.613998413 L 366.856079102,43.613998413" class="p0" fill="none" />
      <path d="M 293.484985352,43.613998413 L 293.484985352,58.152000427" class="p0" fill="none" />
      <path d="M 366.856079102,43.613998413 L 440.227294922,43.613998413" class="p0" fill="none" />
      <path d="M 366.855987549,43.613998413 L 366.855987549,58.152000427" class="p0" fill="none" />
      <path d="M 440.226989746,43.613998413 L 440.226989746,58.152000427" class="p0" fill="none" />
      <path d="M 0,58.152000427 L 73.37121582,58.152000427" class="p0" fill="none" />
      <path d="M 0,58.152000427 L 0,72.690002441" class="p0" fill="none" />
      <path d="M 73.37121582,58.152000427 L 146.742431641,58.152000427" class="p0" fill="none" />
      <path d="M 73.371002197,58.152000427 L 73.371002197,72.690002441" class="p0" fill="none" />
      <path d="M 146.742431641,58.152000427 L 220.113647461,58.152000427" class="p0" fill="none" />
      <path d="M 146.742004395,58.152000427 L 146.742004395,72.690002441" class="p0" fill="none" />
      <path d="M 220.11366272,58.152000427 L 293.484863281,58.152000427" class="p0" fill="none" />
      <path d="M 220.113998413,58.152000427 L 220.113998413,72.690002441" class="p0" fill="none" />
      <path d="M 293.484863281,58.152000427 L 366.856079102,58.152000427" class="p0" fill="none" />
      <path d="M 293.484985352,58.152000427 L 293.484985352,72.690002441" class="p0" fill="none" />
      <path d="M 366.856079102,58.152000427 L 440.227294922,58.152000427" class="p0" fill="none" />
      <path d="M 366.855987549,58.152000427 L 366.855987549,72.690002441" class="p0" fill="none" />
      <path d="M 440.226989746,58.152000427 L 440.226989746,72.690002441" class="p0" fill="none" />
      <path d="M 0,72.690002441 L 73.37121582,72.690002441" class="p0" fill="none" />
      <path d="M 0,72.690002441 L 0,87.228004456" class="p0" fill="none" />
      <path d="M 73.37121582,72.690002441 L 146.742431641,72.690002441" class="p0" fill="none" />
      <path d="M 73.371002197,72.690002441 L 73.371002197,87.228004456" class="p0" fill="none" />
      <path d="M 146.742431641,72.690002441 L 220.113647461,72.690002441" class="p0" fill="none" />
      <path d="M 146.742004395,72.690002441 L 146.742004395,87.228004456" class="p0" fill="none" />
      <path d="M 220.11366272,72.690002441 L 293.484863281,72.690002441" class="p0" fill="none" />
      <path d="M 220.113998413,72.690002441 L 220.113998413,87.228004456" class="p0" fill="none" />
      <path d="M 293.484863281,72.690002441 L 366.856079102,72.690002441" class="p0" fill="none" />
      <path d="M 293.484985352,72.690002441 L 293.484985352,87.228004456" class="p0" fill="none" />
      <path d="M 366.856079102,72.690002441 L 440.227294922,72.690002441" class="p0" fill="none" />
      <path d="M 366.855987549,72.690002441 L 366.855987549,87.228004456" class="p0" fill="none" />
      <path d="M 440.226989746,72.690002441 L 440.226989746,87.228004456" class="p0" fill="none" />
      <path d="M 0,87.227996826 L 73.37121582,87.227996826" class="p0" fill="none" />
      <path d="M 0,87.227996826 L 0,101.76599884" class="p0" fill="none" />
      <path d="M 73.37121582,87.227996826 L 146.742431641,87.227996826" class="p0" fill="none" />
      <path d="M 73.371002197,87.227996826 L 73.371002197,101.76599884" class="p0" fill="none" />
      <path d="M 146.742431641,87.227996826 L 220.113647461,87.227996826" class="p0" fill="none" />
      <path d="M 146.742004395,87.227996826 L 146.742004395,101.76599884" class="p0" fill="none" />
      <path d="M 220.11366272,87.227996826 L 293.484863281,87.227996826" class="p0" fill="none" />
      <path d="M 220.113998413,87.227996826 L 220.113998413,101.76599884" class="p0" fill="none" />
      <path d="M 293.484863281,87.227996826 L 366.856079102,87.227996826" class="p0" fill="none" />
      <path d="M 293.484985352,87.227996826 L 293.484985352,101.76599884" class="p0" fill="none" />
      <path d="M 366.856079102,87.227996826 L 440.227294922,87.227996826" class="p0" fill="none" />
      <path d="M 366.855987549,87.227996826 L 366.855987549,101.76599884" class="p0" fill="none" />
      <path d="M 440.226989746,87.227996826 L 440.226989746,101.76599884" class="p0" fill="none" />
      <path d="M 0,101.76599884 L 73.37121582,101.76599884" class="p0" fill="none" />
      <path d="M 0,101.76599884 L 0,116.304000854" class="p0" fill="none" />
      <path d="M 73.37121582,101.76599884 L 146.742431641,101.76599884" class="p0" fill="none" />
      <path d="M 73.371002197,101.76599884 L 73.371002197,116.304000854" class="p0" fill="none" />
      <path d="M 146.742431641,101.76599884 L 220.113647461,101.76599884" class="p0" fill="none" />
      <path d="M 146.742004395,101.76599884 L 146.742004395,116.304000854" class="p0" fill="none" />
      <path d="M 220.11366272,101.76599884 L 293.484863281,101.76599884" class="p0" fill="none" />
      <path d="M 220.113998413,101.76599884 L 220.113998413,116.304000854" class="p0" fill="none" />
      <path d="M 293.484863281,101.76599884 L 366.856079102,101.76599884" class="p0" fill="none" />
      <path d="M 293.484985352,101.76599884 L 293.484985352,116.304000854" class="p0" fill="none" />
      <path d="M 366.856079102,101.76599884 L 440.227294922,101.76599884" class="p0" fill="none" />
      <path d="M 366.855987549,101.76599884 L 366.855987549,116.304000854" class="p0" fill="none" />
      <path d="M 440.226989746,101.76599884 L 440.226989746,116.304000854" class="p0" fill="none" />
     </g>
    </g>
    <defs>
     <clipPath id="CLIP2">
      <path d="M-0.5,-0.5 L441.5,-0.5 L441.5,117.5 L-0.5,117.5 Z " />
     </clipPath>
    </defs>
    <g clip-path="url(#CLIP2)">
     <g>
      <defs>
       <clipPath id="CLIP3">
        <path d="M73.62121582,0.25 L146.492431641,0.25 L146.492431641,14.288000107 L73.62121582,14.288000107 Z " />
       </clipPath>
      </defs>
      <g clip-path="url(#CLIP3)">
       <g>
        <g transform="matrix(1,0,0,1,74.446250916,13.568799973)">
         <text x="1" y="-2.75999999" class="f0">2016</text>
        </g>
       </g>
      </g>
      <defs>
       <clipPath id="CLIP4">
        <path d="M146.992431641,0.25 L219.863647461,0.25 L219.863647461,14.288000107 L146.992431641,14.288000107 Z " />
       </clipPath>
      </defs>
      <g clip-path="url(#CLIP4)">
       <g>
        <g transform="matrix(1,0,0,1,147.817474365,13.568799973)">
         <text x="1" y="-2.75999999" class="f0">2017</text>
        </g>
       </g>
      </g>
      <defs>
       <clipPath id="CLIP5">
        <path d="M220.36366272,0.25 L293.234863281,0.25 L293.234863281,14.288000107 L220.36366272,14.288000107 Z " />
       </clipPath>
      </defs>
      <g clip-path="url(#CLIP5)">
       <g>
        <g transform="matrix(1,0,0,1,221.188705444,13.568799973)">
         <text x="1" y="-2.75999999" class="f0">2018E</text>
        </g>
       </g>
      </g>
      <defs>
       <clipPath id="CLIP6">
        <path d="M293.734863281,0.25 L366.606079102,0.25 L366.606079102,14.288000107 L293.734863281,14.288000107 Z " />
       </clipPath>
      </defs>
      <g clip-path="url(#CLIP6)">
       <g>
        <g transform="matrix(1,0,0,1,294.559906006,13.568799973)">
         <text x="1" y="-2.75999999" class="f0">2019E</text>
        </g>
       </g>
      </g>
      <defs>
       <clipPath id="CLIP7">
        <path d="M367.106079102,0.25 L439.977294922,0.25 L439.977294922,14.288000107 L367.106079102,14.288000107 Z " />
       </clipPath>
      </defs>
      <g clip-path="url(#CLIP7)">
       <g>
        <g transform="matrix(1,0,0,1,367.931121826,13.568799973)">
         <text x="1" y="-2.75999999" class="f0">2020E</text>
        </g>
       </g>
      </g>
      <defs>
       <clipPath id="CLIP8">
        <path d="M0.25,14.788000107 L73.12121582,14.788000107 L73.12121582,28.826000214 L0.25,28.826000214 Z " />
       </clipPath>
      </defs>
      <g clip-path="url(#CLIP8)">
       <g>
        <g transform="matrix(1,0,0,1,0,28.106800079)">
         <text x="1" y="-2.770781279" class="f1">营</text>
         <text x="12.039999962" y="-2.770781279" class="f1">业</text>
         <text x="23.079999924" y="-2.770781279" class="f1">收</text>
         <text x="34.119998932" y="-2.770781279" class="f1">入</text>
         <text x="45.159999847" y="-2.770781279" class="f0"> </text>
         <text x="47.655860901" y="-2.770781279" class="f0">(</text>
         <text x="51.003440857" y="-2.770781279" class="f1">百</text>
         <text x="62.043441772" y="-2.770781279" class="f1">万</text>
         <text x="73.083442688" y="-2.770781279" class="f1">元</text>
         <text x="84.123443604" y="-2.770781279" class="f0">)</text>
        </g>
       </g>
      </g>
      <defs>
       <clipPath id="CLIP9">
        <path d="M73.62121582,14.788000107 L146.492431641,14.788000107 L146.492431641,28.826000214 L73.62121582,28.826000214 Z " />
       </clipPath>
      </defs>
      <g clip-path="url(#CLIP9)">
       <g>
        <g transform="matrix(1,0,0,1,74.446250916,28.106800079)">
         <text x="1" y="-2.75999999" class="f0">19</text>
        </g>
       </g>
      </g>
      <defs>
       <clipPath id="CLIP10">
        <path d="M146.992431641,14.788000107 L219.863647461,14.788000107 L219.863647461,28.826000214 L146.992431641,28.826000214 Z " />
       </clipPath>
      </defs>
      <g clip-path="url(#CLIP10)">
       <g>
        <g transform="matrix(1,0,0,1,147.817474365,28.106800079)">
         <text x="1" y="-2.75999999" class="f0">126</text>
        </g>
       </g>
      </g>
      <defs>
       <clipPath id="CLIP11">
        <path d="M220.36366272,14.788000107 L293.234863281,14.788000107 L293.234863281,28.826000214 L220.36366272,28.826000214 Z " />
       </clipPath>
      </defs>
      <g clip-path="url(#CLIP11)">
       <g>
        <g transform="matrix(1,0,0,1,221.188705444,28.106800079)">
         <text x="1" y="-2.75999999" class="f0">128</text>
        </g>
       </g>
      </g>
      <defs>
       <clipPath id="CLIP12">
        <path d="M293.734863281,14.788000107 L366.606079102,14.788000107 L366.606079102,28.826000214 L293.734863281,28.826000214 Z " />
       </clipPath>
      </defs>
      <g clip-path="url(#CLIP12)">
       <g>
        <g transform="matrix(1,0,0,1,294.559906006,28.106800079)">
         <text x="1" y="-2.75999999" class="f0">141</text>
        </g>
       </g>
      </g>
      <defs>
       <clipPath id="CLIP13">
        <path d="M367.106079102,14.788000107 L439.977294922,14.788000107 L439.977294922,28.826000214 L367.106079102,28.826000214 Z " />
       </clipPath>
      </defs>
      <g clip-path="url(#CLIP13)">
       <g>
        <g transform="matrix(1,0,0,1,367.931121826,28.106800079)">
         <text x="1" y="-2.75999999" class="f0">161</text>
        </g>
       </g>
      </g>
      <defs>
       <clipPath id="CLIP14">
        <path d="M0.25,29.326000214 L73.12121582,29.326000214 L73.12121582,43.363998413 L0.25,43.363998413 Z " />
       </clipPath>
      </defs>
      <g clip-path="url(#CLIP14)">
       <g>
        <g transform="matrix(1,0,0,1,1.075036168,42.644798279)">
         <text x="1" y="-2.770781279" class="f1">增</text>
         <text x="12.039999962" y="-2.770781279" class="f1">长</text>
         <text x="23.079999924" y="-2.770781279" class="f1">率</text>
         <text x="34.119998932" y="-2.770781279" class="f0">(</text>
         <text x="37.467575073" y="-2.770781279" class="f0">%</text>
         <text x="45.359451294" y="-2.770781279" class="f0">)</text>
        </g>
       </g>
      </g>
      <defs>
       <clipPath id="CLIP15">
        <path d="M73.62121582,29.326000214 L146.492431641,29.326000214 L146.492431641,43.363998413 L73.62121582,43.363998413 Z " />
       </clipPath>
      </defs>
      <g clip-path="url(#CLIP15)">
       <g>
        <g transform="matrix(1,0,0,1,74.446250916,42.644798279)">
         <text x="1" y="-2.75999999" class="f0">7%</text>
        </g>
       </g>
      </g>
      <defs>
       <clipPath id="CLIP16">
        <path d="M146.992431641,29.326000214 L219.863647461,29.326000214 L219.863647461,43.363998413 L146.992431641,43.363998413 Z " />
       </clipPath>
      </defs>
      <g clip-path="url(#CLIP16)">
       <g>
        <g transform="matrix(1,0,0,1,147.817474365,42.644798279)">
         <text x="1" y="-2.75999999" class="f0">7%</text>
        </g>
       </g>
      </g>
      <defs>
       <clipPath id="CLIP17">
        <path d="M220.36366272,29.326000214 L293.234863281,29.326000214 L293.234863281,43.363998413 L220.36366272,43.363998413 Z " />
       </clipPath>
      </defs>
      <g clip-path="url(#CLIP17)">
       <g>
        <g transform="matrix(1,0,0,1,221.188705444,42.644798279)">
         <text x="1" y="-2.75999999" class="f0">1%</text>
        </g>
       </g>
      </g>
      <defs>
       <clipPath id="CLIP18">
        <path d="M293.734863281,29.326000214 L366.606079102,29.326000214 L366.606079102,43.363998413 L293.734863281,43.363998413 Z " />
       </clipPath>
      </defs>
      <g clip-path="url(#CLIP18)">
       <g>
        <g transform="matrix(1,0,0,1,294.559906006,42.644798279)">
         <text x="1" y="-2.75999999" class="f0">11%</text>
        </g>
       </g>
      </g>
      <defs>
       <clipPath id="CLIP19">
        <path d="M367.106079102,29.326000214 L439.977294922,29.326000214 L439.977294922,43.363998413 L367.106079102,43.363998413 Z " />
       </clipPath>
      </defs>
      <g clip-path="url(#CLIP19)">
       <g>
        <g transform="matrix(1,0,0,1,367.931121826,42.644798279)">
         <text x="1" y="-2.75999999" class="f0">14%</text>
        </g>
       </g>
      </g>
      <defs>
       <clipPath id="CLIP20">
        <path d="M0.25,43.863998413 L73.12121582,43.863998413 L73.12121582,57.902000427 L0.25,57.902000427 Z " />
       </clipPath>
      </defs>
      <g clip-path="url(#CLIP20)">
       <g>
        <g transform="matrix(1,0,0,1,0,57.182800293)">
         <text x="1" y="-2.770781279" class="f1">净</text>
         <text x="12.039999962" y="-2.770781279" class="f1">利</text>
         <text x="23.079999924" y="-2.770781279" class="f1">润</text>
         <text x="34.119998932" y="-2.770781279" class="f0">(</text>
         <text x="37.467575073" y="-2.770781279" class="f1">百</text>
         <text x="48.507575989" y="-2.770781279" class="f1">万</text>
         <text x="59.547576904" y="-2.770781279" class="f1">元</text>
         <text x="70.58757782" y="-2.770781279" class="f0">)</text>
        </g>
       </g>
      </g>
      <defs>
       <clipPath id="CLIP21">
        <path d="M73.62121582,43.863998413 L146.492431641,43.863998413 L146.492431641,57.902000427 L73.62121582,57.902000427 Z " />
       </clipPath>
      </defs>
      <g clip-path="url(#CLIP21)">
       <g>
        <g transform="matrix(1,0,0,1,74.446250916,57.182800293)">
         <text x="1" y="-2.75999999" class="f0">36</text>
        </g>
       </g>
      </g>
      <defs>
       <clipPath id="CLIP22">
        <path d="M146.992431641,43.863998413 L219.863647461,43.863998413 L219.863647461,57.902000427 L146.992431641,57.902000427 Z " />
       </clipPath>
      </defs>
      <g clip-path="url(#CLIP22)">
       <g>
        <g transform="matrix(1,0,0,1,147.817474365,57.182800293)">
         <text x="1" y="-2.75999999" class="f0">44</text>
        </g>
       </g>
      </g>
      <defs>
       <clipPath id="CLIP23">
        <path d="M220.36366272,43.863998413 L293.234863281,43.863998413 L293.234863281,57.902000427 L220.36366272,57.902000427 Z " />
       </clipPath>
      </defs>
      <g clip-path="url(#CLIP23)">
       <g>
        <g transform="matrix(1,0,0,1,221.188705444,57.182800293)">
         <text x="1" y="-2.75999999" class="f0">53</text>
        </g>
       </g>
      </g>
      <defs>
       <clipPath id="CLIP24">
        <path d="M293.734863281,43.863998413 L366.606079102,43.863998413 L366.606079102,57.902000427 L293.734863281,57.902000427 Z " />
       </clipPath>
      </defs>
      <g clip-path="url(#CLIP24)">
       <g>
        <g transform="matrix(1,0,0,1,294.559906006,57.182800293)">
         <text x="1" y="-2.75999999" class="f0">60</text>
        </g>
       </g>
      </g>
      <defs>
       <clipPath id="CLIP25">
        <path d="M367.106079102,43.863998413 L439.977294922,43.863998413 L439.977294922,57.902000427 L367.106079102,57.902000427 Z " />
       </clipPath>
      </defs>
      <g clip-path="url(#CLIP25)">
       <g>
        <g transform="matrix(1,0,0,1,367.931121826,57.182800293)">
         <text x="1" y="-2.75999999" class="f0">76</text>
        </g>
       </g>
      </g>
      <defs>
       <clipPath id="CLIP26">
        <path d="M0.25,58.402000427 L73.12121582,58.402000427 L73.12121582,72.440002441 L0.25,72.440002441 Z " />
       </clipPath>
      </defs>
      <g clip-path="url(#CLIP26)">
       <g>
        <g transform="matrix(1,0,0,1,1.075036168,71.720802307)">
         <text x="1" y="-2.770781279" class="f1">增</text>
         <text x="12.039999962" y="-2.770781279" class="f1">长</text>
         <text x="23.079999924" y="-2.770781279" class="f1">率</text>
         <text x="34.119998932" y="-2.770781279" class="f0">(</text>
         <text x="37.467575073" y="-2.770781279" class="f0">%</text>
         <text x="45.359451294" y="-2.770781279" class="f0">)</text>
        </g>
       </g>
      </g>
      <defs>
       <clipPath id="CLIP27">
        <path d="M73.62121582,58.402000427 L146.492431641,58.402000427 L146.492431641,72.440002441 L73.62121582,72.440002441 Z " />
       </clipPath>
      </defs>
      <g clip-path="url(#CLIP27)">
       <g>
        <g transform="matrix(1,0,0,1,74.446250916,71.720802307)">
         <text x="1" y="-2.75999999" class="f0">-120%</text>
        </g>
       </g>
      </g>
      <defs>
       <clipPath id="CLIP28">
        <path d="M146.992431641,58.402000427 L219.863647461,58.402000427 L219.863647461,72.440002441 L146.992431641,72.440002441 Z " />
       </clipPath>
      </defs>
      <g clip-path="url(#CLIP28)">
       <g>
        <g transform="matrix(1,0,0,1,147.817474365,71.720802307)">
         <text x="1" y="-2.75999999" class="f0">21%</text>
        </g>
       </g>
      </g>
      <defs>
       <clipPath id="CLIP29">
        <path d="M220.36366272,58.402000427 L293.234863281,58.402000427 L293.234863281,72.440002441 L220.36366272,72.440002441 Z " />
       </clipPath>
      </defs>
      <g clip-path="url(#CLIP29)">
       <g>
        <g transform="matrix(1,0,0,1,221.188705444,71.720802307)">
         <text x="1" y="-2.75999999" class="f0">21%</text>
        </g>
       </g>
      </g>
      <defs>
       <clipPath id="CLIP30">
        <path d="M293.734863281,58.402000427 L366.606079102,58.402000427 L366.606079102,72.440002441 L293.734863281,72.440002441 Z " />
       </clipPath>
      </defs>
      <g clip-path="url(#CLIP30)">
       <g>
        <g transform="matrix(1,0,0,1,294.559906006,71.720802307)">
         <text x="1" y="-2.75999999" class="f0">15%</text>
        </g>
       </g>
      </g>
      <defs>
       <clipPath id="CLIP31">
        <path d="M367.106079102,58.402000427 L439.977294922,58.402000427 L439.977294922,72.440002441 L367.106079102,72.440002441 Z " />
       </clipPath>
      </defs>
      <g clip-path="url(#CLIP31)">
       <g>
        <g transform="matrix(1,0,0,1,367.931121826,71.720802307)">
         <text x="1" y="-2.75999999" class="f0">26%</text>
        </g>
       </g>
      </g>
      <defs>
       <clipPath id="CLIP32">
        <path d="M0.25,72.940002441 L73.12121582,72.940002441 L73.12121582,86.978004456 L0.25,86.978004456 Z " />
       </clipPath>
      </defs>
      <g clip-path="url(#CLIP32)">
       <g>
        <g transform="matrix(1,0,0,1,1.075036168,86.258804321)">
         <text x="1" y="-2.770781279" class="f1">每</text>
         <text x="12.039999962" y="-2.770781279" class="f1">股</text>
         <text x="23.079999924" y="-2.770781279" class="f1">收</text>
         <text x="34.119998932" y="-2.770781279" class="f1">益</text>
         <text x="45.159999847" y="-2.770781279" class="f0"> </text>
         <text x="47.655860901" y="-2.770781279" class="f0">(</text>
         <text x="51.003440857" y="-2.770781279" class="f0">E</text>
         <text x="56.394065857" y="-2.770781279" class="f0">P</text>
         <text x="62.09734726" y="-2.770781279" class="f0">S</text>
         <text x="67.169921875" y="-2.770781279" class="f0">)</text>
        </g>
       </g>
      </g>
      <defs>
       <clipPath id="CLIP33">
        <path d="M73.62121582,72.940002441 L146.492431641,72.940002441 L146.492431641,86.978004456 L73.62121582,86.978004456 Z " />
       </clipPath>
      </defs>
      <g clip-path="url(#CLIP33)">
       <g>
        <g transform="matrix(1,0,0,1,74.446250916,86.258804321)">
         <text x="1" y="-2.75999999" class="f0">0.10</text>
        </g>
       </g>
      </g>
      <defs>
       <clipPath id="CLIP34">
        <path d="M146.992431641,72.940002441 L219.863647461,72.940002441 L219.863647461,86.978004456 L146.992431641,86.978004456 Z " />
       </clipPath>
      </defs>
      <g clip-path="url(#CLIP34)">
       <g>
        <g transform="matrix(1,0,0,1,147.817474365,86.258804321)">
         <text x="1" y="-2.75999999" class="f0">0.12</text>
        </g>
       </g>
      </g>
      <defs>
       <clipPath id="CLIP35">
        <path d="M220.36366272,72.940002441 L293.234863281,72.940002441 L293.234863281,86.978004456 L220.36366272,86.978004456 Z " />
       </clipPath>
      </defs>
      <g clip-path="url(#CLIP35)">
       <g>
        <g transform="matrix(1,0,0,1,221.188705444,86.258804321)">
         <text x="1" y="-2.75999999" class="f0">0.15</text>
        </g>
       </g>
      </g>
      <defs>
       <clipPath id="CLIP36">
        <path d="M293.734863281,72.940002441 L366.606079102,72.940002441 L366.606079102,86.978004456 L293.734863281,86.978004456 Z " />
       </clipPath>
      </defs>
      <g clip-path="url(#CLIP36)">
       <g>
        <g transform="matrix(1,0,0,1,294.559906006,86.258804321)">
         <text x="1" y="-2.75999999" class="f0">0.17</text>
        </g>
       </g>
      </g>
      <defs>
       <clipPath id="CLIP37">
        <path d="M367.106079102,72.940002441 L439.977294922,72.940002441 L439.977294922,86.978004456 L367.106079102,86.978004456 Z " />
       </clipPath>
      </defs>
      <g clip-path="url(#CLIP37)">
       <g>
        <g transform="matrix(1,0,0,1,367.931121826,86.258804321)">
         <text x="1" y="-2.75999999" class="f0">0.21</text>
        </g>
       </g>
      </g>
      <defs>
       <clipPath id="CLIP38">
        <path d="M0.25,87.477996826 L73.12121582,87.477996826 L73.12121582,101.51599884 L0.25,101.51599884 Z " />
       </clipPath>
      </defs>
      <g clip-path="url(#CLIP38)">
       <g>
        <g transform="matrix(1,0,0,1,1.075036168,100.796798706)">
         <text x="1" y="-2.770781279" class="f1">市</text>
         <text x="12.039999962" y="-2.770781279" class="f1">盈</text>
         <text x="23.079999924" y="-2.770781279" class="f1">率</text>
         <text x="34.119998932" y="-2.770781279" class="f0"> </text>
         <text x="36.615859985" y="-2.770781279" class="f0">(</text>
         <text x="39.963439941" y="-2.770781279" class="f0">P</text>
         <text x="45.666721344" y="-2.770781279" class="f0">/</text>
         <text x="49.930706024" y="-2.770781279" class="f0">E</text>
         <text x="55.321331024" y="-2.770781279" class="f0">)</text>
        </g>
       </g>
      </g>
      <defs>
       <clipPath id="CLIP39">
        <path d="M73.62121582,87.477996826 L146.492431641,87.477996826 L146.492431641,101.51599884 L73.62121582,101.51599884 Z " />
       </clipPath>
      </defs>
      <g clip-path="url(#CLIP39)">
       <g>
        <g transform="matrix(1,0,0,1,74.446250916,100.796798706)">
         <text x="1" y="-2.75999999" class="f0">23.9</text>
        </g>
       </g>
      </g>
      <defs>
       <clipPath id="CLIP40">
        <path d="M146.992431641,87.477996826 L219.863647461,87.477996826 L219.863647461,101.51599884 L146.992431641,101.51599884 Z " />
       </clipPath>
      </defs>
      <g clip-path="url(#CLIP40)">
       <g>
        <g transform="matrix(1,0,0,1,147.817474365,100.796798706)">
         <text x="1" y="-2.75999999" class="f0">19.7</text>
        </g>
       </g>
      </g>
      <defs>
       <clipPath id="CLIP41">
        <path d="M220.36366272,87.477996826 L293.234863281,87.477996826 L293.234863281,101.51599884 L220.36366272,101.51599884 Z " />
       </clipPath>
      </defs>
      <g clip-path="url(#CLIP41)">
       <g>
        <g transform="matrix(1,0,0,1,221.188705444,100.796798706)">
         <text x="1" y="-2.75999999" class="f0">16.5</text>
        </g>
       </g>
      </g>
      <defs>
       <clipPath id="CLIP42">
        <path d="M293.734863281,87.477996826 L366.606079102,87.477996826 L366.606079102,101.51599884 L293.734863281,101.51599884 Z " />
       </clipPath>
      </defs>
      <g clip-path="url(#CLIP42)">
       <g>
        <g transform="matrix(1,0,0,1,294.559906006,100.796798706)">
         <text x="1" y="-2.75999999" class="f0">14.4</text>
        </g>
       </g>
      </g>
      <defs>
       <clipPath id="CLIP43">
        <path d="M367.106079102,87.477996826 L439.977294922,87.477996826 L439.977294922,101.51599884 L367.106079102,101.51599884 Z " />
       </clipPath>
      </defs>
      <g clip-path="url(#CLIP43)">
       <g>
        <g transform="matrix(1,0,0,1,367.931121826,100.796798706)">
         <text x="1" y="-2.75999999" class="f0">11.5</text>
        </g>
       </g>
      </g>
      <defs>
       <clipPath id="CLIP44">
        <path d="M0.25,102.01599884 L73.12121582,102.01599884 L73.12121582,116.054000854 L0.25,116.054000854 Z " />
       </clipPath>
      </defs>
      <g clip-path="url(#CLIP44)">
       <g>
        <g transform="matrix(1,0,0,1,1.075036168,115.33480072)">
         <text x="1" y="-2.770781279" class="f1">市</text>
         <text x="12.039999962" y="-2.770781279" class="f1">净</text>
         <text x="23.079999924" y="-2.770781279" class="f1">率</text>
         <text x="34.119998932" y="-2.770781279" class="f0"> </text>
         <text x="36.615859985" y="-2.770781279" class="f0">(</text>
         <text x="39.963439941" y="-2.770781279" class="f0">P</text>
         <text x="45.666721344" y="-2.770781279" class="f0">/</text>
         <text x="49.930706024" y="-2.770781279" class="f0">B</text>
         <text x="55.935863495" y="-2.770781279" class="f0">)</text>
        </g>
       </g>
      </g>
      <defs>
       <clipPath id="CLIP45">
        <path d="M73.62121582,102.01599884 L146.492431641,102.01599884 L146.492431641,116.054000854 L73.62121582,116.054000854 Z " />
       </clipPath>
      </defs>
      <g clip-path="url(#CLIP45)">
       <g>
        <g transform="matrix(1,0,0,1,74.446250916,115.33480072)">
         <text x="1" y="-2.75999999" class="f0">4.7</text>
        </g>
       </g>
      </g>
      <defs>
       <clipPath id="CLIP46">
        <path d="M146.992431641,102.01599884 L219.863647461,102.01599884 L219.863647461,116.054000854 L146.992431641,116.054000854 Z " />
       </clipPath>
      </defs>
      <g clip-path="url(#CLIP46)">
       <g>
        <g transform="matrix(1,0,0,1,147.817474365,115.33480072)">
         <text x="1" y="-2.75999999" class="f0">3.7</text>
        </g>
       </g>
      </g>
      <defs>
       <clipPath id="CLIP47">
        <path d="M220.36366272,102.01599884 L293.234863281,102.01599884 L293.234863281,116.054000854 L220.36366272,116.054000854 Z " />
       </clipPath>
      </defs>
      <g clip-path="url(#CLIP47)">
       <g>
        <g transform="matrix(1,0,0,1,221.188705444,115.33480072)">
         <text x="1" y="-2.75999999" class="f0">3.0</text>
        </g>
       </g>
      </g>
      <defs>
       <clipPath id="CLIP48">
        <path d="M293.734863281,102.01599884 L366.606079102,102.01599884 L366.606079102,116.054000854 L293.734863281,116.054000854 Z " />
       </clipPath>
      </defs>
      <g clip-path="url(#CLIP48)">
       <g>
        <g transform="matrix(1,0,0,1,294.559906006,115.33480072)">
         <text x="1" y="-2.75999999" class="f0">2.5</text>
        </g>
       </g>
      </g>
      <defs>
       <clipPath id="CLIP49">
        <path d="M367.106079102,102.01599884 L439.977294922,102.01599884 L439.977294922,116.054000854 L367.106079102,116.054000854 Z " />
       </clipPath>
      </defs>
      <g clip-path="url(#CLIP49)">
       <g>
        <g transform="matrix(1,0,0,1,367.931121826,115.33480072)">
         <text x="1" y="-2.75999999" class="f0">21</text>
        </g>
       </g>
      </g>
     </g>
    </g>
    <defs>
     <clipPath id="CLIP50">
      <path d="M-0.5,-0.5 L441.5,-0.5 L441.5,117.5 L-0.5,117.5 Z " />
     </clipPath>
    </defs>
    <g clip-path="url(#CLIP50)">
     <g />
    </g>
   </g>
   <g />
   <g />
   <g />
   <g>
    <g>
     <g />
     <g shape-rendering="crispEdges" />
    </g>
    <g>
     <g />
    </g>
    <g>
     <g />
    </g>
   </g>
   <g>
    <text x="10" y="10" class="f2">Evaluation Only. Created with Aspose.Cells for Python via Java.Copyright 2003 - 2023 Aspose Pty Ltd.</text>
   </g>
  </g>
 </g>
 <defs />
 <defs>
  <style type="text/css">
   <![CDATA[
   
.f0
{
font-family:Calibri;
font-size:11.039999962px;
fill:#000000;
}

.f1
{
font-family:Microsoft YaHei Light;
font-size:11.039999962px;
fill:#000000;
}

.f2
{
font-family:Arial;
font-size:10px;
fill:#FF0000;
}

   
.p0
{
stroke:#101010;
stroke-width:0.969200015px;
stroke-linecap:butt;
stroke-linejoin:miter;
}

   ]]></style>
 </defs>
</svg>
