<?xml version="1.0" encoding="UTF-8" standalone="yes"?>
<svg xmlns="http://www.w3.org/2000/svg" xmlns:xlink="http://www.w3.org/1999/xlink" width="612pt" height="792pt">
 <g id="SFixTitle" />
 <g id="SContent">
  <g transform="scale(1.33333)">
   <rect width="100%" height="100%" fill="white" />
   <g>
    <g>
     <g />
     <g shape-rendering="crispEdges" />
    </g>
    <g>
     <g />
    </g>
    <g>
     <g />
    </g>
   </g>
   <g transform="matrix(1,0,0,1,54,72)">
    <defs>
     <clipPath id="CLIP0">
      <path d="M-0.5,-0.5 L384.5,-0.5 L384.5,233.5 L-0.5,233.5 Z " />
     </clipPath>
    </defs>
    <g clip-path="url(#CLIP0)">
     <g />
     <g shape-rendering="crispEdges" />
    </g>
    <defs>
     <clipPath id="CLIP1">
      <path d="M-0.5,-1.453799963 L384.5,-1.453799963 L384.5,234.546203613 L-0.5,234.546203613 Z " />
     </clipPath>
    </defs>
    <g clip-path="url(#CLIP1)">
     <g>
      <g />
     </g>
    </g>
    <defs>
     <clipPath id="CLIP2">
      <path d="M-0.5,-0.5 L384.5,-0.5 L384.5,233.5 L-0.5,233.5 Z " />
     </clipPath>
    </defs>
    <g clip-path="url(#CLIP2)">
     <g>
      <defs>
       <clipPath id="CLIP3">
        <path d="M0.25,0.25 L90.053039551,0.25 L90.053039551,14.288000107 L0.25,14.288000107 Z " />
       </clipPath>
      </defs>
      <g clip-path="url(#CLIP3)">
       <g>
        <g transform="matrix(1,0,0,1,1.075036168,13.568799973)">
         <text x="1" y="-2.75999999" class="f0">Methods</text>
        </g>
       </g>
      </g>
      <defs>
       <clipPath id="CLIP4">
        <path d="M90.553039551,0.25 L163.424255371,0.25 L163.424255371,14.288000107 L90.553039551,14.288000107 Z " />
       </clipPath>
      </defs>
      <g clip-path="url(#CLIP4)">
       <g>
        <g transform="matrix(1,0,0,1,91.378074646,13.568799973)">
         <text x="1" y="-2.75999999" class="f0">R</text>
        </g>
       </g>
      </g>
      <defs>
       <clipPath id="CLIP5">
        <path d="M163.924255371,0.25 L236.795471191,0.25 L236.795471191,14.288000107 L163.924255371,14.288000107 Z " />
       </clipPath>
      </defs>
      <g clip-path="url(#CLIP5)">
       <g>
        <g transform="matrix(1,0,0,1,164.749298096,13.568799973)">
         <text x="1" y="-2.75999999" class="f0">P</text>
        </g>
       </g>
      </g>
      <defs>
       <clipPath id="CLIP6">
        <path d="M237.295471191,0.25 L310.166687012,0.25 L310.166687012,14.288000107 L237.295471191,14.288000107 Z " />
       </clipPath>
      </defs>
      <g clip-path="url(#CLIP6)">
       <g>
        <g transform="matrix(1,0,0,1,238.120513916,13.568799973)">
         <text x="1" y="-2.75999999" class="f0">F</text>
        </g>
       </g>
      </g>
      <defs>
       <clipPath id="CLIP7">
        <path d="M310.666687012,0.25 L383.537902832,0.25 L383.537902832,14.288000107 L310.666687012,14.288000107 Z " />
       </clipPath>
      </defs>
      <g clip-path="url(#CLIP7)">
       <g>
        <g transform="matrix(1,0,0,1,311.491729736,13.568799973)">
         <text x="1" y="-2.75999999" class="f0">FPS</text>
        </g>
       </g>
      </g>
      <defs>
       <clipPath id="CLIP8">
        <path d="M0.25,14.788000107 L90.053039551,14.788000107 L90.053039551,28.826000214 L0.25,28.826000214 Z " />
       </clipPath>
      </defs>
      <g clip-path="url(#CLIP8)">
       <g>
        <g transform="matrix(1,0,0,1,1.075036168,28.106800079)">
         <text x="1" y="-2.75999999" class="f0">SegLink[26]</text>
        </g>
       </g>
      </g>
      <defs>
       <clipPath id="CLIP9">
        <path d="M90.553039551,14.788000107 L163.424255371,14.788000107 L163.424255371,28.826000214 L90.553039551,28.826000214 Z " />
       </clipPath>
      </defs>
      <g clip-path="url(#CLIP9)">
       <g>
        <g transform="matrix(1,0,0,1,91.378074646,28.106800079)">
         <text x="1" y="-2.75999999" class="f0">70.0</text>
        </g>
       </g>
      </g>
      <defs>
       <clipPath id="CLIP10">
        <path d="M163.924255371,14.788000107 L236.795471191,14.788000107 L236.795471191,28.826000214 L163.924255371,28.826000214 Z " />
       </clipPath>
      </defs>
      <g clip-path="url(#CLIP10)">
       <g>
        <g transform="matrix(1,0,0,1,164.749298096,28.106800079)">
         <text x="1" y="-2.75999999" class="f0">86.0</text>
        </g>
       </g>
      </g>
      <defs>
       <clipPath id="CLIP11">
        <path d="M237.295471191,14.788000107 L310.166687012,14.788000107 L310.166687012,28.826000214 L237.295471191,28.826000214 Z " />
       </clipPath>
      </defs>
      <g clip-path="url(#CLIP11)">
       <g>
        <g transform="matrix(1,0,0,1,238.120513916,28.106800079)">
         <text x="1" y="-2.75999999" class="f0">77.0</text>
        </g>
       </g>
      </g>
      <defs>
       <clipPath id="CLIP12">
        <path d="M310.666687012,14.788000107 L383.537902832,14.788000107 L383.537902832,28.826000214 L310.666687012,28.826000214 Z " />
       </clipPath>
      </defs>
      <g clip-path="url(#CLIP12)">
       <g>
        <g transform="matrix(1,0,0,1,311.491729736,28.106800079)">
         <text x="1" y="-2.75999999" class="f0">8.9</text>
        </g>
       </g>
      </g>
      <defs>
       <clipPath id="CLIP13">
        <path d="M0.25,29.326000214 L90.053039551,29.326000214 L90.053039551,43.363998413 L0.25,43.363998413 Z " />
       </clipPath>
      </defs>
      <g clip-path="url(#CLIP13)">
       <g>
        <g transform="matrix(1,0,0,1,1.075036168,42.644798279)">
         <text x="1" y="-2.75999999" class="f0">PixelLink</text>
         <text x="40.038906097" y="-2.75999999" class="f0"> </text>
         <text x="42.534767151" y="-2.75999999" class="f0">[4]</text>
        </g>
       </g>
      </g>
      <defs>
       <clipPath id="CLIP14">
        <path d="M90.553039551,29.326000214 L163.424255371,29.326000214 L163.424255371,43.363998413 L90.553039551,43.363998413 Z " />
       </clipPath>
      </defs>
      <g clip-path="url(#CLIP14)">
       <g>
        <g transform="matrix(1,0,0,1,91.378074646,42.644798279)">
         <text x="1" y="-2.75999999" class="f0">73.2</text>
        </g>
       </g>
      </g>
      <defs>
       <clipPath id="CLIP15">
        <path d="M163.924255371,29.326000214 L236.795471191,29.326000214 L236.795471191,43.363998413 L163.924255371,43.363998413 Z " />
       </clipPath>
      </defs>
      <g clip-path="url(#CLIP15)">
       <g>
        <g transform="matrix(1,0,0,1,164.749298096,42.644798279)">
         <text x="1" y="-2.75999999" class="f0">83.0</text>
        </g>
       </g>
      </g>
      <defs>
       <clipPath id="CLIP16">
        <path d="M237.295471191,29.326000214 L310.166687012,29.326000214 L310.166687012,43.363998413 L237.295471191,43.363998413 Z " />
       </clipPath>
      </defs>
      <g clip-path="url(#CLIP16)">
       <g>
        <g transform="matrix(1,0,0,1,238.120513916,42.644798279)">
         <text x="1" y="-2.75999999" class="f0">77.8</text>
        </g>
       </g>
      </g>
      <defs>
       <clipPath id="CLIP17">
        <path d="M0.25,43.863998413 L90.053039551,43.863998413 L90.053039551,57.902000427 L0.25,57.902000427 Z " />
       </clipPath>
      </defs>
      <g clip-path="url(#CLIP17)">
       <g>
        <g transform="matrix(1,0,0,1,1.075036168,57.182800293)">
         <text x="1" y="-2.75999999" class="f0">TextSnake[18]</text>
        </g>
       </g>
      </g>
      <defs>
       <clipPath id="CLIP18">
        <path d="M90.553039551,43.863998413 L163.424255371,43.863998413 L163.424255371,57.902000427 L90.553039551,57.902000427 Z " />
       </clipPath>
      </defs>
      <g clip-path="url(#CLIP18)">
       <g>
        <g transform="matrix(1,0,0,1,91.378074646,57.182800293)">
         <text x="1" y="-2.75999999" class="f0">73.9</text>
        </g>
       </g>
      </g>
      <defs>
       <clipPath id="CLIP19">
        <path d="M163.924255371,43.863998413 L236.795471191,43.863998413 L236.795471191,57.902000427 L163.924255371,57.902000427 Z " />
       </clipPath>
      </defs>
      <g clip-path="url(#CLIP19)">
       <g>
        <g transform="matrix(1,0,0,1,164.749298096,57.182800293)">
         <text x="1" y="-2.75999999" class="f0">83.2</text>
        </g>
       </g>
      </g>
      <defs>
       <clipPath id="CLIP20">
        <path d="M237.295471191,43.863998413 L310.166687012,43.863998413 L310.166687012,57.902000427 L237.295471191,57.902000427 Z " />
       </clipPath>
      </defs>
      <g clip-path="url(#CLIP20)">
       <g>
        <g transform="matrix(1,0,0,1,238.120513916,57.182800293)">
         <text x="1" y="-2.75999999" class="f0">78.3</text>
        </g>
       </g>
      </g>
      <defs>
       <clipPath id="CLIP21">
        <path d="M310.666687012,43.863998413 L383.537902832,43.863998413 L383.537902832,57.902000427 L310.666687012,57.902000427 Z " />
       </clipPath>
      </defs>
      <g clip-path="url(#CLIP21)">
       <g>
        <g transform="matrix(1,0,0,1,311.491729736,57.182800293)">
         <text x="1" y="-2.75999999" class="f0">1.1</text>
        </g>
       </g>
      </g>
      <defs>
       <clipPath id="CLIP22">
        <path d="M0.25,58.402000427 L90.053039551,58.402000427 L90.053039551,72.440002441 L0.25,72.440002441 Z " />
       </clipPath>
      </defs>
      <g clip-path="url(#CLIP22)">
       <g>
        <g transform="matrix(1,0,0,1,1.075036168,71.720802307)">
         <text x="1" y="-2.75999999" class="f0">TextField</text>
         <text x="41.785469055" y="-2.75999999" class="f0"> </text>
         <text x="44.281330109" y="-2.75999999" class="f0">[37]</text>
        </g>
       </g>
      </g>
      <defs>
       <clipPath id="CLIP23">
        <path d="M90.553039551,58.402000427 L163.424255371,58.402000427 L163.424255371,72.440002441 L90.553039551,72.440002441 Z " />
       </clipPath>
      </defs>
      <g clip-path="url(#CLIP23)">
       <g>
        <g transform="matrix(1,0,0,1,91.378074646,71.720802307)">
         <text x="1" y="-2.75999999" class="f0">75.9</text>
        </g>
       </g>
      </g>
      <defs>
       <clipPath id="CLIP24">
        <path d="M163.924255371,58.402000427 L236.795471191,58.402000427 L236.795471191,72.440002441 L163.924255371,72.440002441 Z " />
       </clipPath>
      </defs>
      <g clip-path="url(#CLIP24)">
       <g>
        <g transform="matrix(1,0,0,1,164.749298096,71.720802307)">
         <text x="1" y="-2.75999999" class="f0">87.4</text>
        </g>
       </g>
      </g>
      <defs>
       <clipPath id="CLIP25">
        <path d="M237.295471191,58.402000427 L310.166687012,58.402000427 L310.166687012,72.440002441 L237.295471191,72.440002441 Z " />
       </clipPath>
      </defs>
      <g clip-path="url(#CLIP25)">
       <g>
        <g transform="matrix(1,0,0,1,238.120513916,71.720802307)">
         <text x="1" y="-2.75999999" class="f0">81.3</text>
        </g>
       </g>
      </g>
      <defs>
       <clipPath id="CLIP26">
        <path d="M310.666687012,58.402000427 L383.537902832,58.402000427 L383.537902832,72.440002441 L310.666687012,72.440002441 Z " />
       </clipPath>
      </defs>
      <g clip-path="url(#CLIP26)">
       <g>
        <g transform="matrix(1,0,0,1,311.491729736,71.720802307)">
         <text x="1" y="-2.75999999" class="f0">5.2</text>
        </g>
       </g>
      </g>
      <defs>
       <clipPath id="CLIP27">
        <path d="M0.25,72.940002441 L90.053039551,72.940002441 L90.053039551,86.978004456 L0.25,86.978004456 Z " />
       </clipPath>
      </defs>
      <g clip-path="url(#CLIP27)">
       <g>
        <g transform="matrix(1,0,0,1,1.075036168,86.258804321)">
         <text x="1" y="-2.75999999" class="f0">MSR[38]</text>
        </g>
       </g>
      </g>
      <defs>
       <clipPath id="CLIP28">
        <path d="M90.553039551,72.940002441 L163.424255371,72.940002441 L163.424255371,86.978004456 L90.553039551,86.978004456 Z " />
       </clipPath>
      </defs>
      <g clip-path="url(#CLIP28)">
       <g>
        <g transform="matrix(1,0,0,1,91.378074646,86.258804321)">
         <text x="1" y="-2.75999999" class="f0">76.7</text>
        </g>
       </g>
      </g>
      <defs>
       <clipPath id="CLIP29">
        <path d="M163.924255371,72.940002441 L236.795471191,72.940002441 L236.795471191,86.978004456 L163.924255371,86.978004456 Z " />
       </clipPath>
      </defs>
      <g clip-path="url(#CLIP29)">
       <g>
        <g transform="matrix(1,0,0,1,164.749298096,86.258804321)">
         <text x="1" y="-2.75999999" class="f0">87.4</text>
        </g>
       </g>
      </g>
      <defs>
       <clipPath id="CLIP30">
        <path d="M237.295471191,72.940002441 L310.166687012,72.940002441 L310.166687012,86.978004456 L237.295471191,86.978004456 Z " />
       </clipPath>
      </defs>
      <g clip-path="url(#CLIP30)">
       <g>
        <g transform="matrix(1,0,0,1,238.120513916,86.258804321)">
         <text x="1" y="-2.75999999" class="f0">81.7</text>
        </g>
       </g>
      </g>
      <defs>
       <clipPath id="CLIP31">
        <path d="M310.666687012,72.940002441 L383.537902832,72.940002441 L383.537902832,86.978004456 L310.666687012,86.978004456 Z " />
       </clipPath>
      </defs>
      <g clip-path="url(#CLIP31)">
       <g>
        <g transform="matrix(1,0,0,1,311.491729736,86.258804321)">
         <text x="1" y="-2.75999999" class="f0">-</text>
        </g>
       </g>
      </g>
      <defs>
       <clipPath id="CLIP32">
        <path d="M0.25,87.477996826 L90.053039551,87.477996826 L90.053039551,101.51599884 L0.25,101.51599884 Z " />
       </clipPath>
      </defs>
      <g clip-path="url(#CLIP32)">
       <g>
        <g transform="matrix(1,0,0,1,1.075036168,100.796798706)">
         <text x="1" y="-2.75999999" class="f0">FTSN</text>
         <text x="23.651405334" y="-2.75999999" class="f0"> </text>
         <text x="26.147264481" y="-2.75999999" class="f0">[3]</text>
        </g>
       </g>
      </g>
      <defs>
       <clipPath id="CLIP33">
        <path d="M90.553039551,87.477996826 L163.424255371,87.477996826 L163.424255371,101.51599884 L90.553039551,101.51599884 Z " />
       </clipPath>
      </defs>
      <g clip-path="url(#CLIP33)">
       <g>
        <g transform="matrix(1,0,0,1,91.378074646,100.796798706)">
         <text x="1" y="-2.75999999" class="f0">77.1</text>
        </g>
       </g>
      </g>
      <defs>
       <clipPath id="CLIP34">
        <path d="M163.924255371,87.477996826 L236.795471191,87.477996826 L236.795471191,101.51599884 L163.924255371,101.51599884 Z " />
       </clipPath>
      </defs>
      <g clip-path="url(#CLIP34)">
       <g>
        <g transform="matrix(1,0,0,1,164.749298096,100.796798706)">
         <text x="1" y="-2.75999999" class="f0">87.6</text>
        </g>
       </g>
      </g>
      <defs>
       <clipPath id="CLIP35">
        <path d="M237.295471191,87.477996826 L310.166687012,87.477996826 L310.166687012,101.51599884 L237.295471191,101.51599884 Z " />
       </clipPath>
      </defs>
      <g clip-path="url(#CLIP35)">
       <g>
        <g transform="matrix(1,0,0,1,238.120513916,100.796798706)">
         <text x="1" y="-2.75999999" class="f0">82.0</text>
        </g>
       </g>
      </g>
      <defs>
       <clipPath id="CLIP36">
        <path d="M310.666687012,87.477996826 L383.537902832,87.477996826 L383.537902832,101.51599884 L310.666687012,101.51599884 Z " />
       </clipPath>
      </defs>
      <g clip-path="url(#CLIP36)">
       <g>
        <g transform="matrix(1,0,0,1,311.491729736,100.796798706)">
         <text x="1" y="-2.75999999" class="f0">-</text>
        </g>
       </g>
      </g>
      <defs>
       <clipPath id="CLIP37">
        <path d="M0.25,102.01599884 L90.053039551,102.01599884 L90.053039551,116.054000854 L0.25,116.054000854 Z " />
       </clipPath>
      </defs>
      <g clip-path="url(#CLIP37)">
       <g>
        <g transform="matrix(1,0,0,1,1.075036168,115.33480072)">
         <text x="1" y="-2.75999999" class="f0">LSE[30]</text>
        </g>
       </g>
      </g>
      <defs>
       <clipPath id="CLIP38">
        <path d="M90.553039551,102.01599884 L163.424255371,102.01599884 L163.424255371,116.054000854 L90.553039551,116.054000854 Z " />
       </clipPath>
      </defs>
      <g clip-path="url(#CLIP38)">
       <g>
        <g transform="matrix(1,0,0,1,91.378074646,115.33480072)">
         <text x="1" y="-2.75999999" class="f0">81.7</text>
        </g>
       </g>
      </g>
      <defs>
       <clipPath id="CLIP39">
        <path d="M163.924255371,102.01599884 L236.795471191,102.01599884 L236.795471191,116.054000854 L163.924255371,116.054000854 Z " />
       </clipPath>
      </defs>
      <g clip-path="url(#CLIP39)">
       <g>
        <g transform="matrix(1,0,0,1,164.749298096,115.33480072)">
         <text x="1" y="-2.75999999" class="f0">84.2</text>
        </g>
       </g>
      </g>
      <defs>
       <clipPath id="CLIP40">
        <path d="M237.295471191,102.01599884 L310.166687012,102.01599884 L310.166687012,116.054000854 L237.295471191,116.054000854 Z " />
       </clipPath>
      </defs>
      <g clip-path="url(#CLIP40)">
       <g>
        <g transform="matrix(1,0,0,1,238.120513916,115.33480072)">
         <text x="1" y="-2.75999999" class="f0">82.9</text>
        </g>
       </g>
      </g>
      <defs>
       <clipPath id="CLIP41">
        <path d="M310.666687012,102.01599884 L383.537902832,102.01599884 L383.537902832,116.054000854 L310.666687012,116.054000854 Z " />
       </clipPath>
      </defs>
      <g clip-path="url(#CLIP41)">
       <g>
        <g transform="matrix(1,0,0,1,311.491729736,115.33480072)">
         <text x="1" y="-2.75999999" class="f0">-</text>
        </g>
       </g>
      </g>
      <defs>
       <clipPath id="CLIP42">
        <path d="M0.25,116.554000854 L90.053039551,116.554000854 L90.053039551,130.591995239 L0.25,130.591995239 Z " />
       </clipPath>
      </defs>
      <g clip-path="url(#CLIP42)">
       <g>
        <g transform="matrix(1,0,0,1,1.075036168,129.872787476)">
         <text x="1" y="-2.75999999" class="f0">CRAFT</text>
         <text x="29.721250534" y="-2.75999999" class="f0"> </text>
         <text x="32.21710968" y="-2.75999999" class="f0">[2]</text>
        </g>
       </g>
      </g>
      <defs>
       <clipPath id="CLIP43">
        <path d="M90.553039551,116.554000854 L163.424255371,116.554000854 L163.424255371,130.591995239 L90.553039551,130.591995239 Z " />
       </clipPath>
      </defs>
      <g clip-path="url(#CLIP43)">
       <g>
        <g transform="matrix(1,0,0,1,91.378074646,129.872787476)">
         <text x="1" y="-2.75999999" class="f0">78.2</text>
        </g>
       </g>
      </g>
      <defs>
       <clipPath id="CLIP44">
        <path d="M163.924255371,116.554000854 L236.795471191,116.554000854 L236.795471191,130.591995239 L163.924255371,130.591995239 Z " />
       </clipPath>
      </defs>
      <g clip-path="url(#CLIP44)">
       <g>
        <g transform="matrix(1,0,0,1,164.749298096,129.872787476)">
         <text x="1" y="-2.75999999" class="f0">88.2</text>
        </g>
       </g>
      </g>
      <defs>
       <clipPath id="CLIP45">
        <path d="M237.295471191,116.554000854 L310.166687012,116.554000854 L310.166687012,130.591995239 L237.295471191,130.591995239 Z " />
       </clipPath>
      </defs>
      <g clip-path="url(#CLIP45)">
       <g>
        <g transform="matrix(1,0,0,1,238.120513916,129.872787476)">
         <text x="1" y="-2.75999999" class="f0">82.9</text>
        </g>
       </g>
      </g>
      <defs>
       <clipPath id="CLIP46">
        <path d="M310.666687012,116.554000854 L383.537902832,116.554000854 L383.537902832,130.591995239 L310.666687012,130.591995239 Z " />
       </clipPath>
      </defs>
      <g clip-path="url(#CLIP46)">
       <g>
        <g transform="matrix(1,0,0,1,311.491729736,129.872787476)">
         <text x="1" y="-2.75999999" class="f0">8.6</text>
        </g>
       </g>
      </g>
      <defs>
       <clipPath id="CLIP47">
        <path d="M0.25,131.091995239 L90.053039551,131.091995239 L90.053039551,145.129989624 L0.25,145.129989624 Z " />
       </clipPath>
      </defs>
      <g clip-path="url(#CLIP47)">
       <g>
        <g transform="matrix(1,0,0,1,1.075036168,144.410797119)">
         <text x="1" y="-2.75999999" class="f0">MCN[16]</text>
        </g>
       </g>
      </g>
      <defs>
       <clipPath id="CLIP48">
        <path d="M90.553039551,131.091995239 L163.424255371,131.091995239 L163.424255371,145.129989624 L90.553039551,145.129989624 Z " />
       </clipPath>
      </defs>
      <g clip-path="url(#CLIP48)">
       <g>
        <g transform="matrix(1,0,0,1,91.378074646,144.410797119)">
         <text x="1" y="-2.75999999" class="f0">79</text>
        </g>
       </g>
      </g>
      <defs>
       <clipPath id="CLIP49">
        <path d="M163.924255371,131.091995239 L236.795471191,131.091995239 L236.795471191,145.129989624 L163.924255371,145.129989624 Z " />
       </clipPath>
      </defs>
      <g clip-path="url(#CLIP49)">
       <g>
        <g transform="matrix(1,0,0,1,164.749298096,144.410797119)">
         <text x="1" y="-2.75999999" class="f0">88</text>
        </g>
       </g>
      </g>
      <defs>
       <clipPath id="CLIP50">
        <path d="M237.295471191,131.091995239 L310.166687012,131.091995239 L310.166687012,145.129989624 L237.295471191,145.129989624 Z " />
       </clipPath>
      </defs>
      <g clip-path="url(#CLIP50)">
       <g>
        <g transform="matrix(1,0,0,1,238.120513916,144.410797119)">
         <text x="1" y="-2.75999999" class="f0">83</text>
        </g>
       </g>
      </g>
      <defs>
       <clipPath id="CLIP51">
        <path d="M310.666687012,131.091995239 L383.537902832,131.091995239 L383.537902832,145.129989624 L310.666687012,145.129989624 Z " />
       </clipPath>
      </defs>
      <g clip-path="url(#CLIP51)">
       <g>
        <g transform="matrix(1,0,0,1,311.491729736,144.410797119)">
         <text x="1" y="-2.75999999" class="f0">-</text>
        </g>
       </g>
      </g>
      <defs>
       <clipPath id="CLIP52">
        <path d="M0.25,145.630004883 L90.053039551,145.630004883 L90.053039551,159.667999268 L0.25,159.667999268 Z " />
       </clipPath>
      </defs>
      <g clip-path="url(#CLIP52)">
       <g>
        <g transform="matrix(1,0,0,1,1.075036168,158.948806763)">
         <text x="1" y="-2.75999999" class="f0">ATRR[35]</text>
        </g>
       </g>
      </g>
      <defs>
       <clipPath id="CLIP53">
        <path d="M90.553039551,145.630004883 L163.424255371,145.630004883 L163.424255371,159.667999268 L90.553039551,159.667999268 Z " />
       </clipPath>
      </defs>
      <g clip-path="url(#CLIP53)">
       <g>
        <g transform="matrix(1,0,0,1,91.378074646,158.948806763)">
         <text x="1" y="-2.75999999" class="f0">82.1</text>
        </g>
       </g>
      </g>
      <defs>
       <clipPath id="CLIP54">
        <path d="M163.924255371,145.630004883 L236.795471191,145.630004883 L236.795471191,159.667999268 L163.924255371,159.667999268 Z " />
       </clipPath>
      </defs>
      <g clip-path="url(#CLIP54)">
       <g>
        <g transform="matrix(1,0,0,1,164.749298096,158.948806763)">
         <text x="1" y="-2.75999999" class="f0">85.2</text>
        </g>
       </g>
      </g>
      <defs>
       <clipPath id="CLIP55">
        <path d="M237.295471191,145.630004883 L310.166687012,145.630004883 L310.166687012,159.667999268 L237.295471191,159.667999268 Z " />
       </clipPath>
      </defs>
      <g clip-path="url(#CLIP55)">
       <g>
        <g transform="matrix(1,0,0,1,238.120513916,158.948806763)">
         <text x="1" y="-2.75999999" class="f0">83.6</text>
        </g>
       </g>
      </g>
      <defs>
       <clipPath id="CLIP56">
        <path d="M0.25,160.167999268 L90.053039551,160.167999268 L90.053039551,174.205993652 L0.25,174.205993652 Z " />
       </clipPath>
      </defs>
      <g clip-path="url(#CLIP56)">
       <g>
        <g transform="matrix(1,0,0,1,1.075036168,173.486801147)">
         <text x="1" y="-2.75999999" class="f0">PAN</text>
         <text x="20.217578888" y="-2.75999999" class="f0"> </text>
         <text x="22.713438034" y="-2.75999999" class="f0">[34]</text>
        </g>
       </g>
      </g>
      <defs>
       <clipPath id="CLIP57">
        <path d="M90.553039551,160.167999268 L163.424255371,160.167999268 L163.424255371,174.205993652 L90.553039551,174.205993652 Z " />
       </clipPath>
      </defs>
      <g clip-path="url(#CLIP57)">
       <g>
        <g transform="matrix(1,0,0,1,91.378074646,173.486801147)">
         <text x="1" y="-2.75999999" class="f0">83.8</text>
        </g>
       </g>
      </g>
      <defs>
       <clipPath id="CLIP58">
        <path d="M163.924255371,160.167999268 L236.795471191,160.167999268 L236.795471191,174.205993652 L163.924255371,174.205993652 Z " />
       </clipPath>
      </defs>
      <g clip-path="url(#CLIP58)">
       <g>
        <g transform="matrix(1,0,0,1,164.749298096,173.486801147)">
         <text x="1" y="-2.75999999" class="f0">84.4</text>
        </g>
       </g>
      </g>
      <defs>
       <clipPath id="CLIP59">
        <path d="M237.295471191,160.167999268 L310.166687012,160.167999268 L310.166687012,174.205993652 L237.295471191,174.205993652 Z " />
       </clipPath>
      </defs>
      <g clip-path="url(#CLIP59)">
       <g>
        <g transform="matrix(1,0,0,1,238.120513916,173.486801147)">
         <text x="1" y="-2.75999999" class="f0">84.1</text>
        </g>
       </g>
      </g>
      <defs>
       <clipPath id="CLIP60">
        <path d="M310.666687012,160.167999268 L383.537902832,160.167999268 L383.537902832,174.205993652 L310.666687012,174.205993652 Z " />
       </clipPath>
      </defs>
      <g clip-path="url(#CLIP60)">
       <g>
        <g transform="matrix(1,0,0,1,311.491729736,173.486801147)">
         <text x="1" y="-2.75999999" class="f0">30.2</text>
        </g>
       </g>
      </g>
      <defs>
       <clipPath id="CLIP61">
        <path d="M0.25,174.705993652 L90.053039551,174.705993652 L90.053039551,188.743988037 L0.25,188.743988037 Z " />
       </clipPath>
      </defs>
      <g clip-path="url(#CLIP61)">
       <g>
        <g transform="matrix(1,0,0,1,1.075036168,188.024795532)">
         <text x="1" y="-2.75999999" class="f0">DB[12]</text>
        </g>
       </g>
      </g>
      <defs>
       <clipPath id="CLIP62">
        <path d="M90.553039551,174.705993652 L163.424255371,174.705993652 L163.424255371,188.743988037 L90.553039551,188.743988037 Z " />
       </clipPath>
      </defs>
      <g clip-path="url(#CLIP62)">
       <g>
        <g transform="matrix(1,0,0,1,91.378074646,188.024795532)">
         <text x="1" y="-2.75999999" class="f0">79.2</text>
        </g>
       </g>
      </g>
      <defs>
       <clipPath id="CLIP63">
        <path d="M163.924255371,174.705993652 L236.795471191,174.705993652 L236.795471191,188.743988037 L163.924255371,188.743988037 Z " />
       </clipPath>
      </defs>
      <g clip-path="url(#CLIP63)">
       <g>
        <g transform="matrix(1,0,0,1,164.749298096,188.024795532)">
         <text x="1" y="-2.75999999" class="f0">91.5</text>
        </g>
       </g>
      </g>
      <defs>
       <clipPath id="CLIP64">
        <path d="M237.295471191,174.705993652 L310.166687012,174.705993652 L310.166687012,188.743988037 L237.295471191,188.743988037 Z " />
       </clipPath>
      </defs>
      <g clip-path="url(#CLIP64)">
       <g>
        <g transform="matrix(1,0,0,1,238.120513916,188.024795532)">
         <text x="1" y="-2.75999999" class="f0">84.9</text>
        </g>
       </g>
      </g>
      <defs>
       <clipPath id="CLIP65">
        <path d="M310.666687012,174.705993652 L383.537902832,174.705993652 L383.537902832,188.743988037 L310.666687012,188.743988037 Z " />
       </clipPath>
      </defs>
      <g clip-path="url(#CLIP65)">
       <g>
        <g transform="matrix(1,0,0,1,311.491729736,188.024795532)">
         <text x="1" y="-2.75999999" class="f0">32.0</text>
        </g>
       </g>
      </g>
      <defs>
       <clipPath id="CLIP66">
        <path d="M0.25,189.244003296 L90.053039551,189.244003296 L90.053039551,203.281997681 L0.25,203.281997681 Z " />
       </clipPath>
      </defs>
      <g clip-path="url(#CLIP66)">
       <g>
        <g transform="matrix(1,0,0,1,1.075036168,202.562805176)">
         <text x="1" y="-2.75999999" class="f0">DRRG</text>
         <text x="26.745624542" y="-2.75999999" class="f0"> </text>
         <text x="29.241483688" y="-2.75999999" class="f0">[41]</text>
        </g>
       </g>
      </g>
      <defs>
       <clipPath id="CLIP67">
        <path d="M90.553039551,189.244003296 L163.424255371,189.244003296 L163.424255371,203.281997681 L90.553039551,203.281997681 Z " />
       </clipPath>
      </defs>
      <g clip-path="url(#CLIP67)">
       <g>
        <g transform="matrix(1,0,0,1,91.378074646,202.562805176)">
         <text x="1" y="-2.75999999" class="f0">82.30</text>
        </g>
       </g>
      </g>
      <defs>
       <clipPath id="CLIP68">
        <path d="M163.924255371,189.244003296 L236.795471191,189.244003296 L236.795471191,203.281997681 L163.924255371,203.281997681 Z " />
       </clipPath>
      </defs>
      <g clip-path="url(#CLIP68)">
       <g>
        <g transform="matrix(1,0,0,1,164.749298096,202.562805176)">
         <text x="1" y="-2.75999999" class="f0">88.05</text>
        </g>
       </g>
      </g>
      <defs>
       <clipPath id="CLIP69">
        <path d="M237.295471191,189.244003296 L310.166687012,189.244003296 L310.166687012,203.281997681 L237.295471191,203.281997681 Z " />
       </clipPath>
      </defs>
      <g clip-path="url(#CLIP69)">
       <g>
        <g transform="matrix(1,0,0,1,238.120513916,202.562805176)">
         <text x="1" y="-2.75999999" class="f0">85.08</text>
        </g>
       </g>
      </g>
      <defs>
       <clipPath id="CLIP70">
        <path d="M0.25,203.781997681 L90.053039551,203.781997681 L90.053039551,217.819992065 L0.25,217.819992065 Z " />
       </clipPath>
      </defs>
      <g clip-path="url(#CLIP70)">
       <g>
        <g transform="matrix(1,0,0,1,1.075036168,217.100799561)">
         <text x="1" y="-2.75999999" class="f0">Ours</text>
         <text x="22.276796341" y="-2.75999999" class="f0"> </text>
         <text x="24.772655487" y="-2.75999999" class="f0">(SynText)</text>
        </g>
       </g>
      </g>
      <defs>
       <clipPath id="CLIP71">
        <path d="M90.553039551,203.781997681 L163.424255371,203.781997681 L163.424255371,217.819992065 L90.553039551,217.819992065 Z " />
       </clipPath>
      </defs>
      <g clip-path="url(#CLIP71)">
       <g>
        <g transform="matrix(1,0,0,1,91.378074646,217.100799561)">
         <text x="1" y="-2.75999999" class="f0">80.68</text>
        </g>
       </g>
      </g>
      <defs>
       <clipPath id="CLIP72">
        <path d="M163.924255371,203.781997681 L236.795471191,203.781997681 L236.795471191,217.819992065 L163.924255371,217.819992065 Z " />
       </clipPath>
      </defs>
      <g clip-path="url(#CLIP72)">
       <g>
        <g transform="matrix(1,0,0,1,164.749298096,217.100799561)">
         <text x="1" y="-2.75999999" class="f0">85.40</text>
        </g>
       </g>
      </g>
      <defs>
       <clipPath id="CLIP73">
        <path d="M237.295471191,203.781997681 L310.166687012,203.781997681 L310.166687012,217.819992065 L237.295471191,217.819992065 Z " />
       </clipPath>
      </defs>
      <g clip-path="url(#CLIP73)">
       <g>
        <g transform="matrix(1,0,0,1,238.120513916,217.100799561)">
         <text x="1" y="-2.75999999" class="f0">82.97</text>
        </g>
       </g>
      </g>
      <defs>
       <clipPath id="CLIP74">
        <path d="M310.666687012,203.781997681 L383.537902832,203.781997681 L383.537902832,217.819992065 L310.666687012,217.819992065 Z " />
       </clipPath>
      </defs>
      <g clip-path="url(#CLIP74)">
       <g>
        <g transform="matrix(1,0,0,1,311.491729736,217.100799561)">
         <text x="1" y="-2.75999999" class="f0">12.68</text>
        </g>
       </g>
      </g>
      <defs>
       <clipPath id="CLIP75">
        <path d="M0.25,218.320007324 L90.053039551,218.320007324 L90.053039551,232.358001709 L0.25,232.358001709 Z " />
       </clipPath>
      </defs>
      <g clip-path="url(#CLIP75)">
       <g>
        <g transform="matrix(1,0,0,1,1.075036168,231.638809204)">
         <text x="1" y="-2.75999999" class="f0">Ours</text>
         <text x="22.276796341" y="-2.75999999" class="f0"> </text>
         <text x="24.772655487" y="-2.75999999" class="f0">(MLT-17)</text>
        </g>
       </g>
      </g>
      <defs>
       <clipPath id="CLIP76">
        <path d="M90.553039551,218.320007324 L163.424255371,218.320007324 L163.424255371,232.358001709 L90.553039551,232.358001709 Z " />
       </clipPath>
      </defs>
      <g clip-path="url(#CLIP76)">
       <g>
        <g transform="matrix(1,0,0,1,91.378074646,231.638809204)">
         <text x="1" y="-2.75999999" class="f0">84.54</text>
        </g>
       </g>
      </g>
      <defs>
       <clipPath id="CLIP77">
        <path d="M163.924255371,218.320007324 L236.795471191,218.320007324 L236.795471191,232.358001709 L163.924255371,232.358001709 Z " />
       </clipPath>
      </defs>
      <g clip-path="url(#CLIP77)">
       <g>
        <g transform="matrix(1,0,0,1,164.749298096,231.638809204)">
         <text x="1" y="-2.75999999" class="f0">86.62</text>
        </g>
       </g>
      </g>
      <defs>
       <clipPath id="CLIP78">
        <path d="M237.295471191,218.320007324 L310.166687012,218.320007324 L310.166687012,232.358001709 L237.295471191,232.358001709 Z " />
       </clipPath>
      </defs>
      <g clip-path="url(#CLIP78)">
       <g>
        <g transform="matrix(1,0,0,1,238.120513916,231.638809204)">
         <text x="1" y="-2.75999999" class="f0">85.57</text>
        </g>
       </g>
      </g>
      <defs>
       <clipPath id="CLIP79">
        <path d="M310.666687012,218.320007324 L383.537902832,218.320007324 L383.537902832,232.358001709 L310.666687012,232.358001709 Z " />
       </clipPath>
      </defs>
      <g clip-path="url(#CLIP79)">
       <g>
        <g transform="matrix(1,0,0,1,311.491729736,231.638809204)">
         <text x="1" y="-2.75999999" class="f0">12.31</text>
        </g>
       </g>
      </g>
     </g>
    </g>
    <defs>
     <clipPath id="CLIP80">
      <path d="M-0.5,-0.5 L384.5,-0.5 L384.5,233.5 L-0.5,233.5 Z " />
     </clipPath>
    </defs>
    <g clip-path="url(#CLIP80)">
     <g />
    </g>
   </g>
   <g />
   <g />
   <g />
   <g>
    <g>
     <g />
     <g shape-rendering="crispEdges" />
    </g>
    <g>
     <g />
    </g>
    <g>
     <g />
    </g>
   </g>
   <g>
    <text x="10" y="10" class="f1">Evaluation Only. Created with Aspose.Cells for Python via Java.Copyright 2003 - 2023 Aspose Pty Ltd.</text>
   </g>
  </g>
 </g>
 <defs />
 <defs>
  <style type="text/css">
   <![CDATA[
   
.f0
{
font-family:Calibri;
font-size:11.039999962px;
fill:#000000;
}

.f1
{
font-family:Arial;
font-size:10px;
fill:#FF0000;
}

   
   ]]></style>
 </defs>
</svg>
