<?xml version="1.0" encoding="UTF-8" standalone="yes"?>
<svg xmlns="http://www.w3.org/2000/svg" xmlns:xlink="http://www.w3.org/1999/xlink" width="612pt" height="792pt">
 <g id="SFixTitle" />
 <g id="SContent">
  <g transform="scale(1.33333)">
   <rect width="100%" height="100%" fill="white" />
   <g>
    <g>
     <g />
     <g shape-rendering="crispEdges" />
    </g>
    <g>
     <g />
    </g>
    <g>
     <g />
    </g>
   </g>
   <g transform="matrix(1,0,0,1,54,72)">
    <defs>
     <clipPath id="CLIP0">
      <path d="M-0.5,-0.5 L277.5,-0.5 L277.5,131.5 L-0.5,131.5 Z " />
     </clipPath>
    </defs>
    <g clip-path="url(#CLIP0)">
     <g />
     <g shape-rendering="crispEdges" />
    </g>
    <defs>
     <clipPath id="CLIP1">
      <path d="M-0.5,-1.453799963 L277.5,-1.453799963 L277.5,132.546203613 L-0.5,132.546203613 Z " />
     </clipPath>
    </defs>
    <g clip-path="url(#CLIP1)">
     <g>
      <g />
     </g>
    </g>
    <defs>
     <clipPath id="CLIP2">
      <path d="M-0.5,-0.5 L277.5,-0.5 L277.5,131.5 L-0.5,131.5 Z " />
     </clipPath>
    </defs>
    <g clip-path="url(#CLIP2)">
     <g>
      <defs>
       <clipPath id="CLIP3">
        <path d="M0.25,0.25 L276.303039551,0.25 L276.303039551,14.288000107 L0.25,14.288000107 Z " />
       </clipPath>
      </defs>
      <g clip-path="url(#CLIP3)">
       <g>
        <g transform="matrix(1,0,0,1,1.075036168,13.568799973)">
         <text x="1" y="-2.75999999" class="f0">2016</text>
         <text x="23.381874084" y="-2.75999999" class="f0"> </text>
         <text x="25.877733231" y="-2.75999999" class="f0">2017</text>
        </g>
       </g>
      </g>
      <defs>
       <clipPath id="CLIP4">
        <path d="M0.25,14.788000107 L329.517333984,14.788000107 L329.517333984,28.826000214 L0.25,28.826000214 Z " />
       </clipPath>
      </defs>
      <g clip-path="url(#CLIP4)">
       <g>
        <g transform="matrix(1,0,0,1,1.075036168,28.106800079)">
         <text x="1" y="-2.770781279" class="f0">2</text>
         <text x="6.595468521" y="-2.770781279" class="f0">0</text>
         <text x="12.190937042" y="-2.770781279" class="f0">1</text>
         <text x="17.786405563" y="-2.770781279" class="f0">8</text>
         <text x="23.381874084" y="-2.770781279" class="f0">E</text>
         <text x="28.772499084" y="-2.770781279" class="f0"> </text>
         <text x="31.268358231" y="-2.770781279" class="f0">2</text>
         <text x="36.863826752" y="-2.770781279" class="f0">0</text>
         <text x="42.45929718" y="-2.770781279" class="f0">1</text>
         <text x="48.054763794" y="-2.770781279" class="f0">9</text>
         <text x="53.650230408" y="-2.770781279" class="f0">E</text>
         <text x="59.040855408" y="-2.770781279" class="f0"> </text>
         <text x="61.536716461" y="-2.770781279" class="f0">2</text>
         <text x="67.13218689" y="-2.770781279" class="f0">0</text>
         <text x="72.727653503" y="-2.770781279" class="f0">2</text>
         <text x="78.323120117" y="-2.770781279" class="f0">0</text>
         <text x="83.918586731" y="-2.770781279" class="f0">E</text>
         <text x="89.309211731" y="-2.770781279" class="f0"> </text>
         <text x="91.80506897" y="-2.770781279" class="f1">营</text>
         <text x="102.845069885" y="-2.770781279" class="f1">业</text>
         <text x="113.885070801" y="-2.770781279" class="f1">收</text>
         <text x="124.925071716" y="-2.770781279" class="f1">入</text>
         <text x="135.965072632" y="-2.770781279" class="f1">（</text>
         <text x="147.005065918" y="-2.770781279" class="f1">百</text>
         <text x="158.045059204" y="-2.770781279" class="f1">万</text>
         <text x="169.08505249" y="-2.770781279" class="f1">元</text>
         <text x="180.125045776" y="-2.770781279" class="f1">）</text>
         <text x="191.165039062" y="-2.770781279" class="f0"> </text>
         <text x="193.660903931" y="-2.770781279" class="f0">1</text>
         <text x="199.256378174" y="-2.770781279" class="f0">1</text>
         <text x="204.851852417" y="-2.770781279" class="f0">9</text>
         <text x="210.44732666" y="-2.770781279" class="f0"> </text>
         <text x="212.943191528" y="-2.770781279" class="f0">1</text>
         <text x="218.538665771" y="-2.770781279" class="f0">2</text>
         <text x="224.134140015" y="-2.770781279" class="f0">6</text>
         <text x="229.729614258" y="-2.770781279" class="f0"> </text>
         <text x="232.225479126" y="-2.770781279" class="f0">1</text>
         <text x="237.820953369" y="-2.770781279" class="f0">2</text>
         <text x="243.416427612" y="-2.770781279" class="f0">8</text>
         <text x="249.011901855" y="-2.770781279" class="f0"> </text>
         <text x="251.507766724" y="-2.770781279" class="f0">1</text>
         <text x="257.103240967" y="-2.770781279" class="f0">4</text>
         <text x="262.698699951" y="-2.770781279" class="f0">1</text>
         <text x="268.294158936" y="-2.770781279" class="f0"> </text>
         <text x="270.790008545" y="-2.770781279" class="f0">1</text>
         <text x="276.385467529" y="-2.770781279" class="f0">6</text>
         <text x="281.980926514" y="-2.770781279" class="f0">1</text>
        </g>
       </g>
      </g>
      <defs>
       <clipPath id="CLIP5">
        <path d="M0.25,29.326000214 L276.303039551,29.326000214 L276.303039551,43.363998413 L0.25,43.363998413 Z " />
       </clipPath>
      </defs>
      <g clip-path="url(#CLIP5)">
       <g>
        <g transform="matrix(1,0,0,1,1.075036168,42.644798279)">
         <text x="1" y="-2.770781279" class="f1">增</text>
         <text x="12.039999962" y="-2.770781279" class="f1">长</text>
         <text x="23.079999924" y="-2.770781279" class="f1">率</text>
         <text x="34.119998932" y="-2.770781279" class="f0">(</text>
         <text x="37.467575073" y="-2.770781279" class="f0">%</text>
         <text x="45.359451294" y="-2.770781279" class="f0">)</text>
         <text x="48.70703125" y="-2.770781279" class="f0"> </text>
         <text x="51.202892303" y="-2.770781279" class="f0">7</text>
         <text x="56.798362732" y="-2.770781279" class="f0">%</text>
         <text x="64.690238953" y="-2.770781279" class="f0"> </text>
         <text x="67.186096191" y="-2.770781279" class="f0">7</text>
         <text x="72.781562805" y="-2.770781279" class="f0">%</text>
         <text x="80.673439026" y="-2.770781279" class="f0"> </text>
         <text x="83.169296265" y="-2.770781279" class="f0">1</text>
         <text x="88.764762878" y="-2.770781279" class="f0">%</text>
         <text x="96.656639099" y="-2.770781279" class="f0"> </text>
         <text x="99.152496338" y="-2.770781279" class="f0">1</text>
         <text x="104.747962952" y="-2.770781279" class="f0">1</text>
         <text x="110.343429565" y="-2.770781279" class="f0">%</text>
         <text x="118.235305786" y="-2.770781279" class="f0"> </text>
         <text x="120.731163025" y="-2.770781279" class="f0">1</text>
         <text x="126.326629639" y="-2.770781279" class="f0">4</text>
         <text x="131.922103882" y="-2.770781279" class="f0">%</text>
        </g>
       </g>
      </g>
      <defs>
       <clipPath id="CLIP6">
        <path d="M0.25,43.863998413 L276.303039551,43.863998413 L276.303039551,57.902000427 L0.25,57.902000427 Z " />
       </clipPath>
      </defs>
      <g clip-path="url(#CLIP6)">
       <g>
        <g transform="matrix(1,0,0,1,1.075036168,57.182800293)">
         <text x="1" y="-2.770781279" class="f1">净</text>
         <text x="12.039999962" y="-2.770781279" class="f1">利</text>
         <text x="23.079999924" y="-2.770781279" class="f1">润</text>
         <text x="34.119998932" y="-2.770781279" class="f0"> </text>
         <text x="36.615859985" y="-2.770781279" class="f0">(</text>
         <text x="39.963439941" y="-2.770781279" class="f1">百</text>
         <text x="51.003440857" y="-2.770781279" class="f1">万</text>
         <text x="62.043441772" y="-2.770781279" class="f1">元</text>
         <text x="73.083442688" y="-2.770781279" class="f0">)</text>
         <text x="76.431022644" y="-2.770781279" class="f0"> </text>
         <text x="78.926879883" y="-2.770781279" class="f0">3</text>
         <text x="84.522346497" y="-2.770781279" class="f0">6</text>
         <text x="90.11781311" y="-2.770781279" class="f0"> </text>
         <text x="92.613670349" y="-2.770781279" class="f0">4</text>
         <text x="98.209136963" y="-2.770781279" class="f0">4</text>
         <text x="103.804603577" y="-2.770781279" class="f0"> </text>
         <text x="106.300460815" y="-2.770781279" class="f0">5</text>
         <text x="111.895927429" y="-2.770781279" class="f0">3</text>
         <text x="117.491394043" y="-2.770781279" class="f0"> </text>
         <text x="119.987251282" y="-2.770781279" class="f0">6</text>
         <text x="125.582717896" y="-2.770781279" class="f0">0</text>
         <text x="131.178192139" y="-2.770781279" class="f0"> </text>
         <text x="133.674057007" y="-2.770781279" class="f0">7</text>
         <text x="139.26953125" y="-2.770781279" class="f0">6</text>
        </g>
       </g>
      </g>
      <defs>
       <clipPath id="CLIP7">
        <path d="M0.25,58.402000427 L276.303039551,58.402000427 L276.303039551,72.440002441 L0.25,72.440002441 Z " />
       </clipPath>
      </defs>
      <g clip-path="url(#CLIP7)">
       <g>
        <g transform="matrix(1,0,0,1,1.075036168,71.720802307)">
         <text x="1" y="-2.770781279" class="f0">&lt;</text>
         <text x="6.498437405" y="-2.770781279" class="f0"> </text>
         <text x="8.994297028" y="-2.770781279" class="f1">增</text>
         <text x="20.034297943" y="-2.770781279" class="f1">长</text>
         <text x="31.074298859" y="-2.770781279" class="f1">率</text>
         <text x="42.114299774" y="-2.770781279" class="f0">(</text>
         <text x="45.461875916" y="-2.770781279" class="f0">%</text>
         <text x="53.353752136" y="-2.770781279" class="f0">)</text>
         <text x="56.701332092" y="-2.770781279" class="f0"> </text>
         <text x="59.197193146" y="-2.770781279" class="f0">-</text>
         <text x="62.577114105" y="-2.770781279" class="f0">1</text>
         <text x="68.172584534" y="-2.770781279" class="f0">2</text>
         <text x="73.768051147" y="-2.770781279" class="f0">0</text>
         <text x="79.363517761" y="-2.770781279" class="f0">%</text>
         <text x="87.255393982" y="-2.770781279" class="f0"> </text>
         <text x="89.751251221" y="-2.770781279" class="f0">2</text>
         <text x="95.346717834" y="-2.770781279" class="f0">1</text>
         <text x="100.942184448" y="-2.770781279" class="f0">%</text>
         <text x="108.834060669" y="-2.770781279" class="f0"> </text>
         <text x="111.329917908" y="-2.770781279" class="f0">2</text>
         <text x="116.925384521" y="-2.770781279" class="f0">1</text>
         <text x="122.520851135" y="-2.770781279" class="f0">%</text>
         <text x="130.412719727" y="-2.770781279" class="f0"> </text>
         <text x="132.908584595" y="-2.770781279" class="f0">1</text>
         <text x="138.504058838" y="-2.770781279" class="f0">5</text>
         <text x="144.099533081" y="-2.770781279" class="f0">%</text>
         <text x="151.991409302" y="-2.770781279" class="f0"> </text>
         <text x="154.48727417" y="-2.770781279" class="f0">2</text>
         <text x="160.082748413" y="-2.770781279" class="f0">6</text>
         <text x="165.678222656" y="-2.770781279" class="f0">%</text>
        </g>
       </g>
      </g>
      <defs>
       <clipPath id="CLIP8">
        <path d="M0.25,72.940002441 L276.303039551,72.940002441 L276.303039551,86.978004456 L0.25,86.978004456 Z " />
       </clipPath>
      </defs>
      <g clip-path="url(#CLIP8)">
       <g>
        <g transform="matrix(1,0,0,1,1.075036168,86.258804321)">
         <text x="1" y="-2.770781279" class="f1">每</text>
         <text x="12.039999962" y="-2.770781279" class="f1">股</text>
         <text x="23.079999924" y="-2.770781279" class="f1">收</text>
         <text x="34.119998932" y="-2.770781279" class="f1">益</text>
         <text x="45.159999847" y="-2.770781279" class="f1">（</text>
         <text x="56.200000763" y="-2.770781279" class="f0">E</text>
         <text x="61.590625763" y="-2.770781279" class="f0">P</text>
         <text x="67.293907166" y="-2.770781279" class="f0">S</text>
         <text x="72.366485596" y="-2.770781279" class="f1">）</text>
         <text x="83.406486511" y="-2.770781279" class="f0"> </text>
         <text x="85.90234375" y="-2.770781279" class="f0">0</text>
         <text x="91.497810364" y="-2.770781279" class="f0">.</text>
         <text x="94.284767151" y="-2.770781279" class="f0">1</text>
         <text x="99.880233765" y="-2.770781279" class="f0">0</text>
         <text x="105.475700378" y="-2.770781279" class="f0"> </text>
         <text x="107.971557617" y="-2.770781279" class="f0">0</text>
         <text x="113.567024231" y="-2.770781279" class="f0">.</text>
         <text x="116.353981018" y="-2.770781279" class="f0">1</text>
         <text x="121.949447632" y="-2.770781279" class="f0">2</text>
         <text x="127.544914246" y="-2.770781279" class="f0"> </text>
         <text x="130.040771484" y="-2.770781279" class="f0">0</text>
         <text x="135.636245728" y="-2.770781279" class="f0">.</text>
         <text x="138.423202515" y="-2.770781279" class="f0">1</text>
         <text x="144.018676758" y="-2.770781279" class="f0">5</text>
         <text x="149.614151001" y="-2.770781279" class="f0"> </text>
         <text x="152.110015869" y="-2.770781279" class="f0">0</text>
         <text x="157.705490112" y="-2.770781279" class="f0">.</text>
         <text x="160.492446899" y="-2.770781279" class="f0">1</text>
         <text x="166.087921143" y="-2.770781279" class="f0">7</text>
         <text x="171.683395386" y="-2.770781279" class="f0"> </text>
         <text x="174.179260254" y="-2.770781279" class="f0">0</text>
         <text x="179.774734497" y="-2.770781279" class="f0">.</text>
         <text x="182.561691284" y="-2.770781279" class="f0">2</text>
         <text x="188.157165527" y="-2.770781279" class="f0">1</text>
        </g>
       </g>
      </g>
      <defs>
       <clipPath id="CLIP9">
        <path d="M0.25,87.477996826 L276.303039551,87.477996826 L276.303039551,101.51599884 L0.25,101.51599884 Z " />
       </clipPath>
      </defs>
      <g clip-path="url(#CLIP9)">
       <g>
        <g transform="matrix(1,0,0,1,1.075036168,100.796798706)">
         <text x="1" y="-2.770781279" class="f1">市</text>
         <text x="12.039999962" y="-2.770781279" class="f1">盈</text>
         <text x="23.079999924" y="-2.770781279" class="f1">率</text>
         <text x="34.119998932" y="-2.770781279" class="f1">（</text>
         <text x="45.159999847" y="-2.770781279" class="f0">P</text>
         <text x="50.86328125" y="-2.770781279" class="f0">/</text>
         <text x="55.12726593" y="-2.770781279" class="f0">E</text>
         <text x="60.51789093" y="-2.770781279" class="f1">）</text>
         <text x="71.557891846" y="-2.770781279" class="f0"> </text>
         <text x="74.053749084" y="-2.770781279" class="f0">2</text>
         <text x="79.649215698" y="-2.770781279" class="f0">3</text>
         <text x="85.244682312" y="-2.770781279" class="f0">.</text>
         <text x="88.031639099" y="-2.770781279" class="f0">9</text>
         <text x="93.627105713" y="-2.770781279" class="f0"> </text>
         <text x="96.122962952" y="-2.770781279" class="f0">1</text>
         <text x="101.718429565" y="-2.770781279" class="f0">9</text>
         <text x="107.313896179" y="-2.770781279" class="f0">.</text>
         <text x="110.100852966" y="-2.770781279" class="f0">7</text>
         <text x="115.69631958" y="-2.770781279" class="f0"> </text>
         <text x="118.192176819" y="-2.770781279" class="f0">1</text>
         <text x="123.787643433" y="-2.770781279" class="f0">6</text>
         <text x="129.383117676" y="-2.770781279" class="f0">.</text>
         <text x="132.170074463" y="-2.770781279" class="f0">5</text>
         <text x="137.765548706" y="-2.770781279" class="f0"> </text>
         <text x="140.261413574" y="-2.770781279" class="f0">1</text>
         <text x="145.856887817" y="-2.770781279" class="f0">4</text>
         <text x="151.452362061" y="-2.770781279" class="f0">.</text>
         <text x="154.239318848" y="-2.770781279" class="f0">4</text>
         <text x="159.834793091" y="-2.770781279" class="f0"> </text>
         <text x="162.330657959" y="-2.770781279" class="f0">1</text>
         <text x="167.926132202" y="-2.770781279" class="f0">1</text>
         <text x="173.521606445" y="-2.770781279" class="f0">.</text>
         <text x="176.308563232" y="-2.770781279" class="f0">5</text>
        </g>
       </g>
      </g>
      <defs>
       <clipPath id="CLIP10">
        <path d="M0.25,116.554000854 L276.303039551,116.554000854 L276.303039551,130.591995239 L0.25,130.591995239 Z " />
       </clipPath>
      </defs>
      <g clip-path="url(#CLIP10)">
       <g>
        <g transform="matrix(1,0,0,1,1.075036168,129.872787476)">
         <text x="1" y="-2.770781279" class="f1">市</text>
         <text x="12.039999962" y="-2.770781279" class="f1">净</text>
         <text x="23.079999924" y="-2.770781279" class="f1">率</text>
         <text x="34.119998932" y="-2.770781279" class="f1">（</text>
         <text x="45.159999847" y="-2.770781279" class="f0">P</text>
         <text x="50.86328125" y="-2.770781279" class="f0">/</text>
         <text x="55.12726593" y="-2.770781279" class="f0">B</text>
         <text x="61.132423401" y="-2.770781279" class="f0">)</text>
         <text x="64.480003357" y="-2.770781279" class="f0"> </text>
         <text x="66.975860596" y="-2.770781279" class="f0">4</text>
         <text x="72.571327209" y="-2.770781279" class="f0">.</text>
         <text x="75.358283997" y="-2.770781279" class="f0">7</text>
         <text x="80.95375061" y="-2.770781279" class="f0"> </text>
         <text x="83.449607849" y="-2.770781279" class="f0">3</text>
         <text x="89.045074463" y="-2.770781279" class="f0">.</text>
         <text x="91.83203125" y="-2.770781279" class="f0">7</text>
         <text x="97.427497864" y="-2.770781279" class="f0">5</text>
         <text x="103.022964478" y="-2.770781279" class="f0"> </text>
         <text x="105.518821716" y="-2.770781279" class="f0">N</text>
         <text x="112.645225525" y="-2.770781279" class="f0"> </text>
         <text x="115.141082764" y="-2.770781279" class="f0">3</text>
         <text x="120.736549377" y="-2.770781279" class="f0">.</text>
         <text x="123.523506165" y="-2.770781279" class="f0">0</text>
         <text x="129.118972778" y="-2.770781279" class="f0"> </text>
         <text x="131.614837646" y="-2.770781279" class="f0">2</text>
         <text x="137.21031189" y="-2.770781279" class="f0">.</text>
         <text x="139.997268677" y="-2.770781279" class="f0">5</text>
         <text x="145.59274292" y="-2.770781279" class="f0"> </text>
         <text x="148.088607788" y="-2.770781279" class="f0">2</text>
         <text x="153.684082031" y="-2.770781279" class="f0">.</text>
         <text x="156.471038818" y="-2.770781279" class="f0">1</text>
        </g>
       </g>
      </g>
     </g>
    </g>
    <defs>
     <clipPath id="CLIP11">
      <path d="M-0.5,-0.5 L277.5,-0.5 L277.5,131.5 L-0.5,131.5 Z " />
     </clipPath>
    </defs>
    <g clip-path="url(#CLIP11)">
     <g />
    </g>
   </g>
   <g />
   <g />
   <g />
   <g>
    <g>
     <g />
     <g shape-rendering="crispEdges" />
    </g>
    <g>
     <g />
    </g>
    <g>
     <g />
    </g>
   </g>
   <g>
    <text x="10" y="10" class="f2">Evaluation Only. Created with Aspose.Cells for Python via Java.Copyright 2003 - 2023 Aspose Pty Ltd.</text>
   </g>
  </g>
 </g>
 <defs />
 <defs>
  <style type="text/css">
   <![CDATA[
   
.f0
{
font-family:Calibri;
font-size:11.039999962px;
fill:#000000;
}

.f1
{
font-family:Microsoft YaHei Light;
font-size:11.039999962px;
fill:#000000;
}

.f2
{
font-family:Arial;
font-size:10px;
fill:#FF0000;
}

   
   ]]></style>
 </defs>
</svg>
