<?xml version="1.0" encoding="UTF-8" standalone="yes"?>
<svg xmlns="http://www.w3.org/2000/svg" xmlns:xlink="http://www.w3.org/1999/xlink" width="612pt" height="792pt">
 <g id="SFixTitle" />
 <g id="SContent">
  <g transform="scale(1.33333)">
   <rect width="100%" height="100%" fill="white" />
   <g>
    <g>
     <g />
     <g shape-rendering="crispEdges" />
    </g>
    <g>
     <g />
    </g>
    <g>
     <g />
    </g>
   </g>
   <g transform="matrix(1,0,0,1,54,72)">
    <defs>
     <clipPath id="CLIP0">
      <path d="M-0.5,-0.5 L441.5,-0.5 L441.5,88.5 L-0.5,88.5 Z " />
     </clipPath>
    </defs>
    <g clip-path="url(#CLIP0)">
     <g />
     <g shape-rendering="crispEdges" />
    </g>
    <defs>
     <clipPath id="CLIP1">
      <path d="M-0.5,-1.453799963 L441.5,-1.453799963 L441.5,89.546203613 L-0.5,89.546203613 Z " />
     </clipPath>
    </defs>
    <g clip-path="url(#CLIP1)">
     <g>
      <g />
     </g>
    </g>
    <defs>
     <clipPath id="CLIP2">
      <path d="M-0.5,-0.5 L441.5,-0.5 L441.5,88.5 L-0.5,88.5 Z " />
     </clipPath>
    </defs>
    <g clip-path="url(#CLIP2)">
     <g>
      <defs>
       <clipPath id="CLIP3">
        <path d="M73.62121582,0.25 L219.863647461,0.25 L219.863647461,14.288000107 L73.62121582,14.288000107 Z " />
       </clipPath>
      </defs>
      <g clip-path="url(#CLIP3)">
       <g>
        <g transform="matrix(1,0,0,1,74.446250916,13.568799973)">
         <text x="1" y="-2.770781279" class="f0">广</text>
         <text x="12.039999962" y="-2.770781279" class="f0">东</text>
         <text x="23.079999924" y="-2.770781279" class="f0">理</text>
         <text x="34.119998932" y="-2.770781279" class="f0">工</text>
         <text x="45.159999847" y="-2.770781279" class="f0">学</text>
         <text x="56.200000763" y="-2.770781279" class="f0">院</text>
        </g>
       </g>
      </g>
      <defs>
       <clipPath id="CLIP4">
        <path d="M220.36366272,0.25 L366.606079102,0.25 L366.606079102,14.288000107 L220.36366272,14.288000107 Z " />
       </clipPath>
      </defs>
      <g clip-path="url(#CLIP4)">
       <g>
        <g transform="matrix(1,0,0,1,221.188705444,13.568799973)">
         <text x="1" y="-2.770781279" class="f0">肇</text>
         <text x="12.039999962" y="-2.770781279" class="f0">庆</text>
         <text x="23.079999924" y="-2.770781279" class="f0">学</text>
         <text x="34.119998932" y="-2.770781279" class="f0">校</text>
        </g>
       </g>
      </g>
      <defs>
       <clipPath id="CLIP5">
        <path d="M367.106079102,0.25 L513.348510742,0.25 L513.348510742,14.288000107 L367.106079102,14.288000107 Z " />
       </clipPath>
      </defs>
      <g clip-path="url(#CLIP5)">
       <g>
        <g transform="matrix(1,0,0,1,367.931121826,13.568799973)">
         <text x="1" y="-2.770781279" class="f0">集</text>
         <text x="12.039999962" y="-2.770781279" class="f0">团</text>
        </g>
       </g>
      </g>
      <defs>
       <clipPath id="CLIP6">
        <path d="M73.62121582,14.788000107 L146.492431641,14.788000107 L146.492431641,28.826000214 L73.62121582,28.826000214 Z " />
       </clipPath>
      </defs>
      <g clip-path="url(#CLIP6)">
       <g>
        <g transform="matrix(1,0,0,1,73.37121582,28.106800079)">
         <text x="1" y="-2.770781279" class="f0">可</text>
         <text x="12.039999962" y="-2.770781279" class="f0">容</text>
         <text x="23.079999924" y="-2.770781279" class="f0">纳</text>
         <text x="34.119998932" y="-2.770781279" class="f0">学</text>
         <text x="45.159999847" y="-2.770781279" class="f0">生</text>
         <text x="56.200000763" y="-2.770781279" class="f0">人</text>
         <text x="67.239997864" y="-2.770781279" class="f0">数</text>
        </g>
       </g>
      </g>
      <defs>
       <clipPath id="CLIP7">
        <path d="M146.992431641,14.788000107 L219.863647461,14.788000107 L219.863647461,28.826000214 L146.992431641,28.826000214 Z " />
       </clipPath>
      </defs>
      <g clip-path="url(#CLIP7)">
       <g>
        <g transform="matrix(1,0,0,1,147.817474365,28.106800079)">
         <text x="1" y="-2.770781279" class="f0">学</text>
         <text x="12.039999962" y="-2.770781279" class="f0">校</text>
         <text x="23.079999924" y="-2.770781279" class="f0">利</text>
         <text x="34.119998932" y="-2.770781279" class="f0">用</text>
         <text x="45.159999847" y="-2.770781279" class="f0">率</text>
        </g>
       </g>
      </g>
      <defs>
       <clipPath id="CLIP8">
        <path d="M220.36366272,14.788000107 L293.234863281,14.788000107 L293.234863281,28.826000214 L220.36366272,28.826000214 Z " />
       </clipPath>
      </defs>
      <g clip-path="url(#CLIP8)">
       <g>
        <g transform="matrix(1,0,0,1,220.11366272,28.106800079)">
         <text x="1" y="-2.770781279" class="f0">可</text>
         <text x="12.039999962" y="-2.770781279" class="f0">容</text>
         <text x="23.079999924" y="-2.770781279" class="f0">纳</text>
         <text x="34.119998932" y="-2.770781279" class="f0">学</text>
         <text x="45.159999847" y="-2.770781279" class="f0">生</text>
         <text x="56.200000763" y="-2.770781279" class="f0">人</text>
         <text x="67.239997864" y="-2.770781279" class="f0">数</text>
        </g>
       </g>
      </g>
      <defs>
       <clipPath id="CLIP9">
        <path d="M293.734863281,14.788000107 L366.606079102,14.788000107 L366.606079102,28.826000214 L293.734863281,28.826000214 Z " />
       </clipPath>
      </defs>
      <g clip-path="url(#CLIP9)">
       <g>
        <g transform="matrix(1,0,0,1,294.559906006,28.106800079)">
         <text x="1" y="-2.770781279" class="f0">学</text>
         <text x="12.039999962" y="-2.770781279" class="f0">校</text>
         <text x="23.079999924" y="-2.770781279" class="f0">利</text>
         <text x="34.119998932" y="-2.770781279" class="f0">用</text>
         <text x="45.159999847" y="-2.770781279" class="f0">率</text>
        </g>
       </g>
      </g>
      <defs>
       <clipPath id="CLIP10">
        <path d="M367.106079102,14.788000107 L439.977294922,14.788000107 L439.977294922,28.826000214 L367.106079102,28.826000214 Z " />
       </clipPath>
      </defs>
      <g clip-path="url(#CLIP10)">
       <g>
        <g transform="matrix(1,0,0,1,366.856079102,28.106800079)">
         <text x="1" y="-2.770781279" class="f0">可</text>
         <text x="12.039999962" y="-2.770781279" class="f0">容</text>
         <text x="23.079999924" y="-2.770781279" class="f0">纳</text>
         <text x="34.119998932" y="-2.770781279" class="f0">学</text>
         <text x="45.159999847" y="-2.770781279" class="f0">生</text>
         <text x="56.200000763" y="-2.770781279" class="f0">人</text>
         <text x="67.239997864" y="-2.770781279" class="f0">数</text>
        </g>
       </g>
      </g>
      <defs>
       <clipPath id="CLIP11">
        <path d="M0.25,29.326000214 L73.12121582,29.326000214 L73.12121582,43.363998413 L0.25,43.363998413 Z " />
       </clipPath>
      </defs>
      <g clip-path="url(#CLIP11)">
       <g>
        <g transform="matrix(1,0,0,1,1.075036168,42.644798279)">
         <text x="1" y="-2.75999999" class="f1">2015/2016</text>
        </g>
       </g>
      </g>
      <defs>
       <clipPath id="CLIP12">
        <path d="M73.62121582,29.326000214 L146.492431641,29.326000214 L146.492431641,43.363998413 L73.62121582,43.363998413 Z " />
       </clipPath>
      </defs>
      <g clip-path="url(#CLIP12)">
       <g>
        <g transform="matrix(1,0,0,1,74.446250916,42.644798279)">
         <text x="1" y="-2.75999999" class="f1">19,152</text>
        </g>
       </g>
      </g>
      <defs>
       <clipPath id="CLIP13">
        <path d="M146.992431641,29.326000214 L219.863647461,29.326000214 L219.863647461,43.363998413 L146.992431641,43.363998413 Z " />
       </clipPath>
      </defs>
      <g clip-path="url(#CLIP13)">
       <g>
        <g transform="matrix(1,0,0,1,147.817474365,42.644798279)">
         <text x="1" y="-2.75999999" class="f1">94.3%</text>
        </g>
       </g>
      </g>
      <defs>
       <clipPath id="CLIP14">
        <path d="M220.36366272,29.326000214 L293.234863281,29.326000214 L293.234863281,43.363998413 L220.36366272,43.363998413 Z " />
       </clipPath>
      </defs>
      <g clip-path="url(#CLIP14)">
       <g>
        <g transform="matrix(1,0,0,1,221.188705444,42.644798279)">
         <text x="1" y="-2.75999999" class="f1">6,829</text>
        </g>
       </g>
      </g>
      <defs>
       <clipPath id="CLIP15">
        <path d="M293.734863281,29.326000214 L366.606079102,29.326000214 L366.606079102,43.363998413 L293.734863281,43.363998413 Z " />
       </clipPath>
      </defs>
      <g clip-path="url(#CLIP15)">
       <g>
        <g transform="matrix(1,0,0,1,294.559906006,42.644798279)">
         <text x="1" y="-2.75999999" class="f1">87.6%</text>
        </g>
       </g>
      </g>
      <defs>
       <clipPath id="CLIP16">
        <path d="M367.106079102,29.326000214 L439.977294922,29.326000214 L439.977294922,43.363998413 L367.106079102,43.363998413 Z " />
       </clipPath>
      </defs>
      <g clip-path="url(#CLIP16)">
       <g>
        <g transform="matrix(1,0,0,1,367.931121826,42.644798279)">
         <text x="1" y="-2.75999999" class="f1">25,981</text>
        </g>
       </g>
      </g>
      <defs>
       <clipPath id="CLIP17">
        <path d="M0.25,43.863998413 L73.12121582,43.863998413 L73.12121582,57.902000427 L0.25,57.902000427 Z " />
       </clipPath>
      </defs>
      <g clip-path="url(#CLIP17)">
       <g>
        <g transform="matrix(1,0,0,1,1.075036168,57.182800293)">
         <text x="1" y="-2.75999999" class="f1">2016/2017</text>
        </g>
       </g>
      </g>
      <defs>
       <clipPath id="CLIP18">
        <path d="M73.62121582,43.863998413 L146.492431641,43.863998413 L146.492431641,57.902000427 L73.62121582,57.902000427 Z " />
       </clipPath>
      </defs>
      <g clip-path="url(#CLIP18)">
       <g>
        <g transform="matrix(1,0,0,1,74.446250916,57.182800293)">
         <text x="1" y="-2.75999999" class="f1">19,152</text>
        </g>
       </g>
      </g>
      <defs>
       <clipPath id="CLIP19">
        <path d="M146.992431641,43.863998413 L219.863647461,43.863998413 L219.863647461,57.902000427 L146.992431641,57.902000427 Z " />
       </clipPath>
      </defs>
      <g clip-path="url(#CLIP19)">
       <g>
        <g transform="matrix(1,0,0,1,147.817474365,57.182800293)">
         <text x="1" y="-2.75999999" class="f1">90.1%</text>
        </g>
       </g>
      </g>
      <defs>
       <clipPath id="CLIP20">
        <path d="M220.36366272,43.863998413 L293.234863281,43.863998413 L293.234863281,57.902000427 L220.36366272,57.902000427 Z " />
       </clipPath>
      </defs>
      <g clip-path="url(#CLIP20)">
       <g>
        <g transform="matrix(1,0,0,1,221.188705444,57.182800293)">
         <text x="1" y="-2.75999999" class="f1">6,829</text>
        </g>
       </g>
      </g>
      <defs>
       <clipPath id="CLIP21">
        <path d="M293.734863281,43.863998413 L366.606079102,43.863998413 L366.606079102,57.902000427 L293.734863281,57.902000427 Z " />
       </clipPath>
      </defs>
      <g clip-path="url(#CLIP21)">
       <g>
        <g transform="matrix(1,0,0,1,294.559906006,57.182800293)">
         <text x="1" y="-2.75999999" class="f1">91.6%</text>
        </g>
       </g>
      </g>
      <defs>
       <clipPath id="CLIP22">
        <path d="M367.106079102,43.863998413 L439.977294922,43.863998413 L439.977294922,57.902000427 L367.106079102,57.902000427 Z " />
       </clipPath>
      </defs>
      <g clip-path="url(#CLIP22)">
       <g>
        <g transform="matrix(1,0,0,1,367.931121826,57.182800293)">
         <text x="1" y="-2.75999999" class="f1">25,981</text>
        </g>
       </g>
      </g>
      <defs>
       <clipPath id="CLIP23">
        <path d="M0.25,58.402000427 L73.12121582,58.402000427 L73.12121582,72.440002441 L0.25,72.440002441 Z " />
       </clipPath>
      </defs>
      <g clip-path="url(#CLIP23)">
       <g>
        <g transform="matrix(1,0,0,1,1.075036168,71.720802307)">
         <text x="1" y="-2.75999999" class="f1">2017/2018</text>
        </g>
       </g>
      </g>
      <defs>
       <clipPath id="CLIP24">
        <path d="M73.62121582,58.402000427 L146.492431641,58.402000427 L146.492431641,72.440002441 L73.62121582,72.440002441 Z " />
       </clipPath>
      </defs>
      <g clip-path="url(#CLIP24)">
       <g>
        <g transform="matrix(1,0,0,1,74.446250916,71.720802307)">
         <text x="1" y="-2.75999999" class="f1">25,148</text>
        </g>
       </g>
      </g>
      <defs>
       <clipPath id="CLIP25">
        <path d="M146.992431641,58.402000427 L219.863647461,58.402000427 L219.863647461,72.440002441 L146.992431641,72.440002441 Z " />
       </clipPath>
      </defs>
      <g clip-path="url(#CLIP25)">
       <g>
        <g transform="matrix(1,0,0,1,147.817474365,71.720802307)">
         <text x="1" y="-2.75999999" class="f1">86.3%</text>
        </g>
       </g>
      </g>
      <defs>
       <clipPath id="CLIP26">
        <path d="M220.36366272,58.402000427 L293.234863281,58.402000427 L293.234863281,72.440002441 L220.36366272,72.440002441 Z " />
       </clipPath>
      </defs>
      <g clip-path="url(#CLIP26)">
       <g>
        <g transform="matrix(1,0,0,1,221.188705444,71.720802307)">
         <text x="1" y="-2.75999999" class="f1">6,829</text>
        </g>
       </g>
      </g>
      <defs>
       <clipPath id="CLIP27">
        <path d="M293.734863281,58.402000427 L366.606079102,58.402000427 L366.606079102,72.440002441 L293.734863281,72.440002441 Z " />
       </clipPath>
      </defs>
      <g clip-path="url(#CLIP27)">
       <g>
        <g transform="matrix(1,0,0,1,294.559906006,71.720802307)">
         <text x="1" y="-2.75999999" class="f1">81.3%</text>
        </g>
       </g>
      </g>
      <defs>
       <clipPath id="CLIP28">
        <path d="M367.106079102,58.402000427 L439.977294922,58.402000427 L439.977294922,72.440002441 L367.106079102,72.440002441 Z " />
       </clipPath>
      </defs>
      <g clip-path="url(#CLIP28)">
       <g>
        <g transform="matrix(1,0,0,1,367.931121826,71.720802307)">
         <text x="1" y="-2.75999999" class="f1">31,977</text>
        </g>
       </g>
      </g>
      <defs>
       <clipPath id="CLIP29">
        <path d="M0.25,72.940002441 L73.12121582,72.940002441 L73.12121582,86.978004456 L0.25,86.978004456 Z " />
       </clipPath>
      </defs>
      <g clip-path="url(#CLIP29)">
       <g>
        <g transform="matrix(1,0,0,1,1.075036168,86.258804321)">
         <text x="1" y="-2.75999999" class="f1">2018/2019</text>
        </g>
       </g>
      </g>
      <defs>
       <clipPath id="CLIP30">
        <path d="M73.62121582,72.940002441 L146.492431641,72.940002441 L146.492431641,86.978004456 L73.62121582,86.978004456 Z " />
       </clipPath>
      </defs>
      <g clip-path="url(#CLIP30)">
       <g>
        <g transform="matrix(1,0,0,1,74.446250916,86.258804321)">
         <text x="1" y="-2.75999999" class="f1">29,148</text>
        </g>
       </g>
      </g>
      <defs>
       <clipPath id="CLIP31">
        <path d="M146.992431641,72.940002441 L219.863647461,72.940002441 L219.863647461,86.978004456 L146.992431641,86.978004456 Z " />
       </clipPath>
      </defs>
      <g clip-path="url(#CLIP31)">
       <g>
        <g transform="matrix(1,0,0,1,147.817474365,86.258804321)">
         <text x="1" y="-2.75999999" class="f1">90.8%</text>
        </g>
       </g>
      </g>
      <defs>
       <clipPath id="CLIP32">
        <path d="M220.36366272,72.940002441 L293.234863281,72.940002441 L293.234863281,86.978004456 L220.36366272,86.978004456 Z " />
       </clipPath>
      </defs>
      <g clip-path="url(#CLIP32)">
       <g>
        <g transform="matrix(1,0,0,1,221.188705444,86.258804321)">
         <text x="1" y="-2.75999999" class="f1">6,829</text>
        </g>
       </g>
      </g>
      <defs>
       <clipPath id="CLIP33">
        <path d="M293.734863281,72.940002441 L366.606079102,72.940002441 L366.606079102,86.978004456 L293.734863281,86.978004456 Z " />
       </clipPath>
      </defs>
      <g clip-path="url(#CLIP33)">
       <g>
        <g transform="matrix(1,0,0,1,294.559906006,86.258804321)">
         <text x="1" y="-2.75999999" class="f1">86.0%</text>
        </g>
       </g>
      </g>
      <defs>
       <clipPath id="CLIP34">
        <path d="M367.106079102,72.940002441 L439.977294922,72.940002441 L439.977294922,86.978004456 L367.106079102,86.978004456 Z " />
       </clipPath>
      </defs>
      <g clip-path="url(#CLIP34)">
       <g>
        <g transform="matrix(1,0,0,1,367.931121826,86.258804321)">
         <text x="1" y="-2.75999999" class="f1">35,977</text>
        </g>
       </g>
      </g>
     </g>
    </g>
    <defs>
     <clipPath id="CLIP35">
      <path d="M-0.5,-0.5 L441.5,-0.5 L441.5,88.5 L-0.5,88.5 Z " />
     </clipPath>
    </defs>
    <g clip-path="url(#CLIP35)">
     <g />
    </g>
   </g>
   <g />
   <g />
   <g />
   <g>
    <g>
     <g />
     <g shape-rendering="crispEdges" />
    </g>
    <g>
     <g />
    </g>
    <g>
     <g />
    </g>
   </g>
   <g>
    <text x="10" y="10" class="f2">Evaluation Only. Created with Aspose.Cells for Python via Java.Copyright 2003 - 2023 Aspose Pty Ltd.</text>
   </g>
  </g>
 </g>
 <defs />
 <defs>
  <style type="text/css">
   <![CDATA[
   
.f0
{
font-family:Microsoft YaHei Light;
font-size:11.039999962px;
fill:#000000;
}

.f1
{
font-family:Calibri;
font-size:11.039999962px;
fill:#000000;
}

.f2
{
font-family:Arial;
font-size:10px;
fill:#FF0000;
}

   
   ]]></style>
 </defs>
</svg>
