<?xml version="1.0" encoding="UTF-8" standalone="yes"?>
<svg xmlns="http://www.w3.org/2000/svg" xmlns:xlink="http://www.w3.org/1999/xlink" width="612pt" height="792pt">
 <g id="SFixTitle" />
 <g id="SContent">
  <g transform="scale(1.33333)">
   <rect width="100%" height="100%" fill="white" />
   <g>
    <g>
     <g />
     <g shape-rendering="crispEdges" />
    </g>
    <g>
     <g />
    </g>
    <g>
     <g />
    </g>
   </g>
   <g transform="matrix(1,0,0,1,54,72)">
    <defs>
     <clipPath id="CLIP0">
      <path d="M-0.5,-0.5 L266.5,-0.5 L266.5,146.5 L-0.5,146.5 Z " />
     </clipPath>
    </defs>
    <g clip-path="url(#CLIP0)">
     <g />
     <g shape-rendering="crispEdges" />
    </g>
    <defs>
     <clipPath id="CLIP1">
      <path d="M-0.5,-1.453799963 L266.5,-1.453799963 L266.5,147.546203613 L-0.5,147.546203613 Z " />
     </clipPath>
    </defs>
    <g clip-path="url(#CLIP1)">
     <g>
      <g />
      <path d="M 0,0 L 73.37121582,0" class="p0" fill="none" />
      <path d="M 0,58.152000427 L 73.37121582,58.152000427" class="p0" fill="none" />
      <path d="M 0,116.304000854 L 73.37121582,116.304000854" class="p0" fill="none" />
      <path d="M 0,0 L 0,14.538000107" class="p0" fill="none" />
      <path d="M 0,58.152000427 L 0,72.690002441" class="p0" fill="none" />
      <path d="M 0,116.304000854 L 0,130.841995239" class="p0" fill="none" />
      <path d="M 73.37121582,0 L 163.674255371,0" class="p0" fill="none" />
      <path d="M 73.37121582,58.152000427 L 163.674255371,58.152000427" class="p0" fill="none" />
      <path d="M 73.37121582,116.304000854 L 163.674255371,116.304000854" class="p0" fill="none" />
      <path d="M 73.371002197,0 L 73.371002197,14.538000107" class="p0" fill="none" />
      <path d="M 73.371002197,58.152000427 L 73.371002197,72.690002441" class="p0" fill="none" />
      <path d="M 73.371002197,116.304000854 L 73.371002197,130.841995239" class="p0" fill="none" />
      <path d="M 163.674255371,0 L 265.265167236,0" class="p0" fill="none" />
      <path d="M 163.674255371,58.152000427 L 265.265167236,58.152000427" class="p0" fill="none" />
      <path d="M 163.674255371,116.304000854 L 265.265167236,116.304000854" class="p0" fill="none" />
      <path d="M 163.673995972,0 L 163.673995972,14.538000107" class="p0" fill="none" />
      <path d="M 163.673995972,58.152000427 L 163.673995972,72.690002441" class="p0" fill="none" />
      <path d="M 163.673995972,116.304000854 L 163.673995972,130.841995239" class="p0" fill="none" />
      <path d="M 265.265014648,0 L 265.265014648,14.538000107" class="p0" fill="none" />
      <path d="M 265.265014648,58.152000427 L 265.265014648,72.690002441" class="p0" fill="none" />
      <path d="M 265.265014648,116.304000854 L 265.265014648,130.841995239" class="p0" fill="none" />
      <path d="M 0,14.538000107 L 73.37121582,14.538000107" class="p0" fill="none" />
      <path d="M 0,72.690002441 L 73.37121582,72.690002441" class="p0" fill="none" />
      <path d="M 0,130.841995239 L 73.37121582,130.841995239" class="p0" fill="none" />
      <path d="M 0,14.538000107 L 0,29.076000214" class="p0" fill="none" />
      <path d="M 0,72.690002441 L 0,87.228004456" class="p0" fill="none" />
      <path d="M 0,130.841995239 L 0,145.379989624" class="p0" fill="none" />
      <path d="M 73.37121582,14.538000107 L 163.674255371,14.538000107" class="p0" fill="none" />
      <path d="M 73.37121582,72.690002441 L 163.674255371,72.690002441" class="p0" fill="none" />
      <path d="M 73.37121582,130.841995239 L 163.674255371,130.841995239" class="p0" fill="none" />
      <path d="M 73.371002197,14.538000107 L 73.371002197,29.076000214" class="p0" fill="none" />
      <path d="M 73.371002197,72.690002441 L 73.371002197,87.228004456" class="p0" fill="none" />
      <path d="M 73.371002197,130.841995239 L 73.371002197,145.379989624" class="p0" fill="none" />
      <path d="M 163.674255371,14.538000107 L 265.265167236,14.538000107" class="p0" fill="none" />
      <path d="M 163.674255371,72.690002441 L 265.265167236,72.690002441" class="p0" fill="none" />
      <path d="M 163.674255371,130.841995239 L 265.265167236,130.841995239" class="p0" fill="none" />
      <path d="M 163.673995972,14.538000107 L 163.673995972,29.076000214" class="p0" fill="none" />
      <path d="M 163.673995972,72.690002441 L 163.673995972,87.228004456" class="p0" fill="none" />
      <path d="M 163.673995972,130.841995239 L 163.673995972,145.379989624" class="p0" fill="none" />
      <path d="M 265.265014648,14.538000107 L 265.265014648,29.076000214" class="p0" fill="none" />
      <path d="M 265.265014648,72.690002441 L 265.265014648,87.228004456" class="p0" fill="none" />
      <path d="M 265.265014648,130.841995239 L 265.265014648,145.379989624" class="p0" fill="none" />
      <path d="M 0,29.076000214 L 73.37121582,29.076000214" class="p0" fill="none" />
      <path d="M 0,87.227996826 L 73.37121582,87.227996826" class="p0" fill="none" />
      <path d="M 0,145.380004883 L 73.37121582,145.380004883" class="p0" fill="none" />
      <path d="M 0,29.076000214 L 0,43.613998413" class="p0" fill="none" />
      <path d="M 0,87.227996826 L 0,101.76599884" class="p0" fill="none" />
      <path d="M 73.37121582,29.076000214 L 163.674255371,29.076000214" class="p0" fill="none" />
      <path d="M 73.37121582,87.227996826 L 163.674255371,87.227996826" class="p0" fill="none" />
      <path d="M 73.37121582,145.380004883 L 163.674255371,145.380004883" class="p0" fill="none" />
      <path d="M 73.371002197,29.076000214 L 73.371002197,43.613998413" class="p0" fill="none" />
      <path d="M 73.371002197,87.227996826 L 73.371002197,101.76599884" class="p0" fill="none" />
      <path d="M 163.674255371,29.076000214 L 265.265167236,29.076000214" class="p0" fill="none" />
      <path d="M 163.674255371,87.227996826 L 265.265167236,87.227996826" class="p0" fill="none" />
      <path d="M 163.674255371,145.380004883 L 265.265167236,145.380004883" class="p0" fill="none" />
      <path d="M 163.673995972,29.076000214 L 163.673995972,43.613998413" class="p0" fill="none" />
      <path d="M 163.673995972,87.227996826 L 163.673995972,101.76599884" class="p0" fill="none" />
      <path d="M 265.265014648,29.076000214 L 265.265014648,43.613998413" class="p0" fill="none" />
      <path d="M 265.265014648,87.227996826 L 265.265014648,101.76599884" class="p0" fill="none" />
      <path d="M 0,43.613998413 L 73.37121582,43.613998413" class="p0" fill="none" />
      <path d="M 0,101.76599884 L 73.37121582,101.76599884" class="p0" fill="none" />
      <path d="M 0,43.613998413 L 0,58.152000427" class="p0" fill="none" />
      <path d="M 0,101.76599884 L 0,116.304000854" class="p0" fill="none" />
      <path d="M 73.37121582,43.613998413 L 163.674255371,43.613998413" class="p0" fill="none" />
      <path d="M 73.37121582,101.76599884 L 163.674255371,101.76599884" class="p0" fill="none" />
      <path d="M 73.371002197,43.613998413 L 73.371002197,58.152000427" class="p0" fill="none" />
      <path d="M 73.371002197,101.76599884 L 73.371002197,116.304000854" class="p0" fill="none" />
      <path d="M 163.674255371,43.613998413 L 265.265167236,43.613998413" class="p0" fill="none" />
      <path d="M 163.674255371,101.76599884 L 265.265167236,101.76599884" class="p0" fill="none" />
      <path d="M 163.673995972,43.613998413 L 163.673995972,58.152000427" class="p0" fill="none" />
      <path d="M 163.673995972,101.76599884 L 163.673995972,116.304000854" class="p0" fill="none" />
      <path d="M 265.265014648,43.613998413 L 265.265014648,58.152000427" class="p0" fill="none" />
      <path d="M 265.265014648,101.76599884 L 265.265014648,116.304000854" class="p0" fill="none" />
     </g>
    </g>
    <defs>
     <clipPath id="CLIP2">
      <path d="M-0.5,-0.5 L266.5,-0.5 L266.5,146.5 L-0.5,146.5 Z " />
     </clipPath>
    </defs>
    <g clip-path="url(#CLIP2)">
     <g>
      <defs>
       <clipPath id="CLIP3">
        <path d="M0.25,0.25 L73.12121582,0.25 L73.12121582,14.288000107 L0.25,14.288000107 Z " />
       </clipPath>
      </defs>
      <g clip-path="url(#CLIP3)">
       <g>
        <g transform="matrix(1,0,0,1,1.075036168,13.568799973)">
         <text x="1" y="-2.770781279" class="f0">省</text>
         <text x="12.039999962" y="-2.770781279" class="f0">份</text>
        </g>
       </g>
      </g>
      <defs>
       <clipPath id="CLIP4">
        <path d="M73.62121582,0.25 L163.424255371,0.25 L163.424255371,14.288000107 L73.62121582,14.288000107 Z " />
       </clipPath>
      </defs>
      <g clip-path="url(#CLIP4)">
       <g>
        <g transform="matrix(1,0,0,1,73.37121582,13.568799973)">
         <text x="1" y="-2.770781279" class="f1">2</text>
         <text x="6.595468521" y="-2.770781279" class="f1">0</text>
         <text x="12.190937042" y="-2.770781279" class="f1">2</text>
         <text x="17.786405563" y="-2.770781279" class="f1">1</text>
         <text x="23.381874084" y="-2.770781279" class="f0">年</text>
         <text x="34.421875" y="-2.770781279" class="f0">固</text>
         <text x="45.461875916" y="-2.770781279" class="f0">定</text>
         <text x="56.501876831" y="-2.770781279" class="f0">资</text>
         <text x="67.541877747" y="-2.770781279" class="f0">产</text>
         <text x="78.581878662" y="-2.770781279" class="f1"> </text>
         <text x="81.077735901" y="-2.770781279" class="f0">投</text>
         <text x="92.117736816" y="-2.770781279" class="f0">资</text>
         <text x="103.157737732" y="-2.770781279" class="f0">增</text>
         <text x="114.197738647" y="-2.770781279" class="f0">速</text>
        </g>
       </g>
      </g>
      <defs>
       <clipPath id="CLIP5">
        <path d="M163.924255371,0.25 L265.015167236,0.25 L265.015167236,14.288000107 L163.924255371,14.288000107 Z " />
       </clipPath>
      </defs>
      <g clip-path="url(#CLIP5)">
       <g>
        <g transform="matrix(1,0,0,1,163.674255371,13.568799973)">
         <text x="1" y="-2.770781279" class="f1">2</text>
         <text x="6.595468521" y="-2.770781279" class="f1">0</text>
         <text x="12.190937042" y="-2.770781279" class="f1">2</text>
         <text x="17.786405563" y="-2.770781279" class="f1">2</text>
         <text x="23.381874084" y="-2.770781279" class="f0">年</text>
         <text x="34.421875" y="-2.770781279" class="f0">园</text>
         <text x="45.461875916" y="-2.770781279" class="f0">定</text>
         <text x="56.501876831" y="-2.770781279" class="f0">贵</text>
         <text x="67.541877747" y="-2.770781279" class="f0">产</text>
         <text x="78.581878662" y="-2.770781279" class="f1"> </text>
         <text x="81.077735901" y="-2.770781279" class="f0">投</text>
         <text x="92.117736816" y="-2.770781279" class="f0">资</text>
         <text x="103.157737732" y="-2.770781279" class="f0">增</text>
         <text x="114.197738647" y="-2.770781279" class="f0">速</text>
         <text x="125.237739563" y="-2.770781279" class="f0">目</text>
         <text x="136.277740479" y="-2.770781279" class="f0">标</text>
        </g>
       </g>
      </g>
      <defs>
       <clipPath id="CLIP6">
        <path d="M0.25,14.788000107 L73.12121582,14.788000107 L73.12121582,28.826000214 L0.25,28.826000214 Z " />
       </clipPath>
      </defs>
      <g clip-path="url(#CLIP6)">
       <g>
        <g transform="matrix(1,0,0,1,1.075036168,28.106800079)">
         <text x="1" y="-2.770781279" class="f0">安</text>
         <text x="12.039999962" y="-2.770781279" class="f0">徽</text>
        </g>
       </g>
      </g>
      <defs>
       <clipPath id="CLIP7">
        <path d="M73.62121582,14.788000107 L163.424255371,14.788000107 L163.424255371,28.826000214 L73.62121582,28.826000214 Z " />
       </clipPath>
      </defs>
      <g clip-path="url(#CLIP7)">
       <g>
        <g transform="matrix(1,0,0,1,74.446250916,28.106800079)">
         <text x="1" y="-2.75999999" class="f1">9.40%</text>
        </g>
       </g>
      </g>
      <defs>
       <clipPath id="CLIP8">
        <path d="M163.924255371,14.788000107 L265.015167236,14.788000107 L265.015167236,28.826000214 L163.924255371,28.826000214 Z " />
       </clipPath>
      </defs>
      <g clip-path="url(#CLIP8)">
       <g>
        <g transform="matrix(1,0,0,1,164.749298096,28.106800079)">
         <text x="1" y="-2.770781279" class="f1">1</text>
         <text x="6.595468521" y="-2.770781279" class="f1">0</text>
         <text x="12.190937042" y="-2.770781279" class="f1">%</text>
         <text x="20.082811356" y="-2.770781279" class="f0">以</text>
         <text x="31.122810364" y="-2.770781279" class="f0">上</text>
        </g>
       </g>
      </g>
      <defs>
       <clipPath id="CLIP9">
        <path d="M0.25,29.326000214 L73.12121582,29.326000214 L73.12121582,43.363998413 L0.25,43.363998413 Z " />
       </clipPath>
      </defs>
      <g clip-path="url(#CLIP9)">
       <g>
        <g transform="matrix(1,0,0,1,1.075036168,42.644798279)">
         <text x="1" y="-2.770781279" class="f0">辽</text>
         <text x="12.039999962" y="-2.770781279" class="f0">宁</text>
        </g>
       </g>
      </g>
      <defs>
       <clipPath id="CLIP10">
        <path d="M73.62121582,29.326000214 L163.424255371,29.326000214 L163.424255371,43.363998413 L73.62121582,43.363998413 Z " />
       </clipPath>
      </defs>
      <g clip-path="url(#CLIP10)">
       <g>
        <g transform="matrix(1,0,0,1,74.446250916,42.644798279)">
         <text x="1" y="-2.75999999" class="f1">2.60%</text>
        </g>
       </g>
      </g>
      <defs>
       <clipPath id="CLIP11">
        <path d="M163.924255371,29.326000214 L265.015167236,29.326000214 L265.015167236,43.363998413 L163.924255371,43.363998413 Z " />
       </clipPath>
      </defs>
      <g clip-path="url(#CLIP11)">
       <g>
        <g transform="matrix(1,0,0,1,164.749298096,42.644798279)">
         <text x="1" y="-2.770781279" class="f1">1</text>
         <text x="6.595468521" y="-2.770781279" class="f1">0</text>
         <text x="12.190937042" y="-2.770781279" class="f1">%</text>
         <text x="20.082811356" y="-2.770781279" class="f0">左</text>
         <text x="31.122810364" y="-2.770781279" class="f0">右</text>
        </g>
       </g>
      </g>
      <defs>
       <clipPath id="CLIP12">
        <path d="M0.25,43.863998413 L73.12121582,43.863998413 L73.12121582,57.902000427 L0.25,57.902000427 Z " />
       </clipPath>
      </defs>
      <g clip-path="url(#CLIP12)">
       <g>
        <g transform="matrix(1,0,0,1,1.075036168,57.182800293)">
         <text x="1" y="-2.770781279" class="f0">甘</text>
         <text x="12.039999962" y="-2.770781279" class="f0">肃</text>
        </g>
       </g>
      </g>
      <defs>
       <clipPath id="CLIP13">
        <path d="M73.62121582,43.863998413 L163.424255371,43.863998413 L163.424255371,57.902000427 L73.62121582,57.902000427 Z " />
       </clipPath>
      </defs>
      <g clip-path="url(#CLIP13)">
       <g>
        <g transform="matrix(1,0,0,1,74.446250916,57.182800293)">
         <text x="1" y="-2.75999999" class="f1">11.10%</text>
        </g>
       </g>
      </g>
      <defs>
       <clipPath id="CLIP14">
        <path d="M163.924255371,43.863998413 L265.015167236,43.863998413 L265.015167236,57.902000427 L163.924255371,57.902000427 Z " />
       </clipPath>
      </defs>
      <g clip-path="url(#CLIP14)">
       <g>
        <g transform="matrix(1,0,0,1,164.749298096,57.182800293)">
         <text x="1" y="-2.75999999" class="f1">9%</text>
        </g>
       </g>
      </g>
      <defs>
       <clipPath id="CLIP15">
        <path d="M0.25,58.402000427 L73.12121582,58.402000427 L73.12121582,72.440002441 L0.25,72.440002441 Z " />
       </clipPath>
      </defs>
      <g clip-path="url(#CLIP15)">
       <g>
        <g transform="matrix(1,0,0,1,1.075036168,71.720802307)">
         <text x="1" y="-2.770781279" class="f0">湖</text>
         <text x="12.039999962" y="-2.770781279" class="f0">南</text>
        </g>
       </g>
      </g>
      <defs>
       <clipPath id="CLIP16">
        <path d="M73.62121582,58.402000427 L163.424255371,58.402000427 L163.424255371,72.440002441 L73.62121582,72.440002441 Z " />
       </clipPath>
      </defs>
      <g clip-path="url(#CLIP16)">
       <g>
        <g transform="matrix(1,0,0,1,74.446250916,71.720802307)">
         <text x="1" y="-2.75999999" class="f1">8%</text>
        </g>
       </g>
      </g>
      <defs>
       <clipPath id="CLIP17">
        <path d="M163.924255371,58.402000427 L265.015167236,58.402000427 L265.015167236,72.440002441 L163.924255371,72.440002441 Z " />
       </clipPath>
      </defs>
      <g clip-path="url(#CLIP17)">
       <g>
        <g transform="matrix(1,0,0,1,164.749298096,71.720802307)">
         <text x="1" y="-2.75999999" class="f1">7.50%</text>
        </g>
       </g>
      </g>
      <defs>
       <clipPath id="CLIP18">
        <path d="M0.25,72.940002441 L73.12121582,72.940002441 L73.12121582,86.978004456 L0.25,86.978004456 Z " />
       </clipPath>
      </defs>
      <g clip-path="url(#CLIP18)">
       <g>
        <g transform="matrix(1,0,0,1,1.075036168,86.258804321)">
         <text x="1" y="-2.770781279" class="f0">重</text>
         <text x="12.039999962" y="-2.770781279" class="f0">庆</text>
        </g>
       </g>
      </g>
      <defs>
       <clipPath id="CLIP19">
        <path d="M73.62121582,72.940002441 L163.424255371,72.940002441 L163.424255371,86.978004456 L73.62121582,86.978004456 Z " />
       </clipPath>
      </defs>
      <g clip-path="url(#CLIP19)">
       <g>
        <g transform="matrix(1,0,0,1,74.446250916,86.258804321)">
         <text x="1" y="-2.75999999" class="f1">6.10%</text>
        </g>
       </g>
      </g>
      <defs>
       <clipPath id="CLIP20">
        <path d="M163.924255371,72.940002441 L265.015167236,72.940002441 L265.015167236,86.978004456 L163.924255371,86.978004456 Z " />
       </clipPath>
      </defs>
      <g clip-path="url(#CLIP20)">
       <g>
        <g transform="matrix(1,0,0,1,164.749298096,86.258804321)">
         <text x="1" y="-2.75999999" class="f1">6%</text>
        </g>
       </g>
      </g>
      <defs>
       <clipPath id="CLIP21">
        <path d="M0.25,87.477996826 L73.12121582,87.477996826 L73.12121582,101.51599884 L0.25,101.51599884 Z " />
       </clipPath>
      </defs>
      <g clip-path="url(#CLIP21)">
       <g>
        <g transform="matrix(1,0,0,1,1.075036168,100.796798706)">
         <text x="1" y="-2.770781279" class="f0">江</text>
         <text x="12.039999962" y="-2.770781279" class="f0">西</text>
        </g>
       </g>
      </g>
      <defs>
       <clipPath id="CLIP22">
        <path d="M73.62121582,87.477996826 L163.424255371,87.477996826 L163.424255371,101.51599884 L73.62121582,101.51599884 Z " />
       </clipPath>
      </defs>
      <g clip-path="url(#CLIP22)">
       <g>
        <g transform="matrix(1,0,0,1,74.446250916,100.796798706)">
         <text x="1" y="-2.75999999" class="f1">10.80%</text>
        </g>
       </g>
      </g>
      <defs>
       <clipPath id="CLIP23">
        <path d="M163.924255371,87.477996826 L265.015167236,87.477996826 L265.015167236,101.51599884 L163.924255371,101.51599884 Z " />
       </clipPath>
      </defs>
      <g clip-path="url(#CLIP23)">
       <g>
        <g transform="matrix(1,0,0,1,164.749298096,100.796798706)">
         <text x="1" y="-2.770781279" class="f1">8</text>
         <text x="6.595468521" y="-2.770781279" class="f1">%</text>
         <text x="14.487342834" y="-2.770781279" class="f0">以</text>
         <text x="25.52734375" y="-2.770781279" class="f0">上</text>
        </g>
       </g>
      </g>
      <defs>
       <clipPath id="CLIP24">
        <path d="M0.25,102.01599884 L73.12121582,102.01599884 L73.12121582,116.054000854 L0.25,116.054000854 Z " />
       </clipPath>
      </defs>
      <g clip-path="url(#CLIP24)">
       <g>
        <g transform="matrix(1,0,0,1,1.075036168,115.33480072)">
         <text x="1" y="-2.770781279" class="f0">广</text>
         <text x="12.039999962" y="-2.770781279" class="f0">西</text>
        </g>
       </g>
      </g>
      <defs>
       <clipPath id="CLIP25">
        <path d="M73.62121582,102.01599884 L163.424255371,102.01599884 L163.424255371,116.054000854 L73.62121582,116.054000854 Z " />
       </clipPath>
      </defs>
      <g clip-path="url(#CLIP25)">
       <g>
        <g transform="matrix(1,0,0,1,74.446250916,115.33480072)">
         <text x="1" y="-2.75999999" class="f1">7.60%</text>
        </g>
       </g>
      </g>
      <defs>
       <clipPath id="CLIP26">
        <path d="M163.924255371,102.01599884 L265.015167236,102.01599884 L265.015167236,116.054000854 L163.924255371,116.054000854 Z " />
       </clipPath>
      </defs>
      <g clip-path="url(#CLIP26)">
       <g>
        <g transform="matrix(1,0,0,1,164.749298096,115.33480072)">
         <text x="1" y="-2.770781279" class="f1">1</text>
         <text x="6.595468521" y="-2.770781279" class="f1">0</text>
         <text x="12.190937042" y="-2.770781279" class="f1">%</text>
         <text x="20.082811356" y="-2.770781279" class="f1"> </text>
         <text x="22.578670502" y="-2.770781279" class="f0">游</text>
         <text x="33.618671417" y="-2.770781279" class="f0">创</text>
         <text x="44.658672333" y="-2.770781279" class="f0">建</text>
         <text x="55.698673248" y="-2.770781279" class="f0">。</text>
        </g>
       </g>
      </g>
      <defs>
       <clipPath id="CLIP27">
        <path d="M0.25,116.554000854 L73.12121582,116.554000854 L73.12121582,130.591995239 L0.25,130.591995239 Z " />
       </clipPath>
      </defs>
      <g clip-path="url(#CLIP27)">
       <g>
        <g transform="matrix(1,0,0,1,1.075036168,129.872787476)">
         <text x="1" y="-2.770781279" class="f0">广</text>
         <text x="12.039999962" y="-2.770781279" class="f0">东</text>
        </g>
       </g>
      </g>
      <defs>
       <clipPath id="CLIP28">
        <path d="M73.62121582,116.554000854 L163.424255371,116.554000854 L163.424255371,130.591995239 L73.62121582,130.591995239 Z " />
       </clipPath>
      </defs>
      <g clip-path="url(#CLIP28)">
       <g>
        <g transform="matrix(1,0,0,1,74.446250916,129.872787476)">
         <text x="1" y="-2.75999999" class="f1">6.30%</text>
        </g>
       </g>
      </g>
      <defs>
       <clipPath id="CLIP29">
        <path d="M163.924255371,116.554000854 L265.015167236,116.554000854 L265.015167236,130.591995239 L163.924255371,130.591995239 Z " />
       </clipPath>
      </defs>
      <g clip-path="url(#CLIP29)">
       <g>
        <g transform="matrix(1,0,0,1,164.749298096,129.872787476)">
         <text x="1" y="-2.75999999" class="f1">8%</text>
        </g>
       </g>
      </g>
      <defs>
       <clipPath id="CLIP30">
        <path d="M0.25,131.091995239 L73.12121582,131.091995239 L73.12121582,145.129989624 L0.25,145.129989624 Z " />
       </clipPath>
      </defs>
      <g clip-path="url(#CLIP30)">
       <g>
        <g transform="matrix(1,0,0,1,1.075036168,144.410797119)">
         <text x="1" y="-2.770781279" class="f0">新</text>
         <text x="12.039999962" y="-2.770781279" class="f0">验</text>
        </g>
       </g>
      </g>
      <defs>
       <clipPath id="CLIP31">
        <path d="M73.62121582,131.091995239 L163.424255371,131.091995239 L163.424255371,145.129989624 L73.62121582,145.129989624 Z " />
       </clipPath>
      </defs>
      <g clip-path="url(#CLIP31)">
       <g>
        <g transform="matrix(1,0,0,1,74.446250916,144.410797119)">
         <text x="1" y="-2.75999999" class="f1">15%</text>
        </g>
       </g>
      </g>
      <defs>
       <clipPath id="CLIP32">
        <path d="M163.924255371,131.091995239 L265.015167236,131.091995239 L265.015167236,145.129989624 L163.924255371,145.129989624 Z " />
       </clipPath>
      </defs>
      <g clip-path="url(#CLIP32)">
       <g>
        <g transform="matrix(1,0,0,1,163.674255371,144.410797119)">
         <text x="1" y="-2.770781279" class="f1">1</text>
         <text x="6.595468521" y="-2.770781279" class="f1">0</text>
         <text x="12.190937042" y="-2.770781279" class="f1">%</text>
         <text x="20.082811356" y="-2.770781279" class="f0">左</text>
         <text x="31.122810364" y="-2.770781279" class="f0">右</text>
         <text x="42.162811279" y="-2.770781279" class="f1"> </text>
         <text x="44.658672333" y="-2.770781279" class="f0">群</text>
         <text x="55.698673248" y="-2.770781279" class="f0">和</text>
         <text x="66.738670349" y="-2.770781279" class="f0">区</text>
         <text x="77.778671265" y="-2.770781279" class="f0">域</text>
         <text x="88.81867218" y="-2.770781279" class="f0">中</text>
         <text x="99.858673096" y="-2.770781279" class="f0">心</text>
         <text x="110.898674011" y="-2.770781279" class="f0">城</text>
         <text x="121.938674927" y="-2.770781279" class="f0">市</text>
        </g>
       </g>
      </g>
     </g>
    </g>
    <defs>
     <clipPath id="CLIP33">
      <path d="M-0.5,-0.5 L266.5,-0.5 L266.5,146.5 L-0.5,146.5 Z " />
     </clipPath>
    </defs>
    <g clip-path="url(#CLIP33)">
     <g />
    </g>
   </g>
   <g />
   <g />
   <g />
   <g>
    <g>
     <g />
     <g shape-rendering="crispEdges" />
    </g>
    <g>
     <g />
    </g>
    <g>
     <g />
    </g>
   </g>
   <g>
    <text x="10" y="10" class="f2">Evaluation Only. Created with Aspose.Cells for Python via Java.Copyright 2003 - 2023 Aspose Pty Ltd.</text>
   </g>
  </g>
 </g>
 <defs />
 <defs>
  <style type="text/css">
   <![CDATA[
   
.f0
{
font-family:Microsoft YaHei Light;
font-size:11.039999962px;
fill:#000000;
}

.f1
{
font-family:Calibri;
font-size:11.039999962px;
fill:#000000;
}

.f2
{
font-family:Arial;
font-size:10px;
fill:#FF0000;
}

   
.p0
{
stroke:#101010;
stroke-width:0.969200015px;
stroke-linecap:butt;
stroke-linejoin:miter;
}

   ]]></style>
 </defs>
</svg>
