<?xml version="1.0" encoding="UTF-8" standalone="yes"?>
<svg xmlns="http://www.w3.org/2000/svg" xmlns:xlink="http://www.w3.org/1999/xlink" width="612pt" height="792pt">
 <g id="SFixTitle" />
 <g id="SContent">
  <g transform="scale(1.33333)">
   <rect width="100%" height="100%" fill="white" />
   <g>
    <g>
     <g />
     <g shape-rendering="crispEdges" />
    </g>
    <g>
     <g />
    </g>
    <g>
     <g />
    </g>
   </g>
   <g transform="matrix(1,0,0,1,54,72)">
    <defs>
     <clipPath id="CLIP0">
      <path d="M-0.5,-0.5 L367.5,-0.5 L367.5,160.5 L-0.5,160.5 Z " />
     </clipPath>
    </defs>
    <g clip-path="url(#CLIP0)">
     <g />
     <g shape-rendering="crispEdges" />
    </g>
    <defs>
     <clipPath id="CLIP1">
      <path d="M-0.5,-1.453799963 L367.5,-1.453799963 L367.5,161.546203613 L-0.5,161.546203613 Z " />
     </clipPath>
    </defs>
    <g clip-path="url(#CLIP1)">
     <g>
      <g />
      <path d="M 0,0 L 73.37121582,0" class="p0" fill="none" />
      <path d="M 0,116.304000854 L 73.37121582,116.304000854" class="p0" fill="none" />
      <path d="M 0,0 L 0,14.538000107" class="p0" fill="none" />
      <path d="M 0,116.304000854 L 0,130.841995239" class="p0" fill="none" />
      <path d="M 73.37121582,0 L 146.742431641,0" class="p0" fill="none" />
      <path d="M 73.37121582,116.304000854 L 146.742431641,116.304000854" class="p0" fill="none" />
      <path d="M 73.371002197,0 L 73.371002197,14.538000107" class="p0" fill="none" />
      <path d="M 73.371002197,116.304000854 L 73.371002197,130.841995239" class="p0" fill="none" />
      <path d="M 146.742431641,0 L 220.113647461,0" class="p0" fill="none" />
      <path d="M 146.742431641,116.304000854 L 220.113647461,116.304000854" class="p0" fill="none" />
      <path d="M 146.742004395,0 L 146.742004395,14.538000107" class="p0" fill="none" />
      <path d="M 146.742004395,116.304000854 L 146.742004395,130.841995239" class="p0" fill="none" />
      <path d="M 220.11366272,0 L 293.484863281,0" class="p0" fill="none" />
      <path d="M 220.11366272,116.304000854 L 293.484863281,116.304000854" class="p0" fill="none" />
      <path d="M 220.113998413,0 L 220.113998413,14.538000107" class="p0" fill="none" />
      <path d="M 220.113998413,116.304000854 L 220.113998413,130.841995239" class="p0" fill="none" />
      <path d="M 293.484863281,0 L 366.856079102,0" class="p0" fill="none" />
      <path d="M 293.484863281,116.304000854 L 366.856079102,116.304000854" class="p0" fill="none" />
      <path d="M 293.484985352,0 L 293.484985352,14.538000107" class="p0" fill="none" />
      <path d="M 293.484985352,116.304000854 L 293.484985352,130.841995239" class="p0" fill="none" />
      <path d="M 366.855987549,0 L 366.855987549,14.538000107" class="p0" fill="none" />
      <path d="M 366.855987549,116.304000854 L 366.855987549,130.841995239" class="p0" fill="none" />
      <path d="M 0,14.538000107 L 73.37121582,14.538000107" class="p0" fill="none" />
      <path d="M 0,130.841995239 L 73.37121582,130.841995239" class="p0" fill="none" />
      <path d="M 0,14.538000107 L 0,29.076000214" class="p0" fill="none" />
      <path d="M 0,130.841995239 L 0,145.379989624" class="p0" fill="none" />
      <path d="M 73.37121582,14.538000107 L 146.742431641,14.538000107" class="p0" fill="none" />
      <path d="M 73.37121582,130.841995239 L 146.742431641,130.841995239" class="p0" fill="none" />
      <path d="M 73.371002197,14.538000107 L 73.371002197,29.076000214" class="p0" fill="none" />
      <path d="M 73.371002197,130.841995239 L 73.371002197,145.379989624" class="p0" fill="none" />
      <path d="M 146.742431641,14.538000107 L 220.113647461,14.538000107" class="p0" fill="none" />
      <path d="M 146.742431641,130.841995239 L 220.113647461,130.841995239" class="p0" fill="none" />
      <path d="M 146.742004395,14.538000107 L 146.742004395,29.076000214" class="p0" fill="none" />
      <path d="M 146.742004395,130.841995239 L 146.742004395,145.379989624" class="p0" fill="none" />
      <path d="M 220.11366272,14.538000107 L 293.484863281,14.538000107" class="p0" fill="none" />
      <path d="M 220.11366272,130.841995239 L 293.484863281,130.841995239" class="p0" fill="none" />
      <path d="M 220.113998413,14.538000107 L 220.113998413,29.076000214" class="p0" fill="none" />
      <path d="M 220.113998413,130.841995239 L 220.113998413,145.379989624" class="p0" fill="none" />
      <path d="M 293.484863281,14.538000107 L 366.856079102,14.538000107" class="p0" fill="none" />
      <path d="M 293.484863281,130.841995239 L 366.856079102,130.841995239" class="p0" fill="none" />
      <path d="M 293.484985352,14.538000107 L 293.484985352,29.076000214" class="p0" fill="none" />
      <path d="M 293.484985352,130.841995239 L 293.484985352,145.379989624" class="p0" fill="none" />
      <path d="M 366.855987549,14.538000107 L 366.855987549,29.076000214" class="p0" fill="none" />
      <path d="M 366.855987549,130.841995239 L 366.855987549,145.379989624" class="p0" fill="none" />
      <path d="M 0,29.076000214 L 73.37121582,29.076000214" class="p0" fill="none" />
      <path d="M 0,145.380004883 L 73.37121582,145.380004883" class="p0" fill="none" />
      <path d="M 0,29.076000214 L 0,43.613998413" class="p0" fill="none" />
      <path d="M 0,145.380004883 L 0,159.917999268" class="p0" fill="none" />
      <path d="M 73.37121582,29.076000214 L 146.742431641,29.076000214" class="p0" fill="none" />
      <path d="M 73.37121582,145.380004883 L 146.742431641,145.380004883" class="p0" fill="none" />
      <path d="M 73.371002197,29.076000214 L 73.371002197,43.613998413" class="p0" fill="none" />
      <path d="M 73.371002197,145.380004883 L 73.371002197,159.917999268" class="p0" fill="none" />
      <path d="M 146.742431641,29.076000214 L 220.113647461,29.076000214" class="p0" fill="none" />
      <path d="M 146.742431641,145.380004883 L 220.113647461,145.380004883" class="p0" fill="none" />
      <path d="M 146.742004395,29.076000214 L 146.742004395,43.613998413" class="p0" fill="none" />
      <path d="M 146.742004395,145.380004883 L 146.742004395,159.917999268" class="p0" fill="none" />
      <path d="M 220.11366272,29.076000214 L 293.484863281,29.076000214" class="p0" fill="none" />
      <path d="M 220.11366272,145.380004883 L 293.484863281,145.380004883" class="p0" fill="none" />
      <path d="M 220.113998413,29.076000214 L 220.113998413,43.613998413" class="p0" fill="none" />
      <path d="M 220.113998413,145.380004883 L 220.113998413,159.917999268" class="p0" fill="none" />
      <path d="M 293.484863281,29.076000214 L 366.856079102,29.076000214" class="p0" fill="none" />
      <path d="M 293.484863281,145.380004883 L 366.856079102,145.380004883" class="p0" fill="none" />
      <path d="M 293.484985352,29.076000214 L 293.484985352,43.613998413" class="p0" fill="none" />
      <path d="M 293.484985352,145.380004883 L 293.484985352,159.917999268" class="p0" fill="none" />
      <path d="M 366.855987549,29.076000214 L 366.855987549,43.613998413" class="p0" fill="none" />
      <path d="M 366.855987549,145.380004883 L 366.855987549,159.917999268" class="p0" fill="none" />
      <path d="M 0,43.613998413 L 73.37121582,43.613998413" class="p0" fill="none" />
      <path d="M 0,159.917999268 L 73.37121582,159.917999268" class="p0" fill="none" />
      <path d="M 0,43.613998413 L 0,58.152000427" class="p0" fill="none" />
      <path d="M 73.37121582,43.613998413 L 146.742431641,43.613998413" class="p0" fill="none" />
      <path d="M 73.37121582,159.917999268 L 146.742431641,159.917999268" class="p0" fill="none" />
      <path d="M 73.371002197,43.613998413 L 73.371002197,58.152000427" class="p0" fill="none" />
      <path d="M 146.742431641,43.613998413 L 220.113647461,43.613998413" class="p0" fill="none" />
      <path d="M 146.742431641,159.917999268 L 220.113647461,159.917999268" class="p0" fill="none" />
      <path d="M 146.742004395,43.613998413 L 146.742004395,58.152000427" class="p0" fill="none" />
      <path d="M 220.11366272,43.613998413 L 293.484863281,43.613998413" class="p0" fill="none" />
      <path d="M 220.11366272,159.917999268 L 293.484863281,159.917999268" class="p0" fill="none" />
      <path d="M 220.113998413,43.613998413 L 220.113998413,58.152000427" class="p0" fill="none" />
      <path d="M 293.484863281,43.613998413 L 366.856079102,43.613998413" class="p0" fill="none" />
      <path d="M 293.484863281,159.917999268 L 366.856079102,159.917999268" class="p0" fill="none" />
      <path d="M 293.484985352,43.613998413 L 293.484985352,58.152000427" class="p0" fill="none" />
      <path d="M 366.855987549,43.613998413 L 366.855987549,58.152000427" class="p0" fill="none" />
      <path d="M 0,58.152000427 L 73.37121582,58.152000427" class="p0" fill="none" />
      <path d="M 0,58.152000427 L 0,72.690002441" class="p0" fill="none" />
      <path d="M 73.37121582,58.152000427 L 146.742431641,58.152000427" class="p0" fill="none" />
      <path d="M 73.371002197,58.152000427 L 73.371002197,72.690002441" class="p0" fill="none" />
      <path d="M 146.742431641,58.152000427 L 220.113647461,58.152000427" class="p0" fill="none" />
      <path d="M 146.742004395,58.152000427 L 146.742004395,72.690002441" class="p0" fill="none" />
      <path d="M 220.11366272,58.152000427 L 293.484863281,58.152000427" class="p0" fill="none" />
      <path d="M 220.113998413,58.152000427 L 220.113998413,72.690002441" class="p0" fill="none" />
      <path d="M 293.484863281,58.152000427 L 366.856079102,58.152000427" class="p0" fill="none" />
      <path d="M 293.484985352,58.152000427 L 293.484985352,72.690002441" class="p0" fill="none" />
      <path d="M 366.855987549,58.152000427 L 366.855987549,72.690002441" class="p0" fill="none" />
      <path d="M 0,72.690002441 L 73.37121582,72.690002441" class="p0" fill="none" />
      <path d="M 0,72.690002441 L 0,87.228004456" class="p0" fill="none" />
      <path d="M 73.37121582,72.690002441 L 146.742431641,72.690002441" class="p0" fill="none" />
      <path d="M 73.371002197,72.690002441 L 73.371002197,87.228004456" class="p0" fill="none" />
      <path d="M 146.742431641,72.690002441 L 220.113647461,72.690002441" class="p0" fill="none" />
      <path d="M 146.742004395,72.690002441 L 146.742004395,87.228004456" class="p0" fill="none" />
      <path d="M 220.11366272,72.690002441 L 293.484863281,72.690002441" class="p0" fill="none" />
      <path d="M 220.113998413,72.690002441 L 220.113998413,87.228004456" class="p0" fill="none" />
      <path d="M 293.484863281,72.690002441 L 366.856079102,72.690002441" class="p0" fill="none" />
      <path d="M 293.484985352,72.690002441 L 293.484985352,87.228004456" class="p0" fill="none" />
      <path d="M 366.855987549,72.690002441 L 366.855987549,87.228004456" class="p0" fill="none" />
      <path d="M 0,87.227996826 L 73.37121582,87.227996826" class="p0" fill="none" />
      <path d="M 0,87.227996826 L 0,101.76599884" class="p0" fill="none" />
      <path d="M 73.37121582,87.227996826 L 146.742431641,87.227996826" class="p0" fill="none" />
      <path d="M 73.371002197,87.227996826 L 73.371002197,101.76599884" class="p0" fill="none" />
      <path d="M 146.742431641,87.227996826 L 220.113647461,87.227996826" class="p0" fill="none" />
      <path d="M 146.742004395,87.227996826 L 146.742004395,101.76599884" class="p0" fill="none" />
      <path d="M 220.11366272,87.227996826 L 293.484863281,87.227996826" class="p0" fill="none" />
      <path d="M 220.113998413,87.227996826 L 220.113998413,101.76599884" class="p0" fill="none" />
      <path d="M 293.484863281,87.227996826 L 366.856079102,87.227996826" class="p0" fill="none" />
      <path d="M 293.484985352,87.227996826 L 293.484985352,101.76599884" class="p0" fill="none" />
      <path d="M 366.855987549,87.227996826 L 366.855987549,101.76599884" class="p0" fill="none" />
      <path d="M 0,101.76599884 L 73.37121582,101.76599884" class="p0" fill="none" />
      <path d="M 0,101.76599884 L 0,116.304000854" class="p0" fill="none" />
      <path d="M 73.37121582,101.76599884 L 146.742431641,101.76599884" class="p0" fill="none" />
      <path d="M 73.371002197,101.76599884 L 73.371002197,116.304000854" class="p0" fill="none" />
      <path d="M 146.742431641,101.76599884 L 220.113647461,101.76599884" class="p0" fill="none" />
      <path d="M 146.742004395,101.76599884 L 146.742004395,116.304000854" class="p0" fill="none" />
      <path d="M 220.11366272,101.76599884 L 293.484863281,101.76599884" class="p0" fill="none" />
      <path d="M 220.113998413,101.76599884 L 220.113998413,116.304000854" class="p0" fill="none" />
      <path d="M 293.484863281,101.76599884 L 366.856079102,101.76599884" class="p0" fill="none" />
      <path d="M 293.484985352,101.76599884 L 293.484985352,116.304000854" class="p0" fill="none" />
      <path d="M 366.855987549,101.76599884 L 366.855987549,116.304000854" class="p0" fill="none" />
     </g>
    </g>
    <defs>
     <clipPath id="CLIP2">
      <path d="M-0.5,-0.5 L367.5,-0.5 L367.5,160.5 L-0.5,160.5 Z " />
     </clipPath>
    </defs>
    <g clip-path="url(#CLIP2)">
     <g>
      <defs>
       <clipPath id="CLIP3">
        <path d="M0.25,0.25 L73.12121582,0.25 L73.12121582,14.288000107 L0.25,14.288000107 Z " />
       </clipPath>
      </defs>
      <g clip-path="url(#CLIP3)">
       <g>
        <g transform="matrix(1,0,0,1,1.075036168,13.568799973)">
         <text x="1" y="-2.770781279" class="f0">项</text>
         <text x="12.039999962" y="-2.770781279" class="f0">目</text>
         <text x="23.079999924" y="-2.770781279" class="f0">名</text>
         <text x="34.119998932" y="-2.770781279" class="f0">称</text>
        </g>
       </g>
      </g>
      <defs>
       <clipPath id="CLIP4">
        <path d="M73.62121582,0.25 L146.492431641,0.25 L146.492431641,14.288000107 L73.62121582,14.288000107 Z " />
       </clipPath>
      </defs>
      <g clip-path="url(#CLIP4)">
       <g>
        <g transform="matrix(1,0,0,1,74.446250916,13.568799973)">
         <text x="1" y="-2.770781279" class="f0">结</text>
         <text x="12.039999962" y="-2.770781279" class="f0">果</text>
        </g>
       </g>
      </g>
      <defs>
       <clipPath id="CLIP5">
        <path d="M146.992431641,0.25 L219.863647461,0.25 L219.863647461,14.288000107 L146.992431641,14.288000107 Z " />
       </clipPath>
      </defs>
      <g clip-path="url(#CLIP5)">
       <g>
        <g transform="matrix(1,0,0,1,147.817474365,13.568799973)">
         <text x="1" y="-2.770781279" class="f0">单</text>
         <text x="12.039999962" y="-2.770781279" class="f0">位</text>
        </g>
       </g>
      </g>
      <defs>
       <clipPath id="CLIP6">
        <path d="M220.36366272,0.25 L293.234863281,0.25 L293.234863281,14.288000107 L220.36366272,14.288000107 Z " />
       </clipPath>
      </defs>
      <g clip-path="url(#CLIP6)">
       <g>
        <g transform="matrix(1,0,0,1,221.188705444,13.568799973)">
         <text x="1" y="-2.770781279" class="f0">参</text>
         <text x="12.039999962" y="-2.770781279" class="f0">考</text>
         <text x="23.079999924" y="-2.770781279" class="f0">范</text>
         <text x="34.119998932" y="-2.770781279" class="f0">围</text>
        </g>
       </g>
      </g>
      <defs>
       <clipPath id="CLIP7">
        <path d="M293.734863281,0.25 L366.606079102,0.25 L366.606079102,14.288000107 L293.734863281,14.288000107 Z " />
       </clipPath>
      </defs>
      <g clip-path="url(#CLIP7)">
       <g>
        <g transform="matrix(1,0,0,1,294.559906006,13.568799973)">
         <text x="1" y="-2.770781279" class="f0">项</text>
         <text x="12.039999962" y="-2.770781279" class="f0">目</text>
         <text x="23.079999924" y="-2.770781279" class="f0">名</text>
         <text x="34.119998932" y="-2.770781279" class="f0">称</text>
        </g>
       </g>
      </g>
      <defs>
       <clipPath id="CLIP8">
        <path d="M0.25,14.788000107 L73.12121582,14.788000107 L73.12121582,28.826000214 L0.25,28.826000214 Z " />
       </clipPath>
      </defs>
      <g clip-path="url(#CLIP8)">
       <g>
        <g transform="matrix(1,0,0,1,1.075036168,28.106800079)">
         <text x="1" y="-2.770781279" class="f0">总</text>
         <text x="12.039999962" y="-2.770781279" class="f0">蛋</text>
         <text x="23.079999924" y="-2.770781279" class="f0">白</text>
        </g>
       </g>
      </g>
      <defs>
       <clipPath id="CLIP9">
        <path d="M73.62121582,14.788000107 L146.492431641,14.788000107 L146.492431641,28.826000214 L73.62121582,28.826000214 Z " />
       </clipPath>
      </defs>
      <g clip-path="url(#CLIP9)">
       <g>
        <g transform="matrix(1,0,0,1,74.446250916,28.106800079)">
         <text x="1" y="-2.75999999" class="f1">72</text>
        </g>
       </g>
      </g>
      <defs>
       <clipPath id="CLIP10">
        <path d="M146.992431641,14.788000107 L219.863647461,14.788000107 L219.863647461,28.826000214 L146.992431641,28.826000214 Z " />
       </clipPath>
      </defs>
      <g clip-path="url(#CLIP10)">
       <g>
        <g transform="matrix(1,0,0,1,147.817474365,28.106800079)">
         <text x="1" y="-2.75999999" class="f1">g/L</text>
        </g>
       </g>
      </g>
      <defs>
       <clipPath id="CLIP11">
        <path d="M220.36366272,14.788000107 L293.234863281,14.788000107 L293.234863281,28.826000214 L220.36366272,28.826000214 Z " />
       </clipPath>
      </defs>
      <g clip-path="url(#CLIP11)">
       <g>
        <g transform="matrix(1,0,0,1,221.188705444,28.106800079)">
         <text x="1" y="-2.75999999" class="f1">62-82</text>
        </g>
       </g>
      </g>
      <defs>
       <clipPath id="CLIP12">
        <path d="M0.25,29.326000214 L73.12121582,29.326000214 L73.12121582,43.363998413 L0.25,43.363998413 Z " />
       </clipPath>
      </defs>
      <g clip-path="url(#CLIP12)">
       <g>
        <g transform="matrix(1,0,0,1,1.075036168,42.644798279)">
         <text x="1" y="-2.770781279" class="f0">白</text>
         <text x="12.039999962" y="-2.770781279" class="f0">蛋</text>
         <text x="23.079999924" y="-2.770781279" class="f0">白</text>
        </g>
       </g>
      </g>
      <defs>
       <clipPath id="CLIP13">
        <path d="M73.62121582,29.326000214 L146.492431641,29.326000214 L146.492431641,43.363998413 L73.62121582,43.363998413 Z " />
       </clipPath>
      </defs>
      <g clip-path="url(#CLIP13)">
       <g>
        <g transform="matrix(1,0,0,1,74.446250916,42.644798279)">
         <text x="1" y="-2.75999999" class="f1">42</text>
        </g>
       </g>
      </g>
      <defs>
       <clipPath id="CLIP14">
        <path d="M146.992431641,29.326000214 L219.863647461,29.326000214 L219.863647461,43.363998413 L146.992431641,43.363998413 Z " />
       </clipPath>
      </defs>
      <g clip-path="url(#CLIP14)">
       <g>
        <g transform="matrix(1,0,0,1,147.817474365,42.644798279)">
         <text x="1" y="-2.75999999" class="f1">g/L</text>
        </g>
       </g>
      </g>
      <defs>
       <clipPath id="CLIP15">
        <path d="M220.36366272,29.326000214 L293.234863281,29.326000214 L293.234863281,43.363998413 L220.36366272,43.363998413 Z " />
       </clipPath>
      </defs>
      <g clip-path="url(#CLIP15)">
       <g>
        <g transform="matrix(1,0,0,1,221.188705444,42.644798279)">
         <text x="1" y="-2.75999999" class="f1">35-55</text>
        </g>
       </g>
      </g>
      <defs>
       <clipPath id="CLIP16">
        <path d="M0.25,43.863998413 L73.12121582,43.863998413 L73.12121582,57.902000427 L0.25,57.902000427 Z " />
       </clipPath>
      </defs>
      <g clip-path="url(#CLIP16)">
       <g>
        <g transform="matrix(1,0,0,1,1.075036168,57.182800293)">
         <text x="1" y="-2.770781279" class="f0">谷</text>
         <text x="12.039999962" y="-2.770781279" class="f0">丙</text>
         <text x="23.079999924" y="-2.770781279" class="f0">转</text>
         <text x="34.119998932" y="-2.770781279" class="f0">氨</text>
         <text x="45.159999847" y="-2.770781279" class="f0">酶</text>
        </g>
       </g>
      </g>
      <defs>
       <clipPath id="CLIP17">
        <path d="M73.62121582,43.863998413 L146.492431641,43.863998413 L146.492431641,57.902000427 L73.62121582,57.902000427 Z " />
       </clipPath>
      </defs>
      <g clip-path="url(#CLIP17)">
       <g>
        <g transform="matrix(1,0,0,1,74.446250916,57.182800293)">
         <text x="1" y="-2.75999999" class="f1">116</text>
        </g>
       </g>
      </g>
      <defs>
       <clipPath id="CLIP18">
        <path d="M146.992431641,43.863998413 L219.863647461,43.863998413 L219.863647461,57.902000427 L146.992431641,57.902000427 Z " />
       </clipPath>
      </defs>
      <g clip-path="url(#CLIP18)">
       <g>
        <g transform="matrix(1,0,0,1,147.817474365,57.182800293)">
         <text x="1" y="-2.75999999" class="f1">U/L</text>
        </g>
       </g>
      </g>
      <defs>
       <clipPath id="CLIP19">
        <path d="M220.36366272,43.863998413 L293.234863281,43.863998413 L293.234863281,57.902000427 L220.36366272,57.902000427 Z " />
       </clipPath>
      </defs>
      <g clip-path="url(#CLIP19)">
       <g>
        <g transform="matrix(1,0,0,1,221.188705444,57.182800293)">
         <text x="1" y="-2.75999999" class="f1">0-40</text>
        </g>
       </g>
      </g>
      <defs>
       <clipPath id="CLIP20">
        <path d="M0.25,58.402000427 L73.12121582,58.402000427 L73.12121582,72.440002441 L0.25,72.440002441 Z " />
       </clipPath>
      </defs>
      <g clip-path="url(#CLIP20)">
       <g>
        <g transform="matrix(1,0,0,1,1.075036168,71.720802307)">
         <text x="1" y="-2.770781279" class="f0">谷</text>
         <text x="12.039999962" y="-2.770781279" class="f0">草</text>
         <text x="23.079999924" y="-2.770781279" class="f0">转</text>
         <text x="34.119998932" y="-2.770781279" class="f0">氨</text>
         <text x="45.159999847" y="-2.770781279" class="f0">酶</text>
        </g>
       </g>
      </g>
      <defs>
       <clipPath id="CLIP21">
        <path d="M73.62121582,58.402000427 L146.492431641,58.402000427 L146.492431641,72.440002441 L73.62121582,72.440002441 Z " />
       </clipPath>
      </defs>
      <g clip-path="url(#CLIP21)">
       <g>
        <g transform="matrix(1,0,0,1,74.446250916,71.720802307)">
         <text x="1" y="-2.75999999" class="f1">45</text>
        </g>
       </g>
      </g>
      <defs>
       <clipPath id="CLIP22">
        <path d="M146.992431641,58.402000427 L219.863647461,58.402000427 L219.863647461,72.440002441 L146.992431641,72.440002441 Z " />
       </clipPath>
      </defs>
      <g clip-path="url(#CLIP22)">
       <g>
        <g transform="matrix(1,0,0,1,147.817474365,71.720802307)">
         <text x="1" y="-2.75999999" class="f1">U/L</text>
        </g>
       </g>
      </g>
      <defs>
       <clipPath id="CLIP23">
        <path d="M220.36366272,58.402000427 L293.234863281,58.402000427 L293.234863281,72.440002441 L220.36366272,72.440002441 Z " />
       </clipPath>
      </defs>
      <g clip-path="url(#CLIP23)">
       <g>
        <g transform="matrix(1,0,0,1,221.188705444,71.720802307)">
         <text x="1" y="-2.75999999" class="f1">0-40</text>
        </g>
       </g>
      </g>
      <defs>
       <clipPath id="CLIP24">
        <path d="M0.25,72.940002441 L73.12121582,72.940002441 L73.12121582,86.978004456 L0.25,86.978004456 Z " />
       </clipPath>
      </defs>
      <g clip-path="url(#CLIP24)">
       <g>
        <g transform="matrix(1,0,0,1,0,86.258804321)">
         <text x="1" y="-2.770781279" class="f1">r</text>
         <text x="4.848906517" y="-2.770781279" class="f1">-</text>
         <text x="8.22882843" y="-2.770781279" class="f0">谷</text>
         <text x="19.268829346" y="-2.770781279" class="f0">氨</text>
         <text x="30.308830261" y="-2.770781279" class="f0">酰</text>
         <text x="41.348831177" y="-2.770781279" class="f0">转</text>
         <text x="52.388832092" y="-2.770781279" class="f0">移</text>
         <text x="63.428833008" y="-2.770781279" class="f0">酶</text>
        </g>
       </g>
      </g>
      <defs>
       <clipPath id="CLIP25">
        <path d="M73.62121582,72.940002441 L146.492431641,72.940002441 L146.492431641,86.978004456 L73.62121582,86.978004456 Z " />
       </clipPath>
      </defs>
      <g clip-path="url(#CLIP25)">
       <g>
        <g transform="matrix(1,0,0,1,74.446250916,86.258804321)">
         <text x="1" y="-2.75999999" class="f1">78</text>
        </g>
       </g>
      </g>
      <defs>
       <clipPath id="CLIP26">
        <path d="M146.992431641,72.940002441 L219.863647461,72.940002441 L219.863647461,86.978004456 L146.992431641,86.978004456 Z " />
       </clipPath>
      </defs>
      <g clip-path="url(#CLIP26)">
       <g>
        <g transform="matrix(1,0,0,1,147.817474365,86.258804321)">
         <text x="1" y="-2.75999999" class="f1">U/L</text>
        </g>
       </g>
      </g>
      <defs>
       <clipPath id="CLIP27">
        <path d="M220.36366272,72.940002441 L293.234863281,72.940002441 L293.234863281,86.978004456 L220.36366272,86.978004456 Z " />
       </clipPath>
      </defs>
      <g clip-path="url(#CLIP27)">
       <g>
        <g transform="matrix(1,0,0,1,221.188705444,86.258804321)">
         <text x="1" y="-2.75999999" class="f1">8-40</text>
        </g>
       </g>
      </g>
      <defs>
       <clipPath id="CLIP28">
        <path d="M0.25,87.477996826 L73.12121582,87.477996826 L73.12121582,101.51599884 L0.25,101.51599884 Z " />
       </clipPath>
      </defs>
      <g clip-path="url(#CLIP28)">
       <g>
        <g transform="matrix(1,0,0,1,1.075036168,100.796798706)">
         <text x="1" y="-2.770781279" class="f0">总</text>
         <text x="12.039999962" y="-2.770781279" class="f0">胆</text>
         <text x="23.079999924" y="-2.770781279" class="f0">红</text>
         <text x="34.119998932" y="-2.770781279" class="f0">素</text>
        </g>
       </g>
      </g>
      <defs>
       <clipPath id="CLIP29">
        <path d="M73.62121582,87.477996826 L146.492431641,87.477996826 L146.492431641,101.51599884 L73.62121582,101.51599884 Z " />
       </clipPath>
      </defs>
      <g clip-path="url(#CLIP29)">
       <g>
        <g transform="matrix(1,0,0,1,74.446250916,100.796798706)">
         <text x="1" y="-2.75999999" class="f1">18.0</text>
        </g>
       </g>
      </g>
      <defs>
       <clipPath id="CLIP30">
        <path d="M146.992431641,87.477996826 L219.863647461,87.477996826 L219.863647461,101.51599884 L146.992431641,101.51599884 Z " />
       </clipPath>
      </defs>
      <g clip-path="url(#CLIP30)">
       <g>
        <g transform="matrix(1,0,0,1,147.817474365,100.796798706)">
         <text x="1" y="-2.75999999" class="f1">umo1/L</text>
        </g>
       </g>
      </g>
      <defs>
       <clipPath id="CLIP31">
        <path d="M220.36366272,87.477996826 L293.234863281,87.477996826 L293.234863281,101.51599884 L220.36366272,101.51599884 Z " />
       </clipPath>
      </defs>
      <g clip-path="url(#CLIP31)">
       <g>
        <g transform="matrix(1,0,0,1,221.188705444,100.796798706)">
         <text x="1" y="-2.75999999" class="f1">0-17</text>
        </g>
       </g>
      </g>
      <defs>
       <clipPath id="CLIP32">
        <path d="M0.25,102.01599884 L73.12121582,102.01599884 L73.12121582,116.054000854 L0.25,116.054000854 Z " />
       </clipPath>
      </defs>
      <g clip-path="url(#CLIP32)">
       <g>
        <g transform="matrix(1,0,0,1,1.075036168,115.33480072)">
         <text x="1" y="-2.770781279" class="f0">直</text>
         <text x="12.039999962" y="-2.770781279" class="f0">接</text>
         <text x="23.079999924" y="-2.770781279" class="f0">胆</text>
         <text x="34.119998932" y="-2.770781279" class="f0">红</text>
         <text x="45.159999847" y="-2.770781279" class="f0">素</text>
        </g>
       </g>
      </g>
      <defs>
       <clipPath id="CLIP33">
        <path d="M73.62121582,102.01599884 L146.492431641,102.01599884 L146.492431641,116.054000854 L73.62121582,116.054000854 Z " />
       </clipPath>
      </defs>
      <g clip-path="url(#CLIP33)">
       <g>
        <g transform="matrix(1,0,0,1,74.446250916,115.33480072)">
         <text x="1" y="-2.75999999" class="f1">4.1</text>
        </g>
       </g>
      </g>
      <defs>
       <clipPath id="CLIP34">
        <path d="M146.992431641,102.01599884 L219.863647461,102.01599884 L219.863647461,116.054000854 L146.992431641,116.054000854 Z " />
       </clipPath>
      </defs>
      <g clip-path="url(#CLIP34)">
       <g>
        <g transform="matrix(1,0,0,1,147.817474365,115.33480072)">
         <text x="1" y="-2.75999999" class="f1">umo1/L</text>
        </g>
       </g>
      </g>
      <defs>
       <clipPath id="CLIP35">
        <path d="M220.36366272,102.01599884 L293.234863281,102.01599884 L293.234863281,116.054000854 L220.36366272,116.054000854 Z " />
       </clipPath>
      </defs>
      <g clip-path="url(#CLIP35)">
       <g>
        <g transform="matrix(1,0,0,1,221.188705444,115.33480072)">
         <text x="1" y="-2.75999999" class="f1">0-6</text>
        </g>
       </g>
      </g>
      <defs>
       <clipPath id="CLIP36">
        <path d="M0.25,116.554000854 L73.12121582,116.554000854 L73.12121582,130.591995239 L0.25,130.591995239 Z " />
       </clipPath>
      </defs>
      <g clip-path="url(#CLIP36)">
       <g>
        <g transform="matrix(1,0,0,1,1.075036168,129.872787476)">
         <text x="1" y="-2.770781279" class="f0">碱</text>
         <text x="12.039999962" y="-2.770781279" class="f0">性</text>
         <text x="23.079999924" y="-2.770781279" class="f0">磷</text>
         <text x="34.119998932" y="-2.770781279" class="f0">酸</text>
         <text x="45.159999847" y="-2.770781279" class="f0">酶</text>
        </g>
       </g>
      </g>
      <defs>
       <clipPath id="CLIP37">
        <path d="M73.62121582,116.554000854 L146.492431641,116.554000854 L146.492431641,130.591995239 L73.62121582,130.591995239 Z " />
       </clipPath>
      </defs>
      <g clip-path="url(#CLIP37)">
       <g>
        <g transform="matrix(1,0,0,1,74.446250916,129.872787476)">
         <text x="1" y="-2.75999999" class="f1">84</text>
        </g>
       </g>
      </g>
      <defs>
       <clipPath id="CLIP38">
        <path d="M146.992431641,116.554000854 L219.863647461,116.554000854 L219.863647461,130.591995239 L146.992431641,130.591995239 Z " />
       </clipPath>
      </defs>
      <g clip-path="url(#CLIP38)">
       <g>
        <g transform="matrix(1,0,0,1,147.817474365,129.872787476)">
         <text x="1" y="-2.75999999" class="f1">U/L</text>
        </g>
       </g>
      </g>
      <defs>
       <clipPath id="CLIP39">
        <path d="M220.36366272,116.554000854 L293.234863281,116.554000854 L293.234863281,130.591995239 L220.36366272,130.591995239 Z " />
       </clipPath>
      </defs>
      <g clip-path="url(#CLIP39)">
       <g>
        <g transform="matrix(1,0,0,1,221.188705444,129.872787476)">
         <text x="1" y="-2.75999999" class="f1">42-140</text>
        </g>
       </g>
      </g>
      <defs>
       <clipPath id="CLIP40">
        <path d="M0.25,145.630004883 L73.12121582,145.630004883 L73.12121582,159.667999268 L0.25,159.667999268 Z " />
       </clipPath>
      </defs>
      <g clip-path="url(#CLIP40)">
       <g>
        <g transform="matrix(1,0,0,1,1.075036168,158.948806763)">
         <text x="1" y="-2.770781279" class="f0">乳</text>
         <text x="12.039999962" y="-2.770781279" class="f0">酸</text>
         <text x="23.079999924" y="-2.770781279" class="f0">脱</text>
         <text x="34.119998932" y="-2.770781279" class="f0">氢</text>
         <text x="45.159999847" y="-2.770781279" class="f0">酶</text>
        </g>
       </g>
      </g>
      <defs>
       <clipPath id="CLIP41">
        <path d="M73.62121582,145.630004883 L146.492431641,145.630004883 L146.492431641,159.667999268 L73.62121582,159.667999268 Z " />
       </clipPath>
      </defs>
      <g clip-path="url(#CLIP41)">
       <g>
        <g transform="matrix(1,0,0,1,74.446250916,158.948806763)">
         <text x="1" y="-2.75999999" class="f1">134</text>
        </g>
       </g>
      </g>
      <defs>
       <clipPath id="CLIP42">
        <path d="M146.992431641,145.630004883 L219.863647461,145.630004883 L219.863647461,159.667999268 L146.992431641,159.667999268 Z " />
       </clipPath>
      </defs>
      <g clip-path="url(#CLIP42)">
       <g>
        <g transform="matrix(1,0,0,1,147.817474365,158.948806763)">
         <text x="1" y="-2.75999999" class="f1">U/L</text>
        </g>
       </g>
      </g>
      <defs>
       <clipPath id="CLIP43">
        <path d="M220.36366272,145.630004883 L293.234863281,145.630004883 L293.234863281,159.667999268 L220.36366272,159.667999268 Z " />
       </clipPath>
      </defs>
      <g clip-path="url(#CLIP43)">
       <g>
        <g transform="matrix(1,0,0,1,221.188705444,158.948806763)">
         <text x="1" y="-2.75999999" class="f1">115-220</text>
        </g>
       </g>
      </g>
     </g>
    </g>
    <defs>
     <clipPath id="CLIP44">
      <path d="M-0.5,-0.5 L367.5,-0.5 L367.5,160.5 L-0.5,160.5 Z " />
     </clipPath>
    </defs>
    <g clip-path="url(#CLIP44)">
     <g />
    </g>
   </g>
   <g />
   <g />
   <g />
   <g>
    <g>
     <g />
     <g shape-rendering="crispEdges" />
    </g>
    <g>
     <g />
    </g>
    <g>
     <g />
    </g>
   </g>
   <g>
    <text x="10" y="10" class="f2">Evaluation Only. Created with Aspose.Cells for Python via Java.Copyright 2003 - 2023 Aspose Pty Ltd.</text>
   </g>
  </g>
 </g>
 <defs />
 <defs>
  <style type="text/css">
   <![CDATA[
   
.f0
{
font-family:Microsoft YaHei Light;
font-size:11.039999962px;
fill:#000000;
}

.f1
{
font-family:Calibri;
font-size:11.039999962px;
fill:#000000;
}

.f2
{
font-family:Arial;
font-size:10px;
fill:#FF0000;
}

   
.p0
{
stroke:#101010;
stroke-width:0.969200015px;
stroke-linecap:butt;
stroke-linejoin:miter;
}

   ]]></style>
 </defs>
</svg>
