<?xml version="1.0" encoding="UTF-8" standalone="yes"?>
<svg xmlns="http://www.w3.org/2000/svg" xmlns:xlink="http://www.w3.org/1999/xlink" width="612pt" height="792pt">
 <g id="SFixTitle" />
 <g id="SContent">
  <g transform="scale(1.33333)">
   <rect width="100%" height="100%" fill="white" />
   <g>
    <g>
     <g />
     <g shape-rendering="crispEdges" />
    </g>
    <g>
     <g />
    </g>
    <g>
     <g />
    </g>
   </g>
   <g transform="matrix(1,0,0,1,54,72)">
    <defs>
     <clipPath id="CLIP0">
      <path d="M-0.5,-0.5 L367.5,-0.5 L367.5,451.5 L-0.5,451.5 Z " />
     </clipPath>
    </defs>
    <g clip-path="url(#CLIP0)">
     <g />
     <g shape-rendering="crispEdges" />
    </g>
    <defs>
     <clipPath id="CLIP1">
      <path d="M-0.5,-1.453799963 L367.5,-1.453799963 L367.5,452.546203613 L-0.5,452.546203613 Z " />
     </clipPath>
    </defs>
    <g clip-path="url(#CLIP1)">
     <g>
      <g />
      <path d="M 0,0 L 73.37121582,0" class="p0" fill="none" />
      <path d="M 0,232.608001709 L 73.37121582,232.608001709" class="p0" fill="none" />
      <path d="M 0,0 L 0,14.538000107" class="p0" fill="none" />
      <path d="M 0,232.608001709 L 0,247.145996094" class="p0" fill="none" />
      <path d="M 73.37121582,0 L 146.742431641,0" class="p0" fill="none" />
      <path d="M 73.37121582,232.608001709 L 146.742431641,232.608001709" class="p0" fill="none" />
      <path d="M 73.371002197,0 L 73.371002197,14.538000107" class="p0" fill="none" />
      <path d="M 73.371002197,232.608001709 L 73.371002197,247.145996094" class="p0" fill="none" />
      <path d="M 146.742431641,0 L 220.113647461,0" class="p0" fill="none" />
      <path d="M 146.742431641,232.608001709 L 220.113647461,232.608001709" class="p0" fill="none" />
      <path d="M 146.742004395,232.608001709 L 146.742004395,247.145996094" class="p0" fill="none" />
      <path d="M 220.11366272,0 L 293.484863281,0" class="p0" fill="none" />
      <path d="M 220.11366272,232.608001709 L 293.484863281,232.608001709" class="p0" fill="none" />
      <path d="M 220.113998413,0 L 220.113998413,14.538000107" class="p0" fill="none" />
      <path d="M 220.113998413,232.608001709 L 220.113998413,247.145996094" class="p0" fill="none" />
      <path d="M 293.484863281,0 L 366.856079102,0" class="p0" fill="none" />
      <path d="M 293.484863281,232.608001709 L 366.856079102,232.608001709" class="p0" fill="none" />
      <path d="M 293.484985352,232.608001709 L 293.484985352,247.145996094" class="p0" fill="none" />
      <path d="M 366.855987549,0 L 366.855987549,14.538000107" class="p0" fill="none" />
      <path d="M 366.855987549,232.608001709 L 366.855987549,247.145996094" class="p0" fill="none" />
      <path d="M 0,14.538000107 L 73.37121582,14.538000107" class="p0" fill="none" />
      <path d="M 0,247.145996094 L 73.37121582,247.145996094" class="p0" fill="none" />
      <path d="M 0,14.538000107 L 0,29.076000214" class="p0" fill="none" />
      <path d="M 0,247.145996094 L 0,261.683990479" class="p0" fill="none" />
      <path d="M 73.37121582,14.538000107 L 146.742431641,14.538000107" class="p0" fill="none" />
      <path d="M 73.37121582,247.145996094 L 146.742431641,247.145996094" class="p0" fill="none" />
      <path d="M 73.371002197,14.538000107 L 73.371002197,29.076000214" class="p0" fill="none" />
      <path d="M 73.371002197,247.145996094 L 73.371002197,261.683990479" class="p0" fill="none" />
      <path d="M 146.742431641,14.538000107 L 220.113647461,14.538000107" class="p0" fill="none" />
      <path d="M 146.742431641,247.145996094 L 220.113647461,247.145996094" class="p0" fill="none" />
      <path d="M 146.742004395,14.538000107 L 146.742004395,29.076000214" class="p0" fill="none" />
      <path d="M 146.742004395,247.145996094 L 146.742004395,261.683990479" class="p0" fill="none" />
      <path d="M 220.11366272,14.538000107 L 293.484863281,14.538000107" class="p0" fill="none" />
      <path d="M 220.11366272,247.145996094 L 293.484863281,247.145996094" class="p0" fill="none" />
      <path d="M 220.113998413,14.538000107 L 220.113998413,29.076000214" class="p0" fill="none" />
      <path d="M 220.113998413,247.145996094 L 220.113998413,261.683990479" class="p0" fill="none" />
      <path d="M 293.484863281,14.538000107 L 366.856079102,14.538000107" class="p0" fill="none" />
      <path d="M 293.484863281,247.145996094 L 366.856079102,247.145996094" class="p0" fill="none" />
      <path d="M 293.484985352,14.538000107 L 293.484985352,29.076000214" class="p0" fill="none" />
      <path d="M 293.484985352,247.145996094 L 293.484985352,261.683990479" class="p0" fill="none" />
      <path d="M 366.855987549,14.538000107 L 366.855987549,29.076000214" class="p0" fill="none" />
      <path d="M 366.855987549,247.145996094 L 366.855987549,261.683990479" class="p0" fill="none" />
      <path d="M 0,29.076000214 L 73.37121582,29.076000214" class="p0" fill="none" />
      <path d="M 0,261.683990479 L 73.37121582,261.683990479" class="p0" fill="none" />
      <path d="M 0,29.076000214 L 0,43.613998413" class="p0" fill="none" />
      <path d="M 0,261.683990479 L 0,276.221984863" class="p0" fill="none" />
      <path d="M 73.37121582,29.076000214 L 146.742431641,29.076000214" class="p0" fill="none" />
      <path d="M 73.37121582,261.683990479 L 146.742431641,261.683990479" class="p0" fill="none" />
      <path d="M 73.371002197,29.076000214 L 73.371002197,43.613998413" class="p0" fill="none" />
      <path d="M 73.371002197,261.683990479 L 73.371002197,276.221984863" class="p0" fill="none" />
      <path d="M 146.742431641,29.076000214 L 220.113647461,29.076000214" class="p0" fill="none" />
      <path d="M 146.742431641,261.683990479 L 220.113647461,261.683990479" class="p0" fill="none" />
      <path d="M 146.742004395,29.076000214 L 146.742004395,43.613998413" class="p0" fill="none" />
      <path d="M 146.742004395,261.683990479 L 146.742004395,276.221984863" class="p0" fill="none" />
      <path d="M 220.11366272,29.076000214 L 293.484863281,29.076000214" class="p0" fill="none" />
      <path d="M 220.11366272,261.683990479 L 293.484863281,261.683990479" class="p0" fill="none" />
      <path d="M 220.113998413,29.076000214 L 220.113998413,43.613998413" class="p0" fill="none" />
      <path d="M 220.113998413,261.683990479 L 220.113998413,276.221984863" class="p0" fill="none" />
      <path d="M 293.484863281,29.076000214 L 366.856079102,29.076000214" class="p0" fill="none" />
      <path d="M 293.484863281,261.683990479 L 366.856079102,261.683990479" class="p0" fill="none" />
      <path d="M 293.484985352,29.076000214 L 293.484985352,43.613998413" class="p0" fill="none" />
      <path d="M 293.484985352,261.683990479 L 293.484985352,276.221984863" class="p0" fill="none" />
      <path d="M 366.855987549,29.076000214 L 366.855987549,43.613998413" class="p0" fill="none" />
      <path d="M 366.855987549,261.683990479 L 366.855987549,276.221984863" class="p0" fill="none" />
      <path d="M 0,43.613998413 L 73.37121582,43.613998413" class="p0" fill="none" />
      <path d="M 0,276.221984863 L 73.37121582,276.221984863" class="p0" fill="none" />
      <path d="M 0,43.613998413 L 0,58.152000427" class="p0" fill="none" />
      <path d="M 0,276.222015381 L 0,290.760009766" class="p0" fill="none" />
      <path d="M 73.37121582,43.613998413 L 146.742431641,43.613998413" class="p0" fill="none" />
      <path d="M 73.37121582,276.221984863 L 146.742431641,276.221984863" class="p0" fill="none" />
      <path d="M 73.371002197,43.613998413 L 73.371002197,58.152000427" class="p0" fill="none" />
      <path d="M 73.371002197,276.222015381 L 73.371002197,290.760009766" class="p0" fill="none" />
      <path d="M 146.742431641,43.613998413 L 220.113647461,43.613998413" class="p0" fill="none" />
      <path d="M 146.742431641,276.221984863 L 220.113647461,276.221984863" class="p0" fill="none" />
      <path d="M 146.742004395,43.613998413 L 146.742004395,58.152000427" class="p0" fill="none" />
      <path d="M 146.742004395,276.222015381 L 146.742004395,290.760009766" class="p0" fill="none" />
      <path d="M 220.11366272,43.613998413 L 293.484863281,43.613998413" class="p0" fill="none" />
      <path d="M 220.11366272,276.221984863 L 293.484863281,276.221984863" class="p0" fill="none" />
      <path d="M 220.113998413,43.613998413 L 220.113998413,58.152000427" class="p0" fill="none" />
      <path d="M 220.113998413,276.222015381 L 220.113998413,290.760009766" class="p0" fill="none" />
      <path d="M 293.484863281,43.613998413 L 366.856079102,43.613998413" class="p0" fill="none" />
      <path d="M 293.484863281,276.221984863 L 366.856079102,276.221984863" class="p0" fill="none" />
      <path d="M 293.484985352,43.613998413 L 293.484985352,58.152000427" class="p0" fill="none" />
      <path d="M 293.484985352,276.222015381 L 293.484985352,290.760009766" class="p0" fill="none" />
      <path d="M 366.855987549,43.613998413 L 366.855987549,58.152000427" class="p0" fill="none" />
      <path d="M 366.855987549,276.222015381 L 366.855987549,290.760009766" class="p0" fill="none" />
      <path d="M 0,58.152000427 L 73.37121582,58.152000427" class="p0" fill="none" />
      <path d="M 0,290.760009766 L 73.37121582,290.760009766" class="p0" fill="none" />
      <path d="M 0,58.152000427 L 0,72.690002441" class="p0" fill="none" />
      <path d="M 0,290.760009766 L 0,305.29800415" class="p0" fill="none" />
      <path d="M 73.37121582,58.152000427 L 146.742431641,58.152000427" class="p0" fill="none" />
      <path d="M 73.37121582,290.760009766 L 146.742431641,290.760009766" class="p0" fill="none" />
      <path d="M 73.371002197,58.152000427 L 73.371002197,72.690002441" class="p0" fill="none" />
      <path d="M 73.371002197,290.760009766 L 73.371002197,305.29800415" class="p0" fill="none" />
      <path d="M 146.742431641,58.152000427 L 220.113647461,58.152000427" class="p0" fill="none" />
      <path d="M 146.742431641,290.760009766 L 220.113647461,290.760009766" class="p0" fill="none" />
      <path d="M 146.742004395,58.152000427 L 146.742004395,72.690002441" class="p0" fill="none" />
      <path d="M 146.742004395,290.760009766 L 146.742004395,305.29800415" class="p0" fill="none" />
      <path d="M 220.11366272,58.152000427 L 293.484863281,58.152000427" class="p0" fill="none" />
      <path d="M 220.11366272,290.760009766 L 293.484863281,290.760009766" class="p0" fill="none" />
      <path d="M 220.113998413,58.152000427 L 220.113998413,72.690002441" class="p0" fill="none" />
      <path d="M 220.113998413,290.760009766 L 220.113998413,305.29800415" class="p0" fill="none" />
      <path d="M 293.484863281,58.152000427 L 366.856079102,58.152000427" class="p0" fill="none" />
      <path d="M 293.484863281,290.760009766 L 366.856079102,290.760009766" class="p0" fill="none" />
      <path d="M 293.484985352,58.152000427 L 293.484985352,72.690002441" class="p0" fill="none" />
      <path d="M 293.484985352,290.760009766 L 293.484985352,305.29800415" class="p0" fill="none" />
      <path d="M 366.855987549,58.152000427 L 366.855987549,72.690002441" class="p0" fill="none" />
      <path d="M 366.855987549,290.760009766 L 366.855987549,305.29800415" class="p0" fill="none" />
      <path d="M 0,72.690002441 L 73.37121582,72.690002441" class="p0" fill="none" />
      <path d="M 0,305.29800415 L 73.37121582,305.29800415" class="p0" fill="none" />
      <path d="M 0,72.690002441 L 0,87.228004456" class="p0" fill="none" />
      <path d="M 0,305.29800415 L 0,319.835998535" class="p0" fill="none" />
      <path d="M 73.37121582,72.690002441 L 146.742431641,72.690002441" class="p0" fill="none" />
      <path d="M 73.37121582,305.29800415 L 146.742431641,305.29800415" class="p0" fill="none" />
      <path d="M 73.371002197,305.29800415 L 73.371002197,319.835998535" class="p0" fill="none" />
      <path d="M 146.742431641,72.690002441 L 220.113647461,72.690002441" class="p0" fill="none" />
      <path d="M 146.742431641,305.29800415 L 220.113647461,305.29800415" class="p0" fill="none" />
      <path d="M 146.742004395,72.690002441 L 146.742004395,87.228004456" class="p0" fill="none" />
      <path d="M 146.742004395,305.29800415 L 146.742004395,319.835998535" class="p0" fill="none" />
      <path d="M 220.11366272,72.690002441 L 293.484863281,72.690002441" class="p0" fill="none" />
      <path d="M 220.11366272,305.29800415 L 293.484863281,305.29800415" class="p0" fill="none" />
      <path d="M 220.113998413,72.690002441 L 220.113998413,87.228004456" class="p0" fill="none" />
      <path d="M 220.113998413,305.29800415 L 220.113998413,319.835998535" class="p0" fill="none" />
      <path d="M 293.484863281,72.690002441 L 366.856079102,72.690002441" class="p0" fill="none" />
      <path d="M 293.484863281,305.29800415 L 366.856079102,305.29800415" class="p0" fill="none" />
      <path d="M 293.484985352,72.690002441 L 293.484985352,87.228004456" class="p0" fill="none" />
      <path d="M 293.484985352,305.29800415 L 293.484985352,319.835998535" class="p0" fill="none" />
      <path d="M 366.855987549,72.690002441 L 366.855987549,87.228004456" class="p0" fill="none" />
      <path d="M 366.855987549,305.29800415 L 366.855987549,319.835998535" class="p0" fill="none" />
      <path d="M 0,87.227996826 L 73.37121582,87.227996826" class="p0" fill="none" />
      <path d="M 0,319.835998535 L 73.37121582,319.835998535" class="p0" fill="none" />
      <path d="M 0,87.227996826 L 0,101.76599884" class="p0" fill="none" />
      <path d="M 0,319.835998535 L 0,334.37399292" class="p0" fill="none" />
      <path d="M 73.37121582,87.227996826 L 146.742431641,87.227996826" class="p0" fill="none" />
      <path d="M 73.37121582,319.835998535 L 146.742431641,319.835998535" class="p0" fill="none" />
      <path d="M 73.371002197,87.227996826 L 73.371002197,101.76599884" class="p0" fill="none" />
      <path d="M 73.371002197,319.835998535 L 73.371002197,334.37399292" class="p0" fill="none" />
      <path d="M 146.742431641,87.227996826 L 220.113647461,87.227996826" class="p0" fill="none" />
      <path d="M 146.742431641,319.835998535 L 220.113647461,319.835998535" class="p0" fill="none" />
      <path d="M 146.742004395,87.227996826 L 146.742004395,101.76599884" class="p0" fill="none" />
      <path d="M 146.742004395,319.835998535 L 146.742004395,334.37399292" class="p0" fill="none" />
      <path d="M 220.11366272,87.227996826 L 293.484863281,87.227996826" class="p0" fill="none" />
      <path d="M 220.11366272,319.835998535 L 293.484863281,319.835998535" class="p0" fill="none" />
      <path d="M 220.113998413,87.227996826 L 220.113998413,101.76599884" class="p0" fill="none" />
      <path d="M 220.113998413,319.835998535 L 220.113998413,334.37399292" class="p0" fill="none" />
      <path d="M 293.484863281,87.227996826 L 366.856079102,87.227996826" class="p0" fill="none" />
      <path d="M 293.484863281,319.835998535 L 366.856079102,319.835998535" class="p0" fill="none" />
      <path d="M 293.484985352,87.227996826 L 293.484985352,101.76599884" class="p0" fill="none" />
      <path d="M 293.484985352,319.835998535 L 293.484985352,334.37399292" class="p0" fill="none" />
      <path d="M 366.855987549,87.227996826 L 366.855987549,101.76599884" class="p0" fill="none" />
      <path d="M 366.855987549,319.835998535 L 366.855987549,334.37399292" class="p0" fill="none" />
      <path d="M 0,101.76599884 L 73.37121582,101.76599884" class="p0" fill="none" />
      <path d="M 0,334.37399292 L 73.37121582,334.37399292" class="p0" fill="none" />
      <path d="M 0,101.76599884 L 0,116.304000854" class="p0" fill="none" />
      <path d="M 0,334.37399292 L 0,348.911987305" class="p0" fill="none" />
      <path d="M 73.37121582,101.76599884 L 146.742431641,101.76599884" class="p0" fill="none" />
      <path d="M 73.37121582,334.37399292 L 146.742431641,334.37399292" class="p0" fill="none" />
      <path d="M 73.371002197,101.76599884 L 73.371002197,116.304000854" class="p0" fill="none" />
      <path d="M 73.371002197,334.37399292 L 73.371002197,348.911987305" class="p0" fill="none" />
      <path d="M 146.742431641,101.76599884 L 220.113647461,101.76599884" class="p0" fill="none" />
      <path d="M 146.742431641,334.37399292 L 220.113647461,334.37399292" class="p0" fill="none" />
      <path d="M 146.742004395,101.76599884 L 146.742004395,116.304000854" class="p0" fill="none" />
      <path d="M 146.742004395,334.37399292 L 146.742004395,348.911987305" class="p0" fill="none" />
      <path d="M 220.11366272,101.76599884 L 293.484863281,101.76599884" class="p0" fill="none" />
      <path d="M 220.11366272,334.37399292 L 293.484863281,334.37399292" class="p0" fill="none" />
      <path d="M 220.113998413,101.76599884 L 220.113998413,116.304000854" class="p0" fill="none" />
      <path d="M 220.113998413,334.37399292 L 220.113998413,348.911987305" class="p0" fill="none" />
      <path d="M 293.484863281,101.76599884 L 366.856079102,101.76599884" class="p0" fill="none" />
      <path d="M 293.484863281,334.37399292 L 366.856079102,334.37399292" class="p0" fill="none" />
      <path d="M 293.484985352,101.76599884 L 293.484985352,116.304000854" class="p0" fill="none" />
      <path d="M 293.484985352,334.37399292 L 293.484985352,348.911987305" class="p0" fill="none" />
      <path d="M 366.855987549,101.76599884 L 366.855987549,116.304000854" class="p0" fill="none" />
      <path d="M 366.855987549,334.37399292 L 366.855987549,348.911987305" class="p0" fill="none" />
      <path d="M 0,116.304000854 L 73.37121582,116.304000854" class="p0" fill="none" />
      <path d="M 0,348.911987305 L 73.37121582,348.911987305" class="p0" fill="none" />
      <path d="M 0,116.304000854 L 0,130.841995239" class="p0" fill="none" />
      <path d="M 0,348.911987305 L 0,363.449981689" class="p0" fill="none" />
      <path d="M 73.37121582,116.304000854 L 146.742431641,116.304000854" class="p0" fill="none" />
      <path d="M 73.37121582,348.911987305 L 146.742431641,348.911987305" class="p0" fill="none" />
      <path d="M 73.371002197,116.304000854 L 73.371002197,130.841995239" class="p0" fill="none" />
      <path d="M 73.371002197,348.911987305 L 73.371002197,363.449981689" class="p0" fill="none" />
      <path d="M 146.742431641,116.304000854 L 220.113647461,116.304000854" class="p0" fill="none" />
      <path d="M 146.742431641,348.911987305 L 220.113647461,348.911987305" class="p0" fill="none" />
      <path d="M 146.742004395,116.304000854 L 146.742004395,130.841995239" class="p0" fill="none" />
      <path d="M 146.742004395,348.911987305 L 146.742004395,363.449981689" class="p0" fill="none" />
      <path d="M 220.11366272,116.304000854 L 293.484863281,116.304000854" class="p0" fill="none" />
      <path d="M 220.11366272,348.911987305 L 293.484863281,348.911987305" class="p0" fill="none" />
      <path d="M 220.113998413,116.304000854 L 220.113998413,130.841995239" class="p0" fill="none" />
      <path d="M 220.113998413,348.911987305 L 220.113998413,363.449981689" class="p0" fill="none" />
      <path d="M 293.484863281,116.304000854 L 366.856079102,116.304000854" class="p0" fill="none" />
      <path d="M 293.484863281,348.911987305 L 366.856079102,348.911987305" class="p0" fill="none" />
      <path d="M 293.484985352,116.304000854 L 293.484985352,130.841995239" class="p0" fill="none" />
      <path d="M 293.484985352,348.911987305 L 293.484985352,363.449981689" class="p0" fill="none" />
      <path d="M 366.855987549,116.304000854 L 366.855987549,130.841995239" class="p0" fill="none" />
      <path d="M 366.855987549,348.911987305 L 366.855987549,363.449981689" class="p0" fill="none" />
      <path d="M 0,130.841995239 L 73.37121582,130.841995239" class="p0" fill="none" />
      <path d="M 0,363.450012207 L 73.37121582,363.450012207" class="p0" fill="none" />
      <path d="M 0,130.841995239 L 0,145.379989624" class="p0" fill="none" />
      <path d="M 0,363.450012207 L 0,377.988006592" class="p0" fill="none" />
      <path d="M 73.37121582,130.841995239 L 146.742431641,130.841995239" class="p0" fill="none" />
      <path d="M 73.37121582,363.450012207 L 146.742431641,363.450012207" class="p0" fill="none" />
      <path d="M 73.371002197,363.450012207 L 73.371002197,377.988006592" class="p0" fill="none" />
      <path d="M 146.742431641,130.841995239 L 220.113647461,130.841995239" class="p0" fill="none" />
      <path d="M 146.742431641,363.450012207 L 220.113647461,363.450012207" class="p0" fill="none" />
      <path d="M 146.742004395,130.841995239 L 146.742004395,145.379989624" class="p0" fill="none" />
      <path d="M 146.742004395,363.450012207 L 146.742004395,377.988006592" class="p0" fill="none" />
      <path d="M 220.11366272,130.841995239 L 293.484863281,130.841995239" class="p0" fill="none" />
      <path d="M 220.11366272,363.450012207 L 293.484863281,363.450012207" class="p0" fill="none" />
      <path d="M 220.113998413,130.841995239 L 220.113998413,145.379989624" class="p0" fill="none" />
      <path d="M 220.113998413,363.450012207 L 220.113998413,377.988006592" class="p0" fill="none" />
      <path d="M 293.484863281,130.841995239 L 366.856079102,130.841995239" class="p0" fill="none" />
      <path d="M 293.484863281,363.450012207 L 366.856079102,363.450012207" class="p0" fill="none" />
      <path d="M 293.484985352,130.841995239 L 293.484985352,145.379989624" class="p0" fill="none" />
      <path d="M 293.484985352,363.450012207 L 293.484985352,377.988006592" class="p0" fill="none" />
      <path d="M 366.855987549,130.841995239 L 366.855987549,145.379989624" class="p0" fill="none" />
      <path d="M 366.855987549,363.450012207 L 366.855987549,377.988006592" class="p0" fill="none" />
      <path d="M 0,145.380004883 L 73.37121582,145.380004883" class="p0" fill="none" />
      <path d="M 0,377.988006592 L 73.37121582,377.988006592" class="p0" fill="none" />
      <path d="M 0,145.380004883 L 0,159.917999268" class="p0" fill="none" />
      <path d="M 0,377.988006592 L 0,392.526000977" class="p0" fill="none" />
      <path d="M 73.37121582,145.380004883 L 146.742431641,145.380004883" class="p0" fill="none" />
      <path d="M 73.37121582,377.988006592 L 146.742431641,377.988006592" class="p0" fill="none" />
      <path d="M 73.371002197,145.380004883 L 73.371002197,159.917999268" class="p0" fill="none" />
      <path d="M 73.371002197,377.988006592 L 73.371002197,392.526000977" class="p0" fill="none" />
      <path d="M 146.742431641,145.380004883 L 220.113647461,145.380004883" class="p0" fill="none" />
      <path d="M 146.742431641,377.988006592 L 220.113647461,377.988006592" class="p0" fill="none" />
      <path d="M 146.742004395,145.380004883 L 146.742004395,159.917999268" class="p0" fill="none" />
      <path d="M 146.742004395,377.988006592 L 146.742004395,392.526000977" class="p0" fill="none" />
      <path d="M 220.11366272,145.380004883 L 293.484863281,145.380004883" class="p0" fill="none" />
      <path d="M 220.11366272,377.988006592 L 293.484863281,377.988006592" class="p0" fill="none" />
      <path d="M 220.113998413,145.380004883 L 220.113998413,159.917999268" class="p0" fill="none" />
      <path d="M 220.113998413,377.988006592 L 220.113998413,392.526000977" class="p0" fill="none" />
      <path d="M 293.484863281,145.380004883 L 366.856079102,145.380004883" class="p0" fill="none" />
      <path d="M 293.484863281,377.988006592 L 366.856079102,377.988006592" class="p0" fill="none" />
      <path d="M 293.484985352,145.380004883 L 293.484985352,159.917999268" class="p0" fill="none" />
      <path d="M 293.484985352,377.988006592 L 293.484985352,392.526000977" class="p0" fill="none" />
      <path d="M 366.855987549,145.380004883 L 366.855987549,159.917999268" class="p0" fill="none" />
      <path d="M 366.855987549,377.988006592 L 366.855987549,392.526000977" class="p0" fill="none" />
      <path d="M 0,159.917999268 L 73.37121582,159.917999268" class="p0" fill="none" />
      <path d="M 0,392.526000977 L 73.37121582,392.526000977" class="p0" fill="none" />
      <path d="M 0,159.917999268 L 0,174.455993652" class="p0" fill="none" />
      <path d="M 0,392.526000977 L 0,407.063995361" class="p0" fill="none" />
      <path d="M 73.37121582,159.917999268 L 146.742431641,159.917999268" class="p0" fill="none" />
      <path d="M 73.37121582,392.526000977 L 146.742431641,392.526000977" class="p0" fill="none" />
      <path d="M 73.371002197,159.917999268 L 73.371002197,174.455993652" class="p0" fill="none" />
      <path d="M 73.371002197,392.526000977 L 73.371002197,407.063995361" class="p0" fill="none" />
      <path d="M 146.742431641,159.917999268 L 220.113647461,159.917999268" class="p0" fill="none" />
      <path d="M 146.742431641,392.526000977 L 220.113647461,392.526000977" class="p0" fill="none" />
      <path d="M 146.742004395,159.917999268 L 146.742004395,174.455993652" class="p0" fill="none" />
      <path d="M 146.742004395,392.526000977 L 146.742004395,407.063995361" class="p0" fill="none" />
      <path d="M 220.11366272,159.917999268 L 293.484863281,159.917999268" class="p0" fill="none" />
      <path d="M 220.11366272,392.526000977 L 293.484863281,392.526000977" class="p0" fill="none" />
      <path d="M 220.113998413,159.917999268 L 220.113998413,174.455993652" class="p0" fill="none" />
      <path d="M 220.113998413,392.526000977 L 220.113998413,407.063995361" class="p0" fill="none" />
      <path d="M 293.484863281,159.917999268 L 366.856079102,159.917999268" class="p0" fill="none" />
      <path d="M 293.484863281,392.526000977 L 366.856079102,392.526000977" class="p0" fill="none" />
      <path d="M 293.484985352,159.917999268 L 293.484985352,174.455993652" class="p0" fill="none" />
      <path d="M 293.484985352,392.526000977 L 293.484985352,407.063995361" class="p0" fill="none" />
      <path d="M 366.855987549,159.917999268 L 366.855987549,174.455993652" class="p0" fill="none" />
      <path d="M 366.855987549,392.526000977 L 366.855987549,407.063995361" class="p0" fill="none" />
      <path d="M 0,174.455993652 L 73.37121582,174.455993652" class="p0" fill="none" />
      <path d="M 0,407.063995361 L 73.37121582,407.063995361" class="p0" fill="none" />
      <path d="M 0,174.455993652 L 0,188.993988037" class="p0" fill="none" />
      <path d="M 0,407.063995361 L 0,421.601989746" class="p0" fill="none" />
      <path d="M 73.37121582,174.455993652 L 146.742431641,174.455993652" class="p0" fill="none" />
      <path d="M 73.37121582,407.063995361 L 146.742431641,407.063995361" class="p0" fill="none" />
      <path d="M 73.371002197,174.455993652 L 73.371002197,188.993988037" class="p0" fill="none" />
      <path d="M 73.371002197,407.063995361 L 73.371002197,421.601989746" class="p0" fill="none" />
      <path d="M 146.742431641,174.455993652 L 220.113647461,174.455993652" class="p0" fill="none" />
      <path d="M 146.742431641,407.063995361 L 220.113647461,407.063995361" class="p0" fill="none" />
      <path d="M 146.742004395,174.455993652 L 146.742004395,188.993988037" class="p0" fill="none" />
      <path d="M 146.742004395,407.063995361 L 146.742004395,421.601989746" class="p0" fill="none" />
      <path d="M 220.11366272,174.455993652 L 293.484863281,174.455993652" class="p0" fill="none" />
      <path d="M 220.11366272,407.063995361 L 293.484863281,407.063995361" class="p0" fill="none" />
      <path d="M 220.113998413,174.455993652 L 220.113998413,188.993988037" class="p0" fill="none" />
      <path d="M 220.113998413,407.063995361 L 220.113998413,421.601989746" class="p0" fill="none" />
      <path d="M 293.484863281,174.455993652 L 366.856079102,174.455993652" class="p0" fill="none" />
      <path d="M 293.484863281,407.063995361 L 366.856079102,407.063995361" class="p0" fill="none" />
      <path d="M 293.484985352,174.455993652 L 293.484985352,188.993988037" class="p0" fill="none" />
      <path d="M 293.484985352,407.063995361 L 293.484985352,421.601989746" class="p0" fill="none" />
      <path d="M 366.855987549,174.455993652 L 366.855987549,188.993988037" class="p0" fill="none" />
      <path d="M 366.855987549,407.063995361 L 366.855987549,421.601989746" class="p0" fill="none" />
      <path d="M 0,188.994003296 L 73.37121582,188.994003296" class="p0" fill="none" />
      <path d="M 0,421.601989746 L 73.37121582,421.601989746" class="p0" fill="none" />
      <path d="M 0,188.994003296 L 0,203.531997681" class="p0" fill="none" />
      <path d="M 0,421.601989746 L 0,436.139984131" class="p0" fill="none" />
      <path d="M 73.37121582,188.994003296 L 146.742431641,188.994003296" class="p0" fill="none" />
      <path d="M 73.37121582,421.601989746 L 146.742431641,421.601989746" class="p0" fill="none" />
      <path d="M 73.371002197,188.994003296 L 73.371002197,203.531997681" class="p0" fill="none" />
      <path d="M 73.371002197,421.601989746 L 73.371002197,436.139984131" class="p0" fill="none" />
      <path d="M 146.742431641,188.994003296 L 220.113647461,188.994003296" class="p0" fill="none" />
      <path d="M 146.742431641,421.601989746 L 220.113647461,421.601989746" class="p0" fill="none" />
      <path d="M 146.742004395,188.994003296 L 146.742004395,203.531997681" class="p0" fill="none" />
      <path d="M 146.742004395,421.601989746 L 146.742004395,436.139984131" class="p0" fill="none" />
      <path d="M 220.11366272,188.994003296 L 293.484863281,188.994003296" class="p0" fill="none" />
      <path d="M 220.11366272,421.601989746 L 293.484863281,421.601989746" class="p0" fill="none" />
      <path d="M 220.113998413,188.994003296 L 220.113998413,203.531997681" class="p0" fill="none" />
      <path d="M 220.113998413,421.601989746 L 220.113998413,436.139984131" class="p0" fill="none" />
      <path d="M 293.484863281,188.994003296 L 366.856079102,188.994003296" class="p0" fill="none" />
      <path d="M 293.484863281,421.601989746 L 366.856079102,421.601989746" class="p0" fill="none" />
      <path d="M 293.484985352,188.994003296 L 293.484985352,203.531997681" class="p0" fill="none" />
      <path d="M 293.484985352,421.601989746 L 293.484985352,436.139984131" class="p0" fill="none" />
      <path d="M 366.855987549,188.994003296 L 366.855987549,203.531997681" class="p0" fill="none" />
      <path d="M 366.855987549,421.601989746 L 366.855987549,436.139984131" class="p0" fill="none" />
      <path d="M 0,203.531997681 L 73.37121582,203.531997681" class="p0" fill="none" />
      <path d="M 0,436.140014648 L 73.37121582,436.140014648" class="p0" fill="none" />
      <path d="M 0,203.531997681 L 0,218.069992065" class="p0" fill="none" />
      <path d="M 0,436.140014648 L 0,450.678009033" class="p0" fill="none" />
      <path d="M 73.37121582,203.531997681 L 146.742431641,203.531997681" class="p0" fill="none" />
      <path d="M 73.37121582,436.140014648 L 146.742431641,436.140014648" class="p0" fill="none" />
      <path d="M 73.371002197,203.531997681 L 73.371002197,218.069992065" class="p0" fill="none" />
      <path d="M 73.371002197,436.140014648 L 73.371002197,450.678009033" class="p0" fill="none" />
      <path d="M 146.742431641,203.531997681 L 220.113647461,203.531997681" class="p0" fill="none" />
      <path d="M 146.742431641,436.140014648 L 220.113647461,436.140014648" class="p0" fill="none" />
      <path d="M 146.742004395,203.531997681 L 146.742004395,218.069992065" class="p0" fill="none" />
      <path d="M 146.742004395,436.140014648 L 146.742004395,450.678009033" class="p0" fill="none" />
      <path d="M 220.11366272,203.531997681 L 293.484863281,203.531997681" class="p0" fill="none" />
      <path d="M 220.11366272,436.140014648 L 293.484863281,436.140014648" class="p0" fill="none" />
      <path d="M 220.113998413,203.531997681 L 220.113998413,218.069992065" class="p0" fill="none" />
      <path d="M 220.113998413,436.140014648 L 220.113998413,450.678009033" class="p0" fill="none" />
      <path d="M 293.484863281,203.531997681 L 366.856079102,203.531997681" class="p0" fill="none" />
      <path d="M 293.484863281,436.140014648 L 366.856079102,436.140014648" class="p0" fill="none" />
      <path d="M 293.484985352,203.531997681 L 293.484985352,218.069992065" class="p0" fill="none" />
      <path d="M 293.484985352,436.140014648 L 293.484985352,450.678009033" class="p0" fill="none" />
      <path d="M 366.855987549,203.531997681 L 366.855987549,218.069992065" class="p0" fill="none" />
      <path d="M 366.855987549,436.140014648 L 366.855987549,450.678009033" class="p0" fill="none" />
      <path d="M 0,218.070007324 L 73.37121582,218.070007324" class="p0" fill="none" />
      <path d="M 0,450.678009033 L 73.37121582,450.678009033" class="p0" fill="none" />
      <path d="M 0,218.070007324 L 0,232.608001709" class="p0" fill="none" />
      <path d="M 73.37121582,218.070007324 L 146.742431641,218.070007324" class="p0" fill="none" />
      <path d="M 73.37121582,450.678009033 L 146.742431641,450.678009033" class="p0" fill="none" />
      <path d="M 73.371002197,218.070007324 L 73.371002197,232.608001709" class="p0" fill="none" />
      <path d="M 146.742431641,218.070007324 L 220.113647461,218.070007324" class="p0" fill="none" />
      <path d="M 146.742431641,450.678009033 L 220.113647461,450.678009033" class="p0" fill="none" />
      <path d="M 146.742004395,218.070007324 L 146.742004395,232.608001709" class="p0" fill="none" />
      <path d="M 220.11366272,218.070007324 L 293.484863281,218.070007324" class="p0" fill="none" />
      <path d="M 220.11366272,450.678009033 L 293.484863281,450.678009033" class="p0" fill="none" />
      <path d="M 220.113998413,218.070007324 L 220.113998413,232.608001709" class="p0" fill="none" />
      <path d="M 293.484863281,218.070007324 L 366.856079102,218.070007324" class="p0" fill="none" />
      <path d="M 293.484863281,450.678009033 L 366.856079102,450.678009033" class="p0" fill="none" />
      <path d="M 293.484985352,218.070007324 L 293.484985352,232.608001709" class="p0" fill="none" />
      <path d="M 366.855987549,218.070007324 L 366.855987549,232.608001709" class="p0" fill="none" />
     </g>
    </g>
    <defs>
     <clipPath id="CLIP2">
      <path d="M-0.5,-0.5 L367.5,-0.5 L367.5,451.5 L-0.5,451.5 Z " />
     </clipPath>
    </defs>
    <g clip-path="url(#CLIP2)">
     <g>
      <defs>
       <clipPath id="CLIP3">
        <path d="M0.25,0.25 L73.12121582,0.25 L73.12121582,14.288000107 L0.25,14.288000107 Z " />
       </clipPath>
      </defs>
      <g clip-path="url(#CLIP3)">
       <g>
        <g transform="matrix(1,0,0,1,1.075036168,13.568799973)">
         <text x="1" y="-2.770781279" class="f0">病</text>
         <text x="12.039999962" y="-2.770781279" class="f0">名</text>
        </g>
       </g>
      </g>
      <defs>
       <clipPath id="CLIP4">
        <path d="M73.62121582,0.25 L219.863647461,0.25 L219.863647461,14.288000107 L73.62121582,14.288000107 Z " />
       </clipPath>
      </defs>
      <g clip-path="url(#CLIP4)">
       <g>
        <g transform="matrix(1,0,0,1,74.446250916,13.568799973)">
         <text x="1" y="-2.770781279" class="f0">发</text>
         <text x="12.039999962" y="-2.770781279" class="f0">病</text>
         <text x="23.079999924" y="-2.770781279" class="f0">例</text>
         <text x="34.119998932" y="-2.770781279" class="f0">数</text>
        </g>
       </g>
      </g>
      <defs>
       <clipPath id="CLIP5">
        <path d="M220.36366272,0.25 L366.606079102,0.25 L366.606079102,14.288000107 L220.36366272,14.288000107 Z " />
       </clipPath>
      </defs>
      <g clip-path="url(#CLIP5)">
       <g>
        <g transform="matrix(1,0,0,1,221.188705444,13.568799973)">
         <text x="1" y="-2.770781279" class="f0">死</text>
         <text x="12.039999962" y="-2.770781279" class="f0">亡</text>
         <text x="23.079999924" y="-2.770781279" class="f0">人</text>
         <text x="34.119998932" y="-2.770781279" class="f0">数</text>
        </g>
       </g>
      </g>
      <defs>
       <clipPath id="CLIP6">
        <path d="M73.62121582,14.788000107 L146.492431641,14.788000107 L146.492431641,28.826000214 L73.62121582,28.826000214 Z " />
       </clipPath>
      </defs>
      <g clip-path="url(#CLIP6)">
       <g>
        <g transform="matrix(1,0,0,1,74.446250916,28.106800079)">
         <text x="1" y="-2.75999999" class="f1">2017</text>
        </g>
       </g>
      </g>
      <defs>
       <clipPath id="CLIP7">
        <path d="M146.992431641,14.788000107 L219.863647461,14.788000107 L219.863647461,28.826000214 L146.992431641,28.826000214 Z " />
       </clipPath>
      </defs>
      <g clip-path="url(#CLIP7)">
       <g>
        <g transform="matrix(1,0,0,1,147.817474365,28.106800079)">
         <text x="1" y="-2.75999999" class="f1">2018</text>
        </g>
       </g>
      </g>
      <defs>
       <clipPath id="CLIP8">
        <path d="M220.36366272,14.788000107 L293.234863281,14.788000107 L293.234863281,28.826000214 L220.36366272,28.826000214 Z " />
       </clipPath>
      </defs>
      <g clip-path="url(#CLIP8)">
       <g>
        <g transform="matrix(1,0,0,1,221.188705444,28.106800079)">
         <text x="1" y="-2.75999999" class="f1">2017</text>
        </g>
       </g>
      </g>
      <defs>
       <clipPath id="CLIP9">
        <path d="M293.734863281,14.788000107 L366.606079102,14.788000107 L366.606079102,28.826000214 L293.734863281,28.826000214 Z " />
       </clipPath>
      </defs>
      <g clip-path="url(#CLIP9)">
       <g>
        <g transform="matrix(1,0,0,1,294.559906006,28.106800079)">
         <text x="1" y="-2.75999999" class="f1">2018</text>
        </g>
       </g>
      </g>
      <defs>
       <clipPath id="CLIP10">
        <path d="M0.25,29.326000214 L73.12121582,29.326000214 L73.12121582,43.363998413 L0.25,43.363998413 Z " />
       </clipPath>
      </defs>
      <g clip-path="url(#CLIP10)">
       <g>
        <g transform="matrix(1,0,0,1,1.075036168,42.644798279)">
         <text x="1" y="-2.770781279" class="f0">总</text>
         <text x="12.039999962" y="-2.770781279" class="f0">计</text>
        </g>
       </g>
      </g>
      <defs>
       <clipPath id="CLIP11">
        <path d="M73.62121582,29.326000214 L146.492431641,29.326000214 L146.492431641,43.363998413 L73.62121582,43.363998413 Z " />
       </clipPath>
      </defs>
      <g clip-path="url(#CLIP11)">
       <g>
        <g transform="matrix(1,0,0,1,74.446250916,42.644798279)">
         <text x="1" y="-2.75999999" class="f1">3064073</text>
        </g>
       </g>
      </g>
      <defs>
       <clipPath id="CLIP12">
        <path d="M146.992431641,29.326000214 L219.863647461,29.326000214 L219.863647461,43.363998413 L146.992431641,43.363998413 Z " />
       </clipPath>
      </defs>
      <g clip-path="url(#CLIP12)">
       <g>
        <g transform="matrix(1,0,0,1,147.817474365,42.644798279)">
         <text x="1" y="-2.75999999" class="f1">3063049</text>
        </g>
       </g>
      </g>
      <defs>
       <clipPath id="CLIP13">
        <path d="M220.36366272,29.326000214 L293.234863281,29.326000214 L293.234863281,43.363998413 L220.36366272,43.363998413 Z " />
       </clipPath>
      </defs>
      <g clip-path="url(#CLIP13)">
       <g>
        <g transform="matrix(1,0,0,1,221.188705444,42.644798279)">
         <text x="1" y="-2.75999999" class="f1">19642</text>
        </g>
       </g>
      </g>
      <defs>
       <clipPath id="CLIP14">
        <path d="M293.734863281,29.326000214 L366.606079102,29.326000214 L366.606079102,43.363998413 L293.734863281,43.363998413 Z " />
       </clipPath>
      </defs>
      <g clip-path="url(#CLIP14)">
       <g>
        <g transform="matrix(1,0,0,1,294.559906006,42.644798279)">
         <text x="1" y="-2.75999999" class="f1">23174</text>
        </g>
       </g>
      </g>
      <defs>
       <clipPath id="CLIP15">
        <path d="M0.25,43.863998413 L73.12121582,43.863998413 L73.12121582,57.902000427 L0.25,57.902000427 Z " />
       </clipPath>
      </defs>
      <g clip-path="url(#CLIP15)">
       <g>
        <g transform="matrix(1,0,0,1,1.075036168,57.182800293)">
         <text x="1" y="-2.770781279" class="f0">鼠</text>
         <text x="12.039999962" y="-2.770781279" class="f0">疫</text>
        </g>
       </g>
      </g>
      <defs>
       <clipPath id="CLIP16">
        <path d="M73.62121582,43.863998413 L146.492431641,43.863998413 L146.492431641,57.902000427 L73.62121582,57.902000427 Z " />
       </clipPath>
      </defs>
      <g clip-path="url(#CLIP16)">
       <g>
        <g transform="matrix(1,0,0,1,74.446250916,57.182800293)">
         <text x="1" y="-2.75999999" class="f1">1</text>
        </g>
       </g>
      </g>
      <defs>
       <clipPath id="CLIP17">
        <path d="M220.36366272,43.863998413 L293.234863281,43.863998413 L293.234863281,57.902000427 L220.36366272,57.902000427 Z " />
       </clipPath>
      </defs>
      <g clip-path="url(#CLIP17)">
       <g>
        <g transform="matrix(1,0,0,1,221.188705444,57.182800293)">
         <text x="1" y="-2.75999999" class="f1">1</text>
        </g>
       </g>
      </g>
      <defs>
       <clipPath id="CLIP18">
        <path d="M0.25,58.402000427 L73.12121582,58.402000427 L73.12121582,72.440002441 L0.25,72.440002441 Z " />
       </clipPath>
      </defs>
      <g clip-path="url(#CLIP18)">
       <g>
        <g transform="matrix(1,0,0,1,1.075036168,71.720802307)">
         <text x="1" y="-2.770781279" class="f0">霍</text>
         <text x="12.039999962" y="-2.770781279" class="f0">乱</text>
        </g>
       </g>
      </g>
      <defs>
       <clipPath id="CLIP19">
        <path d="M73.62121582,58.402000427 L146.492431641,58.402000427 L146.492431641,72.440002441 L73.62121582,72.440002441 Z " />
       </clipPath>
      </defs>
      <g clip-path="url(#CLIP19)">
       <g>
        <g transform="matrix(1,0,0,1,74.446250916,71.720802307)">
         <text x="1" y="-2.75999999" class="f1">4</text>
        </g>
       </g>
      </g>
      <defs>
       <clipPath id="CLIP20">
        <path d="M146.992431641,58.402000427 L219.863647461,58.402000427 L219.863647461,72.440002441 L146.992431641,72.440002441 Z " />
       </clipPath>
      </defs>
      <g clip-path="url(#CLIP20)">
       <g>
        <g transform="matrix(1,0,0,1,147.817474365,71.720802307)">
         <text x="1" y="-2.75999999" class="f1">28</text>
        </g>
       </g>
      </g>
      <defs>
       <clipPath id="CLIP21">
        <path d="M0.25,72.940002441 L146.492431641,72.940002441 L146.492431641,86.978004456 L0.25,86.978004456 Z " />
       </clipPath>
      </defs>
      <g clip-path="url(#CLIP21)">
       <g>
        <g transform="matrix(1,0,0,1,1.075036168,86.258804321)">
         <text x="1" y="-2.770781279" class="f0">传</text>
         <text x="12.039999962" y="-2.770781279" class="f0">染</text>
         <text x="23.079999924" y="-2.770781279" class="f0">性</text>
         <text x="34.119998932" y="-2.770781279" class="f0">非</text>
         <text x="45.159999847" y="-2.770781279" class="f0">典</text>
         <text x="56.200000763" y="-2.770781279" class="f0">型</text>
         <text x="67.239997864" y="-2.770781279" class="f0">肺</text>
         <text x="78.279998779" y="-2.770781279" class="f0">炎</text>
        </g>
       </g>
      </g>
      <defs>
       <clipPath id="CLIP22">
        <path d="M0.25,87.477996826 L73.12121582,87.477996826 L73.12121582,101.51599884 L0.25,101.51599884 Z " />
       </clipPath>
      </defs>
      <g clip-path="url(#CLIP22)">
       <g>
        <g transform="matrix(1,0,0,1,1.075036168,100.796798706)">
         <text x="1" y="-2.770781279" class="f0">艾</text>
         <text x="12.039999962" y="-2.770781279" class="f0">滋</text>
         <text x="23.079999924" y="-2.770781279" class="f0">病</text>
        </g>
       </g>
      </g>
      <defs>
       <clipPath id="CLIP23">
        <path d="M73.62121582,87.477996826 L146.492431641,87.477996826 L146.492431641,101.51599884 L73.62121582,101.51599884 Z " />
       </clipPath>
      </defs>
      <g clip-path="url(#CLIP23)">
       <g>
        <g transform="matrix(1,0,0,1,74.446250916,100.796798706)">
         <text x="1" y="-2.75999999" class="f1">57194</text>
        </g>
       </g>
      </g>
      <defs>
       <clipPath id="CLIP24">
        <path d="M146.992431641,87.477996826 L219.863647461,87.477996826 L219.863647461,101.51599884 L146.992431641,101.51599884 Z " />
       </clipPath>
      </defs>
      <g clip-path="url(#CLIP24)">
       <g>
        <g transform="matrix(1,0,0,1,147.817474365,100.796798706)">
         <text x="1" y="-2.75999999" class="f1">64170</text>
        </g>
       </g>
      </g>
      <defs>
       <clipPath id="CLIP25">
        <path d="M220.36366272,87.477996826 L293.234863281,87.477996826 L293.234863281,101.51599884 L220.36366272,101.51599884 Z " />
       </clipPath>
      </defs>
      <g clip-path="url(#CLIP25)">
       <g>
        <g transform="matrix(1,0,0,1,221.188705444,100.796798706)">
         <text x="1" y="-2.75999999" class="f1">15251</text>
        </g>
       </g>
      </g>
      <defs>
       <clipPath id="CLIP26">
        <path d="M293.734863281,87.477996826 L366.606079102,87.477996826 L366.606079102,101.51599884 L293.734863281,101.51599884 Z " />
       </clipPath>
      </defs>
      <g clip-path="url(#CLIP26)">
       <g>
        <g transform="matrix(1,0,0,1,294.559906006,100.796798706)">
         <text x="1" y="-2.75999999" class="f1">18780</text>
        </g>
       </g>
      </g>
      <defs>
       <clipPath id="CLIP27">
        <path d="M0.25,102.01599884 L73.12121582,102.01599884 L73.12121582,116.054000854 L0.25,116.054000854 Z " />
       </clipPath>
      </defs>
      <g clip-path="url(#CLIP27)">
       <g>
        <g transform="matrix(1,0,0,1,1.075036168,115.33480072)">
         <text x="1" y="-2.770781279" class="f0">病</text>
         <text x="12.039999962" y="-2.770781279" class="f0">毒</text>
         <text x="23.079999924" y="-2.770781279" class="f0">性</text>
         <text x="34.119998932" y="-2.770781279" class="f0">肝</text>
         <text x="45.159999847" y="-2.770781279" class="f0">炎</text>
        </g>
       </g>
      </g>
      <defs>
       <clipPath id="CLIP28">
        <path d="M73.62121582,102.01599884 L146.492431641,102.01599884 L146.492431641,116.054000854 L73.62121582,116.054000854 Z " />
       </clipPath>
      </defs>
      <g clip-path="url(#CLIP28)">
       <g>
        <g transform="matrix(1,0,0,1,74.446250916,115.33480072)">
         <text x="1" y="-2.75999999" class="f1">1283523</text>
        </g>
       </g>
      </g>
      <defs>
       <clipPath id="CLIP29">
        <path d="M146.992431641,102.01599884 L219.863647461,102.01599884 L219.863647461,116.054000854 L146.992431641,116.054000854 Z " />
       </clipPath>
      </defs>
      <g clip-path="url(#CLIP29)">
       <g>
        <g transform="matrix(1,0,0,1,147.817474365,115.33480072)">
         <text x="1" y="-2.75999999" class="f1">1280015</text>
        </g>
       </g>
      </g>
      <defs>
       <clipPath id="CLIP30">
        <path d="M220.36366272,102.01599884 L293.234863281,102.01599884 L293.234863281,116.054000854 L220.36366272,116.054000854 Z " />
       </clipPath>
      </defs>
      <g clip-path="url(#CLIP30)">
       <g>
        <g transform="matrix(1,0,0,1,221.188705444,115.33480072)">
         <text x="1" y="-2.75999999" class="f1">573</text>
        </g>
       </g>
      </g>
      <defs>
       <clipPath id="CLIP31">
        <path d="M293.734863281,102.01599884 L366.606079102,102.01599884 L366.606079102,116.054000854 L293.734863281,116.054000854 Z " />
       </clipPath>
      </defs>
      <g clip-path="url(#CLIP31)">
       <g>
        <g transform="matrix(1,0,0,1,294.559906006,115.33480072)">
         <text x="1" y="-2.75999999" class="f1">531</text>
        </g>
       </g>
      </g>
      <defs>
       <clipPath id="CLIP32">
        <path d="M0.25,116.554000854 L73.12121582,116.554000854 L73.12121582,130.591995239 L0.25,130.591995239 Z " />
       </clipPath>
      </defs>
      <g clip-path="url(#CLIP32)">
       <g>
        <g transform="matrix(1,0,0,1,1.075036168,129.872787476)">
         <text x="1" y="-2.770781279" class="f0">脊</text>
         <text x="12.039999962" y="-2.770781279" class="f0">髓</text>
         <text x="23.079999924" y="-2.770781279" class="f0">灰</text>
         <text x="34.119998932" y="-2.770781279" class="f0">质</text>
         <text x="45.159999847" y="-2.770781279" class="f0">炎</text>
        </g>
       </g>
      </g>
      <defs>
       <clipPath id="CLIP33">
        <path d="M0.25,131.091995239 L146.492431641,131.091995239 L146.492431641,145.129989624 L0.25,145.129989624 Z " />
       </clipPath>
      </defs>
      <g clip-path="url(#CLIP33)">
       <g>
        <g transform="matrix(1,0,0,1,1.075036168,144.410797119)">
         <text x="1" y="-2.770781279" class="f0">人</text>
         <text x="12.039999962" y="-2.770781279" class="f0">感</text>
         <text x="23.079999924" y="-2.770781279" class="f0">染</text>
         <text x="34.119998932" y="-2.770781279" class="f0">高</text>
         <text x="45.159999847" y="-2.770781279" class="f0">致</text>
         <text x="56.200000763" y="-2.770781279" class="f0">病</text>
         <text x="67.239997864" y="-2.770781279" class="f0">性</text>
         <text x="78.279998779" y="-2.770781279" class="f0">离</text>
         <text x="89.319999695" y="-2.770781279" class="f0">流</text>
         <text x="100.36000061" y="-2.770781279" class="f0">感</text>
        </g>
       </g>
      </g>
      <defs>
       <clipPath id="CLIP34">
        <path d="M0.25,145.630004883 L73.12121582,145.630004883 L73.12121582,159.667999268 L0.25,159.667999268 Z " />
       </clipPath>
      </defs>
      <g clip-path="url(#CLIP34)">
       <g>
        <g transform="matrix(1,0,0,1,1.075036168,158.948806763)">
         <text x="1" y="-2.770781279" class="f0">麻</text>
         <text x="12.039999962" y="-2.770781279" class="f0">疹</text>
        </g>
       </g>
      </g>
      <defs>
       <clipPath id="CLIP35">
        <path d="M73.62121582,145.630004883 L146.492431641,145.630004883 L146.492431641,159.667999268 L73.62121582,159.667999268 Z " />
       </clipPath>
      </defs>
      <g clip-path="url(#CLIP35)">
       <g>
        <g transform="matrix(1,0,0,1,74.446250916,158.948806763)">
         <text x="1" y="-2.75999999" class="f1">5941</text>
        </g>
       </g>
      </g>
      <defs>
       <clipPath id="CLIP36">
        <path d="M146.992431641,145.630004883 L219.863647461,145.630004883 L219.863647461,159.667999268 L146.992431641,159.667999268 Z " />
       </clipPath>
      </defs>
      <g clip-path="url(#CLIP36)">
       <g>
        <g transform="matrix(1,0,0,1,147.817474365,158.948806763)">
         <text x="1" y="-2.75999999" class="f1">3940</text>
        </g>
       </g>
      </g>
      <defs>
       <clipPath id="CLIP37">
        <path d="M293.734863281,145.630004883 L366.606079102,145.630004883 L366.606079102,159.667999268 L293.734863281,159.667999268 Z " />
       </clipPath>
      </defs>
      <g clip-path="url(#CLIP37)">
       <g>
        <g transform="matrix(1,0,0,1,294.559906006,158.948806763)">
         <text x="1" y="-2.770781279" class="f0">，</text>
        </g>
       </g>
      </g>
      <defs>
       <clipPath id="CLIP38">
        <path d="M0.25,160.167999268 L73.12121582,160.167999268 L73.12121582,174.205993652 L0.25,174.205993652 Z " />
       </clipPath>
      </defs>
      <g clip-path="url(#CLIP38)">
       <g>
        <g transform="matrix(1,0,0,1,1.075036168,173.486801147)">
         <text x="1" y="-2.770781279" class="f0">流</text>
         <text x="12.039999962" y="-2.770781279" class="f0">行</text>
         <text x="23.079999924" y="-2.770781279" class="f0">性</text>
         <text x="34.119998932" y="-2.770781279" class="f0">出</text>
         <text x="45.159999847" y="-2.770781279" class="f0">血</text>
         <text x="56.200000763" y="-2.770781279" class="f0">热</text>
        </g>
       </g>
      </g>
      <defs>
       <clipPath id="CLIP39">
        <path d="M73.62121582,160.167999268 L146.492431641,160.167999268 L146.492431641,174.205993652 L73.62121582,174.205993652 Z " />
       </clipPath>
      </defs>
      <g clip-path="url(#CLIP39)">
       <g>
        <g transform="matrix(1,0,0,1,74.446250916,173.486801147)">
         <text x="1" y="-2.75999999" class="f1">11262</text>
        </g>
       </g>
      </g>
      <defs>
       <clipPath id="CLIP40">
        <path d="M146.992431641,160.167999268 L219.863647461,160.167999268 L219.863647461,174.205993652 L146.992431641,174.205993652 Z " />
       </clipPath>
      </defs>
      <g clip-path="url(#CLIP40)">
       <g>
        <g transform="matrix(1,0,0,1,147.817474365,173.486801147)">
         <text x="1" y="-2.75999999" class="f1">11966</text>
        </g>
       </g>
      </g>
      <defs>
       <clipPath id="CLIP41">
        <path d="M220.36366272,160.167999268 L293.234863281,160.167999268 L293.234863281,174.205993652 L220.36366272,174.205993652 Z " />
       </clipPath>
      </defs>
      <g clip-path="url(#CLIP41)">
       <g>
        <g transform="matrix(1,0,0,1,221.188705444,173.486801147)">
         <text x="1" y="-2.75999999" class="f1">64</text>
        </g>
       </g>
      </g>
      <defs>
       <clipPath id="CLIP42">
        <path d="M293.734863281,160.167999268 L366.606079102,160.167999268 L366.606079102,174.205993652 L293.734863281,174.205993652 Z " />
       </clipPath>
      </defs>
      <g clip-path="url(#CLIP42)">
       <g>
        <g transform="matrix(1,0,0,1,294.559906006,173.486801147)">
         <text x="1" y="-2.75999999" class="f1">7</text>
        </g>
       </g>
      </g>
      <defs>
       <clipPath id="CLIP43">
        <path d="M0.25,174.705993652 L73.12121582,174.705993652 L73.12121582,188.743988037 L0.25,188.743988037 Z " />
       </clipPath>
      </defs>
      <g clip-path="url(#CLIP43)">
       <g>
        <g transform="matrix(1,0,0,1,1.075036168,188.024795532)">
         <text x="1" y="-2.770781279" class="f0">狂</text>
         <text x="12.039999962" y="-2.770781279" class="f0">犬</text>
         <text x="23.079999924" y="-2.770781279" class="f0">病</text>
        </g>
       </g>
      </g>
      <defs>
       <clipPath id="CLIP44">
        <path d="M73.62121582,174.705993652 L146.492431641,174.705993652 L146.492431641,188.743988037 L73.62121582,188.743988037 Z " />
       </clipPath>
      </defs>
      <g clip-path="url(#CLIP44)">
       <g>
        <g transform="matrix(1,0,0,1,74.446250916,188.024795532)">
         <text x="1" y="-2.75999999" class="f1">516</text>
        </g>
       </g>
      </g>
      <defs>
       <clipPath id="CLIP45">
        <path d="M146.992431641,174.705993652 L219.863647461,174.705993652 L219.863647461,188.743988037 L146.992431641,188.743988037 Z " />
       </clipPath>
      </defs>
      <g clip-path="url(#CLIP45)">
       <g>
        <g transform="matrix(1,0,0,1,147.817474365,188.024795532)">
         <text x="1" y="-2.75999999" class="f1">422</text>
        </g>
       </g>
      </g>
      <defs>
       <clipPath id="CLIP46">
        <path d="M220.36366272,174.705993652 L293.234863281,174.705993652 L293.234863281,188.743988037 L220.36366272,188.743988037 Z " />
       </clipPath>
      </defs>
      <g clip-path="url(#CLIP46)">
       <g>
        <g transform="matrix(1,0,0,1,221.188705444,188.024795532)">
         <text x="1" y="-2.75999999" class="f1">502</text>
        </g>
       </g>
      </g>
      <defs>
       <clipPath id="CLIP47">
        <path d="M293.734863281,174.705993652 L366.606079102,174.705993652 L366.606079102,188.743988037 L293.734863281,188.743988037 Z " />
       </clipPath>
      </defs>
      <g clip-path="url(#CLIP47)">
       <g>
        <g transform="matrix(1,0,0,1,294.559906006,188.024795532)">
         <text x="1" y="-2.75999999" class="f1">410</text>
        </g>
       </g>
      </g>
      <defs>
       <clipPath id="CLIP48">
        <path d="M0.25,189.244003296 L73.12121582,189.244003296 L73.12121582,203.281997681 L0.25,203.281997681 Z " />
       </clipPath>
      </defs>
      <g clip-path="url(#CLIP48)">
       <g>
        <g transform="matrix(1,0,0,1,0,202.562805176)">
         <text x="1" y="-2.770781279" class="f0">流</text>
         <text x="12.039999962" y="-2.770781279" class="f0">行</text>
         <text x="23.079999924" y="-2.770781279" class="f0">性</text>
         <text x="34.119998932" y="-2.770781279" class="f0">乙</text>
         <text x="45.159999847" y="-2.770781279" class="f0">型</text>
         <text x="56.200000763" y="-2.770781279" class="f0">脑</text>
         <text x="67.239997864" y="-2.770781279" class="f0">炎</text>
        </g>
       </g>
      </g>
      <defs>
       <clipPath id="CLIP49">
        <path d="M73.62121582,189.244003296 L146.492431641,189.244003296 L146.492431641,203.281997681 L73.62121582,203.281997681 Z " />
       </clipPath>
      </defs>
      <g clip-path="url(#CLIP49)">
       <g>
        <g transform="matrix(1,0,0,1,74.446250916,202.562805176)">
         <text x="1" y="-2.75999999" class="f1">1147</text>
        </g>
       </g>
      </g>
      <defs>
       <clipPath id="CLIP50">
        <path d="M146.992431641,189.244003296 L219.863647461,189.244003296 L219.863647461,203.281997681 L146.992431641,203.281997681 Z " />
       </clipPath>
      </defs>
      <g clip-path="url(#CLIP50)">
       <g>
        <g transform="matrix(1,0,0,1,147.817474365,202.562805176)">
         <text x="1" y="-2.75999999" class="f1">1800</text>
        </g>
       </g>
      </g>
      <defs>
       <clipPath id="CLIP51">
        <path d="M220.36366272,189.244003296 L293.234863281,189.244003296 L293.234863281,203.281997681 L220.36366272,203.281997681 Z " />
       </clipPath>
      </defs>
      <g clip-path="url(#CLIP51)">
       <g>
        <g transform="matrix(1,0,0,1,221.188705444,202.562805176)">
         <text x="1" y="-2.75999999" class="f1">79</text>
        </g>
       </g>
      </g>
      <defs>
       <clipPath id="CLIP52">
        <path d="M293.734863281,189.244003296 L366.606079102,189.244003296 L366.606079102,203.281997681 L293.734863281,203.281997681 Z " />
       </clipPath>
      </defs>
      <g clip-path="url(#CLIP52)">
       <g>
        <g transform="matrix(1,0,0,1,294.559906006,202.562805176)">
         <text x="1" y="-2.75999999" class="f1">135</text>
        </g>
       </g>
      </g>
      <defs>
       <clipPath id="CLIP53">
        <path d="M0.25,203.781997681 L73.12121582,203.781997681 L73.12121582,217.819992065 L0.25,217.819992065 Z " />
       </clipPath>
      </defs>
      <g clip-path="url(#CLIP53)">
       <g>
        <g transform="matrix(1,0,0,1,1.075036168,217.100799561)">
         <text x="1" y="-2.770781279" class="f0">登</text>
         <text x="12.039999962" y="-2.770781279" class="f0">革</text>
         <text x="23.079999924" y="-2.770781279" class="f0">热</text>
        </g>
       </g>
      </g>
      <defs>
       <clipPath id="CLIP54">
        <path d="M73.62121582,203.781997681 L146.492431641,203.781997681 L146.492431641,217.819992065 L73.62121582,217.819992065 Z " />
       </clipPath>
      </defs>
      <g clip-path="url(#CLIP54)">
       <g>
        <g transform="matrix(1,0,0,1,74.446250916,217.100799561)">
         <text x="1" y="-2.75999999" class="f1">5893</text>
        </g>
       </g>
      </g>
      <defs>
       <clipPath id="CLIP55">
        <path d="M146.992431641,203.781997681 L219.863647461,203.781997681 L219.863647461,217.819992065 L146.992431641,217.819992065 Z " />
       </clipPath>
      </defs>
      <g clip-path="url(#CLIP55)">
       <g>
        <g transform="matrix(1,0,0,1,147.817474365,217.100799561)">
         <text x="1" y="-2.75999999" class="f1">5136</text>
        </g>
       </g>
      </g>
      <defs>
       <clipPath id="CLIP56">
        <path d="M293.734863281,203.781997681 L366.606079102,203.781997681 L366.606079102,217.819992065 L293.734863281,217.819992065 Z " />
       </clipPath>
      </defs>
      <g clip-path="url(#CLIP56)">
       <g>
        <g transform="matrix(1,0,0,1,294.559906006,217.100799561)">
         <text x="1" y="-2.770781279" class="f0">，</text>
        </g>
       </g>
      </g>
      <defs>
       <clipPath id="CLIP57">
        <path d="M0.25,218.320007324 L73.12121582,218.320007324 L73.12121582,232.358001709 L0.25,232.358001709 Z " />
       </clipPath>
      </defs>
      <g clip-path="url(#CLIP57)">
       <g>
        <g transform="matrix(1,0,0,1,1.075036168,231.638809204)">
         <text x="1" y="-2.770781279" class="f0">炭</text>
         <text x="12.039999962" y="-2.770781279" class="f0">疽</text>
        </g>
       </g>
      </g>
      <defs>
       <clipPath id="CLIP58">
        <path d="M73.62121582,218.320007324 L146.492431641,218.320007324 L146.492431641,232.358001709 L73.62121582,232.358001709 Z " />
       </clipPath>
      </defs>
      <g clip-path="url(#CLIP58)">
       <g>
        <g transform="matrix(1,0,0,1,74.446250916,231.638809204)">
         <text x="1" y="-2.75999999" class="f1">318</text>
        </g>
       </g>
      </g>
      <defs>
       <clipPath id="CLIP59">
        <path d="M146.992431641,218.320007324 L219.863647461,218.320007324 L219.863647461,232.358001709 L146.992431641,232.358001709 Z " />
       </clipPath>
      </defs>
      <g clip-path="url(#CLIP59)">
       <g>
        <g transform="matrix(1,0,0,1,147.817474365,231.638809204)">
         <text x="1" y="-2.75999999" class="f1">336</text>
        </g>
       </g>
      </g>
      <defs>
       <clipPath id="CLIP60">
        <path d="M293.734863281,218.320007324 L366.606079102,218.320007324 L366.606079102,232.358001709 L293.734863281,232.358001709 Z " />
       </clipPath>
      </defs>
      <g clip-path="url(#CLIP60)">
       <g>
        <g transform="matrix(1,0,0,1,294.559906006,231.638809204)">
         <text x="1" y="-2.75999999" class="f1">3</text>
        </g>
       </g>
      </g>
      <defs>
       <clipPath id="CLIP61">
        <path d="M0.25,232.858001709 L73.12121582,232.858001709 L73.12121582,246.895996094 L0.25,246.895996094 Z " />
       </clipPath>
      </defs>
      <g clip-path="url(#CLIP61)">
       <g>
        <g transform="matrix(1,0,0,1,0,246.176803589)">
         <text x="1" y="-2.770781279" class="f0">细</text>
         <text x="12.039999962" y="-2.770781279" class="f0">菌</text>
         <text x="23.079999924" y="-2.770781279" class="f0">性</text>
         <text x="34.119998932" y="-2.770781279" class="f0">和</text>
         <text x="45.159999847" y="-2.770781279" class="f0">阿</text>
         <text x="56.200000763" y="-2.770781279" class="f0">米</text>
         <text x="67.239997864" y="-2.770781279" class="f0">巴</text>
         <text x="78.279998779" y="-2.770781279" class="f0">性</text>
         <text x="89.319999695" y="-2.770781279" class="f0">痢</text>
         <text x="100.36000061" y="-2.770781279" class="f0">疾</text>
        </g>
       </g>
      </g>
      <defs>
       <clipPath id="CLIP62">
        <path d="M73.62121582,232.858001709 L146.492431641,232.858001709 L146.492431641,246.895996094 L73.62121582,246.895996094 Z " />
       </clipPath>
      </defs>
      <g clip-path="url(#CLIP62)">
       <g>
        <g transform="matrix(1,0,0,1,74.446250916,246.176803589)">
         <text x="1" y="-2.75999999" class="f1">109368</text>
        </g>
       </g>
      </g>
      <defs>
       <clipPath id="CLIP63">
        <path d="M146.992431641,232.858001709 L219.863647461,232.858001709 L219.863647461,246.895996094 L146.992431641,246.895996094 Z " />
       </clipPath>
      </defs>
      <g clip-path="url(#CLIP63)">
       <g>
        <g transform="matrix(1,0,0,1,147.817474365,246.176803589)">
         <text x="1" y="-2.75999999" class="f1">91152</text>
        </g>
       </g>
      </g>
      <defs>
       <clipPath id="CLIP64">
        <path d="M0.25,247.395996094 L73.12121582,247.395996094 L73.12121582,261.433990479 L0.25,261.433990479 Z " />
       </clipPath>
      </defs>
      <g clip-path="url(#CLIP64)">
       <g>
        <g transform="matrix(1,0,0,1,1.075036168,260.714813232)">
         <text x="1" y="-2.770781279" class="f0">肺</text>
         <text x="12.039999962" y="-2.770781279" class="f0">结</text>
         <text x="23.079999924" y="-2.770781279" class="f0">核</text>
        </g>
       </g>
      </g>
      <defs>
       <clipPath id="CLIP65">
        <path d="M73.62121582,247.395996094 L146.492431641,247.395996094 L146.492431641,261.433990479 L73.62121582,261.433990479 Z " />
       </clipPath>
      </defs>
      <g clip-path="url(#CLIP65)">
       <g>
        <g transform="matrix(1,0,0,1,74.446250916,260.714813232)">
         <text x="1" y="-2.75999999" class="f1">835193</text>
        </g>
       </g>
      </g>
      <defs>
       <clipPath id="CLIP66">
        <path d="M146.992431641,247.395996094 L219.863647461,247.395996094 L219.863647461,261.433990479 L146.992431641,261.433990479 Z " />
       </clipPath>
      </defs>
      <g clip-path="url(#CLIP66)">
       <g>
        <g transform="matrix(1,0,0,1,147.817474365,260.714813232)">
         <text x="1" y="-2.75999999" class="f1">823342</text>
        </g>
       </g>
      </g>
      <defs>
       <clipPath id="CLIP67">
        <path d="M220.36366272,247.395996094 L293.234863281,247.395996094 L293.234863281,261.433990479 L220.36366272,261.433990479 Z " />
       </clipPath>
      </defs>
      <g clip-path="url(#CLIP67)">
       <g>
        <g transform="matrix(1,0,0,1,221.188705444,260.714813232)">
         <text x="1" y="-2.75999999" class="f1">2823</text>
        </g>
       </g>
      </g>
      <defs>
       <clipPath id="CLIP68">
        <path d="M293.734863281,247.395996094 L366.606079102,247.395996094 L366.606079102,261.433990479 L293.734863281,261.433990479 Z " />
       </clipPath>
      </defs>
      <g clip-path="url(#CLIP68)">
       <g>
        <g transform="matrix(1,0,0,1,294.559906006,260.714813232)">
         <text x="1" y="-2.75999999" class="f1">3149</text>
        </g>
       </g>
      </g>
      <defs>
       <clipPath id="CLIP69">
        <path d="M0.25,261.933990479 L73.12121582,261.933990479 L73.12121582,275.971984863 L0.25,275.971984863 Z " />
       </clipPath>
      </defs>
      <g clip-path="url(#CLIP69)">
       <g>
        <g transform="matrix(1,0,0,1,1.075036168,275.2527771)">
         <text x="1" y="-2.770781279" class="f0">伤</text>
         <text x="12.039999962" y="-2.770781279" class="f0">寒</text>
         <text x="23.079999924" y="-2.770781279" class="f0">和</text>
         <text x="34.119998932" y="-2.770781279" class="f0">副</text>
         <text x="45.159999847" y="-2.770781279" class="f0">伤</text>
         <text x="56.200000763" y="-2.770781279" class="f0">寒</text>
        </g>
       </g>
      </g>
      <defs>
       <clipPath id="CLIP70">
        <path d="M73.62121582,261.933990479 L146.492431641,261.933990479 L146.492431641,275.971984863 L73.62121582,275.971984863 Z " />
       </clipPath>
      </defs>
      <g clip-path="url(#CLIP70)">
       <g>
        <g transform="matrix(1,0,0,1,74.446250916,275.2527771)">
         <text x="1" y="-2.75999999" class="f1">10791</text>
        </g>
       </g>
      </g>
      <defs>
       <clipPath id="CLIP71">
        <path d="M146.992431641,261.933990479 L219.863647461,261.933990479 L219.863647461,275.971984863 L146.992431641,275.971984863 Z " />
       </clipPath>
      </defs>
      <g clip-path="url(#CLIP71)">
       <g>
        <g transform="matrix(1,0,0,1,147.817474365,275.2527771)">
         <text x="1" y="-2.75999999" class="f1">10843</text>
        </g>
       </g>
      </g>
      <defs>
       <clipPath id="CLIP72">
        <path d="M0.25,276.472015381 L73.12121582,276.472015381 L73.12121582,290.510009766 L0.25,290.510009766 Z " />
       </clipPath>
      </defs>
      <g clip-path="url(#CLIP72)">
       <g>
        <g transform="matrix(1,0,0,1,0,289.790802002)">
         <text x="1" y="-2.770781279" class="f0">流</text>
         <text x="12.039999962" y="-2.770781279" class="f0">行</text>
         <text x="23.079999924" y="-2.770781279" class="f0">性</text>
         <text x="34.119998932" y="-2.770781279" class="f0">脑</text>
         <text x="45.159999847" y="-2.770781279" class="f0">脊</text>
         <text x="56.200000763" y="-2.770781279" class="f0">随</text>
         <text x="67.239997864" y="-2.770781279" class="f0">膜</text>
         <text x="78.279998779" y="-2.770781279" class="f0">炎</text>
        </g>
       </g>
      </g>
      <defs>
       <clipPath id="CLIP73">
        <path d="M73.62121582,276.472015381 L146.492431641,276.472015381 L146.492431641,290.510009766 L73.62121582,290.510009766 Z " />
       </clipPath>
      </defs>
      <g clip-path="url(#CLIP73)">
       <g>
        <g transform="matrix(1,0,0,1,74.446250916,289.790802002)">
         <text x="1" y="-2.75999999" class="f1">118</text>
        </g>
       </g>
      </g>
      <defs>
       <clipPath id="CLIP74">
        <path d="M146.992431641,276.472015381 L219.863647461,276.472015381 L219.863647461,290.510009766 L146.992431641,290.510009766 Z " />
       </clipPath>
      </defs>
      <g clip-path="url(#CLIP74)">
       <g>
        <g transform="matrix(1,0,0,1,147.817474365,289.790802002)">
         <text x="1" y="-2.75999999" class="f1">104</text>
        </g>
       </g>
      </g>
      <defs>
       <clipPath id="CLIP75">
        <path d="M220.36366272,276.472015381 L293.234863281,276.472015381 L293.234863281,290.510009766 L220.36366272,290.510009766 Z " />
       </clipPath>
      </defs>
      <g clip-path="url(#CLIP75)">
       <g>
        <g transform="matrix(1,0,0,1,221.188705444,289.790802002)">
         <text x="1" y="-2.75999999" class="f1">19</text>
        </g>
       </g>
      </g>
      <defs>
       <clipPath id="CLIP76">
        <path d="M0.25,291.010009766 L73.12121582,291.010009766 L73.12121582,305.04800415 L0.25,305.04800415 Z " />
       </clipPath>
      </defs>
      <g clip-path="url(#CLIP76)">
       <g>
        <g transform="matrix(1,0,0,1,1.075036168,304.328796387)">
         <text x="1" y="-2.770781279" class="f0">百</text>
         <text x="12.039999962" y="-2.770781279" class="f0">日</text>
         <text x="23.079999924" y="-2.770781279" class="f0">咳</text>
        </g>
       </g>
      </g>
      <defs>
       <clipPath id="CLIP77">
        <path d="M73.62121582,291.010009766 L146.492431641,291.010009766 L146.492431641,305.04800415 L73.62121582,305.04800415 Z " />
       </clipPath>
      </defs>
      <g clip-path="url(#CLIP77)">
       <g>
        <g transform="matrix(1,0,0,1,74.446250916,304.328796387)">
         <text x="1" y="-2.75999999" class="f1">10390</text>
        </g>
       </g>
      </g>
      <defs>
       <clipPath id="CLIP78">
        <path d="M146.992431641,291.010009766 L219.863647461,291.010009766 L219.863647461,305.04800415 L146.992431641,305.04800415 Z " />
       </clipPath>
      </defs>
      <g clip-path="url(#CLIP78)">
       <g>
        <g transform="matrix(1,0,0,1,147.817474365,304.328796387)">
         <text x="1" y="-2.75999999" class="f1">22057</text>
        </g>
       </g>
      </g>
      <defs>
       <clipPath id="CLIP79">
        <path d="M293.734863281,291.010009766 L366.606079102,291.010009766 L366.606079102,305.04800415 L293.734863281,305.04800415 Z " />
       </clipPath>
      </defs>
      <g clip-path="url(#CLIP79)">
       <g>
        <g transform="matrix(1,0,0,1,294.559906006,304.328796387)">
         <text x="1" y="-2.75999999" class="f1">2</text>
        </g>
       </g>
      </g>
      <defs>
       <clipPath id="CLIP80">
        <path d="M0.25,305.54800415 L73.12121582,305.54800415 L73.12121582,319.585998535 L0.25,319.585998535 Z " />
       </clipPath>
      </defs>
      <g clip-path="url(#CLIP80)">
       <g>
        <g transform="matrix(1,0,0,1,1.075036168,318.866790771)">
         <text x="1" y="-2.770781279" class="f0">白</text>
         <text x="12.039999962" y="-2.770781279" class="f0">喉</text>
        </g>
       </g>
      </g>
      <defs>
       <clipPath id="CLIP81">
        <path d="M0.25,320.085998535 L73.12121582,320.085998535 L73.12121582,334.12399292 L0.25,334.12399292 Z " />
       </clipPath>
      </defs>
      <g clip-path="url(#CLIP81)">
       <g>
        <g transform="matrix(1,0,0,1,1.075036168,333.404785156)">
         <text x="1" y="-2.770781279" class="f0">新</text>
         <text x="12.039999962" y="-2.770781279" class="f0">生</text>
         <text x="23.079999924" y="-2.770781279" class="f0">儿</text>
         <text x="34.119998932" y="-2.770781279" class="f0">破</text>
         <text x="45.159999847" y="-2.770781279" class="f0">伤</text>
         <text x="56.200000763" y="-2.770781279" class="f0">风</text>
        </g>
       </g>
      </g>
      <defs>
       <clipPath id="CLIP82">
        <path d="M73.62121582,320.085998535 L146.492431641,320.085998535 L146.492431641,334.12399292 L73.62121582,334.12399292 Z " />
       </clipPath>
      </defs>
      <g clip-path="url(#CLIP82)">
       <g>
        <g transform="matrix(1,0,0,1,74.446250916,333.404785156)">
         <text x="1" y="-2.75999999" class="f1">3</text>
        </g>
       </g>
      </g>
      <defs>
       <clipPath id="CLIP83">
        <path d="M146.992431641,320.085998535 L219.863647461,320.085998535 L219.863647461,334.12399292 L146.992431641,334.12399292 Z " />
       </clipPath>
      </defs>
      <g clip-path="url(#CLIP83)">
       <g>
        <g transform="matrix(1,0,0,1,147.817474365,333.404785156)">
         <text x="1" y="-2.75999999" class="f1">83</text>
        </g>
       </g>
      </g>
      <defs>
       <clipPath id="CLIP84">
        <path d="M293.734863281,320.085998535 L366.606079102,320.085998535 L366.606079102,334.12399292 L293.734863281,334.12399292 Z " />
       </clipPath>
      </defs>
      <g clip-path="url(#CLIP84)">
       <g>
        <g transform="matrix(1,0,0,1,294.559906006,333.404785156)">
         <text x="1" y="-2.75999999" class="f1">4</text>
        </g>
       </g>
      </g>
      <defs>
       <clipPath id="CLIP85">
        <path d="M0.25,334.62399292 L73.12121582,334.62399292 L73.12121582,348.661987305 L0.25,348.661987305 Z " />
       </clipPath>
      </defs>
      <g clip-path="url(#CLIP85)">
       <g>
        <g transform="matrix(1,0,0,1,1.075036168,347.942779541)">
         <text x="1" y="-2.770781279" class="f0">提</text>
         <text x="12.039999962" y="-2.770781279" class="f0">红</text>
         <text x="23.079999924" y="-2.770781279" class="f0">热</text>
        </g>
       </g>
      </g>
      <defs>
       <clipPath id="CLIP86">
        <path d="M73.62121582,334.62399292 L146.492431641,334.62399292 L146.492431641,348.661987305 L73.62121582,348.661987305 Z " />
       </clipPath>
      </defs>
      <g clip-path="url(#CLIP86)">
       <g>
        <g transform="matrix(1,0,0,1,74.446250916,347.942779541)">
         <text x="1" y="-2.75999999" class="f1">74369</text>
        </g>
       </g>
      </g>
      <defs>
       <clipPath id="CLIP87">
        <path d="M146.992431641,334.62399292 L219.863647461,334.62399292 L219.863647461,348.661987305 L146.992431641,348.661987305 Z " />
       </clipPath>
      </defs>
      <g clip-path="url(#CLIP87)">
       <g>
        <g transform="matrix(1,0,0,1,147.817474365,347.942779541)">
         <text x="1" y="-2.75999999" class="f1">78864</text>
        </g>
       </g>
      </g>
      <defs>
       <clipPath id="CLIP88">
        <path d="M0.25,349.161987305 L73.12121582,349.161987305 L73.12121582,363.199981689 L0.25,363.199981689 Z " />
       </clipPath>
      </defs>
      <g clip-path="url(#CLIP88)">
       <g>
        <g transform="matrix(1,0,0,1,1.075036168,362.480773926)">
         <text x="1" y="-2.770781279" class="f0">布</text>
         <text x="12.039999962" y="-2.770781279" class="f0">鲁</text>
         <text x="23.079999924" y="-2.770781279" class="f0">氏</text>
         <text x="34.119998932" y="-2.770781279" class="f0">菌</text>
         <text x="45.159999847" y="-2.770781279" class="f0">病</text>
        </g>
       </g>
      </g>
      <defs>
       <clipPath id="CLIP89">
        <path d="M73.62121582,349.161987305 L146.492431641,349.161987305 L146.492431641,363.199981689 L73.62121582,363.199981689 Z " />
       </clipPath>
      </defs>
      <g clip-path="url(#CLIP89)">
       <g>
        <g transform="matrix(1,0,0,1,74.446250916,362.480773926)">
         <text x="1" y="-2.75999999" class="f1">38554</text>
        </g>
       </g>
      </g>
      <defs>
       <clipPath id="CLIP90">
        <path d="M146.992431641,349.161987305 L219.863647461,349.161987305 L219.863647461,363.199981689 L146.992431641,363.199981689 Z " />
       </clipPath>
      </defs>
      <g clip-path="url(#CLIP90)">
       <g>
        <g transform="matrix(1,0,0,1,147.817474365,362.480773926)">
         <text x="1" y="-2.75999999" class="f1">37947</text>
        </g>
       </g>
      </g>
      <defs>
       <clipPath id="CLIP91">
        <path d="M220.36366272,349.161987305 L293.234863281,349.161987305 L293.234863281,363.199981689 L220.36366272,363.199981689 Z " />
       </clipPath>
      </defs>
      <g clip-path="url(#CLIP91)">
       <g>
        <g transform="matrix(1,0,0,1,221.188705444,362.480773926)">
         <text x="1" y="-2.75999999" class="f1">1</text>
        </g>
       </g>
      </g>
      <defs>
       <clipPath id="CLIP92">
        <path d="M0.25,363.700012207 L73.12121582,363.700012207 L73.12121582,377.738006592 L0.25,377.738006592 Z " />
       </clipPath>
      </defs>
      <g clip-path="url(#CLIP92)">
       <g>
        <g transform="matrix(1,0,0,1,1.075036168,377.018798828)">
         <text x="1" y="-2.770781279" class="f0">淋</text>
         <text x="12.039999962" y="-2.770781279" class="f0">病</text>
        </g>
       </g>
      </g>
      <defs>
       <clipPath id="CLIP93">
        <path d="M73.62121582,363.700012207 L146.492431641,363.700012207 L146.492431641,377.738006592 L73.62121582,377.738006592 Z " />
       </clipPath>
      </defs>
      <g clip-path="url(#CLIP93)">
       <g>
        <g transform="matrix(1,0,0,1,74.446250916,377.018798828)">
         <text x="1" y="-2.75999999" class="f1">138855</text>
        </g>
       </g>
      </g>
      <defs>
       <clipPath id="CLIP94">
        <path d="M146.992431641,363.700012207 L219.863647461,363.700012207 L219.863647461,377.738006592 L146.992431641,377.738006592 Z " />
       </clipPath>
      </defs>
      <g clip-path="url(#CLIP94)">
       <g>
        <g transform="matrix(1,0,0,1,147.817474365,377.018798828)">
         <text x="1" y="-2.75999999" class="f1">133156</text>
        </g>
       </g>
      </g>
      <defs>
       <clipPath id="CLIP95">
        <path d="M293.734863281,363.700012207 L366.606079102,363.700012207 L366.606079102,377.738006592 L293.734863281,377.738006592 Z " />
       </clipPath>
      </defs>
      <g clip-path="url(#CLIP95)">
       <g>
        <g transform="matrix(1,0,0,1,294.559906006,377.018798828)">
         <text x="1" y="-2.770781279" class="f0">，</text>
        </g>
       </g>
      </g>
      <defs>
       <clipPath id="CLIP96">
        <path d="M0.25,378.238006592 L73.12121582,378.238006592 L73.12121582,392.276000977 L0.25,392.276000977 Z " />
       </clipPath>
      </defs>
      <g clip-path="url(#CLIP96)">
       <g>
        <g transform="matrix(1,0,0,1,1.075036168,391.556793213)">
         <text x="1" y="-2.770781279" class="f0">梅</text>
         <text x="12.039999962" y="-2.770781279" class="f0">毒</text>
        </g>
       </g>
      </g>
      <defs>
       <clipPath id="CLIP97">
        <path d="M73.62121582,378.238006592 L146.492431641,378.238006592 L146.492431641,392.276000977 L73.62121582,392.276000977 Z " />
       </clipPath>
      </defs>
      <g clip-path="url(#CLIP97)">
       <g>
        <g transform="matrix(1,0,0,1,74.446250916,391.556793213)">
         <text x="1" y="-2.75999999" class="f1">475860</text>
        </g>
       </g>
      </g>
      <defs>
       <clipPath id="CLIP98">
        <path d="M146.992431641,378.238006592 L219.863647461,378.238006592 L219.863647461,392.276000977 L146.992431641,392.276000977 Z " />
       </clipPath>
      </defs>
      <g clip-path="url(#CLIP98)">
       <g>
        <g transform="matrix(1,0,0,1,147.817474365,391.556793213)">
         <text x="1" y="-2.75999999" class="f1">494867</text>
        </g>
       </g>
      </g>
      <defs>
       <clipPath id="CLIP99">
        <path d="M220.36366272,378.238006592 L293.234863281,378.238006592 L293.234863281,392.276000977 L220.36366272,392.276000977 Z " />
       </clipPath>
      </defs>
      <g clip-path="url(#CLIP99)">
       <g>
        <g transform="matrix(1,0,0,1,221.188705444,391.556793213)">
         <text x="1" y="-2.75999999" class="f1">45</text>
        </g>
       </g>
      </g>
      <defs>
       <clipPath id="CLIP100">
        <path d="M293.734863281,378.238006592 L366.606079102,378.238006592 L366.606079102,392.276000977 L293.734863281,392.276000977 Z " />
       </clipPath>
      </defs>
      <g clip-path="url(#CLIP100)">
       <g>
        <g transform="matrix(1,0,0,1,294.559906006,391.556793213)">
         <text x="1" y="-2.75999999" class="f1">39</text>
        </g>
       </g>
      </g>
      <defs>
       <clipPath id="CLIP101">
        <path d="M0.25,392.776000977 L73.12121582,392.776000977 L73.12121582,406.813995361 L0.25,406.813995361 Z " />
       </clipPath>
      </defs>
      <g clip-path="url(#CLIP101)">
       <g>
        <g transform="matrix(1,0,0,1,1.075036168,406.094787598)">
         <text x="1" y="-2.770781279" class="f0">钩</text>
         <text x="12.039999962" y="-2.770781279" class="f0">端</text>
         <text x="23.079999924" y="-2.770781279" class="f0">螺</text>
         <text x="34.119998932" y="-2.770781279" class="f0">旋</text>
         <text x="45.159999847" y="-2.770781279" class="f0">体</text>
         <text x="56.200000763" y="-2.770781279" class="f0">病</text>
        </g>
       </g>
      </g>
      <defs>
       <clipPath id="CLIP102">
        <path d="M73.62121582,392.776000977 L146.492431641,392.776000977 L146.492431641,406.813995361 L73.62121582,406.813995361 Z " />
       </clipPath>
      </defs>
      <g clip-path="url(#CLIP102)">
       <g>
        <g transform="matrix(1,0,0,1,74.446250916,406.094787598)">
         <text x="1" y="-2.75999999" class="f1">201</text>
        </g>
       </g>
      </g>
      <defs>
       <clipPath id="CLIP103">
        <path d="M146.992431641,392.776000977 L219.863647461,392.776000977 L219.863647461,406.813995361 L146.992431641,406.813995361 Z " />
       </clipPath>
      </defs>
      <g clip-path="url(#CLIP103)">
       <g>
        <g transform="matrix(1,0,0,1,147.817474365,406.094787598)">
         <text x="1" y="-2.75999999" class="f1">157</text>
        </g>
       </g>
      </g>
      <defs>
       <clipPath id="CLIP104">
        <path d="M0.25,407.313995361 L73.12121582,407.313995361 L73.12121582,421.351989746 L0.25,421.351989746 Z " />
       </clipPath>
      </defs>
      <g clip-path="url(#CLIP104)">
       <g>
        <g transform="matrix(1,0,0,1,1.075036168,420.632781982)">
         <text x="1" y="-2.770781279" class="f0">血</text>
         <text x="12.039999962" y="-2.770781279" class="f0">吸</text>
         <text x="23.079999924" y="-2.770781279" class="f0">虫</text>
         <text x="34.119998932" y="-2.770781279" class="f0">病</text>
        </g>
       </g>
      </g>
      <defs>
       <clipPath id="CLIP105">
        <path d="M73.62121582,407.313995361 L146.492431641,407.313995361 L146.492431641,421.351989746 L73.62121582,421.351989746 Z " />
       </clipPath>
      </defs>
      <g clip-path="url(#CLIP105)">
       <g>
        <g transform="matrix(1,0,0,1,74.446250916,420.632781982)">
         <text x="1" y="-2.75999999" class="f1">1186</text>
        </g>
       </g>
      </g>
      <defs>
       <clipPath id="CLIP106">
        <path d="M146.992431641,407.313995361 L219.863647461,407.313995361 L219.863647461,421.351989746 L146.992431641,421.351989746 Z " />
       </clipPath>
      </defs>
      <g clip-path="url(#CLIP106)">
       <g>
        <g transform="matrix(1,0,0,1,147.817474365,420.632781982)">
         <text x="1" y="-2.75999999" class="f1">144</text>
        </g>
       </g>
      </g>
      <defs>
       <clipPath id="CLIP107">
        <path d="M0.25,421.851989746 L73.12121582,421.851989746 L73.12121582,435.889984131 L0.25,435.889984131 Z " />
       </clipPath>
      </defs>
      <g clip-path="url(#CLIP107)">
       <g>
        <g transform="matrix(1,0,0,1,1.075036168,435.170776367)">
         <text x="1" y="-2.770781279" class="f0">疟</text>
         <text x="12.039999962" y="-2.770781279" class="f0">疾</text>
        </g>
       </g>
      </g>
      <defs>
       <clipPath id="CLIP108">
        <path d="M73.62121582,421.851989746 L146.492431641,421.851989746 L146.492431641,435.889984131 L73.62121582,435.889984131 Z " />
       </clipPath>
      </defs>
      <g clip-path="url(#CLIP108)">
       <g>
        <g transform="matrix(1,0,0,1,74.446250916,435.170776367)">
         <text x="1" y="-2.75999999" class="f1">2697</text>
        </g>
       </g>
      </g>
      <defs>
       <clipPath id="CLIP109">
        <path d="M146.992431641,421.851989746 L219.863647461,421.851989746 L219.863647461,435.889984131 L146.992431641,435.889984131 Z " />
       </clipPath>
      </defs>
      <g clip-path="url(#CLIP109)">
       <g>
        <g transform="matrix(1,0,0,1,147.817474365,435.170776367)">
         <text x="1" y="-2.75999999" class="f1">2518</text>
        </g>
       </g>
      </g>
      <defs>
       <clipPath id="CLIP110">
        <path d="M0.25,436.390014648 L73.12121582,436.390014648 L73.12121582,450.428009033 L0.25,450.428009033 Z " />
       </clipPath>
      </defs>
      <g clip-path="url(#CLIP110)">
       <g>
        <g transform="matrix(1,0,0,1,0,449.70880127)">
         <text x="1" y="-2.770781279" class="f0">人</text>
         <text x="12.039999962" y="-2.770781279" class="f0">感</text>
         <text x="23.079999924" y="-2.770781279" class="f0">染</text>
         <text x="34.119998932" y="-2.770781279" class="f1">H</text>
         <text x="40.998435974" y="-2.770781279" class="f1">7</text>
         <text x="46.593902588" y="-2.770781279" class="f1">N</text>
         <text x="53.720310211" y="-2.770781279" class="f1">9</text>
         <text x="59.31578064" y="-2.770781279" class="f0">离</text>
         <text x="70.355781555" y="-2.770781279" class="f0">流</text>
         <text x="81.395782471" y="-2.770781279" class="f0">感</text>
        </g>
       </g>
      </g>
      <defs>
       <clipPath id="CLIP111">
        <path d="M73.62121582,436.390014648 L146.492431641,436.390014648 L146.492431641,450.428009033 L73.62121582,450.428009033 Z " />
       </clipPath>
      </defs>
      <g clip-path="url(#CLIP111)">
       <g>
        <g transform="matrix(1,0,0,1,74.446250916,449.70880127)">
         <text x="1" y="-2.75999999" class="f1">[589</text>
        </g>
       </g>
      </g>
      <defs>
       <clipPath id="CLIP112">
        <path d="M146.992431641,436.390014648 L219.863647461,436.390014648 L219.863647461,450.428009033 L146.992431641,450.428009033 Z " />
       </clipPath>
      </defs>
      <g clip-path="url(#CLIP112)">
       <g>
        <g transform="matrix(1,0,0,1,147.817474365,449.70880127)">
         <text x="1" y="-2.75999999" class="f1">2</text>
        </g>
       </g>
      </g>
      <defs>
       <clipPath id="CLIP113">
        <path d="M220.36366272,436.390014648 L293.234863281,436.390014648 L293.234863281,450.428009033 L220.36366272,450.428009033 Z " />
       </clipPath>
      </defs>
      <g clip-path="url(#CLIP113)">
       <g>
        <g transform="matrix(1,0,0,1,221.188705444,449.70880127)">
         <text x="1" y="-2.75999999" class="f1">259</text>
        </g>
       </g>
      </g>
     </g>
    </g>
    <defs>
     <clipPath id="CLIP114">
      <path d="M-0.5,-0.5 L367.5,-0.5 L367.5,451.5 L-0.5,451.5 Z " />
     </clipPath>
    </defs>
    <g clip-path="url(#CLIP114)">
     <g />
    </g>
   </g>
   <g />
   <g />
   <g />
   <g>
    <g>
     <g />
     <g shape-rendering="crispEdges" />
    </g>
    <g>
     <g />
    </g>
    <g>
     <g />
    </g>
   </g>
   <g>
    <text x="10" y="10" class="f2">Evaluation Only. Created with Aspose.Cells for Python via Java.Copyright 2003 - 2023 Aspose Pty Ltd.</text>
   </g>
  </g>
 </g>
 <defs />
 <defs>
  <style type="text/css">
   <![CDATA[
   
.f0
{
font-family:Microsoft YaHei Light;
font-size:11.039999962px;
fill:#000000;
}

.f1
{
font-family:Calibri;
font-size:11.039999962px;
fill:#000000;
}

.f2
{
font-family:Arial;
font-size:10px;
fill:#FF0000;
}

   
.p0
{
stroke:#000000;
stroke-width:2.907599926px;
stroke-linecap:butt;
stroke-linejoin:miter;
}

   ]]></style>
 </defs>
</svg>
