<?xml version="1.0" encoding="UTF-8" standalone="yes"?>
<svg xmlns="http://www.w3.org/2000/svg" xmlns:xlink="http://www.w3.org/1999/xlink" width="612pt" height="792pt">
 <g id="SFixTitle" />
 <g id="SContent">
  <g transform="scale(1.33333)">
   <rect width="100%" height="100%" fill="white" />
   <g>
    <g>
     <g />
     <g shape-rendering="crispEdges" />
    </g>
    <g>
     <g />
    </g>
    <g>
     <g />
    </g>
   </g>
   <g transform="matrix(1,0,0,1,54,72)">
    <defs>
     <clipPath id="CLIP0">
      <path d="M-0.5,-0.5 L446.5,-0.5 L446.5,146.5 L-0.5,146.5 Z " />
     </clipPath>
    </defs>
    <g clip-path="url(#CLIP0)">
     <g />
     <g shape-rendering="crispEdges" />
    </g>
    <defs>
     <clipPath id="CLIP1">
      <path d="M-0.5,-1.453799963 L446.5,-1.453799963 L446.5,147.546203613 L-0.5,147.546203613 Z " />
     </clipPath>
    </defs>
    <g clip-path="url(#CLIP1)">
     <g>
      <g />
      <path d="M 0,0 L 79.015159607,0" class="p0" fill="none" />
      <path d="M 0,116.304000854 L 79.015159607,116.304000854" class="p0" fill="none" />
      <path d="M 0,0 L 0,14.538000107" class="p0" fill="none" />
      <path d="M 0,116.304000854 L 0,130.841995239" class="p0" fill="none" />
      <path d="M 79.015159607,0 L 152.386383057,0" class="p0" fill="none" />
      <path d="M 79.015159607,116.304000854 L 152.386383057,116.304000854" class="p0" fill="none" />
      <path d="M 79.01499939,0 L 79.01499939,14.538000107" class="p0" fill="none" />
      <path d="M 79.01499939,116.304000854 L 79.01499939,130.841995239" class="p0" fill="none" />
      <path d="M 152.386383057,0 L 225.757598877,0" class="p0" fill="none" />
      <path d="M 152.386383057,116.304000854 L 225.757598877,116.304000854" class="p0" fill="none" />
      <path d="M 152.386001587,116.304000854 L 152.386001587,130.841995239" class="p0" fill="none" />
      <path d="M 225.757598877,0 L 299.128814697,0" class="p0" fill="none" />
      <path d="M 225.757598877,116.304000854 L 299.128814697,116.304000854" class="p0" fill="none" />
      <path d="M 225.757995605,116.304000854 L 225.757995605,130.841995239" class="p0" fill="none" />
      <path d="M 299.128814697,0 L 372.500030518,0" class="p0" fill="none" />
      <path d="M 299.128814697,116.304000854 L 372.500030518,116.304000854" class="p0" fill="none" />
      <path d="M 299.128997803,0 L 299.128997803,14.538000107" class="p0" fill="none" />
      <path d="M 299.128997803,116.304000854 L 299.128997803,130.841995239" class="p0" fill="none" />
      <path d="M 372.500030518,0 L 445.871246338,0" class="p0" fill="none" />
      <path d="M 372.500030518,116.304000854 L 445.871246338,116.304000854" class="p0" fill="none" />
      <path d="M 372.5,116.304000854 L 372.5,130.841995239" class="p0" fill="none" />
      <path d="M 445.871002197,116.304000854 L 445.871002197,130.841995239" class="p0" fill="none" />
      <path d="M 0,14.538000107 L 79.015159607,14.538000107" class="p0" fill="none" />
      <path d="M 0,130.841995239 L 79.015159607,130.841995239" class="p0" fill="none" />
      <path d="M 0,14.538000107 L 0,29.076000214" class="p0" fill="none" />
      <path d="M 0,130.841995239 L 0,145.379989624" class="p0" fill="none" />
      <path d="M 79.015159607,14.538000107 L 152.386383057,14.538000107" class="p0" fill="none" />
      <path d="M 79.015159607,130.841995239 L 152.386383057,130.841995239" class="p0" fill="none" />
      <path d="M 79.01499939,14.538000107 L 79.01499939,29.076000214" class="p0" fill="none" />
      <path d="M 79.01499939,130.841995239 L 79.01499939,145.379989624" class="p0" fill="none" />
      <path d="M 152.386383057,14.538000107 L 225.757598877,14.538000107" class="p0" fill="none" />
      <path d="M 152.386383057,130.841995239 L 225.757598877,130.841995239" class="p0" fill="none" />
      <path d="M 152.386001587,14.538000107 L 152.386001587,29.076000214" class="p0" fill="none" />
      <path d="M 152.386001587,130.841995239 L 152.386001587,145.379989624" class="p0" fill="none" />
      <path d="M 225.757598877,14.538000107 L 299.128814697,14.538000107" class="p0" fill="none" />
      <path d="M 225.757598877,130.841995239 L 299.128814697,130.841995239" class="p0" fill="none" />
      <path d="M 225.757995605,14.538000107 L 225.757995605,29.076000214" class="p0" fill="none" />
      <path d="M 225.757995605,130.841995239 L 225.757995605,145.379989624" class="p0" fill="none" />
      <path d="M 299.128814697,14.538000107 L 372.500030518,14.538000107" class="p0" fill="none" />
      <path d="M 299.128814697,130.841995239 L 372.500030518,130.841995239" class="p0" fill="none" />
      <path d="M 299.128997803,14.538000107 L 299.128997803,29.076000214" class="p0" fill="none" />
      <path d="M 299.128997803,130.841995239 L 299.128997803,145.379989624" class="p0" fill="none" />
      <path d="M 372.500030518,14.538000107 L 445.871246338,14.538000107" class="p0" fill="none" />
      <path d="M 372.500030518,130.841995239 L 445.871246338,130.841995239" class="p0" fill="none" />
      <path d="M 372.5,14.538000107 L 372.5,29.076000214" class="p0" fill="none" />
      <path d="M 372.5,130.841995239 L 372.5,145.379989624" class="p0" fill="none" />
      <path d="M 445.871002197,14.538000107 L 445.871002197,29.076000214" class="p0" fill="none" />
      <path d="M 445.871002197,130.841995239 L 445.871002197,145.379989624" class="p0" fill="none" />
      <path d="M 0,29.076000214 L 79.015159607,29.076000214" class="p0" fill="none" />
      <path d="M 0,145.380004883 L 79.015159607,145.380004883" class="p0" fill="none" />
      <path d="M 0,29.076000214 L 0,43.613998413" class="p0" fill="none" />
      <path d="M 79.015159607,29.076000214 L 152.386383057,29.076000214" class="p0" fill="none" />
      <path d="M 79.015159607,145.380004883 L 152.386383057,145.380004883" class="p0" fill="none" />
      <path d="M 79.01499939,29.076000214 L 79.01499939,43.613998413" class="p0" fill="none" />
      <path d="M 152.386383057,29.076000214 L 225.757598877,29.076000214" class="p0" fill="none" />
      <path d="M 152.386383057,145.380004883 L 225.757598877,145.380004883" class="p0" fill="none" />
      <path d="M 152.386001587,29.076000214 L 152.386001587,43.613998413" class="p0" fill="none" />
      <path d="M 225.757598877,29.076000214 L 299.128814697,29.076000214" class="p0" fill="none" />
      <path d="M 225.757598877,145.380004883 L 299.128814697,145.380004883" class="p0" fill="none" />
      <path d="M 225.757995605,29.076000214 L 225.757995605,43.613998413" class="p0" fill="none" />
      <path d="M 299.128814697,29.076000214 L 372.500030518,29.076000214" class="p0" fill="none" />
      <path d="M 299.128814697,145.380004883 L 372.500030518,145.380004883" class="p0" fill="none" />
      <path d="M 299.128997803,29.076000214 L 299.128997803,43.613998413" class="p0" fill="none" />
      <path d="M 372.500030518,29.076000214 L 445.871246338,29.076000214" class="p0" fill="none" />
      <path d="M 372.500030518,145.380004883 L 445.871246338,145.380004883" class="p0" fill="none" />
      <path d="M 372.5,29.076000214 L 372.5,43.613998413" class="p0" fill="none" />
      <path d="M 445.871002197,29.076000214 L 445.871002197,43.613998413" class="p0" fill="none" />
      <path d="M 0,43.613998413 L 79.015159607,43.613998413" class="p0" fill="none" />
      <path d="M 0,43.613998413 L 0,58.152000427" class="p0" fill="none" />
      <path d="M 79.015159607,43.613998413 L 152.386383057,43.613998413" class="p0" fill="none" />
      <path d="M 79.01499939,43.613998413 L 79.01499939,58.152000427" class="p0" fill="none" />
      <path d="M 152.386383057,43.613998413 L 225.757598877,43.613998413" class="p0" fill="none" />
      <path d="M 152.386001587,43.613998413 L 152.386001587,58.152000427" class="p0" fill="none" />
      <path d="M 225.757598877,43.613998413 L 299.128814697,43.613998413" class="p0" fill="none" />
      <path d="M 225.757995605,43.613998413 L 225.757995605,58.152000427" class="p0" fill="none" />
      <path d="M 299.128814697,43.613998413 L 372.500030518,43.613998413" class="p0" fill="none" />
      <path d="M 299.128997803,43.613998413 L 299.128997803,58.152000427" class="p0" fill="none" />
      <path d="M 372.500030518,43.613998413 L 445.871246338,43.613998413" class="p0" fill="none" />
      <path d="M 372.5,43.613998413 L 372.5,58.152000427" class="p0" fill="none" />
      <path d="M 445.871002197,43.613998413 L 445.871002197,58.152000427" class="p0" fill="none" />
      <path d="M 0,58.152000427 L 79.015159607,58.152000427" class="p0" fill="none" />
      <path d="M 0,58.152000427 L 0,72.690002441" class="p0" fill="none" />
      <path d="M 79.015159607,58.152000427 L 152.386383057,58.152000427" class="p0" fill="none" />
      <path d="M 79.01499939,58.152000427 L 79.01499939,72.690002441" class="p0" fill="none" />
      <path d="M 152.386383057,58.152000427 L 225.757598877,58.152000427" class="p0" fill="none" />
      <path d="M 152.386001587,58.152000427 L 152.386001587,72.690002441" class="p0" fill="none" />
      <path d="M 225.757598877,58.152000427 L 299.128814697,58.152000427" class="p0" fill="none" />
      <path d="M 225.757995605,58.152000427 L 225.757995605,72.690002441" class="p0" fill="none" />
      <path d="M 299.128814697,58.152000427 L 372.500030518,58.152000427" class="p0" fill="none" />
      <path d="M 299.128997803,58.152000427 L 299.128997803,72.690002441" class="p0" fill="none" />
      <path d="M 372.500030518,58.152000427 L 445.871246338,58.152000427" class="p0" fill="none" />
      <path d="M 372.5,58.152000427 L 372.5,72.690002441" class="p0" fill="none" />
      <path d="M 445.871002197,58.152000427 L 445.871002197,72.690002441" class="p0" fill="none" />
      <path d="M 0,72.690002441 L 79.015159607,72.690002441" class="p0" fill="none" />
      <path d="M 0,72.690002441 L 0,87.228004456" class="p0" fill="none" />
      <path d="M 79.015159607,72.690002441 L 152.386383057,72.690002441" class="p0" fill="none" />
      <path d="M 79.01499939,72.690002441 L 79.01499939,87.228004456" class="p0" fill="none" />
      <path d="M 152.386383057,72.690002441 L 225.757598877,72.690002441" class="p0" fill="none" />
      <path d="M 152.386001587,72.690002441 L 152.386001587,87.228004456" class="p0" fill="none" />
      <path d="M 225.757598877,72.690002441 L 299.128814697,72.690002441" class="p0" fill="none" />
      <path d="M 225.757995605,72.690002441 L 225.757995605,87.228004456" class="p0" fill="none" />
      <path d="M 299.128814697,72.690002441 L 372.500030518,72.690002441" class="p0" fill="none" />
      <path d="M 299.128997803,72.690002441 L 299.128997803,87.228004456" class="p0" fill="none" />
      <path d="M 372.500030518,72.690002441 L 445.871246338,72.690002441" class="p0" fill="none" />
      <path d="M 372.5,72.690002441 L 372.5,87.228004456" class="p0" fill="none" />
      <path d="M 445.871002197,72.690002441 L 445.871002197,87.228004456" class="p0" fill="none" />
      <path d="M 0,87.227996826 L 79.015159607,87.227996826" class="p0" fill="none" />
      <path d="M 0,87.227996826 L 0,101.76599884" class="p0" fill="none" />
      <path d="M 79.015159607,87.227996826 L 152.386383057,87.227996826" class="p0" fill="none" />
      <path d="M 79.01499939,87.227996826 L 79.01499939,101.76599884" class="p0" fill="none" />
      <path d="M 152.386383057,87.227996826 L 225.757598877,87.227996826" class="p0" fill="none" />
      <path d="M 152.386001587,87.227996826 L 152.386001587,101.76599884" class="p0" fill="none" />
      <path d="M 225.757598877,87.227996826 L 299.128814697,87.227996826" class="p0" fill="none" />
      <path d="M 225.757995605,87.227996826 L 225.757995605,101.76599884" class="p0" fill="none" />
      <path d="M 299.128814697,87.227996826 L 372.500030518,87.227996826" class="p0" fill="none" />
      <path d="M 299.128997803,87.227996826 L 299.128997803,101.76599884" class="p0" fill="none" />
      <path d="M 372.500030518,87.227996826 L 445.871246338,87.227996826" class="p0" fill="none" />
      <path d="M 372.5,87.227996826 L 372.5,101.76599884" class="p0" fill="none" />
      <path d="M 445.871002197,87.227996826 L 445.871002197,101.76599884" class="p0" fill="none" />
      <path d="M 0,101.76599884 L 79.015159607,101.76599884" class="p0" fill="none" />
      <path d="M 0,101.76599884 L 0,116.304000854" class="p0" fill="none" />
      <path d="M 79.015159607,101.76599884 L 152.386383057,101.76599884" class="p0" fill="none" />
      <path d="M 79.01499939,101.76599884 L 79.01499939,116.304000854" class="p0" fill="none" />
      <path d="M 152.386383057,101.76599884 L 225.757598877,101.76599884" class="p0" fill="none" />
      <path d="M 152.386001587,101.76599884 L 152.386001587,116.304000854" class="p0" fill="none" />
      <path d="M 225.757598877,101.76599884 L 299.128814697,101.76599884" class="p0" fill="none" />
      <path d="M 225.757995605,101.76599884 L 225.757995605,116.304000854" class="p0" fill="none" />
      <path d="M 299.128814697,101.76599884 L 372.500030518,101.76599884" class="p0" fill="none" />
      <path d="M 299.128997803,101.76599884 L 299.128997803,116.304000854" class="p0" fill="none" />
      <path d="M 372.500030518,101.76599884 L 445.871246338,101.76599884" class="p0" fill="none" />
      <path d="M 372.5,101.76599884 L 372.5,116.304000854" class="p0" fill="none" />
      <path d="M 445.871002197,101.76599884 L 445.871002197,116.304000854" class="p0" fill="none" />
     </g>
    </g>
    <defs>
     <clipPath id="CLIP2">
      <path d="M-0.5,-0.5 L446.5,-0.5 L446.5,146.5 L-0.5,146.5 Z " />
     </clipPath>
    </defs>
    <g clip-path="url(#CLIP2)">
     <g>
      <defs>
       <clipPath id="CLIP3">
        <path d="M0.25,0.25 L78.765159607,0.25 L78.765159607,14.288000107 L0.25,14.288000107 Z " />
       </clipPath>
      </defs>
      <g clip-path="url(#CLIP3)">
       <g>
        <g transform="matrix(1,0,0,1,0,13.568799973)">
         <text x="1" y="-2.770781279" class="f0">（</text>
         <text x="12.039999962" y="-2.770781279" class="f0">人</text>
         <text x="23.079999924" y="-2.770781279" class="f0">民</text>
         <text x="34.119998932" y="-2.770781279" class="f0">币</text>
         <text x="45.159999847" y="-2.770781279" class="f0">百</text>
         <text x="56.200000763" y="-2.770781279" class="f0">万</text>
         <text x="67.239997864" y="-2.770781279" class="f0">元</text>
         <text x="78.279998779" y="-2.770781279" class="f0">）</text>
        </g>
       </g>
      </g>
      <defs>
       <clipPath id="CLIP4">
        <path d="M79.265159607,0.25 L298.878814697,0.25 L298.878814697,14.288000107 L79.265159607,14.288000107 Z " />
       </clipPath>
      </defs>
      <g clip-path="url(#CLIP4)">
       <g>
        <g transform="matrix(1,0,0,1,80.090194702,13.568799973)">
         <text x="1" y="-2.75999999" class="f1">2018E</text>
        </g>
       </g>
      </g>
      <defs>
       <clipPath id="CLIP5">
        <path d="M299.378814697,0.25 L518.992492676,0.25 L518.992492676,14.288000107 L299.378814697,14.288000107 Z " />
       </clipPath>
      </defs>
      <g clip-path="url(#CLIP5)">
       <g>
        <g transform="matrix(1,0,0,1,300.203857422,13.568799973)">
         <text x="1" y="-2.75999999" class="f1">2019E</text>
        </g>
       </g>
      </g>
      <defs>
       <clipPath id="CLIP6">
        <path d="M79.265159607,14.788000107 L152.136383057,14.788000107 L152.136383057,28.826000214 L79.265159607,28.826000214 Z " />
       </clipPath>
      </defs>
      <g clip-path="url(#CLIP6)">
       <g>
        <g transform="matrix(1,0,0,1,80.090194702,28.106800079)">
         <text x="1" y="-2.770781279" class="f0">调</text>
         <text x="12.039999962" y="-2.770781279" class="f0">整</text>
         <text x="23.079999924" y="-2.770781279" class="f0">前</text>
        </g>
       </g>
      </g>
      <defs>
       <clipPath id="CLIP7">
        <path d="M152.636383057,14.788000107 L225.507598877,14.788000107 L225.507598877,28.826000214 L152.636383057,28.826000214 Z " />
       </clipPath>
      </defs>
      <g clip-path="url(#CLIP7)">
       <g>
        <g transform="matrix(1,0,0,1,153.461425781,28.106800079)">
         <text x="1" y="-2.770781279" class="f0">调</text>
         <text x="12.039999962" y="-2.770781279" class="f0">整</text>
         <text x="23.079999924" y="-2.770781279" class="f0">后</text>
        </g>
       </g>
      </g>
      <defs>
       <clipPath id="CLIP8">
        <path d="M226.007598877,14.788000107 L298.878814697,14.788000107 L298.878814697,28.826000214 L226.007598877,28.826000214 Z " />
       </clipPath>
      </defs>
      <g clip-path="url(#CLIP8)">
       <g>
        <g transform="matrix(1,0,0,1,226.832641602,28.106800079)">
         <text x="1" y="-2.770781279" class="f0">调</text>
         <text x="12.039999962" y="-2.770781279" class="f0">整</text>
         <text x="23.079999924" y="-2.770781279" class="f0">幅</text>
         <text x="34.119998932" y="-2.770781279" class="f0">度</text>
        </g>
       </g>
      </g>
      <defs>
       <clipPath id="CLIP9">
        <path d="M299.378814697,14.788000107 L372.250030518,14.788000107 L372.250030518,28.826000214 L299.378814697,28.826000214 Z " />
       </clipPath>
      </defs>
      <g clip-path="url(#CLIP9)">
       <g>
        <g transform="matrix(1,0,0,1,300.203857422,28.106800079)">
         <text x="1" y="-2.770781279" class="f0">调</text>
         <text x="12.039999962" y="-2.770781279" class="f0">整</text>
         <text x="23.079999924" y="-2.770781279" class="f0">前</text>
        </g>
       </g>
      </g>
      <defs>
       <clipPath id="CLIP10">
        <path d="M372.750030518,14.788000107 L445.621246338,14.788000107 L445.621246338,28.826000214 L372.750030518,28.826000214 Z " />
       </clipPath>
      </defs>
      <g clip-path="url(#CLIP10)">
       <g>
        <g transform="matrix(1,0,0,1,373.575073242,28.106800079)">
         <text x="1" y="-2.770781279" class="f0">调</text>
         <text x="12.039999962" y="-2.770781279" class="f0">整</text>
         <text x="23.079999924" y="-2.770781279" class="f0">后</text>
        </g>
       </g>
      </g>
      <defs>
       <clipPath id="CLIP11">
        <path d="M0.25,29.326000214 L78.765159607,29.326000214 L78.765159607,43.363998413 L0.25,43.363998413 Z " />
       </clipPath>
      </defs>
      <g clip-path="url(#CLIP11)">
       <g>
        <g transform="matrix(1,0,0,1,1.075036168,42.644798279)">
         <text x="1" y="-2.770781279" class="f0">营</text>
         <text x="12.039999962" y="-2.770781279" class="f0">业</text>
         <text x="23.079999924" y="-2.770781279" class="f0">收</text>
         <text x="34.119998932" y="-2.770781279" class="f0">入</text>
        </g>
       </g>
      </g>
      <defs>
       <clipPath id="CLIP12">
        <path d="M79.265159607,29.326000214 L152.136383057,29.326000214 L152.136383057,43.363998413 L79.265159607,43.363998413 Z " />
       </clipPath>
      </defs>
      <g clip-path="url(#CLIP12)">
       <g>
        <g transform="matrix(1,0,0,1,80.090194702,42.644798279)">
         <text x="1" y="-2.75999999" class="f1">158</text>
        </g>
       </g>
      </g>
      <defs>
       <clipPath id="CLIP13">
        <path d="M152.636383057,29.326000214 L225.507598877,29.326000214 L225.507598877,43.363998413 L152.636383057,43.363998413 Z " />
       </clipPath>
      </defs>
      <g clip-path="url(#CLIP13)">
       <g>
        <g transform="matrix(1,0,0,1,153.461425781,42.644798279)">
         <text x="1" y="-2.75999999" class="f1">132</text>
        </g>
       </g>
      </g>
      <defs>
       <clipPath id="CLIP14">
        <path d="M226.007598877,29.326000214 L298.878814697,29.326000214 L298.878814697,43.363998413 L226.007598877,43.363998413 Z " />
       </clipPath>
      </defs>
      <g clip-path="url(#CLIP14)">
       <g>
        <g transform="matrix(1,0,0,1,226.832641602,42.644798279)">
         <text x="1" y="-2.75999999" class="f1">-16.39%</text>
        </g>
       </g>
      </g>
      <defs>
       <clipPath id="CLIP15">
        <path d="M299.378814697,29.326000214 L372.250030518,29.326000214 L372.250030518,43.363998413 L299.378814697,43.363998413 Z " />
       </clipPath>
      </defs>
      <g clip-path="url(#CLIP15)">
       <g>
        <g transform="matrix(1,0,0,1,300.203857422,42.644798279)">
         <text x="1" y="-2.75999999" class="f1">186</text>
        </g>
       </g>
      </g>
      <defs>
       <clipPath id="CLIP16">
        <path d="M372.750030518,29.326000214 L445.621246338,29.326000214 L445.621246338,43.363998413 L372.750030518,43.363998413 Z " />
       </clipPath>
      </defs>
      <g clip-path="url(#CLIP16)">
       <g>
        <g transform="matrix(1,0,0,1,373.575073242,42.644798279)">
         <text x="1" y="-2.75999999" class="f1">138</text>
        </g>
       </g>
      </g>
      <defs>
       <clipPath id="CLIP17">
        <path d="M0.25,43.863998413 L78.765159607,43.863998413 L78.765159607,57.902000427 L0.25,57.902000427 Z " />
       </clipPath>
      </defs>
      <g clip-path="url(#CLIP17)">
       <g>
        <g transform="matrix(1,0,0,1,1.075036168,57.182800293)">
         <text x="1" y="-2.770781279" class="f0">毛</text>
         <text x="12.039999962" y="-2.770781279" class="f0">利</text>
         <text x="23.079999924" y="-2.770781279" class="f0">润</text>
        </g>
       </g>
      </g>
      <defs>
       <clipPath id="CLIP18">
        <path d="M79.265159607,43.863998413 L152.136383057,43.863998413 L152.136383057,57.902000427 L79.265159607,57.902000427 Z " />
       </clipPath>
      </defs>
      <g clip-path="url(#CLIP18)">
       <g>
        <g transform="matrix(1,0,0,1,80.090194702,57.182800293)">
         <text x="1" y="-2.75999999" class="f1">100</text>
        </g>
       </g>
      </g>
      <defs>
       <clipPath id="CLIP19">
        <path d="M152.636383057,43.863998413 L225.507598877,43.863998413 L225.507598877,57.902000427 L152.636383057,57.902000427 Z " />
       </clipPath>
      </defs>
      <g clip-path="url(#CLIP19)">
       <g>
        <g transform="matrix(1,0,0,1,153.461425781,57.182800293)">
         <text x="1" y="-2.75999999" class="f1">85</text>
        </g>
       </g>
      </g>
      <defs>
       <clipPath id="CLIP20">
        <path d="M226.007598877,43.863998413 L298.878814697,43.863998413 L298.878814697,57.902000427 L226.007598877,57.902000427 Z " />
       </clipPath>
      </defs>
      <g clip-path="url(#CLIP20)">
       <g>
        <g transform="matrix(1,0,0,1,226.832641602,57.182800293)">
         <text x="1" y="-2.75999999" class="f1">-15.1%</text>
        </g>
       </g>
      </g>
      <defs>
       <clipPath id="CLIP21">
        <path d="M299.378814697,43.863998413 L372.250030518,43.863998413 L372.250030518,57.902000427 L299.378814697,57.902000427 Z " />
       </clipPath>
      </defs>
      <g clip-path="url(#CLIP21)">
       <g>
        <g transform="matrix(1,0,0,1,300.203857422,57.182800293)">
         <text x="1" y="-2.75999999" class="f1">124</text>
        </g>
       </g>
      </g>
      <defs>
       <clipPath id="CLIP22">
        <path d="M372.750030518,43.863998413 L445.621246338,43.863998413 L445.621246338,57.902000427 L372.750030518,57.902000427 Z " />
       </clipPath>
      </defs>
      <g clip-path="url(#CLIP22)">
       <g>
        <g transform="matrix(1,0,0,1,373.575073242,57.182800293)">
         <text x="1" y="-2.75999999" class="f1">91</text>
        </g>
       </g>
      </g>
      <defs>
       <clipPath id="CLIP23">
        <path d="M0.25,58.402000427 L78.765159607,58.402000427 L78.765159607,72.440002441 L0.25,72.440002441 Z " />
       </clipPath>
      </defs>
      <g clip-path="url(#CLIP23)">
       <g>
        <g transform="matrix(1,0,0,1,1.075036168,71.720802307)">
         <text x="1" y="-2.770781279" class="f0">营</text>
         <text x="12.039999962" y="-2.770781279" class="f0">业</text>
         <text x="23.079999924" y="-2.770781279" class="f0">利</text>
         <text x="34.119998932" y="-2.770781279" class="f0">润</text>
        </g>
       </g>
      </g>
      <defs>
       <clipPath id="CLIP24">
        <path d="M79.265159607,58.402000427 L152.136383057,58.402000427 L152.136383057,72.440002441 L79.265159607,72.440002441 Z " />
       </clipPath>
      </defs>
      <g clip-path="url(#CLIP24)">
       <g>
        <g transform="matrix(1,0,0,1,80.090194702,71.720802307)">
         <text x="1" y="-2.75999999" class="f1">73</text>
        </g>
       </g>
      </g>
      <defs>
       <clipPath id="CLIP25">
        <path d="M152.636383057,58.402000427 L225.507598877,58.402000427 L225.507598877,72.440002441 L152.636383057,72.440002441 Z " />
       </clipPath>
      </defs>
      <g clip-path="url(#CLIP25)">
       <g>
        <g transform="matrix(1,0,0,1,153.461425781,71.720802307)">
         <text x="1" y="-2.75999999" class="f1">61</text>
        </g>
       </g>
      </g>
      <defs>
       <clipPath id="CLIP26">
        <path d="M226.007598877,58.402000427 L298.878814697,58.402000427 L298.878814697,72.440002441 L226.007598877,72.440002441 Z " />
       </clipPath>
      </defs>
      <g clip-path="url(#CLIP26)">
       <g>
        <g transform="matrix(1,0,0,1,226.832641602,71.720802307)">
         <text x="1" y="-2.75999999" class="f1">-15.5%</text>
        </g>
       </g>
      </g>
      <defs>
       <clipPath id="CLIP27">
        <path d="M299.378814697,58.402000427 L372.250030518,58.402000427 L372.250030518,72.440002441 L299.378814697,72.440002441 Z " />
       </clipPath>
      </defs>
      <g clip-path="url(#CLIP27)">
       <g>
        <g transform="matrix(1,0,0,1,300.203857422,71.720802307)">
         <text x="1" y="-2.75999999" class="f1">92</text>
        </g>
       </g>
      </g>
      <defs>
       <clipPath id="CLIP28">
        <path d="M372.750030518,58.402000427 L445.621246338,58.402000427 L445.621246338,72.440002441 L372.750030518,72.440002441 Z " />
       </clipPath>
      </defs>
      <g clip-path="url(#CLIP28)">
       <g>
        <g transform="matrix(1,0,0,1,373.575073242,71.720802307)">
         <text x="1" y="-2.75999999" class="f1">67</text>
        </g>
       </g>
      </g>
      <defs>
       <clipPath id="CLIP29">
        <path d="M0.25,72.940002441 L78.765159607,72.940002441 L78.765159607,86.978004456 L0.25,86.978004456 Z " />
       </clipPath>
      </defs>
      <g clip-path="url(#CLIP29)">
       <g>
        <g transform="matrix(1,0,0,1,1.075036168,86.258804321)">
         <text x="1" y="-2.770781279" class="f0">归</text>
         <text x="12.039999962" y="-2.770781279" class="f0">母</text>
         <text x="23.079999924" y="-2.770781279" class="f0">净</text>
         <text x="34.119998932" y="-2.770781279" class="f0">利</text>
         <text x="45.159999847" y="-2.770781279" class="f0">润</text>
        </g>
       </g>
      </g>
      <defs>
       <clipPath id="CLIP30">
        <path d="M79.265159607,72.940002441 L152.136383057,72.940002441 L152.136383057,86.978004456 L79.265159607,86.978004456 Z " />
       </clipPath>
      </defs>
      <g clip-path="url(#CLIP30)">
       <g>
        <g transform="matrix(1,0,0,1,80.090194702,86.258804321)">
         <text x="1" y="-2.75999999" class="f1">58</text>
        </g>
       </g>
      </g>
      <defs>
       <clipPath id="CLIP31">
        <path d="M152.636383057,72.940002441 L225.507598877,72.940002441 L225.507598877,86.978004456 L152.636383057,86.978004456 Z " />
       </clipPath>
      </defs>
      <g clip-path="url(#CLIP31)">
       <g>
        <g transform="matrix(1,0,0,1,153.461425781,86.258804321)">
         <text x="1" y="-2.75999999" class="f1">49</text>
        </g>
       </g>
      </g>
      <defs>
       <clipPath id="CLIP32">
        <path d="M226.007598877,72.940002441 L298.878814697,72.940002441 L298.878814697,86.978004456 L226.007598877,86.978004456 Z " />
       </clipPath>
      </defs>
      <g clip-path="url(#CLIP32)">
       <g>
        <g transform="matrix(1,0,0,1,226.832641602,86.258804321)">
         <text x="1" y="-2.75999999" class="f1">14.8%</text>
        </g>
       </g>
      </g>
      <defs>
       <clipPath id="CLIP33">
        <path d="M299.378814697,72.940002441 L372.250030518,72.940002441 L372.250030518,86.978004456 L299.378814697,86.978004456 Z " />
       </clipPath>
      </defs>
      <g clip-path="url(#CLIP33)">
       <g>
        <g transform="matrix(1,0,0,1,300.203857422,86.258804321)">
         <text x="1" y="-2.75999999" class="f1">74</text>
        </g>
       </g>
      </g>
      <defs>
       <clipPath id="CLIP34">
        <path d="M372.750030518,72.940002441 L445.621246338,72.940002441 L445.621246338,86.978004456 L372.750030518,86.978004456 Z " />
       </clipPath>
      </defs>
      <g clip-path="url(#CLIP34)">
       <g>
        <g transform="matrix(1,0,0,1,373.575073242,86.258804321)">
         <text x="1" y="-2.75999999" class="f1">54</text>
        </g>
       </g>
      </g>
      <defs>
       <clipPath id="CLIP35">
        <path d="M0.25,87.477996826 L78.765159607,87.477996826 L78.765159607,101.51599884 L0.25,101.51599884 Z " />
       </clipPath>
      </defs>
      <g clip-path="url(#CLIP35)">
       <g>
        <g transform="matrix(1,0,0,1,0,100.796798706)">
         <text x="1" y="-2.770781279" class="f0">全</text>
         <text x="12.039999962" y="-2.770781279" class="f0">面</text>
         <text x="23.079999924" y="-2.770781279" class="f0">摊</text>
         <text x="34.119998932" y="-2.770781279" class="f0">薄</text>
         <text x="45.159999847" y="-2.770781279" class="f0">每</text>
         <text x="56.200000763" y="-2.770781279" class="f0">股</text>
         <text x="67.239997864" y="-2.770781279" class="f0">收</text>
         <text x="78.279998779" y="-2.770781279" class="f0">益</text>
         <text x="89.319999695" y="-2.770781279" class="f1"> </text>
         <text x="91.815856934" y="-2.770781279" class="f1">(</text>
         <text x="95.16343689" y="-2.770781279" class="f0">元</text>
         <text x="106.203437805" y="-2.770781279" class="f1">)</text>
        </g>
       </g>
      </g>
      <defs>
       <clipPath id="CLIP36">
        <path d="M79.265159607,87.477996826 L152.136383057,87.477996826 L152.136383057,101.51599884 L79.265159607,101.51599884 Z " />
       </clipPath>
      </defs>
      <g clip-path="url(#CLIP36)">
       <g>
        <g transform="matrix(1,0,0,1,80.090194702,100.796798706)">
         <text x="1" y="-2.75999999" class="f1">0.16</text>
        </g>
       </g>
      </g>
      <defs>
       <clipPath id="CLIP37">
        <path d="M152.636383057,87.477996826 L225.507598877,87.477996826 L225.507598877,101.51599884 L152.636383057,101.51599884 Z " />
       </clipPath>
      </defs>
      <g clip-path="url(#CLIP37)">
       <g>
        <g transform="matrix(1,0,0,1,153.461425781,100.796798706)">
         <text x="1" y="-2.75999999" class="f1">0.14</text>
        </g>
       </g>
      </g>
      <defs>
       <clipPath id="CLIP38">
        <path d="M226.007598877,87.477996826 L298.878814697,87.477996826 L298.878814697,101.51599884 L226.007598877,101.51599884 Z " />
       </clipPath>
      </defs>
      <g clip-path="url(#CLIP38)">
       <g>
        <g transform="matrix(1,0,0,1,226.832641602,100.796798706)">
         <text x="1" y="-2.75999999" class="f1">-14.8%</text>
        </g>
       </g>
      </g>
      <defs>
       <clipPath id="CLIP39">
        <path d="M299.378814697,87.477996826 L372.250030518,87.477996826 L372.250030518,101.51599884 L299.378814697,101.51599884 Z " />
       </clipPath>
      </defs>
      <g clip-path="url(#CLIP39)">
       <g>
        <g transform="matrix(1,0,0,1,300.203857422,100.796798706)">
         <text x="1" y="-2.75999999" class="f1">0.21</text>
        </g>
       </g>
      </g>
      <defs>
       <clipPath id="CLIP40">
        <path d="M372.750030518,87.477996826 L445.621246338,87.477996826 L445.621246338,101.51599884 L372.750030518,101.51599884 Z " />
       </clipPath>
      </defs>
      <g clip-path="url(#CLIP40)">
       <g>
        <g transform="matrix(1,0,0,1,373.575073242,100.796798706)">
         <text x="1" y="-2.75999999" class="f1">0.15</text>
        </g>
       </g>
      </g>
      <defs>
       <clipPath id="CLIP41">
        <path d="M0.25,102.01599884 L78.765159607,102.01599884 L78.765159607,116.054000854 L0.25,116.054000854 Z " />
       </clipPath>
      </defs>
      <g clip-path="url(#CLIP41)">
       <g>
        <g transform="matrix(1,0,0,1,1.075036168,115.33480072)">
         <text x="1" y="-2.770781279" class="f0">毛</text>
         <text x="12.039999962" y="-2.770781279" class="f0">利</text>
         <text x="23.079999924" y="-2.770781279" class="f0">率</text>
        </g>
       </g>
      </g>
      <defs>
       <clipPath id="CLIP42">
        <path d="M79.265159607,102.01599884 L152.136383057,102.01599884 L152.136383057,116.054000854 L79.265159607,116.054000854 Z " />
       </clipPath>
      </defs>
      <g clip-path="url(#CLIP42)">
       <g>
        <g transform="matrix(1,0,0,1,80.090194702,115.33480072)">
         <text x="1" y="-2.75999999" class="f1">63.2%</text>
        </g>
       </g>
      </g>
      <defs>
       <clipPath id="CLIP43">
        <path d="M152.636383057,102.01599884 L225.507598877,102.01599884 L225.507598877,116.054000854 L152.636383057,116.054000854 Z " />
       </clipPath>
      </defs>
      <g clip-path="url(#CLIP43)">
       <g>
        <g transform="matrix(1,0,0,1,153.461425781,115.33480072)">
         <text x="1" y="-2.75999999" class="f1">64.1%</text>
        </g>
       </g>
      </g>
      <defs>
       <clipPath id="CLIP44">
        <path d="M372.750030518,102.01599884 L445.621246338,102.01599884 L445.621246338,116.054000854 L372.750030518,116.054000854 Z " />
       </clipPath>
      </defs>
      <g clip-path="url(#CLIP44)">
       <g>
        <g transform="matrix(1,0,0,1,373.575073242,115.33480072)">
         <text x="1" y="-2.75999999" class="f1">66.4%</text>
        </g>
       </g>
      </g>
      <defs>
       <clipPath id="CLIP45">
        <path d="M0.25,116.554000854 L78.765159607,116.554000854 L78.765159607,130.591995239 L0.25,130.591995239 Z " />
       </clipPath>
      </defs>
      <g clip-path="url(#CLIP45)">
       <g>
        <g transform="matrix(1,0,0,1,1.075036168,129.872787476)">
         <text x="1" y="-2.770781279" class="f0">营</text>
         <text x="12.039999962" y="-2.770781279" class="f0">业</text>
         <text x="23.079999924" y="-2.770781279" class="f0">利</text>
         <text x="34.119998932" y="-2.770781279" class="f0">润</text>
         <text x="45.159999847" y="-2.770781279" class="f0">率</text>
        </g>
       </g>
      </g>
      <defs>
       <clipPath id="CLIP46">
        <path d="M79.265159607,116.554000854 L152.136383057,116.554000854 L152.136383057,130.591995239 L79.265159607,130.591995239 Z " />
       </clipPath>
      </defs>
      <g clip-path="url(#CLIP46)">
       <g>
        <g transform="matrix(1,0,0,1,80.090194702,129.872787476)">
         <text x="1" y="-2.75999999" class="f1">46.2%</text>
        </g>
       </g>
      </g>
      <defs>
       <clipPath id="CLIP47">
        <path d="M152.636383057,116.554000854 L225.507598877,116.554000854 L225.507598877,130.591995239 L152.636383057,130.591995239 Z " />
       </clipPath>
      </defs>
      <g clip-path="url(#CLIP47)">
       <g>
        <g transform="matrix(1,0,0,1,153.461425781,129.872787476)">
         <text x="1" y="-2.75999999" class="f1">46.6%</text>
        </g>
       </g>
      </g>
      <defs>
       <clipPath id="CLIP48">
        <path d="M226.007598877,116.554000854 L298.878814697,116.554000854 L298.878814697,130.591995239 L226.007598877,130.591995239 Z " />
       </clipPath>
      </defs>
      <g clip-path="url(#CLIP48)">
       <g>
        <g transform="matrix(1,0,0,1,226.832641602,129.872787476)">
         <text x="1" y="-2.75999999" class="f1">0.4%</text>
        </g>
       </g>
      </g>
      <defs>
       <clipPath id="CLIP49">
        <path d="M299.378814697,116.554000854 L372.250030518,116.554000854 L372.250030518,130.591995239 L299.378814697,130.591995239 Z " />
       </clipPath>
      </defs>
      <g clip-path="url(#CLIP49)">
       <g>
        <g transform="matrix(1,0,0,1,300.203857422,129.872787476)">
         <text x="1" y="-2.770781279" class="f1">4</text>
         <text x="6.595468521" y="-2.770781279" class="f1">9</text>
         <text x="12.190937042" y="-2.770781279" class="f1">.</text>
         <text x="14.977890015" y="-2.770781279" class="f1">6</text>
         <text x="20.573358536" y="-2.770781279" class="f1">%</text>
         <text x="28.465232849" y="-2.770781279" class="f0">。</text>
        </g>
       </g>
      </g>
      <defs>
       <clipPath id="CLIP50">
        <path d="M372.750030518,116.554000854 L445.621246338,116.554000854 L445.621246338,130.591995239 L372.750030518,130.591995239 Z " />
       </clipPath>
      </defs>
      <g clip-path="url(#CLIP50)">
       <g>
        <g transform="matrix(1,0,0,1,373.575073242,129.872787476)">
         <text x="1" y="-2.75999999" class="f1">48.9%</text>
        </g>
       </g>
      </g>
      <defs>
       <clipPath id="CLIP51">
        <path d="M0.25,131.091995239 L78.765159607,131.091995239 L78.765159607,145.129989624 L0.25,145.129989624 Z " />
       </clipPath>
      </defs>
      <g clip-path="url(#CLIP51)">
       <g>
        <g transform="matrix(1,0,0,1,1.075036168,144.410797119)">
         <text x="1" y="-2.770781279" class="f0">净</text>
         <text x="12.039999962" y="-2.770781279" class="f0">利</text>
         <text x="23.079999924" y="-2.770781279" class="f0">润</text>
         <text x="34.119998932" y="-2.770781279" class="f0">率</text>
        </g>
       </g>
      </g>
      <defs>
       <clipPath id="CLIP52">
        <path d="M79.265159607,131.091995239 L152.136383057,131.091995239 L152.136383057,145.129989624 L79.265159607,145.129989624 Z " />
       </clipPath>
      </defs>
      <g clip-path="url(#CLIP52)">
       <g>
        <g transform="matrix(1,0,0,1,80.090194702,144.410797119)">
         <text x="1" y="-2.75999999" class="f1">36.8%</text>
        </g>
       </g>
      </g>
      <defs>
       <clipPath id="CLIP53">
        <path d="M152.636383057,131.091995239 L225.507598877,131.091995239 L225.507598877,145.129989624 L152.636383057,145.129989624 Z " />
       </clipPath>
      </defs>
      <g clip-path="url(#CLIP53)">
       <g>
        <g transform="matrix(1,0,0,1,153.461425781,144.410797119)">
         <text x="1" y="-2.75999999" class="f1">37.4%</text>
        </g>
       </g>
      </g>
      <defs>
       <clipPath id="CLIP54">
        <path d="M226.007598877,131.091995239 L298.878814697,131.091995239 L298.878814697,145.129989624 L226.007598877,145.129989624 Z " />
       </clipPath>
      </defs>
      <g clip-path="url(#CLIP54)">
       <g>
        <g transform="matrix(1,0,0,1,226.832641602,144.410797119)">
         <text x="1" y="-2.75999999" class="f1">0.7%</text>
        </g>
       </g>
      </g>
      <defs>
       <clipPath id="CLIP55">
        <path d="M299.378814697,131.091995239 L372.250030518,131.091995239 L372.250030518,145.129989624 L299.378814697,145.129989624 Z " />
       </clipPath>
      </defs>
      <g clip-path="url(#CLIP55)">
       <g>
        <g transform="matrix(1,0,0,1,300.203857422,144.410797119)">
         <text x="1" y="-2.75999999" class="f1">39.6%</text>
        </g>
       </g>
      </g>
      <defs>
       <clipPath id="CLIP56">
        <path d="M372.750030518,131.091995239 L445.621246338,131.091995239 L445.621246338,145.129989624 L372.750030518,145.129989624 Z " />
       </clipPath>
      </defs>
      <g clip-path="url(#CLIP56)">
       <g>
        <g transform="matrix(1,0,0,1,373.575073242,144.410797119)">
         <text x="1" y="-2.75999999" class="f1">39.2%</text>
        </g>
       </g>
      </g>
     </g>
    </g>
    <defs>
     <clipPath id="CLIP57">
      <path d="M-0.5,-0.5 L446.5,-0.5 L446.5,146.5 L-0.5,146.5 Z " />
     </clipPath>
    </defs>
    <g clip-path="url(#CLIP57)">
     <g />
    </g>
   </g>
   <g />
   <g />
   <g />
   <g>
    <g>
     <g />
     <g shape-rendering="crispEdges" />
    </g>
    <g>
     <g />
    </g>
    <g>
     <g />
    </g>
   </g>
   <g>
    <text x="10" y="10" class="f2">Evaluation Only. Created with Aspose.Cells for Python via Java.Copyright 2003 - 2023 Aspose Pty Ltd.</text>
   </g>
  </g>
 </g>
 <defs />
 <defs>
  <style type="text/css">
   <![CDATA[
   
.f0
{
font-family:Microsoft YaHei Light;
font-size:11.039999962px;
fill:#000000;
}

.f1
{
font-family:Calibri;
font-size:11.039999962px;
fill:#000000;
}

.f2
{
font-family:Arial;
font-size:10px;
fill:#FF0000;
}

   
.p0
{
stroke:#101010;
stroke-width:0.969200015px;
stroke-linecap:butt;
stroke-linejoin:miter;
}

   ]]></style>
 </defs>
</svg>
