<?xml version="1.0" encoding="UTF-8" standalone="yes"?>
<svg xmlns="http://www.w3.org/2000/svg" xmlns:xlink="http://www.w3.org/1999/xlink" width="612pt" height="792pt">
 <g id="SFixTitle" />
 <g id="SContent">
  <g transform="scale(1.33333)">
   <rect width="100%" height="100%" fill="white" />
   <g>
    <g>
     <g />
     <g shape-rendering="crispEdges" />
    </g>
    <g>
     <g />
    </g>
    <g>
     <g />
    </g>
   </g>
   <g transform="matrix(1,0,0,1,54,72)">
    <defs>
     <clipPath id="CLIP0">
      <path d="M-0.5,-0.5 L469.5,-0.5 L469.5,189.5 L-0.5,189.5 Z " />
     </clipPath>
    </defs>
    <g clip-path="url(#CLIP0)">
     <g />
     <g shape-rendering="crispEdges" />
    </g>
    <defs>
     <clipPath id="CLIP1">
      <path d="M-0.5,-1.453799963 L469.5,-1.453799963 L469.5,190.546203613 L-0.5,190.546203613 Z " />
     </clipPath>
    </defs>
    <g clip-path="url(#CLIP1)">
     <g>
      <g />
     </g>
    </g>
    <defs>
     <clipPath id="CLIP2">
      <path d="M-0.5,-0.5 L469.5,-0.5 L469.5,189.5 L-0.5,189.5 Z " />
     </clipPath>
    </defs>
    <g clip-path="url(#CLIP2)">
     <g>
      <defs>
       <clipPath id="CLIP3">
        <path d="M0.25,0.25 L73.12121582,0.25 L73.12121582,14.288000107 L0.25,14.288000107 Z " />
       </clipPath>
      </defs>
      <g clip-path="url(#CLIP3)">
       <g>
        <g transform="matrix(1,0,0,1,0,13.568799973)">
         <text x="1" y="-2.770781279" class="f0">（</text>
         <text x="12.039999962" y="-2.770781279" class="f0">人</text>
         <text x="23.079999924" y="-2.770781279" class="f0">民</text>
         <text x="34.119998932" y="-2.770781279" class="f0">币</text>
         <text x="45.159999847" y="-2.770781279" class="f0">百</text>
         <text x="56.200000763" y="-2.770781279" class="f0">万</text>
         <text x="67.239997864" y="-2.770781279" class="f0">元</text>
         <text x="78.279998779" y="-2.770781279" class="f0">）</text>
        </g>
       </g>
      </g>
      <defs>
       <clipPath id="CLIP4">
        <path d="M73.62121582,0.25 L321.454589844,0.25 L321.454589844,14.288000107 L73.62121582,14.288000107 Z " />
       </clipPath>
      </defs>
      <g clip-path="url(#CLIP4)">
       <g>
        <g transform="matrix(1,0,0,1,74.446250916,13.568799973)">
         <text x="1" y="-2.75999999" class="f1">2018E</text>
        </g>
       </g>
      </g>
      <defs>
       <clipPath id="CLIP5">
        <path d="M321.954559326,0.25 L541.568237305,0.25 L541.568237305,14.288000107 L321.954559326,14.288000107 Z " />
       </clipPath>
      </defs>
      <g clip-path="url(#CLIP5)">
       <g>
        <g transform="matrix(1,0,0,1,322.779602051,13.568799973)">
         <text x="1" y="-2.75999999" class="f1">2019E</text>
        </g>
       </g>
      </g>
      <defs>
       <clipPath id="CLIP6">
        <path d="M73.62121582,14.788000107 L174.712127686,14.788000107 L174.712127686,28.826000214 L73.62121582,28.826000214 Z " />
       </clipPath>
      </defs>
      <g clip-path="url(#CLIP6)">
       <g>
        <g transform="matrix(1,0,0,1,74.446250916,28.106800079)">
         <text x="1" y="-2.770781279" class="f0">调</text>
         <text x="12.039999962" y="-2.770781279" class="f0">整</text>
         <text x="23.079999924" y="-2.770781279" class="f0">前</text>
        </g>
       </g>
      </g>
      <defs>
       <clipPath id="CLIP7">
        <path d="M175.212142944,14.788000107 L248.083358765,14.788000107 L248.083358765,28.826000214 L175.212142944,28.826000214 Z " />
       </clipPath>
      </defs>
      <g clip-path="url(#CLIP7)">
       <g>
        <g transform="matrix(1,0,0,1,176.037185669,28.106800079)">
         <text x="1" y="-2.770781279" class="f0">调</text>
         <text x="12.039999962" y="-2.770781279" class="f0">整</text>
         <text x="23.079999924" y="-2.770781279" class="f0">后</text>
        </g>
       </g>
      </g>
      <defs>
       <clipPath id="CLIP8">
        <path d="M248.583358765,14.788000107 L321.454589844,14.788000107 L321.454589844,28.826000214 L248.583358765,28.826000214 Z " />
       </clipPath>
      </defs>
      <g clip-path="url(#CLIP8)">
       <g>
        <g transform="matrix(1,0,0,1,249.408401489,28.106800079)">
         <text x="1" y="-2.770781279" class="f0">调</text>
         <text x="12.039999962" y="-2.770781279" class="f0">整</text>
         <text x="23.079999924" y="-2.770781279" class="f0">幅</text>
         <text x="34.119998932" y="-2.770781279" class="f0">度</text>
        </g>
       </g>
      </g>
      <defs>
       <clipPath id="CLIP9">
        <path d="M321.954559326,14.788000107 L394.825775146,14.788000107 L394.825775146,28.826000214 L321.954559326,28.826000214 Z " />
       </clipPath>
      </defs>
      <g clip-path="url(#CLIP9)">
       <g>
        <g transform="matrix(1,0,0,1,322.779602051,28.106800079)">
         <text x="1" y="-2.770781279" class="f0">调</text>
         <text x="12.039999962" y="-2.770781279" class="f0">整</text>
         <text x="23.079999924" y="-2.770781279" class="f0">前</text>
        </g>
       </g>
      </g>
      <defs>
       <clipPath id="CLIP10">
        <path d="M395.325805664,14.788000107 L468.197021484,14.788000107 L468.197021484,28.826000214 L395.325805664,28.826000214 Z " />
       </clipPath>
      </defs>
      <g clip-path="url(#CLIP10)">
       <g>
        <g transform="matrix(1,0,0,1,396.150848389,28.106800079)">
         <text x="1" y="-2.770781279" class="f0">调</text>
         <text x="12.039999962" y="-2.770781279" class="f0">整</text>
         <text x="23.079999924" y="-2.770781279" class="f0">后</text>
        </g>
       </g>
      </g>
      <defs>
       <clipPath id="CLIP11">
        <path d="M0.25,29.326000214 L73.12121582,29.326000214 L73.12121582,130.591995239 L0.25,130.591995239 Z " />
       </clipPath>
      </defs>
      <g clip-path="url(#CLIP11)">
       <g>
        <g transform="matrix(1,0,0,1,0,129.872787476)">
         <text x="1" y="-2.770781279" class="f0">营</text>
         <text x="12.039999962" y="-2.770781279" class="f0">业</text>
         <text x="23.079999924" y="-2.770781279" class="f0">收</text>
         <text x="34.119998932" y="-2.770781279" class="f0">入</text>
         <text x="45.159999847" y="-2.770781279" class="f1"> </text>
         <text x="47.655860901" y="-2.770781279" class="f0">毛</text>
         <text x="58.695861816" y="-2.770781279" class="f0">利</text>
         <text x="69.735862732" y="-2.770781279" class="f0">润</text>
        </g>
       </g>
      </g>
      <defs>
       <clipPath id="CLIP12">
        <path d="M73.62121582,29.326000214 L174.712127686,29.326000214 L174.712127686,43.363998413 L73.62121582,43.363998413 Z " />
       </clipPath>
      </defs>
      <g clip-path="url(#CLIP12)">
       <g>
        <g transform="matrix(1,0,0,1,74.446250916,42.644798279)">
         <text x="1" y="-2.75999999" class="f1">158</text>
        </g>
       </g>
      </g>
      <defs>
       <clipPath id="CLIP13">
        <path d="M175.212142944,29.326000214 L248.083358765,29.326000214 L248.083358765,43.363998413 L175.212142944,43.363998413 Z " />
       </clipPath>
      </defs>
      <g clip-path="url(#CLIP13)">
       <g>
        <g transform="matrix(1,0,0,1,176.037185669,42.644798279)">
         <text x="1" y="-2.75999999" class="f1">132</text>
        </g>
       </g>
      </g>
      <defs>
       <clipPath id="CLIP14">
        <path d="M248.583358765,29.326000214 L321.454589844,29.326000214 L321.454589844,43.363998413 L248.583358765,43.363998413 Z " />
       </clipPath>
      </defs>
      <g clip-path="url(#CLIP14)">
       <g>
        <g transform="matrix(1,0,0,1,249.408401489,42.644798279)">
         <text x="1" y="-2.75999999" class="f1">-16.3%</text>
        </g>
       </g>
      </g>
      <defs>
       <clipPath id="CLIP15">
        <path d="M321.954559326,29.326000214 L394.825775146,29.326000214 L394.825775146,43.363998413 L321.954559326,43.363998413 Z " />
       </clipPath>
      </defs>
      <g clip-path="url(#CLIP15)">
       <g>
        <g transform="matrix(1,0,0,1,322.779602051,42.644798279)">
         <text x="1" y="-2.75999999" class="f1">186</text>
        </g>
       </g>
      </g>
      <defs>
       <clipPath id="CLIP16">
        <path d="M395.325805664,29.326000214 L468.197021484,29.326000214 L468.197021484,43.363998413 L395.325805664,43.363998413 Z " />
       </clipPath>
      </defs>
      <g clip-path="url(#CLIP16)">
       <g>
        <g transform="matrix(1,0,0,1,396.150848389,42.644798279)">
         <text x="1" y="-2.75999999" class="f1">138</text>
        </g>
       </g>
      </g>
      <defs>
       <clipPath id="CLIP17">
        <path d="M73.62121582,43.863998413 L174.712127686,43.863998413 L174.712127686,57.902000427 L73.62121582,57.902000427 Z " />
       </clipPath>
      </defs>
      <g clip-path="url(#CLIP17)">
       <g>
        <g transform="matrix(1,0,0,1,74.446250916,57.182800293)">
         <text x="1" y="-2.75999999" class="f1">100</text>
        </g>
       </g>
      </g>
      <defs>
       <clipPath id="CLIP18">
        <path d="M175.212142944,43.863998413 L248.083358765,43.863998413 L248.083358765,57.902000427 L175.212142944,57.902000427 Z " />
       </clipPath>
      </defs>
      <g clip-path="url(#CLIP18)">
       <g>
        <g transform="matrix(1,0,0,1,176.037185669,57.182800293)">
         <text x="1" y="-2.75999999" class="f1">85</text>
        </g>
       </g>
      </g>
      <defs>
       <clipPath id="CLIP19">
        <path d="M248.583358765,43.863998413 L321.454589844,43.863998413 L321.454589844,57.902000427 L248.583358765,57.902000427 Z " />
       </clipPath>
      </defs>
      <g clip-path="url(#CLIP19)">
       <g>
        <g transform="matrix(1,0,0,1,249.408401489,57.182800293)">
         <text x="1" y="-2.75999999" class="f1">-15.1%</text>
        </g>
       </g>
      </g>
      <defs>
       <clipPath id="CLIP20">
        <path d="M321.954559326,43.863998413 L394.825775146,43.863998413 L394.825775146,57.902000427 L321.954559326,57.902000427 Z " />
       </clipPath>
      </defs>
      <g clip-path="url(#CLIP20)">
       <g>
        <g transform="matrix(1,0,0,1,322.779602051,57.182800293)">
         <text x="1" y="-2.75999999" class="f1">124</text>
        </g>
       </g>
      </g>
      <defs>
       <clipPath id="CLIP21">
        <path d="M395.325805664,43.863998413 L468.197021484,43.863998413 L468.197021484,57.902000427 L395.325805664,57.902000427 Z " />
       </clipPath>
      </defs>
      <g clip-path="url(#CLIP21)">
       <g>
        <g transform="matrix(1,0,0,1,396.150848389,57.182800293)">
         <text x="1" y="-2.75999999" class="f1">91</text>
        </g>
       </g>
      </g>
      <defs>
       <clipPath id="CLIP22">
        <path d="M73.62121582,58.402000427 L174.712127686,58.402000427 L174.712127686,72.440002441 L73.62121582,72.440002441 Z " />
       </clipPath>
      </defs>
      <g clip-path="url(#CLIP22)">
       <g>
        <g transform="matrix(1,0,0,1,74.446250916,71.720802307)">
         <text x="1" y="-2.770781279" class="f0">营</text>
         <text x="12.039999962" y="-2.770781279" class="f0">业</text>
         <text x="23.079999924" y="-2.770781279" class="f0">利</text>
         <text x="34.119998932" y="-2.770781279" class="f0">润</text>
         <text x="45.159999847" y="-2.770781279" class="f1"> </text>
         <text x="47.655860901" y="-2.770781279" class="f1">7</text>
         <text x="53.251327515" y="-2.770781279" class="f1">3</text>
        </g>
       </g>
      </g>
      <defs>
       <clipPath id="CLIP23">
        <path d="M175.212142944,58.402000427 L248.083358765,58.402000427 L248.083358765,72.440002441 L175.212142944,72.440002441 Z " />
       </clipPath>
      </defs>
      <g clip-path="url(#CLIP23)">
       <g>
        <g transform="matrix(1,0,0,1,176.037185669,71.720802307)">
         <text x="1" y="-2.75999999" class="f1">61</text>
        </g>
       </g>
      </g>
      <defs>
       <clipPath id="CLIP24">
        <path d="M248.583358765,58.402000427 L321.454589844,58.402000427 L321.454589844,72.440002441 L248.583358765,72.440002441 Z " />
       </clipPath>
      </defs>
      <g clip-path="url(#CLIP24)">
       <g>
        <g transform="matrix(1,0,0,1,249.408401489,71.720802307)">
         <text x="1" y="-2.75999999" class="f1">-15.5%</text>
        </g>
       </g>
      </g>
      <defs>
       <clipPath id="CLIP25">
        <path d="M321.954559326,58.402000427 L394.825775146,58.402000427 L394.825775146,72.440002441 L321.954559326,72.440002441 Z " />
       </clipPath>
      </defs>
      <g clip-path="url(#CLIP25)">
       <g>
        <g transform="matrix(1,0,0,1,322.779602051,71.720802307)">
         <text x="1" y="-2.75999999" class="f1">92</text>
        </g>
       </g>
      </g>
      <defs>
       <clipPath id="CLIP26">
        <path d="M395.325805664,58.402000427 L468.197021484,58.402000427 L468.197021484,72.440002441 L395.325805664,72.440002441 Z " />
       </clipPath>
      </defs>
      <g clip-path="url(#CLIP26)">
       <g>
        <g transform="matrix(1,0,0,1,396.150848389,71.720802307)">
         <text x="1" y="-2.75999999" class="f1">67</text>
        </g>
       </g>
      </g>
      <defs>
       <clipPath id="CLIP27">
        <path d="M73.62121582,72.940002441 L174.712127686,72.940002441 L174.712127686,86.978004456 L73.62121582,86.978004456 Z " />
       </clipPath>
      </defs>
      <g clip-path="url(#CLIP27)">
       <g>
        <g transform="matrix(1,0,0,1,74.446250916,86.258804321)">
         <text x="1" y="-2.770781279" class="f0">归</text>
         <text x="12.039999962" y="-2.770781279" class="f0">母</text>
         <text x="23.079999924" y="-2.770781279" class="f0">净</text>
         <text x="34.119998932" y="-2.770781279" class="f0">利</text>
         <text x="45.159999847" y="-2.770781279" class="f0">润</text>
        </g>
       </g>
      </g>
      <defs>
       <clipPath id="CLIP28">
        <path d="M175.212142944,72.940002441 L248.083358765,72.940002441 L248.083358765,86.978004456 L175.212142944,86.978004456 Z " />
       </clipPath>
      </defs>
      <g clip-path="url(#CLIP28)">
       <g>
        <g transform="matrix(1,0,0,1,176.037185669,86.258804321)">
         <text x="1" y="-2.75999999" class="f1">58</text>
         <text x="12.190937042" y="-2.75999999" class="f1"> </text>
         <text x="14.686796188" y="-2.75999999" class="f1">49</text>
        </g>
       </g>
      </g>
      <defs>
       <clipPath id="CLIP29">
        <path d="M248.583358765,72.940002441 L321.454589844,72.940002441 L321.454589844,86.978004456 L248.583358765,86.978004456 Z " />
       </clipPath>
      </defs>
      <g clip-path="url(#CLIP29)">
       <g>
        <g transform="matrix(1,0,0,1,249.408401489,86.258804321)">
         <text x="1" y="-2.75999999" class="f1">-14.8%</text>
        </g>
       </g>
      </g>
      <defs>
       <clipPath id="CLIP30">
        <path d="M321.954559326,72.940002441 L394.825775146,72.940002441 L394.825775146,86.978004456 L321.954559326,86.978004456 Z " />
       </clipPath>
      </defs>
      <g clip-path="url(#CLIP30)">
       <g>
        <g transform="matrix(1,0,0,1,322.779602051,86.258804321)">
         <text x="1" y="-2.75999999" class="f1">74</text>
        </g>
       </g>
      </g>
      <defs>
       <clipPath id="CLIP31">
        <path d="M395.325805664,72.940002441 L468.197021484,72.940002441 L468.197021484,86.978004456 L395.325805664,86.978004456 Z " />
       </clipPath>
      </defs>
      <g clip-path="url(#CLIP31)">
       <g>
        <g transform="matrix(1,0,0,1,396.150848389,86.258804321)">
         <text x="1" y="-2.75999999" class="f1">54</text>
        </g>
       </g>
      </g>
      <defs>
       <clipPath id="CLIP32">
        <path d="M73.62121582,87.477996826 L174.712127686,87.477996826 L174.712127686,101.51599884 L73.62121582,101.51599884 Z " />
       </clipPath>
      </defs>
      <g clip-path="url(#CLIP32)">
       <g>
        <g transform="matrix(1,0,0,1,73.37121582,100.796798706)">
         <text x="1" y="-2.770781279" class="f0">全</text>
         <text x="12.039999962" y="-2.770781279" class="f0">面</text>
         <text x="23.079999924" y="-2.770781279" class="f0">摊</text>
         <text x="34.119998932" y="-2.770781279" class="f0">薄</text>
         <text x="45.159999847" y="-2.770781279" class="f0">每</text>
         <text x="56.200000763" y="-2.770781279" class="f0">股</text>
         <text x="67.239997864" y="-2.770781279" class="f0">收</text>
         <text x="78.279998779" y="-2.770781279" class="f0">益</text>
         <text x="89.319999695" y="-2.770781279" class="f0">（</text>
         <text x="100.36000061" y="-2.770781279" class="f0">元</text>
         <text x="111.400001526" y="-2.770781279" class="f0">）</text>
         <text x="122.440002441" y="-2.770781279" class="f1"> </text>
         <text x="124.93585968" y="-2.770781279" class="f1">0</text>
         <text x="130.531326294" y="-2.770781279" class="f1">.</text>
         <text x="133.318283081" y="-2.770781279" class="f1">1</text>
         <text x="138.913757324" y="-2.770781279" class="f1">6</text>
        </g>
       </g>
      </g>
      <defs>
       <clipPath id="CLIP33">
        <path d="M175.212142944,87.477996826 L248.083358765,87.477996826 L248.083358765,101.51599884 L175.212142944,101.51599884 Z " />
       </clipPath>
      </defs>
      <g clip-path="url(#CLIP33)">
       <g>
        <g transform="matrix(1,0,0,1,176.037185669,100.796798706)">
         <text x="1" y="-2.75999999" class="f1">0.14</text>
        </g>
       </g>
      </g>
      <defs>
       <clipPath id="CLIP34">
        <path d="M248.583358765,87.477996826 L321.454589844,87.477996826 L321.454589844,101.51599884 L248.583358765,101.51599884 Z " />
       </clipPath>
      </defs>
      <g clip-path="url(#CLIP34)">
       <g>
        <g transform="matrix(1,0,0,1,249.408401489,100.796798706)">
         <text x="1" y="-2.75999999" class="f1">-14.8%</text>
        </g>
       </g>
      </g>
      <defs>
       <clipPath id="CLIP35">
        <path d="M321.954559326,87.477996826 L394.825775146,87.477996826 L394.825775146,101.51599884 L321.954559326,101.51599884 Z " />
       </clipPath>
      </defs>
      <g clip-path="url(#CLIP35)">
       <g>
        <g transform="matrix(1,0,0,1,322.779602051,100.796798706)">
         <text x="1" y="-2.75999999" class="f1">0.21</text>
        </g>
       </g>
      </g>
      <defs>
       <clipPath id="CLIP36">
        <path d="M395.325805664,87.477996826 L468.197021484,87.477996826 L468.197021484,101.51599884 L395.325805664,101.51599884 Z " />
       </clipPath>
      </defs>
      <g clip-path="url(#CLIP36)">
       <g>
        <g transform="matrix(1,0,0,1,396.150848389,100.796798706)">
         <text x="1" y="-2.75999999" class="f1">0.15</text>
        </g>
       </g>
      </g>
      <defs>
       <clipPath id="CLIP37">
        <path d="M73.62121582,116.554000854 L174.712127686,116.554000854 L174.712127686,130.591995239 L73.62121582,130.591995239 Z " />
       </clipPath>
      </defs>
      <g clip-path="url(#CLIP37)">
       <g>
        <g transform="matrix(1,0,0,1,74.446250916,129.872787476)">
         <text x="1" y="-2.770781279" class="f0">毛</text>
         <text x="12.039999962" y="-2.770781279" class="f0">利</text>
         <text x="23.079999924" y="-2.770781279" class="f0">率</text>
         <text x="34.119998932" y="-2.770781279" class="f1"> </text>
         <text x="36.615859985" y="-2.770781279" class="f1">6</text>
         <text x="42.211326599" y="-2.770781279" class="f1">3</text>
         <text x="47.806793213" y="-2.770781279" class="f1">.</text>
         <text x="50.593746185" y="-2.770781279" class="f1">2</text>
         <text x="56.189216614" y="-2.770781279" class="f1">%</text>
        </g>
       </g>
      </g>
      <defs>
       <clipPath id="CLIP38">
        <path d="M175.212142944,116.554000854 L248.083358765,116.554000854 L248.083358765,130.591995239 L175.212142944,130.591995239 Z " />
       </clipPath>
      </defs>
      <g clip-path="url(#CLIP38)">
       <g>
        <g transform="matrix(1,0,0,1,176.037185669,129.872787476)">
         <text x="1" y="-2.75999999" class="f1">64.1%</text>
        </g>
       </g>
      </g>
      <defs>
       <clipPath id="CLIP39">
        <path d="M248.583358765,116.554000854 L321.454589844,116.554000854 L321.454589844,130.591995239 L248.583358765,130.591995239 Z " />
       </clipPath>
      </defs>
      <g clip-path="url(#CLIP39)">
       <g>
        <g transform="matrix(1,0,0,1,249.408401489,129.872787476)">
         <text x="1" y="-2.75999999" class="f1">0.9%</text>
        </g>
       </g>
      </g>
      <defs>
       <clipPath id="CLIP40">
        <path d="M321.954559326,116.554000854 L394.825775146,116.554000854 L394.825775146,130.591995239 L321.954559326,130.591995239 Z " />
       </clipPath>
      </defs>
      <g clip-path="url(#CLIP40)">
       <g>
        <g transform="matrix(1,0,0,1,322.779602051,129.872787476)">
         <text x="1" y="-2.75999999" class="f1">66.6%</text>
        </g>
       </g>
      </g>
      <defs>
       <clipPath id="CLIP41">
        <path d="M395.325805664,116.554000854 L468.197021484,116.554000854 L468.197021484,130.591995239 L395.325805664,130.591995239 Z " />
       </clipPath>
      </defs>
      <g clip-path="url(#CLIP41)">
       <g>
        <g transform="matrix(1,0,0,1,396.150848389,129.872787476)">
         <text x="1" y="-2.75999999" class="f1">66.4%</text>
        </g>
       </g>
      </g>
      <defs>
       <clipPath id="CLIP42">
        <path d="M0.25,131.091995239 L73.12121582,131.091995239 L73.12121582,188.743988037 L0.25,188.743988037 Z " />
       </clipPath>
      </defs>
      <g clip-path="url(#CLIP42)">
       <g>
        <g transform="matrix(1,0,0,1,0,188.024795532)">
         <text x="1" y="-2.770781279" class="f0">营</text>
         <text x="12.039999962" y="-2.770781279" class="f0">业</text>
         <text x="23.079999924" y="-2.770781279" class="f0">利</text>
         <text x="34.119998932" y="-2.770781279" class="f0">润</text>
         <text x="45.159999847" y="-2.770781279" class="f0">率</text>
         <text x="56.200000763" y="-2.770781279" class="f1"> </text>
         <text x="58.695861816" y="-2.770781279" class="f0">净</text>
         <text x="69.735862732" y="-2.770781279" class="f0">利</text>
         <text x="80.775863647" y="-2.770781279" class="f0">润</text>
         <text x="91.815864563" y="-2.770781279" class="f0">率</text>
        </g>
       </g>
      </g>
      <defs>
       <clipPath id="CLIP43">
        <path d="M73.62121582,145.630004883 L174.712127686,145.630004883 L174.712127686,159.667999268 L73.62121582,159.667999268 Z " />
       </clipPath>
      </defs>
      <g clip-path="url(#CLIP43)">
       <g>
        <g transform="matrix(1,0,0,1,74.446250916,158.948806763)">
         <text x="1" y="-2.75999999" class="f1">46.2%</text>
        </g>
       </g>
      </g>
      <defs>
       <clipPath id="CLIP44">
        <path d="M175.212142944,145.630004883 L248.083358765,145.630004883 L248.083358765,159.667999268 L175.212142944,159.667999268 Z " />
       </clipPath>
      </defs>
      <g clip-path="url(#CLIP44)">
       <g>
        <g transform="matrix(1,0,0,1,176.037185669,158.948806763)">
         <text x="1" y="-2.75999999" class="f1">46.6%</text>
        </g>
       </g>
      </g>
      <defs>
       <clipPath id="CLIP45">
        <path d="M248.583358765,145.630004883 L321.454589844,145.630004883 L321.454589844,159.667999268 L248.583358765,159.667999268 Z " />
       </clipPath>
      </defs>
      <g clip-path="url(#CLIP45)">
       <g>
        <g transform="matrix(1,0,0,1,249.408401489,158.948806763)">
         <text x="1" y="-2.75999999" class="f1">0.4%</text>
        </g>
       </g>
      </g>
      <defs>
       <clipPath id="CLIP46">
        <path d="M321.954559326,145.630004883 L394.825775146,145.630004883 L394.825775146,159.667999268 L321.954559326,159.667999268 Z " />
       </clipPath>
      </defs>
      <g clip-path="url(#CLIP46)">
       <g>
        <g transform="matrix(1,0,0,1,322.779602051,158.948806763)">
         <text x="1" y="-2.75999999" class="f1">49.6%</text>
        </g>
       </g>
      </g>
      <defs>
       <clipPath id="CLIP47">
        <path d="M395.325805664,145.630004883 L468.197021484,145.630004883 L468.197021484,159.667999268 L395.325805664,159.667999268 Z " />
       </clipPath>
      </defs>
      <g clip-path="url(#CLIP47)">
       <g>
        <g transform="matrix(1,0,0,1,396.150848389,158.948806763)">
         <text x="1" y="-2.75999999" class="f1">48.9%</text>
        </g>
       </g>
      </g>
      <defs>
       <clipPath id="CLIP48">
        <path d="M175.212142944,160.167999268 L248.083358765,160.167999268 L248.083358765,174.205993652 L175.212142944,174.205993652 Z " />
       </clipPath>
      </defs>
      <g clip-path="url(#CLIP48)">
       <g>
        <g transform="matrix(1,0,0,1,176.037185669,173.486801147)">
         <text x="1" y="-2.75999999" class="f1">37.4%</text>
        </g>
       </g>
      </g>
      <defs>
       <clipPath id="CLIP49">
        <path d="M73.62121582,174.705993652 L174.712127686,174.705993652 L174.712127686,188.743988037 L73.62121582,188.743988037 Z " />
       </clipPath>
      </defs>
      <g clip-path="url(#CLIP49)">
       <g>
        <g transform="matrix(1,0,0,1,74.446250916,188.024795532)">
         <text x="1" y="-2.75999999" class="f1">36.8%</text>
        </g>
       </g>
      </g>
      <defs>
       <clipPath id="CLIP50">
        <path d="M248.583358765,174.705993652 L321.454589844,174.705993652 L321.454589844,188.743988037 L248.583358765,188.743988037 Z " />
       </clipPath>
      </defs>
      <g clip-path="url(#CLIP50)">
       <g>
        <g transform="matrix(1,0,0,1,249.408401489,188.024795532)">
         <text x="1" y="-2.75999999" class="f1">0.7%</text>
        </g>
       </g>
      </g>
      <defs>
       <clipPath id="CLIP51">
        <path d="M321.954559326,174.705993652 L394.825775146,174.705993652 L394.825775146,188.743988037 L321.954559326,188.743988037 Z " />
       </clipPath>
      </defs>
      <g clip-path="url(#CLIP51)">
       <g>
        <g transform="matrix(1,0,0,1,322.779602051,188.024795532)">
         <text x="1" y="-2.75999999" class="f1">39.6%</text>
        </g>
       </g>
      </g>
      <defs>
       <clipPath id="CLIP52">
        <path d="M395.325805664,174.705993652 L468.197021484,174.705993652 L468.197021484,188.743988037 L395.325805664,188.743988037 Z " />
       </clipPath>
      </defs>
      <g clip-path="url(#CLIP52)">
       <g>
        <g transform="matrix(1,0,0,1,396.150848389,188.024795532)">
         <text x="1" y="-2.75999999" class="f1">39.2%</text>
        </g>
       </g>
      </g>
     </g>
    </g>
    <defs>
     <clipPath id="CLIP53">
      <path d="M-0.5,-0.5 L469.5,-0.5 L469.5,189.5 L-0.5,189.5 Z " />
     </clipPath>
    </defs>
    <g clip-path="url(#CLIP53)">
     <g />
    </g>
   </g>
   <g />
   <g />
   <g />
   <g>
    <g>
     <g />
     <g shape-rendering="crispEdges" />
    </g>
    <g>
     <g />
    </g>
    <g>
     <g />
    </g>
   </g>
   <g>
    <text x="10" y="10" class="f2">Evaluation Only. Created with Aspose.Cells for Python via Java.Copyright 2003 - 2023 Aspose Pty Ltd.</text>
   </g>
  </g>
 </g>
 <defs />
 <defs>
  <style type="text/css">
   <![CDATA[
   
.f0
{
font-family:Microsoft YaHei Light;
font-size:11.039999962px;
fill:#000000;
}

.f1
{
font-family:Calibri;
font-size:11.039999962px;
fill:#000000;
}

.f2
{
font-family:Arial;
font-size:10px;
fill:#FF0000;
}

   
   ]]></style>
 </defs>
</svg>
