<?xml version="1.0" encoding="UTF-8" standalone="yes"?>
<svg xmlns="http://www.w3.org/2000/svg" xmlns:xlink="http://www.w3.org/1999/xlink" width="612pt" height="792pt">
 <g id="SFixTitle" />
 <g id="SContent">
  <g transform="scale(1.33333)">
   <rect width="100%" height="100%" fill="white" />
   <g>
    <g>
     <g />
     <g shape-rendering="crispEdges" />
    </g>
    <g>
     <g />
    </g>
    <g>
     <g />
    </g>
   </g>
   <g transform="matrix(1,0,0,1,54,72)">
    <defs>
     <clipPath id="CLIP0">
      <path d="M-0.5,-0.5 L305.5,-0.5 L305.5,378.5 L-0.5,378.5 Z " />
     </clipPath>
    </defs>
    <g clip-path="url(#CLIP0)">
     <g />
     <g shape-rendering="crispEdges" />
    </g>
    <defs>
     <clipPath id="CLIP1">
      <path d="M-0.5,-1.453799963 L305.5,-1.453799963 L305.5,379.546203613 L-0.5,379.546203613 Z " />
     </clipPath>
    </defs>
    <g clip-path="url(#CLIP1)">
     <g>
      <g />
     </g>
    </g>
    <defs>
     <clipPath id="CLIP2">
      <path d="M-0.5,-0.5 L305.5,-0.5 L305.5,378.5 L-0.5,378.5 Z " />
     </clipPath>
    </defs>
    <g clip-path="url(#CLIP2)">
     <g>
      <defs>
       <clipPath id="CLIP3">
        <path d="M0.25,0.25 L778.613708496,0.25 L778.613708496,14.288000107 L0.25,14.288000107 Z " />
       </clipPath>
      </defs>
      <g clip-path="url(#CLIP3)">
       <g>
        <g transform="matrix(1,0,0,1,1.075036168,13.568799973)">
         <text x="1" y="-2.75999999" class="f0">PURCHASING</text>
         <text x="60.879062653" y="-2.75999999" class="f0"> </text>
         <text x="63.374923706" y="-2.75999999" class="f0">PURCHASE</text>
         <text x="111.771957397" y="-2.75999999" class="f0"> </text>
         <text x="114.267814636" y="-2.75999999" class="f0">REQUISITION</text>
         <text x="173.397583008" y="-2.75999999" class="f0"> </text>
         <text x="175.893447876" y="-2.75999999" class="f0">STATIONARY</text>
         <text x="233.09336853" y="-2.75999999" class="f0"> </text>
         <text x="235.589233398" y="-2.75999999" class="f0">PLEASEINCLUDEONLYONETYPEOFMATERIALONTHISEQUISITION</text>
        </g>
       </g>
      </g>
      <defs>
       <clipPath id="CLIP4">
        <path d="M0.25,14.788000107 L778.613708496,14.788000107 L778.613708496,28.826000214 L0.25,28.826000214 Z " />
       </clipPath>
      </defs>
      <g clip-path="url(#CLIP4)">
       <g>
        <g transform="matrix(1,0,0,1,1.075036168,28.106800079)">
         <text x="1" y="-2.75999999" class="f0">VENDOR</text>
         <text x="39.877185822" y="-2.75999999" class="f0"> </text>
         <text x="42.373046875" y="-2.75999999" class="f0">FORPURCHASINGDEPARTMENTUSEONLY</text>
         <text x="225.61656189" y="-2.75999999" class="f0"> </text>
         <text x="228.112426758" y="-2.75999999" class="f0">2748Patterson</text>
         <text x="294.163757324" y="-2.75999999" class="f0"> </text>
         <text x="296.659606934" y="-2.75999999" class="f0">Ave.,</text>
         <text x="319.06842041" y="-2.75999999" class="f0"> </text>
         <text x="321.56427002" y="-2.75999999" class="f0">Greensboro,C</text>
        </g>
       </g>
      </g>
      <defs>
       <clipPath id="CLIP5">
        <path d="M0.25,29.326000214 L180.356079102,29.326000214 L180.356079102,43.363998413 L0.25,43.363998413 Z " />
       </clipPath>
      </defs>
      <g clip-path="url(#CLIP5)">
       <g>
        <g transform="matrix(1,0,0,1,1.075036168,42.644798279)">
         <text x="1" y="-2.75999999" class="f0">Piedmont</text>
         <text x="44.669452667" y="-2.75999999" class="f0"> </text>
         <text x="47.165313721" y="-2.75999999" class="f0">Research</text>
         <text x="88.069374084" y="-2.75999999" class="f0"> </text>
         <text x="90.565231323" y="-2.75999999" class="f0">hLaboratory2</text>
        </g>
       </g>
      </g>
      <defs>
       <clipPath id="CLIP6">
        <path d="M180.856079102,29.326000214 L603.651611328,29.326000214 L603.651611328,43.363998413 L180.856079102,43.363998413 Z " />
       </clipPath>
      </defs>
      <g clip-path="url(#CLIP6)">
       <g>
        <g transform="matrix(1,0,0,1,181.681121826,42.644798279)">
         <text x="1" y="-2.75999999" class="f0">NET</text>
         <text x="18.896875381" y="-2.75999999" class="f0"> </text>
         <text x="21.392734528" y="-2.75999999" class="f0">15</text>
         <text x="32.58367157" y="-2.75999999" class="f0"> </text>
         <text x="35.079532623" y="-2.75999999" class="f0">N/A</text>
        </g>
       </g>
      </g>
      <defs>
       <clipPath id="CLIP7">
        <path d="M0.25,43.863998413 L778.613708496,43.863998413 L778.613708496,57.902000427 L0.25,57.902000427 Z " />
       </clipPath>
      </defs>
      <g clip-path="url(#CLIP7)">
       <g>
        <g transform="matrix(1,0,0,1,1.075036168,57.182800293)">
         <text x="1" y="-2.75999999" class="f0">TERMS</text>
         <text x="32.276405334" y="-2.75999999" class="f0"> </text>
         <text x="34.772266388" y="-2.75999999" class="f0">F.0.8.</text>
         <text x="59.396640778" y="-2.75999999" class="f0"> </text>
         <text x="61.892501831" y="-2.75999999" class="f0">VIA</text>
         <text x="77.32585907" y="-2.75999999" class="f0"> </text>
         <text x="79.821716309" y="-2.75999999" class="f0">SHIPTO(OEPT.BRANCH)</text>
         <text x="184.491485596" y="-2.75999999" class="f0"> </text>
         <text x="186.987350464" y="-2.75999999" class="f0">Lorilard</text>
         <text x="221.304077148" y="-2.75999999" class="f0"> </text>
         <text x="223.799942017" y="-2.75999999" class="f0">Research</text>
         <text x="264.70401001" y="-2.75999999" class="f0"> </text>
         <text x="267.199859619" y="-2.75999999" class="f0">Center</text>
         <text x="297.419708252" y="-2.75999999" class="f0"> </text>
         <text x="299.915557861" y="-2.75999999" class="f0">N.A.</text>
         <text x="319.003753662" y="-2.75999999" class="f0"> </text>
         <text x="321.499603271" y="-2.75999999" class="f0">OATEWANTEO</text>
        </g>
       </g>
      </g>
      <defs>
       <clipPath id="CLIP8">
        <path d="M0.25,58.402000427 L778.613708496,58.402000427 L778.613708496,72.440002441 L0.25,72.440002441 Z " />
       </clipPath>
      </defs>
      <g clip-path="url(#CLIP8)">
       <g>
        <g transform="matrix(1,0,0,1,1.075036168,71.720802307)">
         <text x="1" y="-2.75999999" class="f0">Thaggard</text>
         <text x="42.798904419" y="-2.75999999" class="f0"> </text>
         <text x="45.294765472" y="-2.75999999" class="f0">420E</text>
         <text x="67.471794128" y="-2.75999999" class="f0"> </text>
         <text x="69.967651367" y="-2.75999999" class="f0">English</text>
         <text x="101.540542603" y="-2.75999999" class="f0"> </text>
         <text x="104.036399841" y="-2.75999999" class="f0">St.,</text>
         <text x="118.348510742" y="-2.75999999" class="f0"> </text>
         <text x="120.844367981" y="-2.75999999" class="f0">Greensboro,</text>
         <text x="176.809844971" y="-2.75999999" class="f0"> </text>
         <text x="179.305709839" y="-2.75999999" class="f0">NC</text>
         <text x="192.31867981" y="-2.75999999" class="f0"> </text>
         <text x="194.814544678" y="-2.75999999" class="f0">27405</text>
        </g>
       </g>
      </g>
      <defs>
       <clipPath id="CLIP9">
        <path d="M0.25,72.940002441 L180.356079102,72.940002441 L180.356079102,86.978004456 L0.25,86.978004456 Z " />
       </clipPath>
      </defs>
      <g clip-path="url(#CLIP9)">
       <g>
        <g transform="matrix(1,0,0,1,1.075036168,86.258804321)">
         <text x="1" y="-2.75999999" class="f0">QUANTITY</text>
        </g>
       </g>
      </g>
      <defs>
       <clipPath id="CLIP10">
        <path d="M180.856079102,72.940002441 L304.522766113,72.940002441 L304.522766113,86.978004456 L180.856079102,86.978004456 Z " />
       </clipPath>
      </defs>
      <g clip-path="url(#CLIP10)">
       <g>
        <g transform="matrix(1,0,0,1,181.681121826,86.258804321)">
         <text x="1" y="-2.75999999" class="f0">CODE</text>
        </g>
       </g>
      </g>
      <defs>
       <clipPath id="CLIP11">
        <path d="M180.856079102,87.477996826 L304.522766113,87.477996826 L304.522766113,101.51599884 L180.856079102,101.51599884 Z " />
       </clipPath>
      </defs>
      <g clip-path="url(#CLIP11)">
       <g>
        <g transform="matrix(1,0,0,1,181.681121826,100.796798706)">
         <text x="1" y="-2.75999999" class="f0">This</text>
         <text x="19.031641006" y="-2.75999999" class="f0"> </text>
         <text x="21.527500153" y="-2.75999999" class="f0">is</text>
         <text x="28.378984451" y="-2.75999999" class="f0"> </text>
         <text x="30.874843597" y="-2.75999999" class="f0">youx</text>
        </g>
       </g>
      </g>
      <defs>
       <clipPath id="CLIP12">
        <path d="M180.856079102,102.01599884 L304.522766113,102.01599884 L304.522766113,116.054000854 L180.856079102,116.054000854 Z " />
       </clipPath>
      </defs>
      <g clip-path="url(#CLIP12)">
       <g>
        <g transform="matrix(1,0,0,1,181.681121826,115.33480072)">
         <text x="1" y="-2.75999999" class="f0">according</text>
         <text x="44.626327515" y="-2.75999999" class="f0"> </text>
         <text x="47.122188568" y="-2.75999999" class="f0">tq</text>
        </g>
       </g>
      </g>
      <defs>
       <clipPath id="CLIP13">
        <path d="M180.856079102,116.554000854 L304.522766113,116.554000854 L304.522766113,130.591995239 L180.856079102,130.591995239 Z " />
       </clipPath>
      </defs>
      <g clip-path="url(#CLIP13)">
       <g>
        <g transform="matrix(1,0,0,1,181.681121826,129.872787476)">
         <text x="1" y="-2.75999999" class="f0">Preparation</text>
        </g>
       </g>
      </g>
      <defs>
       <clipPath id="CLIP14">
        <path d="M180.856079102,131.091995239 L304.522766113,131.091995239 L304.522766113,145.129989624 L180.856079102,145.129989624 Z " />
       </clipPath>
      </defs>
      <g clip-path="url(#CLIP14)">
       <g>
        <g transform="matrix(1,0,0,1,181.681121826,144.410797119)">
         <text x="1" y="-2.75999999" class="f0">period</text>
         <text x="30.298046112" y="-2.75999999" class="f0"> </text>
         <text x="32.793907166" y="-2.75999999" class="f0">April</text>
        </g>
       </g>
      </g>
      <defs>
       <clipPath id="CLIP15">
        <path d="M180.856079102,145.630004883 L304.522766113,145.630004883 L304.522766113,159.667999268 L180.856079102,159.667999268 Z " />
       </clipPath>
      </defs>
      <g clip-path="url(#CLIP15)">
       <g>
        <g transform="matrix(1,0,0,1,181.681121826,158.948806763)">
         <text x="1" y="-2.75999999" class="f0">prepared</text>
         <text x="42.373046875" y="-2.75999999" class="f0"> </text>
         <text x="44.868907928" y="-2.75999999" class="f0">1</text>
         <text x="50.464378357" y="-2.75999999" class="f0"> </text>
         <text x="52.96023941" y="-2.75999999" class="f0">acqording</text>
        </g>
       </g>
      </g>
      <defs>
       <clipPath id="CLIP16">
        <path d="M180.856079102,160.167999268 L304.522766113,160.167999268 L304.522766113,174.205993652 L180.856079102,174.205993652 Z " />
       </clipPath>
      </defs>
      <g clip-path="url(#CLIP16)">
       <g>
        <g transform="matrix(1,0,0,1,181.681121826,173.486801147)">
         <text x="1" y="-2.75999999" class="f0">fixed</text>
         <text x="22.977577209" y="-2.75999999" class="f0"> </text>
         <text x="25.473436356" y="-2.75999999" class="f0">price</text>
        </g>
       </g>
      </g>
      <defs>
       <clipPath id="CLIP17">
        <path d="M180.856079102,174.705993652 L304.522766113,174.705993652 L304.522766113,188.743988037 L180.856079102,188.743988037 Z " />
       </clipPath>
      </defs>
      <g clip-path="url(#CLIP17)">
       <g>
        <g transform="matrix(1,0,0,1,181.681121826,188.024795532)">
         <text x="1" y="-2.75999999" class="f0">$1,750/10,000</text>
        </g>
       </g>
      </g>
      <defs>
       <clipPath id="CLIP18">
        <path d="M180.856079102,189.244003296 L304.522766113,189.244003296 L304.522766113,203.281997681 L180.856079102,203.281997681 Z " />
       </clipPath>
      </defs>
      <g clip-path="url(#CLIP18)">
       <g>
        <g transform="matrix(1,0,0,1,181.681121826,202.562805176)">
         <text x="1" y="-2.75999999" class="f0">consumable</text>
         <text x="55.342891693" y="-2.75999999" class="f0"> </text>
         <text x="57.838752747" y="-2.75999999" class="f0">qupplies.</text>
        </g>
       </g>
      </g>
      <defs>
       <clipPath id="CLIP19">
        <path d="M180.856079102,203.781997681 L304.522766113,203.781997681 L304.522766113,217.819992065 L180.856079102,217.819992065 Z " />
       </clipPath>
      </defs>
      <g clip-path="url(#CLIP19)">
       <g>
        <g transform="matrix(1,0,0,1,181.681121826,217.100799561)">
         <text x="1" y="-2.75999999" class="f0">with</text>
         <text x="20.923749924" y="-2.75999999" class="f0"> </text>
         <text x="23.41960907" y="-2.75999999" class="f0">the</text>
         <text x="38.410938263" y="-2.75999999" class="f0"> </text>
         <text x="40.906799316" y="-2.75999999" class="f0">Deqember</text>
        </g>
       </g>
      </g>
      <defs>
       <clipPath id="CLIP20">
        <path d="M180.856079102,218.320007324 L304.522766113,218.320007324 L304.522766113,232.358001709 L180.856079102,232.358001709 Z " />
       </clipPath>
      </defs>
      <g clip-path="url(#CLIP20)">
       <g>
        <g transform="matrix(1,0,0,1,181.681121826,231.638809204)">
         <text x="1" y="-2.75999999" class="f0">Laboratories</text>
        </g>
       </g>
      </g>
      <defs>
       <clipPath id="CLIP21">
        <path d="M180.856079102,232.858001709 L304.522766113,232.858001709 L304.522766113,246.895996094 L180.856079102,246.895996094 Z " />
       </clipPath>
      </defs>
      <g clip-path="url(#CLIP21)">
       <g>
        <g transform="matrix(1,0,0,1,181.681121826,246.176803589)">
         <text x="1" y="-2.75999999" class="f0">Mr.</text>
         <text x="17.07484436" y="-2.75999999" class="f0"> </text>
         <text x="19.570703506" y="-2.75999999" class="f0">Neil</text>
         <text x="37.257343292" y="-2.75999999" class="f0"> </text>
         <text x="39.753204346" y="-2.75999999" class="f0">1Thaggard</text>
        </g>
       </g>
      </g>
      <defs>
       <clipPath id="CLIP22">
        <path d="M0.25,320.085998535 L304.522766113,320.085998535 L304.522766113,334.12399292 L0.25,334.12399292 Z " />
       </clipPath>
      </defs>
      <g clip-path="url(#CLIP22)">
       <g>
        <g transform="matrix(1,0,0,1,1.075036168,333.404785156)">
         <text x="1" y="-2.75999999" class="f0">FOLLOWUPDATE</text>
        </g>
       </g>
      </g>
      <defs>
       <clipPath id="CLIP23">
        <path d="M0.25,349.161987305 L304.522766113,349.161987305 L304.522766113,363.199981689 L0.25,363.199981689 Z " />
       </clipPath>
      </defs>
      <g clip-path="url(#CLIP23)">
       <g>
        <g transform="matrix(1,0,0,1,1.075036168,362.480773926)">
         <text x="1" y="-2.75999999" class="f0">BUDGETNO.</text>
        </g>
       </g>
      </g>
     </g>
    </g>
    <defs>
     <clipPath id="CLIP24">
      <path d="M-0.5,-0.5 L305.5,-0.5 L305.5,378.5 L-0.5,378.5 Z " />
     </clipPath>
    </defs>
    <g clip-path="url(#CLIP24)">
     <g />
    </g>
   </g>
   <g />
   <g />
   <g />
   <g>
    <g>
     <g />
     <g shape-rendering="crispEdges" />
    </g>
    <g>
     <g />
    </g>
    <g>
     <g />
    </g>
   </g>
   <g>
    <text x="10" y="10" class="f1">Evaluation Only. Created with Aspose.Cells for Python via Java.Copyright 2003 - 2023 Aspose Pty Ltd.</text>
   </g>
  </g>
 </g>
 <defs />
 <defs>
  <style type="text/css">
   <![CDATA[
   
.f0
{
font-family:Calibri;
font-size:11.039999962px;
fill:#000000;
}

.f1
{
font-family:Arial;
font-size:10px;
fill:#FF0000;
}

   
   ]]></style>
 </defs>
</svg>
