<?xml version="1.0" encoding="UTF-8" standalone="yes"?>
<svg xmlns="http://www.w3.org/2000/svg" xmlns:xlink="http://www.w3.org/1999/xlink" width="612pt" height="792pt">
 <g id="SFixTitle" />
 <g id="SContent">
  <g transform="scale(1.33333)">
   <rect width="100%" height="100%" fill="white" />
   <g>
    <g>
     <g />
     <g shape-rendering="crispEdges" />
    </g>
    <g>
     <g />
    </g>
    <g>
     <g />
    </g>
   </g>
   <g transform="matrix(1,0,0,1,54,72)">
    <defs>
     <clipPath id="CLIP0">
      <path d="M-0.5,-0.5 L413.5,-0.5 L413.5,117.5 L-0.5,117.5 Z " />
     </clipPath>
    </defs>
    <g clip-path="url(#CLIP0)">
     <g />
     <g shape-rendering="crispEdges" />
    </g>
    <defs>
     <clipPath id="CLIP1">
      <path d="M-0.5,-1.453799963 L413.5,-1.453799963 L413.5,118.546203613 L-0.5,118.546203613 Z " />
     </clipPath>
    </defs>
    <g clip-path="url(#CLIP1)">
     <g>
      <g />
      <path d="M 0,0 L 174.962127686,0" class="p0" fill="none" />
      <path d="M 0,58.152000427 L 174.962142944,58.152000427" class="p0" fill="none" />
      <path d="M 0,116.304000854 L 174.962127686,116.304000854" class="p0" fill="none" />
      <path d="M 0,0 L 0,14.538000107" class="p0" fill="none" />
      <path d="M 0,58.152000427 L 0,72.690002441" class="p0" fill="none" />
      <path d="M 174.962127686,0 L 248.333343506,0" class="p0" fill="none" />
      <path d="M 174.962142944,58.152000427 L 248.333358765,58.152000427" class="p0" fill="none" />
      <path d="M 174.962127686,116.304000854 L 248.333343506,116.304000854" class="p0" fill="none" />
      <path d="M 174.962005615,58.152000427 L 174.962005615,72.690002441" class="p0" fill="none" />
      <path d="M 248.333343506,0 L 338.636383057,0" class="p0" fill="none" />
      <path d="M 248.333358765,58.152000427 L 338.636413574,58.152000427" class="p0" fill="none" />
      <path d="M 248.333343506,116.304000854 L 338.636383057,116.304000854" class="p0" fill="none" />
      <path d="M 248.332992554,58.152000427 L 248.332992554,72.690002441" class="p0" fill="none" />
      <path d="M 338.636383057,0 L 412.007598877,0" class="p0" fill="none" />
      <path d="M 338.636383057,58.152000427 L 412.007598877,58.152000427" class="p0" fill="none" />
      <path d="M 338.636383057,116.304000854 L 412.007598877,116.304000854" class="p0" fill="none" />
      <path d="M 338.635986328,58.152000427 L 338.635986328,72.690002441" class="p0" fill="none" />
      <path d="M 412.007995605,0 L 412.007995605,14.538000107" class="p0" fill="none" />
      <path d="M 412.007995605,58.152000427 L 412.007995605,72.690002441" class="p0" fill="none" />
      <path d="M 0,14.538000107 L 174.962127686,14.538000107" class="p0" fill="none" />
      <path d="M 0,72.690002441 L 174.962142944,72.690002441" class="p0" fill="none" />
      <path d="M 0,14.538000107 L 0,29.076000214" class="p0" fill="none" />
      <path d="M 0,72.690002441 L 0,87.228004456" class="p0" fill="none" />
      <path d="M 174.962127686,14.538000107 L 248.333343506,14.538000107" class="p0" fill="none" />
      <path d="M 174.962142944,72.690002441 L 248.333358765,72.690002441" class="p0" fill="none" />
      <path d="M 174.962005615,72.690002441 L 174.962005615,87.228004456" class="p0" fill="none" />
      <path d="M 248.333343506,14.538000107 L 338.636383057,14.538000107" class="p0" fill="none" />
      <path d="M 248.333358765,72.690002441 L 338.636413574,72.690002441" class="p0" fill="none" />
      <path d="M 248.332992554,72.690002441 L 248.332992554,87.228004456" class="p0" fill="none" />
      <path d="M 338.636383057,14.538000107 L 412.007598877,14.538000107" class="p0" fill="none" />
      <path d="M 338.636383057,72.690002441 L 412.007598877,72.690002441" class="p0" fill="none" />
      <path d="M 338.635986328,72.690002441 L 338.635986328,87.228004456" class="p0" fill="none" />
      <path d="M 412.007995605,14.538000107 L 412.007995605,29.076000214" class="p0" fill="none" />
      <path d="M 412.007995605,72.690002441 L 412.007995605,87.228004456" class="p0" fill="none" />
      <path d="M 0,29.076000214 L 174.962127686,29.076000214" class="p0" fill="none" />
      <path d="M 0,87.227996826 L 174.962142944,87.227996826" class="p0" fill="none" />
      <path d="M 0,29.076000214 L 0,43.613998413" class="p0" fill="none" />
      <path d="M 0,87.227996826 L 0,101.76599884" class="p0" fill="none" />
      <path d="M 174.962127686,29.076000214 L 248.333343506,29.076000214" class="p0" fill="none" />
      <path d="M 174.962142944,87.227996826 L 248.333358765,87.227996826" class="p0" fill="none" />
      <path d="M 174.962005615,87.227996826 L 174.962005615,101.76599884" class="p0" fill="none" />
      <path d="M 248.333343506,29.076000214 L 338.636383057,29.076000214" class="p0" fill="none" />
      <path d="M 248.333358765,87.227996826 L 338.636413574,87.227996826" class="p0" fill="none" />
      <path d="M 248.332992554,87.227996826 L 248.332992554,101.76599884" class="p0" fill="none" />
      <path d="M 338.636383057,29.076000214 L 412.007598877,29.076000214" class="p0" fill="none" />
      <path d="M 338.636383057,87.227996826 L 412.007598877,87.227996826" class="p0" fill="none" />
      <path d="M 338.635986328,87.227996826 L 338.635986328,101.76599884" class="p0" fill="none" />
      <path d="M 412.007995605,29.076000214 L 412.007995605,43.613998413" class="p0" fill="none" />
      <path d="M 412.007995605,87.227996826 L 412.007995605,101.76599884" class="p0" fill="none" />
      <path d="M 0,43.613998413 L 174.962127686,43.613998413" class="p0" fill="none" />
      <path d="M 0,101.76599884 L 174.962142944,101.76599884" class="p0" fill="none" />
      <path d="M 0,43.613998413 L 0,58.152000427" class="p0" fill="none" />
      <path d="M 0,101.76599884 L 0,116.304000854" class="p0" fill="none" />
      <path d="M 174.962127686,43.613998413 L 248.333343506,43.613998413" class="p0" fill="none" />
      <path d="M 174.962142944,101.76599884 L 248.333358765,101.76599884" class="p0" fill="none" />
      <path d="M 174.962005615,43.613998413 L 174.962005615,58.152000427" class="p0" fill="none" />
      <path d="M 248.333343506,43.613998413 L 338.636383057,43.613998413" class="p0" fill="none" />
      <path d="M 248.333358765,101.76599884 L 338.636413574,101.76599884" class="p0" fill="none" />
      <path d="M 248.332992554,43.613998413 L 248.332992554,58.152000427" class="p0" fill="none" />
      <path d="M 338.636383057,43.613998413 L 412.007598877,43.613998413" class="p0" fill="none" />
      <path d="M 338.636383057,101.76599884 L 412.007598877,101.76599884" class="p0" fill="none" />
      <path d="M 338.635986328,43.613998413 L 338.635986328,58.152000427" class="p0" fill="none" />
      <path d="M 412.007995605,43.613998413 L 412.007995605,58.152000427" class="p0" fill="none" />
      <path d="M 412.007995605,101.76599884 L 412.007995605,116.304000854" class="p0" fill="none" />
     </g>
    </g>
    <defs>
     <clipPath id="CLIP2">
      <path d="M-0.5,-0.5 L413.5,-0.5 L413.5,117.5 L-0.5,117.5 Z " />
     </clipPath>
    </defs>
    <g clip-path="url(#CLIP2)">
     <g>
      <defs>
       <clipPath id="CLIP3">
        <path d="M0.25,0.25 L411.757598877,0.25 L411.757598877,14.288000107 L0.25,14.288000107 Z " />
       </clipPath>
      </defs>
      <g clip-path="url(#CLIP3)">
       <g>
        <g transform="matrix(1,0,0,1,1.075036168,13.568799973)">
         <text x="1" y="-2.770781279" class="f0">门</text>
         <text x="12.039999962" y="-2.770781279" class="f0">诊</text>
         <text x="23.079999924" y="-2.770781279" class="f0">检</text>
         <text x="34.119998932" y="-2.770781279" class="f0">验</text>
         <text x="45.159999847" y="-2.770781279" class="f0">报</text>
         <text x="56.200000763" y="-2.770781279" class="f0">告</text>
         <text x="67.239997864" y="-2.770781279" class="f0">单</text>
        </g>
       </g>
      </g>
      <defs>
       <clipPath id="CLIP4">
        <path d="M0.25,14.788000107 L411.757598877,14.788000107 L411.757598877,28.826000214 L0.25,28.826000214 Z " />
       </clipPath>
      </defs>
      <g clip-path="url(#CLIP4)">
       <g>
        <g transform="matrix(1,0,0,1,1.075036168,28.106800079)">
         <text x="1" y="-2.770781279" class="f1">*</text>
         <text x="6.498437405" y="-2.770781279" class="f1">*</text>
         <text x="11.996874809" y="-2.770781279" class="f0">血</text>
         <text x="23.036874771" y="-2.770781279" class="f0">常</text>
         <text x="34.076873779" y="-2.770781279" class="f0">规</text>
         <text x="45.116874695" y="-2.770781279" class="f0">（</text>
         <text x="56.15687561" y="-2.770781279" class="f1">5</text>
         <text x="61.752342224" y="-2.770781279" class="f0">分</text>
         <text x="72.79234314" y="-2.770781279" class="f0">类</text>
         <text x="83.832344055" y="-2.770781279" class="f1">)</text>
        </g>
       </g>
      </g>
      <defs>
       <clipPath id="CLIP5">
        <path d="M0.25,29.326000214 L411.757598877,29.326000214 L411.757598877,43.363998413 L0.25,43.363998413 Z " />
       </clipPath>
      </defs>
      <g clip-path="url(#CLIP5)">
       <g>
        <g transform="matrix(1,0,0,1,1.075036168,42.644798279)">
         <text x="1" y="-2.770781279" class="f0">标</text>
         <text x="12.039999962" y="-2.770781279" class="f0">本</text>
         <text x="23.079999924" y="-2.770781279" class="f0">状</text>
         <text x="34.119998932" y="-2.770781279" class="f0">态</text>
         <text x="45.159999847" y="-2.770781279" class="f0">：</text>
         <text x="56.200000763" y="-2.770781279" class="f0">正</text>
         <text x="67.239997864" y="-2.770781279" class="f0">常</text>
         <text x="78.279998779" y="-2.770781279" class="f1"> </text>
         <text x="80.775856018" y="-2.770781279" class="f0">临</text>
         <text x="91.815856934" y="-2.770781279" class="f0">床</text>
         <text x="102.855857849" y="-2.770781279" class="f0">诊</text>
         <text x="113.895858765" y="-2.770781279" class="f0">断</text>
         <text x="124.93585968" y="-2.770781279" class="f0">：</text>
         <text x="135.975860596" y="-2.770781279" class="f1">1</text>
         <text x="141.571334839" y="-2.770781279" class="f1">.</text>
         <text x="144.358291626" y="-2.770781279" class="f0">慢</text>
         <text x="155.398284912" y="-2.770781279" class="f0">性</text>
         <text x="166.438278198" y="-2.770781279" class="f0">扁</text>
         <text x="177.478271484" y="-2.770781279" class="f0">桃</text>
         <text x="188.518264771" y="-2.770781279" class="f0">体</text>
         <text x="199.558258057" y="-2.770781279" class="f0">炎</text>
        </g>
       </g>
      </g>
      <defs>
       <clipPath id="CLIP6">
        <path d="M0.25,43.863998413 L174.712142944,43.863998413 L174.712142944,57.902000427 L0.25,57.902000427 Z " />
       </clipPath>
      </defs>
      <g clip-path="url(#CLIP6)">
       <g>
        <g transform="matrix(1,0,0,1,1.075036168,57.182800293)">
         <text x="1" y="-2.770781279" class="f0">检</text>
         <text x="12.039999962" y="-2.770781279" class="f0">验</text>
         <text x="23.079999924" y="-2.770781279" class="f0">项</text>
         <text x="34.119998932" y="-2.770781279" class="f0">目</text>
        </g>
       </g>
      </g>
      <defs>
       <clipPath id="CLIP7">
        <path d="M175.212142944,43.863998413 L248.083358765,43.863998413 L248.083358765,57.902000427 L175.212142944,57.902000427 Z " />
       </clipPath>
      </defs>
      <g clip-path="url(#CLIP7)">
       <g>
        <g transform="matrix(1,0,0,1,176.037185669,57.182800293)">
         <text x="1" y="-2.770781279" class="f0">结</text>
         <text x="12.039999962" y="-2.770781279" class="f0">果</text>
        </g>
       </g>
      </g>
      <defs>
       <clipPath id="CLIP8">
        <path d="M248.583358765,43.863998413 L338.386413574,43.863998413 L338.386413574,57.902000427 L248.583358765,57.902000427 Z " />
       </clipPath>
      </defs>
      <g clip-path="url(#CLIP8)">
       <g>
        <g transform="matrix(1,0,0,1,249.408401489,57.182800293)">
         <text x="1" y="-2.770781279" class="f0">参</text>
         <text x="12.039999962" y="-2.770781279" class="f0">考</text>
         <text x="23.079999924" y="-2.770781279" class="f0">范</text>
         <text x="34.119998932" y="-2.770781279" class="f0">围</text>
        </g>
       </g>
      </g>
      <defs>
       <clipPath id="CLIP9">
        <path d="M338.886383057,43.863998413 L411.757598877,43.863998413 L411.757598877,57.902000427 L338.886383057,57.902000427 Z " />
       </clipPath>
      </defs>
      <g clip-path="url(#CLIP9)">
       <g>
        <g transform="matrix(1,0,0,1,339.711425781,57.182800293)">
         <text x="1" y="-2.770781279" class="f0">单</text>
         <text x="12.039999962" y="-2.770781279" class="f0">位</text>
        </g>
       </g>
      </g>
      <defs>
       <clipPath id="CLIP10">
        <path d="M0.25,58.402000427 L174.712142944,58.402000427 L174.712142944,72.440002441 L0.25,72.440002441 Z " />
       </clipPath>
      </defs>
      <g clip-path="url(#CLIP10)">
       <g>
        <g transform="matrix(1,0,0,1,1.075036168,71.720802307)">
         <text x="1" y="-2.770781279" class="f0">中</text>
         <text x="12.039999962" y="-2.770781279" class="f0">性</text>
         <text x="23.079999924" y="-2.770781279" class="f0">细</text>
         <text x="34.119998932" y="-2.770781279" class="f0">胞</text>
         <text x="45.159999847" y="-2.770781279" class="f0">百</text>
         <text x="56.200000763" y="-2.770781279" class="f0">分</text>
         <text x="67.239997864" y="-2.770781279" class="f0">率</text>
         <text x="78.279998779" y="-2.770781279" class="f0">（</text>
         <text x="89.319999695" y="-2.770781279" class="f1">N</text>
         <text x="96.446403503" y="-2.770781279" class="f1">E</text>
         <text x="101.837028503" y="-2.770781279" class="f1">L</text>
         <text x="106.478355408" y="-2.770781279" class="f1">%</text>
         <text x="114.370231628" y="-2.770781279" class="f1">)</text>
        </g>
       </g>
      </g>
      <defs>
       <clipPath id="CLIP11">
        <path d="M175.212142944,58.402000427 L248.083358765,58.402000427 L248.083358765,72.440002441 L175.212142944,72.440002441 Z " />
       </clipPath>
      </defs>
      <g clip-path="url(#CLIP11)">
       <g>
        <g transform="matrix(1,0,0,1,176.037185669,71.720802307)">
         <text x="1" y="-2.75999999" class="f1">77.1</text>
        </g>
       </g>
      </g>
      <defs>
       <clipPath id="CLIP12">
        <path d="M248.583358765,58.402000427 L338.386413574,58.402000427 L338.386413574,72.440002441 L248.583358765,72.440002441 Z " />
       </clipPath>
      </defs>
      <g clip-path="url(#CLIP12)">
       <g>
        <g transform="matrix(1,0,0,1,249.408401489,71.720802307)">
         <text x="1" y="-2.75999999" class="f1">40-75</text>
        </g>
       </g>
      </g>
      <defs>
       <clipPath id="CLIP13">
        <path d="M338.886383057,58.402000427 L411.757598877,58.402000427 L411.757598877,72.440002441 L338.886383057,72.440002441 Z " />
       </clipPath>
      </defs>
      <g clip-path="url(#CLIP13)">
       <g>
        <g transform="matrix(1,0,0,1,339.711425781,71.720802307)">
         <text x="1" y="-2.75999999" class="f1">%</text>
         <text x="8.891874313" y="-2.75999999" class="f1"> </text>
         <text x="11.387733459" y="-2.75999999" class="f1">%</text>
        </g>
       </g>
      </g>
      <defs>
       <clipPath id="CLIP14">
        <path d="M0.25,72.940002441 L174.712142944,72.940002441 L174.712142944,86.978004456 L0.25,86.978004456 Z " />
       </clipPath>
      </defs>
      <g clip-path="url(#CLIP14)">
       <g>
        <g transform="matrix(1,0,0,1,0,86.258804321)">
         <text x="1" y="-2.770781279" class="f0">淋</text>
         <text x="12.039999962" y="-2.770781279" class="f0">巴</text>
         <text x="23.079999924" y="-2.770781279" class="f0">细</text>
         <text x="34.119998932" y="-2.770781279" class="f0">胞</text>
         <text x="45.159999847" y="-2.770781279" class="f0">百</text>
         <text x="56.200000763" y="-2.770781279" class="f0">分</text>
         <text x="67.239997864" y="-2.770781279" class="f0">率</text>
         <text x="78.279998779" y="-2.770781279" class="f1"> </text>
         <text x="80.775856018" y="-2.770781279" class="f0">（</text>
         <text x="91.815856934" y="-2.770781279" class="f1">L</text>
         <text x="96.457183838" y="-2.770781279" class="f1">Y</text>
         <text x="101.837028503" y="-2.770781279" class="f1">M</text>
         <text x="111.276016235" y="-2.770781279" class="f1">%</text>
         <text x="119.167892456" y="-2.770781279" class="f1">)</text>
         <text x="122.515472412" y="-2.770781279" class="f1"> </text>
         <text x="125.011329651" y="-2.770781279" class="f0">单</text>
         <text x="136.051330566" y="-2.770781279" class="f0">核</text>
         <text x="147.091323853" y="-2.770781279" class="f0">细</text>
         <text x="158.131317139" y="-2.770781279" class="f0">胞</text>
         <text x="169.171310425" y="-2.770781279" class="f0">百</text>
         <text x="180.211303711" y="-2.770781279" class="f0">分</text>
         <text x="191.251296997" y="-2.770781279" class="f0">率</text>
         <text x="202.291290283" y="-2.770781279" class="f0">（</text>
         <text x="213.331283569" y="-2.770781279" class="f1">M</text>
         <text x="222.770263672" y="-2.770781279" class="f1">O</text>
         <text x="230.079956055" y="-2.770781279" class="f1">N</text>
         <text x="237.206359863" y="-2.770781279" class="f1">O</text>
         <text x="244.516052246" y="-2.770781279" class="f1">%</text>
         <text x="252.407928467" y="-2.770781279" class="f0">）</text>
        </g>
       </g>
      </g>
      <defs>
       <clipPath id="CLIP15">
        <path d="M175.212142944,72.940002441 L248.083358765,72.940002441 L248.083358765,86.978004456 L175.212142944,86.978004456 Z " />
       </clipPath>
      </defs>
      <g clip-path="url(#CLIP15)">
       <g>
        <g transform="matrix(1,0,0,1,176.037185669,86.258804321)">
         <text x="1" y="-2.75999999" class="f1">8.8</text>
         <text x="14.977890968" y="-2.75999999" class="f1"> </text>
         <text x="17.473751068" y="-2.75999999" class="f1">7.1</text>
        </g>
       </g>
      </g>
      <defs>
       <clipPath id="CLIP16">
        <path d="M248.583358765,72.940002441 L338.386413574,72.940002441 L338.386413574,86.978004456 L248.583358765,86.978004456 Z " />
       </clipPath>
      </defs>
      <g clip-path="url(#CLIP16)">
       <g>
        <g transform="matrix(1,0,0,1,249.408401489,86.258804321)">
         <text x="1" y="-2.75999999" class="f1">20-50</text>
         <text x="26.761796951" y="-2.75999999" class="f1"> </text>
         <text x="29.257656097" y="-2.75999999" class="f1">3.0-10.0</text>
        </g>
       </g>
      </g>
      <defs>
       <clipPath id="CLIP17">
        <path d="M338.886383057,72.940002441 L411.757598877,72.940002441 L411.757598877,86.978004456 L338.886383057,86.978004456 Z " />
       </clipPath>
      </defs>
      <g clip-path="url(#CLIP17)">
       <g>
        <g transform="matrix(1,0,0,1,339.711425781,86.258804321)">
         <text x="1" y="-2.75999999" class="f1">%</text>
        </g>
       </g>
      </g>
      <defs>
       <clipPath id="CLIP18">
        <path d="M0.25,87.477996826 L174.712142944,87.477996826 L174.712142944,101.51599884 L0.25,101.51599884 Z " />
       </clipPath>
      </defs>
      <g clip-path="url(#CLIP18)">
       <g>
        <g transform="matrix(1,0,0,1,1.075036168,100.796798706)">
         <text x="1" y="-2.770781279" class="f0">红</text>
         <text x="12.039999962" y="-2.770781279" class="f0">细</text>
         <text x="23.079999924" y="-2.770781279" class="f0">胞</text>
         <text x="34.119998932" y="-2.770781279" class="f0">计</text>
         <text x="45.159999847" y="-2.770781279" class="f0">数</text>
         <text x="56.200000763" y="-2.770781279" class="f1"> </text>
         <text x="58.695861816" y="-2.770781279" class="f0">（</text>
         <text x="69.735862732" y="-2.770781279" class="f1">R</text>
         <text x="75.730239868" y="-2.770781279" class="f1">B</text>
         <text x="81.735397339" y="-2.770781279" class="f1">C</text>
         <text x="87.621963501" y="-2.770781279" class="f1">)</text>
        </g>
       </g>
      </g>
      <defs>
       <clipPath id="CLIP19">
        <path d="M175.212142944,87.477996826 L248.083358765,87.477996826 L248.083358765,101.51599884 L175.212142944,101.51599884 Z " />
       </clipPath>
      </defs>
      <g clip-path="url(#CLIP19)">
       <g>
        <g transform="matrix(1,0,0,1,176.037185669,100.796798706)">
         <text x="1" y="-2.75999999" class="f1">6.66</text>
        </g>
       </g>
      </g>
      <defs>
       <clipPath id="CLIP20">
        <path d="M248.583358765,87.477996826 L338.386413574,87.477996826 L338.386413574,101.51599884 L248.583358765,101.51599884 Z " />
       </clipPath>
      </defs>
      <g clip-path="url(#CLIP20)">
       <g>
        <g transform="matrix(1,0,0,1,249.408401489,100.796798706)">
         <text x="1" y="-2.75999999" class="f1">4.3-5.8</text>
        </g>
       </g>
      </g>
      <defs>
       <clipPath id="CLIP21">
        <path d="M338.886383057,87.477996826 L411.757598877,87.477996826 L411.757598877,101.51599884 L338.886383057,101.51599884 Z " />
       </clipPath>
      </defs>
      <g clip-path="url(#CLIP21)">
       <g>
        <g transform="matrix(1,0,0,1,339.711425781,100.796798706)">
         <text x="1" y="-2.75999999" class="f1">%</text>
        </g>
       </g>
      </g>
      <defs>
       <clipPath id="CLIP22">
        <path d="M0.25,102.01599884 L411.757598877,102.01599884 L411.757598877,116.054000854 L0.25,116.054000854 Z " />
       </clipPath>
      </defs>
      <g clip-path="url(#CLIP22)">
       <g>
        <g transform="matrix(1,0,0,1,1.075036168,115.33480072)">
         <text x="1" y="-2.770781279" class="f0">送</text>
         <text x="12.039999962" y="-2.770781279" class="f0">检</text>
         <text x="23.079999924" y="-2.770781279" class="f0">医</text>
         <text x="34.119998932" y="-2.770781279" class="f0">生</text>
         <text x="45.159999847" y="-2.770781279" class="f0">：</text>
         <text x="56.200000763" y="-2.770781279" class="f1"> </text>
         <text x="58.695861816" y="-2.770781279" class="f0">检</text>
         <text x="69.735862732" y="-2.770781279" class="f0">验</text>
         <text x="80.775863647" y="-2.770781279" class="f0">者</text>
         <text x="91.815864563" y="-2.770781279" class="f0">：</text>
         <text x="102.855865479" y="-2.770781279" class="f1"> </text>
         <text x="105.351722717" y="-2.770781279" class="f0">审</text>
         <text x="116.391723633" y="-2.770781279" class="f0">核</text>
         <text x="127.431724548" y="-2.770781279" class="f0">者</text>
         <text x="138.471725464" y="-2.770781279" class="f0">：</text>
        </g>
       </g>
      </g>
     </g>
    </g>
    <defs>
     <clipPath id="CLIP23">
      <path d="M-0.5,-0.5 L413.5,-0.5 L413.5,117.5 L-0.5,117.5 Z " />
     </clipPath>
    </defs>
    <g clip-path="url(#CLIP23)">
     <g />
    </g>
   </g>
   <g />
   <g />
   <g />
   <g>
    <g>
     <g />
     <g shape-rendering="crispEdges" />
    </g>
    <g>
     <g />
    </g>
    <g>
     <g />
    </g>
   </g>
   <g>
    <text x="10" y="10" class="f2">Evaluation Only. Created with Aspose.Cells for Python via Java.Copyright 2003 - 2023 Aspose Pty Ltd.</text>
   </g>
  </g>
 </g>
 <defs />
 <defs>
  <style type="text/css">
   <![CDATA[
   
.f0
{
font-family:Microsoft YaHei Light;
font-size:11.039999962px;
fill:#000000;
}

.f1
{
font-family:Calibri;
font-size:11.039999962px;
fill:#000000;
}

.f2
{
font-family:Arial;
font-size:10px;
fill:#FF0000;
}

   
.p0
{
stroke:#FF0000;
stroke-width:2.907599926px;
stroke-linecap:butt;
stroke-linejoin:miter;
}

   ]]></style>
 </defs>
</svg>
