<?xml version="1.0" standalone="no"?><!DOCTYPE svg PUBLIC "-//W3C//DTD SVG 1.1//EN" "http://www.w3.org/Graphics/SVG/1.1/DTD/svg11.dtd"><svg t="1593258574875" class="icon" viewBox="0 0 1024 1024" version="1.1" xmlns="http://www.w3.org/2000/svg" p-id="1556" xmlns:xlink="http://www.w3.org/1999/xlink" width="200" height="200"><defs><style type="text/css"></style></defs><path d="M754.8 725.6c-23.16-1.93-43.56 61.13-79.6 57.94-11.09-0.98-16.79-7.63-32.25-6.05-19.18 1.96-23.76 13.57-34.76 14.61-32.25 3.05-56.12-90.68-73.56-87.66-13.12 2.27-17.81 58.47-10.58 109.83 3.09 21.94 8.31 41.31 14.15 58.61 24.94 7.52 41.05-4.77 81.74-4.77 46.77 0 59.6 12.79 93.61 0.01 28.29-10.64 54.29-36.16 77.17-69.58-11.95-55.98-24.83-72.02-35.92-72.94z" fill="#FFFFFF" p-id="1557"></path><path d="M706.56 342.88l-173.63 0.08c-104.4 19.94-197.21 81.54-179.38 196.83 18.42 119.14 95.95 290.03 172.91 328.37 4.19 2.09 8.07 3.6 11.76 4.71-5.84-17.3-11.06-36.67-14.15-58.61-7.23-51.36-2.54-107.56 10.58-109.83 17.44-3.02 41.3 90.71 73.56 87.66 11.01-1.04 15.59-12.65 34.76-14.61 15.45-1.58 21.16 5.06 32.25 6.05 36.04 3.19 56.44-59.87 79.6-57.94 11.09 0.92 23.97 16.96 35.92 72.93 49.6-72.45 84.45-182.15 95.63-258.74 16.87-115.58-75.2-177.04-179.81-196.9z" fill="#F8E51F" p-id="1558"></path><path d="M744.76 316.51c-4.05-1.77-8.29-3.47-12.72-5.01-3.78-1.38-8.02-2.81-12.27-3.97-8.26-2.36-16.21-3.97-23.12-5.05h-0.02c0.8-0.98 1.42-1.96 2.28-2.94 2.79-3.17 5.93-6.25 9.36-9.22 2.81-2.46 8.26-6.34 11.33-8.28 15.44-10.15 35.6-15.27 50.86-16.19 15.39-1.11 25.95 0.77 25.95 0.77s-9.42-4.9-25.32-8.57c-15.82-3.7-38.46-5.43-61.56 1.07-6.64 1.94-10.33 3.14-16.5 5.69-5.38 2.34-10.58 5-15.44 7.94-9.74 5.86-18.13 12.73-24.75 19.23-6.62 6.51-11.57 12.61-14.84 17.06-1.3 1.85-2.21 3.16-3.01 4.29-0.58-0.03-1.04-0.06-1.66-0.09-5.09-0.17-11.99 0.09-19.55 0.71-6.03-2.19-12.96-4.53-21.5-6.77-11.95-3.17-26.12-5.78-41.31-7-7.58-0.68-15.44-0.85-23.36-0.75-8.05 0.13-15.64 0.74-24.12 1.65-14.73 1.88-31.43 5.58-44.86 10.22-13.9 4.65-26.25 10.26-36.35 15.8-20.23 11.07-31.74 20.9-31.74 20.9s13.41-7.27 34.76-13.68c10.64-3.23 23.28-6.01 36.84-7.57 14-1.61 27.2-1.85 42.5-0.66 6.53 0.72 13.95 1.63 20.64 2.96 6.8 1.36 13.4 2.9 19.65 4.83 0.55 0.16 1.01 0.37 1.55 0.54-7.72 4.37-15.22 9.27-22 15.17-2.67 2.29-6.4 5.37-8.63 7.86-2.45 2.45-4.97 5.05-7.6 8.17-5.29 5.88-9.34 11.77-13.17 17.78-7.56 11.96-12.52 24.04-15.74 34.52-6.42 21.05-6.37 35.45-6.37 35.45s3.21-14.18 13.56-32.36c5.14-9.04 12.12-18.95 21.05-27.87 4.39-4.39 9.37-8.94 14.39-12.46 2.31-1.81 5.19-3.73 8.26-5.68 3.09-2.16 5.26-3.03 8.42-4.77 19.04-10.16 39.61-13.47 56.61-13.41 1.23 0.78 2.77 1.7 3.8 2.39 4.93 3.44 7.74 5.41 7.74 5.41l0.37 0.27c1.39 0.96 2.9 1.79 4.52 2.47 9.04 3.82 18.92 1.73 25.94-4.21 2.09 0.19 4.17 0.31 6.17 0 0.75 1.08 1.16 2.31 2.1 3.28 0.42 0.52 5.53 3.03 13.15 9.79 7.41 6.54 16.42 17.17 22.42 30.2 1.71 4.02 2.86 6.36 4.07 10.06 1.2 3.41 2.13 6.88 2.93 10.31 1.59 6.86 2.31 13.56 2.53 19.38 0.44 11.69-0.99 19.72-0.99 19.72s4.37-6.76 8.71-18.44c2.15-5.84 4.25-12.92 5.59-20.86 0.66-3.96 1.22-8.14 1.46-12.43 0.33-3.57 0.24-8.29 0.17-11.87-0.01-0.44-0.01-0.86-0.02-1.26-0.59-17.91-5.97-35.98-12.08-48.8-1-2.16-2.01-3.99-3.01-5.88 1.94-0.54 4.02-1.09 6.42-1.64 5.43-1.24 11.9-2.43 18.99-3.15 3.42-0.4 7.07-0.6 11.29-0.71 3.55-0.15 7.36-0.16 11.32-0.03 15.62 0.52 31.57 3.72 43.34 7.36 11.79 3.6 19.47 7.11 19.47 7.11s-23.52-24.61-56.9-38.78z" fill="#FE9A01" p-id="1559"></path><path d="M573.42 305.32c-1.77 0-3.56-0.26-5.34-0.8-9.58-2.93-14.95-13.08-12.01-22.65 3.28-10.7 9.35-38.73-5.17-68.01-11.24-22.67-29.4-34.83-39.22-40.05-8.84-4.7-12.2-15.68-7.5-24.54 4.72-8.83 15.7-12.16 24.53-7.49 13.67 7.27 38.94 24.21 54.68 55.97 20.31 40.95 11.9 79.92 7.34 94.75-2.38 7.82-9.56 12.82-17.31 12.82z" fill="#231F20" p-id="1560"></path><path d="M643.14 469.76c-2.23 0-4.49-0.4-6.66-1.27-8.03-3.16-12.72-11.57-11.19-20.07 0 0 1.08-6.49 0.72-15.82-0.21-5.55-0.91-10.96-2.08-16.01-0.64-2.72-1.38-5.53-2.36-8.31-0.87-2.67-1.58-4.25-2.47-6.28l-1.18-2.72c-3.84-8.34-10.55-17.38-17.74-23.71-3.44-3.04-6.22-5.03-8.08-6.23-10.8 4.89-23.2 5.2-34.33 0.47a43.437 43.437 0 0 1-7.82-4.28l-6.74-4.72c-11.85 0.5-27.6 3-42.89 11.17l-2.94 1.56c-1.2 0.61-2.3 1.16-3.67 2.1-3.11 2.01-5.49 3.54-7.39 5.05-4.26 3.02-8.29 6.52-12.78 11-6.75 6.75-13.01 15.07-18.09 24.02-8.74 15.33-11.64 27.37-11.68 27.49-2.1 8.95-10.59 15.18-19.73 13.89-9.13-1.04-16.04-8.71-16.07-17.9 0-1.77 0.14-17.81 7.17-40.81 4.28-13.96 10.25-27.06 17.76-38.92 3.79-5.97 8.51-13.01 15.01-20.24 2.61-3.09 5.46-6.05 8.22-8.83 0.13-0.14 0.27-0.28 0.43-0.45-0.25-0.02-0.48-0.05-0.73-0.07-13.41-1.09-25.45-0.85-38.47 0.64-11.41 1.32-23.04 3.71-33.65 6.89-19.07 5.74-31.28 12.23-31.4 12.3-8.17 4.42-18.34 1.91-23.56-5.74-5.23-7.63-3.88-17.99 3.17-24.02 0.52-0.45 13.19-11.19 34.82-23.02 12.07-6.64 25.67-12.54 39.32-17.1 14.07-4.87 31.76-8.9 48.32-11.01 9.38-1.02 17.47-1.63 26.07-1.79 8.68-0.12 17.15 0.09 25.31 0.82 14.93 1.2 30.31 3.8 44.33 7.54 7.44 1.93 13.76 3.97 19.34 5.93 3.38-0.24 6.58-0.38 9.54-0.45 3.51-4.51 8.29-10.15 14.35-16.08 8.35-8.24 18.07-15.8 28.05-21.84 5.55-3.33 11.48-6.38 17.58-9.02 7.16-2.97 11.26-4.32 18.66-6.47 30.23-8.45 57.33-4.46 70.78-1.32 17.6 4.06 28.4 9.54 29.58 10.16 7.93 4.15 11.67 13.46 8.77 21.94a18.12 18.12 0 0 1-20.37 12c0.01 0-8.81-1.42-21.43-0.54-9.6 0.59-23.78 3.45-35.95 9.64 0.84 0.31 1.68 0.61 2.48 0.9 4.58 1.63 9.2 3.45 13.61 5.36 36.37 15.47 61.77 41.85 62.83 42.96 5.99 6.28 6.67 15.94 1.64 23.03-5.04 7.08-14.41 9.54-22.31 6-0.46-0.21-7.16-3.21-17.22-6.26-12.07-3.73-26.5-6.19-38.66-6.59-3.44-0.14-6.83-0.09-9.99 0-3.84 0.12-6.97 0.28-9.9 0.64-0.65 0.07-1.29 0.12-1.92 0.21 4.49 13.25 7.19 27.47 7.62 40.64 0.12 5.69 0.17 11.22-0.22 15.4-0.24 4.3-0.86 9.12-1.61 13.67-1.41 8.24-3.58 16.37-6.5 24.23-4.9 13.18-9.93 21.14-10.49 21.99-3.4 5.25-9.21 8.25-15.21 8.25z m-30.87-130.59c2.99 1.98 7.04 4.86 11.95 9.21 4.31 3.83 8.45 8.2 12.26 12.89-1.59-5.43-3.58-10.67-5.87-15.47-0.78-1.68-1.47-2.93-2.14-4.21-2.6-4.86-3.09-11.1-0.93-16.15 2.16-5.05 6.26-9.33 11.56-10.82 2.15-0.59 4.46-1.2 7.12-1.82 5.29-1.2 11.31-2.36 17.86-3.16-6.17-1.61-11.96-2.72-17.11-3.52a18.162 18.162 0 0 1-14.06-11.29c-2.35-6-1.36-12.78 2.62-17.83 0.05-0.07 0.08-0.12 0.12-0.16-6 4.01-11.78 8.74-16.92 13.79-6.02 5.91-10.37 11.34-12.95 14.86l-2.73 3.92c-3.67 5.31-9.75 8.29-16.38 7.72-5.28-0.14-11.5 0.07-18.28 0.61-2.6 0.26-5.22-0.14-7.68-1.02-5.57-2.05-11.98-4.2-19.88-6.28-10.31-2.74-21.49-4.77-32.66-5.95 4.66 3.02 8.12 7.96 8.71 13.44 0.38 3.5-0.09 7.02-1.4 10.11 12.57-2.86 24.22-3.38 32.99-3.61 3.42 0.02 6.77 0.99 9.65 2.83l12.28 8.29c4.91 2.24 7.83 0.17 8.67-0.52 3.71-3.1 8.58-4.53 13.33-4.21 6.93-1.16 15.43 1.94 19.44 7.68 0.15 0.24 0.29 0.45 0.43 0.67zM417.99 614.6c-7.36 0-14.27-4.51-16.99-11.78-3.51-9.4-5.94-19.15-7.25-29a132.678 132.678 0 0 1 0-35.05c1.32-9.92 10.29-17.05 20.37-15.59 9.93 1.3 16.91 10.42 15.6 20.36a96.605 96.605 0 0 0-0.01 25.48c0.96 7.18 2.73 14.27 5.28 21.09 3.51 9.4-1.26 19.84-10.65 23.36-2.1 0.78-4.23 1.13-6.35 1.13zM762.33 586.43c-1.1 0-2.2-0.09-3.31-0.31-9.86-1.82-16.36-11.27-14.56-21.11 2.01-10.86 2.62-21.96 1.84-32.97a131.62 131.62 0 0 0-5.5-29.35c-2.95-9.56 2.42-19.72 11.99-22.67 9.6-2.93 19.73 2.43 22.68 12 3.74 12.16 6.1 24.75 7.01 37.43 1 14.07 0.21 28.25-2.34 42.13-1.61 8.73-9.24 14.85-17.81 14.85zM665.26 753.37c-3.28 0-6.61-0.9-9.6-2.76-8.49-5.29-11.08-16.48-5.77-24.99a65.087 65.087 0 0 0 8.17-19.58c1.44-6.14 2-12.47 1.63-18.8-0.57-10.01 7.09-18.58 17.08-19.15 10.21-0.61 18.58 7.09 19.14 17.08 0.57 9.82-0.3 19.62-2.54 29.19a101.241 101.241 0 0 1-12.71 30.49c-3.44 5.5-9.36 8.52-15.4 8.52zM500.41 795.1c-4.57 0-9.15-1.72-12.68-5.17a73.22 73.22 0 0 1-11.1-13.89c-4.69-7.58-7.95-15.94-9.67-24.85-1.9-9.85 4.52-19.34 14.36-21.25 9.86-2.03 19.35 4.53 21.25 14.36 0.89 4.56 2.54 8.83 4.92 12.66a36.39 36.39 0 0 0 5.59 7.04c7.17 6.99 7.3 18.47 0.31 25.65-3.55 3.63-8.26 5.45-12.98 5.45zM597.44 865.01c-2.58 0-5.2-0.54-7.69-1.72-9.07-4.25-12.98-15.04-8.73-24.11 2.67-5.69 4.67-11.71 5.99-17.92a83.57 83.57 0 0 0 1.7-14.5c0.29-10.01 8.97-17.57 18.63-17.64 10.01 0.28 17.9 8.62 17.62 18.63-0.19 6.99-1.02 14.03-2.44 20.93a119.53 119.53 0 0 1-8.64 25.91c-3.08 6.57-9.63 10.42-16.44 10.42zM531.73 659.47c-6.85 0-13.4-3.9-16.47-10.51-1.75-3.78-3.41-7.86-4.9-12.28-5.35-15.82-7.4-32.61-6.12-49.9 0.74-10.01 9.43-17.29 19.44-16.74 9.99 0.76 17.49 9.45 16.74 19.44-0.93 12.42 0.52 24.4 4.31 35.61 1.05 3.12 2.22 5.98 3.45 8.62 4.2 9.09 0.25 19.89-8.83 24.09a18.302 18.302 0 0 1-7.62 1.67zM640.26 579.13c-1.2 0-2.42-0.12-3.64-0.35-9.83-2.01-16.15-11.6-14.16-21.4a159.91 159.91 0 0 0 2.81-20.62c0.52-7.54 0.52-15.09 0-22.46-0.71-10.01 6.81-18.68 16.8-19.39 10.04-0.45 18.68 6.8 19.38 16.79 0.65 9.07 0.65 18.35 0 27.58-0.6 8.5-1.76 17.03-3.45 25.32-1.74 8.6-9.3 14.53-17.74 14.53z" fill="#231F20" p-id="1561"></path><path d="M516.08 489.39c-7.07 0-13.79-4.16-16.72-11.08a73.953 73.953 0 0 1-5.54-22.13c-0.96-10.74 0.43-21.42 4.12-31.74 3.35-9.42 13.73-14.38 23.18-10.96 9.44 3.38 14.35 13.75 10.97 23.19-1.9 5.34-2.62 10.81-2.14 16.27 0.34 3.85 1.3 7.65 2.82 11.24 3.9 9.23-0.43 19.86-9.65 23.76-2.29 1-4.69 1.45-7.04 1.45zM268.12 412.07c-9.69 0-17.74-7.68-18.11-17.45-1.69-44.56 19.25-84.5 54.65-104.19 27.63-15.44 60.9-16.11 93.64-2.08 9.21 3.97 13.46 14.62 9.51 23.83-3.96 9.19-14.64 13.39-23.82 9.52-12.85-5.55-37.95-12.82-61.67 0.43-23.06 12.82-37.21 40.74-36.05 71.13 0.38 10.01-7.43 18.42-17.44 18.8-0.25 0.01-0.47 0.01-0.71 0.01z" fill="#231F20" p-id="1562"></path><path d="M310.11 562.81c-0.22 0-0.45 0-0.67-0.02-21.74-0.78-43.55-5.24-63.05-12.92-79.18-31.22-112.93-113.17-111.26-180.57 3.13-125.97 132.42-183.12 137.92-185.48 96.04-41.42 215.98-10.58 298.46 76.75 6.88 7.27 6.57 18.75-0.72 25.62-7.28 6.85-18.74 6.57-25.63-0.73-72.07-76.23-175.67-103.77-257.75-68.35-1.13 0.5-113.46 50.07-116 153.08-1.37 54.76 25.4 121.13 88.27 145.9 15.73 6.19 33.4 9.8 51.09 10.46 10.01 0.35 17.83 8.76 17.46 18.77-0.36 9.79-8.4 17.49-18.12 17.49z" fill="#231F20" p-id="1563"></path><path d="M507.84 879.2c-10.83 0-22.48-2.17-36.33-9.09-87.18-43.43-165.18-228.35-182.73-341.82-16.71-108.04 57.59-191.36 193.9-217.41 9.78-2.03 19.33 4.56 21.22 14.41 1.88 9.83-4.57 19.34-14.42 21.21-56.1 10.72-184.48 49.38-164.85 176.27 18.1 117.07 93.27 280.13 163.07 314.9 14.69 7.3 23.13 5.76 39.99 2.74 11.55-2.1 25.93-4.7 45.41-4.7 19.17 0 33.16 2.03 44.4 3.64 16.88 2.45 26.17 3.78 42.83-2.48 79.64-29.94 144.81-201.59 161.24-313.95 18.6-127.43-109.35-165.86-165.23-176.46-9.85-1.89-16.31-11.38-14.44-21.21 1.86-9.87 11.38-16.34 21.19-14.45 137.77 26.17 210.42 107.41 194.37 217.36-17.55 120.09-86.35 305.81-184.36 342.67-25.4 9.54-41.8 7.18-60.79 4.44-10.63-1.54-22.66-3.28-39.22-3.28-16.22 0-28.3 2.2-38.95 4.11-8.72 1.56-17.22 3.1-26.3 3.1z" fill="#231F20" p-id="1564"></path></svg>