<?xml version="1.0" standalone="no"?><!DOCTYPE svg PUBLIC "-//W3C//DTD SVG 1.1//EN" "http://www.w3.org/Graphics/SVG/1.1/DTD/svg11.dtd"><svg t="1593258563891" class="icon" viewBox="0 0 1024 1024" version="1.1" xmlns="http://www.w3.org/2000/svg" p-id="1290" xmlns:xlink="http://www.w3.org/1999/xlink" width="200" height="200"><defs><style type="text/css"></style></defs><path d="M579.85 389.48c-52.53 35.78-116.52 66.38-204.96 56.87-151.08-16.25-244.97 90.68-244.97 202.53 0 111.86 110.45 216.93 244.97 202.53 228.55-24.45 388.09-212.26 434.84-362.55 0 0 3.41-62.47-66.48-110.12s-163.4 10.74-163.4 10.74z" fill="#FF9C00" p-id="1291"></path><path d="M882.93 445.01c-34.33-13.33-41.86-44.96-42.8-66.28-2.12-48.18-22.45-77.25-59.83-91.6-37.39-14.35-85.98-1.42-115.96 28.06-50.36 49.53-119.25 15.5-119.25 15.5s-3.68 41.04 45.42 64.75c37.33 18.02 73.92 13.38 91.44 9.81-4.68 45.81-9.78 133.92-9.78 133.92l80.18-102.86c13.04 30.61 29.36 43.05 42.36 48.63 28.5 12.24 46.15-7.26 70.04 3.95 29.83 14 27.33 34.48 27.33 34.48s27.89-63.98-9.15-78.36z" fill="#00D195" p-id="1292"></path><path d="M260.89 569.34c-5.81 0-11.55-2.66-15.3-7.67-6.29-8.45-4.54-20.39 3.9-26.68 43.21-32.19 89.5-36.09 113.49-35.54 10.54 0.25 18.86 8.97 18.63 19.5-0.25 10.52-8.65 18.4-19.5 18.63-19.04-0.57-55.77 2.61-89.83 28a19.146 19.146 0 0 1-11.39 3.76zM212.42 628.11c-2.81 0-5.65-0.62-8.34-1.92-9.45-4.62-13.39-16.02-8.79-25.49 2.62-5.36 6.25-12.17 11.16-19.72 5.73-8.83 17.54-11.33 26.37-5.6 8.82 5.73 11.33 17.54 5.6 26.37a145.53 145.53 0 0 0-8.85 15.65c-3.3 6.78-10.09 10.71-17.15 10.71z" fill="#FFFFFF" p-id="1293"></path><path d="M560.29 744.87c-1.71 0-3.46-0.35-5.14-1.09-6.41-2.84-9.31-10.35-6.47-16.77 4.27-9.62 7.15-19.69 8.56-29.94 2.33-16.88 0.66-34.2-4.99-51.5-2.17-6.66 1.48-13.84 8.15-16.02 6.65-2.16 13.85 1.46 16.02 8.15 6.84 20.99 8.85 42.13 5.98 62.84-1.74 12.61-5.27 24.98-10.5 36.77-2.08 4.74-6.73 7.56-11.61 7.56zM532.09 597.67c-3.51 0-7-1.45-9.51-4.28a147.143 147.143 0 0 0-16.43-15.82c-5.41-4.47-6.19-12.47-1.74-17.89 4.46-5.42 12.45-6.19 17.89-1.74 6.9 5.68 13.39 11.95 19.29 18.6 4.65 5.25 4.17 13.28-1.08 17.93a12.58 12.58 0 0 1-8.42 3.2z" fill="#FF5869" p-id="1294"></path><path d="M301.4 856.76c-60.51 0-119.34-22.24-164.57-62.88-47.79-42.95-75.2-101.26-75.2-160 0-62.72 26.74-122.71 73.38-164.6 49.76-44.69 118.29-64.91 192.69-56.88 86.81 9.27 148.31-23.77 192.19-53.66 8.71-5.93 20.59-3.66 26.48 5.01 5.93 8.7 3.69 20.56-5.01 26.48-49.25 33.58-118.49 70.86-217.73 60.06-81.51-8.75-133.7 20.91-163.14 47.34-38.59 34.67-60.73 84.34-60.73 136.25 0 47.93 22.8 95.91 62.56 131.64 43.74 39.29 102.5 58.24 161.33 51.94 210.54-22.53 369.98-192.75 418.67-349.25 3.13-10.05 13.81-15.61 23.86-12.55 10.05 3.13 15.67 13.81 12.55 23.86-52.38 168.4-224.13 351.57-451.03 375.83-8.8 0.95-17.57 1.41-26.3 1.41z" fill="#231F20" p-id="1295"></path><path d="M622.96 543.24c-2.25 0-4.52-0.4-6.71-1.21a19.072 19.072 0 0 1-12.31-18.95c0.17-3.04 3.72-64.27 7.63-110.79-22.91 1.51-50.67-1.2-78.57-14.67-60.29-29.11-56.32-81.41-56.12-83.62 0.56-6.27 4.18-11.85 9.67-14.93a19.225 19.225 0 0 1 17.76-0.46c2.28 1.11 57.62 27.17 97.44-12 36.41-35.8 92.4-49.07 136.16-32.26 45.41 17.45 69.64 53.97 72.04 108.56 1.12 25.28 11.43 41.88 30.65 49.34 12.41 4.83 21.67 13.84 26.77 26.07 12.73 30.58-4.98 72.94-7.04 77.68-3.78 8.66-13.35 13.24-22.48 10.77-9.13-2.5-15.05-11.31-13.91-20.7 0 0.04-0.01 0.06-0.01 0.06-0.15 0-1.2-7.8-16.49-14.99-5.87-2.73-10.97-1.98-20.92-0.24-12.1 2.13-28.66 5.1-48.54-3.45-14.55-6.24-27.1-16.84-37.56-31.64L638 535.89c-3.7 4.74-9.3 7.35-15.04 7.35z m9.76-172.05c4.68 0 9.26 1.72 12.79 4.93a19.073 19.073 0 0 1 6.17 16.07c-1.97 19.38-4.05 46.69-5.77 71.52l42.19-54.11c4.15-5.32 10.72-8.13 17.5-7.18 6.69 0.87 12.42 5.23 15.06 11.43 8.54 20.06 19.42 33.03 32.35 38.6 9.39 4.04 16.69 2.7 26.81 0.94 11.92-2.11 26.75-4.74 43.79 3.25 3.75 1.76 7.15 3.65 10.24 5.62-0.1-3.56-0.63-6.75-1.7-9.31-1.11-2.64-2.61-4.1-5.36-5.16-33.63-13.07-53.15-42.61-54.94-83.21-1.74-39.65-16.43-62.66-47.63-74.64-29.26-11.22-70.46-1-95.75 23.85-34.29 33.71-74.93 35.32-103.76 30.43 5.16 6.56 12.99 13.34 24.86 19.07 29.45 14.21 59.38 12.34 79.34 8.29 1.27-0.27 2.55-0.39 3.81-0.39z" fill="#231F20" p-id="1296"></path><path d="M742.72 283.25c-5.11 0-9.94-3.1-11.88-8.17-12.89-33.74-14.51-78.22 10.96-101.51 12.05-11.03 25.29-17.06 39.32-17.91 7.04-0.12 13.04 4.92 13.45 11.91 0.42 7.01-4.91 13.03-11.91 13.45-8.2 0.5-15.96 4.18-23.71 11.28-16.56 15.17-13.86 48.83-4.36 73.69 2.49 6.56-0.78 13.91-7.33 16.42-1.5 0.57-3.02 0.84-4.54 0.84z" fill="#231F20" p-id="1297"></path></svg>