<?xml version="1.0" standalone="no"?><!DOCTYPE svg PUBLIC "-//W3C//DTD SVG 1.1//EN" "http://www.w3.org/Graphics/SVG/1.1/DTD/svg11.dtd"><svg t="1593258567860" class="icon" viewBox="0 0 1024 1024" version="1.1" xmlns="http://www.w3.org/2000/svg" p-id="1425" xmlns:xlink="http://www.w3.org/1999/xlink" width="200" height="200"><defs><style type="text/css"></style></defs><path d="M735.76 352.34l-28.3-4.1-0.43 4.79C685.28 322.89 649.87 303 609.37 303H481.08c-38.06 0-71.52 17.65-93.47 44.78l-0.02-0.21-32.9 4.76c-89.56 12.97-147.96 100.93-125.13 188.5l73.79 283.14c13.35 51.21 63.05 84.2 115.42 76.62l13.97-2.02-0.03-0.39c22.19 26.99 55.64 44.15 92.87 44.15h39.3c37.23 0 70.68-17.15 92.87-44.15l-0.04 0.39 13.97 2.02c52.37 7.58 102.07-25.41 115.42-76.62l73.79-283.14c22.83-87.56-35.57-175.52-125.13-188.49z" fill="#FE3A00" p-id="1426"></path><path d="M427.87 513.73c-8.97 0-16.69-6.74-17.72-15.87l-3.76-33.78c-1.1-9.78 5.95-18.61 15.74-19.7 9.81-1 18.62 5.95 19.71 15.75l3.78 33.78c1.1 9.78-5.95 18.61-15.74 19.7-0.67 0.07-1.35 0.12-2.01 0.12zM421.9 426.61c-1.41 0-2.84-0.16-4.26-0.51-9.57-2.35-15.43-12.01-13.08-21.58 3.07-12.52 9.07-23.84 17.82-33.62 15.12-16.94 35.99-26.25 58.72-26.25h128.28c9.85 0 17.84 7.99 17.84 17.84s-7.99 17.84-17.84 17.84H481.09c-12.44 0-23.85 5.09-32.12 14.36-4.81 5.39-8.1 11.54-9.76 18.33-1.99 8.13-9.28 13.59-17.31 13.59z" fill="#FFFFFF" p-id="1427"></path><path d="M538.75 294.75c-2.04-16.05-8.57-48.84-33.7-79.3-11.84-14.35-24.51-24.18-34.69-30.73l57.99-43.86a233.56 233.56 0 0 1 31.97 72.85c8.6 34.82 7.41 64.51 5.2 83.26l-26.77-2.22z" fill="#8EC72E" p-id="1428"></path><path d="M329.31 505.84c-8.97 0-16.69-6.74-17.71-15.87l-10.12-90.62c-4.36-39.03 8.16-78.2 34.35-107.47 26.18-29.27 63.74-46.07 103.02-46.07h128.28c39.28 0 76.82 16.8 103.02 46.07 26.18 29.27 38.7 68.44 34.36 107.47l-7.03 62.89c-1.1 9.8-9.92 16.82-19.72 15.75-9.79-1.09-16.84-9.92-15.74-19.7l7.03-62.89c3.23-28.97-6.06-58.01-25.49-79.73-19.42-21.72-47.28-34.17-76.42-34.17h-128.3c-29.14 0-57 12.45-76.43 34.17-19.42 21.72-28.7 50.78-25.47 79.73l10.13 90.63c1.09 9.78-5.97 18.61-15.76 19.7-0.67 0.06-1.34 0.11-2 0.11zM522.64 920.8h-39.31c-70.48 0-129.54-52.83-137.37-122.87l-8.72-78.2c-1.09-9.78 5.97-18.61 15.76-19.7 9.84-1.04 18.61 5.95 19.71 15.75l8.72 78.2c5.8 51.95 49.61 91.14 101.89 91.14h39.31c52.3 0 96.11-39.19 101.89-91.14l17.01-152.35c1.09-9.8 10.04-16.8 19.71-15.75 9.79 1.09 16.85 9.92 15.76 19.7l-17 152.35c-7.81 70.04-66.87 122.87-137.36 122.87zM348.19 675.03c-8.97 0-16.69-6.74-17.7-15.87l-1.92-17.12c-1.1-9.78 5.95-18.61 15.74-19.7 9.75-1.07 18.62 5.95 19.71 15.75l1.92 17.12c1.1 9.78-5.95 18.61-15.74 19.7-0.67 0.07-1.34 0.12-2.01 0.12z" fill="#231F20" p-id="1429"></path><path d="M361.49 880.17c-54.64 0-103.5-36.75-117.64-91.05l-73.8-283.14c-12.16-46.67-3.83-96.46 22.83-136.63 26.67-40.14 69.31-67.14 117.02-74.04l32.9-4.76c9.84-1.37 18.79 5.34 20.21 15.1 1.42 9.76-5.34 18.79-15.1 20.21l-32.9 4.76c-37.67 5.46-71.34 26.76-92.39 58.47-21.06 31.71-27.63 71.02-18.04 107.86l73.8 283.14c11.07 42.44 52.21 69.76 95.6 63.47l13.97-2.02c9.79-1.3 18.82 5.37 20.21 15.1 1.42 9.76-5.35 18.79-15.1 20.21l-13.97 2.02c-5.91 0.88-11.79 1.3-17.6 1.3zM644.48 880.17c-5.81 0-11.67-0.42-17.58-1.28l-13.97-2.02c-9.75-1.42-16.52-10.46-15.1-20.21 1.41-9.73 10.33-16.42 20.21-15.1l13.97 2.02c43.48 6.37 84.54-21 95.61-63.47l73.78-283.14c9.59-36.82 3.03-76.15-18.03-107.86-21.05-31.71-54.73-53.01-92.4-58.47l-28.29-4.09c-9.75-1.42-16.52-10.45-15.1-20.21 1.39-9.73 10.4-16.38 20.21-15.1l28.3 4.09c47.7 6.9 90.36 33.89 117.03 74.06 26.66 40.14 34.97 89.95 22.81 136.6l-73.78 283.14c-14.17 54.28-63.03 91.04-117.67 91.04zM523.3 275.45c-0.5 0-1-0.02-1.51-0.07l-26.76-2.23c-8.39-0.7-15.15-7.16-16.21-15.52-2.34-18.4-9.41-45.53-29.77-70.2-8.64-10.48-18.93-19.59-30.57-27.06a17.857 17.857 0 0 1-1.12-29.25l57.99-43.86c3.94-2.95 8.93-4.13 13.78-3.34 4.86 0.84 9.15 3.62 11.87 7.74 15.91 24.07 27.49 50.44 34.41 78.43 7.26 29.39 9.14 59.54 5.6 89.63-1.08 9.01-8.75 15.73-17.71 15.73z m-65.58-130.12c6.81 5.95 13.1 12.43 18.84 19.38 15.19 18.42 24.53 37.82 30.25 55.36a215.5 215.5 0 0 0-6.05-41.45 214.633 214.633 0 0 0-19.71-50.92l-23.33 17.63z" fill="#231F20" p-id="1430"></path></svg>