<?xml version="1.0" standalone="no"?><!DOCTYPE svg PUBLIC "-//W3C//DTD SVG 1.1//EN" "http://www.w3.org/Graphics/SVG/1.1/DTD/svg11.dtd"><svg t="1593258547004" class="icon" viewBox="0 0 1024 1024" version="1.1" xmlns="http://www.w3.org/2000/svg" p-id="1152" xmlns:xlink="http://www.w3.org/1999/xlink" width="200" height="200"><defs><style type="text/css"></style></defs><path d="M758.07 461.24c-3.5 0-0.24 0.15-3.5 0.45l-0.31 7.94c-18.84-43.28-50.28-70.03-101.18-70.03-10.27 0-19.69 1.08-28.33 3.17v0.03c-16.72-15.7-38.2-24.7-66.16-24.7-27.96 0-49.44 9.01-66.16 24.7v-0.03c-8.64-2.09-18.06-3.17-28.33-3.17-50.9 0-82.34 26.76-101.18 70.03l-0.31-7.94c-3.26-0.3 0-0.45-3.5-0.45-83.49 0-110.53 86.43-110.53 193.04s27.04 193.04 110.53 193.04c7.29 0 12.32-0.67 18.57-1.94 19.28 27.33 47 43.44 86.43 43.44 10.14 0 19.46-1.06 28.01-3.1v-0.67c1.23 1.17 2.2 2.71 3.49 3.81 16.23 13.82 36.86 21.47 62.99 21.47 28.14 0 49.71-9.13 66.48-25.02v0.42c8.55 2.04 17.87 3.1 28.01 3.1 39.43 0 67.14-16.11 86.42-43.44 6.25 1.27 11.28 1.94 18.57 1.94 83.49 0 110.53-86.43 110.53-193.04s-27.05-193.05-110.54-193.05z" fill="#FFA21A" p-id="1153"></path><path d="M580.96 338.93c-9.77-16.02-13.49-30.25-14.58-34.43-4.92-18.83-3.76-33.95-3.41-37.88 3.1-34.08 23.07-56.05 30.02-66.02 9.95-14.26 34.92-28.78 34.92-28.78l9.54 40.1s15.69-18.14 41.24-32.45c13.11-7.35 45.57-7.56 45.57-7.56l3.76 36.34s13.63-13.77 31.3-20.1c13.78-4.93 27.91-1.83 38.88 2.39 0.68 11.73-0.67 26.14-9.57 37.76-11.41 14.9-28.68 23.68-28.68 23.68l33.47 14.66s-10.1 30.84-21.09 41.1c-21.42 19.98-43.48 29.39-43.48 29.39l35.28 21.31s-21.45 19.36-38.06 24.48c-11.61 3.58-38.62 15.91-72.03 8.47-3.85-0.86-18.6-4.37-35.03-14.79-3.64-2.31-16.07-10.19-28.34-24.38l-9.71-13.29z" fill="#8EC72E" p-id="1154"></path><path d="M513.4 829.4c-4.32 0-8.47-2.47-10.42-6.65-2.84-6.18-5.44-13.22-7.68-20.9-1.79-6.09 1.7-12.45 7.77-14.22 6.11-1.84 12.45 1.72 14.22 7.77 1.95 6.61 4.12 12.57 6.52 17.72 2.64 5.73 0.16 12.57-5.6 15.23-1.54 0.72-3.2 1.05-4.81 1.05zM494.99 739.41c-5.94 0-10.95-4.57-11.42-10.59-1.77-23.27-2.62-50.93-2.62-84.6 0-106.1 6-219.3 77.63-219.3 6.34 0 11.47 5.13 11.47 11.47 0 6.34-5.13 11.47-11.47 11.47-48.2 0-54.7 99.27-54.7 196.37 0 33.08 0.83 60.19 2.58 82.85 0.47 6.32-4.26 11.83-10.57 12.32-0.29 0.01-0.58 0.01-0.9 0.01z" fill="#FFFFFF" p-id="1155"></path><path d="M517.85 889.57c-29.25 0-54.2-8.6-74.14-25.56-55.86-47.57-63.57-151.99-63.57-257.76 0-147.16 16.69-283.32 137.7-283.32 121.02 0 137.7 136.16 137.7 283.32 0.02 147.16-16.67 283.32-137.69 283.32z m-51.82-51.77c13.71 11.69 30.66 17.36 51.83 17.36 73.38 0 103.3-72.12 103.3-248.91s-29.92-248.91-103.3-248.91-103.3 72.12-103.3 248.91c-0.01 92.84 6.11 192.94 51.47 231.55z" fill="#231F20" p-id="1156"></path><path d="M423.38 868.07c-128.88 0-143.8-149.42-143.8-261.82 0-112.39 14.92-261.81 143.8-261.81 11.51 0 22.42 1.23 32.39 3.67 9.23 2.26 14.89 11.56 12.63 20.78-2.26 9.25-11.62 14.94-20.79 12.63-7.32-1.79-15.48-2.69-24.23-2.69-75.66 0-109.39 70.13-109.39 227.41s33.73 227.41 109.39 227.41c8.65 0 16.73-0.87 24.01-2.62 9.23-2.19 18.52 3.5 20.72 12.75 2.22 9.23-3.49 18.5-12.75 20.72-9.87 2.35-20.65 3.57-31.98 3.57z" fill="#231F20" p-id="1157"></path><path d="M318.38 826.56c-58.28 0-127.74-36.49-127.74-210.25s69.46-210.23 127.74-210.23c7.08 0 15.28 4.46 17.85 11.06-2.53-6.52-8.51-10.03-12.99-10.57 9.34 1.1 16.39 9.52 15.43 18.88-0.94 9.34-8.38 16.22-18.34 15.41-0.76-0.07-1.54-0.2-2.33-0.38-61.91 0.67-92.95 59.83-92.95 175.83 0 116.7 31.4 175.85 93.34 175.85 6.16 0 10.1-0.56 15.23-1.61 9.27-1.84 18.39 4.12 20.29 13.44 1.88 9.32-4.14 18.39-13.44 20.29-6.8 1.36-13.16 2.28-22.09 2.28zM612.35 868.07c-11.33 0-22.08-1.19-32.01-3.56-9.25-2.19-14.94-11.47-12.74-20.72s11.47-14.94 20.72-12.75c7.3 1.75 15.39 2.62 24.03 2.62 75.64 0 109.37-70.13 109.37-227.41s-33.73-227.41-109.37-227.41c-8.76 0-16.93 0.9-24.26 2.69-9.14 2.24-18.55-3.38-20.78-12.63-2.26-9.23 3.4-18.55 12.63-20.78 10.01-2.44 20.9-3.67 32.41-3.67 128.88 0 143.77 149.42 143.77 261.81 0.01 112.39-14.89 261.81-143.77 261.81z" fill="#231F20" p-id="1158"></path><path d="M717.33 826.56c-8.94 0-15.3-0.92-22.08-2.28-9.3-1.9-15.32-10.97-13.44-20.29 1.88-9.32 10.89-15.25 20.29-13.44 5.13 1.05 9.07 1.61 15.23 1.61 61.93 0 93.33-59.15 93.33-175.85 0-116.23-31.16-175.38-92.62-175.83-0.85 0.18-1.75 0.29-2.69 0.38-9.5 0.81-17.81-6.16-18.66-15.61-0.85-9.45 6.14-17.81 15.61-18.66l0.02 0.18c0.05-0.02 0.11-0.05 0.18-0.07v-0.13 0.13c1.61-0.4 3.25-0.63 4.82-0.63 58.28 0 127.74 36.46 127.74 210.23s-69.45 210.26-127.73 210.26zM220.9 427.74c-6.65 0-13.55-1.05-20.61-3.52-39.24-13.6-55.21-59.65-47.48-94.5 5.38-24.08 25.67-59.38 59.8-59.38 0.49 0 0.99 0.02 1.46 0.02 23.63 0.69 50.58 19.35 52.95 48.29 1.86 22.17-11.4 43.63-32.97 53.4-8.67 3.87-18.84 0.07-22.78-8.58-3.92-8.67-0.07-18.86 8.58-22.78 8.22-3.72 13.53-11.6 12.9-19.2-0.83-9.9-12.21-16.53-19.67-16.73-11.54-0.2-23.7 18.95-26.68 32.41-4.46 20.07 5.35 47.69 25.17 54.54 24.91 8.67 51.78-21.46 52.08-21.77 9.3-10.66 10.57-19.15 12.72-33.22 1.72-11.31 3.88-25.42 11.22-42.58 14-32.63 53.4-88.85 112.22-92.55 26.16-1.64 64.33 6.7 94.34 34.87 18.66 17.54 40.9 49.75 40.9 103.66 0 9.5-7.7 17.2-17.2 17.2s-17.2-7.7-17.2-17.2c0-33.42-10.1-59.85-30.06-78.57-22.04-20.7-50.73-26.56-68.63-25.64-42.22 2.67-72.59 48.13-82.74 71.81-5.62 13.1-7.26 23.83-8.85 34.18-2.42 15.95-4.93 32.45-20.76 50.62-1.41 1.64-30.99 35.22-68.71 35.22z" fill="#231F20" p-id="1159"></path><path d="M634.84 372.97c-7.91 0-16.37-0.78-25.26-2.75-7.8-1.72-23.45-6.25-40.5-17.04a144.392 144.392 0 0 1-32.16-27.69l-10.57-14.38c-0.29-0.38-0.56-0.78-0.81-1.19a146.922 146.922 0 0 1-16.53-39c-5.08-19.58-4.61-35.86-3.9-43.83 3.16-34.43 20.63-57.7 30.03-70.2l3.03-4.12c11.78-16.87 37.49-32.12 40.38-33.8a17.343 17.343 0 0 1 15.43-0.94c4.99 2.15 8.69 6.54 9.95 11.85l2.8 11.76c6.45-4.97 14.14-10.26 22.85-15.14 16.13-9.05 47.69-9.72 53.85-9.76h0.11c8.8 0 16.19 6.65 17.11 15.43l0.72 6.9c3.56-1.88 7.42-3.63 11.47-5.06 15.12-5.51 32.28-4.61 50.82 2.51 6.3 2.42 10.6 8.31 11 15.05 1.17 19.78-3.22 36.35-13.08 49.23-2.62 3.4-5.44 6.52-8.31 9.36l6.34 2.75c8.11 3.56 12.21 12.7 9.45 21.12-1.93 5.85-12.16 35.68-25.71 48.34-7.3 6.81-14.67 12.5-21.39 17.14l10.35 6.25c4.66 2.8 7.71 7.66 8.24 13.08 0.52 5.42-1.57 10.77-5.62 14.4-2.49 2.24-24.84 22.08-44.48 28.16l-4.91 1.66c-10.87 3.75-28.64 9.91-50.7 9.91z m-80.27-81.55l9.25 12.68c6.21 7.08 14.45 14.18 23.65 20 13.1 8.31 25.04 11.51 29.57 12.52 24.12 5.33 44.86-1.81 57.2-6.07l6.05-2.04c3.63-1.12 8.08-3.54 12.56-6.39l-13.62-8.24a17.205 17.205 0 0 1-8.27-15.93c0.45-6.43 4.46-12.07 10.42-14.6 0.14-0.07 19.73-8.67 38.48-26.16 2.98-2.78 7.19-10.64 10.93-19.31l-18.48-8.08c-6.09-2.67-10.1-8.62-10.31-15.28-0.18-6.63 3.47-12.81 9.41-15.81 0.09-0.05 14.07-7.37 22.82-18.84 2.91-3.78 4.79-8.62 5.64-14.45-5.8-1.01-10.97-0.65-15.45 0.96-13.64 4.86-24.8 15.88-24.91 15.99-4.7 4.75-11.71 6.36-17.94 4.12-6.27-2.19-10.71-7.84-11.4-14.45l-2.08-20.07c-9.41 0.94-18.19 2.55-21.7 4.52-22.4 12.52-36.55 28.58-36.71 28.74-4.23 4.81-10.86 6.92-17.09 5.4-6.25-1.55-11.13-6.45-12.61-12.72l-3.69-15.5c-4.12 3.43-7.75 6.94-9.9 10.06l-3.74 5.08c-7.86 10.46-21.01 27.95-23.27 52.66-0.42 4.61-0.99 16.98 2.91 31.96 2.73 10.39 6.86 20.22 12.28 29.25z" fill="#231F20" p-id="1160"></path><path d="M550.18 316.73c-3.92 0-7.86-1.32-11.09-4.06-7.26-6.11-8.2-16.98-2.06-24.23 16.01-19.02 37.92-33.35 61.66-40.36 33.71-10.01 62.78-3.43 77.12 1.37 9.03 3 13.89 12.75 10.86 21.75-2.98 9.05-12.81 13.89-21.75 10.86-10.5-3.5-31.83-8.27-56.47-1.01-23.43 6.94-38.32 21.5-45.13 29.57-3.4 4.03-8.26 6.11-13.14 6.11z" fill="#231F20" p-id="1161"></path><path d="M608.7 280.38c-6.29 0-12.36-3.47-15.39-9.47-4.28-8.49-0.85-18.81 7.64-23.09 6.29-3.16 19.28-16.71 27.3-33.91a72.983 72.983 0 0 0 6.43-23.32c1.01-9.43 9.3-16.22 18.93-15.3 9.45 1.01 16.28 9.47 15.3 18.93-1.28 11.92-4.46 23.43-9.47 34.22-10.21 21.91-27.91 42.49-43.03 50.11a17.217 17.217 0 0 1-7.71 1.83z" fill="#231F20" p-id="1162"></path></svg>