<?xml version="1.0" standalone="no"?><!DOCTYPE svg PUBLIC "-//W3C//DTD SVG 1.1//EN" "http://www.w3.org/Graphics/SVG/1.1/DTD/svg11.dtd"><svg t="1594793696866" class="icon" viewBox="0 0 1024 1024" version="1.1" xmlns="http://www.w3.org/2000/svg" p-id="1199" xmlns:xlink="http://www.w3.org/1999/xlink" width="128" height="128"><defs><style type="text/css"></style></defs><path d="M565.57 258.73c63.37 3.98 122.38 36.2 159.91 88.86l67.25 94.36c44.11 61.9 51.85 142.63 20.3 211.77l-48.1 105.42c-31.55 69.15-97.59 116.21-173.25 123.47l-115.35 11.06c-75.66 7.25-149.44-26.41-193.55-88.31L215.53 711c-44.11-61.9-51.85-142.63-20.3-211.77l48.1-105.42c31.55-69.15 97.59-116.21 173.25-123.47l39.9-3.83V179.4l23.31 38.68 29.26-75.88 25.29 75.88 31.26-38.68v78.91l-0.03 0.42z" fill="#F8E51F" p-id="1200"></path><path d="M813.22 644.66c-11-6.21-46.28-21.75-65.58-33.7-64.45-39.91-70.31-51.08-86.39-49.37-22.29 2.38-23.52 25.19-78.8 111.07-33.86 52.61-49.04 68.34-43.67 92.09 4.03 17.84 15.86 23.37 32.28 58.86 8.53 18.44 15.78 43.64 18.51 53.88l103.24-38.45 89.44-124.21 30.97-70.17z" fill="#FFFFFF" p-id="1201"></path><path d="M267.29 533.11c-5.1 0-10.13-2.26-13.48-6.58-5.81-7.43-4.5-18.18 2.94-23.99 4.11-3.2 7.85-6.42 11.26-9.6 6.9-6.42 17.73-6.07 24.17 0.86 6.43 6.9 6.05 17.71-0.85 24.15-4.12 3.83-8.61 7.69-13.53 11.54a17.029 17.029 0 0 1-10.51 3.62zM315.43 470.73c-2.09 0-4.2-0.38-6.27-1.19-8.77-3.46-13.09-13.38-9.61-22.16 2.07-5.27 3.56-10.08 4.96-14.58 3.65-11.69 7.43-23.78 18.2-36.19 14.46-16.71 35.53-27.26 62.57-31.34 9.34-1.46 18.05 5.03 19.45 14.35 1.42 9.33-5.01 18.03-14.33 19.45-18.78 2.84-32.86 9.54-41.88 19.92-6.07 7.03-8.19 13.78-11.39 24-1.62 5.24-3.38 10.82-5.81 16.92-2.65 6.73-9.08 10.82-15.89 10.82zM424.86 837.85c-4.76 0-9.5-1.98-12.88-5.85-2.98-3.42-6.43-7.72-9.97-12.92-5.3-7.81-3.25-18.43 4.56-23.73 7.81-5.32 18.42-3.27 23.74 4.55 2.6 3.86 5.21 7.07 7.43 9.62 6.19 7.11 5.47 17.9-1.65 24.11-3.22 2.83-7.22 4.22-11.23 4.22zM398.94 782.1c-8.5 0-15.86-6.33-16.93-14.97-1.29-10.35-0.85-19.11-0.49-26.15 0.45-8.56 0.58-13.19-1.29-16.81-2.14-4.16-13.68-17.8-70.8-16.37h-0.38c-9.26 0-16.87-7.4-17.09-16.7-0.2-9.45 7.28-17.27 16.71-17.48 55.83-1.01 89.22 10.17 101.95 34.9 6.16 11.98 5.58 23.27 5.03 34.19-0.31 6.31-0.64 12.82 0.27 20.19 1.16 9.37-5.47 17.91-14.84 19.07-0.71 0.09-1.43 0.13-2.14 0.13z" fill="#EA573F" p-id="1202"></path><path d="M543.07 871.88c-7.57 0-14.46-5.04-16.51-12.67a259.918 259.918 0 0 0-15.13-41.88c-7.54-16.24-14.02-25.7-19.22-33.3-6.14-8.99-11.46-16.75-14.22-28.96-5.99-26.53 5.83-44.35 29.42-79.85 4.89-7.38 10.41-15.7 16.55-25.24 19.58-30.41 32.31-52.85 41.61-69.23 17.78-31.39 26.72-47.13 49.73-49.59 16.56-1.83 26.3 4.89 47.68 19.49 11.1 7.56 26.54 18.1 49.53 32.34a1341.12 1341.12 0 0 0 45.92 27.18c8.21 4.64 11.1 15.06 6.48 23.27-4.63 8.23-15.02 11.12-23.3 6.47-11.12-6.28-27.54-15.76-47.08-27.87-23.58-14.61-39.43-25.41-50.8-33.16-18.31-12.48-21.27-14.02-24.81-13.75-5.07 0.54-8.74 6.23-23.63 32.46-9.5 16.74-22.49 39.66-42.59 70.87-6.25 9.7-11.86 18.17-16.84 25.65-21.21 31.94-27.19 41.67-24.54 53.44 1.27 5.57 3.69 9.29 9.1 17.17 5.61 8.19 13.28 19.41 22.03 38.26 7.03 15.22 12.8 31.16 17.13 47.39 2.45 9.12-2.98 18.49-12.11 20.93-1.47 0.39-2.96 0.58-4.4 0.58z" fill="#231F20" p-id="1203"></path><path d="M634.63 633.47H609c-16.29 0-29.55-13.25-29.55-29.55v-22.9c0-16.3 13.26-29.55 29.55-29.55h25.63c16.29 0 29.55 13.25 29.55 29.55v22.9c-0.01 16.3-13.27 29.55-29.55 29.55z m-25.64-59.21c-3.74 0-6.76 3.04-6.76 6.76v22.9c0 3.73 3.03 6.76 6.76 6.76h25.63c3.74 0 6.76-3.04 6.76-6.76v-22.9c0-3.73-3.03-6.76-6.76-6.76h-25.63z" fill="#231F20" p-id="1204"></path><path d="M634.63 692.69H609c-16.29 0-29.55-13.25-29.55-29.55v-22.91c0-16.3 13.26-29.55 29.55-29.55h25.63c16.29 0 29.55 13.25 29.55 29.55v22.91c-0.01 16.3-13.27 29.55-29.55 29.55z m-25.64-59.22c-3.74 0-6.76 3.04-6.76 6.76v22.91c0 3.73 3.03 6.76 6.76 6.76h25.63c3.74 0 6.76-3.04 6.76-6.76v-22.91c0-3.73-3.03-6.76-6.76-6.76h-25.63z" fill="#231F20" p-id="1205"></path><path d="M634.63 751.89H609c-16.29 0-29.55-13.25-29.55-29.55v-22.9c0-16.3 13.26-29.55 29.55-29.55h25.63c16.29 0 29.55 13.25 29.55 29.55v22.9c-0.01 16.3-13.27 29.55-29.55 29.55z m-25.64-59.2c-3.74 0-6.76 3.04-6.76 6.76v22.9c0 3.73 3.03 6.76 6.76 6.76h25.63c3.74 0 6.76-3.04 6.76-6.76v-22.9c0-3.73-3.03-6.76-6.76-6.76h-25.63z" fill="#231F20" p-id="1206"></path><path d="M572.68 751.89h-25.63c-16.29 0-29.55-13.25-29.55-29.55v-22.9c0-16.3 13.26-29.55 29.55-29.55h25.63c16.29 0 29.55 13.25 29.55 29.55v22.9c0 16.3-13.26 29.55-29.55 29.55z m-25.63-59.2c-3.74 0-6.76 3.04-6.76 6.76v22.9c0 3.73 3.03 6.76 6.76 6.76h25.63c3.74 0 6.76-3.04 6.76-6.76v-22.9c0-3.73-3.03-6.76-6.76-6.76h-25.63zM696.57 692.69h-25.63c-16.29 0-29.55-13.25-29.55-29.55v-22.91c0-16.3 13.26-29.55 29.55-29.55h25.63c16.29 0 29.55 13.25 29.55 29.55v22.91c0 16.3-13.26 29.55-29.55 29.55z m-25.63-59.22c-3.74 0-6.76 3.04-6.76 6.76v22.91c0 3.73 3.03 6.76 6.76 6.76h25.63c3.74 0 6.76-3.04 6.76-6.76v-22.91c0-3.73-3.03-6.76-6.76-6.76h-25.63z" fill="#231F20" p-id="1207"></path><path d="M696.57 751.89h-25.63c-16.29 0-29.55-13.25-29.55-29.55v-22.9c0-16.3 13.26-29.55 29.55-29.55h25.63c16.29 0 29.55 13.25 29.55 29.55v22.9c0 16.3-13.26 29.55-29.55 29.55z m-25.63-59.2c-3.74 0-6.76 3.04-6.76 6.76v22.9c0 3.73 3.03 6.76 6.76 6.76h25.63c3.74 0 6.76-3.04 6.76-6.76v-22.9c0-3.73-3.03-6.76-6.76-6.76h-25.63z" fill="#231F20" p-id="1208"></path><path d="M634.63 811.1H609c-16.29 0-29.55-13.25-29.55-29.55v-22.9c0-16.3 13.26-29.55 29.55-29.55h25.63c16.29 0 29.55 13.25 29.55 29.55v22.9c-0.01 16.3-13.27 29.55-29.55 29.55z m-25.64-59.21c-3.74 0-6.76 3.04-6.76 6.76v22.9c0 3.73 3.03 6.76 6.76 6.76h25.63c3.74 0 6.76-3.04 6.76-6.76v-22.9c0-3.73-3.03-6.76-6.76-6.76h-25.63zM781.9 890.85h-25.63c-16.29 0-29.55-13.25-29.55-29.55v-22.91c0-16.3 13.26-29.55 29.55-29.55h25.63c16.29 0 29.55 13.25 29.55 29.55v22.91c0 16.3-13.26 29.55-29.55 29.55z m-25.63-59.22c-3.74 0-6.76 3.04-6.76 6.76v22.91c0 3.73 3.03 6.76 6.76 6.76h25.63c3.74 0 6.76-3.04 6.76-6.76v-22.91c0-3.73-3.03-6.76-6.76-6.76h-25.63z" fill="#231F20" p-id="1209"></path><path d="M572.68 811.1h-25.63c-16.29 0-29.55-13.25-29.55-29.55v-22.9c0-16.3 13.26-29.55 29.55-29.55h25.63c16.29 0 29.55 13.25 29.55 29.55v22.9c0 16.3-13.26 29.55-29.55 29.55z m-25.63-59.21c-3.74 0-6.76 3.04-6.76 6.76v22.9c0 3.73 3.03 6.76 6.76 6.76h25.63c3.74 0 6.76-3.04 6.76-6.76v-22.9c0-3.73-3.03-6.76-6.76-6.76h-25.63z" fill="#231F20" p-id="1210"></path><path d="M590.84 871.81c-2.09 0-4.18-0.58-6.03-1.72a11.388 11.388 0 0 1-5.36-9.67v-42.55c0-16.3 13.26-29.55 29.55-29.55h25.63c16.29 0 29.55 13.25 29.55 29.55v12.2c0 4.35-2.47 8.32-6.39 10.24l-61.94 30.35c-1.58 0.76-3.3 1.15-5.01 1.15z m18.15-60.71c-3.74 0-6.76 3.04-6.76 6.76v24.29l39.16-19.19v-5.09c0-3.73-3.03-6.76-6.76-6.76h-25.64z" fill="#231F20" p-id="1211"></path><path d="M412.06 898.29c-73.74 0-144.07-35.73-187.33-96.43l-67.24-94.39c-47.5-66.65-55.91-154.31-21.94-228.78l48.08-105.41c33.98-74.47 105.71-125.58 187.19-133.39l24.43-2.35v-71.58c0-7.68 5.12-14.41 12.5-16.47 7.46-2.1 15.24 1.08 19.23 7.66l5.27 8.75 16.69-43.3c2.6-6.73 9.37-11.18 16.35-10.94 7.21 0.17 13.53 4.84 15.82 11.68l15.42 46.27 11.64-14.4c4.54-5.65 12.17-7.79 18.98-5.37a17.08 17.08 0 0 1 11.39 16.11v63.83c63.01 8.35 119.46 42.18 156.71 94.44l67.24 94.36C810 485.23 818.4 572.9 784.43 647.36l-48.08 105.41c-33.98 74.47-105.71 125.58-187.19 133.39l-115.35 11.06c-7.27 0.72-14.52 1.07-21.75 1.07z m17.37-677.72v32.51c0 8.8-6.7 16.17-15.46 17.01l-39.9 3.83c-69.36 6.65-130.41 50.16-159.33 113.55l-48.08 105.41c-28.93 63.39-21.78 138.02 18.64 194.77l67.24 94.37c40.45 56.74 108.56 87.82 178.03 81.2l115.35-11.06c69.35-6.65 130.41-50.16 159.33-113.55l48.08-105.41c28.92-63.39 21.78-138.02-18.65-194.77l-67.24-94.36c-34.4-48.23-88-78.02-147.07-81.72-9.37-0.59-16.51-8.61-16-17.98l0.02-0.41v-29.67l-0.91 1.1c-3.89 4.86-10.04 7.29-16.33 6.07a17.078 17.078 0 0 1-13.17-11.4l-10.24-30.76-12.15 31.51a17.132 17.132 0 0 1-14.46 10.87c-2.76 0.2-5.29-0.17-7.7-1.11zM867.12 781.01c-3.76 0-7.25-1.85-9.39-4.94-21.87-31.81-32.97-52.5-32.97-61.51v-22.9c0-16.3 13.26-29.55 29.55-29.55h25.63c16.29 0 29.55 13.25 29.55 29.55v22.9c0 9.01-11.1 29.7-32.98 61.51a11.41 11.41 0 0 1-9.39 4.94zM854.3 684.9c-3.74 0-6.76 3.04-6.76 6.76v22.9c0.8 3.94 9.61 19.08 19.58 34.5 9.97-15.46 18.78-30.74 19.63-35.23l-0.05-22.16c0-3.73-3.03-6.76-6.76-6.76H854.3z" fill="#231F20" p-id="1212"></path></svg>