<?xml version="1.0" standalone="no"?><!DOCTYPE svg PUBLIC "-//W3C//DTD SVG 1.1//EN" "http://www.w3.org/Graphics/SVG/1.1/DTD/svg11.dtd"><svg t="1605255825084" class="icon" viewBox="0 0 1024 1024" version="1.1" xmlns="http://www.w3.org/2000/svg" p-id="1760" xmlns:xlink="http://www.w3.org/1999/xlink" width="128" height="128"><defs><style type="text/css"></style></defs><path d="M738.31 84.73H555.1l-4 20.45-170.76 800.54 36.58-0.07 163.92-788.67h157.47z" fill="#EAEBF3" p-id="1761"></path><path d="M736.65 839.36c-0.04-0.63-0.08-1.25-0.13-1.87-4.06-58.14-4.65-116.63-14.47-174.26-9.83-57.72-22.61-120.54-45.8-174.68-23.5-54.85-60.74-103.2-32.45-164.72 0.02-0.05 60.34-131.25 60.34-131.25H350.59s60.31 140.41 60.33 140.45c12.64 29.44 13.3 62.99 1.79 92.86-24.35 63.21-54.9 120.31-69.99 186.36-16.85 73.79-24.82 149.44-23.68 224.98 0.56 37.05-3.82 100.81 54.01 100.81h308.63c54.87 0.01 57.41-60.73 54.97-98.68z" fill="#F8E868" p-id="1762"></path><path d="M502.211 819.699l65.475 13.721-13.721 65.475-65.475-13.721z" fill="#EAEBF3" p-id="1763"></path><path d="M553.97 905.93c-0.48 0-0.96-0.05-1.44-0.15l-65.47-13.72c-3.78-0.79-6.21-4.5-5.42-8.29l13.72-65.47c0.79-3.78 4.5-6.21 8.29-5.42l65.47 13.72c1.82 0.38 3.41 1.47 4.42 3.02s1.37 3.45 0.99 5.27l-13.72 65.47c-0.68 3.31-3.59 5.57-6.84 5.57z m-57.19-26.13l51.77 10.85 10.85-51.77-51.77-10.85-10.85 51.77z" fill="#7C4924" p-id="1764"></path><path d="M545.442 456.732l65.475 13.721-13.72 65.475-65.476-13.72z" fill="#EAEBF3" p-id="1765"></path><path d="M597.2 542.96c-0.48 0-0.96-0.05-1.44-0.15l-65.47-13.72c-3.78-0.79-6.21-4.5-5.42-8.29l13.72-65.47c0.79-3.78 4.5-6.21 8.29-5.42l65.47 13.72c3.78 0.79 6.21 4.5 5.42 8.29l-13.72 65.47a6.98 6.98 0 0 1-3.02 4.42 6.991 6.991 0 0 1-3.83 1.15z m-57.18-26.14l51.77 10.85 10.85-51.77-51.77-10.85-10.85 51.77z" fill="#7C4924" p-id="1766"></path><path d="M561.64 662.33v-92.86c-24.91 0.76-48.35 10.37-66.51 26.35l66.51 66.51zM486.57 604.28a104.964 104.964 0 0 0-24.77 48.26c-1.4 6.46-2.18 12.9-2.38 19.28h94.69l-67.54-67.54zM551.18 683.84h-91.44c2.01 23.89 12.14 46.15 28.16 63.28l63.28-63.28zM496.6 755.43c12.78 10.87 28.34 18.85 45.88 22.67 6.41 1.4 12.82 2.17 19.15 2.37v-90.08l-65.03 65.04zM644.08 744.77c11.53-13.05 20-29.13 23.97-47.36 0.99-4.53 1.66-9.06 2.05-13.57h-86.94l60.92 60.93zM573.67 691.37v88.8c23.27-1.93 44.99-11.58 61.94-26.85l-61.94-61.95zM637.07 597.95c-13.45-12.62-30.37-21.89-49.71-26.1-4.58-1-9.15-1.67-13.69-2.06v91.56l63.4-63.4zM580.22 671.81h90.21c-0.71-24.27-9.84-47.16-25.07-65.13l-65.14 65.13z" fill="#FFA621" p-id="1767"></path><path d="M567.82 793.27c-8.1 0-16.32-0.86-24.56-2.65-30.12-6.55-55.89-24.44-72.55-50.38-16.67-25.93-22.23-56.8-15.68-86.93 6.55-30.12 24.44-55.89 50.38-72.55 25.93-16.67 56.8-22.23 86.93-15.68 30.12 6.55 55.89 24.44 72.55 50.38 16.67 25.93 22.23 56.8 15.68 86.93-11.74 53.94-59.67 90.88-112.75 90.88z m-0.23-216.87c-19.22 0-38.06 5.49-54.62 16.13-22.79 14.64-38.51 37.28-44.27 63.75-5.76 26.47-0.87 53.59 13.78 76.38s37.28 38.51 63.75 44.27c54.63 11.89 108.76-22.89 120.65-77.53 5.76-26.47 0.87-53.59-13.78-76.38s-37.28-38.51-63.75-44.27c-7.23-1.57-14.52-2.35-21.76-2.35z" fill="#7C4924" p-id="1768"></path><path d="M478.98 513.34c20.75 39.07 21.98 79.02 2.75 89.23s-51.63-13.19-72.38-52.26c-20.75-39.07-2.75-89.23-2.75-89.23s51.63 13.19 72.38 52.26z" fill="#8EBD62" p-id="1769"></path><path d="M458.41 615.24c-9.07 0-19.22-3.84-29.67-11.38-14.52-10.48-28.32-27.18-38.84-47-21.94-41.33-3.94-92.71-3.16-94.87a7 7 0 0 1 8.32-4.42c2.23 0.57 54.88 14.43 76.83 55.76 10.53 19.82 16.63 40.6 17.18 58.5 0.61 19.66-5.55 33.93-17.33 40.19-4.07 2.15-8.55 3.22-13.33 3.22zM398 473.15c-3.77 14.21-10.58 49.19 4.26 77.14 9.54 17.97 21.85 32.96 34.67 42.21 11.23 8.11 21.52 10.71 28.24 7.14 6.72-3.57 10.33-13.55 9.9-27.39-0.49-15.8-6.01-34.4-15.55-52.37-14.84-27.94-47.63-41.9-61.52-46.73z" fill="#7C4924" p-id="1770"></path><path d="M389.52 470.25c17.1 47.36 41.78 91.48 73.09 130.9 4.4 5.54 12.14-2.29 7.78-7.78-30.06-37.84-53.85-80.6-70.26-126.05-2.39-6.61-13.03-3.76-10.61 2.93z" fill="#7C4924" p-id="1771"></path><path d="M387.35 532.88c15.06 18.75 35.58 32.41 58.56 39.45 6.78 2.08 9.68-8.54 2.92-10.61-21.28-6.51-39.78-19.29-53.7-36.62-4.43-5.51-12.17 2.31-7.78 7.78z" fill="#7C4924" p-id="1772"></path><path d="M435.87 497.82c7.77 24.63 11.58 50.11 11.31 75.94-0.07 7.08 10.93 7.09 11 0 0.28-26.73-3.66-53.37-11.7-78.86-2.12-6.73-12.75-3.86-10.61 2.92z" fill="#7C4924" p-id="1773"></path><path d="M738.31 84.73H555.1l-4 20.45-170.76 800.54 36.58-0.07 163.92-788.67h157.47z" fill="#FF686E" p-id="1774"></path><path d="M389.59 862.36l-9.25 43.36 36.58-0.07 11.37-54.72c-12.33 6.08-25.26 10.28-38.7 11.43zM433.28 657.55l-12.94 60.66c5.05-1.41 10.06-2.95 15.02-4.69 3.15-1.11 6.29-2.27 9.37-3.56-0.31 0.1 3.83-1.76 4.27-1.97 1.51-0.72 3.02-1.46 4.5-2.23 1.89-0.97 3.75-2 5.6-3.05l11.94-57.44c-11.91 5.86-24.43 10.24-37.76 12.28zM456.99 560.31c-1.04 0.32-2.07 0.5-3.1 0.6l-12.77 59.85 0.49-0.15c1.86-0.59 3.71-1.23 5.54-1.92 0.06-0.02 3.14-1.28 3-1.19 3.06-1.35 6.06-2.84 9.02-4.4 6.73-3.56 13.2-7.59 19.49-11.88 0.6-0.41 1.19-0.83 1.78-1.24l10.42-50.15c-11.08 4.01-22.55 7.04-33.87 10.48z" fill="#EAEBF3" p-id="1775"></path><path d="M475.94 457.54l-13.99 65.57c3.67-1.06 7.34-2.13 10.98-3.28 9.55-3.03 13.57-4.51 21.66-9.12 1.56-0.89 3.17-1.5 4.8-1.87l13.67-65.79c-11.97 5.53-24.41 10.18-37.12 14.49z" fill="#EAEBF3" p-id="1776"></path><path d="M499.43 347.43l-15.11 70.85c2.59-0.98 5.16-1.99 7.73-2.99 0.52-0.2 0.86-0.33 1.08-0.42 0.19-0.09 0.47-0.21 0.89-0.4 1.5-0.66 3-1.32 4.48-2.01 5.94-2.74 11.76-5.75 17.38-9.12 2.13-1.28 4.21-2.62 6.27-4l13.67-65.75c-11.7 5.53-24.15 9.57-36.39 13.84z" fill="#EAEBF3" p-id="1777"></path><path d="M540.35 240.34c-5.44 1.3-10.9 2.49-16.3 3.95-0.93 0.25-1.86 0.53-2.79 0.8l-13.48 63.17c1.6-0.58 3.19-1.18 4.78-1.79 1.07-0.41 2.13-0.84 3.19-1.27 0.4-0.18 1.5-0.65 2.01-0.88 2.3-1.04 4.57-2.15 6.8-3.33 5.04-2.67 9.81-5.75 14.33-9.22 1.87-1.44 3.96-2.22 6.13-2.48l11.09-53.37c-5.17 1.71-10.44 3.15-15.76 4.42z" fill="#EAEBF3" p-id="1778"></path><path d="M540.64 154.23l-11.41 53.48c5.21-1.23 10.41-2.49 15.52-4.07 2.68-0.83 5.34-1.73 7.94-2.77 0.24-0.11 0.78-0.36 1.23-0.58 1.53-0.76 3.03-1.52 4.52-2.34a17.92 17.92 0 0 1 5.99-2.02l9.43-45.35c-10.92 2.27-22.12 3.34-33.22 3.65z" fill="#EAEBF3" p-id="1779"></path><path d="M664.81 84.73H627.3c0.15 0.35 0.28 0.62 0.34 0.75 3.23 6.34 7.23 12.21 11.44 17.93 0.11 0.14 0.2 0.26 0.29 0.38 0.61 0.77 1.22 1.53 1.84 2.29 0.98 1.21 1.97 2.4 2.98 3.59 2.09 2.47 4.22 4.9 6.38 7.31h28.08c-4.82-10.66-9.36-21.45-13.84-32.25z" fill="#EAEBF3" p-id="1780"></path><path d="M701.74 84.73c2.71 6.38 5.53 12.81 8.92 20.18 1.86 4.05 3.78 8.08 5.75 12.07h21.9V84.73h-36.57z" fill="#EAEBF3" p-id="1781"></path><path d="M591.05 84.73H555.1l-4 20.45-3.07 14.39c0.45-0.03 0.89-0.05 1.34-0.08 2.36-0.17 4.7-0.41 7.05-0.66 0.33-0.03 0.55-0.06 0.7-0.07h0.02c1.17-0.17 2.34-0.36 3.51-0.55 9.6-1.63 18.97-4.24 27.96-8 5.71-2.39 11.75-0.01 16.01 4.1-6.06-9.22-10.93-19.02-13.57-29.58z" fill="#EAEBF3" p-id="1782"></path><path d="M412.36 755.59l-15.07 70.64c0.68-0.2 1.37-0.39 2.04-0.6 2.43-0.77 4.83-1.65 7.2-2.6 0.33-0.15 0.93-0.41 1.51-0.68 1.12-0.52 2.24-1.05 3.34-1.6 4.96-2.47 9.78-5.24 14.46-8.21 4.15-2.64 8.2-5.43 12.16-8.34l12.44-59.84c-12.36 4.67-25.18 8.23-38.08 11.23z" fill="#EAEBF3" p-id="1783"></path><path d="M380.34 912.72c-2.11 0-4.11-0.95-5.44-2.59a7.011 7.011 0 0 1-1.41-5.87l170.75-800.48 3.99-20.39a6.995 6.995 0 0 1 6.87-5.66h183.21c3.87 0 7 3.13 7 7v32.25c0 3.87-3.13 7-7 7H586.54l-162.77 783.1a7.009 7.009 0 0 1-6.84 5.58l-36.58 0.07c0-0.01-0.01-0.01-0.01-0.01zM560.87 91.73l-2.89 14.8c-0.01 0.04-0.02 0.08-0.02 0.12L388.99 898.7l22.23-0.04 162.77-783.11a7 7 0 0 1 6.85-5.58h150.47V91.73H560.87z" fill="#7C4924" p-id="1784"></path><path d="M329.653 770.884l54.249-39.15 39.15 54.25-54.25 39.15z" fill="#EAEBF3" p-id="1785"></path><path d="M368.79 832.13c-2.17 0-4.31-1.01-5.68-2.9l-39.15-54.25c-2.26-3.13-1.56-7.51 1.58-9.77l54.25-39.15c3.13-2.26 7.51-1.56 9.77 1.58l39.15 54.25c2.26 3.13 1.56 7.51-1.58 9.77l-54.25 39.15a6.99 6.99 0 0 1-4.09 1.32z m-29.38-59.66l30.95 42.89 42.89-30.95-30.95-42.89-42.89 30.95z" fill="#7C4924" p-id="1786"></path><path d="M652.03 945.05H343.4c-26.56 0-44.57-12.3-53.53-36.55-7.2-19.49-7.32-43.34-7.41-62.5-0.01-3.01-0.03-5.91-0.07-8.66-1.01-67.15 5.15-134.66 18.3-200.67a7.007 7.007 0 0 1 8.23-5.5c3.79 0.76 6.25 4.44 5.5 8.23-12.96 65.04-19.03 131.56-18.04 197.72 0.04 2.8 0.06 5.75 0.07 8.81 0.22 46.57 3.91 85.11 46.94 85.11h308.63c13.62 0 24.01-4.02 31.77-12.3 13.22-14.1 18.67-40.65 16.2-78.94l-0.12-1.83c-1.12-15.97-1.98-32.2-2.82-47.9-2.21-41.4-4.5-84.21-11.56-125.67-9.41-55.23-22.15-118.99-45.33-173.1-4.41-10.28-9.4-20.53-14.22-30.44-20.87-42.84-42.44-87.14-18.16-139.96 0.01-0.03 33.07-71.93 55.78-121.33h-332c13.65 31.79 55.97 130.31 56.13 130.69 13.3 30.96 13.99 66.73 1.89 98.14-7.69 19.95-16.07 39.5-24.18 58.4l-2.61 6.08a7.005 7.005 0 0 1-9.19 3.68 7.005 7.005 0 0 1-3.68-9.19l2.61-6.09c8.06-18.78 16.39-38.2 23.98-57.91 10.79-28.03 10.18-59.95-1.69-87.58 0 0-0.45-1.04-60.33-140.45-0.93-2.16-0.71-4.65 0.59-6.61a6.984 6.984 0 0 1 5.85-3.15h353.56c2.39 0 4.61 1.21 5.89 3.22s1.46 4.53 0.47 6.7c0 0-60.18 130.88-60.34 131.25-21.52 46.8-2.31 86.24 18.02 127.98 4.9 10.06 9.97 20.46 14.5 31.06 23.76 55.46 36.72 120.22 46.26 176.26 7.2 42.26 9.51 85.48 11.74 127.28 0.84 15.64 1.7 31.82 2.81 47.67 0.04 0.63 0.09 1.27 0.13 1.91 2.76 42.89-3.77 72.14-19.96 89.41-10.4 11.11-24.53 16.73-41.98 16.73z" fill="#7C4924" p-id="1787"></path><path d="M320.17 592.29a6.998 6.998 0 0 1-6.71-8.99c3.56-12 7.72-24.34 12.73-37.74 1.35-3.62 5.38-5.46 9.01-4.11 3.62 1.35 5.46 5.38 4.11 9.01-4.89 13.09-8.95 25.14-12.42 36.83-0.92 3.03-3.7 5-6.72 5z" fill="#7C4924" p-id="1788"></path><path d="M296.69 906.77c6.86 17.98 20.29 31.28 46.7 31.28h308.63c25.64 0 39.86-13.27 47.47-31.28h-402.8z" fill="#FFA621" p-id="1789"></path><path d="M652.03 945.05H343.4c-26.27 0-44.19-12.04-53.25-35.79-0.82-2.15-0.53-4.57 0.78-6.47a6.992 6.992 0 0 1 5.76-3.03H699.5a6.992 6.992 0 0 1 6.44 9.72c-9.83 23.28-28.47 35.57-53.91 35.57z m-344.1-31.28c7.48 11.74 18.98 17.28 35.47 17.28h308.63c15.97 0 27.75-5.67 35.76-17.28H307.93z" fill="#7C4924" p-id="1790"></path></svg>