<?xml version="1.0" encoding="UTF-8" standalone="yes"?>
<svg xmlns="http://www.w3.org/2000/svg" xmlns:xlink="http://www.w3.org/1999/xlink" width="612pt" height="792pt">
 <g id="SFixTitle" />
 <g id="SContent">
  <g transform="scale(1.33333)">
   <rect width="100%" height="100%" fill="white" />
   <g>
    <g>
     <g />
     <g shape-rendering="crispEdges" />
    </g>
    <g>
     <g />
    </g>
    <g>
     <g />
    </g>
   </g>
   <g transform="matrix(1,0,0,1,50.400001526,54)">
    <defs>
     <clipPath id="CLIP0">
      <path d="M-0.5,-0.5 L310.5,-0.5 L310.5,189.5 L-0.5,189.5 Z " />
     </clipPath>
    </defs>
    <g clip-path="url(#CLIP0)">
     <g />
     <g shape-rendering="crispEdges" />
    </g>
    <defs>
     <clipPath id="CLIP1">
      <path d="M-0.5,-1.453799963 L310.5,-1.453799963 L310.5,190.546203613 L-0.5,190.546203613 Z " />
     </clipPath>
    </defs>
    <g clip-path="url(#CLIP1)">
     <g>
      <g />
     </g>
    </g>
    <defs>
     <clipPath id="CLIP2">
      <path d="M-0.5,-0.5 L310.5,-0.5 L310.5,189.5 L-0.5,189.5 Z " />
     </clipPath>
    </defs>
    <g clip-path="url(#CLIP2)">
     <g>
      <defs>
       <clipPath id="CLIP3">
        <path d="M0.25,0.25 L51.351737976,0.25 L51.351737976,28.826000214 L0.25,28.826000214 Z " />
       </clipPath>
      </defs>
      <g clip-path="url(#CLIP3)">
       <g>
        <g transform="matrix(1,0,0,1,1.075036168,21.56470108)">
         <text x="1" y="-2.889374971" class="f0">品</text>
         <text x="12.039999962" y="-2.889374971" class="f0">名</text>
        </g>
       </g>
      </g>
      <defs>
       <clipPath id="CLIP4">
        <path d="M51.851737976,0.25 L102.953475952,0.25 L102.953475952,28.826000214 L51.851737976,28.826000214 Z " />
       </clipPath>
      </defs>
      <g clip-path="url(#CLIP4)">
       <g>
        <g transform="matrix(1,0,0,1,52.676773071,21.56470108)">
         <text x="1" y="-2.889374971" class="f0">单</text>
         <text x="12.039999962" y="-2.889374971" class="f0">位</text>
        </g>
       </g>
      </g>
      <defs>
       <clipPath id="CLIP5">
        <path d="M103.453475952,0.25 L206.156951904,0.25 L206.156951904,14.288000107 L103.453475952,14.288000107 Z " />
       </clipPath>
      </defs>
      <g clip-path="url(#CLIP5)">
       <g>
        <g transform="matrix(1,0,0,1,104.278511047,14.295700073)">
         <text x="1" y="-2.889374971" class="f0">入</text>
         <text x="12.039999962" y="-2.889374971" class="f0">库</text>
        </g>
       </g>
      </g>
      <defs>
       <clipPath id="CLIP6">
        <path d="M206.656951904,0.25 L309.360412598,0.25 L309.360412598,14.288000107 L206.656951904,14.288000107 Z " />
       </clipPath>
      </defs>
      <g clip-path="url(#CLIP6)">
       <g>
        <g transform="matrix(1,0,0,1,207.481994629,14.295700073)">
         <text x="1" y="-2.889374971" class="f0">出</text>
         <text x="12.039999962" y="-2.889374971" class="f0">库</text>
        </g>
       </g>
      </g>
      <defs>
       <clipPath id="CLIP7">
        <path d="M103.453475952,14.788000107 L154.555206299,14.788000107 L154.555206299,28.826000214 L103.453475952,28.826000214 Z " />
       </clipPath>
      </defs>
      <g clip-path="url(#CLIP7)">
       <g>
        <g transform="matrix(1,0,0,1,104.278511047,28.83370018)">
         <text x="1" y="-2.889374971" class="f0">日</text>
         <text x="12.039999962" y="-2.889374971" class="f0">期</text>
        </g>
       </g>
      </g>
      <defs>
       <clipPath id="CLIP8">
        <path d="M155.055206299,14.788000107 L206.156951904,14.788000107 L206.156951904,28.826000214 L155.055206299,28.826000214 Z " />
       </clipPath>
      </defs>
      <g clip-path="url(#CLIP8)">
       <g>
        <g transform="matrix(1,0,0,1,155.880249023,28.83370018)">
         <text x="1" y="-2.889374971" class="f0">数</text>
         <text x="12.039999962" y="-2.889374971" class="f0">量</text>
        </g>
       </g>
      </g>
      <defs>
       <clipPath id="CLIP9">
        <path d="M206.656951904,14.788000107 L257.75869751,14.788000107 L257.75869751,28.826000214 L206.656951904,28.826000214 Z " />
       </clipPath>
      </defs>
      <g clip-path="url(#CLIP9)">
       <g>
        <g transform="matrix(1,0,0,1,207.481994629,28.83370018)">
         <text x="1" y="-2.889374971" class="f0">日</text>
         <text x="12.039999962" y="-2.889374971" class="f0">期</text>
        </g>
       </g>
      </g>
      <defs>
       <clipPath id="CLIP10">
        <path d="M258.258666992,14.788000107 L309.360412598,14.788000107 L309.360412598,28.826000214 L258.258666992,28.826000214 Z " />
       </clipPath>
      </defs>
      <g clip-path="url(#CLIP10)">
       <g>
        <g transform="matrix(1,0,0,1,259.083709717,28.83370018)">
         <text x="1" y="-2.889374971" class="f0">数</text>
         <text x="12.039999962" y="-2.889374971" class="f0">量</text>
        </g>
       </g>
      </g>
      <defs>
       <clipPath id="CLIP11">
        <path d="M0.25,29.326000214 L51.351737976,29.326000214 L51.351737976,43.363998413 L0.25,43.363998413 Z " />
       </clipPath>
      </defs>
      <g clip-path="url(#CLIP11)">
       <g>
        <g transform="matrix(1,0,0,1,1.075036168,43.371700287)">
         <text x="1" y="-2.889374971" class="f0">钢</text>
         <text x="12.039999962" y="-2.889374971" class="f0">管</text>
        </g>
       </g>
      </g>
      <defs>
       <clipPath id="CLIP12">
        <path d="M51.851737976,29.326000214 L102.953475952,29.326000214 L102.953475952,43.363998413 L51.851737976,43.363998413 Z " />
       </clipPath>
      </defs>
      <g clip-path="url(#CLIP12)">
       <g>
        <g transform="matrix(1,0,0,1,52.676773071,43.371700287)">
         <text x="1" y="-2.889374971" class="f0">米</text>
        </g>
       </g>
      </g>
      <defs>
       <clipPath id="CLIP13">
        <path d="M103.453475952,29.326000214 L154.555206299,29.326000214 L154.555206299,43.363998413 L103.453475952,43.363998413 Z " />
       </clipPath>
      </defs>
      <g clip-path="url(#CLIP13)">
       <g>
        <g transform="matrix(1,0,0,1,104.278511047,59.363502502)">
         <text x="1" y="-18.881175995" class="f0">2011-02-</text>
         <text x="1" y="-2.889374971" class="f0">27</text>
        </g>
       </g>
      </g>
      <defs>
       <clipPath id="CLIP14">
        <path d="M155.055206299,29.326000214 L206.156951904,29.326000214 L206.156951904,43.363998413 L155.055206299,43.363998413 Z " />
       </clipPath>
      </defs>
      <g clip-path="url(#CLIP14)">
       <g>
        <g transform="matrix(1,0,0,1,155.880249023,43.371700287)">
         <text x="1" y="-2.889374971" class="f0">510.00</text>
        </g>
       </g>
      </g>
      <defs>
       <clipPath id="CLIP15">
        <path d="M0.25,43.863998413 L51.351737976,43.863998413 L51.351737976,57.902000427 L0.25,57.902000427 Z " />
       </clipPath>
      </defs>
      <g clip-path="url(#CLIP15)">
       <g>
        <g transform="matrix(1,0,0,1,1.075036168,57.909698486)">
         <text x="1" y="-2.889374971" class="f0">钢</text>
         <text x="12.039999962" y="-2.889374971" class="f0">管</text>
        </g>
       </g>
      </g>
      <defs>
       <clipPath id="CLIP16">
        <path d="M51.851737976,43.863998413 L102.953475952,43.863998413 L102.953475952,57.902000427 L51.851737976,57.902000427 Z " />
       </clipPath>
      </defs>
      <g clip-path="url(#CLIP16)">
       <g>
        <g transform="matrix(1,0,0,1,52.676773071,57.909698486)">
         <text x="1" y="-2.889374971" class="f0">米</text>
        </g>
       </g>
      </g>
      <defs>
       <clipPath id="CLIP17">
        <path d="M103.453475952,43.863998413 L154.555206299,43.863998413 L154.555206299,57.902000427 L103.453475952,57.902000427 Z " />
       </clipPath>
      </defs>
      <g clip-path="url(#CLIP17)">
       <g>
        <g transform="matrix(1,0,0,1,104.278511047,73.901504517)">
         <text x="1" y="-18.881175995" class="f0">2011-03-</text>
         <text x="1" y="-2.889374971" class="f0">05</text>
        </g>
       </g>
      </g>
      <defs>
       <clipPath id="CLIP18">
        <path d="M155.055206299,43.863998413 L206.156951904,43.863998413 L206.156951904,57.902000427 L155.055206299,57.902000427 Z " />
       </clipPath>
      </defs>
      <g clip-path="url(#CLIP18)">
       <g>
        <g transform="matrix(1,0,0,1,155.880249023,57.909698486)">
         <text x="1" y="-2.889374971" class="f0">82.00</text>
        </g>
       </g>
      </g>
      <defs>
       <clipPath id="CLIP19">
        <path d="M0.25,58.402000427 L51.351737976,58.402000427 L51.351737976,72.440002441 L0.25,72.440002441 Z " />
       </clipPath>
      </defs>
      <g clip-path="url(#CLIP19)">
       <g>
        <g transform="matrix(1,0,0,1,1.075036168,72.4477005)">
         <text x="1" y="-2.889374971" class="f0">钢</text>
         <text x="12.039999962" y="-2.889374971" class="f0">管</text>
        </g>
       </g>
      </g>
      <defs>
       <clipPath id="CLIP20">
        <path d="M51.851737976,58.402000427 L102.953475952,58.402000427 L102.953475952,72.440002441 L51.851737976,72.440002441 Z " />
       </clipPath>
      </defs>
      <g clip-path="url(#CLIP20)">
       <g>
        <g transform="matrix(1,0,0,1,52.676773071,72.4477005)">
         <text x="1" y="-2.889374971" class="f0">米</text>
        </g>
       </g>
      </g>
      <defs>
       <clipPath id="CLIP21">
        <path d="M103.453475952,58.402000427 L154.555206299,58.402000427 L154.555206299,72.440002441 L103.453475952,72.440002441 Z " />
       </clipPath>
      </defs>
      <g clip-path="url(#CLIP21)">
       <g>
        <g transform="matrix(1,0,0,1,104.278511047,88.439498901)">
         <text x="1" y="-18.881175995" class="f0">2011-03-</text>
         <text x="1" y="-2.889374971" class="f0">15</text>
        </g>
       </g>
      </g>
      <defs>
       <clipPath id="CLIP22">
        <path d="M155.055206299,58.402000427 L206.156951904,58.402000427 L206.156951904,72.440002441 L155.055206299,72.440002441 Z " />
       </clipPath>
      </defs>
      <g clip-path="url(#CLIP22)">
       <g>
        <g transform="matrix(1,0,0,1,155.880249023,72.4477005)">
         <text x="1" y="-2.889374971" class="f0">1087.50</text>
        </g>
       </g>
      </g>
      <defs>
       <clipPath id="CLIP23">
        <path d="M0.25,72.940002441 L51.351737976,72.940002441 L51.351737976,86.978004456 L0.25,86.978004456 Z " />
       </clipPath>
      </defs>
      <g clip-path="url(#CLIP23)">
       <g>
        <g transform="matrix(1,0,0,1,1.075036168,86.985702515)">
         <text x="1" y="-2.889374971" class="f0">钢</text>
         <text x="12.039999962" y="-2.889374971" class="f0">管</text>
        </g>
       </g>
      </g>
      <defs>
       <clipPath id="CLIP24">
        <path d="M51.851737976,72.940002441 L102.953475952,72.940002441 L102.953475952,86.978004456 L51.851737976,86.978004456 Z " />
       </clipPath>
      </defs>
      <g clip-path="url(#CLIP24)">
       <g>
        <g transform="matrix(1,0,0,1,52.676773071,86.985702515)">
         <text x="1" y="-2.889374971" class="f0">米</text>
        </g>
       </g>
      </g>
      <defs>
       <clipPath id="CLIP25">
        <path d="M103.453475952,72.940002441 L154.555206299,72.940002441 L154.555206299,86.978004456 L103.453475952,86.978004456 Z " />
       </clipPath>
      </defs>
      <g clip-path="url(#CLIP25)">
       <g>
        <g transform="matrix(1,0,0,1,104.278511047,102.977508545)">
         <text x="1" y="-18.881175995" class="f0">2011-03-</text>
         <text x="1" y="-2.889374971" class="f0">19</text>
        </g>
       </g>
      </g>
      <defs>
       <clipPath id="CLIP26">
        <path d="M155.055206299,72.940002441 L206.156951904,72.940002441 L206.156951904,86.978004456 L155.055206299,86.978004456 Z " />
       </clipPath>
      </defs>
      <g clip-path="url(#CLIP26)">
       <g>
        <g transform="matrix(1,0,0,1,155.880249023,86.985702515)">
         <text x="1" y="-2.889374971" class="f0">486.00</text>
        </g>
       </g>
      </g>
      <defs>
       <clipPath id="CLIP27">
        <path d="M0.25,87.477996826 L51.351737976,87.477996826 L51.351737976,101.51599884 L0.25,101.51599884 Z " />
       </clipPath>
      </defs>
      <g clip-path="url(#CLIP27)">
       <g>
        <g transform="matrix(1,0,0,1,1.075036168,101.523696899)">
         <text x="1" y="-2.889374971" class="f0">钢</text>
         <text x="12.039999962" y="-2.889374971" class="f0">管</text>
         <text x="23.079999924" y="-2.889374971" class="f0">小</text>
         <text x="34.119998932" y="-2.889374971" class="f0">计</text>
        </g>
       </g>
      </g>
      <defs>
       <clipPath id="CLIP28">
        <path d="M155.055206299,87.477996826 L206.156951904,87.477996826 L206.156951904,101.51599884 L155.055206299,101.51599884 Z " />
       </clipPath>
      </defs>
      <g clip-path="url(#CLIP28)">
       <g>
        <g transform="matrix(1,0,0,1,155.880249023,101.523696899)">
         <text x="1" y="-2.889374971" class="f0">2165.50</text>
        </g>
       </g>
      </g>
      <defs>
       <clipPath id="CLIP29">
        <path d="M0.25,102.01599884 L51.351737976,102.01599884 L51.351737976,116.054000854 L0.25,116.054000854 Z " />
       </clipPath>
      </defs>
      <g clip-path="url(#CLIP29)">
       <g>
        <g transform="matrix(1,0,0,1,1.075036168,116.061698914)">
         <text x="1" y="-2.889374971" class="f0">扣</text>
         <text x="12.039999962" y="-2.889374971" class="f0">件</text>
        </g>
       </g>
      </g>
      <defs>
       <clipPath id="CLIP30">
        <path d="M51.851737976,102.01599884 L102.953475952,102.01599884 L102.953475952,116.054000854 L51.851737976,116.054000854 Z " />
       </clipPath>
      </defs>
      <g clip-path="url(#CLIP30)">
       <g>
        <g transform="matrix(1,0,0,1,52.676773071,116.061698914)">
         <text x="1" y="-2.889374971" class="f0">个</text>
        </g>
       </g>
      </g>
      <defs>
       <clipPath id="CLIP31">
        <path d="M103.453475952,102.01599884 L154.555206299,102.01599884 L154.555206299,116.054000854 L103.453475952,116.054000854 Z " />
       </clipPath>
      </defs>
      <g clip-path="url(#CLIP31)">
       <g>
        <g transform="matrix(1,0,0,1,104.278511047,132.053497314)">
         <text x="1" y="-18.881175995" class="f0">2011-02-</text>
         <text x="1" y="-2.889374971" class="f0">27</text>
        </g>
       </g>
      </g>
      <defs>
       <clipPath id="CLIP32">
        <path d="M155.055206299,102.01599884 L206.156951904,102.01599884 L206.156951904,116.054000854 L155.055206299,116.054000854 Z " />
       </clipPath>
      </defs>
      <g clip-path="url(#CLIP32)">
       <g>
        <g transform="matrix(1,0,0,1,155.880249023,116.061698914)">
         <text x="1" y="-2.889374971" class="f0">450.00</text>
        </g>
       </g>
      </g>
      <defs>
       <clipPath id="CLIP33">
        <path d="M0.25,116.554000854 L51.351737976,116.554000854 L51.351737976,130.591995239 L0.25,130.591995239 Z " />
       </clipPath>
      </defs>
      <g clip-path="url(#CLIP33)">
       <g>
        <g transform="matrix(1,0,0,1,1.075036168,130.599700928)">
         <text x="1" y="-2.889374971" class="f0">扣</text>
         <text x="12.039999962" y="-2.889374971" class="f0">件</text>
        </g>
       </g>
      </g>
      <defs>
       <clipPath id="CLIP34">
        <path d="M51.851737976,116.554000854 L102.953475952,116.554000854 L102.953475952,130.591995239 L51.851737976,130.591995239 Z " />
       </clipPath>
      </defs>
      <g clip-path="url(#CLIP34)">
       <g>
        <g transform="matrix(1,0,0,1,52.676773071,130.599700928)">
         <text x="1" y="-2.889374971" class="f0">个</text>
        </g>
       </g>
      </g>
      <defs>
       <clipPath id="CLIP35">
        <path d="M103.453475952,116.554000854 L154.555206299,116.554000854 L154.555206299,130.591995239 L103.453475952,130.591995239 Z " />
       </clipPath>
      </defs>
      <g clip-path="url(#CLIP35)">
       <g>
        <g transform="matrix(1,0,0,1,104.278511047,146.591506958)">
         <text x="1" y="-18.881175995" class="f0">2011-03-</text>
         <text x="1" y="-2.889374971" class="f0">05</text>
        </g>
       </g>
      </g>
      <defs>
       <clipPath id="CLIP36">
        <path d="M155.055206299,116.554000854 L206.156951904,116.554000854 L206.156951904,130.591995239 L155.055206299,130.591995239 Z " />
       </clipPath>
      </defs>
      <g clip-path="url(#CLIP36)">
       <g>
        <g transform="matrix(1,0,0,1,155.880249023,130.599700928)">
         <text x="1" y="-2.889374971" class="f0">20.00</text>
        </g>
       </g>
      </g>
      <defs>
       <clipPath id="CLIP37">
        <path d="M0.25,131.091995239 L51.351737976,131.091995239 L51.351737976,145.129989624 L0.25,145.129989624 Z " />
       </clipPath>
      </defs>
      <g clip-path="url(#CLIP37)">
       <g>
        <g transform="matrix(1,0,0,1,1.075036168,145.137710571)">
         <text x="1" y="-2.889374971" class="f0">扣</text>
         <text x="12.039999962" y="-2.889374971" class="f0">件</text>
        </g>
       </g>
      </g>
      <defs>
       <clipPath id="CLIP38">
        <path d="M51.851737976,131.091995239 L102.953475952,131.091995239 L102.953475952,145.129989624 L51.851737976,145.129989624 Z " />
       </clipPath>
      </defs>
      <g clip-path="url(#CLIP38)">
       <g>
        <g transform="matrix(1,0,0,1,52.676773071,145.137710571)">
         <text x="1" y="-2.889374971" class="f0">个</text>
        </g>
       </g>
      </g>
      <defs>
       <clipPath id="CLIP39">
        <path d="M103.453475952,131.091995239 L154.555206299,131.091995239 L154.555206299,145.129989624 L103.453475952,145.129989624 Z " />
       </clipPath>
      </defs>
      <g clip-path="url(#CLIP39)">
       <g>
        <g transform="matrix(1,0,0,1,104.278511047,161.129501343)">
         <text x="1" y="-18.881175995" class="f0">2011-03-</text>
         <text x="1" y="-2.889374971" class="f0">15</text>
        </g>
       </g>
      </g>
      <defs>
       <clipPath id="CLIP40">
        <path d="M155.055206299,131.091995239 L206.156951904,131.091995239 L206.156951904,145.129989624 L155.055206299,145.129989624 Z " />
       </clipPath>
      </defs>
      <g clip-path="url(#CLIP40)">
       <g>
        <g transform="matrix(1,0,0,1,155.880249023,145.137710571)">
         <text x="1" y="-2.889374971" class="f0">820.00</text>
        </g>
       </g>
      </g>
      <defs>
       <clipPath id="CLIP41">
        <path d="M0.25,145.630004883 L102.953475952,145.630004883 L102.953475952,159.667999268 L0.25,159.667999268 Z " />
       </clipPath>
      </defs>
      <g clip-path="url(#CLIP41)">
       <g>
        <g transform="matrix(1,0,0,1,1.075036168,159.675720215)">
         <text x="1" y="-2.889374971" class="f0">扣</text>
         <text x="12.039999962" y="-2.889374971" class="f0">件</text>
         <text x="23.079999924" y="-2.889374971" class="f0">小</text>
         <text x="34.119998932" y="-2.889374971" class="f0">计</text>
        </g>
       </g>
      </g>
      <defs>
       <clipPath id="CLIP42">
        <path d="M155.055206299,145.630004883 L206.156951904,145.630004883 L206.156951904,159.667999268 L155.055206299,159.667999268 Z " />
       </clipPath>
      </defs>
      <g clip-path="url(#CLIP42)">
       <g>
        <g transform="matrix(1,0,0,1,155.880249023,159.675720215)">
         <text x="1" y="-2.889374971" class="f0">1290.00</text>
        </g>
       </g>
      </g>
      <defs>
       <clipPath id="CLIP43">
        <path d="M0.25,160.167999268 L102.953475952,160.167999268 L102.953475952,174.205993652 L0.25,174.205993652 Z " />
       </clipPath>
      </defs>
      <g clip-path="url(#CLIP43)">
       <g>
        <g transform="matrix(1,0,0,1,1.075036168,190.205505371)">
         <text x="1" y="-18.881175995" class="f0">本</text>
         <text x="12.039999962" y="-18.881175995" class="f0">期</text>
         <text x="23.079999924" y="-18.881175995" class="f0">租</text>
         <text x="34.119998932" y="-18.881175995" class="f0">金</text>
         <text x="45.159999847" y="-18.881175995" class="f0">合</text>
         <text x="56.200000763" y="-18.881175995" class="f0">计</text>
         <text x="67.239997864" y="-18.881175995" class="f0">（</text>
         <text x="78.279998779" y="-18.881175995" class="f0">元</text>
         <text x="1" y="-2.889374971" class="f0">）</text>
        </g>
       </g>
      </g>
      <defs>
       <clipPath id="CLIP44">
        <path d="M103.453475952,160.167999268 L206.156951904,160.167999268 L206.156951904,174.205993652 L103.453475952,174.205993652 Z " />
       </clipPath>
      </defs>
      <g clip-path="url(#CLIP44)">
       <g>
        <g transform="matrix(1,0,0,1,104.278511047,174.2137146)">
         <text x="1" y="-2.889374971" class="f0">498.3</text>
        </g>
       </g>
      </g>
      <defs>
       <clipPath id="CLIP45">
        <path d="M0.25,174.705993652 L102.953475952,174.705993652 L102.953475952,188.743988037 L0.25,188.743988037 Z " />
       </clipPath>
      </defs>
      <g clip-path="url(#CLIP45)">
       <g>
        <g transform="matrix(1,0,0,1,1.075036168,204.743499756)">
         <text x="1" y="-18.881175995" class="f0">应</text>
         <text x="12.039999962" y="-18.881175995" class="f0">收</text>
         <text x="23.079999924" y="-18.881175995" class="f0">金</text>
         <text x="34.119998932" y="-18.881175995" class="f0">额</text>
         <text x="45.159999847" y="-18.881175995" class="f0">合</text>
         <text x="56.200000763" y="-18.881175995" class="f0">计</text>
         <text x="67.239997864" y="-18.881175995" class="f0">（</text>
         <text x="78.279998779" y="-18.881175995" class="f0">元</text>
         <text x="1" y="-2.889374971" class="f0">）</text>
        </g>
       </g>
      </g>
      <defs>
       <clipPath id="CLIP46">
        <path d="M103.453475952,174.705993652 L206.156951904,174.705993652 L206.156951904,188.743988037 L103.453475952,188.743988037 Z " />
       </clipPath>
      </defs>
      <g clip-path="url(#CLIP46)">
       <g>
        <g transform="matrix(1,0,0,1,104.278511047,188.751708984)">
         <text x="1" y="-2.889374971" class="f0">597.71</text>
        </g>
       </g>
      </g>
     </g>
    </g>
    <defs>
     <clipPath id="CLIP47">
      <path d="M-0.5,-0.5 L310.5,-0.5 L310.5,189.5 L-0.5,189.5 Z " />
     </clipPath>
    </defs>
    <g clip-path="url(#CLIP47)">
     <g />
    </g>
   </g>
   <g />
   <g />
   <g />
   <g>
    <g>
     <g />
     <g shape-rendering="crispEdges" />
    </g>
    <g>
     <g />
    </g>
    <g>
     <g />
    </g>
   </g>
   <g>
    <text x="10" y="10" class="f1">Evaluation Only. Created with Aspose.Cells for Python via Java.Copyright 2003 - 2023 Aspose Pty Ltd.</text>
   </g>
  </g>
 </g>
 <defs />
 <defs>
  <style type="text/css">
   <![CDATA[
   
.f0
{
font-family:Microsoft YaHei;
font-size:11.039999962px;
fill:#000000;
}

.f1
{
font-family:Arial;
font-size:10px;
fill:#FF0000;
}

   
   ]]></style>
 </defs>
</svg>
