<?xml version="1.0" encoding="UTF-8" standalone="yes"?>
<svg xmlns="http://www.w3.org/2000/svg" xmlns:xlink="http://www.w3.org/1999/xlink" width="612pt" height="792pt">
 <g id="SFixTitle" />
 <g id="SContent">
  <g transform="scale(1.33333)">
   <rect width="100%" height="100%" fill="white" />
   <g>
    <g>
     <g />
     <g shape-rendering="crispEdges" />
    </g>
    <g>
     <g />
    </g>
    <g>
     <g />
    </g>
   </g>
   <g transform="matrix(1,0,0,1,50.400001526,54)">
    <defs>
     <clipPath id="CLIP0">
      <path d="M-0.5,-0.5 L320.5,-0.5 L320.5,117.5 L-0.5,117.5 Z " />
     </clipPath>
    </defs>
    <g clip-path="url(#CLIP0)">
     <g />
     <g shape-rendering="crispEdges" />
    </g>
    <defs>
     <clipPath id="CLIP1">
      <path d="M-0.5,-1.453799963 L320.5,-1.453799963 L320.5,118.546203613 L-0.5,118.546203613 Z " />
     </clipPath>
    </defs>
    <g clip-path="url(#CLIP1)">
     <g>
      <g />
      <path d="M 0,0 L 53.214290619,0" class="p0" fill="none" />
      <path d="M 0,116.304000854 L 53.214290619,116.304000854" class="p0" fill="none" />
      <path d="M 0,0 L 0,14.538000107" class="p0" fill="none" />
      <path d="M 53.214290619,0 L 106.428581238,0" class="p0" fill="none" />
      <path d="M 53.214290619,116.304000854 L 106.428581238,116.304000854" class="p0" fill="none" />
      <path d="M 53.214000702,0 L 53.214000702,14.538000107" class="p0" fill="none" />
      <path d="M 106.428581238,0 L 159.642868042,0" class="p0" fill="none" />
      <path d="M 106.428581238,116.304000854 L 159.642868042,116.304000854" class="p0" fill="none" />
      <path d="M 106.429000854,0 L 106.429000854,14.538000107" class="p0" fill="none" />
      <path d="M 159.642868042,0 L 212.857162476,0" class="p0" fill="none" />
      <path d="M 159.642868042,116.304000854 L 212.857162476,116.304000854" class="p0" fill="none" />
      <path d="M 159.643005371,0 L 159.643005371,14.538000107" class="p0" fill="none" />
      <path d="M 212.857162476,0 L 266.07144165,0" class="p0" fill="none" />
      <path d="M 212.857162476,116.304000854 L 266.07144165,116.304000854" class="p0" fill="none" />
      <path d="M 212.856994629,0 L 212.856994629,14.538000107" class="p0" fill="none" />
      <path d="M 266.07144165,0 L 319.285736084,0" class="p0" fill="none" />
      <path d="M 266.07144165,116.304000854 L 319.285736084,116.304000854" class="p0" fill="none" />
      <path d="M 266.071014404,0 L 266.071014404,14.538000107" class="p0" fill="none" />
      <path d="M 319.286010742,0 L 319.286010742,14.538000107" class="p0" fill="none" />
      <path d="M 0,14.538000107 L 53.214290619,14.538000107" class="p0" fill="none" />
      <path d="M 0,14.538000107 L 0,29.076000214" class="p0" fill="none" />
      <path d="M 53.214290619,14.538000107 L 106.428581238,14.538000107" class="p0" fill="none" />
      <path d="M 53.214000702,14.538000107 L 53.214000702,29.076000214" class="p0" fill="none" />
      <path d="M 106.428581238,14.538000107 L 159.642868042,14.538000107" class="p0" fill="none" />
      <path d="M 106.429000854,14.538000107 L 106.429000854,29.076000214" class="p0" fill="none" />
      <path d="M 159.642868042,14.538000107 L 212.857162476,14.538000107" class="p0" fill="none" />
      <path d="M 159.643005371,14.538000107 L 159.643005371,29.076000214" class="p0" fill="none" />
      <path d="M 212.857162476,14.538000107 L 266.07144165,14.538000107" class="p0" fill="none" />
      <path d="M 212.856994629,14.538000107 L 212.856994629,29.076000214" class="p0" fill="none" />
      <path d="M 266.07144165,14.538000107 L 319.285736084,14.538000107" class="p0" fill="none" />
      <path d="M 266.071014404,14.538000107 L 266.071014404,29.076000214" class="p0" fill="none" />
      <path d="M 319.286010742,14.538000107 L 319.286010742,29.076000214" class="p0" fill="none" />
      <path d="M 0,29.076000214 L 53.214290619,29.076000214" class="p0" fill="none" />
      <path d="M 0,29.076000214 L 0,43.613998413" class="p0" fill="none" />
      <path d="M 53.214290619,29.076000214 L 106.428581238,29.076000214" class="p0" fill="none" />
      <path d="M 53.214000702,29.076000214 L 53.214000702,43.613998413" class="p0" fill="none" />
      <path d="M 106.428581238,29.076000214 L 159.642868042,29.076000214" class="p0" fill="none" />
      <path d="M 106.429000854,29.076000214 L 106.429000854,43.613998413" class="p0" fill="none" />
      <path d="M 159.642868042,29.076000214 L 212.857162476,29.076000214" class="p0" fill="none" />
      <path d="M 159.643005371,29.076000214 L 159.643005371,43.613998413" class="p0" fill="none" />
      <path d="M 212.857162476,29.076000214 L 266.07144165,29.076000214" class="p0" fill="none" />
      <path d="M 212.856994629,29.076000214 L 212.856994629,43.613998413" class="p0" fill="none" />
      <path d="M 266.07144165,29.076000214 L 319.285736084,29.076000214" class="p0" fill="none" />
      <path d="M 266.071014404,29.076000214 L 266.071014404,43.613998413" class="p0" fill="none" />
      <path d="M 319.286010742,29.076000214 L 319.286010742,43.613998413" class="p0" fill="none" />
      <path d="M 0,43.613998413 L 53.214290619,43.613998413" class="p0" fill="none" />
      <path d="M 0,43.613998413 L 0,58.152000427" class="p0" fill="none" />
      <path d="M 53.214290619,43.613998413 L 106.428581238,43.613998413" class="p0" fill="none" />
      <path d="M 53.214000702,43.613998413 L 53.214000702,58.152000427" class="p0" fill="none" />
      <path d="M 106.428581238,43.613998413 L 159.642868042,43.613998413" class="p0" fill="none" />
      <path d="M 106.429000854,43.613998413 L 106.429000854,58.152000427" class="p0" fill="none" />
      <path d="M 159.642868042,43.613998413 L 212.857162476,43.613998413" class="p0" fill="none" />
      <path d="M 159.643005371,43.613998413 L 159.643005371,58.152000427" class="p0" fill="none" />
      <path d="M 212.857162476,43.613998413 L 266.07144165,43.613998413" class="p0" fill="none" />
      <path d="M 212.856994629,43.613998413 L 212.856994629,58.152000427" class="p0" fill="none" />
      <path d="M 266.07144165,43.613998413 L 319.285736084,43.613998413" class="p0" fill="none" />
      <path d="M 266.071014404,43.613998413 L 266.071014404,58.152000427" class="p0" fill="none" />
      <path d="M 319.286010742,43.613998413 L 319.286010742,58.152000427" class="p0" fill="none" />
      <path d="M 0,58.152000427 L 53.214290619,58.152000427" class="p0" fill="none" />
      <path d="M 0,58.152000427 L 0,72.690002441" class="p0" fill="none" />
      <path d="M 53.214290619,58.152000427 L 106.428581238,58.152000427" class="p0" fill="none" />
      <path d="M 53.214000702,58.152000427 L 53.214000702,72.690002441" class="p0" fill="none" />
      <path d="M 106.428581238,58.152000427 L 159.642868042,58.152000427" class="p0" fill="none" />
      <path d="M 106.429000854,58.152000427 L 106.429000854,72.690002441" class="p0" fill="none" />
      <path d="M 159.642868042,58.152000427 L 212.857162476,58.152000427" class="p0" fill="none" />
      <path d="M 159.643005371,58.152000427 L 159.643005371,72.690002441" class="p0" fill="none" />
      <path d="M 212.857162476,58.152000427 L 266.07144165,58.152000427" class="p0" fill="none" />
      <path d="M 212.856994629,58.152000427 L 212.856994629,72.690002441" class="p0" fill="none" />
      <path d="M 266.07144165,58.152000427 L 319.285736084,58.152000427" class="p0" fill="none" />
      <path d="M 266.071014404,58.152000427 L 266.071014404,72.690002441" class="p0" fill="none" />
      <path d="M 319.286010742,58.152000427 L 319.286010742,72.690002441" class="p0" fill="none" />
      <path d="M 0,72.690002441 L 53.214290619,72.690002441" class="p0" fill="none" />
      <path d="M 0,72.690002441 L 0,87.228004456" class="p0" fill="none" />
      <path d="M 53.214290619,72.690002441 L 106.428581238,72.690002441" class="p0" fill="none" />
      <path d="M 53.214000702,72.690002441 L 53.214000702,87.228004456" class="p0" fill="none" />
      <path d="M 106.428581238,72.690002441 L 159.642868042,72.690002441" class="p0" fill="none" />
      <path d="M 106.429000854,72.690002441 L 106.429000854,87.228004456" class="p0" fill="none" />
      <path d="M 159.642868042,72.690002441 L 212.857162476,72.690002441" class="p0" fill="none" />
      <path d="M 159.643005371,72.690002441 L 159.643005371,87.228004456" class="p0" fill="none" />
      <path d="M 212.857162476,72.690002441 L 266.07144165,72.690002441" class="p0" fill="none" />
      <path d="M 212.856994629,72.690002441 L 212.856994629,87.228004456" class="p0" fill="none" />
      <path d="M 266.07144165,72.690002441 L 319.285736084,72.690002441" class="p0" fill="none" />
      <path d="M 266.071014404,72.690002441 L 266.071014404,87.228004456" class="p0" fill="none" />
      <path d="M 319.286010742,72.690002441 L 319.286010742,87.228004456" class="p0" fill="none" />
      <path d="M 0,87.227996826 L 53.214290619,87.227996826" class="p0" fill="none" />
      <path d="M 0,87.227996826 L 0,101.76599884" class="p0" fill="none" />
      <path d="M 53.214290619,87.227996826 L 106.428581238,87.227996826" class="p0" fill="none" />
      <path d="M 53.214000702,87.227996826 L 53.214000702,101.76599884" class="p0" fill="none" />
      <path d="M 106.428581238,87.227996826 L 159.642868042,87.227996826" class="p0" fill="none" />
      <path d="M 106.429000854,87.227996826 L 106.429000854,101.76599884" class="p0" fill="none" />
      <path d="M 159.642868042,87.227996826 L 212.857162476,87.227996826" class="p0" fill="none" />
      <path d="M 159.643005371,87.227996826 L 159.643005371,101.76599884" class="p0" fill="none" />
      <path d="M 212.857162476,87.227996826 L 266.07144165,87.227996826" class="p0" fill="none" />
      <path d="M 212.856994629,87.227996826 L 212.856994629,101.76599884" class="p0" fill="none" />
      <path d="M 266.07144165,87.227996826 L 319.285736084,87.227996826" class="p0" fill="none" />
      <path d="M 266.071014404,87.227996826 L 266.071014404,101.76599884" class="p0" fill="none" />
      <path d="M 319.286010742,87.227996826 L 319.286010742,101.76599884" class="p0" fill="none" />
      <path d="M 0,101.76599884 L 53.214290619,101.76599884" class="p0" fill="none" />
      <path d="M 0,101.76599884 L 0,116.304000854" class="p0" fill="none" />
      <path d="M 53.214290619,101.76599884 L 106.428581238,101.76599884" class="p0" fill="none" />
      <path d="M 53.214000702,101.76599884 L 53.214000702,116.304000854" class="p0" fill="none" />
      <path d="M 106.428581238,101.76599884 L 159.642868042,101.76599884" class="p0" fill="none" />
      <path d="M 106.429000854,101.76599884 L 106.429000854,116.304000854" class="p0" fill="none" />
      <path d="M 159.642868042,101.76599884 L 212.857162476,101.76599884" class="p0" fill="none" />
      <path d="M 159.643005371,101.76599884 L 159.643005371,116.304000854" class="p0" fill="none" />
      <path d="M 212.857162476,101.76599884 L 266.07144165,101.76599884" class="p0" fill="none" />
      <path d="M 212.856994629,101.76599884 L 212.856994629,116.304000854" class="p0" fill="none" />
      <path d="M 266.07144165,101.76599884 L 319.285736084,101.76599884" class="p0" fill="none" />
      <path d="M 266.071014404,101.76599884 L 266.071014404,116.304000854" class="p0" fill="none" />
      <path d="M 319.286010742,101.76599884 L 319.286010742,116.304000854" class="p0" fill="none" />
     </g>
    </g>
    <defs>
     <clipPath id="CLIP2">
      <path d="M-0.5,-0.5 L320.5,-0.5 L320.5,117.5 L-0.5,117.5 Z " />
     </clipPath>
    </defs>
    <g clip-path="url(#CLIP2)">
     <g>
      <defs>
       <clipPath id="CLIP3">
        <path d="M53.464290619,0.25 L106.178581238,0.25 L106.178581238,14.288000107 L53.464290619,14.288000107 Z " />
       </clipPath>
      </defs>
      <g clip-path="url(#CLIP3)">
       <g>
        <g transform="matrix(1,0,0,1,54.289325714,14.295700073)">
         <text x="1" y="-2.889374971" class="f0">2016</text>
        </g>
       </g>
      </g>
      <defs>
       <clipPath id="CLIP4">
        <path d="M106.678581238,0.25 L159.392868042,0.25 L159.392868042,14.288000107 L106.678581238,14.288000107 Z " />
       </clipPath>
      </defs>
      <g clip-path="url(#CLIP4)">
       <g>
        <g transform="matrix(1,0,0,1,107.503616333,14.295700073)">
         <text x="1" y="-2.889374971" class="f0">2017</text>
        </g>
       </g>
      </g>
      <defs>
       <clipPath id="CLIP5">
        <path d="M159.892868042,0.25 L212.607162476,0.25 L212.607162476,14.288000107 L159.892868042,14.288000107 Z " />
       </clipPath>
      </defs>
      <g clip-path="url(#CLIP5)">
       <g>
        <g transform="matrix(1,0,0,1,160.717910767,14.295700073)">
         <text x="1" y="-2.889374971" class="f0">2018E</text>
        </g>
       </g>
      </g>
      <defs>
       <clipPath id="CLIP6">
        <path d="M213.107162476,0.25 L265.82144165,0.25 L265.82144165,14.288000107 L213.107162476,14.288000107 Z " />
       </clipPath>
      </defs>
      <g clip-path="url(#CLIP6)">
       <g>
        <g transform="matrix(1,0,0,1,213.9322052,14.295700073)">
         <text x="1" y="-2.889374971" class="f0">2019E</text>
        </g>
       </g>
      </g>
      <defs>
       <clipPath id="CLIP7">
        <path d="M266.32144165,0.25 L319.035736084,0.25 L319.035736084,14.288000107 L266.32144165,14.288000107 Z " />
       </clipPath>
      </defs>
      <g clip-path="url(#CLIP7)">
       <g>
        <g transform="matrix(1,0,0,1,267.146484375,14.295700073)">
         <text x="1" y="-2.889374971" class="f0">2020E</text>
        </g>
       </g>
      </g>
      <defs>
       <clipPath id="CLIP8">
        <path d="M0.25,14.788000107 L52.964290619,14.788000107 L52.964290619,28.826000214 L0.25,28.826000214 Z " />
       </clipPath>
      </defs>
      <g clip-path="url(#CLIP8)">
       <g>
        <g transform="matrix(1,0,0,1,1.075036168,60.817302704)">
         <text x="1" y="-34.872974396" class="f0">营</text>
         <text x="12.039999962" y="-34.872974396" class="f0">业</text>
         <text x="23.079999924" y="-34.872974396" class="f0">收</text>
         <text x="34.119998932" y="-34.872974396" class="f0">入</text>
         <text x="1" y="-18.881175995" class="f0">（</text>
         <text x="12.039999962" y="-18.881175995" class="f0">百</text>
         <text x="23.079999924" y="-18.881175995" class="f0">万</text>
         <text x="34.119998932" y="-18.881175995" class="f0">元</text>
         <text x="1" y="-2.889374971" class="f0">）</text>
        </g>
       </g>
      </g>
      <defs>
       <clipPath id="CLIP9">
        <path d="M53.464290619,14.788000107 L106.178581238,14.788000107 L106.178581238,28.826000214 L53.464290619,28.826000214 Z " />
       </clipPath>
      </defs>
      <g clip-path="url(#CLIP9)">
       <g>
        <g transform="matrix(1,0,0,1,54.289325714,28.83370018)">
         <text x="1" y="-2.889374971" class="f0">119</text>
        </g>
       </g>
      </g>
      <defs>
       <clipPath id="CLIP10">
        <path d="M106.678581238,14.788000107 L159.392868042,14.788000107 L159.392868042,28.826000214 L106.678581238,28.826000214 Z " />
       </clipPath>
      </defs>
      <g clip-path="url(#CLIP10)">
       <g>
        <g transform="matrix(1,0,0,1,107.503616333,28.83370018)">
         <text x="1" y="-2.889374971" class="f0">126</text>
        </g>
       </g>
      </g>
      <defs>
       <clipPath id="CLIP11">
        <path d="M159.892868042,14.788000107 L212.607162476,14.788000107 L212.607162476,28.826000214 L159.892868042,28.826000214 Z " />
       </clipPath>
      </defs>
      <g clip-path="url(#CLIP11)">
       <g>
        <g transform="matrix(1,0,0,1,160.717910767,28.83370018)">
         <text x="1" y="-2.889374971" class="f0">128</text>
        </g>
       </g>
      </g>
      <defs>
       <clipPath id="CLIP12">
        <path d="M213.107162476,14.788000107 L265.82144165,14.788000107 L265.82144165,28.826000214 L213.107162476,28.826000214 Z " />
       </clipPath>
      </defs>
      <g clip-path="url(#CLIP12)">
       <g>
        <g transform="matrix(1,0,0,1,213.9322052,28.83370018)">
         <text x="1" y="-2.889374971" class="f0">141</text>
        </g>
       </g>
      </g>
      <defs>
       <clipPath id="CLIP13">
        <path d="M266.32144165,14.788000107 L319.035736084,14.788000107 L319.035736084,28.826000214 L266.32144165,28.826000214 Z " />
       </clipPath>
      </defs>
      <g clip-path="url(#CLIP13)">
       <g>
        <g transform="matrix(1,0,0,1,267.146484375,28.83370018)">
         <text x="1" y="-2.889374971" class="f0">161</text>
        </g>
       </g>
      </g>
      <defs>
       <clipPath id="CLIP14">
        <path d="M0.25,29.326000214 L52.964290619,29.326000214 L52.964290619,43.363998413 L0.25,43.363998413 Z " />
       </clipPath>
      </defs>
      <g clip-path="url(#CLIP14)">
       <g>
        <g transform="matrix(1,0,0,1,1.075036168,59.363502502)">
         <text x="1" y="-18.881175995" class="f0">增</text>
         <text x="12.039999962" y="-18.881175995" class="f0">长</text>
         <text x="23.079999924" y="-18.881175995" class="f0">率</text>
         <text x="1" y="-2.889374971" class="f0">(%)</text>
        </g>
       </g>
      </g>
      <defs>
       <clipPath id="CLIP15">
        <path d="M53.464290619,29.326000214 L106.178581238,29.326000214 L106.178581238,43.363998413 L53.464290619,43.363998413 Z " />
       </clipPath>
      </defs>
      <g clip-path="url(#CLIP15)">
       <g>
        <g transform="matrix(1,0,0,1,54.289325714,43.371700287)">
         <text x="1" y="-2.889374971" class="f0">7%</text>
        </g>
       </g>
      </g>
      <defs>
       <clipPath id="CLIP16">
        <path d="M106.678581238,29.326000214 L159.392868042,29.326000214 L159.392868042,43.363998413 L106.678581238,43.363998413 Z " />
       </clipPath>
      </defs>
      <g clip-path="url(#CLIP16)">
       <g>
        <g transform="matrix(1,0,0,1,107.503616333,43.371700287)">
         <text x="1" y="-2.889374971" class="f0">7%</text>
        </g>
       </g>
      </g>
      <defs>
       <clipPath id="CLIP17">
        <path d="M159.892868042,29.326000214 L212.607162476,29.326000214 L212.607162476,43.363998413 L159.892868042,43.363998413 Z " />
       </clipPath>
      </defs>
      <g clip-path="url(#CLIP17)">
       <g>
        <g transform="matrix(1,0,0,1,160.717910767,43.371700287)">
         <text x="1" y="-2.889374971" class="f0">1%</text>
        </g>
       </g>
      </g>
      <defs>
       <clipPath id="CLIP18">
        <path d="M213.107162476,29.326000214 L265.82144165,29.326000214 L265.82144165,43.363998413 L213.107162476,43.363998413 Z " />
       </clipPath>
      </defs>
      <g clip-path="url(#CLIP18)">
       <g>
        <g transform="matrix(1,0,0,1,213.9322052,43.371700287)">
         <text x="1" y="-2.889374971" class="f0">11%</text>
        </g>
       </g>
      </g>
      <defs>
       <clipPath id="CLIP19">
        <path d="M266.32144165,29.326000214 L319.035736084,29.326000214 L319.035736084,43.363998413 L266.32144165,43.363998413 Z " />
       </clipPath>
      </defs>
      <g clip-path="url(#CLIP19)">
       <g>
        <g transform="matrix(1,0,0,1,267.146484375,43.371700287)">
         <text x="1" y="-2.889374971" class="f0">14%</text>
        </g>
       </g>
      </g>
      <defs>
       <clipPath id="CLIP20">
        <path d="M0.25,43.863998413 L52.964290619,43.863998413 L52.964290619,57.902000427 L0.25,57.902000427 Z " />
       </clipPath>
      </defs>
      <g clip-path="url(#CLIP20)">
       <g>
        <g transform="matrix(1,0,0,1,1.075036168,73.901504517)">
         <text x="1" y="-18.881175995" class="f0">净</text>
         <text x="12.039999962" y="-18.881175995" class="f0">利</text>
         <text x="23.079999924" y="-18.881175995" class="f0">润</text>
         <text x="34.119998932" y="-18.881175995" class="f0">（</text>
         <text x="1" y="-2.889374971" class="f0">百</text>
         <text x="12.039999962" y="-2.889374971" class="f0">万</text>
         <text x="23.079999924" y="-2.889374971" class="f0">元</text>
         <text x="34.119998932" y="-2.889374971" class="f0">）</text>
        </g>
       </g>
      </g>
      <defs>
       <clipPath id="CLIP21">
        <path d="M53.464290619,43.863998413 L106.178581238,43.863998413 L106.178581238,57.902000427 L53.464290619,57.902000427 Z " />
       </clipPath>
      </defs>
      <g clip-path="url(#CLIP21)">
       <g>
        <g transform="matrix(1,0,0,1,54.289325714,57.909698486)">
         <text x="1" y="-2.889374971" class="f0">36</text>
        </g>
       </g>
      </g>
      <defs>
       <clipPath id="CLIP22">
        <path d="M106.678581238,43.863998413 L159.392868042,43.863998413 L159.392868042,57.902000427 L106.678581238,57.902000427 Z " />
       </clipPath>
      </defs>
      <g clip-path="url(#CLIP22)">
       <g>
        <g transform="matrix(1,0,0,1,107.503616333,57.909698486)">
         <text x="1" y="-2.889374971" class="f0">44</text>
        </g>
       </g>
      </g>
      <defs>
       <clipPath id="CLIP23">
        <path d="M159.892868042,43.863998413 L212.607162476,43.863998413 L212.607162476,57.902000427 L159.892868042,57.902000427 Z " />
       </clipPath>
      </defs>
      <g clip-path="url(#CLIP23)">
       <g>
        <g transform="matrix(1,0,0,1,160.717910767,57.909698486)">
         <text x="1" y="-2.889374971" class="f0">53</text>
        </g>
       </g>
      </g>
      <defs>
       <clipPath id="CLIP24">
        <path d="M213.107162476,43.863998413 L265.82144165,43.863998413 L265.82144165,57.902000427 L213.107162476,57.902000427 Z " />
       </clipPath>
      </defs>
      <g clip-path="url(#CLIP24)">
       <g>
        <g transform="matrix(1,0,0,1,213.9322052,57.909698486)">
         <text x="1" y="-2.889374971" class="f0">60</text>
        </g>
       </g>
      </g>
      <defs>
       <clipPath id="CLIP25">
        <path d="M266.32144165,43.863998413 L319.035736084,43.863998413 L319.035736084,57.902000427 L266.32144165,57.902000427 Z " />
       </clipPath>
      </defs>
      <g clip-path="url(#CLIP25)">
       <g>
        <g transform="matrix(1,0,0,1,267.146484375,57.909698486)">
         <text x="1" y="-2.889374971" class="f0">76</text>
        </g>
       </g>
      </g>
      <defs>
       <clipPath id="CLIP26">
        <path d="M0.25,58.402000427 L52.964290619,58.402000427 L52.964290619,72.440002441 L0.25,72.440002441 Z " />
       </clipPath>
      </defs>
      <g clip-path="url(#CLIP26)">
       <g>
        <g transform="matrix(1,0,0,1,1.075036168,88.439498901)">
         <text x="1" y="-18.881175995" class="f0">增</text>
         <text x="12.039999962" y="-18.881175995" class="f0">长</text>
         <text x="23.079999924" y="-18.881175995" class="f0">率</text>
         <text x="1" y="-2.889374971" class="f0">(%)</text>
        </g>
       </g>
      </g>
      <defs>
       <clipPath id="CLIP27">
        <path d="M53.464290619,58.402000427 L106.178581238,58.402000427 L106.178581238,72.440002441 L53.464290619,72.440002441 Z " />
       </clipPath>
      </defs>
      <g clip-path="url(#CLIP27)">
       <g>
        <g transform="matrix(1,0,0,1,54.289325714,72.4477005)">
         <text x="1" y="-2.889374971" class="f0">-120%</text>
        </g>
       </g>
      </g>
      <defs>
       <clipPath id="CLIP28">
        <path d="M106.678581238,58.402000427 L159.392868042,58.402000427 L159.392868042,72.440002441 L106.678581238,72.440002441 Z " />
       </clipPath>
      </defs>
      <g clip-path="url(#CLIP28)">
       <g>
        <g transform="matrix(1,0,0,1,107.503616333,72.4477005)">
         <text x="1" y="-2.889374971" class="f0">21%</text>
        </g>
       </g>
      </g>
      <defs>
       <clipPath id="CLIP29">
        <path d="M159.892868042,58.402000427 L212.607162476,58.402000427 L212.607162476,72.440002441 L159.892868042,72.440002441 Z " />
       </clipPath>
      </defs>
      <g clip-path="url(#CLIP29)">
       <g>
        <g transform="matrix(1,0,0,1,160.717910767,72.4477005)">
         <text x="1" y="-2.889374971" class="f0">21%</text>
        </g>
       </g>
      </g>
      <defs>
       <clipPath id="CLIP30">
        <path d="M213.107162476,58.402000427 L265.82144165,58.402000427 L265.82144165,72.440002441 L213.107162476,72.440002441 Z " />
       </clipPath>
      </defs>
      <g clip-path="url(#CLIP30)">
       <g>
        <g transform="matrix(1,0,0,1,213.9322052,72.4477005)">
         <text x="1" y="-2.889374971" class="f0">15%</text>
        </g>
       </g>
      </g>
      <defs>
       <clipPath id="CLIP31">
        <path d="M266.32144165,58.402000427 L319.035736084,58.402000427 L319.035736084,72.440002441 L266.32144165,72.440002441 Z " />
       </clipPath>
      </defs>
      <g clip-path="url(#CLIP31)">
       <g>
        <g transform="matrix(1,0,0,1,267.146484375,72.4477005)">
         <text x="1" y="-2.889374971" class="f0">26%</text>
        </g>
       </g>
      </g>
      <defs>
       <clipPath id="CLIP32">
        <path d="M0.25,72.940002441 L52.964290619,72.940002441 L52.964290619,86.978004456 L0.25,86.978004456 Z " />
       </clipPath>
      </defs>
      <g clip-path="url(#CLIP32)">
       <g>
        <g transform="matrix(1,0,0,1,1.075036168,102.977508545)">
         <text x="1" y="-18.881175995" class="f0">每</text>
         <text x="12.039999962" y="-18.881175995" class="f0">股</text>
         <text x="23.079999924" y="-18.881175995" class="f0">收</text>
         <text x="34.119998932" y="-18.881175995" class="f0">益</text>
         <text x="1" y="-2.889374971" class="f0">(EPS)</text>
        </g>
       </g>
      </g>
      <defs>
       <clipPath id="CLIP33">
        <path d="M53.464290619,72.940002441 L106.178581238,72.940002441 L106.178581238,86.978004456 L53.464290619,86.978004456 Z " />
       </clipPath>
      </defs>
      <g clip-path="url(#CLIP33)">
       <g>
        <g transform="matrix(1,0,0,1,54.289325714,86.985702515)">
         <text x="1" y="-2.889374971" class="f0">0.10</text>
        </g>
       </g>
      </g>
      <defs>
       <clipPath id="CLIP34">
        <path d="M106.678581238,72.940002441 L159.392868042,72.940002441 L159.392868042,86.978004456 L106.678581238,86.978004456 Z " />
       </clipPath>
      </defs>
      <g clip-path="url(#CLIP34)">
       <g>
        <g transform="matrix(1,0,0,1,107.503616333,86.985702515)">
         <text x="1" y="-2.889374971" class="f0">0.12</text>
        </g>
       </g>
      </g>
      <defs>
       <clipPath id="CLIP35">
        <path d="M159.892868042,72.940002441 L212.607162476,72.940002441 L212.607162476,86.978004456 L159.892868042,86.978004456 Z " />
       </clipPath>
      </defs>
      <g clip-path="url(#CLIP35)">
       <g>
        <g transform="matrix(1,0,0,1,160.717910767,86.985702515)">
         <text x="1" y="-2.889374971" class="f0">0.15</text>
        </g>
       </g>
      </g>
      <defs>
       <clipPath id="CLIP36">
        <path d="M213.107162476,72.940002441 L265.82144165,72.940002441 L265.82144165,86.978004456 L213.107162476,86.978004456 Z " />
       </clipPath>
      </defs>
      <g clip-path="url(#CLIP36)">
       <g>
        <g transform="matrix(1,0,0,1,213.9322052,86.985702515)">
         <text x="1" y="-2.889374971" class="f0">0.17</text>
        </g>
       </g>
      </g>
      <defs>
       <clipPath id="CLIP37">
        <path d="M266.32144165,72.940002441 L319.035736084,72.940002441 L319.035736084,86.978004456 L266.32144165,86.978004456 Z " />
       </clipPath>
      </defs>
      <g clip-path="url(#CLIP37)">
       <g>
        <g transform="matrix(1,0,0,1,267.146484375,86.985702515)">
         <text x="1" y="-2.889374971" class="f0">0.21</text>
        </g>
       </g>
      </g>
      <defs>
       <clipPath id="CLIP38">
        <path d="M0.25,87.477996826 L52.964290619,87.477996826 L52.964290619,101.51599884 L0.25,101.51599884 Z " />
       </clipPath>
      </defs>
      <g clip-path="url(#CLIP38)">
       <g>
        <g transform="matrix(1,0,0,1,1.075036168,117.51550293)">
         <text x="1" y="-18.881175995" class="f0">市</text>
         <text x="12.039999962" y="-18.881175995" class="f0">盈</text>
         <text x="23.079999924" y="-18.881175995" class="f0">率</text>
         <text x="1" y="-2.889374971" class="f0">(P/E)</text>
        </g>
       </g>
      </g>
      <defs>
       <clipPath id="CLIP39">
        <path d="M53.464290619,87.477996826 L106.178581238,87.477996826 L106.178581238,101.51599884 L53.464290619,101.51599884 Z " />
       </clipPath>
      </defs>
      <g clip-path="url(#CLIP39)">
       <g>
        <g transform="matrix(1,0,0,1,54.289325714,101.523696899)">
         <text x="1" y="-2.889374971" class="f0">23.9</text>
        </g>
       </g>
      </g>
      <defs>
       <clipPath id="CLIP40">
        <path d="M106.678581238,87.477996826 L159.392868042,87.477996826 L159.392868042,101.51599884 L106.678581238,101.51599884 Z " />
       </clipPath>
      </defs>
      <g clip-path="url(#CLIP40)">
       <g>
        <g transform="matrix(1,0,0,1,107.503616333,101.523696899)">
         <text x="1" y="-2.889374971" class="f0">19.7</text>
        </g>
       </g>
      </g>
      <defs>
       <clipPath id="CLIP41">
        <path d="M159.892868042,87.477996826 L212.607162476,87.477996826 L212.607162476,101.51599884 L159.892868042,101.51599884 Z " />
       </clipPath>
      </defs>
      <g clip-path="url(#CLIP41)">
       <g>
        <g transform="matrix(1,0,0,1,160.717910767,101.523696899)">
         <text x="1" y="-2.889374971" class="f0">16.5</text>
        </g>
       </g>
      </g>
      <defs>
       <clipPath id="CLIP42">
        <path d="M213.107162476,87.477996826 L265.82144165,87.477996826 L265.82144165,101.51599884 L213.107162476,101.51599884 Z " />
       </clipPath>
      </defs>
      <g clip-path="url(#CLIP42)">
       <g>
        <g transform="matrix(1,0,0,1,213.9322052,101.523696899)">
         <text x="1" y="-2.889374971" class="f0">14.4</text>
        </g>
       </g>
      </g>
      <defs>
       <clipPath id="CLIP43">
        <path d="M266.32144165,87.477996826 L319.035736084,87.477996826 L319.035736084,101.51599884 L266.32144165,101.51599884 Z " />
       </clipPath>
      </defs>
      <g clip-path="url(#CLIP43)">
       <g>
        <g transform="matrix(1,0,0,1,267.146484375,101.523696899)">
         <text x="1" y="-2.889374971" class="f0">11.5</text>
        </g>
       </g>
      </g>
      <defs>
       <clipPath id="CLIP44">
        <path d="M0.25,102.01599884 L52.964290619,102.01599884 L52.964290619,116.054000854 L0.25,116.054000854 Z " />
       </clipPath>
      </defs>
      <g clip-path="url(#CLIP44)">
       <g>
        <g transform="matrix(1,0,0,1,1.075036168,132.053497314)">
         <text x="1" y="-18.881175995" class="f0">市</text>
         <text x="12.039999962" y="-18.881175995" class="f0">净</text>
         <text x="23.079999924" y="-18.881175995" class="f0">率</text>
         <text x="1" y="-2.889374971" class="f0">(P/B)</text>
        </g>
       </g>
      </g>
      <defs>
       <clipPath id="CLIP45">
        <path d="M53.464290619,102.01599884 L106.178581238,102.01599884 L106.178581238,116.054000854 L53.464290619,116.054000854 Z " />
       </clipPath>
      </defs>
      <g clip-path="url(#CLIP45)">
       <g>
        <g transform="matrix(1,0,0,1,54.289325714,116.061698914)">
         <text x="1" y="-2.889374971" class="f0">4.7</text>
        </g>
       </g>
      </g>
      <defs>
       <clipPath id="CLIP46">
        <path d="M106.678581238,102.01599884 L159.392868042,102.01599884 L159.392868042,116.054000854 L106.678581238,116.054000854 Z " />
       </clipPath>
      </defs>
      <g clip-path="url(#CLIP46)">
       <g>
        <g transform="matrix(1,0,0,1,107.503616333,116.061698914)">
         <text x="1" y="-2.889374971" class="f0">3.7</text>
        </g>
       </g>
      </g>
      <defs>
       <clipPath id="CLIP47">
        <path d="M159.892868042,102.01599884 L212.607162476,102.01599884 L212.607162476,116.054000854 L159.892868042,116.054000854 Z " />
       </clipPath>
      </defs>
      <g clip-path="url(#CLIP47)">
       <g>
        <g transform="matrix(1,0,0,1,160.717910767,116.061698914)">
         <text x="1" y="-2.889374971" class="f0">3.0</text>
        </g>
       </g>
      </g>
      <defs>
       <clipPath id="CLIP48">
        <path d="M213.107162476,102.01599884 L265.82144165,102.01599884 L265.82144165,116.054000854 L213.107162476,116.054000854 Z " />
       </clipPath>
      </defs>
      <g clip-path="url(#CLIP48)">
       <g>
        <g transform="matrix(1,0,0,1,213.9322052,116.061698914)">
         <text x="1" y="-2.889374971" class="f0">2.5</text>
        </g>
       </g>
      </g>
      <defs>
       <clipPath id="CLIP49">
        <path d="M266.32144165,102.01599884 L319.035736084,102.01599884 L319.035736084,116.054000854 L266.32144165,116.054000854 Z " />
       </clipPath>
      </defs>
      <g clip-path="url(#CLIP49)">
       <g>
        <g transform="matrix(1,0,0,1,267.146484375,116.061698914)">
         <text x="1" y="-2.889374971" class="f0">2.1</text>
        </g>
       </g>
      </g>
     </g>
    </g>
    <defs>
     <clipPath id="CLIP50">
      <path d="M-0.5,-0.5 L320.5,-0.5 L320.5,117.5 L-0.5,117.5 Z " />
     </clipPath>
    </defs>
    <g clip-path="url(#CLIP50)">
     <g />
    </g>
   </g>
   <g />
   <g />
   <g />
   <g>
    <g>
     <g />
     <g shape-rendering="crispEdges" />
    </g>
    <g>
     <g />
    </g>
    <g>
     <g />
    </g>
   </g>
   <g>
    <text x="10" y="10" class="f1">Evaluation Only. Created with Aspose.Cells for Python via Java.Copyright 2003 - 2023 Aspose Pty Ltd.</text>
   </g>
  </g>
 </g>
 <defs />
 <defs>
  <style type="text/css">
   <![CDATA[
   
.f0
{
font-family:Microsoft YaHei;
font-size:11.039999962px;
fill:#000000;
}

.f1
{
font-family:Arial;
font-size:10px;
fill:#FF0000;
}

   
.p0
{
stroke:#000000;
stroke-width:2.907599926px;
stroke-linecap:butt;
stroke-linejoin:miter;
}

   ]]></style>
 </defs>
</svg>
