<?xml version="1.0" encoding="UTF-8" standalone="yes"?>
<svg xmlns="http://www.w3.org/2000/svg" xmlns:xlink="http://www.w3.org/1999/xlink" width="612pt" height="792pt">
 <g id="SFixTitle" />
 <g id="SContent">
  <g transform="scale(1.33333)">
   <rect width="100%" height="100%" fill="white" />
   <g>
    <g>
     <g />
     <g shape-rendering="crispEdges" />
    </g>
    <g>
     <g />
    </g>
    <g>
     <g />
    </g>
   </g>
   <g transform="matrix(1,0,0,1,50.400001526,54)">
    <defs>
     <clipPath id="CLIP0">
      <path d="M-0.5,-0.5 L267.5,-0.5 L267.5,233.5 L-0.5,233.5 Z " />
     </clipPath>
    </defs>
    <g clip-path="url(#CLIP0)">
     <g />
     <g shape-rendering="crispEdges" />
    </g>
    <defs>
     <clipPath id="CLIP1">
      <path d="M-0.5,-1.453799963 L267.5,-1.453799963 L267.5,234.546203613 L-0.5,234.546203613 Z " />
     </clipPath>
    </defs>
    <g clip-path="url(#CLIP1)">
     <g>
      <g />
      <path d="M 0,0 L 53.214290619,0" class="p0" fill="none" />
      <path d="M 0,116.304000854 L 53.214290619,116.304000854" class="p0" fill="none" />
      <path d="M 0,232.608001709 L 53.214290619,232.608001709" class="p0" fill="none" />
      <path d="M 0,0 L 0,14.538000107" class="p0" fill="none" />
      <path d="M 0,116.304000854 L 0,130.841995239" class="p0" fill="none" />
      <path d="M 53.214290619,0 L 106.428581238,0" class="p0" fill="none" />
      <path d="M 53.214290619,116.304000854 L 106.428581238,116.304000854" class="p0" fill="none" />
      <path d="M 53.214290619,232.608001709 L 106.428581238,232.608001709" class="p0" fill="none" />
      <path d="M 53.214000702,0 L 53.214000702,14.538000107" class="p0" fill="none" />
      <path d="M 53.214000702,116.304000854 L 53.214000702,130.841995239" class="p0" fill="none" />
      <path d="M 106.428581238,0 L 159.642868042,0" class="p0" fill="none" />
      <path d="M 106.428581238,116.304000854 L 159.642868042,116.304000854" class="p0" fill="none" />
      <path d="M 106.428581238,232.608001709 L 159.642868042,232.608001709" class="p0" fill="none" />
      <path d="M 106.429000854,0 L 106.429000854,14.538000107" class="p0" fill="none" />
      <path d="M 106.429000854,116.304000854 L 106.429000854,130.841995239" class="p0" fill="none" />
      <path d="M 159.642868042,0 L 212.857162476,0" class="p0" fill="none" />
      <path d="M 159.642868042,116.304000854 L 212.857162476,116.304000854" class="p0" fill="none" />
      <path d="M 159.642868042,232.608001709 L 212.857162476,232.608001709" class="p0" fill="none" />
      <path d="M 159.643005371,0 L 159.643005371,14.538000107" class="p0" fill="none" />
      <path d="M 159.643005371,116.304000854 L 159.643005371,130.841995239" class="p0" fill="none" />
      <path d="M 212.857162476,0 L 266.07144165,0" class="p0" fill="none" />
      <path d="M 212.857162476,116.304000854 L 266.07144165,116.304000854" class="p0" fill="none" />
      <path d="M 212.857162476,232.608001709 L 266.07144165,232.608001709" class="p0" fill="none" />
      <path d="M 212.856994629,0 L 212.856994629,14.538000107" class="p0" fill="none" />
      <path d="M 212.856994629,116.304000854 L 212.856994629,130.841995239" class="p0" fill="none" />
      <path d="M 266.071014404,0 L 266.071014404,14.538000107" class="p0" fill="none" />
      <path d="M 266.071014404,116.304000854 L 266.071014404,130.841995239" class="p0" fill="none" />
      <path d="M 0,14.538000107 L 53.214290619,14.538000107" class="p0" fill="none" />
      <path d="M 0,130.841995239 L 53.214290619,130.841995239" class="p0" fill="none" />
      <path d="M 0,14.538000107 L 0,29.076000214" class="p0" fill="none" />
      <path d="M 0,130.841995239 L 0,145.379989624" class="p0" fill="none" />
      <path d="M 53.214290619,14.538000107 L 106.428581238,14.538000107" class="p0" fill="none" />
      <path d="M 53.214290619,130.841995239 L 106.428581238,130.841995239" class="p0" fill="none" />
      <path d="M 53.214000702,14.538000107 L 53.214000702,29.076000214" class="p0" fill="none" />
      <path d="M 53.214000702,130.841995239 L 53.214000702,145.379989624" class="p0" fill="none" />
      <path d="M 106.428581238,14.538000107 L 159.642868042,14.538000107" class="p0" fill="none" />
      <path d="M 106.428581238,130.841995239 L 159.642868042,130.841995239" class="p0" fill="none" />
      <path d="M 106.429000854,14.538000107 L 106.429000854,29.076000214" class="p0" fill="none" />
      <path d="M 106.429000854,130.841995239 L 106.429000854,145.379989624" class="p0" fill="none" />
      <path d="M 159.642868042,14.538000107 L 212.857162476,14.538000107" class="p0" fill="none" />
      <path d="M 159.642868042,130.841995239 L 212.857162476,130.841995239" class="p0" fill="none" />
      <path d="M 159.643005371,14.538000107 L 159.643005371,29.076000214" class="p0" fill="none" />
      <path d="M 159.643005371,130.841995239 L 159.643005371,145.379989624" class="p0" fill="none" />
      <path d="M 212.857162476,14.538000107 L 266.07144165,14.538000107" class="p0" fill="none" />
      <path d="M 212.857162476,130.841995239 L 266.07144165,130.841995239" class="p0" fill="none" />
      <path d="M 212.856994629,14.538000107 L 212.856994629,29.076000214" class="p0" fill="none" />
      <path d="M 212.856994629,130.841995239 L 212.856994629,145.379989624" class="p0" fill="none" />
      <path d="M 266.071014404,14.538000107 L 266.071014404,29.076000214" class="p0" fill="none" />
      <path d="M 266.071014404,130.841995239 L 266.071014404,145.379989624" class="p0" fill="none" />
      <path d="M 0,29.076000214 L 53.214290619,29.076000214" class="p0" fill="none" />
      <path d="M 0,145.380004883 L 53.214290619,145.380004883" class="p0" fill="none" />
      <path d="M 0,29.076000214 L 0,43.613998413" class="p0" fill="none" />
      <path d="M 0,145.380004883 L 0,159.917999268" class="p0" fill="none" />
      <path d="M 53.214290619,29.076000214 L 106.428581238,29.076000214" class="p0" fill="none" />
      <path d="M 53.214290619,145.380004883 L 106.428581238,145.380004883" class="p0" fill="none" />
      <path d="M 53.214000702,29.076000214 L 53.214000702,43.613998413" class="p0" fill="none" />
      <path d="M 53.214000702,145.380004883 L 53.214000702,159.917999268" class="p0" fill="none" />
      <path d="M 106.428581238,29.076000214 L 159.642868042,29.076000214" class="p0" fill="none" />
      <path d="M 106.428581238,145.380004883 L 159.642868042,145.380004883" class="p0" fill="none" />
      <path d="M 106.429000854,29.076000214 L 106.429000854,43.613998413" class="p0" fill="none" />
      <path d="M 106.429000854,145.380004883 L 106.429000854,159.917999268" class="p0" fill="none" />
      <path d="M 159.642868042,29.076000214 L 212.857162476,29.076000214" class="p0" fill="none" />
      <path d="M 159.642868042,145.380004883 L 212.857162476,145.380004883" class="p0" fill="none" />
      <path d="M 159.643005371,29.076000214 L 159.643005371,43.613998413" class="p0" fill="none" />
      <path d="M 159.643005371,145.380004883 L 159.643005371,159.917999268" class="p0" fill="none" />
      <path d="M 212.857162476,29.076000214 L 266.07144165,29.076000214" class="p0" fill="none" />
      <path d="M 212.857162476,145.380004883 L 266.07144165,145.380004883" class="p0" fill="none" />
      <path d="M 212.856994629,29.076000214 L 212.856994629,43.613998413" class="p0" fill="none" />
      <path d="M 212.856994629,145.380004883 L 212.856994629,159.917999268" class="p0" fill="none" />
      <path d="M 266.071014404,29.076000214 L 266.071014404,43.613998413" class="p0" fill="none" />
      <path d="M 266.071014404,145.380004883 L 266.071014404,159.917999268" class="p0" fill="none" />
      <path d="M 0,43.613998413 L 53.214290619,43.613998413" class="p0" fill="none" />
      <path d="M 0,159.917999268 L 53.214290619,159.917999268" class="p0" fill="none" />
      <path d="M 0,43.613998413 L 0,58.152000427" class="p0" fill="none" />
      <path d="M 0,159.917999268 L 0,174.455993652" class="p0" fill="none" />
      <path d="M 53.214290619,43.613998413 L 106.428581238,43.613998413" class="p0" fill="none" />
      <path d="M 53.214290619,159.917999268 L 106.428581238,159.917999268" class="p0" fill="none" />
      <path d="M 53.214000702,43.613998413 L 53.214000702,58.152000427" class="p0" fill="none" />
      <path d="M 53.214000702,159.917999268 L 53.214000702,174.455993652" class="p0" fill="none" />
      <path d="M 106.428581238,43.613998413 L 159.642868042,43.613998413" class="p0" fill="none" />
      <path d="M 106.428581238,159.917999268 L 159.642868042,159.917999268" class="p0" fill="none" />
      <path d="M 106.429000854,43.613998413 L 106.429000854,58.152000427" class="p0" fill="none" />
      <path d="M 106.429000854,159.917999268 L 106.429000854,174.455993652" class="p0" fill="none" />
      <path d="M 159.642868042,43.613998413 L 212.857162476,43.613998413" class="p0" fill="none" />
      <path d="M 159.642868042,159.917999268 L 212.857162476,159.917999268" class="p0" fill="none" />
      <path d="M 159.643005371,43.613998413 L 159.643005371,58.152000427" class="p0" fill="none" />
      <path d="M 159.643005371,159.917999268 L 159.643005371,174.455993652" class="p0" fill="none" />
      <path d="M 212.857162476,43.613998413 L 266.07144165,43.613998413" class="p0" fill="none" />
      <path d="M 212.857162476,159.917999268 L 266.07144165,159.917999268" class="p0" fill="none" />
      <path d="M 212.856994629,43.613998413 L 212.856994629,58.152000427" class="p0" fill="none" />
      <path d="M 212.856994629,159.917999268 L 212.856994629,174.455993652" class="p0" fill="none" />
      <path d="M 266.071014404,43.613998413 L 266.071014404,58.152000427" class="p0" fill="none" />
      <path d="M 266.071014404,159.917999268 L 266.071014404,174.455993652" class="p0" fill="none" />
      <path d="M 0,58.152000427 L 53.214290619,58.152000427" class="p0" fill="none" />
      <path d="M 0,174.455993652 L 53.214290619,174.455993652" class="p0" fill="none" />
      <path d="M 0,58.152000427 L 0,72.690002441" class="p0" fill="none" />
      <path d="M 0,174.455993652 L 0,188.993988037" class="p0" fill="none" />
      <path d="M 53.214290619,58.152000427 L 106.428581238,58.152000427" class="p0" fill="none" />
      <path d="M 53.214290619,174.455993652 L 106.428581238,174.455993652" class="p0" fill="none" />
      <path d="M 53.214000702,58.152000427 L 53.214000702,72.690002441" class="p0" fill="none" />
      <path d="M 53.214000702,174.455993652 L 53.214000702,188.993988037" class="p0" fill="none" />
      <path d="M 106.428581238,58.152000427 L 159.642868042,58.152000427" class="p0" fill="none" />
      <path d="M 106.428581238,174.455993652 L 159.642868042,174.455993652" class="p0" fill="none" />
      <path d="M 106.429000854,58.152000427 L 106.429000854,72.690002441" class="p0" fill="none" />
      <path d="M 106.429000854,174.455993652 L 106.429000854,188.993988037" class="p0" fill="none" />
      <path d="M 159.642868042,58.152000427 L 212.857162476,58.152000427" class="p0" fill="none" />
      <path d="M 159.642868042,174.455993652 L 212.857162476,174.455993652" class="p0" fill="none" />
      <path d="M 159.643005371,58.152000427 L 159.643005371,72.690002441" class="p0" fill="none" />
      <path d="M 159.643005371,174.455993652 L 159.643005371,188.993988037" class="p0" fill="none" />
      <path d="M 212.857162476,58.152000427 L 266.07144165,58.152000427" class="p0" fill="none" />
      <path d="M 212.857162476,174.455993652 L 266.07144165,174.455993652" class="p0" fill="none" />
      <path d="M 212.856994629,58.152000427 L 212.856994629,72.690002441" class="p0" fill="none" />
      <path d="M 212.856994629,174.455993652 L 212.856994629,188.993988037" class="p0" fill="none" />
      <path d="M 266.071014404,58.152000427 L 266.071014404,72.690002441" class="p0" fill="none" />
      <path d="M 266.071014404,174.455993652 L 266.071014404,188.993988037" class="p0" fill="none" />
      <path d="M 0,72.690002441 L 53.214290619,72.690002441" class="p0" fill="none" />
      <path d="M 0,188.994003296 L 53.214290619,188.994003296" class="p0" fill="none" />
      <path d="M 0,72.690002441 L 0,87.228004456" class="p0" fill="none" />
      <path d="M 0,188.994003296 L 0,203.531997681" class="p0" fill="none" />
      <path d="M 53.214290619,72.690002441 L 106.428581238,72.690002441" class="p0" fill="none" />
      <path d="M 53.214290619,188.994003296 L 106.428581238,188.994003296" class="p0" fill="none" />
      <path d="M 53.214000702,72.690002441 L 53.214000702,87.228004456" class="p0" fill="none" />
      <path d="M 53.214000702,188.994003296 L 53.214000702,203.531997681" class="p0" fill="none" />
      <path d="M 106.428581238,72.690002441 L 159.642868042,72.690002441" class="p0" fill="none" />
      <path d="M 106.428581238,188.994003296 L 159.642868042,188.994003296" class="p0" fill="none" />
      <path d="M 106.429000854,72.690002441 L 106.429000854,87.228004456" class="p0" fill="none" />
      <path d="M 106.429000854,188.994003296 L 106.429000854,203.531997681" class="p0" fill="none" />
      <path d="M 159.642868042,72.690002441 L 212.857162476,72.690002441" class="p0" fill="none" />
      <path d="M 159.642868042,188.994003296 L 212.857162476,188.994003296" class="p0" fill="none" />
      <path d="M 159.643005371,72.690002441 L 159.643005371,87.228004456" class="p0" fill="none" />
      <path d="M 159.643005371,188.994003296 L 159.643005371,203.531997681" class="p0" fill="none" />
      <path d="M 212.857162476,72.690002441 L 266.07144165,72.690002441" class="p0" fill="none" />
      <path d="M 212.857162476,188.994003296 L 266.07144165,188.994003296" class="p0" fill="none" />
      <path d="M 212.856994629,72.690002441 L 212.856994629,87.228004456" class="p0" fill="none" />
      <path d="M 212.856994629,188.994003296 L 212.856994629,203.531997681" class="p0" fill="none" />
      <path d="M 266.071014404,72.690002441 L 266.071014404,87.228004456" class="p0" fill="none" />
      <path d="M 266.071014404,188.994003296 L 266.071014404,203.531997681" class="p0" fill="none" />
      <path d="M 0,87.227996826 L 53.214290619,87.227996826" class="p0" fill="none" />
      <path d="M 0,203.531997681 L 53.214290619,203.531997681" class="p0" fill="none" />
      <path d="M 0,87.227996826 L 0,101.76599884" class="p0" fill="none" />
      <path d="M 0,203.531997681 L 0,218.069992065" class="p0" fill="none" />
      <path d="M 53.214290619,87.227996826 L 106.428581238,87.227996826" class="p0" fill="none" />
      <path d="M 53.214290619,203.531997681 L 106.428581238,203.531997681" class="p0" fill="none" />
      <path d="M 53.214000702,87.227996826 L 53.214000702,101.76599884" class="p0" fill="none" />
      <path d="M 53.214000702,203.531997681 L 53.214000702,218.069992065" class="p0" fill="none" />
      <path d="M 106.428581238,87.227996826 L 159.642868042,87.227996826" class="p0" fill="none" />
      <path d="M 106.428581238,203.531997681 L 159.642868042,203.531997681" class="p0" fill="none" />
      <path d="M 106.429000854,87.227996826 L 106.429000854,101.76599884" class="p0" fill="none" />
      <path d="M 106.429000854,203.531997681 L 106.429000854,218.069992065" class="p0" fill="none" />
      <path d="M 159.642868042,87.227996826 L 212.857162476,87.227996826" class="p0" fill="none" />
      <path d="M 159.642868042,203.531997681 L 212.857162476,203.531997681" class="p0" fill="none" />
      <path d="M 159.643005371,87.227996826 L 159.643005371,101.76599884" class="p0" fill="none" />
      <path d="M 159.643005371,203.531997681 L 159.643005371,218.069992065" class="p0" fill="none" />
      <path d="M 212.857162476,87.227996826 L 266.07144165,87.227996826" class="p0" fill="none" />
      <path d="M 212.857162476,203.531997681 L 266.07144165,203.531997681" class="p0" fill="none" />
      <path d="M 212.856994629,87.227996826 L 212.856994629,101.76599884" class="p0" fill="none" />
      <path d="M 212.856994629,203.531997681 L 212.856994629,218.069992065" class="p0" fill="none" />
      <path d="M 266.071014404,87.227996826 L 266.071014404,101.76599884" class="p0" fill="none" />
      <path d="M 266.071014404,203.531997681 L 266.071014404,218.069992065" class="p0" fill="none" />
      <path d="M 0,101.76599884 L 53.214290619,101.76599884" class="p0" fill="none" />
      <path d="M 0,218.070007324 L 53.214290619,218.070007324" class="p0" fill="none" />
      <path d="M 0,101.76599884 L 0,116.304000854" class="p0" fill="none" />
      <path d="M 0,218.070007324 L 0,232.608001709" class="p0" fill="none" />
      <path d="M 53.214290619,101.76599884 L 106.428581238,101.76599884" class="p0" fill="none" />
      <path d="M 53.214290619,218.070007324 L 106.428581238,218.070007324" class="p0" fill="none" />
      <path d="M 53.214000702,101.76599884 L 53.214000702,116.304000854" class="p0" fill="none" />
      <path d="M 53.214000702,218.070007324 L 53.214000702,232.608001709" class="p0" fill="none" />
      <path d="M 106.428581238,101.76599884 L 159.642868042,101.76599884" class="p0" fill="none" />
      <path d="M 106.428581238,218.070007324 L 159.642868042,218.070007324" class="p0" fill="none" />
      <path d="M 106.429000854,101.76599884 L 106.429000854,116.304000854" class="p0" fill="none" />
      <path d="M 106.429000854,218.070007324 L 106.429000854,232.608001709" class="p0" fill="none" />
      <path d="M 159.642868042,101.76599884 L 212.857162476,101.76599884" class="p0" fill="none" />
      <path d="M 159.642868042,218.070007324 L 212.857162476,218.070007324" class="p0" fill="none" />
      <path d="M 159.643005371,101.76599884 L 159.643005371,116.304000854" class="p0" fill="none" />
      <path d="M 159.643005371,218.070007324 L 159.643005371,232.608001709" class="p0" fill="none" />
      <path d="M 212.857162476,101.76599884 L 266.07144165,101.76599884" class="p0" fill="none" />
      <path d="M 212.857162476,218.070007324 L 266.07144165,218.070007324" class="p0" fill="none" />
      <path d="M 212.856994629,101.76599884 L 212.856994629,116.304000854" class="p0" fill="none" />
      <path d="M 212.856994629,218.070007324 L 212.856994629,232.608001709" class="p0" fill="none" />
      <path d="M 266.071014404,101.76599884 L 266.071014404,116.304000854" class="p0" fill="none" />
      <path d="M 266.071014404,218.070007324 L 266.071014404,232.608001709" class="p0" fill="none" />
     </g>
    </g>
    <defs>
     <clipPath id="CLIP2">
      <path d="M-0.5,-0.5 L267.5,-0.5 L267.5,233.5 L-0.5,233.5 Z " />
     </clipPath>
    </defs>
    <g clip-path="url(#CLIP2)">
     <g>
      <defs>
       <clipPath id="CLIP3">
        <path d="M0.25,0.25 L52.964290619,0.25 L52.964290619,14.288000107 L0.25,14.288000107 Z " />
       </clipPath>
      </defs>
      <g clip-path="url(#CLIP3)">
       <g>
        <g transform="matrix(1,0,0,1,1.075036168,14.295700073)">
         <text x="1" y="-2.889374971" class="f0">Methods</text>
        </g>
       </g>
      </g>
      <defs>
       <clipPath id="CLIP4">
        <path d="M53.464290619,0.25 L106.178581238,0.25 L106.178581238,14.288000107 L53.464290619,14.288000107 Z " />
       </clipPath>
      </defs>
      <g clip-path="url(#CLIP4)">
       <g>
        <g transform="matrix(1,0,0,1,54.289325714,14.295700073)">
         <text x="1" y="-2.889374971" class="f0">R</text>
        </g>
       </g>
      </g>
      <defs>
       <clipPath id="CLIP5">
        <path d="M106.678581238,0.25 L159.392868042,0.25 L159.392868042,14.288000107 L106.678581238,14.288000107 Z " />
       </clipPath>
      </defs>
      <g clip-path="url(#CLIP5)">
       <g>
        <g transform="matrix(1,0,0,1,107.503616333,14.295700073)">
         <text x="1" y="-2.889374971" class="f0">P</text>
        </g>
       </g>
      </g>
      <defs>
       <clipPath id="CLIP6">
        <path d="M159.892868042,0.25 L212.607162476,0.25 L212.607162476,14.288000107 L159.892868042,14.288000107 Z " />
       </clipPath>
      </defs>
      <g clip-path="url(#CLIP6)">
       <g>
        <g transform="matrix(1,0,0,1,160.717910767,14.295700073)">
         <text x="1" y="-2.889374971" class="f0">F</text>
        </g>
       </g>
      </g>
      <defs>
       <clipPath id="CLIP7">
        <path d="M213.107162476,0.25 L265.82144165,0.25 L265.82144165,14.288000107 L213.107162476,14.288000107 Z " />
       </clipPath>
      </defs>
      <g clip-path="url(#CLIP7)">
       <g>
        <g transform="matrix(1,0,0,1,213.9322052,14.295700073)">
         <text x="1" y="-2.889374971" class="f0">FPS</text>
        </g>
       </g>
      </g>
      <defs>
       <clipPath id="CLIP8">
        <path d="M0.25,14.788000107 L52.964290619,14.788000107 L52.964290619,28.826000214 L0.25,28.826000214 Z " />
       </clipPath>
      </defs>
      <g clip-path="url(#CLIP8)">
       <g>
        <g transform="matrix(1,0,0,1,1.075036168,44.825500488)">
         <text x="1" y="-18.881175995" class="f0">SegLink</text>
         <text x="1" y="-2.889374971" class="f0">[26]</text>
        </g>
       </g>
      </g>
      <defs>
       <clipPath id="CLIP9">
        <path d="M53.464290619,14.788000107 L106.178581238,14.788000107 L106.178581238,28.826000214 L53.464290619,28.826000214 Z " />
       </clipPath>
      </defs>
      <g clip-path="url(#CLIP9)">
       <g>
        <g transform="matrix(1,0,0,1,54.289325714,28.83370018)">
         <text x="1" y="-2.889374971" class="f0">70.0</text>
        </g>
       </g>
      </g>
      <defs>
       <clipPath id="CLIP10">
        <path d="M106.678581238,14.788000107 L159.392868042,14.788000107 L159.392868042,28.826000214 L106.678581238,28.826000214 Z " />
       </clipPath>
      </defs>
      <g clip-path="url(#CLIP10)">
       <g>
        <g transform="matrix(1,0,0,1,107.503616333,28.83370018)">
         <text x="1" y="-2.889374971" class="f0">86.0</text>
        </g>
       </g>
      </g>
      <defs>
       <clipPath id="CLIP11">
        <path d="M159.892868042,14.788000107 L212.607162476,14.788000107 L212.607162476,28.826000214 L159.892868042,28.826000214 Z " />
       </clipPath>
      </defs>
      <g clip-path="url(#CLIP11)">
       <g>
        <g transform="matrix(1,0,0,1,160.717910767,28.83370018)">
         <text x="1" y="-2.889374971" class="f0">77.0</text>
        </g>
       </g>
      </g>
      <defs>
       <clipPath id="CLIP12">
        <path d="M213.107162476,14.788000107 L265.82144165,14.788000107 L265.82144165,28.826000214 L213.107162476,28.826000214 Z " />
       </clipPath>
      </defs>
      <g clip-path="url(#CLIP12)">
       <g>
        <g transform="matrix(1,0,0,1,213.9322052,28.83370018)">
         <text x="1" y="-2.889374971" class="f0">8.9</text>
        </g>
       </g>
      </g>
      <defs>
       <clipPath id="CLIP13">
        <path d="M0.25,29.326000214 L52.964290619,29.326000214 L52.964290619,43.363998413 L0.25,43.363998413 Z " />
       </clipPath>
      </defs>
      <g clip-path="url(#CLIP13)">
       <g>
        <g transform="matrix(1,0,0,1,1.075036168,59.363502502)">
         <text x="1" y="-18.881175995" class="f0">PixelLink</text>
         <text x="1" y="-2.889374971" class="f0">[4]</text>
        </g>
       </g>
      </g>
      <defs>
       <clipPath id="CLIP14">
        <path d="M53.464290619,29.326000214 L106.178581238,29.326000214 L106.178581238,43.363998413 L53.464290619,43.363998413 Z " />
       </clipPath>
      </defs>
      <g clip-path="url(#CLIP14)">
       <g>
        <g transform="matrix(1,0,0,1,54.289325714,43.371700287)">
         <text x="1" y="-2.889374971" class="f0">73.2</text>
        </g>
       </g>
      </g>
      <defs>
       <clipPath id="CLIP15">
        <path d="M106.678581238,29.326000214 L159.392868042,29.326000214 L159.392868042,43.363998413 L106.678581238,43.363998413 Z " />
       </clipPath>
      </defs>
      <g clip-path="url(#CLIP15)">
       <g>
        <g transform="matrix(1,0,0,1,107.503616333,43.371700287)">
         <text x="1" y="-2.889374971" class="f0">83.0</text>
        </g>
       </g>
      </g>
      <defs>
       <clipPath id="CLIP16">
        <path d="M159.892868042,29.326000214 L212.607162476,29.326000214 L212.607162476,43.363998413 L159.892868042,43.363998413 Z " />
       </clipPath>
      </defs>
      <g clip-path="url(#CLIP16)">
       <g>
        <g transform="matrix(1,0,0,1,160.717910767,43.371700287)">
         <text x="1" y="-2.889374971" class="f0">77.8</text>
        </g>
       </g>
      </g>
      <defs>
       <clipPath id="CLIP17">
        <path d="M0.25,43.863998413 L52.964290619,43.863998413 L52.964290619,57.902000427 L0.25,57.902000427 Z " />
       </clipPath>
      </defs>
      <g clip-path="url(#CLIP17)">
       <g>
        <g transform="matrix(1,0,0,1,1.075036168,73.901504517)">
         <text x="1" y="-18.881175995" class="f0">TextSnak</text>
         <text x="1" y="-2.889374971" class="f0">e</text>
         <text x="7.263906002" y="-2.889374971" class="f0"> </text>
         <text x="10.53062439" y="-2.889374971" class="f0">[18]</text>
        </g>
       </g>
      </g>
      <defs>
       <clipPath id="CLIP18">
        <path d="M53.464290619,43.863998413 L106.178581238,43.863998413 L106.178581238,57.902000427 L53.464290619,57.902000427 Z " />
       </clipPath>
      </defs>
      <g clip-path="url(#CLIP18)">
       <g>
        <g transform="matrix(1,0,0,1,54.289325714,57.909698486)">
         <text x="1" y="-2.889374971" class="f0">73.9</text>
        </g>
       </g>
      </g>
      <defs>
       <clipPath id="CLIP19">
        <path d="M106.678581238,43.863998413 L159.392868042,43.863998413 L159.392868042,57.902000427 L106.678581238,57.902000427 Z " />
       </clipPath>
      </defs>
      <g clip-path="url(#CLIP19)">
       <g>
        <g transform="matrix(1,0,0,1,107.503616333,57.909698486)">
         <text x="1" y="-2.889374971" class="f0">83.2</text>
        </g>
       </g>
      </g>
      <defs>
       <clipPath id="CLIP20">
        <path d="M159.892868042,43.863998413 L212.607162476,43.863998413 L212.607162476,57.902000427 L159.892868042,57.902000427 Z " />
       </clipPath>
      </defs>
      <g clip-path="url(#CLIP20)">
       <g>
        <g transform="matrix(1,0,0,1,160.717910767,57.909698486)">
         <text x="1" y="-2.889374971" class="f0">78.3</text>
        </g>
       </g>
      </g>
      <defs>
       <clipPath id="CLIP21">
        <path d="M213.107162476,43.863998413 L265.82144165,43.863998413 L265.82144165,57.902000427 L213.107162476,57.902000427 Z " />
       </clipPath>
      </defs>
      <g clip-path="url(#CLIP21)">
       <g>
        <g transform="matrix(1,0,0,1,213.9322052,57.909698486)">
         <text x="1" y="-2.889374971" class="f0">1.1</text>
        </g>
       </g>
      </g>
      <defs>
       <clipPath id="CLIP22">
        <path d="M0.25,58.402000427 L52.964290619,58.402000427 L52.964290619,72.440002441 L0.25,72.440002441 Z " />
       </clipPath>
      </defs>
      <g clip-path="url(#CLIP22)">
       <g>
        <g transform="matrix(1,0,0,1,1.075036168,88.439498901)">
         <text x="1" y="-18.881175995" class="f0">TextField</text>
         <text x="1" y="-2.889374971" class="f0">[37]</text>
        </g>
       </g>
      </g>
      <defs>
       <clipPath id="CLIP23">
        <path d="M53.464290619,58.402000427 L106.178581238,58.402000427 L106.178581238,72.440002441 L53.464290619,72.440002441 Z " />
       </clipPath>
      </defs>
      <g clip-path="url(#CLIP23)">
       <g>
        <g transform="matrix(1,0,0,1,54.289325714,72.4477005)">
         <text x="1" y="-2.889374971" class="f0">75.9</text>
        </g>
       </g>
      </g>
      <defs>
       <clipPath id="CLIP24">
        <path d="M106.678581238,58.402000427 L159.392868042,58.402000427 L159.392868042,72.440002441 L106.678581238,72.440002441 Z " />
       </clipPath>
      </defs>
      <g clip-path="url(#CLIP24)">
       <g>
        <g transform="matrix(1,0,0,1,107.503616333,72.4477005)">
         <text x="1" y="-2.889374971" class="f0">87.4</text>
        </g>
       </g>
      </g>
      <defs>
       <clipPath id="CLIP25">
        <path d="M159.892868042,58.402000427 L212.607162476,58.402000427 L212.607162476,72.440002441 L159.892868042,72.440002441 Z " />
       </clipPath>
      </defs>
      <g clip-path="url(#CLIP25)">
       <g>
        <g transform="matrix(1,0,0,1,160.717910767,72.4477005)">
         <text x="1" y="-2.889374971" class="f0">81.3</text>
        </g>
       </g>
      </g>
      <defs>
       <clipPath id="CLIP26">
        <path d="M213.107162476,58.402000427 L265.82144165,58.402000427 L265.82144165,72.440002441 L213.107162476,72.440002441 Z " />
       </clipPath>
      </defs>
      <g clip-path="url(#CLIP26)">
       <g>
        <g transform="matrix(1,0,0,1,213.9322052,72.4477005)">
         <text x="1" y="-2.889374971" class="f0">5.2</text>
        </g>
       </g>
      </g>
      <defs>
       <clipPath id="CLIP27">
        <path d="M0.25,72.940002441 L52.964290619,72.940002441 L52.964290619,86.978004456 L0.25,86.978004456 Z " />
       </clipPath>
      </defs>
      <g clip-path="url(#CLIP27)">
       <g>
        <g transform="matrix(1,0,0,1,1.075036168,86.985702515)">
         <text x="1" y="-2.889374971" class="f0">MSR[38]</text>
        </g>
       </g>
      </g>
      <defs>
       <clipPath id="CLIP28">
        <path d="M53.464290619,72.940002441 L106.178581238,72.940002441 L106.178581238,86.978004456 L53.464290619,86.978004456 Z " />
       </clipPath>
      </defs>
      <g clip-path="url(#CLIP28)">
       <g>
        <g transform="matrix(1,0,0,1,54.289325714,86.985702515)">
         <text x="1" y="-2.889374971" class="f0">76.7</text>
        </g>
       </g>
      </g>
      <defs>
       <clipPath id="CLIP29">
        <path d="M106.678581238,72.940002441 L159.392868042,72.940002441 L159.392868042,86.978004456 L106.678581238,86.978004456 Z " />
       </clipPath>
      </defs>
      <g clip-path="url(#CLIP29)">
       <g>
        <g transform="matrix(1,0,0,1,107.503616333,86.985702515)">
         <text x="1" y="-2.889374971" class="f0">87.4</text>
        </g>
       </g>
      </g>
      <defs>
       <clipPath id="CLIP30">
        <path d="M159.892868042,72.940002441 L212.607162476,72.940002441 L212.607162476,86.978004456 L159.892868042,86.978004456 Z " />
       </clipPath>
      </defs>
      <g clip-path="url(#CLIP30)">
       <g>
        <g transform="matrix(1,0,0,1,160.717910767,86.985702515)">
         <text x="1" y="-2.889374971" class="f0">81.7</text>
        </g>
       </g>
      </g>
      <defs>
       <clipPath id="CLIP31">
        <path d="M0.25,87.477996826 L52.964290619,87.477996826 L52.964290619,101.51599884 L0.25,101.51599884 Z " />
       </clipPath>
      </defs>
      <g clip-path="url(#CLIP31)">
       <g>
        <g transform="matrix(1,0,0,1,1.075036168,101.523696899)">
         <text x="1" y="-2.889374971" class="f0">FTSN</text>
         <text x="28.54070282" y="-2.889374971" class="f0"> </text>
         <text x="31.807420731" y="-2.889374971" class="f0">[3]</text>
        </g>
       </g>
      </g>
      <defs>
       <clipPath id="CLIP32">
        <path d="M53.464290619,87.477996826 L106.178581238,87.477996826 L106.178581238,101.51599884 L53.464290619,101.51599884 Z " />
       </clipPath>
      </defs>
      <g clip-path="url(#CLIP32)">
       <g>
        <g transform="matrix(1,0,0,1,54.289325714,101.523696899)">
         <text x="1" y="-2.889374971" class="f0">77.1</text>
        </g>
       </g>
      </g>
      <defs>
       <clipPath id="CLIP33">
        <path d="M106.678581238,87.477996826 L159.392868042,87.477996826 L159.392868042,101.51599884 L106.678581238,101.51599884 Z " />
       </clipPath>
      </defs>
      <g clip-path="url(#CLIP33)">
       <g>
        <g transform="matrix(1,0,0,1,107.503616333,101.523696899)">
         <text x="1" y="-2.889374971" class="f0">87.6</text>
        </g>
       </g>
      </g>
      <defs>
       <clipPath id="CLIP34">
        <path d="M159.892868042,87.477996826 L212.607162476,87.477996826 L212.607162476,101.51599884 L159.892868042,101.51599884 Z " />
       </clipPath>
      </defs>
      <g clip-path="url(#CLIP34)">
       <g>
        <g transform="matrix(1,0,0,1,160.717910767,101.523696899)">
         <text x="1" y="-2.889374971" class="f0">82.0</text>
        </g>
       </g>
      </g>
      <defs>
       <clipPath id="CLIP35">
        <path d="M0.25,102.01599884 L52.964290619,102.01599884 L52.964290619,116.054000854 L0.25,116.054000854 Z " />
       </clipPath>
      </defs>
      <g clip-path="url(#CLIP35)">
       <g>
        <g transform="matrix(1,0,0,1,1.075036168,116.061698914)">
         <text x="1" y="-2.889374971" class="f0">LSE[30]</text>
        </g>
       </g>
      </g>
      <defs>
       <clipPath id="CLIP36">
        <path d="M53.464290619,102.01599884 L106.178581238,102.01599884 L106.178581238,116.054000854 L53.464290619,116.054000854 Z " />
       </clipPath>
      </defs>
      <g clip-path="url(#CLIP36)">
       <g>
        <g transform="matrix(1,0,0,1,54.289325714,116.061698914)">
         <text x="1" y="-2.889374971" class="f0">81.7</text>
        </g>
       </g>
      </g>
      <defs>
       <clipPath id="CLIP37">
        <path d="M106.678581238,102.01599884 L159.392868042,102.01599884 L159.392868042,116.054000854 L106.678581238,116.054000854 Z " />
       </clipPath>
      </defs>
      <g clip-path="url(#CLIP37)">
       <g>
        <g transform="matrix(1,0,0,1,107.503616333,116.061698914)">
         <text x="1" y="-2.889374971" class="f0">84.2</text>
        </g>
       </g>
      </g>
      <defs>
       <clipPath id="CLIP38">
        <path d="M159.892868042,102.01599884 L212.607162476,102.01599884 L212.607162476,116.054000854 L159.892868042,116.054000854 Z " />
       </clipPath>
      </defs>
      <g clip-path="url(#CLIP38)">
       <g>
        <g transform="matrix(1,0,0,1,160.717910767,116.061698914)">
         <text x="1" y="-2.889374971" class="f0">82.9</text>
        </g>
       </g>
      </g>
      <defs>
       <clipPath id="CLIP39">
        <path d="M0.25,116.554000854 L52.964290619,116.554000854 L52.964290619,130.591995239 L0.25,130.591995239 Z " />
       </clipPath>
      </defs>
      <g clip-path="url(#CLIP39)">
       <g>
        <g transform="matrix(1,0,0,1,1.075036168,146.591506958)">
         <text x="1" y="-18.881175995" class="f0">CRAFT</text>
         <text x="1" y="-2.889374971" class="f0">[2]</text>
        </g>
       </g>
      </g>
      <defs>
       <clipPath id="CLIP40">
        <path d="M53.464290619,116.554000854 L106.178581238,116.554000854 L106.178581238,130.591995239 L53.464290619,130.591995239 Z " />
       </clipPath>
      </defs>
      <g clip-path="url(#CLIP40)">
       <g>
        <g transform="matrix(1,0,0,1,54.289325714,130.599700928)">
         <text x="1" y="-2.889374971" class="f0">78.2</text>
        </g>
       </g>
      </g>
      <defs>
       <clipPath id="CLIP41">
        <path d="M106.678581238,116.554000854 L159.392868042,116.554000854 L159.392868042,130.591995239 L106.678581238,130.591995239 Z " />
       </clipPath>
      </defs>
      <g clip-path="url(#CLIP41)">
       <g>
        <g transform="matrix(1,0,0,1,107.503616333,130.599700928)">
         <text x="1" y="-2.889374971" class="f0">88.2</text>
        </g>
       </g>
      </g>
      <defs>
       <clipPath id="CLIP42">
        <path d="M159.892868042,116.554000854 L212.607162476,116.554000854 L212.607162476,130.591995239 L159.892868042,130.591995239 Z " />
       </clipPath>
      </defs>
      <g clip-path="url(#CLIP42)">
       <g>
        <g transform="matrix(1,0,0,1,160.717910767,130.599700928)">
         <text x="1" y="-2.889374971" class="f0">82.9</text>
        </g>
       </g>
      </g>
      <defs>
       <clipPath id="CLIP43">
        <path d="M213.107162476,116.554000854 L265.82144165,116.554000854 L265.82144165,130.591995239 L213.107162476,130.591995239 Z " />
       </clipPath>
      </defs>
      <g clip-path="url(#CLIP43)">
       <g>
        <g transform="matrix(1,0,0,1,213.9322052,130.599700928)">
         <text x="1" y="-2.889374971" class="f0">8.6</text>
        </g>
       </g>
      </g>
      <defs>
       <clipPath id="CLIP44">
        <path d="M0.25,131.091995239 L52.964290619,131.091995239 L52.964290619,145.129989624 L0.25,145.129989624 Z " />
       </clipPath>
      </defs>
      <g clip-path="url(#CLIP44)">
       <g>
        <g transform="matrix(1,0,0,1,1.075036168,145.137710571)">
         <text x="1" y="-2.889374971" class="f0">MCN[16]</text>
        </g>
       </g>
      </g>
      <defs>
       <clipPath id="CLIP45">
        <path d="M53.464290619,131.091995239 L106.178581238,131.091995239 L106.178581238,145.129989624 L53.464290619,145.129989624 Z " />
       </clipPath>
      </defs>
      <g clip-path="url(#CLIP45)">
       <g>
        <g transform="matrix(1,0,0,1,54.289325714,145.137710571)">
         <text x="1" y="-2.889374971" class="f0">79</text>
        </g>
       </g>
      </g>
      <defs>
       <clipPath id="CLIP46">
        <path d="M106.678581238,131.091995239 L159.392868042,131.091995239 L159.392868042,145.129989624 L106.678581238,145.129989624 Z " />
       </clipPath>
      </defs>
      <g clip-path="url(#CLIP46)">
       <g>
        <g transform="matrix(1,0,0,1,107.503616333,145.137710571)">
         <text x="1" y="-2.889374971" class="f0">88</text>
        </g>
       </g>
      </g>
      <defs>
       <clipPath id="CLIP47">
        <path d="M159.892868042,131.091995239 L212.607162476,131.091995239 L212.607162476,145.129989624 L159.892868042,145.129989624 Z " />
       </clipPath>
      </defs>
      <g clip-path="url(#CLIP47)">
       <g>
        <g transform="matrix(1,0,0,1,160.717910767,145.137710571)">
         <text x="1" y="-2.889374971" class="f0">83</text>
        </g>
       </g>
      </g>
      <defs>
       <clipPath id="CLIP48">
        <path d="M0.25,145.630004883 L52.964290619,145.630004883 L52.964290619,159.667999268 L0.25,159.667999268 Z " />
       </clipPath>
      </defs>
      <g clip-path="url(#CLIP48)">
       <g>
        <g transform="matrix(1,0,0,1,1.075036168,175.667510986)">
         <text x="1" y="-18.881175995" class="f0">ATRR[35</text>
         <text x="1" y="-2.889374971" class="f0">]</text>
        </g>
       </g>
      </g>
      <defs>
       <clipPath id="CLIP49">
        <path d="M53.464290619,145.630004883 L106.178581238,145.630004883 L106.178581238,159.667999268 L53.464290619,159.667999268 Z " />
       </clipPath>
      </defs>
      <g clip-path="url(#CLIP49)">
       <g>
        <g transform="matrix(1,0,0,1,54.289325714,159.675720215)">
         <text x="1" y="-2.889374971" class="f0">82.1</text>
        </g>
       </g>
      </g>
      <defs>
       <clipPath id="CLIP50">
        <path d="M106.678581238,145.630004883 L159.392868042,145.630004883 L159.392868042,159.667999268 L106.678581238,159.667999268 Z " />
       </clipPath>
      </defs>
      <g clip-path="url(#CLIP50)">
       <g>
        <g transform="matrix(1,0,0,1,107.503616333,159.675720215)">
         <text x="1" y="-2.889374971" class="f0">85.2</text>
        </g>
       </g>
      </g>
      <defs>
       <clipPath id="CLIP51">
        <path d="M159.892868042,145.630004883 L212.607162476,145.630004883 L212.607162476,159.667999268 L159.892868042,159.667999268 Z " />
       </clipPath>
      </defs>
      <g clip-path="url(#CLIP51)">
       <g>
        <g transform="matrix(1,0,0,1,160.717910767,159.675720215)">
         <text x="1" y="-2.889374971" class="f0">83.6</text>
        </g>
       </g>
      </g>
      <defs>
       <clipPath id="CLIP52">
        <path d="M0.25,160.167999268 L52.964290619,160.167999268 L52.964290619,174.205993652 L0.25,174.205993652 Z " />
       </clipPath>
      </defs>
      <g clip-path="url(#CLIP52)">
       <g>
        <g transform="matrix(1,0,0,1,1.075036168,174.2137146)">
         <text x="1" y="-2.889374971" class="f0">PAN[34]</text>
        </g>
       </g>
      </g>
      <defs>
       <clipPath id="CLIP53">
        <path d="M53.464290619,160.167999268 L106.178581238,160.167999268 L106.178581238,174.205993652 L53.464290619,174.205993652 Z " />
       </clipPath>
      </defs>
      <g clip-path="url(#CLIP53)">
       <g>
        <g transform="matrix(1,0,0,1,54.289325714,174.2137146)">
         <text x="1" y="-2.889374971" class="f0">83.8</text>
        </g>
       </g>
      </g>
      <defs>
       <clipPath id="CLIP54">
        <path d="M106.678581238,160.167999268 L159.392868042,160.167999268 L159.392868042,174.205993652 L106.678581238,174.205993652 Z " />
       </clipPath>
      </defs>
      <g clip-path="url(#CLIP54)">
       <g>
        <g transform="matrix(1,0,0,1,107.503616333,174.2137146)">
         <text x="1" y="-2.889374971" class="f0">84.4</text>
        </g>
       </g>
      </g>
      <defs>
       <clipPath id="CLIP55">
        <path d="M159.892868042,160.167999268 L212.607162476,160.167999268 L212.607162476,174.205993652 L159.892868042,174.205993652 Z " />
       </clipPath>
      </defs>
      <g clip-path="url(#CLIP55)">
       <g>
        <g transform="matrix(1,0,0,1,160.717910767,174.2137146)">
         <text x="1" y="-2.889374971" class="f0">84.1</text>
        </g>
       </g>
      </g>
      <defs>
       <clipPath id="CLIP56">
        <path d="M213.107162476,160.167999268 L265.82144165,160.167999268 L265.82144165,174.205993652 L213.107162476,174.205993652 Z " />
       </clipPath>
      </defs>
      <g clip-path="url(#CLIP56)">
       <g>
        <g transform="matrix(1,0,0,1,213.9322052,174.2137146)">
         <text x="1" y="-2.889374971" class="f0">30.2</text>
        </g>
       </g>
      </g>
      <defs>
       <clipPath id="CLIP57">
        <path d="M0.25,174.705993652 L52.964290619,174.705993652 L52.964290619,188.743988037 L0.25,188.743988037 Z " />
       </clipPath>
      </defs>
      <g clip-path="url(#CLIP57)">
       <g>
        <g transform="matrix(1,0,0,1,1.075036168,188.751708984)">
         <text x="1" y="-2.889374971" class="f0">DB[12]</text>
        </g>
       </g>
      </g>
      <defs>
       <clipPath id="CLIP58">
        <path d="M53.464290619,174.705993652 L106.178581238,174.705993652 L106.178581238,188.743988037 L53.464290619,188.743988037 Z " />
       </clipPath>
      </defs>
      <g clip-path="url(#CLIP58)">
       <g>
        <g transform="matrix(1,0,0,1,54.289325714,188.751708984)">
         <text x="1" y="-2.889374971" class="f0">79.2</text>
        </g>
       </g>
      </g>
      <defs>
       <clipPath id="CLIP59">
        <path d="M106.678581238,174.705993652 L159.392868042,174.705993652 L159.392868042,188.743988037 L106.678581238,188.743988037 Z " />
       </clipPath>
      </defs>
      <g clip-path="url(#CLIP59)">
       <g>
        <g transform="matrix(1,0,0,1,107.503616333,188.751708984)">
         <text x="1" y="-2.889374971" class="f0">91.5</text>
        </g>
       </g>
      </g>
      <defs>
       <clipPath id="CLIP60">
        <path d="M159.892868042,174.705993652 L212.607162476,174.705993652 L212.607162476,188.743988037 L159.892868042,188.743988037 Z " />
       </clipPath>
      </defs>
      <g clip-path="url(#CLIP60)">
       <g>
        <g transform="matrix(1,0,0,1,160.717910767,188.751708984)">
         <text x="1" y="-2.889374971" class="f0">84.9</text>
        </g>
       </g>
      </g>
      <defs>
       <clipPath id="CLIP61">
        <path d="M213.107162476,174.705993652 L265.82144165,174.705993652 L265.82144165,188.743988037 L213.107162476,188.743988037 Z " />
       </clipPath>
      </defs>
      <g clip-path="url(#CLIP61)">
       <g>
        <g transform="matrix(1,0,0,1,213.9322052,188.751708984)">
         <text x="1" y="-2.889374971" class="f0">32.0</text>
        </g>
       </g>
      </g>
      <defs>
       <clipPath id="CLIP62">
        <path d="M0.25,189.244003296 L52.964290619,189.244003296 L52.964290619,203.281997681 L0.25,203.281997681 Z " />
       </clipPath>
      </defs>
      <g clip-path="url(#CLIP62)">
       <g>
        <g transform="matrix(1,0,0,1,1.075036168,219.281509399)">
         <text x="1" y="-18.881175995" class="f0">DRRG[41</text>
         <text x="1" y="-2.889374971" class="f0">]</text>
        </g>
       </g>
      </g>
      <defs>
       <clipPath id="CLIP63">
        <path d="M53.464290619,189.244003296 L106.178581238,189.244003296 L106.178581238,203.281997681 L53.464290619,203.281997681 Z " />
       </clipPath>
      </defs>
      <g clip-path="url(#CLIP63)">
       <g>
        <g transform="matrix(1,0,0,1,54.289325714,203.289718628)">
         <text x="1" y="-2.889374971" class="f0">82.30</text>
        </g>
       </g>
      </g>
      <defs>
       <clipPath id="CLIP64">
        <path d="M106.678581238,189.244003296 L159.392868042,189.244003296 L159.392868042,203.281997681 L106.678581238,203.281997681 Z " />
       </clipPath>
      </defs>
      <g clip-path="url(#CLIP64)">
       <g>
        <g transform="matrix(1,0,0,1,107.503616333,203.289718628)">
         <text x="1" y="-2.889374971" class="f0">88.05</text>
        </g>
       </g>
      </g>
      <defs>
       <clipPath id="CLIP65">
        <path d="M159.892868042,189.244003296 L212.607162476,189.244003296 L212.607162476,203.281997681 L159.892868042,203.281997681 Z " />
       </clipPath>
      </defs>
      <g clip-path="url(#CLIP65)">
       <g>
        <g transform="matrix(1,0,0,1,160.717910767,203.289718628)">
         <text x="1" y="-2.889374971" class="f0">85.08</text>
        </g>
       </g>
      </g>
      <defs>
       <clipPath id="CLIP66">
        <path d="M0.25,203.781997681 L52.964290619,203.781997681 L52.964290619,217.819992065 L0.25,217.819992065 Z " />
       </clipPath>
      </defs>
      <g clip-path="url(#CLIP66)">
       <g>
        <g transform="matrix(1,0,0,1,1.075036168,249.811309814)">
         <text x="1" y="-34.872974396" class="f0">Ours</text>
         <text x="1" y="-18.881175995" class="f0">(SynText</text>
         <text x="1" y="-2.889374971" class="f0">)</text>
        </g>
       </g>
      </g>
      <defs>
       <clipPath id="CLIP67">
        <path d="M53.464290619,203.781997681 L106.178581238,203.781997681 L106.178581238,217.819992065 L53.464290619,217.819992065 Z " />
       </clipPath>
      </defs>
      <g clip-path="url(#CLIP67)">
       <g>
        <g transform="matrix(1,0,0,1,54.289325714,217.827713013)">
         <text x="1" y="-2.889374971" class="f0">80.68</text>
        </g>
       </g>
      </g>
      <defs>
       <clipPath id="CLIP68">
        <path d="M106.678581238,203.781997681 L159.392868042,203.781997681 L159.392868042,217.819992065 L106.678581238,217.819992065 Z " />
       </clipPath>
      </defs>
      <g clip-path="url(#CLIP68)">
       <g>
        <g transform="matrix(1,0,0,1,107.503616333,217.827713013)">
         <text x="1" y="-2.889374971" class="f0">85.40</text>
        </g>
       </g>
      </g>
      <defs>
       <clipPath id="CLIP69">
        <path d="M159.892868042,203.781997681 L212.607162476,203.781997681 L212.607162476,217.819992065 L159.892868042,217.819992065 Z " />
       </clipPath>
      </defs>
      <g clip-path="url(#CLIP69)">
       <g>
        <g transform="matrix(1,0,0,1,160.717910767,217.827713013)">
         <text x="1" y="-2.889374971" class="f0">82.97</text>
        </g>
       </g>
      </g>
      <defs>
       <clipPath id="CLIP70">
        <path d="M213.107162476,203.781997681 L265.82144165,203.781997681 L265.82144165,217.819992065 L213.107162476,217.819992065 Z " />
       </clipPath>
      </defs>
      <g clip-path="url(#CLIP70)">
       <g>
        <g transform="matrix(1,0,0,1,213.9322052,217.827713013)">
         <text x="1" y="-2.889374971" class="f0">12.68</text>
        </g>
       </g>
      </g>
      <defs>
       <clipPath id="CLIP71">
        <path d="M0.25,218.320007324 L52.964290619,218.320007324 L52.964290619,232.358001709 L0.25,232.358001709 Z " />
       </clipPath>
      </defs>
      <g clip-path="url(#CLIP71)">
       <g>
        <g transform="matrix(1,0,0,1,1.075036168,248.357513428)">
         <text x="1" y="-18.881175995" class="f0">Ours</text>
         <text x="1" y="-2.889374971" class="f0">(MLT-17)</text>
        </g>
       </g>
      </g>
      <defs>
       <clipPath id="CLIP72">
        <path d="M53.464290619,218.320007324 L106.178581238,218.320007324 L106.178581238,232.358001709 L53.464290619,232.358001709 Z " />
       </clipPath>
      </defs>
      <g clip-path="url(#CLIP72)">
       <g>
        <g transform="matrix(1,0,0,1,54.289325714,232.365722656)">
         <text x="1" y="-2.889374971" class="f0">84.54</text>
        </g>
       </g>
      </g>
      <defs>
       <clipPath id="CLIP73">
        <path d="M106.678581238,218.320007324 L159.392868042,218.320007324 L159.392868042,232.358001709 L106.678581238,232.358001709 Z " />
       </clipPath>
      </defs>
      <g clip-path="url(#CLIP73)">
       <g>
        <g transform="matrix(1,0,0,1,107.503616333,232.365722656)">
         <text x="1" y="-2.889374971" class="f0">86.62</text>
        </g>
       </g>
      </g>
      <defs>
       <clipPath id="CLIP74">
        <path d="M159.892868042,218.320007324 L212.607162476,218.320007324 L212.607162476,232.358001709 L159.892868042,232.358001709 Z " />
       </clipPath>
      </defs>
      <g clip-path="url(#CLIP74)">
       <g>
        <g transform="matrix(1,0,0,1,160.717910767,232.365722656)">
         <text x="1" y="-2.889374971" class="f0">85.57</text>
        </g>
       </g>
      </g>
      <defs>
       <clipPath id="CLIP75">
        <path d="M213.107162476,218.320007324 L265.82144165,218.320007324 L265.82144165,232.358001709 L213.107162476,232.358001709 Z " />
       </clipPath>
      </defs>
      <g clip-path="url(#CLIP75)">
       <g>
        <g transform="matrix(1,0,0,1,213.9322052,232.365722656)">
         <text x="1" y="-2.889374971" class="f0">12.31</text>
        </g>
       </g>
      </g>
     </g>
    </g>
    <defs>
     <clipPath id="CLIP76">
      <path d="M-0.5,-0.5 L267.5,-0.5 L267.5,233.5 L-0.5,233.5 Z " />
     </clipPath>
    </defs>
    <g clip-path="url(#CLIP76)">
     <g />
    </g>
   </g>
   <g />
   <g />
   <g />
   <g>
    <g>
     <g />
     <g shape-rendering="crispEdges" />
    </g>
    <g>
     <g />
    </g>
    <g>
     <g />
    </g>
   </g>
   <g>
    <text x="10" y="10" class="f1">Evaluation Only. Created with Aspose.Cells for Python via Java.Copyright 2003 - 2023 Aspose Pty Ltd.</text>
   </g>
  </g>
 </g>
 <defs />
 <defs>
  <style type="text/css">
   <![CDATA[
   
.f0
{
font-family:Microsoft YaHei;
font-size:11.039999962px;
fill:#000000;
}

.f1
{
font-family:Arial;
font-size:10px;
fill:#FF0000;
}

   
.p0
{
stroke:#FF0000;
stroke-width:2.907599926px;
stroke-linecap:butt;
stroke-linejoin:miter;
}

   ]]></style>
 </defs>
</svg>
