<?xml version="1.0" encoding="UTF-8" standalone="yes"?>
<svg xmlns="http://www.w3.org/2000/svg" xmlns:xlink="http://www.w3.org/1999/xlink" width="612pt" height="792pt">
 <g id="SFixTitle" />
 <g id="SContent">
  <g transform="scale(1.33333)">
   <rect width="100%" height="100%" fill="white" />
   <g>
    <g>
     <g />
     <g shape-rendering="crispEdges" />
    </g>
    <g>
     <g />
    </g>
    <g>
     <g />
    </g>
   </g>
   <g transform="matrix(1,0,0,1,50.400001526,54)">
    <defs>
     <clipPath id="CLIP0">
      <path d="M-0.5,-0.5 L259.5,-0.5 L259.5,233.5 L-0.5,233.5 Z " />
     </clipPath>
    </defs>
    <g clip-path="url(#CLIP0)">
     <g />
     <g shape-rendering="crispEdges" />
    </g>
    <defs>
     <clipPath id="CLIP1">
      <path d="M-0.5,-1.453799963 L259.5,-1.453799963 L259.5,234.546203613 L-0.5,234.546203613 Z " />
     </clipPath>
    </defs>
    <g clip-path="url(#CLIP1)">
     <g>
      <g />
     </g>
    </g>
    <defs>
     <clipPath id="CLIP2">
      <path d="M-0.5,-0.5 L259.5,-0.5 L259.5,233.5 L-0.5,233.5 Z " />
     </clipPath>
    </defs>
    <g clip-path="url(#CLIP2)">
     <g>
      <defs>
       <clipPath id="CLIP3">
        <path d="M0.25,0.25 L51.351737976,0.25 L51.351737976,14.288000107 L0.25,14.288000107 Z " />
       </clipPath>
      </defs>
      <g clip-path="url(#CLIP3)">
       <g>
        <g transform="matrix(1,0,0,1,1.075036168,30.287500381)">
         <text x="1" y="-18.881175995" class="f0">Method</text>
         <text x="1" y="-2.889374971" class="f0">s</text>
        </g>
       </g>
      </g>
      <defs>
       <clipPath id="CLIP4">
        <path d="M51.851737976,0.25 L102.953475952,0.25 L102.953475952,14.288000107 L51.851737976,14.288000107 Z " />
       </clipPath>
      </defs>
      <g clip-path="url(#CLIP4)">
       <g>
        <g transform="matrix(1,0,0,1,52.676773071,14.295700073)">
         <text x="1" y="-2.889374971" class="f0">R</text>
        </g>
       </g>
      </g>
      <defs>
       <clipPath id="CLIP5">
        <path d="M103.453475952,0.25 L154.555206299,0.25 L154.555206299,14.288000107 L103.453475952,14.288000107 Z " />
       </clipPath>
      </defs>
      <g clip-path="url(#CLIP5)">
       <g>
        <g transform="matrix(1,0,0,1,104.278511047,14.295700073)">
         <text x="1" y="-2.889374971" class="f0">P</text>
        </g>
       </g>
      </g>
      <defs>
       <clipPath id="CLIP6">
        <path d="M155.055206299,0.25 L206.156951904,0.25 L206.156951904,14.288000107 L155.055206299,14.288000107 Z " />
       </clipPath>
      </defs>
      <g clip-path="url(#CLIP6)">
       <g>
        <g transform="matrix(1,0,0,1,155.880249023,14.295700073)">
         <text x="1" y="-2.889374971" class="f0">F</text>
        </g>
       </g>
      </g>
      <defs>
       <clipPath id="CLIP7">
        <path d="M206.656951904,0.25 L257.75869751,0.25 L257.75869751,14.288000107 L206.656951904,14.288000107 Z " />
       </clipPath>
      </defs>
      <g clip-path="url(#CLIP7)">
       <g>
        <g transform="matrix(1,0,0,1,207.481994629,14.295700073)">
         <text x="1" y="-2.889374971" class="f0">FPS</text>
        </g>
       </g>
      </g>
      <defs>
       <clipPath id="CLIP8">
        <path d="M0.25,14.788000107 L51.351737976,14.788000107 L51.351737976,28.826000214 L0.25,28.826000214 Z " />
       </clipPath>
      </defs>
      <g clip-path="url(#CLIP8)">
       <g>
        <g transform="matrix(1,0,0,1,1.075036168,44.825500488)">
         <text x="1" y="-18.881175995" class="f0">SegLink</text>
         <text x="1" y="-2.889374971" class="f0">[26]</text>
        </g>
       </g>
      </g>
      <defs>
       <clipPath id="CLIP9">
        <path d="M51.851737976,14.788000107 L102.953475952,14.788000107 L102.953475952,28.826000214 L51.851737976,28.826000214 Z " />
       </clipPath>
      </defs>
      <g clip-path="url(#CLIP9)">
       <g>
        <g transform="matrix(1,0,0,1,52.676773071,28.83370018)">
         <text x="1" y="-2.889374971" class="f0">70.0</text>
        </g>
       </g>
      </g>
      <defs>
       <clipPath id="CLIP10">
        <path d="M103.453475952,14.788000107 L154.555206299,14.788000107 L154.555206299,28.826000214 L103.453475952,28.826000214 Z " />
       </clipPath>
      </defs>
      <g clip-path="url(#CLIP10)">
       <g>
        <g transform="matrix(1,0,0,1,104.278511047,28.83370018)">
         <text x="1" y="-2.889374971" class="f0">86.0</text>
        </g>
       </g>
      </g>
      <defs>
       <clipPath id="CLIP11">
        <path d="M155.055206299,14.788000107 L206.156951904,14.788000107 L206.156951904,28.826000214 L155.055206299,28.826000214 Z " />
       </clipPath>
      </defs>
      <g clip-path="url(#CLIP11)">
       <g>
        <g transform="matrix(1,0,0,1,155.880249023,28.83370018)">
         <text x="1" y="-2.889374971" class="f0">77.0</text>
        </g>
       </g>
      </g>
      <defs>
       <clipPath id="CLIP12">
        <path d="M206.656951904,14.788000107 L257.75869751,14.788000107 L257.75869751,28.826000214 L206.656951904,28.826000214 Z " />
       </clipPath>
      </defs>
      <g clip-path="url(#CLIP12)">
       <g>
        <g transform="matrix(1,0,0,1,207.481994629,28.83370018)">
         <text x="1" y="-2.889374971" class="f0">8.9</text>
        </g>
       </g>
      </g>
      <defs>
       <clipPath id="CLIP13">
        <path d="M0.25,29.326000214 L51.351737976,29.326000214 L51.351737976,43.363998413 L0.25,43.363998413 Z " />
       </clipPath>
      </defs>
      <g clip-path="url(#CLIP13)">
       <g>
        <g transform="matrix(1,0,0,1,1.075036168,59.363502502)">
         <text x="1" y="-18.881175995" class="f0">PixelLink</text>
         <text x="1" y="-2.889374971" class="f0">[4]</text>
        </g>
       </g>
      </g>
      <defs>
       <clipPath id="CLIP14">
        <path d="M51.851737976,29.326000214 L102.953475952,29.326000214 L102.953475952,43.363998413 L51.851737976,43.363998413 Z " />
       </clipPath>
      </defs>
      <g clip-path="url(#CLIP14)">
       <g>
        <g transform="matrix(1,0,0,1,52.676773071,43.371700287)">
         <text x="1" y="-2.889374971" class="f0">73.2</text>
        </g>
       </g>
      </g>
      <defs>
       <clipPath id="CLIP15">
        <path d="M103.453475952,29.326000214 L154.555206299,29.326000214 L154.555206299,43.363998413 L103.453475952,43.363998413 Z " />
       </clipPath>
      </defs>
      <g clip-path="url(#CLIP15)">
       <g>
        <g transform="matrix(1,0,0,1,104.278511047,43.371700287)">
         <text x="1" y="-2.889374971" class="f0">83.0</text>
        </g>
       </g>
      </g>
      <defs>
       <clipPath id="CLIP16">
        <path d="M155.055206299,29.326000214 L206.156951904,29.326000214 L206.156951904,43.363998413 L155.055206299,43.363998413 Z " />
       </clipPath>
      </defs>
      <g clip-path="url(#CLIP16)">
       <g>
        <g transform="matrix(1,0,0,1,155.880249023,43.371700287)">
         <text x="1" y="-2.889374971" class="f0">77.8</text>
        </g>
       </g>
      </g>
      <defs>
       <clipPath id="CLIP17">
        <path d="M0.25,43.863998413 L51.351737976,43.863998413 L51.351737976,57.902000427 L0.25,57.902000427 Z " />
       </clipPath>
      </defs>
      <g clip-path="url(#CLIP17)">
       <g>
        <g transform="matrix(1,0,0,1,1.075036168,73.901504517)">
         <text x="1" y="-18.881175995" class="f0">TextSna</text>
         <text x="1" y="-2.889374971" class="f0">ke</text>
         <text x="13.274453163" y="-2.889374971" class="f0"> </text>
         <text x="16.541172028" y="-2.889374971" class="f0">[18]</text>
        </g>
       </g>
      </g>
      <defs>
       <clipPath id="CLIP18">
        <path d="M51.851737976,43.863998413 L102.953475952,43.863998413 L102.953475952,57.902000427 L51.851737976,57.902000427 Z " />
       </clipPath>
      </defs>
      <g clip-path="url(#CLIP18)">
       <g>
        <g transform="matrix(1,0,0,1,52.676773071,57.909698486)">
         <text x="1" y="-2.889374971" class="f0">73.9</text>
        </g>
       </g>
      </g>
      <defs>
       <clipPath id="CLIP19">
        <path d="M103.453475952,43.863998413 L154.555206299,43.863998413 L154.555206299,57.902000427 L103.453475952,57.902000427 Z " />
       </clipPath>
      </defs>
      <g clip-path="url(#CLIP19)">
       <g>
        <g transform="matrix(1,0,0,1,104.278511047,57.909698486)">
         <text x="1" y="-2.889374971" class="f0">83.2</text>
        </g>
       </g>
      </g>
      <defs>
       <clipPath id="CLIP20">
        <path d="M155.055206299,43.863998413 L206.156951904,43.863998413 L206.156951904,57.902000427 L155.055206299,57.902000427 Z " />
       </clipPath>
      </defs>
      <g clip-path="url(#CLIP20)">
       <g>
        <g transform="matrix(1,0,0,1,155.880249023,57.909698486)">
         <text x="1" y="-2.889374971" class="f0">78.3</text>
        </g>
       </g>
      </g>
      <defs>
       <clipPath id="CLIP21">
        <path d="M206.656951904,43.863998413 L257.75869751,43.863998413 L257.75869751,57.902000427 L206.656951904,57.902000427 Z " />
       </clipPath>
      </defs>
      <g clip-path="url(#CLIP21)">
       <g>
        <g transform="matrix(1,0,0,1,207.481994629,57.909698486)">
         <text x="1" y="-2.889374971" class="f0">1.1</text>
        </g>
       </g>
      </g>
      <defs>
       <clipPath id="CLIP22">
        <path d="M0.25,58.402000427 L51.351737976,58.402000427 L51.351737976,72.440002441 L0.25,72.440002441 Z " />
       </clipPath>
      </defs>
      <g clip-path="url(#CLIP22)">
       <g>
        <g transform="matrix(1,0,0,1,1.075036168,88.439498901)">
         <text x="1" y="-18.881175995" class="f0">TextFiel</text>
         <text x="1" y="-2.889374971" class="f0">d</text>
         <text x="8.061717987" y="-2.889374971" class="f0"> </text>
         <text x="11.328436852" y="-2.889374971" class="f0">[37]</text>
        </g>
       </g>
      </g>
      <defs>
       <clipPath id="CLIP23">
        <path d="M51.851737976,58.402000427 L102.953475952,58.402000427 L102.953475952,72.440002441 L51.851737976,72.440002441 Z " />
       </clipPath>
      </defs>
      <g clip-path="url(#CLIP23)">
       <g>
        <g transform="matrix(1,0,0,1,52.676773071,72.4477005)">
         <text x="1" y="-2.889374971" class="f0">75.9</text>
        </g>
       </g>
      </g>
      <defs>
       <clipPath id="CLIP24">
        <path d="M103.453475952,58.402000427 L154.555206299,58.402000427 L154.555206299,72.440002441 L103.453475952,72.440002441 Z " />
       </clipPath>
      </defs>
      <g clip-path="url(#CLIP24)">
       <g>
        <g transform="matrix(1,0,0,1,104.278511047,72.4477005)">
         <text x="1" y="-2.889374971" class="f0">87.4</text>
        </g>
       </g>
      </g>
      <defs>
       <clipPath id="CLIP25">
        <path d="M155.055206299,58.402000427 L206.156951904,58.402000427 L206.156951904,72.440002441 L155.055206299,72.440002441 Z " />
       </clipPath>
      </defs>
      <g clip-path="url(#CLIP25)">
       <g>
        <g transform="matrix(1,0,0,1,155.880249023,72.4477005)">
         <text x="1" y="-2.889374971" class="f0">81.3</text>
        </g>
       </g>
      </g>
      <defs>
       <clipPath id="CLIP26">
        <path d="M206.656951904,58.402000427 L257.75869751,58.402000427 L257.75869751,72.440002441 L206.656951904,72.440002441 Z " />
       </clipPath>
      </defs>
      <g clip-path="url(#CLIP26)">
       <g>
        <g transform="matrix(1,0,0,1,207.481994629,72.4477005)">
         <text x="1" y="-2.889374971" class="f0">5.2</text>
        </g>
       </g>
      </g>
      <defs>
       <clipPath id="CLIP27">
        <path d="M0.25,72.940002441 L51.351737976,72.940002441 L51.351737976,86.978004456 L0.25,86.978004456 Z " />
       </clipPath>
      </defs>
      <g clip-path="url(#CLIP27)">
       <g>
        <g transform="matrix(1,0,0,1,1.075036168,86.985702515)">
         <text x="1" y="-2.889374971" class="f0">MSR[38]</text>
        </g>
       </g>
      </g>
      <defs>
       <clipPath id="CLIP28">
        <path d="M51.851737976,72.940002441 L102.953475952,72.940002441 L102.953475952,86.978004456 L51.851737976,86.978004456 Z " />
       </clipPath>
      </defs>
      <g clip-path="url(#CLIP28)">
       <g>
        <g transform="matrix(1,0,0,1,52.676773071,86.985702515)">
         <text x="1" y="-2.889374971" class="f0">76.7</text>
        </g>
       </g>
      </g>
      <defs>
       <clipPath id="CLIP29">
        <path d="M103.453475952,72.940002441 L154.555206299,72.940002441 L154.555206299,86.978004456 L103.453475952,86.978004456 Z " />
       </clipPath>
      </defs>
      <g clip-path="url(#CLIP29)">
       <g>
        <g transform="matrix(1,0,0,1,104.278511047,86.985702515)">
         <text x="1" y="-2.889374971" class="f0">87.4</text>
        </g>
       </g>
      </g>
      <defs>
       <clipPath id="CLIP30">
        <path d="M155.055206299,72.940002441 L206.156951904,72.940002441 L206.156951904,86.978004456 L155.055206299,86.978004456 Z " />
       </clipPath>
      </defs>
      <g clip-path="url(#CLIP30)">
       <g>
        <g transform="matrix(1,0,0,1,155.880249023,86.985702515)">
         <text x="1" y="-2.889374971" class="f0">81.7</text>
        </g>
       </g>
      </g>
      <defs>
       <clipPath id="CLIP31">
        <path d="M0.25,87.477996826 L51.351737976,87.477996826 L51.351737976,101.51599884 L0.25,101.51599884 Z " />
       </clipPath>
      </defs>
      <g clip-path="url(#CLIP31)">
       <g>
        <g transform="matrix(1,0,0,1,1.075036168,101.523696899)">
         <text x="1" y="-2.889374971" class="f0">FTSN</text>
         <text x="28.54070282" y="-2.889374971" class="f0"> </text>
         <text x="31.807420731" y="-2.889374971" class="f0">[3]</text>
        </g>
       </g>
      </g>
      <defs>
       <clipPath id="CLIP32">
        <path d="M51.851737976,87.477996826 L102.953475952,87.477996826 L102.953475952,101.51599884 L51.851737976,101.51599884 Z " />
       </clipPath>
      </defs>
      <g clip-path="url(#CLIP32)">
       <g>
        <g transform="matrix(1,0,0,1,52.676773071,101.523696899)">
         <text x="1" y="-2.889374971" class="f0">77.1</text>
        </g>
       </g>
      </g>
      <defs>
       <clipPath id="CLIP33">
        <path d="M103.453475952,87.477996826 L154.555206299,87.477996826 L154.555206299,101.51599884 L103.453475952,101.51599884 Z " />
       </clipPath>
      </defs>
      <g clip-path="url(#CLIP33)">
       <g>
        <g transform="matrix(1,0,0,1,104.278511047,101.523696899)">
         <text x="1" y="-2.889374971" class="f0">87.6</text>
        </g>
       </g>
      </g>
      <defs>
       <clipPath id="CLIP34">
        <path d="M155.055206299,87.477996826 L206.156951904,87.477996826 L206.156951904,101.51599884 L155.055206299,101.51599884 Z " />
       </clipPath>
      </defs>
      <g clip-path="url(#CLIP34)">
       <g>
        <g transform="matrix(1,0,0,1,155.880249023,101.523696899)">
         <text x="1" y="-2.889374971" class="f0">82.0</text>
        </g>
       </g>
      </g>
      <defs>
       <clipPath id="CLIP35">
        <path d="M0.25,102.01599884 L51.351737976,102.01599884 L51.351737976,116.054000854 L0.25,116.054000854 Z " />
       </clipPath>
      </defs>
      <g clip-path="url(#CLIP35)">
       <g>
        <g transform="matrix(1,0,0,1,1.075036168,116.061698914)">
         <text x="1" y="-2.889374971" class="f0">LSE[30]</text>
        </g>
       </g>
      </g>
      <defs>
       <clipPath id="CLIP36">
        <path d="M51.851737976,102.01599884 L102.953475952,102.01599884 L102.953475952,116.054000854 L51.851737976,116.054000854 Z " />
       </clipPath>
      </defs>
      <g clip-path="url(#CLIP36)">
       <g>
        <g transform="matrix(1,0,0,1,52.676773071,116.061698914)">
         <text x="1" y="-2.889374971" class="f0">81.7</text>
        </g>
       </g>
      </g>
      <defs>
       <clipPath id="CLIP37">
        <path d="M103.453475952,102.01599884 L154.555206299,102.01599884 L154.555206299,116.054000854 L103.453475952,116.054000854 Z " />
       </clipPath>
      </defs>
      <g clip-path="url(#CLIP37)">
       <g>
        <g transform="matrix(1,0,0,1,104.278511047,116.061698914)">
         <text x="1" y="-2.889374971" class="f0">84.2</text>
        </g>
       </g>
      </g>
      <defs>
       <clipPath id="CLIP38">
        <path d="M155.055206299,102.01599884 L206.156951904,102.01599884 L206.156951904,116.054000854 L155.055206299,116.054000854 Z " />
       </clipPath>
      </defs>
      <g clip-path="url(#CLIP38)">
       <g>
        <g transform="matrix(1,0,0,1,155.880249023,116.061698914)">
         <text x="1" y="-2.889374971" class="f0">82.9</text>
        </g>
       </g>
      </g>
      <defs>
       <clipPath id="CLIP39">
        <path d="M0.25,116.554000854 L51.351737976,116.554000854 L51.351737976,130.591995239 L0.25,130.591995239 Z " />
       </clipPath>
      </defs>
      <g clip-path="url(#CLIP39)">
       <g>
        <g transform="matrix(1,0,0,1,1.075036168,146.591506958)">
         <text x="1" y="-18.881175995" class="f0">CRAFT</text>
         <text x="1" y="-2.889374971" class="f0">[2]</text>
        </g>
       </g>
      </g>
      <defs>
       <clipPath id="CLIP40">
        <path d="M51.851737976,116.554000854 L102.953475952,116.554000854 L102.953475952,130.591995239 L51.851737976,130.591995239 Z " />
       </clipPath>
      </defs>
      <g clip-path="url(#CLIP40)">
       <g>
        <g transform="matrix(1,0,0,1,52.676773071,130.599700928)">
         <text x="1" y="-2.889374971" class="f0">78.2</text>
        </g>
       </g>
      </g>
      <defs>
       <clipPath id="CLIP41">
        <path d="M103.453475952,116.554000854 L154.555206299,116.554000854 L154.555206299,130.591995239 L103.453475952,130.591995239 Z " />
       </clipPath>
      </defs>
      <g clip-path="url(#CLIP41)">
       <g>
        <g transform="matrix(1,0,0,1,104.278511047,130.599700928)">
         <text x="1" y="-2.889374971" class="f0">88.2</text>
        </g>
       </g>
      </g>
      <defs>
       <clipPath id="CLIP42">
        <path d="M155.055206299,116.554000854 L206.156951904,116.554000854 L206.156951904,130.591995239 L155.055206299,130.591995239 Z " />
       </clipPath>
      </defs>
      <g clip-path="url(#CLIP42)">
       <g>
        <g transform="matrix(1,0,0,1,155.880249023,130.599700928)">
         <text x="1" y="-2.889374971" class="f0">82.9</text>
        </g>
       </g>
      </g>
      <defs>
       <clipPath id="CLIP43">
        <path d="M206.656951904,116.554000854 L257.75869751,116.554000854 L257.75869751,130.591995239 L206.656951904,130.591995239 Z " />
       </clipPath>
      </defs>
      <g clip-path="url(#CLIP43)">
       <g>
        <g transform="matrix(1,0,0,1,207.481994629,130.599700928)">
         <text x="1" y="-2.889374971" class="f0">8.6</text>
        </g>
       </g>
      </g>
      <defs>
       <clipPath id="CLIP44">
        <path d="M0.25,131.091995239 L51.351737976,131.091995239 L51.351737976,145.129989624 L0.25,145.129989624 Z " />
       </clipPath>
      </defs>
      <g clip-path="url(#CLIP44)">
       <g>
        <g transform="matrix(1,0,0,1,1.075036168,161.129501343)">
         <text x="1" y="-18.881175995" class="f0">MCN[16</text>
         <text x="1" y="-2.889374971" class="f0">]</text>
        </g>
       </g>
      </g>
      <defs>
       <clipPath id="CLIP45">
        <path d="M51.851737976,131.091995239 L102.953475952,131.091995239 L102.953475952,145.129989624 L51.851737976,145.129989624 Z " />
       </clipPath>
      </defs>
      <g clip-path="url(#CLIP45)">
       <g>
        <g transform="matrix(1,0,0,1,52.676773071,145.137710571)">
         <text x="1" y="-2.889374971" class="f0">79</text>
        </g>
       </g>
      </g>
      <defs>
       <clipPath id="CLIP46">
        <path d="M103.453475952,131.091995239 L154.555206299,131.091995239 L154.555206299,145.129989624 L103.453475952,145.129989624 Z " />
       </clipPath>
      </defs>
      <g clip-path="url(#CLIP46)">
       <g>
        <g transform="matrix(1,0,0,1,104.278511047,145.137710571)">
         <text x="1" y="-2.889374971" class="f0">88</text>
        </g>
       </g>
      </g>
      <defs>
       <clipPath id="CLIP47">
        <path d="M155.055206299,131.091995239 L206.156951904,131.091995239 L206.156951904,145.129989624 L155.055206299,145.129989624 Z " />
       </clipPath>
      </defs>
      <g clip-path="url(#CLIP47)">
       <g>
        <g transform="matrix(1,0,0,1,155.880249023,145.137710571)">
         <text x="1" y="-2.889374971" class="f0">83</text>
        </g>
       </g>
      </g>
      <defs>
       <clipPath id="CLIP48">
        <path d="M0.25,145.630004883 L51.351737976,145.630004883 L51.351737976,159.667999268 L0.25,159.667999268 Z " />
       </clipPath>
      </defs>
      <g clip-path="url(#CLIP48)">
       <g>
        <g transform="matrix(1,0,0,1,1.075036168,175.667510986)">
         <text x="1" y="-18.881175995" class="f0">ATRR[35</text>
         <text x="1" y="-2.889374971" class="f0">]</text>
        </g>
       </g>
      </g>
      <defs>
       <clipPath id="CLIP49">
        <path d="M51.851737976,145.630004883 L102.953475952,145.630004883 L102.953475952,159.667999268 L51.851737976,159.667999268 Z " />
       </clipPath>
      </defs>
      <g clip-path="url(#CLIP49)">
       <g>
        <g transform="matrix(1,0,0,1,52.676773071,159.675720215)">
         <text x="1" y="-2.889374971" class="f0">82.1</text>
        </g>
       </g>
      </g>
      <defs>
       <clipPath id="CLIP50">
        <path d="M103.453475952,145.630004883 L154.555206299,145.630004883 L154.555206299,159.667999268 L103.453475952,159.667999268 Z " />
       </clipPath>
      </defs>
      <g clip-path="url(#CLIP50)">
       <g>
        <g transform="matrix(1,0,0,1,104.278511047,159.675720215)">
         <text x="1" y="-2.889374971" class="f0">85.2</text>
        </g>
       </g>
      </g>
      <defs>
       <clipPath id="CLIP51">
        <path d="M155.055206299,145.630004883 L206.156951904,145.630004883 L206.156951904,159.667999268 L155.055206299,159.667999268 Z " />
       </clipPath>
      </defs>
      <g clip-path="url(#CLIP51)">
       <g>
        <g transform="matrix(1,0,0,1,155.880249023,159.675720215)">
         <text x="1" y="-2.889374971" class="f0">83.6</text>
        </g>
       </g>
      </g>
      <defs>
       <clipPath id="CLIP52">
        <path d="M0.25,160.167999268 L51.351737976,160.167999268 L51.351737976,174.205993652 L0.25,174.205993652 Z " />
       </clipPath>
      </defs>
      <g clip-path="url(#CLIP52)">
       <g>
        <g transform="matrix(1,0,0,1,1.075036168,174.2137146)">
         <text x="1" y="-2.889374971" class="f0">PAN[34]</text>
        </g>
       </g>
      </g>
      <defs>
       <clipPath id="CLIP53">
        <path d="M51.851737976,160.167999268 L102.953475952,160.167999268 L102.953475952,174.205993652 L51.851737976,174.205993652 Z " />
       </clipPath>
      </defs>
      <g clip-path="url(#CLIP53)">
       <g>
        <g transform="matrix(1,0,0,1,52.676773071,174.2137146)">
         <text x="1" y="-2.889374971" class="f0">83.8</text>
        </g>
       </g>
      </g>
      <defs>
       <clipPath id="CLIP54">
        <path d="M103.453475952,160.167999268 L154.555206299,160.167999268 L154.555206299,174.205993652 L103.453475952,174.205993652 Z " />
       </clipPath>
      </defs>
      <g clip-path="url(#CLIP54)">
       <g>
        <g transform="matrix(1,0,0,1,104.278511047,174.2137146)">
         <text x="1" y="-2.889374971" class="f0">84.4</text>
        </g>
       </g>
      </g>
      <defs>
       <clipPath id="CLIP55">
        <path d="M155.055206299,160.167999268 L206.156951904,160.167999268 L206.156951904,174.205993652 L155.055206299,174.205993652 Z " />
       </clipPath>
      </defs>
      <g clip-path="url(#CLIP55)">
       <g>
        <g transform="matrix(1,0,0,1,155.880249023,174.2137146)">
         <text x="1" y="-2.889374971" class="f0">84.1</text>
        </g>
       </g>
      </g>
      <defs>
       <clipPath id="CLIP56">
        <path d="M206.656951904,160.167999268 L257.75869751,160.167999268 L257.75869751,174.205993652 L206.656951904,174.205993652 Z " />
       </clipPath>
      </defs>
      <g clip-path="url(#CLIP56)">
       <g>
        <g transform="matrix(1,0,0,1,207.481994629,174.2137146)">
         <text x="1" y="-2.889374971" class="f0">30.2</text>
        </g>
       </g>
      </g>
      <defs>
       <clipPath id="CLIP57">
        <path d="M0.25,174.705993652 L51.351737976,174.705993652 L51.351737976,188.743988037 L0.25,188.743988037 Z " />
       </clipPath>
      </defs>
      <g clip-path="url(#CLIP57)">
       <g>
        <g transform="matrix(1,0,0,1,1.075036168,188.751708984)">
         <text x="1" y="-2.889374971" class="f0">DB[12]</text>
        </g>
       </g>
      </g>
      <defs>
       <clipPath id="CLIP58">
        <path d="M51.851737976,174.705993652 L102.953475952,174.705993652 L102.953475952,188.743988037 L51.851737976,188.743988037 Z " />
       </clipPath>
      </defs>
      <g clip-path="url(#CLIP58)">
       <g>
        <g transform="matrix(1,0,0,1,52.676773071,188.751708984)">
         <text x="1" y="-2.889374971" class="f0">79.2</text>
        </g>
       </g>
      </g>
      <defs>
       <clipPath id="CLIP59">
        <path d="M103.453475952,174.705993652 L154.555206299,174.705993652 L154.555206299,188.743988037 L103.453475952,188.743988037 Z " />
       </clipPath>
      </defs>
      <g clip-path="url(#CLIP59)">
       <g>
        <g transform="matrix(1,0,0,1,104.278511047,188.751708984)">
         <text x="1" y="-2.889374971" class="f0">91.5</text>
        </g>
       </g>
      </g>
      <defs>
       <clipPath id="CLIP60">
        <path d="M155.055206299,174.705993652 L206.156951904,174.705993652 L206.156951904,188.743988037 L155.055206299,188.743988037 Z " />
       </clipPath>
      </defs>
      <g clip-path="url(#CLIP60)">
       <g>
        <g transform="matrix(1,0,0,1,155.880249023,188.751708984)">
         <text x="1" y="-2.889374971" class="f0">84.9</text>
        </g>
       </g>
      </g>
      <defs>
       <clipPath id="CLIP61">
        <path d="M206.656951904,174.705993652 L257.75869751,174.705993652 L257.75869751,188.743988037 L206.656951904,188.743988037 Z " />
       </clipPath>
      </defs>
      <g clip-path="url(#CLIP61)">
       <g>
        <g transform="matrix(1,0,0,1,207.481994629,188.751708984)">
         <text x="1" y="-2.889374971" class="f0">32.0</text>
        </g>
       </g>
      </g>
      <defs>
       <clipPath id="CLIP62">
        <path d="M0.25,189.244003296 L51.351737976,189.244003296 L51.351737976,203.281997681 L0.25,203.281997681 Z " />
       </clipPath>
      </defs>
      <g clip-path="url(#CLIP62)">
       <g>
        <g transform="matrix(1,0,0,1,1.075036168,219.281509399)">
         <text x="1" y="-18.881175995" class="f0">DRRG[4</text>
         <text x="1" y="-2.889374971" class="f0">1]</text>
        </g>
       </g>
      </g>
      <defs>
       <clipPath id="CLIP63">
        <path d="M51.851737976,189.244003296 L102.953475952,189.244003296 L102.953475952,203.281997681 L51.851737976,203.281997681 Z " />
       </clipPath>
      </defs>
      <g clip-path="url(#CLIP63)">
       <g>
        <g transform="matrix(1,0,0,1,52.676773071,203.289718628)">
         <text x="1" y="-2.889374971" class="f0">82.30</text>
        </g>
       </g>
      </g>
      <defs>
       <clipPath id="CLIP64">
        <path d="M103.453475952,189.244003296 L154.555206299,189.244003296 L154.555206299,203.281997681 L103.453475952,203.281997681 Z " />
       </clipPath>
      </defs>
      <g clip-path="url(#CLIP64)">
       <g>
        <g transform="matrix(1,0,0,1,104.278511047,203.289718628)">
         <text x="1" y="-2.889374971" class="f0">88.05</text>
        </g>
       </g>
      </g>
      <defs>
       <clipPath id="CLIP65">
        <path d="M155.055206299,189.244003296 L206.156951904,189.244003296 L206.156951904,203.281997681 L155.055206299,203.281997681 Z " />
       </clipPath>
      </defs>
      <g clip-path="url(#CLIP65)">
       <g>
        <g transform="matrix(1,0,0,1,155.880249023,203.289718628)">
         <text x="1" y="-2.889374971" class="f0">85.08</text>
        </g>
       </g>
      </g>
      <defs>
       <clipPath id="CLIP66">
        <path d="M0.25,203.781997681 L51.351737976,203.781997681 L51.351737976,217.819992065 L0.25,217.819992065 Z " />
       </clipPath>
      </defs>
      <g clip-path="url(#CLIP66)">
       <g>
        <g transform="matrix(1,0,0,1,1.075036168,249.811309814)">
         <text x="1" y="-34.872974396" class="f0">Ours</text>
         <text x="1" y="-18.881175995" class="f0">(SynText</text>
         <text x="1" y="-2.889374971" class="f0">)</text>
        </g>
       </g>
      </g>
      <defs>
       <clipPath id="CLIP67">
        <path d="M51.851737976,203.781997681 L102.953475952,203.781997681 L102.953475952,217.819992065 L51.851737976,217.819992065 Z " />
       </clipPath>
      </defs>
      <g clip-path="url(#CLIP67)">
       <g>
        <g transform="matrix(1,0,0,1,52.676773071,217.827713013)">
         <text x="1" y="-2.889374971" class="f0">80.68</text>
        </g>
       </g>
      </g>
      <defs>
       <clipPath id="CLIP68">
        <path d="M103.453475952,203.781997681 L154.555206299,203.781997681 L154.555206299,217.819992065 L103.453475952,217.819992065 Z " />
       </clipPath>
      </defs>
      <g clip-path="url(#CLIP68)">
       <g>
        <g transform="matrix(1,0,0,1,104.278511047,217.827713013)">
         <text x="1" y="-2.889374971" class="f0">85.40</text>
        </g>
       </g>
      </g>
      <defs>
       <clipPath id="CLIP69">
        <path d="M155.055206299,203.781997681 L206.156951904,203.781997681 L206.156951904,217.819992065 L155.055206299,217.819992065 Z " />
       </clipPath>
      </defs>
      <g clip-path="url(#CLIP69)">
       <g>
        <g transform="matrix(1,0,0,1,155.880249023,217.827713013)">
         <text x="1" y="-2.889374971" class="f0">82.97</text>
        </g>
       </g>
      </g>
      <defs>
       <clipPath id="CLIP70">
        <path d="M206.656951904,203.781997681 L257.75869751,203.781997681 L257.75869751,217.819992065 L206.656951904,217.819992065 Z " />
       </clipPath>
      </defs>
      <g clip-path="url(#CLIP70)">
       <g>
        <g transform="matrix(1,0,0,1,207.481994629,217.827713013)">
         <text x="1" y="-2.889374971" class="f0">12.68</text>
        </g>
       </g>
      </g>
      <defs>
       <clipPath id="CLIP71">
        <path d="M0.25,218.320007324 L51.351737976,218.320007324 L51.351737976,232.358001709 L0.25,232.358001709 Z " />
       </clipPath>
      </defs>
      <g clip-path="url(#CLIP71)">
       <g>
        <g transform="matrix(1,0,0,1,1.075036168,264.349304199)">
         <text x="1" y="-34.872974396" class="f0">Ours</text>
         <text x="1" y="-18.881175995" class="f0">(MLT-</text>
         <text x="1" y="-2.889374971" class="f0">17)</text>
        </g>
       </g>
      </g>
      <defs>
       <clipPath id="CLIP72">
        <path d="M51.851737976,218.320007324 L102.953475952,218.320007324 L102.953475952,232.358001709 L51.851737976,232.358001709 Z " />
       </clipPath>
      </defs>
      <g clip-path="url(#CLIP72)">
       <g>
        <g transform="matrix(1,0,0,1,52.676773071,232.365722656)">
         <text x="1" y="-2.889374971" class="f0">84.54</text>
        </g>
       </g>
      </g>
      <defs>
       <clipPath id="CLIP73">
        <path d="M103.453475952,218.320007324 L154.555206299,218.320007324 L154.555206299,232.358001709 L103.453475952,232.358001709 Z " />
       </clipPath>
      </defs>
      <g clip-path="url(#CLIP73)">
       <g>
        <g transform="matrix(1,0,0,1,104.278511047,232.365722656)">
         <text x="1" y="-2.889374971" class="f0">86.62</text>
        </g>
       </g>
      </g>
      <defs>
       <clipPath id="CLIP74">
        <path d="M155.055206299,218.320007324 L206.156951904,218.320007324 L206.156951904,232.358001709 L155.055206299,232.358001709 Z " />
       </clipPath>
      </defs>
      <g clip-path="url(#CLIP74)">
       <g>
        <g transform="matrix(1,0,0,1,155.880249023,232.365722656)">
         <text x="1" y="-2.889374971" class="f0">85.57</text>
        </g>
       </g>
      </g>
      <defs>
       <clipPath id="CLIP75">
        <path d="M206.656951904,218.320007324 L257.75869751,218.320007324 L257.75869751,232.358001709 L206.656951904,232.358001709 Z " />
       </clipPath>
      </defs>
      <g clip-path="url(#CLIP75)">
       <g>
        <g transform="matrix(1,0,0,1,207.481994629,232.365722656)">
         <text x="1" y="-2.889374971" class="f0">12.31</text>
        </g>
       </g>
      </g>
     </g>
    </g>
    <defs>
     <clipPath id="CLIP76">
      <path d="M-0.5,-0.5 L259.5,-0.5 L259.5,233.5 L-0.5,233.5 Z " />
     </clipPath>
    </defs>
    <g clip-path="url(#CLIP76)">
     <g />
    </g>
   </g>
   <g />
   <g />
   <g />
   <g>
    <g>
     <g />
     <g shape-rendering="crispEdges" />
    </g>
    <g>
     <g />
    </g>
    <g>
     <g />
    </g>
   </g>
   <g>
    <text x="10" y="10" class="f1">Evaluation Only. Created with Aspose.Cells for Python via Java.Copyright 2003 - 2023 Aspose Pty Ltd.</text>
   </g>
  </g>
 </g>
 <defs />
 <defs>
  <style type="text/css">
   <![CDATA[
   
.f0
{
font-family:Microsoft YaHei;
font-size:11.039999962px;
fill:#000000;
}

.f1
{
font-family:Arial;
font-size:10px;
fill:#FF0000;
}

   
   ]]></style>
 </defs>
</svg>
