<?xml version="1.0" encoding="UTF-8" standalone="yes"?>
<svg xmlns="http://www.w3.org/2000/svg" xmlns:xlink="http://www.w3.org/1999/xlink" width="612pt" height="792pt">
 <g id="SFixTitle" />
 <g id="SContent">
  <g transform="scale(1.33333)">
   <rect width="100%" height="100%" fill="white" />
   <g>
    <g>
     <g />
     <g shape-rendering="crispEdges" />
    </g>
    <g>
     <g />
    </g>
    <g>
     <g />
    </g>
   </g>
   <g transform="matrix(1,0,0,1,50.400001526,54)">
    <defs>
     <clipPath id="CLIP0">
      <path d="M-0.5,-0.5 L362.5,-0.5 L362.5,117.5 L-0.5,117.5 Z " />
     </clipPath>
    </defs>
    <g clip-path="url(#CLIP0)">
     <g />
     <g shape-rendering="crispEdges" />
    </g>
    <defs>
     <clipPath id="CLIP1">
      <path d="M-0.5,-1.453799963 L362.5,-1.453799963 L362.5,118.546203613 L-0.5,118.546203613 Z " />
     </clipPath>
    </defs>
    <g clip-path="url(#CLIP1)">
     <g>
      <g />
     </g>
    </g>
    <defs>
     <clipPath id="CLIP2">
      <path d="M-0.5,-0.5 L362.5,-0.5 L362.5,117.5 L-0.5,117.5 Z " />
     </clipPath>
    </defs>
    <g clip-path="url(#CLIP2)">
     <g>
      <defs>
       <clipPath id="CLIP3">
        <path d="M51.851737976,0.25 L102.953475952,0.25 L102.953475952,14.288000107 L51.851737976,14.288000107 Z " />
       </clipPath>
      </defs>
      <g clip-path="url(#CLIP3)">
       <g>
        <g transform="matrix(1,0,0,1,52.676773071,14.295700073)">
         <text x="1" y="-2.889374971" class="f0">2016</text>
        </g>
       </g>
      </g>
      <defs>
       <clipPath id="CLIP4">
        <path d="M103.453475952,0.25 L154.555206299,0.25 L154.555206299,14.288000107 L103.453475952,14.288000107 Z " />
       </clipPath>
      </defs>
      <g clip-path="url(#CLIP4)">
       <g>
        <g transform="matrix(1,0,0,1,104.278511047,14.295700073)">
         <text x="1" y="-2.889374971" class="f0">2017</text>
        </g>
       </g>
      </g>
      <defs>
       <clipPath id="CLIP5">
        <path d="M155.055206299,0.25 L206.156951904,0.25 L206.156951904,14.288000107 L155.055206299,14.288000107 Z " />
       </clipPath>
      </defs>
      <g clip-path="url(#CLIP5)">
       <g>
        <g transform="matrix(1,0,0,1,155.880249023,14.295700073)">
         <text x="1" y="-2.889374971" class="f0">2018E</text>
        </g>
       </g>
      </g>
      <defs>
       <clipPath id="CLIP6">
        <path d="M206.656951904,0.25 L257.75869751,0.25 L257.75869751,14.288000107 L206.656951904,14.288000107 Z " />
       </clipPath>
      </defs>
      <g clip-path="url(#CLIP6)">
       <g>
        <g transform="matrix(1,0,0,1,207.481994629,14.295700073)">
         <text x="1" y="-2.889374971" class="f0">2019E</text>
        </g>
       </g>
      </g>
      <defs>
       <clipPath id="CLIP7">
        <path d="M258.258666992,0.25 L360.962158203,0.25 L360.962158203,14.288000107 L258.258666992,14.288000107 Z " />
       </clipPath>
      </defs>
      <g clip-path="url(#CLIP7)">
       <g>
        <g transform="matrix(1,0,0,1,259.083709717,14.295700073)">
         <text x="1" y="-2.889374971" class="f0">2020E</text>
        </g>
       </g>
      </g>
      <defs>
       <clipPath id="CLIP8">
        <path d="M0.25,14.788000107 L51.351737976,14.788000107 L51.351737976,28.826000214 L0.25,28.826000214 Z " />
       </clipPath>
      </defs>
      <g clip-path="url(#CLIP8)">
       <g>
        <g transform="matrix(1,0,0,1,1.075036168,60.817302704)">
         <text x="1" y="-34.872974396" class="f0">营</text>
         <text x="12.039999962" y="-34.872974396" class="f0">业</text>
         <text x="23.079999924" y="-34.872974396" class="f0">收</text>
         <text x="34.119998932" y="-34.872974396" class="f0">入</text>
         <text x="1" y="-18.881175995" class="f0">（</text>
         <text x="12.039999962" y="-18.881175995" class="f0">百</text>
         <text x="23.079999924" y="-18.881175995" class="f0">万</text>
         <text x="34.119998932" y="-18.881175995" class="f0">元</text>
         <text x="1" y="-2.889374971" class="f0">）</text>
        </g>
       </g>
      </g>
      <defs>
       <clipPath id="CLIP9">
        <path d="M51.851737976,14.788000107 L102.953475952,14.788000107 L102.953475952,28.826000214 L51.851737976,28.826000214 Z " />
       </clipPath>
      </defs>
      <g clip-path="url(#CLIP9)">
       <g>
        <g transform="matrix(1,0,0,1,52.676773071,28.83370018)">
         <text x="1" y="-2.889374971" class="f0">119</text>
        </g>
       </g>
      </g>
      <defs>
       <clipPath id="CLIP10">
        <path d="M103.453475952,14.788000107 L154.555206299,14.788000107 L154.555206299,28.826000214 L103.453475952,28.826000214 Z " />
       </clipPath>
      </defs>
      <g clip-path="url(#CLIP10)">
       <g>
        <g transform="matrix(1,0,0,1,104.278511047,28.83370018)">
         <text x="1" y="-2.889374971" class="f0">126</text>
        </g>
       </g>
      </g>
      <defs>
       <clipPath id="CLIP11">
        <path d="M155.055206299,14.788000107 L206.156951904,14.788000107 L206.156951904,28.826000214 L155.055206299,28.826000214 Z " />
       </clipPath>
      </defs>
      <g clip-path="url(#CLIP11)">
       <g>
        <g transform="matrix(1,0,0,1,155.880249023,28.83370018)">
         <text x="1" y="-2.889374971" class="f0">128</text>
        </g>
       </g>
      </g>
      <defs>
       <clipPath id="CLIP12">
        <path d="M206.656951904,14.788000107 L257.75869751,14.788000107 L257.75869751,28.826000214 L206.656951904,28.826000214 Z " />
       </clipPath>
      </defs>
      <g clip-path="url(#CLIP12)">
       <g>
        <g transform="matrix(1,0,0,1,207.481994629,28.83370018)">
         <text x="1" y="-2.889374971" class="f0">141</text>
        </g>
       </g>
      </g>
      <defs>
       <clipPath id="CLIP13">
        <path d="M258.258666992,14.788000107 L309.360412598,14.788000107 L309.360412598,28.826000214 L258.258666992,28.826000214 Z " />
       </clipPath>
      </defs>
      <g clip-path="url(#CLIP13)">
       <g>
        <g transform="matrix(1,0,0,1,259.083709717,28.83370018)">
         <text x="1" y="-2.889374971" class="f0">161</text>
        </g>
       </g>
      </g>
      <defs>
       <clipPath id="CLIP14">
        <path d="M0.25,29.326000214 L51.351737976,29.326000214 L51.351737976,43.363998413 L0.25,43.363998413 Z " />
       </clipPath>
      </defs>
      <g clip-path="url(#CLIP14)">
       <g>
        <g transform="matrix(1,0,0,1,1.075036168,59.363502502)">
         <text x="1" y="-18.881175995" class="f0">增</text>
         <text x="12.039999962" y="-18.881175995" class="f0">长</text>
         <text x="23.079999924" y="-18.881175995" class="f0">率</text>
         <text x="1" y="-2.889374971" class="f0">(%)</text>
        </g>
       </g>
      </g>
      <defs>
       <clipPath id="CLIP15">
        <path d="M51.851737976,29.326000214 L102.953475952,29.326000214 L102.953475952,43.363998413 L51.851737976,43.363998413 Z " />
       </clipPath>
      </defs>
      <g clip-path="url(#CLIP15)">
       <g>
        <g transform="matrix(1,0,0,1,52.676773071,43.371700287)">
         <text x="1" y="-2.889374971" class="f0">7%</text>
        </g>
       </g>
      </g>
      <defs>
       <clipPath id="CLIP16">
        <path d="M103.453475952,29.326000214 L154.555206299,29.326000214 L154.555206299,43.363998413 L103.453475952,43.363998413 Z " />
       </clipPath>
      </defs>
      <g clip-path="url(#CLIP16)">
       <g>
        <g transform="matrix(1,0,0,1,104.278511047,43.371700287)">
         <text x="1" y="-2.889374971" class="f0">7%</text>
        </g>
       </g>
      </g>
      <defs>
       <clipPath id="CLIP17">
        <path d="M155.055206299,29.326000214 L206.156951904,29.326000214 L206.156951904,43.363998413 L155.055206299,43.363998413 Z " />
       </clipPath>
      </defs>
      <g clip-path="url(#CLIP17)">
       <g>
        <g transform="matrix(1,0,0,1,155.880249023,43.371700287)">
         <text x="1" y="-2.889374971" class="f0">1%</text>
        </g>
       </g>
      </g>
      <defs>
       <clipPath id="CLIP18">
        <path d="M206.656951904,29.326000214 L257.75869751,29.326000214 L257.75869751,43.363998413 L206.656951904,43.363998413 Z " />
       </clipPath>
      </defs>
      <g clip-path="url(#CLIP18)">
       <g>
        <g transform="matrix(1,0,0,1,207.481994629,43.371700287)">
         <text x="1" y="-2.889374971" class="f0">11%</text>
        </g>
       </g>
      </g>
      <defs>
       <clipPath id="CLIP19">
        <path d="M258.258666992,29.326000214 L309.360412598,29.326000214 L309.360412598,43.363998413 L258.258666992,43.363998413 Z " />
       </clipPath>
      </defs>
      <g clip-path="url(#CLIP19)">
       <g>
        <g transform="matrix(1,0,0,1,259.083709717,43.371700287)">
         <text x="1" y="-2.889374971" class="f0">14%</text>
        </g>
       </g>
      </g>
      <defs>
       <clipPath id="CLIP20">
        <path d="M0.25,43.863998413 L51.351737976,43.863998413 L51.351737976,57.902000427 L0.25,57.902000427 Z " />
       </clipPath>
      </defs>
      <g clip-path="url(#CLIP20)">
       <g>
        <g transform="matrix(1,0,0,1,1.075036168,73.901504517)">
         <text x="1" y="-18.881175995" class="f0">净</text>
         <text x="12.039999962" y="-18.881175995" class="f0">利</text>
         <text x="23.079999924" y="-18.881175995" class="f0">润</text>
         <text x="34.119998932" y="-18.881175995" class="f0">（</text>
         <text x="1" y="-2.889374971" class="f0">百</text>
         <text x="12.039999962" y="-2.889374971" class="f0">万</text>
         <text x="23.079999924" y="-2.889374971" class="f0">元</text>
         <text x="34.119998932" y="-2.889374971" class="f0">）</text>
        </g>
       </g>
      </g>
      <defs>
       <clipPath id="CLIP21">
        <path d="M51.851737976,43.863998413 L102.953475952,43.863998413 L102.953475952,57.902000427 L51.851737976,57.902000427 Z " />
       </clipPath>
      </defs>
      <g clip-path="url(#CLIP21)">
       <g>
        <g transform="matrix(1,0,0,1,52.676773071,57.909698486)">
         <text x="1" y="-2.889374971" class="f0">36</text>
        </g>
       </g>
      </g>
      <defs>
       <clipPath id="CLIP22">
        <path d="M103.453475952,43.863998413 L154.555206299,43.863998413 L154.555206299,57.902000427 L103.453475952,57.902000427 Z " />
       </clipPath>
      </defs>
      <g clip-path="url(#CLIP22)">
       <g>
        <g transform="matrix(1,0,0,1,104.278511047,57.909698486)">
         <text x="1" y="-2.889374971" class="f0">44</text>
        </g>
       </g>
      </g>
      <defs>
       <clipPath id="CLIP23">
        <path d="M155.055206299,43.863998413 L206.156951904,43.863998413 L206.156951904,57.902000427 L155.055206299,57.902000427 Z " />
       </clipPath>
      </defs>
      <g clip-path="url(#CLIP23)">
       <g>
        <g transform="matrix(1,0,0,1,155.880249023,57.909698486)">
         <text x="1" y="-2.889374971" class="f0">53</text>
        </g>
       </g>
      </g>
      <defs>
       <clipPath id="CLIP24">
        <path d="M206.656951904,43.863998413 L257.75869751,43.863998413 L257.75869751,57.902000427 L206.656951904,57.902000427 Z " />
       </clipPath>
      </defs>
      <g clip-path="url(#CLIP24)">
       <g>
        <g transform="matrix(1,0,0,1,207.481994629,57.909698486)">
         <text x="1" y="-2.889374971" class="f0">60</text>
        </g>
       </g>
      </g>
      <defs>
       <clipPath id="CLIP25">
        <path d="M258.258666992,43.863998413 L309.360412598,43.863998413 L309.360412598,57.902000427 L258.258666992,57.902000427 Z " />
       </clipPath>
      </defs>
      <g clip-path="url(#CLIP25)">
       <g>
        <g transform="matrix(1,0,0,1,259.083709717,57.909698486)">
         <text x="1" y="-2.889374971" class="f0">76</text>
        </g>
       </g>
      </g>
      <defs>
       <clipPath id="CLIP26">
        <path d="M0.25,58.402000427 L51.351737976,58.402000427 L51.351737976,72.440002441 L0.25,72.440002441 Z " />
       </clipPath>
      </defs>
      <g clip-path="url(#CLIP26)">
       <g>
        <g transform="matrix(1,0,0,1,1.075036168,88.439498901)">
         <text x="1" y="-18.881175995" class="f0">增</text>
         <text x="12.039999962" y="-18.881175995" class="f0">长</text>
         <text x="23.079999924" y="-18.881175995" class="f0">率</text>
         <text x="1" y="-2.889374971" class="f0">(%)</text>
        </g>
       </g>
      </g>
      <defs>
       <clipPath id="CLIP27">
        <path d="M51.851737976,58.402000427 L102.953475952,58.402000427 L102.953475952,72.440002441 L51.851737976,72.440002441 Z " />
       </clipPath>
      </defs>
      <g clip-path="url(#CLIP27)">
       <g>
        <g transform="matrix(1,0,0,1,52.676773071,72.4477005)">
         <text x="1" y="-2.889374971" class="f0">-120%</text>
        </g>
       </g>
      </g>
      <defs>
       <clipPath id="CLIP28">
        <path d="M103.453475952,58.402000427 L154.555206299,58.402000427 L154.555206299,72.440002441 L103.453475952,72.440002441 Z " />
       </clipPath>
      </defs>
      <g clip-path="url(#CLIP28)">
       <g>
        <g transform="matrix(1,0,0,1,104.278511047,72.4477005)">
         <text x="1" y="-2.889374971" class="f0">21%</text>
        </g>
       </g>
      </g>
      <defs>
       <clipPath id="CLIP29">
        <path d="M155.055206299,58.402000427 L206.156951904,58.402000427 L206.156951904,72.440002441 L155.055206299,72.440002441 Z " />
       </clipPath>
      </defs>
      <g clip-path="url(#CLIP29)">
       <g>
        <g transform="matrix(1,0,0,1,155.880249023,72.4477005)">
         <text x="1" y="-2.889374971" class="f0">21%</text>
        </g>
       </g>
      </g>
      <defs>
       <clipPath id="CLIP30">
        <path d="M206.656951904,58.402000427 L257.75869751,58.402000427 L257.75869751,72.440002441 L206.656951904,72.440002441 Z " />
       </clipPath>
      </defs>
      <g clip-path="url(#CLIP30)">
       <g>
        <g transform="matrix(1,0,0,1,207.481994629,72.4477005)">
         <text x="1" y="-2.889374971" class="f0">15%</text>
        </g>
       </g>
      </g>
      <defs>
       <clipPath id="CLIP31">
        <path d="M258.258666992,58.402000427 L309.360412598,58.402000427 L309.360412598,72.440002441 L258.258666992,72.440002441 Z " />
       </clipPath>
      </defs>
      <g clip-path="url(#CLIP31)">
       <g>
        <g transform="matrix(1,0,0,1,259.083709717,72.4477005)">
         <text x="1" y="-2.889374971" class="f0">26%</text>
        </g>
       </g>
      </g>
      <defs>
       <clipPath id="CLIP32">
        <path d="M0.25,72.940002441 L51.351737976,72.940002441 L51.351737976,86.978004456 L0.25,86.978004456 Z " />
       </clipPath>
      </defs>
      <g clip-path="url(#CLIP32)">
       <g>
        <g transform="matrix(1,0,0,1,1.075036168,102.977508545)">
         <text x="1" y="-18.881175995" class="f0">每</text>
         <text x="12.039999962" y="-18.881175995" class="f0">股</text>
         <text x="23.079999924" y="-18.881175995" class="f0">收</text>
         <text x="34.119998932" y="-18.881175995" class="f0">益</text>
         <text x="1" y="-2.889374971" class="f0">(EPS)</text>
        </g>
       </g>
      </g>
      <defs>
       <clipPath id="CLIP33">
        <path d="M51.851737976,72.940002441 L102.953475952,72.940002441 L102.953475952,86.978004456 L51.851737976,86.978004456 Z " />
       </clipPath>
      </defs>
      <g clip-path="url(#CLIP33)">
       <g>
        <g transform="matrix(1,0,0,1,52.676773071,86.985702515)">
         <text x="1" y="-2.889374971" class="f0">0.10</text>
        </g>
       </g>
      </g>
      <defs>
       <clipPath id="CLIP34">
        <path d="M103.453475952,72.940002441 L154.555206299,72.940002441 L154.555206299,86.978004456 L103.453475952,86.978004456 Z " />
       </clipPath>
      </defs>
      <g clip-path="url(#CLIP34)">
       <g>
        <g transform="matrix(1,0,0,1,104.278511047,86.985702515)">
         <text x="1" y="-2.889374971" class="f0">0.12</text>
        </g>
       </g>
      </g>
      <defs>
       <clipPath id="CLIP35">
        <path d="M155.055206299,72.940002441 L206.156951904,72.940002441 L206.156951904,86.978004456 L155.055206299,86.978004456 Z " />
       </clipPath>
      </defs>
      <g clip-path="url(#CLIP35)">
       <g>
        <g transform="matrix(1,0,0,1,155.880249023,86.985702515)">
         <text x="1" y="-2.889374971" class="f0">0.15</text>
        </g>
       </g>
      </g>
      <defs>
       <clipPath id="CLIP36">
        <path d="M206.656951904,72.940002441 L257.75869751,72.940002441 L257.75869751,86.978004456 L206.656951904,86.978004456 Z " />
       </clipPath>
      </defs>
      <g clip-path="url(#CLIP36)">
       <g>
        <g transform="matrix(1,0,0,1,207.481994629,86.985702515)">
         <text x="1" y="-2.889374971" class="f0">0.17</text>
        </g>
       </g>
      </g>
      <defs>
       <clipPath id="CLIP37">
        <path d="M258.258666992,72.940002441 L309.360412598,72.940002441 L309.360412598,86.978004456 L258.258666992,86.978004456 Z " />
       </clipPath>
      </defs>
      <g clip-path="url(#CLIP37)">
       <g>
        <g transform="matrix(1,0,0,1,259.083709717,86.985702515)">
         <text x="1" y="-2.889374971" class="f0">0.21</text>
        </g>
       </g>
      </g>
      <defs>
       <clipPath id="CLIP38">
        <path d="M0.25,87.477996826 L51.351737976,87.477996826 L51.351737976,101.51599884 L0.25,101.51599884 Z " />
       </clipPath>
      </defs>
      <g clip-path="url(#CLIP38)">
       <g>
        <g transform="matrix(1,0,0,1,1.075036168,117.51550293)">
         <text x="1" y="-18.881175995" class="f0">市</text>
         <text x="12.039999962" y="-18.881175995" class="f0">盈</text>
         <text x="23.079999924" y="-18.881175995" class="f0">率</text>
         <text x="1" y="-2.889374971" class="f0">(P/E)</text>
        </g>
       </g>
      </g>
      <defs>
       <clipPath id="CLIP39">
        <path d="M51.851737976,87.477996826 L102.953475952,87.477996826 L102.953475952,101.51599884 L51.851737976,101.51599884 Z " />
       </clipPath>
      </defs>
      <g clip-path="url(#CLIP39)">
       <g>
        <g transform="matrix(1,0,0,1,52.676773071,101.523696899)">
         <text x="1" y="-2.889374971" class="f0">23.9</text>
        </g>
       </g>
      </g>
      <defs>
       <clipPath id="CLIP40">
        <path d="M103.453475952,87.477996826 L154.555206299,87.477996826 L154.555206299,101.51599884 L103.453475952,101.51599884 Z " />
       </clipPath>
      </defs>
      <g clip-path="url(#CLIP40)">
       <g>
        <g transform="matrix(1,0,0,1,104.278511047,101.523696899)">
         <text x="1" y="-2.889374971" class="f0">19.7</text>
        </g>
       </g>
      </g>
      <defs>
       <clipPath id="CLIP41">
        <path d="M155.055206299,87.477996826 L206.156951904,87.477996826 L206.156951904,101.51599884 L155.055206299,101.51599884 Z " />
       </clipPath>
      </defs>
      <g clip-path="url(#CLIP41)">
       <g>
        <g transform="matrix(1,0,0,1,155.880249023,101.523696899)">
         <text x="1" y="-2.889374971" class="f0">16.5</text>
        </g>
       </g>
      </g>
      <defs>
       <clipPath id="CLIP42">
        <path d="M206.656951904,87.477996826 L257.75869751,87.477996826 L257.75869751,101.51599884 L206.656951904,101.51599884 Z " />
       </clipPath>
      </defs>
      <g clip-path="url(#CLIP42)">
       <g>
        <g transform="matrix(1,0,0,1,207.481994629,101.523696899)">
         <text x="1" y="-2.889374971" class="f0">14.4</text>
        </g>
       </g>
      </g>
      <defs>
       <clipPath id="CLIP43">
        <path d="M258.258666992,87.477996826 L309.360412598,87.477996826 L309.360412598,101.51599884 L258.258666992,101.51599884 Z " />
       </clipPath>
      </defs>
      <g clip-path="url(#CLIP43)">
       <g>
        <g transform="matrix(1,0,0,1,259.083709717,101.523696899)">
         <text x="1" y="-2.889374971" class="f0">11.5</text>
        </g>
       </g>
      </g>
      <defs>
       <clipPath id="CLIP44">
        <path d="M0.25,102.01599884 L51.351737976,102.01599884 L51.351737976,116.054000854 L0.25,116.054000854 Z " />
       </clipPath>
      </defs>
      <g clip-path="url(#CLIP44)">
       <g>
        <g transform="matrix(1,0,0,1,1.075036168,132.053497314)">
         <text x="1" y="-18.881175995" class="f0">市</text>
         <text x="12.039999962" y="-18.881175995" class="f0">净</text>
         <text x="23.079999924" y="-18.881175995" class="f0">率</text>
         <text x="1" y="-2.889374971" class="f0">(P/B)</text>
        </g>
       </g>
      </g>
      <defs>
       <clipPath id="CLIP45">
        <path d="M51.851737976,102.01599884 L102.953475952,102.01599884 L102.953475952,116.054000854 L51.851737976,116.054000854 Z " />
       </clipPath>
      </defs>
      <g clip-path="url(#CLIP45)">
       <g>
        <g transform="matrix(1,0,0,1,52.676773071,116.061698914)">
         <text x="1" y="-2.889374971" class="f0">4.7</text>
        </g>
       </g>
      </g>
      <defs>
       <clipPath id="CLIP46">
        <path d="M103.453475952,102.01599884 L154.555206299,102.01599884 L154.555206299,116.054000854 L103.453475952,116.054000854 Z " />
       </clipPath>
      </defs>
      <g clip-path="url(#CLIP46)">
       <g>
        <g transform="matrix(1,0,0,1,104.278511047,116.061698914)">
         <text x="1" y="-2.889374971" class="f0">3.7</text>
        </g>
       </g>
      </g>
      <defs>
       <clipPath id="CLIP47">
        <path d="M155.055206299,102.01599884 L206.156951904,102.01599884 L206.156951904,116.054000854 L155.055206299,116.054000854 Z " />
       </clipPath>
      </defs>
      <g clip-path="url(#CLIP47)">
       <g>
        <g transform="matrix(1,0,0,1,155.880249023,116.061698914)">
         <text x="1" y="-2.889374971" class="f0">3.0</text>
        </g>
       </g>
      </g>
      <defs>
       <clipPath id="CLIP48">
        <path d="M206.656951904,102.01599884 L257.75869751,102.01599884 L257.75869751,116.054000854 L206.656951904,116.054000854 Z " />
       </clipPath>
      </defs>
      <g clip-path="url(#CLIP48)">
       <g>
        <g transform="matrix(1,0,0,1,207.481994629,116.061698914)">
         <text x="1" y="-2.889374971" class="f0">2.5</text>
        </g>
       </g>
      </g>
      <defs>
       <clipPath id="CLIP49">
        <path d="M258.258666992,102.01599884 L309.360412598,102.01599884 L309.360412598,116.054000854 L258.258666992,116.054000854 Z " />
       </clipPath>
      </defs>
      <g clip-path="url(#CLIP49)">
       <g>
        <g transform="matrix(1,0,0,1,259.083709717,116.061698914)">
         <text x="1" y="-2.889374971" class="f0">2.1</text>
        </g>
       </g>
      </g>
     </g>
    </g>
    <defs>
     <clipPath id="CLIP50">
      <path d="M-0.5,-0.5 L362.5,-0.5 L362.5,117.5 L-0.5,117.5 Z " />
     </clipPath>
    </defs>
    <g clip-path="url(#CLIP50)">
     <g />
    </g>
   </g>
   <g />
   <g />
   <g />
   <g>
    <g>
     <g />
     <g shape-rendering="crispEdges" />
    </g>
    <g>
     <g />
    </g>
    <g>
     <g />
    </g>
   </g>
   <g>
    <text x="10" y="10" class="f1">Evaluation Only. Created with Aspose.Cells for Python via Java.Copyright 2003 - 2023 Aspose Pty Ltd.</text>
   </g>
  </g>
 </g>
 <defs />
 <defs>
  <style type="text/css">
   <![CDATA[
   
.f0
{
font-family:Microsoft YaHei;
font-size:11.039999962px;
fill:#000000;
}

.f1
{
font-family:Arial;
font-size:10px;
fill:#FF0000;
}

   
   ]]></style>
 </defs>
</svg>
