<?xml version="1.0" encoding="UTF-8" standalone="yes"?>
<svg xmlns="http://www.w3.org/2000/svg" xmlns:xlink="http://www.w3.org/1999/xlink" width="612pt" height="792pt">
 <g id="SFixTitle" />
 <g id="SContent">
  <g transform="scale(1.33333)">
   <rect width="100%" height="100%" fill="white" />
   <g>
    <g>
     <g />
     <g shape-rendering="crispEdges" />
    </g>
    <g>
     <g />
    </g>
    <g>
     <g />
    </g>
   </g>
   <g transform="matrix(1,0,0,1,50.400001526,54)">
    <defs>
     <clipPath id="CLIP0">
      <path d="M-0.5,-0.5 L362.5,-0.5 L362.5,88.5 L-0.5,88.5 Z " />
     </clipPath>
    </defs>
    <g clip-path="url(#CLIP0)">
     <g />
     <g shape-rendering="crispEdges" />
    </g>
    <defs>
     <clipPath id="CLIP1">
      <path d="M-0.5,-1.453799963 L362.5,-1.453799963 L362.5,89.546203613 L-0.5,89.546203613 Z " />
     </clipPath>
    </defs>
    <g clip-path="url(#CLIP1)">
     <g>
      <g />
     </g>
    </g>
    <defs>
     <clipPath id="CLIP2">
      <path d="M-0.5,-0.5 L362.5,-0.5 L362.5,88.5 L-0.5,88.5 Z " />
     </clipPath>
    </defs>
    <g clip-path="url(#CLIP2)">
     <g>
      <defs>
       <clipPath id="CLIP3">
        <path d="M51.851737976,0.25 L154.555206299,0.25 L154.555206299,14.288000107 L51.851737976,14.288000107 Z " />
       </clipPath>
      </defs>
      <g clip-path="url(#CLIP3)">
       <g>
        <g transform="matrix(1,0,0,1,52.676773071,14.295700073)">
         <text x="1" y="-2.889374971" class="f0">广</text>
         <text x="12.039999962" y="-2.889374971" class="f0">东</text>
         <text x="23.079999924" y="-2.889374971" class="f0">理</text>
         <text x="34.119998932" y="-2.889374971" class="f0">工</text>
         <text x="45.159999847" y="-2.889374971" class="f0">学</text>
         <text x="56.200000763" y="-2.889374971" class="f0">院</text>
        </g>
       </g>
      </g>
      <defs>
       <clipPath id="CLIP4">
        <path d="M155.055206299,0.25 L257.758666992,0.25 L257.758666992,14.288000107 L155.055206299,14.288000107 Z " />
       </clipPath>
      </defs>
      <g clip-path="url(#CLIP4)">
       <g>
        <g transform="matrix(1,0,0,1,155.880249023,14.295700073)">
         <text x="1" y="-2.889374971" class="f0">肇</text>
         <text x="12.039999962" y="-2.889374971" class="f0">庆</text>
         <text x="23.079999924" y="-2.889374971" class="f0">学</text>
         <text x="34.119998932" y="-2.889374971" class="f0">校</text>
        </g>
       </g>
      </g>
      <defs>
       <clipPath id="CLIP5">
        <path d="M258.258666992,0.25 L360.962158203,0.25 L360.962158203,14.288000107 L258.258666992,14.288000107 Z " />
       </clipPath>
      </defs>
      <g clip-path="url(#CLIP5)">
       <g>
        <g transform="matrix(1,0,0,1,259.083709717,14.295700073)">
         <text x="1" y="-2.889374971" class="f0">集</text>
         <text x="12.039999962" y="-2.889374971" class="f0">团</text>
        </g>
       </g>
      </g>
      <defs>
       <clipPath id="CLIP6">
        <path d="M51.851737976,14.788000107 L102.953475952,14.788000107 L102.953475952,28.826000214 L51.851737976,28.826000214 Z " />
       </clipPath>
      </defs>
      <g clip-path="url(#CLIP6)">
       <g>
        <g transform="matrix(1,0,0,1,52.676773071,44.825500488)">
         <text x="1" y="-18.881175995" class="f0">可</text>
         <text x="12.039999962" y="-18.881175995" class="f0">容</text>
         <text x="23.079999924" y="-18.881175995" class="f0">纳</text>
         <text x="34.119998932" y="-18.881175995" class="f0">学</text>
         <text x="1" y="-2.889374971" class="f0">生</text>
         <text x="12.039999962" y="-2.889374971" class="f0">人</text>
         <text x="23.079999924" y="-2.889374971" class="f0">数</text>
        </g>
       </g>
      </g>
      <defs>
       <clipPath id="CLIP7">
        <path d="M103.453475952,14.788000107 L154.555206299,14.788000107 L154.555206299,28.826000214 L103.453475952,28.826000214 Z " />
       </clipPath>
      </defs>
      <g clip-path="url(#CLIP7)">
       <g>
        <g transform="matrix(1,0,0,1,104.278511047,44.825500488)">
         <text x="1" y="-18.881175995" class="f0">学</text>
         <text x="12.039999962" y="-18.881175995" class="f0">校</text>
         <text x="23.079999924" y="-18.881175995" class="f0">利</text>
         <text x="34.119998932" y="-18.881175995" class="f0">用</text>
         <text x="1" y="-2.889374971" class="f0">率</text>
        </g>
       </g>
      </g>
      <defs>
       <clipPath id="CLIP8">
        <path d="M155.055206299,14.788000107 L206.156951904,14.788000107 L206.156951904,28.826000214 L155.055206299,28.826000214 Z " />
       </clipPath>
      </defs>
      <g clip-path="url(#CLIP8)">
       <g>
        <g transform="matrix(1,0,0,1,155.880249023,44.825500488)">
         <text x="1" y="-18.881175995" class="f0">可</text>
         <text x="12.039999962" y="-18.881175995" class="f0">容</text>
         <text x="23.079999924" y="-18.881175995" class="f0">纳</text>
         <text x="34.119998932" y="-18.881175995" class="f0">学</text>
         <text x="1" y="-2.889374971" class="f0">生</text>
         <text x="12.039999962" y="-2.889374971" class="f0">人</text>
         <text x="23.079999924" y="-2.889374971" class="f0">数</text>
        </g>
       </g>
      </g>
      <defs>
       <clipPath id="CLIP9">
        <path d="M206.656951904,14.788000107 L257.75869751,14.788000107 L257.75869751,28.826000214 L206.656951904,28.826000214 Z " />
       </clipPath>
      </defs>
      <g clip-path="url(#CLIP9)">
       <g>
        <g transform="matrix(1,0,0,1,207.481994629,44.825500488)">
         <text x="1" y="-18.881175995" class="f0">学</text>
         <text x="12.039999962" y="-18.881175995" class="f0">校</text>
         <text x="23.079999924" y="-18.881175995" class="f0">利</text>
         <text x="34.119998932" y="-18.881175995" class="f0">用</text>
         <text x="1" y="-2.889374971" class="f0">率</text>
        </g>
       </g>
      </g>
      <defs>
       <clipPath id="CLIP10">
        <path d="M258.258666992,14.788000107 L309.360412598,14.788000107 L309.360412598,28.826000214 L258.258666992,28.826000214 Z " />
       </clipPath>
      </defs>
      <g clip-path="url(#CLIP10)">
       <g>
        <g transform="matrix(1,0,0,1,259.083709717,44.825500488)">
         <text x="1" y="-18.881175995" class="f0">可</text>
         <text x="12.039999962" y="-18.881175995" class="f0">容</text>
         <text x="23.079999924" y="-18.881175995" class="f0">纳</text>
         <text x="34.119998932" y="-18.881175995" class="f0">学</text>
         <text x="1" y="-2.889374971" class="f0">生</text>
         <text x="12.039999962" y="-2.889374971" class="f0">人</text>
         <text x="23.079999924" y="-2.889374971" class="f0">数</text>
        </g>
       </g>
      </g>
      <defs>
       <clipPath id="CLIP11">
        <path d="M309.860412598,14.788000107 L360.962158203,14.788000107 L360.962158203,28.826000214 L309.860412598,28.826000214 Z " />
       </clipPath>
      </defs>
      <g clip-path="url(#CLIP11)">
       <g>
        <g transform="matrix(1,0,0,1,310.685455322,44.825500488)">
         <text x="1" y="-18.881175995" class="f0">学</text>
         <text x="12.039999962" y="-18.881175995" class="f0">校</text>
         <text x="23.079999924" y="-18.881175995" class="f0">利</text>
         <text x="34.119998932" y="-18.881175995" class="f0">用</text>
         <text x="1" y="-2.889374971" class="f0">率</text>
        </g>
       </g>
      </g>
      <defs>
       <clipPath id="CLIP12">
        <path d="M0.25,29.326000214 L51.351737976,29.326000214 L51.351737976,43.363998413 L0.25,43.363998413 Z " />
       </clipPath>
      </defs>
      <g clip-path="url(#CLIP12)">
       <g>
        <g transform="matrix(1,0,0,1,1.075036168,59.363502502)">
         <text x="1" y="-18.881175995" class="f0">2015/20</text>
         <text x="1" y="-2.889374971" class="f0">16</text>
        </g>
       </g>
      </g>
      <defs>
       <clipPath id="CLIP13">
        <path d="M51.851737976,29.326000214 L102.953475952,29.326000214 L102.953475952,43.363998413 L51.851737976,43.363998413 Z " />
       </clipPath>
      </defs>
      <g clip-path="url(#CLIP13)">
       <g>
        <g transform="matrix(1,0,0,1,52.676773071,43.371700287)">
         <text x="1" y="-2.889374971" class="f0">19,152</text>
        </g>
       </g>
      </g>
      <defs>
       <clipPath id="CLIP14">
        <path d="M103.453475952,29.326000214 L154.555206299,29.326000214 L154.555206299,43.363998413 L103.453475952,43.363998413 Z " />
       </clipPath>
      </defs>
      <g clip-path="url(#CLIP14)">
       <g>
        <g transform="matrix(1,0,0,1,104.278511047,43.371700287)">
         <text x="1" y="-2.889374971" class="f0">94.3%</text>
        </g>
       </g>
      </g>
      <defs>
       <clipPath id="CLIP15">
        <path d="M155.055206299,29.326000214 L206.156951904,29.326000214 L206.156951904,43.363998413 L155.055206299,43.363998413 Z " />
       </clipPath>
      </defs>
      <g clip-path="url(#CLIP15)">
       <g>
        <g transform="matrix(1,0,0,1,155.880249023,43.371700287)">
         <text x="1" y="-2.889374971" class="f0">6,829</text>
        </g>
       </g>
      </g>
      <defs>
       <clipPath id="CLIP16">
        <path d="M206.656951904,29.326000214 L257.75869751,29.326000214 L257.75869751,43.363998413 L206.656951904,43.363998413 Z " />
       </clipPath>
      </defs>
      <g clip-path="url(#CLIP16)">
       <g>
        <g transform="matrix(1,0,0,1,207.481994629,43.371700287)">
         <text x="1" y="-2.889374971" class="f0">87.6%</text>
        </g>
       </g>
      </g>
      <defs>
       <clipPath id="CLIP17">
        <path d="M258.258666992,29.326000214 L309.360412598,29.326000214 L309.360412598,43.363998413 L258.258666992,43.363998413 Z " />
       </clipPath>
      </defs>
      <g clip-path="url(#CLIP17)">
       <g>
        <g transform="matrix(1,0,0,1,259.083709717,43.371700287)">
         <text x="1" y="-2.889374971" class="f0">25,981</text>
        </g>
       </g>
      </g>
      <defs>
       <clipPath id="CLIP18">
        <path d="M309.860412598,29.326000214 L360.962158203,29.326000214 L360.962158203,43.363998413 L309.860412598,43.363998413 Z " />
       </clipPath>
      </defs>
      <g clip-path="url(#CLIP18)">
       <g>
        <g transform="matrix(1,0,0,1,310.685455322,43.371700287)">
         <text x="1" y="-2.889374971" class="f0">92.5%</text>
        </g>
       </g>
      </g>
      <defs>
       <clipPath id="CLIP19">
        <path d="M0.25,43.863998413 L51.351737976,43.863998413 L51.351737976,57.902000427 L0.25,57.902000427 Z " />
       </clipPath>
      </defs>
      <g clip-path="url(#CLIP19)">
       <g>
        <g transform="matrix(1,0,0,1,1.075036168,73.901504517)">
         <text x="1" y="-18.881175995" class="f0">2016/20</text>
         <text x="1" y="-2.889374971" class="f0">17</text>
        </g>
       </g>
      </g>
      <defs>
       <clipPath id="CLIP20">
        <path d="M51.851737976,43.863998413 L102.953475952,43.863998413 L102.953475952,57.902000427 L51.851737976,57.902000427 Z " />
       </clipPath>
      </defs>
      <g clip-path="url(#CLIP20)">
       <g>
        <g transform="matrix(1,0,0,1,52.676773071,57.909698486)">
         <text x="1" y="-2.889374971" class="f0">19,152</text>
        </g>
       </g>
      </g>
      <defs>
       <clipPath id="CLIP21">
        <path d="M103.453475952,43.863998413 L154.555206299,43.863998413 L154.555206299,57.902000427 L103.453475952,57.902000427 Z " />
       </clipPath>
      </defs>
      <g clip-path="url(#CLIP21)">
       <g>
        <g transform="matrix(1,0,0,1,104.278511047,57.909698486)">
         <text x="1" y="-2.889374971" class="f0">90.1%</text>
        </g>
       </g>
      </g>
      <defs>
       <clipPath id="CLIP22">
        <path d="M155.055206299,43.863998413 L206.156951904,43.863998413 L206.156951904,57.902000427 L155.055206299,57.902000427 Z " />
       </clipPath>
      </defs>
      <g clip-path="url(#CLIP22)">
       <g>
        <g transform="matrix(1,0,0,1,155.880249023,57.909698486)">
         <text x="1" y="-2.889374971" class="f0">6,829</text>
        </g>
       </g>
      </g>
      <defs>
       <clipPath id="CLIP23">
        <path d="M206.656951904,43.863998413 L257.75869751,43.863998413 L257.75869751,57.902000427 L206.656951904,57.902000427 Z " />
       </clipPath>
      </defs>
      <g clip-path="url(#CLIP23)">
       <g>
        <g transform="matrix(1,0,0,1,207.481994629,57.909698486)">
         <text x="1" y="-2.889374971" class="f0">91.6%</text>
        </g>
       </g>
      </g>
      <defs>
       <clipPath id="CLIP24">
        <path d="M258.258666992,43.863998413 L309.360412598,43.863998413 L309.360412598,57.902000427 L258.258666992,57.902000427 Z " />
       </clipPath>
      </defs>
      <g clip-path="url(#CLIP24)">
       <g>
        <g transform="matrix(1,0,0,1,259.083709717,57.909698486)">
         <text x="1" y="-2.889374971" class="f0">25,981</text>
        </g>
       </g>
      </g>
      <defs>
       <clipPath id="CLIP25">
        <path d="M309.860412598,43.863998413 L360.962158203,43.863998413 L360.962158203,57.902000427 L309.860412598,57.902000427 Z " />
       </clipPath>
      </defs>
      <g clip-path="url(#CLIP25)">
       <g>
        <g transform="matrix(1,0,0,1,310.685455322,57.909698486)">
         <text x="1" y="-2.889374971" class="f0">90.5%</text>
        </g>
       </g>
      </g>
      <defs>
       <clipPath id="CLIP26">
        <path d="M0.25,58.402000427 L51.351737976,58.402000427 L51.351737976,72.440002441 L0.25,72.440002441 Z " />
       </clipPath>
      </defs>
      <g clip-path="url(#CLIP26)">
       <g>
        <g transform="matrix(1,0,0,1,1.075036168,88.439498901)">
         <text x="1" y="-18.881175995" class="f0">2017/20</text>
         <text x="1" y="-2.889374971" class="f0">18</text>
        </g>
       </g>
      </g>
      <defs>
       <clipPath id="CLIP27">
        <path d="M51.851737976,58.402000427 L102.953475952,58.402000427 L102.953475952,72.440002441 L51.851737976,72.440002441 Z " />
       </clipPath>
      </defs>
      <g clip-path="url(#CLIP27)">
       <g>
        <g transform="matrix(1,0,0,1,52.676773071,72.4477005)">
         <text x="1" y="-2.889374971" class="f0">25.148</text>
        </g>
       </g>
      </g>
      <defs>
       <clipPath id="CLIP28">
        <path d="M103.453475952,58.402000427 L154.555206299,58.402000427 L154.555206299,72.440002441 L103.453475952,72.440002441 Z " />
       </clipPath>
      </defs>
      <g clip-path="url(#CLIP28)">
       <g>
        <g transform="matrix(1,0,0,1,104.278511047,72.4477005)">
         <text x="1" y="-2.889374971" class="f0">86.3%</text>
        </g>
       </g>
      </g>
      <defs>
       <clipPath id="CLIP29">
        <path d="M155.055206299,58.402000427 L206.156951904,58.402000427 L206.156951904,72.440002441 L155.055206299,72.440002441 Z " />
       </clipPath>
      </defs>
      <g clip-path="url(#CLIP29)">
       <g>
        <g transform="matrix(1,0,0,1,155.880249023,72.4477005)">
         <text x="1" y="-2.889374971" class="f0">6,829</text>
        </g>
       </g>
      </g>
      <defs>
       <clipPath id="CLIP30">
        <path d="M206.656951904,58.402000427 L257.75869751,58.402000427 L257.75869751,72.440002441 L206.656951904,72.440002441 Z " />
       </clipPath>
      </defs>
      <g clip-path="url(#CLIP30)">
       <g>
        <g transform="matrix(1,0,0,1,207.481994629,72.4477005)">
         <text x="1" y="-2.889374971" class="f0">81.3%</text>
        </g>
       </g>
      </g>
      <defs>
       <clipPath id="CLIP31">
        <path d="M258.258666992,58.402000427 L309.360412598,58.402000427 L309.360412598,72.440002441 L258.258666992,72.440002441 Z " />
       </clipPath>
      </defs>
      <g clip-path="url(#CLIP31)">
       <g>
        <g transform="matrix(1,0,0,1,259.083709717,72.4477005)">
         <text x="1" y="-2.889374971" class="f0">31,977</text>
        </g>
       </g>
      </g>
      <defs>
       <clipPath id="CLIP32">
        <path d="M309.860412598,58.402000427 L360.962158203,58.402000427 L360.962158203,72.440002441 L309.860412598,72.440002441 Z " />
       </clipPath>
      </defs>
      <g clip-path="url(#CLIP32)">
       <g>
        <g transform="matrix(1,0,0,1,310.685455322,72.4477005)">
         <text x="1" y="-2.889374971" class="f0">85.2%</text>
        </g>
       </g>
      </g>
      <defs>
       <clipPath id="CLIP33">
        <path d="M0.25,72.940002441 L51.351737976,72.940002441 L51.351737976,86.978004456 L0.25,86.978004456 Z " />
       </clipPath>
      </defs>
      <g clip-path="url(#CLIP33)">
       <g>
        <g transform="matrix(1,0,0,1,1.075036168,102.977508545)">
         <text x="1" y="-18.881175995" class="f0">2018/20</text>
         <text x="1" y="-2.889374971" class="f0">19</text>
        </g>
       </g>
      </g>
      <defs>
       <clipPath id="CLIP34">
        <path d="M51.851737976,72.940002441 L102.953475952,72.940002441 L102.953475952,86.978004456 L51.851737976,86.978004456 Z " />
       </clipPath>
      </defs>
      <g clip-path="url(#CLIP34)">
       <g>
        <g transform="matrix(1,0,0,1,52.676773071,86.985702515)">
         <text x="1" y="-2.889374971" class="f0">29.148</text>
        </g>
       </g>
      </g>
      <defs>
       <clipPath id="CLIP35">
        <path d="M103.453475952,72.940002441 L154.555206299,72.940002441 L154.555206299,86.978004456 L103.453475952,86.978004456 Z " />
       </clipPath>
      </defs>
      <g clip-path="url(#CLIP35)">
       <g>
        <g transform="matrix(1,0,0,1,104.278511047,86.985702515)">
         <text x="1" y="-2.889374971" class="f0">90.8%</text>
        </g>
       </g>
      </g>
      <defs>
       <clipPath id="CLIP36">
        <path d="M155.055206299,72.940002441 L206.156951904,72.940002441 L206.156951904,86.978004456 L155.055206299,86.978004456 Z " />
       </clipPath>
      </defs>
      <g clip-path="url(#CLIP36)">
       <g>
        <g transform="matrix(1,0,0,1,155.880249023,86.985702515)">
         <text x="1" y="-2.889374971" class="f0">6,829</text>
        </g>
       </g>
      </g>
      <defs>
       <clipPath id="CLIP37">
        <path d="M206.656951904,72.940002441 L257.75869751,72.940002441 L257.75869751,86.978004456 L206.656951904,86.978004456 Z " />
       </clipPath>
      </defs>
      <g clip-path="url(#CLIP37)">
       <g>
        <g transform="matrix(1,0,0,1,207.481994629,86.985702515)">
         <text x="1" y="-2.889374971" class="f0">86.0%</text>
        </g>
       </g>
      </g>
      <defs>
       <clipPath id="CLIP38">
        <path d="M258.258666992,72.940002441 L309.360412598,72.940002441 L309.360412598,86.978004456 L258.258666992,86.978004456 Z " />
       </clipPath>
      </defs>
      <g clip-path="url(#CLIP38)">
       <g>
        <g transform="matrix(1,0,0,1,259.083709717,86.985702515)">
         <text x="1" y="-2.889374971" class="f0">35,977</text>
        </g>
       </g>
      </g>
      <defs>
       <clipPath id="CLIP39">
        <path d="M309.860412598,72.940002441 L360.962158203,72.940002441 L360.962158203,86.978004456 L309.860412598,86.978004456 Z " />
       </clipPath>
      </defs>
      <g clip-path="url(#CLIP39)">
       <g>
        <g transform="matrix(1,0,0,1,310.685455322,86.985702515)">
         <text x="1" y="-2.889374971" class="f0">89.9%</text>
        </g>
       </g>
      </g>
     </g>
    </g>
    <defs>
     <clipPath id="CLIP40">
      <path d="M-0.5,-0.5 L362.5,-0.5 L362.5,88.5 L-0.5,88.5 Z " />
     </clipPath>
    </defs>
    <g clip-path="url(#CLIP40)">
     <g />
    </g>
   </g>
   <g />
   <g />
   <g />
   <g>
    <g>
     <g />
     <g shape-rendering="crispEdges" />
    </g>
    <g>
     <g />
    </g>
    <g>
     <g />
    </g>
   </g>
   <g>
    <text x="10" y="10" class="f1">Evaluation Only. Created with Aspose.Cells for Python via Java.Copyright 2003 - 2023 Aspose Pty Ltd.</text>
   </g>
  </g>
 </g>
 <defs />
 <defs>
  <style type="text/css">
   <![CDATA[
   
.f0
{
font-family:Microsoft YaHei;
font-size:11.039999962px;
fill:#000000;
}

.f1
{
font-family:Arial;
font-size:10px;
fill:#FF0000;
}

   
   ]]></style>
 </defs>
</svg>
