<?xml version="1.0" encoding="UTF-8" standalone="yes"?>
<svg xmlns="http://www.w3.org/2000/svg" xmlns:xlink="http://www.w3.org/1999/xlink" width="612pt" height="792pt">
 <g id="SFixTitle" />
 <g id="SContent">
  <g transform="scale(1.33333)">
   <rect width="100%" height="100%" fill="white" />
   <g>
    <g>
     <g />
     <g shape-rendering="crispEdges" />
    </g>
    <g>
     <g />
    </g>
    <g>
     <g />
    </g>
   </g>
   <g transform="matrix(1,0,0,1,50.400001526,54)">
    <defs>
     <clipPath id="CLIP0">
      <path d="M-0.5,-0.5 L207.5,-0.5 L207.5,117.5 L-0.5,117.5 Z " />
     </clipPath>
    </defs>
    <g clip-path="url(#CLIP0)">
     <g />
     <g shape-rendering="crispEdges" />
    </g>
    <defs>
     <clipPath id="CLIP1">
      <path d="M-0.5,-1.453799963 L207.5,-1.453799963 L207.5,118.546203613 L-0.5,118.546203613 Z " />
     </clipPath>
    </defs>
    <g clip-path="url(#CLIP1)">
     <g>
      <g />
     </g>
    </g>
    <defs>
     <clipPath id="CLIP2">
      <path d="M-0.5,-0.5 L207.5,-0.5 L207.5,117.5 L-0.5,117.5 Z " />
     </clipPath>
    </defs>
    <g clip-path="url(#CLIP2)">
     <g>
      <defs>
       <clipPath id="CLIP3">
        <path d="M0.25,0.25 L51.351737976,0.25 L51.351737976,14.288000107 L0.25,14.288000107 Z " />
       </clipPath>
      </defs>
      <g clip-path="url(#CLIP3)">
       <g>
        <g transform="matrix(1,0,0,1,1.075036168,14.295700073)">
         <text x="1" y="-2.889374971" class="f0">项</text>
         <text x="12.039999962" y="-2.889374971" class="f0">目</text>
         <text x="23.079999924" y="-2.889374971" class="f0">名</text>
         <text x="34.119998932" y="-2.889374971" class="f0">称</text>
        </g>
       </g>
      </g>
      <defs>
       <clipPath id="CLIP4">
        <path d="M51.851737976,0.25 L102.953475952,0.25 L102.953475952,14.288000107 L51.851737976,14.288000107 Z " />
       </clipPath>
      </defs>
      <g clip-path="url(#CLIP4)">
       <g>
        <g transform="matrix(1,0,0,1,52.676773071,14.295700073)">
         <text x="1" y="-2.889374971" class="f0">结</text>
         <text x="12.039999962" y="-2.889374971" class="f0">果</text>
        </g>
       </g>
      </g>
      <defs>
       <clipPath id="CLIP5">
        <path d="M103.453475952,0.25 L154.555206299,0.25 L154.555206299,14.288000107 L103.453475952,14.288000107 Z " />
       </clipPath>
      </defs>
      <g clip-path="url(#CLIP5)">
       <g>
        <g transform="matrix(1,0,0,1,104.278511047,14.295700073)">
         <text x="1" y="-2.889374971" class="f0">单</text>
         <text x="12.039999962" y="-2.889374971" class="f0">位</text>
        </g>
       </g>
      </g>
      <defs>
       <clipPath id="CLIP6">
        <path d="M155.055206299,0.25 L206.156951904,0.25 L206.156951904,14.288000107 L155.055206299,14.288000107 Z " />
       </clipPath>
      </defs>
      <g clip-path="url(#CLIP6)">
       <g>
        <g transform="matrix(1,0,0,1,155.880249023,30.287500381)">
         <text x="1" y="-18.881175995" class="f0">参</text>
         <text x="12.039999962" y="-18.881175995" class="f0">考</text>
         <text x="23.079999924" y="-18.881175995" class="f0">范</text>
         <text x="34.119998932" y="-18.881175995" class="f0">围</text>
         <text x="1" y="-2.889374971" class="f0">项</text>
         <text x="12.039999962" y="-2.889374971" class="f0">目</text>
         <text x="23.079999924" y="-2.889374971" class="f0">名</text>
         <text x="34.119998932" y="-2.889374971" class="f0">称</text>
        </g>
       </g>
      </g>
      <defs>
       <clipPath id="CLIP7">
        <path d="M0.25,14.788000107 L51.351737976,14.788000107 L51.351737976,28.826000214 L0.25,28.826000214 Z " />
       </clipPath>
      </defs>
      <g clip-path="url(#CLIP7)">
       <g>
        <g transform="matrix(1,0,0,1,1.075036168,28.83370018)">
         <text x="1" y="-2.889374971" class="f0">总</text>
         <text x="12.039999962" y="-2.889374971" class="f0">蛋</text>
         <text x="23.079999924" y="-2.889374971" class="f0">白</text>
        </g>
       </g>
      </g>
      <defs>
       <clipPath id="CLIP8">
        <path d="M51.851737976,14.788000107 L102.953475952,14.788000107 L102.953475952,28.826000214 L51.851737976,28.826000214 Z " />
       </clipPath>
      </defs>
      <g clip-path="url(#CLIP8)">
       <g>
        <g transform="matrix(1,0,0,1,52.676773071,28.83370018)">
         <text x="1" y="-2.889374971" class="f0">72</text>
        </g>
       </g>
      </g>
      <defs>
       <clipPath id="CLIP9">
        <path d="M103.453475952,14.788000107 L154.555206299,14.788000107 L154.555206299,28.826000214 L103.453475952,28.826000214 Z " />
       </clipPath>
      </defs>
      <g clip-path="url(#CLIP9)">
       <g>
        <g transform="matrix(1,0,0,1,104.278511047,28.83370018)">
         <text x="1" y="-2.889374971" class="f0">g/L</text>
        </g>
       </g>
      </g>
      <defs>
       <clipPath id="CLIP10">
        <path d="M155.055206299,14.788000107 L206.156951904,14.788000107 L206.156951904,28.826000214 L155.055206299,28.826000214 Z " />
       </clipPath>
      </defs>
      <g clip-path="url(#CLIP10)">
       <g>
        <g transform="matrix(1,0,0,1,155.880249023,28.83370018)">
         <text x="1" y="-2.889374971" class="f0">62-82</text>
        </g>
       </g>
      </g>
      <defs>
       <clipPath id="CLIP11">
        <path d="M0.25,29.326000214 L51.351737976,29.326000214 L51.351737976,43.363998413 L0.25,43.363998413 Z " />
       </clipPath>
      </defs>
      <g clip-path="url(#CLIP11)">
       <g>
        <g transform="matrix(1,0,0,1,1.075036168,43.371700287)">
         <text x="1" y="-2.889374971" class="f0">白</text>
         <text x="12.039999962" y="-2.889374971" class="f0">蛋</text>
         <text x="23.079999924" y="-2.889374971" class="f0">白</text>
        </g>
       </g>
      </g>
      <defs>
       <clipPath id="CLIP12">
        <path d="M51.851737976,29.326000214 L102.953475952,29.326000214 L102.953475952,43.363998413 L51.851737976,43.363998413 Z " />
       </clipPath>
      </defs>
      <g clip-path="url(#CLIP12)">
       <g>
        <g transform="matrix(1,0,0,1,52.676773071,43.371700287)">
         <text x="1" y="-2.889374971" class="f0">42</text>
        </g>
       </g>
      </g>
      <defs>
       <clipPath id="CLIP13">
        <path d="M103.453475952,29.326000214 L154.555206299,29.326000214 L154.555206299,43.363998413 L103.453475952,43.363998413 Z " />
       </clipPath>
      </defs>
      <g clip-path="url(#CLIP13)">
       <g>
        <g transform="matrix(1,0,0,1,104.278511047,43.371700287)">
         <text x="1" y="-2.889374971" class="f0">g/L</text>
        </g>
       </g>
      </g>
      <defs>
       <clipPath id="CLIP14">
        <path d="M155.055206299,29.326000214 L206.156951904,29.326000214 L206.156951904,43.363998413 L155.055206299,43.363998413 Z " />
       </clipPath>
      </defs>
      <g clip-path="url(#CLIP14)">
       <g>
        <g transform="matrix(1,0,0,1,155.880249023,43.371700287)">
         <text x="1" y="-2.889374971" class="f0">35-55</text>
        </g>
       </g>
      </g>
      <defs>
       <clipPath id="CLIP15">
        <path d="M0.25,43.863998413 L51.351737976,43.863998413 L51.351737976,57.902000427 L0.25,57.902000427 Z " />
       </clipPath>
      </defs>
      <g clip-path="url(#CLIP15)">
       <g>
        <g transform="matrix(1,0,0,1,1.075036168,73.901504517)">
         <text x="1" y="-18.881175995" class="f0">谷</text>
         <text x="12.039999962" y="-18.881175995" class="f0">丙</text>
         <text x="23.079999924" y="-18.881175995" class="f0">转</text>
         <text x="34.119998932" y="-18.881175995" class="f0">氨</text>
         <text x="1" y="-2.889374971" class="f0">酶</text>
        </g>
       </g>
      </g>
      <defs>
       <clipPath id="CLIP16">
        <path d="M51.851737976,43.863998413 L102.953475952,43.863998413 L102.953475952,57.902000427 L51.851737976,57.902000427 Z " />
       </clipPath>
      </defs>
      <g clip-path="url(#CLIP16)">
       <g>
        <g transform="matrix(1,0,0,1,52.676773071,57.909698486)">
         <text x="1" y="-2.889374971" class="f0">116</text>
        </g>
       </g>
      </g>
      <defs>
       <clipPath id="CLIP17">
        <path d="M103.453475952,43.863998413 L154.555206299,43.863998413 L154.555206299,57.902000427 L103.453475952,57.902000427 Z " />
       </clipPath>
      </defs>
      <g clip-path="url(#CLIP17)">
       <g>
        <g transform="matrix(1,0,0,1,104.278511047,57.909698486)">
         <text x="1" y="-2.889374971" class="f0">U/L</text>
        </g>
       </g>
      </g>
      <defs>
       <clipPath id="CLIP18">
        <path d="M155.055206299,43.863998413 L206.156951904,43.863998413 L206.156951904,57.902000427 L155.055206299,57.902000427 Z " />
       </clipPath>
      </defs>
      <g clip-path="url(#CLIP18)">
       <g>
        <g transform="matrix(1,0,0,1,155.880249023,57.909698486)">
         <text x="1" y="-2.889374971" class="f0">0-40</text>
        </g>
       </g>
      </g>
      <defs>
       <clipPath id="CLIP19">
        <path d="M0.25,58.402000427 L51.351737976,58.402000427 L51.351737976,72.440002441 L0.25,72.440002441 Z " />
       </clipPath>
      </defs>
      <g clip-path="url(#CLIP19)">
       <g>
        <g transform="matrix(1,0,0,1,1.075036168,88.439498901)">
         <text x="1" y="-18.881175995" class="f0">谷</text>
         <text x="12.039999962" y="-18.881175995" class="f0">草</text>
         <text x="23.079999924" y="-18.881175995" class="f0">转</text>
         <text x="34.119998932" y="-18.881175995" class="f0">氨</text>
         <text x="1" y="-2.889374971" class="f0">酶</text>
        </g>
       </g>
      </g>
      <defs>
       <clipPath id="CLIP20">
        <path d="M51.851737976,58.402000427 L102.953475952,58.402000427 L102.953475952,72.440002441 L51.851737976,72.440002441 Z " />
       </clipPath>
      </defs>
      <g clip-path="url(#CLIP20)">
       <g>
        <g transform="matrix(1,0,0,1,52.676773071,72.4477005)">
         <text x="1" y="-2.889374971" class="f0">45</text>
        </g>
       </g>
      </g>
      <defs>
       <clipPath id="CLIP21">
        <path d="M103.453475952,58.402000427 L154.555206299,58.402000427 L154.555206299,72.440002441 L103.453475952,72.440002441 Z " />
       </clipPath>
      </defs>
      <g clip-path="url(#CLIP21)">
       <g>
        <g transform="matrix(1,0,0,1,104.278511047,72.4477005)">
         <text x="1" y="-2.889374971" class="f0">U/L</text>
        </g>
       </g>
      </g>
      <defs>
       <clipPath id="CLIP22">
        <path d="M155.055206299,58.402000427 L206.156951904,58.402000427 L206.156951904,72.440002441 L155.055206299,72.440002441 Z " />
       </clipPath>
      </defs>
      <g clip-path="url(#CLIP22)">
       <g>
        <g transform="matrix(1,0,0,1,155.880249023,72.4477005)">
         <text x="1" y="-2.889374971" class="f0">0-40</text>
        </g>
       </g>
      </g>
      <defs>
       <clipPath id="CLIP23">
        <path d="M0.25,72.940002441 L51.351737976,72.940002441 L51.351737976,86.978004456 L0.25,86.978004456 Z " />
       </clipPath>
      </defs>
      <g clip-path="url(#CLIP23)">
       <g>
        <g transform="matrix(1,0,0,1,1.075036168,102.977508545)">
         <text x="1" y="-18.881175995" class="f0">r-</text>
         <text x="9.991562843" y="-18.881175995" class="f0">谷</text>
         <text x="21.031562805" y="-18.881175995" class="f0">氨</text>
         <text x="32.071563721" y="-18.881175995" class="f0">酰</text>
         <text x="1" y="-2.889374971" class="f0">转</text>
         <text x="12.039999962" y="-2.889374971" class="f0">移</text>
         <text x="23.079999924" y="-2.889374971" class="f0">酶</text>
        </g>
       </g>
      </g>
      <defs>
       <clipPath id="CLIP24">
        <path d="M51.851737976,72.940002441 L102.953475952,72.940002441 L102.953475952,86.978004456 L51.851737976,86.978004456 Z " />
       </clipPath>
      </defs>
      <g clip-path="url(#CLIP24)">
       <g>
        <g transform="matrix(1,0,0,1,52.676773071,86.985702515)">
         <text x="1" y="-2.889374971" class="f0">78</text>
        </g>
       </g>
      </g>
      <defs>
       <clipPath id="CLIP25">
        <path d="M103.453475952,72.940002441 L154.555206299,72.940002441 L154.555206299,86.978004456 L103.453475952,86.978004456 Z " />
       </clipPath>
      </defs>
      <g clip-path="url(#CLIP25)">
       <g>
        <g transform="matrix(1,0,0,1,104.278511047,86.985702515)">
         <text x="1" y="-2.889374971" class="f0">↑U/L</text>
        </g>
       </g>
      </g>
      <defs>
       <clipPath id="CLIP26">
        <path d="M155.055206299,72.940002441 L206.156951904,72.940002441 L206.156951904,86.978004456 L155.055206299,86.978004456 Z " />
       </clipPath>
      </defs>
      <g clip-path="url(#CLIP26)">
       <g>
        <g transform="matrix(1,0,0,1,155.880249023,86.985702515)">
         <text x="1" y="-2.889374971" class="f0">8-40</text>
        </g>
       </g>
      </g>
      <defs>
       <clipPath id="CLIP27">
        <path d="M0.25,87.477996826 L51.351737976,87.477996826 L51.351737976,101.51599884 L0.25,101.51599884 Z " />
       </clipPath>
      </defs>
      <g clip-path="url(#CLIP27)">
       <g>
        <g transform="matrix(1,0,0,1,1.075036168,101.523696899)">
         <text x="1" y="-2.889374971" class="f0">总</text>
         <text x="12.039999962" y="-2.889374971" class="f0">胆</text>
         <text x="23.079999924" y="-2.889374971" class="f0">红</text>
         <text x="34.119998932" y="-2.889374971" class="f0">素</text>
        </g>
       </g>
      </g>
      <defs>
       <clipPath id="CLIP28">
        <path d="M51.851737976,87.477996826 L102.953475952,87.477996826 L102.953475952,101.51599884 L51.851737976,101.51599884 Z " />
       </clipPath>
      </defs>
      <g clip-path="url(#CLIP28)">
       <g>
        <g transform="matrix(1,0,0,1,52.676773071,101.523696899)">
         <text x="1" y="-2.889374971" class="f0">18.0</text>
        </g>
       </g>
      </g>
      <defs>
       <clipPath id="CLIP29">
        <path d="M103.453475952,87.477996826 L154.555206299,87.477996826 L154.555206299,101.51599884 L103.453475952,101.51599884 Z " />
       </clipPath>
      </defs>
      <g clip-path="url(#CLIP29)">
       <g>
        <g transform="matrix(1,0,0,1,104.278511047,117.51550293)">
         <text x="1" y="-18.881175995" class="f0">↑umo1/</text>
         <text x="1" y="-2.889374971" class="f0">L</text>
        </g>
       </g>
      </g>
      <defs>
       <clipPath id="CLIP30">
        <path d="M155.055206299,87.477996826 L206.156951904,87.477996826 L206.156951904,101.51599884 L155.055206299,101.51599884 Z " />
       </clipPath>
      </defs>
      <g clip-path="url(#CLIP30)">
       <g>
        <g transform="matrix(1,0,0,1,155.880249023,101.523696899)">
         <text x="1" y="-2.889374971" class="f0">0-17</text>
        </g>
       </g>
      </g>
      <defs>
       <clipPath id="CLIP31">
        <path d="M0.25,102.01599884 L51.351737976,102.01599884 L51.351737976,116.054000854 L0.25,116.054000854 Z " />
       </clipPath>
      </defs>
      <g clip-path="url(#CLIP31)">
       <g>
        <g transform="matrix(1,0,0,1,1.075036168,164.037109375)">
         <text x="1" y="-50.864776611" class="f0">直</text>
         <text x="12.039999962" y="-50.864776611" class="f0">接</text>
         <text x="23.079999924" y="-50.864776611" class="f0">胆</text>
         <text x="34.119998932" y="-50.864776611" class="f0">红</text>
         <text x="1" y="-34.872974396" class="f0">素</text>
         <text x="12.039999962" y="-34.872974396" class="f0">碱</text>
         <text x="23.079999924" y="-34.872974396" class="f0">性</text>
         <text x="34.119998932" y="-34.872974396" class="f0">磷</text>
         <text x="1" y="-18.881175995" class="f0">酸</text>
         <text x="12.039999962" y="-18.881175995" class="f0">酶</text>
         <text x="23.079999924" y="-18.881175995" class="f0">乳</text>
         <text x="34.119998932" y="-18.881175995" class="f0">酸</text>
         <text x="1" y="-2.889374971" class="f0">脱</text>
         <text x="12.039999962" y="-2.889374971" class="f0">氢</text>
         <text x="23.079999924" y="-2.889374971" class="f0">酶</text>
        </g>
       </g>
      </g>
      <defs>
       <clipPath id="CLIP32">
        <path d="M51.851737976,102.01599884 L102.953475952,102.01599884 L102.953475952,116.054000854 L51.851737976,116.054000854 Z " />
       </clipPath>
      </defs>
      <g clip-path="url(#CLIP32)">
       <g>
        <g transform="matrix(1,0,0,1,52.676773071,132.053497314)">
         <text x="1" y="-18.881175995" class="f0">4.18413</text>
         <text x="1" y="-2.889374971" class="f0">4</text>
        </g>
       </g>
      </g>
      <defs>
       <clipPath id="CLIP33">
        <path d="M103.453475952,102.01599884 L154.555206299,102.01599884 L154.555206299,116.054000854 L103.453475952,116.054000854 Z " />
       </clipPath>
      </defs>
      <g clip-path="url(#CLIP33)">
       <g>
        <g transform="matrix(1,0,0,1,104.278511047,132.053497314)">
         <text x="1" y="-18.881175995" class="f0">umo1/L</text>
         <text x="1" y="-2.889374971" class="f0">U/LU/L</text>
        </g>
       </g>
      </g>
      <defs>
       <clipPath id="CLIP34">
        <path d="M155.055206299,102.01599884 L206.156951904,102.01599884 L206.156951904,116.054000854 L155.055206299,116.054000854 Z " />
       </clipPath>
      </defs>
      <g clip-path="url(#CLIP34)">
       <g>
        <g transform="matrix(1,0,0,1,155.880249023,148.045303345)">
         <text x="1" y="-34.872974396" class="f0">0-642-</text>
         <text x="1" y="-18.881175995" class="f0">140115-</text>
         <text x="1" y="-2.889374971" class="f0">220</text>
        </g>
       </g>
      </g>
     </g>
    </g>
    <defs>
     <clipPath id="CLIP35">
      <path d="M-0.5,-0.5 L207.5,-0.5 L207.5,117.5 L-0.5,117.5 Z " />
     </clipPath>
    </defs>
    <g clip-path="url(#CLIP35)">
     <g />
    </g>
   </g>
   <g />
   <g />
   <g />
   <g>
    <g>
     <g />
     <g shape-rendering="crispEdges" />
    </g>
    <g>
     <g />
    </g>
    <g>
     <g />
    </g>
   </g>
   <g>
    <text x="10" y="10" class="f1">Evaluation Only. Created with Aspose.Cells for Python via Java.Copyright 2003 - 2023 Aspose Pty Ltd.</text>
   </g>
  </g>
 </g>
 <defs />
 <defs>
  <style type="text/css">
   <![CDATA[
   
.f0
{
font-family:Microsoft YaHei;
font-size:11.039999962px;
fill:#000000;
}

.f1
{
font-family:Arial;
font-size:10px;
fill:#FF0000;
}

   
   ]]></style>
 </defs>
</svg>
