<?xml version="1.0" encoding="UTF-8" standalone="yes"?>
<svg xmlns="http://www.w3.org/2000/svg" xmlns:xlink="http://www.w3.org/1999/xlink" width="612pt" height="792pt">
 <g id="SFixTitle" />
 <g id="SContent">
  <g transform="scale(1.33333)">
   <rect width="100%" height="100%" fill="white" />
   <g>
    <g>
     <g />
     <g shape-rendering="crispEdges" />
    </g>
    <g>
     <g />
    </g>
    <g>
     <g />
    </g>
   </g>
   <g transform="matrix(1,0,0,1,50.400001526,54)">
    <defs>
     <clipPath id="CLIP0">
      <path d="M-0.5,-0.5 L373.5,-0.5 L373.5,160.5 L-0.5,160.5 Z " />
     </clipPath>
    </defs>
    <g clip-path="url(#CLIP0)">
     <g />
     <g shape-rendering="crispEdges" />
    </g>
    <defs>
     <clipPath id="CLIP1">
      <path d="M-0.5,-1.453799963 L373.5,-1.453799963 L373.5,161.546203613 L-0.5,161.546203613 Z " />
     </clipPath>
    </defs>
    <g clip-path="url(#CLIP1)">
     <g>
      <g />
      <path d="M 0,0 L 53.214290619,0" class="p0" fill="none" />
      <path d="M 0,116.304000854 L 53.214290619,116.304000854" class="p0" fill="none" />
      <path d="M 0,0 L 0,14.538000107" class="p0" fill="none" />
      <path d="M 0,116.304000854 L 0,130.841995239" class="p0" fill="none" />
      <path d="M 53.214290619,0 L 106.428581238,0" class="p0" fill="none" />
      <path d="M 53.214290619,116.304000854 L 106.428581238,116.304000854" class="p0" fill="none" />
      <path d="M 53.214000702,0 L 53.214000702,14.538000107" class="p0" fill="none" />
      <path d="M 53.214000702,116.304000854 L 53.214000702,130.841995239" class="p0" fill="none" />
      <path d="M 106.428581238,0 L 159.642868042,0" class="p0" fill="none" />
      <path d="M 106.428581238,116.304000854 L 159.642868042,116.304000854" class="p0" fill="none" />
      <path d="M 106.429000854,0 L 106.429000854,14.538000107" class="p0" fill="none" />
      <path d="M 106.429000854,116.304000854 L 106.429000854,130.841995239" class="p0" fill="none" />
      <path d="M 159.642868042,0 L 212.857162476,0" class="p0" fill="none" />
      <path d="M 159.642868042,116.304000854 L 212.857162476,116.304000854" class="p0" fill="none" />
      <path d="M 159.643005371,116.304000854 L 159.643005371,130.841995239" class="p0" fill="none" />
      <path d="M 212.857162476,0 L 266.07144165,0" class="p0" fill="none" />
      <path d="M 212.857162476,116.304000854 L 266.07144165,116.304000854" class="p0" fill="none" />
      <path d="M 212.856994629,0 L 212.856994629,14.538000107" class="p0" fill="none" />
      <path d="M 212.856994629,116.304000854 L 212.856994629,130.841995239" class="p0" fill="none" />
      <path d="M 266.07144165,0 L 319.285736084,0" class="p0" fill="none" />
      <path d="M 266.07144165,116.304000854 L 319.285736084,116.304000854" class="p0" fill="none" />
      <path d="M 266.071014404,0 L 266.071014404,14.538000107" class="p0" fill="none" />
      <path d="M 266.071014404,116.304000854 L 266.071014404,130.841995239" class="p0" fill="none" />
      <path d="M 319.285736084,0 L 372.500030518,0" class="p0" fill="none" />
      <path d="M 319.285736084,116.304000854 L 372.500030518,116.304000854" class="p0" fill="none" />
      <path d="M 319.286010742,0 L 319.286010742,14.538000107" class="p0" fill="none" />
      <path d="M 319.286010742,116.304000854 L 319.286010742,130.841995239" class="p0" fill="none" />
      <path d="M 372.5,0 L 372.5,14.538000107" class="p0" fill="none" />
      <path d="M 372.5,116.304000854 L 372.5,130.841995239" class="p0" fill="none" />
      <path d="M 0,14.538000107 L 53.214290619,14.538000107" class="p0" fill="none" />
      <path d="M 0,130.841995239 L 53.214290619,130.841995239" class="p0" fill="none" />
      <path d="M 0,14.538000107 L 0,29.076000214" class="p0" fill="none" />
      <path d="M 0,130.841995239 L 0,145.379989624" class="p0" fill="none" />
      <path d="M 53.214290619,14.538000107 L 106.428581238,14.538000107" class="p0" fill="none" />
      <path d="M 53.214290619,130.841995239 L 106.428581238,130.841995239" class="p0" fill="none" />
      <path d="M 53.214000702,14.538000107 L 53.214000702,29.076000214" class="p0" fill="none" />
      <path d="M 53.214000702,130.841995239 L 53.214000702,145.379989624" class="p0" fill="none" />
      <path d="M 106.428581238,14.538000107 L 159.642868042,14.538000107" class="p0" fill="none" />
      <path d="M 106.428581238,130.841995239 L 159.642868042,130.841995239" class="p0" fill="none" />
      <path d="M 106.429000854,14.538000107 L 106.429000854,29.076000214" class="p0" fill="none" />
      <path d="M 106.429000854,130.841995239 L 106.429000854,145.379989624" class="p0" fill="none" />
      <path d="M 159.642868042,14.538000107 L 212.857162476,14.538000107" class="p0" fill="none" />
      <path d="M 159.642868042,130.841995239 L 212.857162476,130.841995239" class="p0" fill="none" />
      <path d="M 159.643005371,14.538000107 L 159.643005371,29.076000214" class="p0" fill="none" />
      <path d="M 159.643005371,130.841995239 L 159.643005371,145.379989624" class="p0" fill="none" />
      <path d="M 212.857162476,14.538000107 L 266.07144165,14.538000107" class="p0" fill="none" />
      <path d="M 212.857162476,130.841995239 L 266.07144165,130.841995239" class="p0" fill="none" />
      <path d="M 212.856994629,14.538000107 L 212.856994629,29.076000214" class="p0" fill="none" />
      <path d="M 212.856994629,130.841995239 L 212.856994629,145.379989624" class="p0" fill="none" />
      <path d="M 266.07144165,14.538000107 L 319.285736084,14.538000107" class="p0" fill="none" />
      <path d="M 266.07144165,130.841995239 L 319.285736084,130.841995239" class="p0" fill="none" />
      <path d="M 266.071014404,14.538000107 L 266.071014404,29.076000214" class="p0" fill="none" />
      <path d="M 266.071014404,130.841995239 L 266.071014404,145.379989624" class="p0" fill="none" />
      <path d="M 319.285736084,14.538000107 L 372.500030518,14.538000107" class="p0" fill="none" />
      <path d="M 319.285736084,130.841995239 L 372.500030518,130.841995239" class="p0" fill="none" />
      <path d="M 319.286010742,14.538000107 L 319.286010742,29.076000214" class="p0" fill="none" />
      <path d="M 319.286010742,130.841995239 L 319.286010742,145.379989624" class="p0" fill="none" />
      <path d="M 372.5,14.538000107 L 372.5,29.076000214" class="p0" fill="none" />
      <path d="M 372.5,130.841995239 L 372.5,145.379989624" class="p0" fill="none" />
      <path d="M 0,29.076000214 L 53.214290619,29.076000214" class="p0" fill="none" />
      <path d="M 0,145.380004883 L 53.214290619,145.380004883" class="p0" fill="none" />
      <path d="M 0,29.076000214 L 0,43.613998413" class="p0" fill="none" />
      <path d="M 0,145.380004883 L 0,159.917999268" class="p0" fill="none" />
      <path d="M 53.214290619,29.076000214 L 106.428581238,29.076000214" class="p0" fill="none" />
      <path d="M 53.214290619,145.380004883 L 106.428581238,145.380004883" class="p0" fill="none" />
      <path d="M 53.214000702,29.076000214 L 53.214000702,43.613998413" class="p0" fill="none" />
      <path d="M 53.214000702,145.380004883 L 53.214000702,159.917999268" class="p0" fill="none" />
      <path d="M 106.428581238,29.076000214 L 159.642868042,29.076000214" class="p0" fill="none" />
      <path d="M 106.428581238,145.380004883 L 159.642868042,145.380004883" class="p0" fill="none" />
      <path d="M 106.429000854,29.076000214 L 106.429000854,43.613998413" class="p0" fill="none" />
      <path d="M 106.429000854,145.380004883 L 106.429000854,159.917999268" class="p0" fill="none" />
      <path d="M 159.642868042,29.076000214 L 212.857162476,29.076000214" class="p0" fill="none" />
      <path d="M 159.642868042,145.380004883 L 212.857162476,145.380004883" class="p0" fill="none" />
      <path d="M 159.643005371,29.076000214 L 159.643005371,43.613998413" class="p0" fill="none" />
      <path d="M 159.643005371,145.380004883 L 159.643005371,159.917999268" class="p0" fill="none" />
      <path d="M 212.857162476,29.076000214 L 266.07144165,29.076000214" class="p0" fill="none" />
      <path d="M 212.857162476,145.380004883 L 266.07144165,145.380004883" class="p0" fill="none" />
      <path d="M 212.856994629,29.076000214 L 212.856994629,43.613998413" class="p0" fill="none" />
      <path d="M 212.856994629,145.380004883 L 212.856994629,159.917999268" class="p0" fill="none" />
      <path d="M 266.07144165,29.076000214 L 319.285736084,29.076000214" class="p0" fill="none" />
      <path d="M 266.07144165,145.380004883 L 319.285736084,145.380004883" class="p0" fill="none" />
      <path d="M 266.071014404,29.076000214 L 266.071014404,43.613998413" class="p0" fill="none" />
      <path d="M 266.071014404,145.380004883 L 266.071014404,159.917999268" class="p0" fill="none" />
      <path d="M 319.285736084,29.076000214 L 372.500030518,29.076000214" class="p0" fill="none" />
      <path d="M 319.285736084,145.380004883 L 372.500030518,145.380004883" class="p0" fill="none" />
      <path d="M 319.286010742,29.076000214 L 319.286010742,43.613998413" class="p0" fill="none" />
      <path d="M 319.286010742,145.380004883 L 319.286010742,159.917999268" class="p0" fill="none" />
      <path d="M 372.5,29.076000214 L 372.5,43.613998413" class="p0" fill="none" />
      <path d="M 372.5,145.380004883 L 372.5,159.917999268" class="p0" fill="none" />
      <path d="M 0,43.613998413 L 53.214290619,43.613998413" class="p0" fill="none" />
      <path d="M 0,159.917999268 L 53.214290619,159.917999268" class="p0" fill="none" />
      <path d="M 0,43.613998413 L 0,58.152000427" class="p0" fill="none" />
      <path d="M 53.214290619,43.613998413 L 106.428581238,43.613998413" class="p0" fill="none" />
      <path d="M 53.214290619,159.917999268 L 106.428581238,159.917999268" class="p0" fill="none" />
      <path d="M 53.214000702,43.613998413 L 53.214000702,58.152000427" class="p0" fill="none" />
      <path d="M 106.428581238,43.613998413 L 159.642868042,43.613998413" class="p0" fill="none" />
      <path d="M 106.428581238,159.917999268 L 159.642868042,159.917999268" class="p0" fill="none" />
      <path d="M 106.429000854,43.613998413 L 106.429000854,58.152000427" class="p0" fill="none" />
      <path d="M 159.642868042,43.613998413 L 212.857162476,43.613998413" class="p0" fill="none" />
      <path d="M 159.642868042,159.917999268 L 212.857162476,159.917999268" class="p0" fill="none" />
      <path d="M 159.643005371,43.613998413 L 159.643005371,58.152000427" class="p0" fill="none" />
      <path d="M 212.857162476,43.613998413 L 266.07144165,43.613998413" class="p0" fill="none" />
      <path d="M 212.857162476,159.917999268 L 266.07144165,159.917999268" class="p0" fill="none" />
      <path d="M 212.856994629,43.613998413 L 212.856994629,58.152000427" class="p0" fill="none" />
      <path d="M 266.07144165,43.613998413 L 319.285736084,43.613998413" class="p0" fill="none" />
      <path d="M 266.07144165,159.917999268 L 319.285736084,159.917999268" class="p0" fill="none" />
      <path d="M 266.071014404,43.613998413 L 266.071014404,58.152000427" class="p0" fill="none" />
      <path d="M 319.285736084,43.613998413 L 372.500030518,43.613998413" class="p0" fill="none" />
      <path d="M 319.285736084,159.917999268 L 372.500030518,159.917999268" class="p0" fill="none" />
      <path d="M 319.286010742,43.613998413 L 319.286010742,58.152000427" class="p0" fill="none" />
      <path d="M 372.5,43.613998413 L 372.5,58.152000427" class="p0" fill="none" />
      <path d="M 0,58.152000427 L 53.214290619,58.152000427" class="p0" fill="none" />
      <path d="M 0,58.152000427 L 0,72.690002441" class="p0" fill="none" />
      <path d="M 53.214290619,58.152000427 L 106.428581238,58.152000427" class="p0" fill="none" />
      <path d="M 53.214000702,58.152000427 L 53.214000702,72.690002441" class="p0" fill="none" />
      <path d="M 106.428581238,58.152000427 L 159.642868042,58.152000427" class="p0" fill="none" />
      <path d="M 106.429000854,58.152000427 L 106.429000854,72.690002441" class="p0" fill="none" />
      <path d="M 159.642868042,58.152000427 L 212.857162476,58.152000427" class="p0" fill="none" />
      <path d="M 159.643005371,58.152000427 L 159.643005371,72.690002441" class="p0" fill="none" />
      <path d="M 212.857162476,58.152000427 L 266.07144165,58.152000427" class="p0" fill="none" />
      <path d="M 212.856994629,58.152000427 L 212.856994629,72.690002441" class="p0" fill="none" />
      <path d="M 266.07144165,58.152000427 L 319.285736084,58.152000427" class="p0" fill="none" />
      <path d="M 266.071014404,58.152000427 L 266.071014404,72.690002441" class="p0" fill="none" />
      <path d="M 319.285736084,58.152000427 L 372.500030518,58.152000427" class="p0" fill="none" />
      <path d="M 319.286010742,58.152000427 L 319.286010742,72.690002441" class="p0" fill="none" />
      <path d="M 372.5,58.152000427 L 372.5,72.690002441" class="p0" fill="none" />
      <path d="M 0,72.690002441 L 53.214290619,72.690002441" class="p0" fill="none" />
      <path d="M 0,72.690002441 L 0,87.228004456" class="p0" fill="none" />
      <path d="M 53.214290619,72.690002441 L 106.428581238,72.690002441" class="p0" fill="none" />
      <path d="M 53.214000702,72.690002441 L 53.214000702,87.228004456" class="p0" fill="none" />
      <path d="M 106.428581238,72.690002441 L 159.642868042,72.690002441" class="p0" fill="none" />
      <path d="M 106.429000854,72.690002441 L 106.429000854,87.228004456" class="p0" fill="none" />
      <path d="M 159.642868042,72.690002441 L 212.857162476,72.690002441" class="p0" fill="none" />
      <path d="M 159.643005371,72.690002441 L 159.643005371,87.228004456" class="p0" fill="none" />
      <path d="M 212.857162476,72.690002441 L 266.07144165,72.690002441" class="p0" fill="none" />
      <path d="M 212.856994629,72.690002441 L 212.856994629,87.228004456" class="p0" fill="none" />
      <path d="M 266.07144165,72.690002441 L 319.285736084,72.690002441" class="p0" fill="none" />
      <path d="M 266.071014404,72.690002441 L 266.071014404,87.228004456" class="p0" fill="none" />
      <path d="M 319.285736084,72.690002441 L 372.500030518,72.690002441" class="p0" fill="none" />
      <path d="M 319.286010742,72.690002441 L 319.286010742,87.228004456" class="p0" fill="none" />
      <path d="M 372.5,72.690002441 L 372.5,87.228004456" class="p0" fill="none" />
      <path d="M 0,87.227996826 L 53.214290619,87.227996826" class="p0" fill="none" />
      <path d="M 0,87.227996826 L 0,101.76599884" class="p0" fill="none" />
      <path d="M 53.214290619,87.227996826 L 106.428581238,87.227996826" class="p0" fill="none" />
      <path d="M 53.214000702,87.227996826 L 53.214000702,101.76599884" class="p0" fill="none" />
      <path d="M 106.428581238,87.227996826 L 159.642868042,87.227996826" class="p0" fill="none" />
      <path d="M 106.429000854,87.227996826 L 106.429000854,101.76599884" class="p0" fill="none" />
      <path d="M 159.642868042,87.227996826 L 212.857162476,87.227996826" class="p0" fill="none" />
      <path d="M 159.643005371,87.227996826 L 159.643005371,101.76599884" class="p0" fill="none" />
      <path d="M 212.857162476,87.227996826 L 266.07144165,87.227996826" class="p0" fill="none" />
      <path d="M 212.856994629,87.227996826 L 212.856994629,101.76599884" class="p0" fill="none" />
      <path d="M 266.07144165,87.227996826 L 319.285736084,87.227996826" class="p0" fill="none" />
      <path d="M 266.071014404,87.227996826 L 266.071014404,101.76599884" class="p0" fill="none" />
      <path d="M 319.285736084,87.227996826 L 372.500030518,87.227996826" class="p0" fill="none" />
      <path d="M 319.286010742,87.227996826 L 319.286010742,101.76599884" class="p0" fill="none" />
      <path d="M 372.5,87.227996826 L 372.5,101.76599884" class="p0" fill="none" />
      <path d="M 0,101.76599884 L 53.214290619,101.76599884" class="p0" fill="none" />
      <path d="M 0,101.76599884 L 0,116.304000854" class="p0" fill="none" />
      <path d="M 53.214290619,101.76599884 L 106.428581238,101.76599884" class="p0" fill="none" />
      <path d="M 53.214000702,101.76599884 L 53.214000702,116.304000854" class="p0" fill="none" />
      <path d="M 106.428581238,101.76599884 L 159.642868042,101.76599884" class="p0" fill="none" />
      <path d="M 106.429000854,101.76599884 L 106.429000854,116.304000854" class="p0" fill="none" />
      <path d="M 159.642868042,101.76599884 L 212.857162476,101.76599884" class="p0" fill="none" />
      <path d="M 159.643005371,101.76599884 L 159.643005371,116.304000854" class="p0" fill="none" />
      <path d="M 212.857162476,101.76599884 L 266.07144165,101.76599884" class="p0" fill="none" />
      <path d="M 212.856994629,101.76599884 L 212.856994629,116.304000854" class="p0" fill="none" />
      <path d="M 266.07144165,101.76599884 L 319.285736084,101.76599884" class="p0" fill="none" />
      <path d="M 266.071014404,101.76599884 L 266.071014404,116.304000854" class="p0" fill="none" />
      <path d="M 319.285736084,101.76599884 L 372.500030518,101.76599884" class="p0" fill="none" />
      <path d="M 319.286010742,101.76599884 L 319.286010742,116.304000854" class="p0" fill="none" />
      <path d="M 372.5,101.76599884 L 372.5,116.304000854" class="p0" fill="none" />
     </g>
    </g>
    <defs>
     <clipPath id="CLIP2">
      <path d="M-0.5,-0.5 L373.5,-0.5 L373.5,160.5 L-0.5,160.5 Z " />
     </clipPath>
    </defs>
    <g clip-path="url(#CLIP2)">
     <g>
      <defs>
       <clipPath id="CLIP3">
        <path d="M0.25,0.25 L52.964290619,0.25 L52.964290619,14.288000107 L0.25,14.288000107 Z " />
       </clipPath>
      </defs>
      <g clip-path="url(#CLIP3)">
       <g>
        <g transform="matrix(1,0,0,1,1.075036168,30.287500381)">
         <text x="1" y="-18.881175995" class="f0">(</text>
         <text x="4.687187195" y="-18.881175995" class="f0">人</text>
         <text x="15.727187157" y="-18.881175995" class="f0">民</text>
         <text x="26.767187119" y="-18.881175995" class="f0">币</text>
         <text x="37.807186127" y="-18.881175995" class="f0">百</text>
         <text x="1" y="-2.889374971" class="f0">万</text>
         <text x="12.039999962" y="-2.889374971" class="f0">元</text>
         <text x="23.079999924" y="-2.889374971" class="f0">)</text>
        </g>
       </g>
      </g>
      <defs>
       <clipPath id="CLIP4">
        <path d="M106.678581238,0.25 L212.607162476,0.25 L212.607162476,14.288000107 L106.678581238,14.288000107 Z " />
       </clipPath>
      </defs>
      <g clip-path="url(#CLIP4)">
       <g>
        <g transform="matrix(1,0,0,1,107.503616333,14.295700073)">
         <text x="1" y="-2.889374971" class="f0">2018E</text>
        </g>
       </g>
      </g>
      <defs>
       <clipPath id="CLIP5">
        <path d="M266.32144165,0.25 L319.035736084,0.25 L319.035736084,14.288000107 L266.32144165,14.288000107 Z " />
       </clipPath>
      </defs>
      <g clip-path="url(#CLIP5)">
       <g>
        <g transform="matrix(1,0,0,1,267.146484375,14.295700073)">
         <text x="1" y="-2.889374971" class="f0">2019E</text>
        </g>
       </g>
      </g>
      <defs>
       <clipPath id="CLIP6">
        <path d="M53.464290619,14.788000107 L106.178581238,14.788000107 L106.178581238,28.826000214 L53.464290619,28.826000214 Z " />
       </clipPath>
      </defs>
      <g clip-path="url(#CLIP6)">
       <g>
        <g transform="matrix(1,0,0,1,54.289325714,28.83370018)">
         <text x="1" y="-2.889374971" class="f0">调</text>
         <text x="12.039999962" y="-2.889374971" class="f0">整</text>
         <text x="23.079999924" y="-2.889374971" class="f0">前</text>
        </g>
       </g>
      </g>
      <defs>
       <clipPath id="CLIP7">
        <path d="M106.678581238,14.788000107 L159.392868042,14.788000107 L159.392868042,28.826000214 L106.678581238,28.826000214 Z " />
       </clipPath>
      </defs>
      <g clip-path="url(#CLIP7)">
       <g>
        <g transform="matrix(1,0,0,1,107.503616333,28.83370018)">
         <text x="1" y="-2.889374971" class="f0">调</text>
         <text x="12.039999962" y="-2.889374971" class="f0">整</text>
         <text x="23.079999924" y="-2.889374971" class="f0">后</text>
        </g>
       </g>
      </g>
      <defs>
       <clipPath id="CLIP8">
        <path d="M159.892868042,14.788000107 L212.607162476,14.788000107 L212.607162476,28.826000214 L159.892868042,28.826000214 Z " />
       </clipPath>
      </defs>
      <g clip-path="url(#CLIP8)">
       <g>
        <g transform="matrix(1,0,0,1,160.717910767,28.83370018)">
         <text x="1" y="-2.889374971" class="f0">调</text>
         <text x="12.039999962" y="-2.889374971" class="f0">整</text>
         <text x="23.079999924" y="-2.889374971" class="f0">幅</text>
         <text x="34.119998932" y="-2.889374971" class="f0">度</text>
        </g>
       </g>
      </g>
      <defs>
       <clipPath id="CLIP9">
        <path d="M213.107162476,14.788000107 L265.82144165,14.788000107 L265.82144165,28.826000214 L213.107162476,28.826000214 Z " />
       </clipPath>
      </defs>
      <g clip-path="url(#CLIP9)">
       <g>
        <g transform="matrix(1,0,0,1,213.9322052,28.83370018)">
         <text x="1" y="-2.889374971" class="f0">调</text>
         <text x="12.039999962" y="-2.889374971" class="f0">整</text>
         <text x="23.079999924" y="-2.889374971" class="f0">前</text>
        </g>
       </g>
      </g>
      <defs>
       <clipPath id="CLIP10">
        <path d="M266.32144165,14.788000107 L319.035736084,14.788000107 L319.035736084,28.826000214 L266.32144165,28.826000214 Z " />
       </clipPath>
      </defs>
      <g clip-path="url(#CLIP10)">
       <g>
        <g transform="matrix(1,0,0,1,267.146484375,28.83370018)">
         <text x="1" y="-2.889374971" class="f0">调</text>
         <text x="12.039999962" y="-2.889374971" class="f0">整</text>
         <text x="23.079999924" y="-2.889374971" class="f0">后</text>
        </g>
       </g>
      </g>
      <defs>
       <clipPath id="CLIP11">
        <path d="M319.535736084,14.788000107 L372.250030518,14.788000107 L372.250030518,28.826000214 L319.535736084,28.826000214 Z " />
       </clipPath>
      </defs>
      <g clip-path="url(#CLIP11)">
       <g>
        <g transform="matrix(1,0,0,1,320.360778809,28.83370018)">
         <text x="1" y="-2.889374971" class="f0">调</text>
         <text x="12.039999962" y="-2.889374971" class="f0">整</text>
         <text x="23.079999924" y="-2.889374971" class="f0">幅</text>
         <text x="34.119998932" y="-2.889374971" class="f0">度</text>
        </g>
       </g>
      </g>
      <defs>
       <clipPath id="CLIP12">
        <path d="M0.25,29.326000214 L52.964290619,29.326000214 L52.964290619,43.363998413 L0.25,43.363998413 Z " />
       </clipPath>
      </defs>
      <g clip-path="url(#CLIP12)">
       <g>
        <g transform="matrix(1,0,0,1,1.075036168,43.371700287)">
         <text x="1" y="-2.889374971" class="f0">营</text>
         <text x="12.039999962" y="-2.889374971" class="f0">业</text>
         <text x="23.079999924" y="-2.889374971" class="f0">收</text>
         <text x="34.119998932" y="-2.889374971" class="f0">入</text>
        </g>
       </g>
      </g>
      <defs>
       <clipPath id="CLIP13">
        <path d="M53.464290619,29.326000214 L106.178581238,29.326000214 L106.178581238,43.363998413 L53.464290619,43.363998413 Z " />
       </clipPath>
      </defs>
      <g clip-path="url(#CLIP13)">
       <g>
        <g transform="matrix(1,0,0,1,54.289325714,43.371700287)">
         <text x="1" y="-2.889374971" class="f0">158</text>
        </g>
       </g>
      </g>
      <defs>
       <clipPath id="CLIP14">
        <path d="M106.678581238,29.326000214 L159.392868042,29.326000214 L159.392868042,43.363998413 L106.678581238,43.363998413 Z " />
       </clipPath>
      </defs>
      <g clip-path="url(#CLIP14)">
       <g>
        <g transform="matrix(1,0,0,1,107.503616333,43.371700287)">
         <text x="1" y="-2.889374971" class="f0">132</text>
        </g>
       </g>
      </g>
      <defs>
       <clipPath id="CLIP15">
        <path d="M159.892868042,29.326000214 L212.607162476,29.326000214 L212.607162476,43.363998413 L159.892868042,43.363998413 Z " />
       </clipPath>
      </defs>
      <g clip-path="url(#CLIP15)">
       <g>
        <g transform="matrix(1,0,0,1,160.717910767,43.371700287)">
         <text x="1" y="-2.889374971" class="f0">-16.3%</text>
        </g>
       </g>
      </g>
      <defs>
       <clipPath id="CLIP16">
        <path d="M213.107162476,29.326000214 L265.82144165,29.326000214 L265.82144165,43.363998413 L213.107162476,43.363998413 Z " />
       </clipPath>
      </defs>
      <g clip-path="url(#CLIP16)">
       <g>
        <g transform="matrix(1,0,0,1,213.9322052,43.371700287)">
         <text x="1" y="-2.889374971" class="f0">186</text>
        </g>
       </g>
      </g>
      <defs>
       <clipPath id="CLIP17">
        <path d="M266.32144165,29.326000214 L319.035736084,29.326000214 L319.035736084,43.363998413 L266.32144165,43.363998413 Z " />
       </clipPath>
      </defs>
      <g clip-path="url(#CLIP17)">
       <g>
        <g transform="matrix(1,0,0,1,267.146484375,43.371700287)">
         <text x="1" y="-2.889374971" class="f0">138</text>
        </g>
       </g>
      </g>
      <defs>
       <clipPath id="CLIP18">
        <path d="M319.535736084,29.326000214 L372.250030518,29.326000214 L372.250030518,43.363998413 L319.535736084,43.363998413 Z " />
       </clipPath>
      </defs>
      <g clip-path="url(#CLIP18)">
       <g>
        <g transform="matrix(1,0,0,1,320.360778809,43.371700287)">
         <text x="1" y="-2.889374971" class="f0">-25.7%</text>
        </g>
       </g>
      </g>
      <defs>
       <clipPath id="CLIP19">
        <path d="M0.25,43.863998413 L52.964290619,43.863998413 L52.964290619,57.902000427 L0.25,57.902000427 Z " />
       </clipPath>
      </defs>
      <g clip-path="url(#CLIP19)">
       <g>
        <g transform="matrix(1,0,0,1,1.075036168,57.909698486)">
         <text x="1" y="-2.889374971" class="f0">毛</text>
         <text x="12.039999962" y="-2.889374971" class="f0">利</text>
         <text x="23.079999924" y="-2.889374971" class="f0">润</text>
        </g>
       </g>
      </g>
      <defs>
       <clipPath id="CLIP20">
        <path d="M53.464290619,43.863998413 L106.178581238,43.863998413 L106.178581238,57.902000427 L53.464290619,57.902000427 Z " />
       </clipPath>
      </defs>
      <g clip-path="url(#CLIP20)">
       <g>
        <g transform="matrix(1,0,0,1,54.289325714,57.909698486)">
         <text x="1" y="-2.889374971" class="f0">100</text>
        </g>
       </g>
      </g>
      <defs>
       <clipPath id="CLIP21">
        <path d="M106.678581238,43.863998413 L159.392868042,43.863998413 L159.392868042,57.902000427 L106.678581238,57.902000427 Z " />
       </clipPath>
      </defs>
      <g clip-path="url(#CLIP21)">
       <g>
        <g transform="matrix(1,0,0,1,107.503616333,57.909698486)">
         <text x="1" y="-2.889374971" class="f0">85</text>
        </g>
       </g>
      </g>
      <defs>
       <clipPath id="CLIP22">
        <path d="M159.892868042,43.863998413 L212.607162476,43.863998413 L212.607162476,57.902000427 L159.892868042,57.902000427 Z " />
       </clipPath>
      </defs>
      <g clip-path="url(#CLIP22)">
       <g>
        <g transform="matrix(1,0,0,1,160.717910767,57.909698486)">
         <text x="1" y="-2.889374971" class="f0">-15.1%</text>
        </g>
       </g>
      </g>
      <defs>
       <clipPath id="CLIP23">
        <path d="M213.107162476,43.863998413 L265.82144165,43.863998413 L265.82144165,57.902000427 L213.107162476,57.902000427 Z " />
       </clipPath>
      </defs>
      <g clip-path="url(#CLIP23)">
       <g>
        <g transform="matrix(1,0,0,1,213.9322052,57.909698486)">
         <text x="1" y="-2.889374971" class="f0">124</text>
        </g>
       </g>
      </g>
      <defs>
       <clipPath id="CLIP24">
        <path d="M266.32144165,43.863998413 L319.035736084,43.863998413 L319.035736084,57.902000427 L266.32144165,57.902000427 Z " />
       </clipPath>
      </defs>
      <g clip-path="url(#CLIP24)">
       <g>
        <g transform="matrix(1,0,0,1,267.146484375,57.909698486)">
         <text x="1" y="-2.889374971" class="f0">91</text>
        </g>
       </g>
      </g>
      <defs>
       <clipPath id="CLIP25">
        <path d="M319.535736084,43.863998413 L372.250030518,43.863998413 L372.250030518,57.902000427 L319.535736084,57.902000427 Z " />
       </clipPath>
      </defs>
      <g clip-path="url(#CLIP25)">
       <g>
        <g transform="matrix(1,0,0,1,320.360778809,57.909698486)">
         <text x="1" y="-2.889374971" class="f0">-26.0%</text>
        </g>
       </g>
      </g>
      <defs>
       <clipPath id="CLIP26">
        <path d="M0.25,58.402000427 L52.964290619,58.402000427 L52.964290619,72.440002441 L0.25,72.440002441 Z " />
       </clipPath>
      </defs>
      <g clip-path="url(#CLIP26)">
       <g>
        <g transform="matrix(1,0,0,1,1.075036168,72.4477005)">
         <text x="1" y="-2.889374971" class="f0">营</text>
         <text x="12.039999962" y="-2.889374971" class="f0">业</text>
         <text x="23.079999924" y="-2.889374971" class="f0">利</text>
         <text x="34.119998932" y="-2.889374971" class="f0">润</text>
        </g>
       </g>
      </g>
      <defs>
       <clipPath id="CLIP27">
        <path d="M53.464290619,58.402000427 L106.178581238,58.402000427 L106.178581238,72.440002441 L53.464290619,72.440002441 Z " />
       </clipPath>
      </defs>
      <g clip-path="url(#CLIP27)">
       <g>
        <g transform="matrix(1,0,0,1,54.289325714,72.4477005)">
         <text x="1" y="-2.889374971" class="f0">73</text>
        </g>
       </g>
      </g>
      <defs>
       <clipPath id="CLIP28">
        <path d="M106.678581238,58.402000427 L159.392868042,58.402000427 L159.392868042,72.440002441 L106.678581238,72.440002441 Z " />
       </clipPath>
      </defs>
      <g clip-path="url(#CLIP28)">
       <g>
        <g transform="matrix(1,0,0,1,107.503616333,72.4477005)">
         <text x="1" y="-2.889374971" class="f0">61</text>
        </g>
       </g>
      </g>
      <defs>
       <clipPath id="CLIP29">
        <path d="M159.892868042,58.402000427 L212.607162476,58.402000427 L212.607162476,72.440002441 L159.892868042,72.440002441 Z " />
       </clipPath>
      </defs>
      <g clip-path="url(#CLIP29)">
       <g>
        <g transform="matrix(1,0,0,1,160.717910767,72.4477005)">
         <text x="1" y="-2.889374971" class="f0">-15.5%</text>
        </g>
       </g>
      </g>
      <defs>
       <clipPath id="CLIP30">
        <path d="M213.107162476,58.402000427 L265.82144165,58.402000427 L265.82144165,72.440002441 L213.107162476,72.440002441 Z " />
       </clipPath>
      </defs>
      <g clip-path="url(#CLIP30)">
       <g>
        <g transform="matrix(1,0,0,1,213.9322052,72.4477005)">
         <text x="1" y="-2.889374971" class="f0">92</text>
        </g>
       </g>
      </g>
      <defs>
       <clipPath id="CLIP31">
        <path d="M266.32144165,58.402000427 L319.035736084,58.402000427 L319.035736084,72.440002441 L266.32144165,72.440002441 Z " />
       </clipPath>
      </defs>
      <g clip-path="url(#CLIP31)">
       <g>
        <g transform="matrix(1,0,0,1,267.146484375,72.4477005)">
         <text x="1" y="-2.889374971" class="f0">67</text>
        </g>
       </g>
      </g>
      <defs>
       <clipPath id="CLIP32">
        <path d="M319.535736084,58.402000427 L372.250030518,58.402000427 L372.250030518,72.440002441 L319.535736084,72.440002441 Z " />
       </clipPath>
      </defs>
      <g clip-path="url(#CLIP32)">
       <g>
        <g transform="matrix(1,0,0,1,320.360778809,72.4477005)">
         <text x="1" y="-2.889374971" class="f0">-26.9%</text>
        </g>
       </g>
      </g>
      <defs>
       <clipPath id="CLIP33">
        <path d="M0.25,72.940002441 L52.964290619,72.940002441 L52.964290619,86.978004456 L0.25,86.978004456 Z " />
       </clipPath>
      </defs>
      <g clip-path="url(#CLIP33)">
       <g>
        <g transform="matrix(1,0,0,1,1.075036168,102.977508545)">
         <text x="1" y="-18.881175995" class="f0">归</text>
         <text x="12.039999962" y="-18.881175995" class="f0">母</text>
         <text x="23.079999924" y="-18.881175995" class="f0">净</text>
         <text x="34.119998932" y="-18.881175995" class="f0">利</text>
         <text x="1" y="-2.889374971" class="f0">润</text>
        </g>
       </g>
      </g>
      <defs>
       <clipPath id="CLIP34">
        <path d="M53.464290619,72.940002441 L106.178581238,72.940002441 L106.178581238,86.978004456 L53.464290619,86.978004456 Z " />
       </clipPath>
      </defs>
      <g clip-path="url(#CLIP34)">
       <g>
        <g transform="matrix(1,0,0,1,54.289325714,86.985702515)">
         <text x="1" y="-2.889374971" class="f0">58</text>
        </g>
       </g>
      </g>
      <defs>
       <clipPath id="CLIP35">
        <path d="M106.678581238,72.940002441 L159.392868042,72.940002441 L159.392868042,86.978004456 L106.678581238,86.978004456 Z " />
       </clipPath>
      </defs>
      <g clip-path="url(#CLIP35)">
       <g>
        <g transform="matrix(1,0,0,1,107.503616333,86.985702515)">
         <text x="1" y="-2.889374971" class="f0">49</text>
        </g>
       </g>
      </g>
      <defs>
       <clipPath id="CLIP36">
        <path d="M159.892868042,72.940002441 L212.607162476,72.940002441 L212.607162476,86.978004456 L159.892868042,86.978004456 Z " />
       </clipPath>
      </defs>
      <g clip-path="url(#CLIP36)">
       <g>
        <g transform="matrix(1,0,0,1,160.717910767,86.985702515)">
         <text x="1" y="-2.889374971" class="f0">-14.8%</text>
        </g>
       </g>
      </g>
      <defs>
       <clipPath id="CLIP37">
        <path d="M213.107162476,72.940002441 L265.82144165,72.940002441 L265.82144165,86.978004456 L213.107162476,86.978004456 Z " />
       </clipPath>
      </defs>
      <g clip-path="url(#CLIP37)">
       <g>
        <g transform="matrix(1,0,0,1,213.9322052,86.985702515)">
         <text x="1" y="-2.889374971" class="f0">74</text>
        </g>
       </g>
      </g>
      <defs>
       <clipPath id="CLIP38">
        <path d="M266.32144165,72.940002441 L319.035736084,72.940002441 L319.035736084,86.978004456 L266.32144165,86.978004456 Z " />
       </clipPath>
      </defs>
      <g clip-path="url(#CLIP38)">
       <g>
        <g transform="matrix(1,0,0,1,267.146484375,86.985702515)">
         <text x="1" y="-2.889374971" class="f0">54</text>
        </g>
       </g>
      </g>
      <defs>
       <clipPath id="CLIP39">
        <path d="M319.535736084,72.940002441 L372.250030518,72.940002441 L372.250030518,86.978004456 L319.535736084,86.978004456 Z " />
       </clipPath>
      </defs>
      <g clip-path="url(#CLIP39)">
       <g>
        <g transform="matrix(1,0,0,1,320.360778809,86.985702515)">
         <text x="1" y="-2.889374971" class="f0">-26.5%</text>
        </g>
       </g>
      </g>
      <defs>
       <clipPath id="CLIP40">
        <path d="M0.25,87.477996826 L52.964290619,87.477996826 L52.964290619,101.51599884 L0.25,101.51599884 Z " />
       </clipPath>
      </defs>
      <g clip-path="url(#CLIP40)">
       <g>
        <g transform="matrix(1,0,0,1,1.075036168,133.507293701)">
         <text x="1" y="-34.872974396" class="f0">全</text>
         <text x="12.039999962" y="-34.872974396" class="f0">面</text>
         <text x="23.079999924" y="-34.872974396" class="f0">摊</text>
         <text x="34.119998932" y="-34.872974396" class="f0">薄</text>
         <text x="1" y="-18.881175995" class="f0">每</text>
         <text x="12.039999962" y="-18.881175995" class="f0">股</text>
         <text x="23.079999924" y="-18.881175995" class="f0">收</text>
         <text x="34.119998932" y="-18.881175995" class="f0">益</text>
         <text x="1" y="-2.889374971" class="f0">（</text>
         <text x="12.039999962" y="-2.889374971" class="f0">元</text>
         <text x="23.079999924" y="-2.889374971" class="f0">）</text>
        </g>
       </g>
      </g>
      <defs>
       <clipPath id="CLIP41">
        <path d="M53.464290619,87.477996826 L106.178581238,87.477996826 L106.178581238,101.51599884 L53.464290619,101.51599884 Z " />
       </clipPath>
      </defs>
      <g clip-path="url(#CLIP41)">
       <g>
        <g transform="matrix(1,0,0,1,54.289325714,101.523696899)">
         <text x="1" y="-2.889374971" class="f0">0.16</text>
        </g>
       </g>
      </g>
      <defs>
       <clipPath id="CLIP42">
        <path d="M106.678581238,87.477996826 L159.392868042,87.477996826 L159.392868042,101.51599884 L106.678581238,101.51599884 Z " />
       </clipPath>
      </defs>
      <g clip-path="url(#CLIP42)">
       <g>
        <g transform="matrix(1,0,0,1,107.503616333,101.523696899)">
         <text x="1" y="-2.889374971" class="f0">0.14</text>
        </g>
       </g>
      </g>
      <defs>
       <clipPath id="CLIP43">
        <path d="M159.892868042,87.477996826 L212.607162476,87.477996826 L212.607162476,101.51599884 L159.892868042,101.51599884 Z " />
       </clipPath>
      </defs>
      <g clip-path="url(#CLIP43)">
       <g>
        <g transform="matrix(1,0,0,1,160.717910767,101.523696899)">
         <text x="1" y="-2.889374971" class="f0">-14.8%</text>
        </g>
       </g>
      </g>
      <defs>
       <clipPath id="CLIP44">
        <path d="M213.107162476,87.477996826 L265.82144165,87.477996826 L265.82144165,101.51599884 L213.107162476,101.51599884 Z " />
       </clipPath>
      </defs>
      <g clip-path="url(#CLIP44)">
       <g>
        <g transform="matrix(1,0,0,1,213.9322052,101.523696899)">
         <text x="1" y="-2.889374971" class="f0">0.21</text>
        </g>
       </g>
      </g>
      <defs>
       <clipPath id="CLIP45">
        <path d="M266.32144165,87.477996826 L319.035736084,87.477996826 L319.035736084,101.51599884 L266.32144165,101.51599884 Z " />
       </clipPath>
      </defs>
      <g clip-path="url(#CLIP45)">
       <g>
        <g transform="matrix(1,0,0,1,267.146484375,101.523696899)">
         <text x="1" y="-2.889374971" class="f0">0.15</text>
        </g>
       </g>
      </g>
      <defs>
       <clipPath id="CLIP46">
        <path d="M319.535736084,87.477996826 L372.250030518,87.477996826 L372.250030518,101.51599884 L319.535736084,101.51599884 Z " />
       </clipPath>
      </defs>
      <g clip-path="url(#CLIP46)">
       <g>
        <g transform="matrix(1,0,0,1,320.360778809,101.523696899)">
         <text x="1" y="-2.889374971" class="f0">-26.5%</text>
        </g>
       </g>
      </g>
      <defs>
       <clipPath id="CLIP47">
        <path d="M0.25,116.554000854 L52.964290619,116.554000854 L52.964290619,130.591995239 L0.25,130.591995239 Z " />
       </clipPath>
      </defs>
      <g clip-path="url(#CLIP47)">
       <g>
        <g transform="matrix(1,0,0,1,1.075036168,130.599700928)">
         <text x="1" y="-2.889374971" class="f0">毛</text>
         <text x="12.039999962" y="-2.889374971" class="f0">利</text>
         <text x="23.079999924" y="-2.889374971" class="f0">率</text>
        </g>
       </g>
      </g>
      <defs>
       <clipPath id="CLIP48">
        <path d="M53.464290619,116.554000854 L106.178581238,116.554000854 L106.178581238,130.591995239 L53.464290619,130.591995239 Z " />
       </clipPath>
      </defs>
      <g clip-path="url(#CLIP48)">
       <g>
        <g transform="matrix(1,0,0,1,54.289325714,130.599700928)">
         <text x="1" y="-2.889374971" class="f0">63.2%</text>
        </g>
       </g>
      </g>
      <defs>
       <clipPath id="CLIP49">
        <path d="M106.678581238,116.554000854 L159.392868042,116.554000854 L159.392868042,130.591995239 L106.678581238,130.591995239 Z " />
       </clipPath>
      </defs>
      <g clip-path="url(#CLIP49)">
       <g>
        <g transform="matrix(1,0,0,1,107.503616333,130.599700928)">
         <text x="1" y="-2.889374971" class="f0">64.1%</text>
        </g>
       </g>
      </g>
      <defs>
       <clipPath id="CLIP50">
        <path d="M159.892868042,116.554000854 L212.607162476,116.554000854 L212.607162476,130.591995239 L159.892868042,130.591995239 Z " />
       </clipPath>
      </defs>
      <g clip-path="url(#CLIP50)">
       <g>
        <g transform="matrix(1,0,0,1,160.717910767,130.599700928)">
         <text x="1" y="-2.889374971" class="f0">0.9%</text>
        </g>
       </g>
      </g>
      <defs>
       <clipPath id="CLIP51">
        <path d="M213.107162476,116.554000854 L265.82144165,116.554000854 L265.82144165,130.591995239 L213.107162476,130.591995239 Z " />
       </clipPath>
      </defs>
      <g clip-path="url(#CLIP51)">
       <g>
        <g transform="matrix(1,0,0,1,213.9322052,130.599700928)">
         <text x="1" y="-2.889374971" class="f0">66.6%</text>
        </g>
       </g>
      </g>
      <defs>
       <clipPath id="CLIP52">
        <path d="M266.32144165,116.554000854 L319.035736084,116.554000854 L319.035736084,130.591995239 L266.32144165,130.591995239 Z " />
       </clipPath>
      </defs>
      <g clip-path="url(#CLIP52)">
       <g>
        <g transform="matrix(1,0,0,1,267.146484375,130.599700928)">
         <text x="1" y="-2.889374971" class="f0">66.4%</text>
        </g>
       </g>
      </g>
      <defs>
       <clipPath id="CLIP53">
        <path d="M319.535736084,116.554000854 L372.250030518,116.554000854 L372.250030518,130.591995239 L319.535736084,130.591995239 Z " />
       </clipPath>
      </defs>
      <g clip-path="url(#CLIP53)">
       <g>
        <g transform="matrix(1,0,0,1,320.360778809,130.599700928)">
         <text x="1" y="-2.889374971" class="f0">-0.2%</text>
        </g>
       </g>
      </g>
      <defs>
       <clipPath id="CLIP54">
        <path d="M0.25,131.091995239 L52.964290619,131.091995239 L52.964290619,145.129989624 L0.25,145.129989624 Z " />
       </clipPath>
      </defs>
      <g clip-path="url(#CLIP54)">
       <g>
        <g transform="matrix(1,0,0,1,1.075036168,161.129501343)">
         <text x="1" y="-18.881175995" class="f0">营</text>
         <text x="12.039999962" y="-18.881175995" class="f0">业</text>
         <text x="23.079999924" y="-18.881175995" class="f0">利</text>
         <text x="34.119998932" y="-18.881175995" class="f0">润</text>
         <text x="1" y="-2.889374971" class="f0">率</text>
        </g>
       </g>
      </g>
      <defs>
       <clipPath id="CLIP55">
        <path d="M53.464290619,131.091995239 L106.178581238,131.091995239 L106.178581238,145.129989624 L53.464290619,145.129989624 Z " />
       </clipPath>
      </defs>
      <g clip-path="url(#CLIP55)">
       <g>
        <g transform="matrix(1,0,0,1,54.289325714,145.137710571)">
         <text x="1" y="-2.889374971" class="f0">46.2%</text>
        </g>
       </g>
      </g>
      <defs>
       <clipPath id="CLIP56">
        <path d="M106.678581238,131.091995239 L159.392868042,131.091995239 L159.392868042,145.129989624 L106.678581238,145.129989624 Z " />
       </clipPath>
      </defs>
      <g clip-path="url(#CLIP56)">
       <g>
        <g transform="matrix(1,0,0,1,107.503616333,145.137710571)">
         <text x="1" y="-2.889374971" class="f0">46.6%</text>
        </g>
       </g>
      </g>
      <defs>
       <clipPath id="CLIP57">
        <path d="M159.892868042,131.091995239 L212.607162476,131.091995239 L212.607162476,145.129989624 L159.892868042,145.129989624 Z " />
       </clipPath>
      </defs>
      <g clip-path="url(#CLIP57)">
       <g>
        <g transform="matrix(1,0,0,1,160.717910767,145.137710571)">
         <text x="1" y="-2.889374971" class="f0">0.4%</text>
        </g>
       </g>
      </g>
      <defs>
       <clipPath id="CLIP58">
        <path d="M213.107162476,131.091995239 L265.82144165,131.091995239 L265.82144165,145.129989624 L213.107162476,145.129989624 Z " />
       </clipPath>
      </defs>
      <g clip-path="url(#CLIP58)">
       <g>
        <g transform="matrix(1,0,0,1,213.9322052,145.137710571)">
         <text x="1" y="-2.889374971" class="f0">49.6%</text>
        </g>
       </g>
      </g>
      <defs>
       <clipPath id="CLIP59">
        <path d="M266.32144165,131.091995239 L319.035736084,131.091995239 L319.035736084,145.129989624 L266.32144165,145.129989624 Z " />
       </clipPath>
      </defs>
      <g clip-path="url(#CLIP59)">
       <g>
        <g transform="matrix(1,0,0,1,267.146484375,145.137710571)">
         <text x="1" y="-2.889374971" class="f0">48.9%</text>
        </g>
       </g>
      </g>
      <defs>
       <clipPath id="CLIP60">
        <path d="M319.535736084,131.091995239 L372.250030518,131.091995239 L372.250030518,145.129989624 L319.535736084,145.129989624 Z " />
       </clipPath>
      </defs>
      <g clip-path="url(#CLIP60)">
       <g>
        <g transform="matrix(1,0,0,1,320.360778809,145.137710571)">
         <text x="1" y="-2.889374971" class="f0">-0.7%</text>
        </g>
       </g>
      </g>
      <defs>
       <clipPath id="CLIP61">
        <path d="M0.25,145.630004883 L52.964290619,145.630004883 L52.964290619,159.667999268 L0.25,159.667999268 Z " />
       </clipPath>
      </defs>
      <g clip-path="url(#CLIP61)">
       <g>
        <g transform="matrix(1,0,0,1,1.075036168,159.675720215)">
         <text x="1" y="-2.889374971" class="f0">净</text>
         <text x="12.039999962" y="-2.889374971" class="f0">利</text>
         <text x="23.079999924" y="-2.889374971" class="f0">润</text>
         <text x="34.119998932" y="-2.889374971" class="f0">率</text>
        </g>
       </g>
      </g>
      <defs>
       <clipPath id="CLIP62">
        <path d="M53.464290619,145.630004883 L106.178581238,145.630004883 L106.178581238,159.667999268 L53.464290619,159.667999268 Z " />
       </clipPath>
      </defs>
      <g clip-path="url(#CLIP62)">
       <g>
        <g transform="matrix(1,0,0,1,54.289325714,159.675720215)">
         <text x="1" y="-2.889374971" class="f0">36.8%</text>
        </g>
       </g>
      </g>
      <defs>
       <clipPath id="CLIP63">
        <path d="M106.678581238,145.630004883 L159.392868042,145.630004883 L159.392868042,159.667999268 L106.678581238,159.667999268 Z " />
       </clipPath>
      </defs>
      <g clip-path="url(#CLIP63)">
       <g>
        <g transform="matrix(1,0,0,1,107.503616333,159.675720215)">
         <text x="1" y="-2.889374971" class="f0">37.4%</text>
        </g>
       </g>
      </g>
      <defs>
       <clipPath id="CLIP64">
        <path d="M159.892868042,145.630004883 L212.607162476,145.630004883 L212.607162476,159.667999268 L159.892868042,159.667999268 Z " />
       </clipPath>
      </defs>
      <g clip-path="url(#CLIP64)">
       <g>
        <g transform="matrix(1,0,0,1,160.717910767,159.675720215)">
         <text x="1" y="-2.889374971" class="f0">0.7%</text>
        </g>
       </g>
      </g>
      <defs>
       <clipPath id="CLIP65">
        <path d="M213.107162476,145.630004883 L265.82144165,145.630004883 L265.82144165,159.667999268 L213.107162476,159.667999268 Z " />
       </clipPath>
      </defs>
      <g clip-path="url(#CLIP65)">
       <g>
        <g transform="matrix(1,0,0,1,213.9322052,159.675720215)">
         <text x="1" y="-2.889374971" class="f0">39.6%</text>
        </g>
       </g>
      </g>
      <defs>
       <clipPath id="CLIP66">
        <path d="M266.32144165,145.630004883 L319.035736084,145.630004883 L319.035736084,159.667999268 L266.32144165,159.667999268 Z " />
       </clipPath>
      </defs>
      <g clip-path="url(#CLIP66)">
       <g>
        <g transform="matrix(1,0,0,1,267.146484375,159.675720215)">
         <text x="1" y="-2.889374971" class="f0">39.2%</text>
        </g>
       </g>
      </g>
      <defs>
       <clipPath id="CLIP67">
        <path d="M319.535736084,145.630004883 L372.250030518,145.630004883 L372.250030518,159.667999268 L319.535736084,159.667999268 Z " />
       </clipPath>
      </defs>
      <g clip-path="url(#CLIP67)">
       <g>
        <g transform="matrix(1,0,0,1,320.360778809,159.675720215)">
         <text x="1" y="-2.889374971" class="f0">-0.4%</text>
        </g>
       </g>
      </g>
     </g>
    </g>
    <defs>
     <clipPath id="CLIP68">
      <path d="M-0.5,-0.5 L373.5,-0.5 L373.5,160.5 L-0.5,160.5 Z " />
     </clipPath>
    </defs>
    <g clip-path="url(#CLIP68)">
     <g />
    </g>
   </g>
   <g />
   <g />
   <g />
   <g>
    <g>
     <g />
     <g shape-rendering="crispEdges" />
    </g>
    <g>
     <g />
    </g>
    <g>
     <g />
    </g>
   </g>
   <g>
    <text x="10" y="10" class="f1">Evaluation Only. Created with Aspose.Cells for Python via Java.Copyright 2003 - 2023 Aspose Pty Ltd.</text>
   </g>
  </g>
 </g>
 <defs />
 <defs>
  <style type="text/css">
   <![CDATA[
   
.f0
{
font-family:Microsoft YaHei;
font-size:11.039999962px;
fill:#000000;
}

.f1
{
font-family:Arial;
font-size:10px;
fill:#FF0000;
}

   
.p0
{
stroke:#FF0000;
stroke-width:2.907599926px;
stroke-linecap:butt;
stroke-linejoin:miter;
}

   ]]></style>
 </defs>
</svg>
