<?xml version="1.0" encoding="UTF-8" standalone="yes"?>
<svg xmlns="http://www.w3.org/2000/svg" xmlns:xlink="http://www.w3.org/1999/xlink" width="612pt" height="792pt">
 <g id="SFixTitle" />
 <g id="SContent">
  <g transform="scale(1.33333)">
   <rect width="100%" height="100%" fill="white" />
   <g>
    <g>
     <g />
     <g shape-rendering="crispEdges" />
    </g>
    <g>
     <g />
    </g>
    <g>
     <g />
    </g>
   </g>
   <g transform="matrix(1,0,0,1,50.400001526,54)">
    <defs>
     <clipPath id="CLIP0">
      <path d="M-0.5,-0.5 L413.5,-0.5 L413.5,393.5 L-0.5,393.5 Z " />
     </clipPath>
    </defs>
    <g clip-path="url(#CLIP0)">
     <g />
     <g shape-rendering="crispEdges" />
    </g>
    <defs>
     <clipPath id="CLIP1">
      <path d="M-0.5,-1.453799963 L413.5,-1.453799963 L413.5,394.546203613 L-0.5,394.546203613 Z " />
     </clipPath>
    </defs>
    <g clip-path="url(#CLIP1)">
     <g>
      <g />
     </g>
    </g>
    <defs>
     <clipPath id="CLIP2">
      <path d="M-0.5,-0.5 L413.5,-0.5 L413.5,393.5 L-0.5,393.5 Z " />
     </clipPath>
    </defs>
    <g clip-path="url(#CLIP2)">
     <g>
      <defs>
       <clipPath id="CLIP3">
        <path d="M0.25,0.25 L309.360412598,0.25 L309.360412598,14.288000107 L0.25,14.288000107 Z " />
       </clipPath>
      </defs>
      <g clip-path="url(#CLIP3)">
       <g>
        <g transform="matrix(1,0,0,1,1.075036168,46.27930069)">
         <text x="1" y="-34.872974396" class="f0">P.O.</text>
         <text x="22.066562653" y="-34.872974396" class="f0"> </text>
         <text x="25.333280563" y="-34.872974396" class="f0">1534</text>
         <text x="51.22984314" y="-34.872974396" class="f0"> </text>
         <text x="54.496562958" y="-34.872974396" class="f0">REV.19/79PURCHASINGPURCHASE</text>
         <text x="1" y="-18.881175995" class="f0">REQUISITIONLT-10-79STATIONARYPLEASE</text>
         <text x="227.718902588" y="-18.881175995" class="f0"> </text>
         <text x="230.985626221" y="-18.881175995" class="f0">INCLUDE</text>
         <text x="1" y="-2.889374971" class="f0">ONLY</text>
         <text x="31.300703049" y="-2.889374971" class="f0"> </text>
         <text x="34.567420959" y="-2.889374971" class="f0">ONE</text>
         <text x="58.609607697" y="-2.889374971" class="f0"> </text>
         <text x="61.876327515" y="-2.889374971" class="f0">TYPE</text>
         <text x="87.69203186" y="-2.889374971" class="f0"> </text>
         <text x="90.958747864" y="-2.889374971" class="f0">OF</text>
         <text x="105.820701599" y="-2.889374971" class="f0"> </text>
         <text x="109.087417603" y="-2.889374971" class="f0">MATERIAL</text>
         <text x="163.926239014" y="-2.889374971" class="f0"> </text>
         <text x="167.192962646" y="-2.889374971" class="f0">ON</text>
         <text x="185.165313721" y="-2.889374971" class="f0"> </text>
         <text x="188.432037354" y="-2.889374971" class="f0">THIS</text>
         <text x="212.916259766" y="-2.889374971" class="f0"> </text>
         <text x="216.182983398" y="-2.889374971" class="f0">REQUISITION</text>
        </g>
       </g>
      </g>
      <defs>
       <clipPath id="CLIP4">
        <path d="M309.860412598,0.25 L412.563903809,0.25 L412.563903809,14.288000107 L309.860412598,14.288000107 Z " />
       </clipPath>
      </defs>
      <g clip-path="url(#CLIP4)">
       <g>
        <g transform="matrix(1,0,0,1,310.685455322,30.287500381)">
         <text x="1" y="-18.881175995" class="f0">DATEApril</text>
         <text x="54.485782623" y="-18.881175995" class="f0"> </text>
         <text x="57.752502441" y="-18.881175995" class="f0">19</text>
         <text x="70.700782776" y="-18.881175995" class="f0">，</text>
         <text x="1" y="-2.889374971" class="f0">1988</text>
        </g>
       </g>
      </g>
      <defs>
       <clipPath id="CLIP5">
        <path d="M0.25,14.788000107 L309.360412598,14.788000107 L309.360412598,28.826000214 L0.25,28.826000214 Z " />
       </clipPath>
      </defs>
      <g clip-path="url(#CLIP5)">
       <g>
        <g transform="matrix(1,0,0,1,1.075036168,60.817302704)">
         <text x="1" y="-34.872974396" class="f0">VENDORFOR</text>
         <text x="70.194061279" y="-34.872974396" class="f0"> </text>
         <text x="73.460777283" y="-34.872974396" class="f0">PURCHASING</text>
         <text x="146.158752441" y="-34.872974396" class="f0"> </text>
         <text x="149.425476074" y="-34.872974396" class="f0">DEPARTMENT</text>
         <text x="224.12336731" y="-34.872974396" class="f0"> </text>
         <text x="227.390090942" y="-34.872974396" class="f0">USE</text>
         <text x="1" y="-18.881175995" class="f0">ONLYPiedmont</text>
         <text x="82.597892761" y="-18.881175995" class="f0"> </text>
         <text x="85.864608765" y="-18.881175995" class="f0">Research</text>
         <text x="133.361404419" y="-18.881175995" class="f0"> </text>
         <text x="136.628128052" y="-18.881175995" class="f0">Laboratory</text>
         <text x="193.973602295" y="-18.881175995" class="f0"> </text>
         <text x="197.240325928" y="-18.881175995" class="f0">2748</text>
         <text x="223.136886597" y="-18.881175995" class="f0"> </text>
         <text x="226.403610229" y="-18.881175995" class="f0">Patterson</text>
         <text x="276.897583008" y="-18.881175995" class="f0"> </text>
         <text x="280.164306641" y="-18.881175995" class="f0">Ave.,</text>
         <text x="1" y="-2.889374971" class="f0">Greensboro,N</text>
        </g>
       </g>
      </g>
      <defs>
       <clipPath id="CLIP6">
        <path d="M309.860412598,14.788000107 L412.563903809,14.788000107 L412.563903809,28.826000214 L309.860412598,28.826000214 Z " />
       </clipPath>
      </defs>
      <g clip-path="url(#CLIP6)">
       <g>
        <g transform="matrix(1,0,0,1,310.685455322,28.83370018)">
         <text x="1" y="-2.889374971" class="f0">ORDER</text>
         <text x="38.890701294" y="-2.889374971" class="f0"> </text>
         <text x="42.157421112" y="-2.889374971" class="f0">NO.C</text>
        </g>
       </g>
      </g>
      <defs>
       <clipPath id="CLIP7">
        <path d="M0.25,29.326000214 L309.360412598,29.326000214 L309.360412598,43.363998413 L0.25,43.363998413 Z " />
       </clipPath>
      </defs>
      <g clip-path="url(#CLIP7)">
       <g>
        <g transform="matrix(1,0,0,1,1.075036168,43.371700287)">
         <text x="1" y="-2.889374971" class="f0">27407NET</text>
         <text x="54.744529724" y="-2.889374971" class="f0"> </text>
         <text x="58.011249542" y="-2.889374971" class="f0">15N/ATERMSN/AF.O.B.VIA</text>
        </g>
       </g>
      </g>
      <defs>
       <clipPath id="CLIP8">
        <path d="M309.860412598,29.326000214 L412.563903809,29.326000214 L412.563903809,43.363998413 L309.860412598,43.363998413 Z " />
       </clipPath>
      </defs>
      <g clip-path="url(#CLIP8)">
       <g>
        <g transform="matrix(1,0,0,1,310.685455322,75.355300903)">
         <text x="1" y="-34.872974396" class="f0">Prev.</text>
         <text x="26.686326981" y="-34.872974396" class="f0"> </text>
         <text x="29.953044891" y="-34.872974396" class="f0">or</text>
         <text x="1" y="-18.881175995" class="f0">Recommended</text>
         <text x="1" y="-2.889374971" class="f0">Suppller</text>
        </g>
       </g>
      </g>
      <defs>
       <clipPath id="CLIP9">
        <path d="M0.25,43.863998413 L257.758666992,43.863998413 L257.758666992,57.902000427 L0.25,57.902000427 Z " />
       </clipPath>
      </defs>
      <g clip-path="url(#CLIP9)">
       <g>
        <g transform="matrix(1,0,0,1,1.075036168,73.901504517)">
         <text x="1" y="-18.881175995" class="f0">SHIP</text>
         <text x="25.910078049" y="-18.881175995" class="f0"> </text>
         <text x="29.176795959" y="-18.881175995" class="f0">TO</text>
         <text x="44.502342224" y="-18.881175995" class="f0"> </text>
         <text x="47.769062042" y="-18.881175995" class="f0">(DEPT.,</text>
         <text x="84.33367157" y="-18.881175995" class="f0"> </text>
         <text x="87.600387573" y="-18.881175995" class="f0">BRANCH)Lorillard</text>
         <text x="181.181640625" y="-18.881175995" class="f0"> </text>
         <text x="184.448364258" y="-18.881175995" class="f0">Research</text>
         <text x="1" y="-2.889374971" class="f0">CenterN.</text>
         <text x="47.67742157" y="-2.889374971" class="f0"> </text>
         <text x="50.944141388" y="-2.889374971" class="f0">A.</text>
         <text x="61.369609833" y="-2.889374971" class="f0"> </text>
         <text x="64.636329651" y="-2.889374971" class="f0">Thaggard</text>
        </g>
       </g>
      </g>
      <defs>
       <clipPath id="CLIP10">
        <path d="M258.258666992,43.863998413 L412.563873291,43.863998413 L412.563873291,57.902000427 L258.258666992,57.902000427 Z " />
       </clipPath>
      </defs>
      <g clip-path="url(#CLIP10)">
       <g>
        <g transform="matrix(1,0,0,1,259.083709717,57.909698486)">
         <text x="1" y="-2.889374971" class="f0">DATE</text>
         <text x="29.575702667" y="-2.889374971" class="f0"> </text>
         <text x="32.842422485" y="-2.889374971" class="f0">WANTEDAs</text>
         <text x="94.505783081" y="-2.889374971" class="f0"> </text>
         <text x="97.772499084" y="-2.889374971" class="f0">required</text>
        </g>
       </g>
      </g>
      <defs>
       <clipPath id="CLIP11">
        <path d="M0.25,58.402000427 L412.563903809,58.402000427 L412.563903809,72.440002441 L0.25,72.440002441 Z " />
       </clipPath>
      </defs>
      <g clip-path="url(#CLIP11)">
       <g>
        <g transform="matrix(1,0,0,1,1.075036168,72.4477005)">
         <text x="1" y="-2.889374971" class="f0">420</text>
         <text x="20.422422409" y="-2.889374971" class="f0"> </text>
         <text x="23.68914032" y="-2.889374971" class="f0">English</text>
         <text x="61.407344818" y="-2.889374971" class="f0"> </text>
         <text x="64.674064636" y="-2.889374971" class="f0">St.,</text>
         <text x="80.473983765" y="-2.889374971" class="f0"> </text>
         <text x="83.740699768" y="-2.889374971" class="f0">Greensboro,</text>
         <text x="148.568359375" y="-2.889374971" class="f0"> </text>
         <text x="151.835083008" y="-2.889374971" class="f0">NC</text>
         <text x="168.195632935" y="-2.889374971" class="f0"> </text>
         <text x="171.462356567" y="-2.889374971" class="f0">27405</text>
        </g>
       </g>
      </g>
      <defs>
       <clipPath id="CLIP12">
        <path d="M0.25,72.940002441 L51.351737976,72.940002441 L51.351737976,86.978004456 L0.25,86.978004456 Z " />
       </clipPath>
      </defs>
      <g clip-path="url(#CLIP12)">
       <g>
        <g transform="matrix(1,0,0,1,1.075036168,102.977508545)">
         <text x="1" y="-18.881175995" class="f0">QUANTI</text>
         <text x="1" y="-2.889374971" class="f0">TY</text>
        </g>
       </g>
      </g>
      <defs>
       <clipPath id="CLIP13">
        <path d="M51.851737976,72.940002441 L102.953475952,72.940002441 L102.953475952,86.978004456 L51.851737976,86.978004456 Z " />
       </clipPath>
      </defs>
      <g clip-path="url(#CLIP13)">
       <g>
        <g transform="matrix(1,0,0,1,52.676773071,86.985702515)">
         <text x="1" y="-2.889374971" class="f0">CODE</text>
        </g>
       </g>
      </g>
      <defs>
       <clipPath id="CLIP14">
        <path d="M103.453475952,72.940002441 L360.962158203,72.940002441 L360.962158203,86.978004456 L103.453475952,86.978004456 Z " />
       </clipPath>
      </defs>
      <g clip-path="url(#CLIP14)">
       <g>
        <g transform="matrix(1,0,0,1,104.278511047,86.985702515)">
         <text x="1" y="-2.889374971" class="f0">DESCRIPTION</text>
        </g>
       </g>
      </g>
      <defs>
       <clipPath id="CLIP15">
        <path d="M361.462158203,72.940002441 L412.563903809,72.940002441 L412.563903809,86.978004456 L361.462158203,86.978004456 Z " />
       </clipPath>
      </defs>
      <g clip-path="url(#CLIP15)">
       <g>
        <g transform="matrix(1,0,0,1,362.287200928,102.977508545)">
         <text x="1" y="-18.881175995" class="f0">UNIT</text>
         <text x="1" y="-2.889374971" class="f0">PRICE</text>
        </g>
       </g>
      </g>
      <defs>
       <clipPath id="CLIP16">
        <path d="M51.851737976,87.477996826 L102.953475952,87.477996826 L102.953475952,101.51599884 L51.851737976,101.51599884 Z " />
       </clipPath>
      </defs>
      <g clip-path="url(#CLIP16)">
       <g>
        <g transform="matrix(1,0,0,1,52.676773071,117.51550293)">
         <text x="1" y="-18.881175995" class="f0">This</text>
         <text x="22.174375534" y="-18.881175995" class="f0"> </text>
         <text x="25.441093445" y="-18.881175995" class="f0">is</text>
         <text x="1" y="-2.889374971" class="f0">your</text>
        </g>
       </g>
      </g>
      <defs>
       <clipPath id="CLIP17">
        <path d="M103.453475952,87.477996826 L360.962158203,87.477996826 L360.962158203,101.51599884 L103.453475952,101.51599884 Z " />
       </clipPath>
      </defs>
      <g clip-path="url(#CLIP17)">
       <g>
        <g transform="matrix(1,0,0,1,104.278511047,101.523696899)">
         <text x="1" y="-2.889374971" class="f0">authoxization</text>
         <text x="72.770782471" y="-2.889374971" class="f0"> </text>
         <text x="76.037498474" y="-2.889374971" class="f0">to</text>
         <text x="87.169136047" y="-2.889374971" class="f0"> </text>
         <text x="90.435852051" y="-2.889374971" class="f0">prepare</text>
         <text x="131.59866333" y="-2.889374971" class="f0"> </text>
         <text x="134.865386963" y="-2.889374971" class="f0">cigarette</text>
         <text x="181.472732544" y="-2.889374971" class="f0"> </text>
         <text x="184.739456177" y="-2.889374971" class="f0">smoke</text>
         <text x="219.487426758" y="-2.889374971" class="f0"> </text>
         <text x="222.754150391" y="-2.889374971" class="f0">con</text>
        </g>
       </g>
      </g>
      <defs>
       <clipPath id="CLIP18">
        <path d="M361.462158203,87.477996826 L412.563903809,87.477996826 L412.563903809,101.51599884 L361.462158203,101.51599884 Z " />
       </clipPath>
      </defs>
      <g clip-path="url(#CLIP18)">
       <g>
        <g transform="matrix(1,0,0,1,362.287200928,101.523696899)">
         <text x="1" y="-2.889374971" class="f0">densate</text>
        </g>
       </g>
      </g>
      <defs>
       <clipPath id="CLIP19">
        <path d="M51.851737976,102.01599884 L102.953475952,102.01599884 L102.953475952,116.054000854 L51.851737976,116.054000854 Z " />
       </clipPath>
      </defs>
      <g clip-path="url(#CLIP19)">
       <g>
        <g transform="matrix(1,0,0,1,52.676773071,132.053497314)">
         <text x="1" y="-18.881175995" class="f0">accordin</text>
         <text x="1" y="-2.889374971" class="f0">g</text>
         <text x="8.061717987" y="-2.889374971" class="f0"> </text>
         <text x="11.328436852" y="-2.889374971" class="f0">to</text>
        </g>
       </g>
      </g>
      <defs>
       <clipPath id="CLIP20">
        <path d="M103.453475952,102.01599884 L412.563903809,102.01599884 L412.563903809,116.054000854 L103.453475952,116.054000854 Z " />
       </clipPath>
      </defs>
      <g clip-path="url(#CLIP20)">
       <g>
        <g transform="matrix(1,0,0,1,104.278511047,116.061698914)">
         <text x="1" y="-2.889374971" class="f0">the</text>
         <text x="18.174531937" y="-2.889374971" class="f0"> </text>
         <text x="21.441249847" y="-2.889374971" class="f0">protocol</text>
         <text x="66.350547791" y="-2.889374971" class="f0"> </text>
         <text x="69.617263794" y="-2.889374971" class="f0">"Standard</text>
         <text x="122.256713867" y="-2.889374971" class="f0"> </text>
         <text x="125.523429871" y="-2.889374971" class="f0">Operating</text>
         <text x="179.068511963" y="-2.889374971" class="f0"> </text>
         <text x="182.335235596" y="-2.889374971" class="f0">Procedure</text>
         <text x="236.467895508" y="-2.889374971" class="f0"> </text>
         <text x="239.734619141" y="-2.889374971" class="f0">for</text>
         <text x="254.796020508" y="-2.889374971" class="f0"> </text>
         <text x="258.062744141" y="-2.889374971" class="f0">the</text>
        </g>
       </g>
      </g>
      <defs>
       <clipPath id="CLIP21">
        <path d="M51.851737976,116.554000854 L102.953475952,116.554000854 L102.953475952,130.591995239 L51.851737976,130.591995239 Z " />
       </clipPath>
      </defs>
      <g clip-path="url(#CLIP21)">
       <g>
        <g transform="matrix(1,0,0,1,52.676773071,146.591506958)">
         <text x="1" y="-18.881175995" class="f0">Preparat</text>
         <text x="1" y="-2.889374971" class="f0">ion</text>
        </g>
       </g>
      </g>
      <defs>
       <clipPath id="CLIP22">
        <path d="M103.453475952,116.554000854 L360.962158203,116.554000854 L360.962158203,130.591995239 L103.453475952,130.591995239 Z " />
       </clipPath>
      </defs>
      <g clip-path="url(#CLIP22)">
       <g>
        <g transform="matrix(1,0,0,1,104.278511047,146.591506958)">
         <text x="1" y="-18.881175995" class="f0">of</text>
         <text x="11.845937729" y="-18.881175995" class="f0"> </text>
         <text x="15.112656593" y="-18.881175995" class="f0">Smoke</text>
         <text x="51.122032166" y="-18.881175995" class="f0"> </text>
         <text x="54.388751984" y="-18.881175995" class="f0">Condensate</text>
         <text x="117.313522339" y="-18.881175995" class="f0"> </text>
         <text x="120.580238342" y="-18.881175995" class="f0">for</text>
         <text x="135.641647339" y="-18.881175995" class="f0"> </text>
         <text x="138.908370972" y="-18.881175995" class="f0">Mouse</text>
         <text x="174.890792847" y="-18.881175995" class="f0"> </text>
         <text x="178.157516479" y="-18.881175995" class="f0">Skin</text>
         <text x="1" y="-2.889374971" class="f0">Bioassay,"</text>
        </g>
       </g>
      </g>
      <defs>
       <clipPath id="CLIP23">
        <path d="M361.462158203,116.554000854 L412.563903809,116.554000854 L412.563903809,130.591995239 L361.462158203,130.591995239 Z " />
       </clipPath>
      </defs>
      <g clip-path="url(#CLIP23)">
       <g>
        <g transform="matrix(1,0,0,1,362.287200928,130.599700928)">
         <text x="1" y="-2.889374971" class="f0">for</text>
         <text x="16.061405182" y="-2.889374971" class="f0"> </text>
         <text x="19.328123093" y="-2.889374971" class="f0">the</text>
        </g>
       </g>
      </g>
      <defs>
       <clipPath id="CLIP24">
        <path d="M51.851737976,131.091995239 L102.953475952,131.091995239 L102.953475952,145.129989624 L51.851737976,145.129989624 Z " />
       </clipPath>
      </defs>
      <g clip-path="url(#CLIP24)">
       <g>
        <g transform="matrix(1,0,0,1,52.676773071,161.129501343)">
         <text x="1" y="-18.881175995" class="f0">period</text>
         <text x="1" y="-2.889374971" class="f0">April</text>
        </g>
       </g>
      </g>
      <defs>
       <clipPath id="CLIP25">
        <path d="M103.453475952,131.091995239 L360.962158203,131.091995239 L360.962158203,145.129989624 L103.453475952,145.129989624 Z " />
       </clipPath>
      </defs>
      <g clip-path="url(#CLIP25)">
       <g>
        <g transform="matrix(1,0,0,1,104.278511047,161.129501343)">
         <text x="1" y="-18.881175995" class="f0">1,</text>
         <text x="10.131718636" y="-18.881175995" class="f0"> </text>
         <text x="13.3984375" y="-18.881175995" class="f0">1988</text>
         <text x="39.294998169" y="-18.881175995" class="f0"> </text>
         <text x="42.561717987" y="-18.881175995" class="f0">through</text>
         <text x="85.368667603" y="-18.881175995" class="f0"> </text>
         <text x="88.635383606" y="-18.881175995" class="f0">December</text>
         <text x="142.983673096" y="-18.881175995" class="f0"> </text>
         <text x="146.250396729" y="-18.881175995" class="f0">31</text>
         <text x="159.198684692" y="-18.881175995" class="f0">，</text>
         <text x="170.238677979" y="-18.881175995" class="f0"> </text>
         <text x="173.505401611" y="-18.881175995" class="f0">1988</text>
         <text x="199.40196228" y="-18.881175995" class="f0">。</text>
         <text x="1" y="-2.889374971" class="f0">Condensa</text>
        </g>
       </g>
      </g>
      <defs>
       <clipPath id="CLIP26">
        <path d="M361.462158203,131.091995239 L412.563903809,131.091995239 L412.563903809,145.129989624 L361.462158203,145.129989624 Z " />
       </clipPath>
      </defs>
      <g clip-path="url(#CLIP26)">
       <g>
        <g transform="matrix(1,0,0,1,362.287200928,145.137710571)">
         <text x="1" y="-2.889374971" class="f0">e</text>
         <text x="7.263906002" y="-2.889374971" class="f0"> </text>
         <text x="10.53062439" y="-2.889374971" class="f0">will</text>
         <text x="28.060935974" y="-2.889374971" class="f0"> </text>
         <text x="31.327653885" y="-2.889374971" class="f0">be</text>
        </g>
       </g>
      </g>
      <defs>
       <clipPath id="CLIP27">
        <path d="M51.851737976,145.630004883 L102.953475952,145.630004883 L102.953475952,159.667999268 L51.851737976,159.667999268 Z " />
       </clipPath>
      </defs>
      <g clip-path="url(#CLIP27)">
       <g>
        <g transform="matrix(1,0,0,1,52.676773071,175.667510986)">
         <text x="1" y="-18.881175995" class="f0">prepare</text>
         <text x="1" y="-2.889374971" class="f0">d</text>
         <text x="8.061717987" y="-2.889374971" class="f0"> </text>
         <text x="11.328436852" y="-2.889374971" class="f0">aco</text>
        </g>
       </g>
      </g>
      <defs>
       <clipPath id="CLIP28">
        <path d="M103.453475952,145.630004883 L360.962158203,145.630004883 L360.962158203,159.667999268 L103.453475952,159.667999268 Z " />
       </clipPath>
      </defs>
      <g clip-path="url(#CLIP28)">
       <g>
        <g transform="matrix(1,0,0,1,104.278511047,159.675720215)">
         <text x="1" y="-2.889374971" class="f0">ording</text>
         <text x="36.098358154" y="-2.889374971" class="f0"> </text>
         <text x="39.365077972" y="-2.889374971" class="f0">to</text>
         <text x="50.49671936" y="-2.889374971" class="f0"> </text>
         <text x="53.763439178" y="-2.889374971" class="f0">a</text>
         <text x="59.865627289" y="-2.889374971" class="f0"> </text>
         <text x="63.132347107" y="-2.889374971" class="f0">time</text>
         <text x="86.791801453" y="-2.889374971" class="f0"> </text>
         <text x="90.058517456" y="-2.889374971" class="f0">schedule</text>
         <text x="136.832977295" y="-2.889374971" class="f0"> </text>
         <text x="140.099700928" y="-2.889374971" class="f0">provided</text>
         <text x="187.504852295" y="-2.889374971" class="f0"> </text>
         <text x="190.771575928" y="-2.889374971" class="f0">by</text>
         <text x="203.66595459" y="-2.889374971" class="f0"> </text>
         <text x="206.932678223" y="-2.889374971" class="f0">Lorilla</text>
        </g>
       </g>
      </g>
      <defs>
       <clipPath id="CLIP29">
        <path d="M361.462158203,145.630004883 L412.563903809,145.630004883 L412.563903809,159.667999268 L361.462158203,159.667999268 Z " />
       </clipPath>
      </defs>
      <g clip-path="url(#CLIP29)">
       <g>
        <g transform="matrix(1,0,0,1,362.287200928,159.675720215)">
         <text x="1" y="-2.889374971" class="f0">rd.</text>
         <text x="14.934765816" y="-2.889374971" class="f0"> </text>
         <text x="18.20148468" y="-2.889374971" class="f0">The</text>
        </g>
       </g>
      </g>
      <defs>
       <clipPath id="CLIP30">
        <path d="M51.851737976,160.167999268 L102.953475952,160.167999268 L102.953475952,174.205993652 L51.851737976,174.205993652 Z " />
       </clipPath>
      </defs>
      <g clip-path="url(#CLIP30)">
       <g>
        <g transform="matrix(1,0,0,1,52.676773071,190.205505371)">
         <text x="1" y="-18.881175995" class="f0">fixed</text>
         <text x="1" y="-2.889374971" class="f0">price</text>
        </g>
       </g>
      </g>
      <defs>
       <clipPath id="CLIP31">
        <path d="M103.453475952,160.167999268 L360.962158203,160.167999268 L360.962158203,174.205993652 L103.453475952,174.205993652 Z " />
       </clipPath>
      </defs>
      <g clip-path="url(#CLIP31)">
       <g>
        <g transform="matrix(1,0,0,1,104.278511047,174.2137146)">
         <text x="1" y="-2.889374971" class="f0">for</text>
         <text x="16.061405182" y="-2.889374971" class="f0"> </text>
         <text x="19.328123093" y="-2.889374971" class="f0">condensate</text>
         <text x="80.403900146" y="-2.889374971" class="f0"> </text>
         <text x="83.67061615" y="-2.889374971" class="f0">collection</text>
         <text x="134.773742676" y="-2.889374971" class="f0"> </text>
         <text x="138.040466309" y="-2.889374971" class="f0">will</text>
         <text x="155.570770264" y="-2.889374971" class="f0"> </text>
         <text x="158.837493896" y="-2.889374971" class="f0">be</text>
         <text x="172.15234375" y="-2.889374971" class="f0"> </text>
         <text x="175.419067383" y="-2.889374971" class="f0">at</text>
         <text x="185.634307861" y="-2.889374971" class="f0"> </text>
         <text x="188.901031494" y="-2.889374971" class="f0">a</text>
         <text x="195.003219604" y="-2.889374971" class="f0"> </text>
         <text x="198.269943237" y="-2.889374971" class="f0">rate</text>
         <text x="218.964553833" y="-2.889374971" class="f0"> </text>
         <text x="222.231277466" y="-2.889374971" class="f0">o</text>
        </g>
       </g>
      </g>
      <defs>
       <clipPath id="CLIP32">
        <path d="M51.851737976,174.705993652 L102.953475952,174.705993652 L102.953475952,188.743988037 L51.851737976,188.743988037 Z " />
       </clipPath>
      </defs>
      <g clip-path="url(#CLIP32)">
       <g>
        <g transform="matrix(1,0,0,1,52.676773071,204.743499756)">
         <text x="1" y="-18.881175995" class="f0">$1,750/1</text>
         <text x="1" y="-2.889374971" class="f0">0,00</text>
        </g>
       </g>
      </g>
      <defs>
       <clipPath id="CLIP33">
        <path d="M103.453475952,174.705993652 L360.962158203,174.705993652 L360.962158203,188.743988037 L103.453475952,188.743988037 Z " />
       </clipPath>
      </defs>
      <g clip-path="url(#CLIP33)">
       <g>
        <g transform="matrix(1,0,0,1,104.278511047,188.751708984)">
         <text x="1" y="-2.889374971" class="f0">0</text>
         <text x="7.474140644" y="-2.889374971" class="f0"> </text>
         <text x="10.740859032" y="-2.889374971" class="f0">cigarettes</text>
         <text x="62.458515167" y="-2.889374971" class="f0"> </text>
         <text x="65.725234985" y="-2.889374971" class="f0">smoked.</text>
         <text x="110.192504883" y="-2.889374971" class="f0"> </text>
         <text x="113.459220886" y="-2.889374971" class="f0">Piedmont</text>
         <text x="164.756408691" y="-2.889374971" class="f0"> </text>
         <text x="168.023132324" y="-2.889374971" class="f0">will</text>
         <text x="185.553436279" y="-2.889374971" class="f0"> </text>
         <text x="188.820159912" y="-2.889374971" class="f0">pay</text>
         <text x="207.816726685" y="-2.889374971" class="f0"> </text>
         <text x="211.083450317" y="-2.889374971" class="f0">the</text>
         <text x="228.257980347" y="-2.889374971" class="f0"> </text>
         <text x="231.524703979" y="-2.889374971" class="f0">c</text>
        </g>
       </g>
      </g>
      <defs>
       <clipPath id="CLIP34">
        <path d="M361.462158203,174.705993652 L412.563903809,174.705993652 L412.563903809,188.743988037 L361.462158203,188.743988037 Z " />
       </clipPath>
      </defs>
      <g clip-path="url(#CLIP34)">
       <g>
        <g transform="matrix(1,0,0,1,362.287200928,188.751708984)">
         <text x="1" y="-2.889374971" class="f0">ost</text>
         <text x="17.241952896" y="-2.889374971" class="f0"> </text>
         <text x="20.508670807" y="-2.889374971" class="f0">of</text>
        </g>
       </g>
      </g>
      <defs>
       <clipPath id="CLIP35">
        <path d="M51.851737976,189.244003296 L102.953475952,189.244003296 L102.953475952,203.281997681 L51.851737976,203.281997681 Z " />
       </clipPath>
      </defs>
      <g clip-path="url(#CLIP35)">
       <g>
        <g transform="matrix(1,0,0,1,52.676773071,219.281509399)">
         <text x="1" y="-18.881175995" class="f0">consum</text>
         <text x="1" y="-2.889374971" class="f0">able</text>
        </g>
       </g>
      </g>
      <defs>
       <clipPath id="CLIP36">
        <path d="M103.453475952,189.244003296 L360.962158203,189.244003296 L360.962158203,203.281997681 L103.453475952,203.281997681 Z " />
       </clipPath>
      </defs>
      <g clip-path="url(#CLIP36)">
       <g>
        <g transform="matrix(1,0,0,1,104.278511047,203.289718628)">
         <text x="1" y="-2.889374971" class="f0">upplies.</text>
         <text x="41.812419891" y="-2.889374971" class="f0"> </text>
         <text x="45.079139709" y="-2.889374971" class="f0">This</text>
         <text x="66.253517151" y="-2.889374971" class="f0"> </text>
         <text x="69.520233154" y="-2.889374971" class="f0">work</text>
         <text x="95.481483459" y="-2.889374971" class="f0"> </text>
         <text x="98.748199463" y="-2.889374971" class="f0">is</text>
         <text x="106.796401978" y="-2.889374971" class="f0"> </text>
         <text x="110.063117981" y="-2.889374971" class="f0">to</text>
         <text x="121.194755554" y="-2.889374971" class="f0"> </text>
         <text x="124.461471558" y="-2.889374971" class="f0">be</text>
         <text x="137.776321411" y="-2.889374971" class="f0"> </text>
         <text x="141.043045044" y="-2.889374971" class="f0">conducted</text>
         <text x="197.240310669" y="-2.889374971" class="f0"> </text>
         <text x="200.507034302" y="-2.889374971" class="f0">in</text>
         <text x="210.247894287" y="-2.889374971" class="f0"> </text>
         <text x="213.51461792" y="-2.889374971" class="f0">acc</text>
        </g>
       </g>
      </g>
      <defs>
       <clipPath id="CLIP37">
        <path d="M361.462158203,189.244003296 L412.563903809,189.244003296 L412.563903809,203.281997681 L361.462158203,203.281997681 Z " />
       </clipPath>
      </defs>
      <g clip-path="url(#CLIP37)">
       <g>
        <g transform="matrix(1,0,0,1,362.287200928,203.289718628)">
         <text x="1" y="-2.889374971" class="f0">ordance</text>
        </g>
       </g>
      </g>
      <defs>
       <clipPath id="CLIP38">
        <path d="M51.851737976,203.781997681 L102.953475952,203.781997681 L102.953475952,217.819992065 L51.851737976,217.819992065 Z " />
       </clipPath>
      </defs>
      <g clip-path="url(#CLIP38)">
       <g>
        <g transform="matrix(1,0,0,1,52.676773071,233.819503784)">
         <text x="1" y="-18.881175995" class="f0">with</text>
         <text x="23.565156937" y="-18.881175995" class="f0"> </text>
         <text x="26.831874847" y="-18.881175995" class="f0">the</text>
         <text x="1" y="-2.889374971" class="f0">Ded</text>
        </g>
       </g>
      </g>
      <defs>
       <clipPath id="CLIP39">
        <path d="M103.453475952,203.781997681 L360.962158203,203.781997681 L360.962158203,217.819992065 L103.453475952,217.819992065 Z " />
       </clipPath>
      </defs>
      <g clip-path="url(#CLIP39)">
       <g>
        <g transform="matrix(1,0,0,1,104.278511047,233.819503784)">
         <text x="1" y="-18.881175995" class="f0">ember</text>
         <text x="35.138828278" y="-18.881175995" class="f0"> </text>
         <text x="38.405548096" y="-18.881175995" class="f0">10</text>
         <text x="51.35382843" y="-18.881175995" class="f0">，</text>
         <text x="62.393829346" y="-18.881175995" class="f0"> </text>
         <text x="65.660545349" y="-18.881175995" class="f0">1984</text>
         <text x="91.557106018" y="-18.881175995" class="f0"> </text>
         <text x="94.823822021" y="-18.881175995" class="f0">formal</text>
         <text x="129.26991272" y="-18.881175995" class="f0"> </text>
         <text x="132.536636353" y="-18.881175995" class="f0">agreement</text>
         <text x="189.968353271" y="-18.881175995" class="f0"> </text>
         <text x="193.235076904" y="-18.881175995" class="f0">between</text>
         <text x="1" y="-2.889374971" class="f0">Piedm</text>
        </g>
       </g>
      </g>
      <defs>
       <clipPath id="CLIP40">
        <path d="M361.462158203,203.781997681 L412.563903809,203.781997681 L412.563903809,217.819992065 L361.462158203,217.819992065 Z " />
       </clipPath>
      </defs>
      <g clip-path="url(#CLIP40)">
       <g>
        <g transform="matrix(1,0,0,1,362.287200928,233.819503784)">
         <text x="1" y="-18.881175995" class="f0">nt</text>
         <text x="1" y="-2.889374971" class="f0">Reseach</text>
        </g>
       </g>
      </g>
      <defs>
       <clipPath id="CLIP41">
        <path d="M51.851737976,218.320007324 L102.953475952,218.320007324 L102.953475952,232.358001709 L51.851737976,232.358001709 Z " />
       </clipPath>
      </defs>
      <g clip-path="url(#CLIP41)">
       <g>
        <g transform="matrix(1,0,0,1,52.676773071,248.357513428)">
         <text x="1" y="-18.881175995" class="f0">Laborat</text>
         <text x="1" y="-2.889374971" class="f0">ories</text>
        </g>
       </g>
      </g>
      <defs>
       <clipPath id="CLIP42">
        <path d="M103.453475952,218.320007324 L360.962158203,218.320007324 L360.962158203,232.358001709 L103.453475952,232.358001709 Z " />
       </clipPath>
      </defs>
      <g clip-path="url(#CLIP42)">
       <g>
        <g transform="matrix(1,0,0,1,104.278511047,232.365722656)">
         <text x="1" y="-2.889374971" class="f0">and</text>
         <text x="20.966875076" y="-2.889374971" class="f0"> </text>
         <text x="24.233592987" y="-2.889374971" class="f0">Lorillard.</text>
         <text x="69.983825684" y="-2.889374971" class="f0"> </text>
         <text x="73.250541687" y="-2.889374971" class="f0">All</text>
         <text x="86.894210815" y="-2.889374971" class="f0"> </text>
         <text x="90.160926819" y="-2.889374971" class="f0">work</text>
         <text x="116.122177124" y="-2.889374971" class="f0"> </text>
         <text x="119.388893127" y="-2.889374971" class="f0">is</text>
         <text x="127.437095642" y="-2.889374971" class="f0"> </text>
         <text x="130.703811646" y="-2.889374971" class="f0">to</text>
         <text x="141.835449219" y="-2.889374971" class="f0"> </text>
         <text x="145.102172852" y="-2.889374971" class="f0">be</text>
         <text x="158.417022705" y="-2.889374971" class="f0"> </text>
         <text x="161.683746338" y="-2.889374971" class="f0">coordinate</text>
        </g>
       </g>
      </g>
      <defs>
       <clipPath id="CLIP43">
        <path d="M361.462158203,218.320007324 L412.563903809,218.320007324 L412.563903809,232.358001709 L361.462158203,232.358001709 Z " />
       </clipPath>
      </defs>
      <g clip-path="url(#CLIP43)">
       <g>
        <g transform="matrix(1,0,0,1,362.287200928,232.365722656)">
         <text x="1" y="-2.889374971" class="f0">with</text>
         <text x="23.565156937" y="-2.889374971" class="f0"> </text>
         <text x="26.831874847" y="-2.889374971" class="f0">our</text>
        </g>
       </g>
      </g>
      <defs>
       <clipPath id="CLIP44">
        <path d="M51.851737976,232.858001709 L102.953475952,232.858001709 L102.953475952,246.895996094 L51.851737976,246.895996094 Z " />
       </clipPath>
      </defs>
      <g clip-path="url(#CLIP44)">
       <g>
        <g transform="matrix(1,0,0,1,52.676773071,262.895507812)">
         <text x="1" y="-18.881175995" class="f0">Mr.</text>
         <text x="18.659687042" y="-18.881175995" class="f0"> </text>
         <text x="21.926404953" y="-18.881175995" class="f0">Neil</text>
         <text x="1" y="-2.889374971" class="f0">Tha</text>
        </g>
       </g>
      </g>
      <defs>
       <clipPath id="CLIP45">
        <path d="M103.453475952,232.858001709 L360.962158203,232.858001709 L360.962158203,246.895996094 L103.453475952,246.895996094 Z " />
       </clipPath>
      </defs>
      <g clip-path="url(#CLIP45)">
       <g>
        <g transform="matrix(1,0,0,1,104.278511047,246.903717041)">
         <text x="1" y="-2.889374971" class="f0">ggard</text>
         <text x="32.502811432" y="-2.889374971" class="f0"> </text>
         <text x="35.76953125" y="-2.889374971" class="f0">(919)</text>
         <text x="62.566329956" y="-2.889374971" class="f0"> </text>
         <text x="65.833045959" y="-2.889374971" class="f0">373-6628</text>
         <text x="115.928123474" y="-2.889374971" class="f0">。</text>
        </g>
       </g>
      </g>
      <defs>
       <clipPath id="CLIP46">
        <path d="M0.25,320.085998535 L154.555206299,320.085998535 L154.555206299,334.12399292 L0.25,334.12399292 Z " />
       </clipPath>
      </defs>
      <g clip-path="url(#CLIP46)">
       <g>
        <g transform="matrix(1,0,0,1,1.075036168,334.13168335)">
         <text x="1" y="-2.889374971" class="f0">FOLLOW</text>
         <text x="47.424060822" y="-2.889374971" class="f0"> </text>
         <text x="50.69078064" y="-2.889374971" class="f0">UP</text>
         <text x="65.6875" y="-2.889374971" class="f0"> </text>
         <text x="68.954216003" y="-2.889374971" class="f0">DATE</text>
        </g>
       </g>
      </g>
      <defs>
       <clipPath id="CLIP47">
        <path d="M155.055206299,320.085998535 L257.758666992,320.085998535 L257.758666992,334.12399292 L155.055206299,334.12399292 Z " />
       </clipPath>
      </defs>
      <g clip-path="url(#CLIP47)">
       <g>
        <g transform="matrix(1,0,0,1,155.880249023,334.13168335)">
         <text x="1" y="-2.889374971" class="f0">REQUISITION</text>
         <text x="71.924453735" y="-2.889374971" class="f0"> </text>
         <text x="75.191169739" y="-2.889374971" class="f0">NO.</text>
        </g>
       </g>
      </g>
      <defs>
       <clipPath id="CLIP48">
        <path d="M258.258666992,320.085998535 L412.563873291,320.085998535 L412.563873291,334.12399292 L258.258666992,334.12399292 Z " />
       </clipPath>
      </defs>
      <g clip-path="url(#CLIP48)">
       <g>
        <g transform="matrix(1,0,0,1,259.083709717,334.13168335)">
         <text x="1" y="-2.889374971" class="f0">ISSUED</text>
         <text x="39.710079193" y="-2.889374971" class="f0"> </text>
         <text x="42.976799011" y="-2.889374971" class="f0">BY</text>
        </g>
       </g>
      </g>
      <defs>
       <clipPath id="CLIP49">
        <path d="M0.25,349.161987305 L154.555206299,349.161987305 L154.555206299,363.199981689 L0.25,363.199981689 Z " />
       </clipPath>
      </defs>
      <g clip-path="url(#CLIP49)">
       <g>
        <g transform="matrix(1,0,0,1,1.075036168,363.207672119)">
         <text x="1" y="-2.889374971" class="f0">BUDGET</text>
         <text x="45.186954498" y="-2.889374971" class="f0"> </text>
         <text x="48.453674316" y="-2.889374971" class="f0">NO.</text>
        </g>
       </g>
      </g>
      <defs>
       <clipPath id="CLIP50">
        <path d="M155.055206299,349.161987305 L206.156951904,349.161987305 L206.156951904,363.199981689 L155.055206299,363.199981689 Z " />
       </clipPath>
      </defs>
      <g clip-path="url(#CLIP50)">
       <g>
        <g transform="matrix(1,0,0,1,155.880249023,379.199493408)">
         <text x="1" y="-18.881175995" class="f0">ACCT.</text>
         <text x="1" y="-2.889374971" class="f0">NO.</text>
        </g>
       </g>
      </g>
      <defs>
       <clipPath id="CLIP51">
        <path d="M206.656951904,349.161987305 L257.75869751,349.161987305 L257.75869751,363.199981689 L206.656951904,363.199981689 Z " />
       </clipPath>
      </defs>
      <g clip-path="url(#CLIP51)">
       <g>
        <g transform="matrix(1,0,0,1,207.481994629,379.199493408)">
         <text x="1" y="-18.881175995" class="f0">DEPT.</text>
         <text x="1" y="-2.889374971" class="f0">NO.</text>
        </g>
       </g>
      </g>
      <defs>
       <clipPath id="CLIP52">
        <path d="M258.258666992,349.161987305 L412.563873291,349.161987305 L412.563873291,363.199981689 L258.258666992,363.199981689 Z " />
       </clipPath>
      </defs>
      <g clip-path="url(#CLIP52)">
       <g>
        <g transform="matrix(1,0,0,1,259.083709717,363.207672119)">
         <text x="1" y="-2.889374971" class="f0">APPROVED</text>
         <text x="60.426250458" y="-2.889374971" class="f0"> </text>
         <text x="63.692970276" y="-2.889374971" class="f0">BY</text>
        </g>
       </g>
      </g>
      <defs>
       <clipPath id="CLIP53">
        <path d="M155.055206299,363.700012207 L206.156951904,363.700012207 L206.156951904,377.738006592 L155.055206299,377.738006592 Z " />
       </clipPath>
      </defs>
      <g clip-path="url(#CLIP53)">
       <g>
        <g transform="matrix(1,0,0,1,155.880249023,377.745697021)">
         <text x="1" y="-2.889374971" class="f0">4111</text>
        </g>
       </g>
      </g>
      <defs>
       <clipPath id="CLIP54">
        <path d="M206.656951904,363.700012207 L257.75869751,363.700012207 L257.75869751,377.738006592 L206.656951904,377.738006592 Z " />
       </clipPath>
      </defs>
      <g clip-path="url(#CLIP54)">
       <g>
        <g transform="matrix(1,0,0,1,207.481994629,377.745697021)">
         <text x="1" y="-2.889374971" class="f0">8700</text>
        </g>
       </g>
      </g>
      <defs>
       <clipPath id="CLIP55">
        <path d="M0.25,378.238006592 L51.351737976,378.238006592 L51.351737976,392.276000977 L0.25,392.276000977 Z " />
       </clipPath>
      </defs>
      <g clip-path="url(#CLIP55)">
       <g>
        <g transform="matrix(1,0,0,1,1.075036168,391.556793213)">
         <text x="1" y="-2.75999999" class="f1">871A7607</text>
        </g>
       </g>
      </g>
     </g>
    </g>
    <defs>
     <clipPath id="CLIP56">
      <path d="M-0.5,-0.5 L413.5,-0.5 L413.5,393.5 L-0.5,393.5 Z " />
     </clipPath>
    </defs>
    <g clip-path="url(#CLIP56)">
     <g />
    </g>
   </g>
   <g />
   <g />
   <g />
   <g>
    <g>
     <g />
     <g shape-rendering="crispEdges" />
    </g>
    <g>
     <g />
    </g>
    <g>
     <g />
    </g>
   </g>
   <g>
    <text x="10" y="10" class="f2">Evaluation Only. Created with Aspose.Cells for Python via Java.Copyright 2003 - 2023 Aspose Pty Ltd.</text>
   </g>
  </g>
 </g>
 <defs />
 <defs>
  <style type="text/css">
   <![CDATA[
   
.f0
{
font-family:Microsoft YaHei;
font-size:11.039999962px;
fill:#000000;
}

.f1
{
font-family:Calibri;
font-size:11.039999962px;
fill:#000000;
}

.f2
{
font-family:Arial;
font-size:10px;
fill:#FF0000;
}

   
   ]]></style>
 </defs>
</svg>
