<?xml version="1.0" encoding="UTF-8" standalone="yes"?>
<svg xmlns="http://www.w3.org/2000/svg" xmlns:xlink="http://www.w3.org/1999/xlink" width="612pt" height="792pt">
 <g id="SFixTitle" />
 <g id="SContent">
  <g transform="scale(1.33333)">
   <rect width="100%" height="100%" fill="white" />
   <g>
    <g>
     <g />
     <g shape-rendering="crispEdges" />
    </g>
    <g>
     <g />
    </g>
    <g>
     <g />
    </g>
   </g>
   <g transform="matrix(1,0,0,1,50.400001526,54)">
    <defs>
     <clipPath id="CLIP0">
      <path d="M-0.5,-0.5 L426.5,-0.5 L426.5,393.5 L-0.5,393.5 Z " />
     </clipPath>
    </defs>
    <g clip-path="url(#CLIP0)">
     <g />
     <g shape-rendering="crispEdges" />
    </g>
    <defs>
     <clipPath id="CLIP1">
      <path d="M-0.5,-1.453799963 L426.5,-1.453799963 L426.5,394.546203613 L-0.5,394.546203613 Z " />
     </clipPath>
    </defs>
    <g clip-path="url(#CLIP1)">
     <g>
      <g />
      <path d="M 0,0 L 53.214290619,0" class="p0" fill="none" />
      <path d="M 0,0 L 0,14.538000107" class="p0" fill="none" />
      <path d="M 53.214290619,0 L 106.428581238,0" class="p0" fill="none" />
      <path d="M 106.428581238,0 L 159.642868042,0" class="p0" fill="none" />
      <path d="M 159.642868042,0 L 212.857162476,0" class="p0" fill="none" />
      <path d="M 212.857162476,0 L 266.07144165,0" class="p0" fill="none" />
      <path d="M 266.07144165,0 L 319.285736084,0" class="p0" fill="none" />
      <path d="M 319.285736084,0 L 372.500030518,0" class="p0" fill="none" />
      <path d="M 319.286010742,0 L 319.286010742,14.538000107" class="p0" fill="none" />
      <path d="M 372.500030518,0 L 425.714324951,0" class="p0" fill="none" />
      <path d="M 425.713989258,0 L 425.713989258,14.538000107" class="p0" fill="none" />
      <path d="M 0,14.538000107 L 53.214290619,14.538000107" class="p0" fill="none" />
      <path d="M 0,14.538000107 L 0,29.076000214" class="p0" fill="none" />
      <path d="M 53.214290619,14.538000107 L 106.428581238,14.538000107" class="p0" fill="none" />
      <path d="M 106.428581238,14.538000107 L 159.642868042,14.538000107" class="p0" fill="none" />
      <path d="M 159.642868042,14.538000107 L 212.857162476,14.538000107" class="p0" fill="none" />
      <path d="M 212.857162476,14.538000107 L 266.07144165,14.538000107" class="p0" fill="none" />
      <path d="M 266.07144165,14.538000107 L 319.285736084,14.538000107" class="p0" fill="none" />
      <path d="M 319.285736084,14.538000107 L 372.500030518,14.538000107" class="p0" fill="none" />
      <path d="M 319.286010742,14.538000107 L 319.286010742,29.076000214" class="p0" fill="none" />
      <path d="M 372.500030518,14.538000107 L 425.714324951,14.538000107" class="p0" fill="none" />
      <path d="M 425.713989258,14.538000107 L 425.713989258,29.076000214" class="p0" fill="none" />
      <path d="M 0,29.076000214 L 53.214290619,29.076000214" class="p0" fill="none" />
      <path d="M 0,29.076000214 L 0,43.613998413" class="p0" fill="none" />
      <path d="M 53.214290619,29.076000214 L 106.428581238,29.076000214" class="p0" fill="none" />
      <path d="M 106.428581238,29.076000214 L 159.642868042,29.076000214" class="p0" fill="none" />
      <path d="M 159.642868042,29.076000214 L 212.857162476,29.076000214" class="p0" fill="none" />
      <path d="M 212.857162476,29.076000214 L 266.07144165,29.076000214" class="p0" fill="none" />
      <path d="M 266.07144165,29.076000214 L 319.285736084,29.076000214" class="p0" fill="none" />
      <path d="M 319.285736084,29.076000214 L 372.500030518,29.076000214" class="p0" fill="none" />
      <path d="M 319.286010742,29.076000214 L 319.286010742,43.613998413" class="p0" fill="none" />
      <path d="M 372.500030518,29.076000214 L 425.714324951,29.076000214" class="p0" fill="none" />
      <path d="M 425.713989258,29.076000214 L 425.713989258,43.613998413" class="p0" fill="none" />
      <path d="M 0,43.613998413 L 53.214290619,43.613998413" class="p0" fill="none" />
      <path d="M 0,43.613998413 L 0,58.152000427" class="p0" fill="none" />
      <path d="M 53.214290619,43.613998413 L 106.428581238,43.613998413" class="p0" fill="none" />
      <path d="M 106.428581238,43.613998413 L 159.642868042,43.613998413" class="p0" fill="none" />
      <path d="M 159.642868042,43.613998413 L 212.857162476,43.613998413" class="p0" fill="none" />
      <path d="M 212.857162476,43.613998413 L 266.07144165,43.613998413" class="p0" fill="none" />
      <path d="M 266.07144165,43.613998413 L 319.285736084,43.613998413" class="p0" fill="none" />
      <path d="M 266.071014404,43.613998413 L 266.071014404,58.152000427" class="p0" fill="none" />
      <path d="M 319.285736084,43.613998413 L 372.500030518,43.613998413" class="p0" fill="none" />
      <path d="M 372.500030518,43.613998413 L 425.714324951,43.613998413" class="p0" fill="none" />
      <path d="M 425.713989258,43.613998413 L 425.713989258,58.152000427" class="p0" fill="none" />
      <path d="M 0,58.152000427 L 53.214290619,58.152000427" class="p0" fill="none" />
      <path d="M 0,58.152000427 L 0,72.690002441" class="p0" fill="none" />
      <path d="M 53.214290619,58.152000427 L 106.428581238,58.152000427" class="p0" fill="none" />
      <path d="M 106.428581238,58.152000427 L 159.642868042,58.152000427" class="p0" fill="none" />
      <path d="M 159.642868042,58.152000427 L 212.857162476,58.152000427" class="p0" fill="none" />
      <path d="M 212.857162476,58.152000427 L 266.07144165,58.152000427" class="p0" fill="none" />
      <path d="M 266.07144165,58.152000427 L 319.285736084,58.152000427" class="p0" fill="none" />
      <path d="M 319.285736084,58.152000427 L 372.500030518,58.152000427" class="p0" fill="none" />
      <path d="M 372.500030518,58.152000427 L 425.714324951,58.152000427" class="p0" fill="none" />
      <path d="M 425.713989258,58.152000427 L 425.713989258,72.690002441" class="p0" fill="none" />
      <path d="M 0,72.690002441 L 53.214290619,72.690002441" class="p0" fill="none" />
      <path d="M 0,72.690002441 L 0,87.228004456" class="p0" fill="none" />
      <path d="M 53.214290619,72.690002441 L 106.428581238,72.690002441" class="p0" fill="none" />
      <path d="M 53.214000702,72.690002441 L 53.214000702,87.228004456" class="p0" fill="none" />
      <path d="M 106.428581238,72.690002441 L 159.642868042,72.690002441" class="p0" fill="none" />
      <path d="M 106.429000854,72.690002441 L 106.429000854,87.228004456" class="p0" fill="none" />
      <path d="M 159.642868042,72.690002441 L 212.857162476,72.690002441" class="p0" fill="none" />
      <path d="M 212.857162476,72.690002441 L 266.07144165,72.690002441" class="p0" fill="none" />
      <path d="M 266.07144165,72.690002441 L 319.285736084,72.690002441" class="p0" fill="none" />
      <path d="M 319.285736084,72.690002441 L 372.500030518,72.690002441" class="p0" fill="none" />
      <path d="M 372.500030518,72.690002441 L 425.714324951,72.690002441" class="p0" fill="none" />
      <path d="M 372.5,72.690002441 L 372.5,87.228004456" class="p0" fill="none" />
      <path d="M 425.713989258,72.690002441 L 425.713989258,87.228004456" class="p0" fill="none" />
      <path d="M 0,87.227996826 L 53.214290619,87.227996826" class="p0" fill="none" />
      <path d="M 0,87.227996826 L 0,101.76599884" class="p0" fill="none" />
      <path d="M 53.214290619,87.227996826 L 106.428581238,87.227996826" class="p0" fill="none" />
      <path d="M 53.214000702,87.227996826 L 53.214000702,101.76599884" class="p0" fill="none" />
      <path d="M 106.428581238,87.227996826 L 159.642868042,87.227996826" class="p0" fill="none" />
      <path d="M 106.429000854,87.227996826 L 106.429000854,101.76599884" class="p0" fill="none" />
      <path d="M 159.642868042,87.227996826 L 212.857162476,87.227996826" class="p0" fill="none" />
      <path d="M 212.857162476,87.227996826 L 266.07144165,87.227996826" class="p0" fill="none" />
      <path d="M 266.07144165,87.227996826 L 319.285736084,87.227996826" class="p0" fill="none" />
      <path d="M 319.285736084,87.227996826 L 372.500030518,87.227996826" class="p0" fill="none" />
      <path d="M 372.500030518,87.227996826 L 425.714324951,87.227996826" class="p0" fill="none" />
      <path d="M 372.5,87.227996826 L 372.5,101.76599884" class="p0" fill="none" />
      <path d="M 425.713989258,87.227996826 L 425.713989258,101.76599884" class="p0" fill="none" />
      <path d="M 0,101.76599884 L 53.214290619,101.76599884" class="p0" fill="none" />
      <path d="M 0,101.76599884 L 0,116.304000854" class="p0" fill="none" />
      <path d="M 53.214290619,101.76599884 L 106.428581238,101.76599884" class="p0" fill="none" />
      <path d="M 53.214000702,101.76599884 L 53.214000702,116.304000854" class="p0" fill="none" />
      <path d="M 106.428581238,101.76599884 L 159.642868042,101.76599884" class="p0" fill="none" />
      <path d="M 106.429000854,101.76599884 L 106.429000854,116.304000854" class="p0" fill="none" />
      <path d="M 159.642868042,101.76599884 L 212.857162476,101.76599884" class="p0" fill="none" />
      <path d="M 212.857162476,101.76599884 L 266.07144165,101.76599884" class="p0" fill="none" />
      <path d="M 266.07144165,101.76599884 L 319.285736084,101.76599884" class="p0" fill="none" />
      <path d="M 319.285736084,101.76599884 L 372.500030518,101.76599884" class="p0" fill="none" />
      <path d="M 372.500030518,101.76599884 L 425.714324951,101.76599884" class="p0" fill="none" />
      <path d="M 425.713989258,101.76599884 L 425.713989258,116.304000854" class="p0" fill="none" />
      <path d="M 0,116.304000854 L 53.214290619,116.304000854" class="p0" fill="none" />
      <path d="M 0,116.304000854 L 0,130.841995239" class="p0" fill="none" />
      <path d="M 53.214290619,116.304000854 L 106.428581238,116.304000854" class="p0" fill="none" />
      <path d="M 53.214000702,116.304000854 L 53.214000702,130.841995239" class="p0" fill="none" />
      <path d="M 106.428581238,116.304000854 L 159.642868042,116.304000854" class="p0" fill="none" />
      <path d="M 106.429000854,116.304000854 L 106.429000854,130.841995239" class="p0" fill="none" />
      <path d="M 159.642868042,116.304000854 L 212.857162476,116.304000854" class="p0" fill="none" />
      <path d="M 212.857162476,116.304000854 L 266.07144165,116.304000854" class="p0" fill="none" />
      <path d="M 266.07144165,116.304000854 L 319.285736084,116.304000854" class="p0" fill="none" />
      <path d="M 319.285736084,116.304000854 L 372.500030518,116.304000854" class="p0" fill="none" />
      <path d="M 372.500030518,116.304000854 L 425.714324951,116.304000854" class="p0" fill="none" />
      <path d="M 372.5,116.304000854 L 372.5,130.841995239" class="p0" fill="none" />
      <path d="M 425.713989258,116.304000854 L 425.713989258,130.841995239" class="p0" fill="none" />
      <path d="M 0,130.841995239 L 53.214290619,130.841995239" class="p0" fill="none" />
      <path d="M 0,130.841995239 L 0,145.379989624" class="p0" fill="none" />
      <path d="M 53.214290619,130.841995239 L 106.428581238,130.841995239" class="p0" fill="none" />
      <path d="M 53.214000702,130.841995239 L 53.214000702,145.379989624" class="p0" fill="none" />
      <path d="M 106.428581238,130.841995239 L 159.642868042,130.841995239" class="p0" fill="none" />
      <path d="M 106.429000854,130.841995239 L 106.429000854,145.379989624" class="p0" fill="none" />
      <path d="M 159.642868042,130.841995239 L 212.857162476,130.841995239" class="p0" fill="none" />
      <path d="M 212.857162476,130.841995239 L 266.07144165,130.841995239" class="p0" fill="none" />
      <path d="M 266.07144165,130.841995239 L 319.285736084,130.841995239" class="p0" fill="none" />
      <path d="M 319.285736084,130.841995239 L 372.500030518,130.841995239" class="p0" fill="none" />
      <path d="M 372.500030518,130.841995239 L 425.714324951,130.841995239" class="p0" fill="none" />
      <path d="M 372.5,130.841995239 L 372.5,145.379989624" class="p0" fill="none" />
      <path d="M 425.713989258,130.841995239 L 425.713989258,145.379989624" class="p0" fill="none" />
      <path d="M 0,145.380004883 L 53.214290619,145.380004883" class="p0" fill="none" />
      <path d="M 0,145.380004883 L 0,159.917999268" class="p0" fill="none" />
      <path d="M 53.214290619,145.380004883 L 106.428581238,145.380004883" class="p0" fill="none" />
      <path d="M 53.214000702,145.380004883 L 53.214000702,159.917999268" class="p0" fill="none" />
      <path d="M 106.428581238,145.380004883 L 159.642868042,145.380004883" class="p0" fill="none" />
      <path d="M 106.429000854,145.380004883 L 106.429000854,159.917999268" class="p0" fill="none" />
      <path d="M 159.642868042,145.380004883 L 212.857162476,145.380004883" class="p0" fill="none" />
      <path d="M 212.857162476,145.380004883 L 266.07144165,145.380004883" class="p0" fill="none" />
      <path d="M 266.07144165,145.380004883 L 319.285736084,145.380004883" class="p0" fill="none" />
      <path d="M 319.285736084,145.380004883 L 372.500030518,145.380004883" class="p0" fill="none" />
      <path d="M 372.500030518,145.380004883 L 425.714324951,145.380004883" class="p0" fill="none" />
      <path d="M 372.5,145.380004883 L 372.5,159.917999268" class="p0" fill="none" />
      <path d="M 425.713989258,145.380004883 L 425.713989258,159.917999268" class="p0" fill="none" />
      <path d="M 0,159.917999268 L 53.214290619,159.917999268" class="p0" fill="none" />
      <path d="M 0,159.917999268 L 0,174.455993652" class="p0" fill="none" />
      <path d="M 53.214290619,159.917999268 L 106.428581238,159.917999268" class="p0" fill="none" />
      <path d="M 53.214000702,159.917999268 L 53.214000702,174.455993652" class="p0" fill="none" />
      <path d="M 106.428581238,159.917999268 L 159.642868042,159.917999268" class="p0" fill="none" />
      <path d="M 106.429000854,159.917999268 L 106.429000854,174.455993652" class="p0" fill="none" />
      <path d="M 159.642868042,159.917999268 L 212.857162476,159.917999268" class="p0" fill="none" />
      <path d="M 212.857162476,159.917999268 L 266.07144165,159.917999268" class="p0" fill="none" />
      <path d="M 266.07144165,159.917999268 L 319.285736084,159.917999268" class="p0" fill="none" />
      <path d="M 319.285736084,159.917999268 L 372.500030518,159.917999268" class="p0" fill="none" />
      <path d="M 372.500030518,159.917999268 L 425.714324951,159.917999268" class="p0" fill="none" />
      <path d="M 372.5,159.917999268 L 372.5,174.455993652" class="p0" fill="none" />
      <path d="M 425.713989258,159.917999268 L 425.713989258,174.455993652" class="p0" fill="none" />
      <path d="M 0,174.455993652 L 53.214290619,174.455993652" class="p0" fill="none" />
      <path d="M 0,174.455993652 L 0,188.993988037" class="p0" fill="none" />
      <path d="M 53.214290619,174.455993652 L 106.428581238,174.455993652" class="p0" fill="none" />
      <path d="M 53.214000702,174.455993652 L 53.214000702,188.993988037" class="p0" fill="none" />
      <path d="M 106.428581238,174.455993652 L 159.642868042,174.455993652" class="p0" fill="none" />
      <path d="M 106.429000854,174.455993652 L 106.429000854,188.993988037" class="p0" fill="none" />
      <path d="M 159.642868042,174.455993652 L 212.857162476,174.455993652" class="p0" fill="none" />
      <path d="M 212.857162476,174.455993652 L 266.07144165,174.455993652" class="p0" fill="none" />
      <path d="M 266.07144165,174.455993652 L 319.285736084,174.455993652" class="p0" fill="none" />
      <path d="M 319.285736084,174.455993652 L 372.500030518,174.455993652" class="p0" fill="none" />
      <path d="M 372.500030518,174.455993652 L 425.714324951,174.455993652" class="p0" fill="none" />
      <path d="M 372.5,174.455993652 L 372.5,188.993988037" class="p0" fill="none" />
      <path d="M 425.713989258,174.455993652 L 425.713989258,188.993988037" class="p0" fill="none" />
      <path d="M 0,188.994003296 L 53.214290619,188.994003296" class="p0" fill="none" />
      <path d="M 0,188.994003296 L 0,203.531997681" class="p0" fill="none" />
      <path d="M 53.214290619,188.994003296 L 106.428581238,188.994003296" class="p0" fill="none" />
      <path d="M 53.214000702,188.994003296 L 53.214000702,203.531997681" class="p0" fill="none" />
      <path d="M 106.428581238,188.994003296 L 159.642868042,188.994003296" class="p0" fill="none" />
      <path d="M 106.429000854,188.994003296 L 106.429000854,203.531997681" class="p0" fill="none" />
      <path d="M 159.642868042,188.994003296 L 212.857162476,188.994003296" class="p0" fill="none" />
      <path d="M 212.857162476,188.994003296 L 266.07144165,188.994003296" class="p0" fill="none" />
      <path d="M 266.07144165,188.994003296 L 319.285736084,188.994003296" class="p0" fill="none" />
      <path d="M 319.285736084,188.994003296 L 372.500030518,188.994003296" class="p0" fill="none" />
      <path d="M 372.500030518,188.994003296 L 425.714324951,188.994003296" class="p0" fill="none" />
      <path d="M 372.5,188.994003296 L 372.5,203.531997681" class="p0" fill="none" />
      <path d="M 425.713989258,188.994003296 L 425.713989258,203.531997681" class="p0" fill="none" />
      <path d="M 0,203.531997681 L 53.214290619,203.531997681" class="p0" fill="none" />
      <path d="M 0,203.531997681 L 0,218.069992065" class="p0" fill="none" />
      <path d="M 53.214290619,203.531997681 L 106.428581238,203.531997681" class="p0" fill="none" />
      <path d="M 53.214000702,203.531997681 L 53.214000702,218.069992065" class="p0" fill="none" />
      <path d="M 106.428581238,203.531997681 L 159.642868042,203.531997681" class="p0" fill="none" />
      <path d="M 106.429000854,203.531997681 L 106.429000854,218.069992065" class="p0" fill="none" />
      <path d="M 159.642868042,203.531997681 L 212.857162476,203.531997681" class="p0" fill="none" />
      <path d="M 212.857162476,203.531997681 L 266.07144165,203.531997681" class="p0" fill="none" />
      <path d="M 266.07144165,203.531997681 L 319.285736084,203.531997681" class="p0" fill="none" />
      <path d="M 319.285736084,203.531997681 L 372.500030518,203.531997681" class="p0" fill="none" />
      <path d="M 372.500030518,203.531997681 L 425.714324951,203.531997681" class="p0" fill="none" />
      <path d="M 372.5,203.531997681 L 372.5,218.069992065" class="p0" fill="none" />
      <path d="M 425.713989258,203.531997681 L 425.713989258,218.069992065" class="p0" fill="none" />
      <path d="M 0,218.070007324 L 53.214290619,218.070007324" class="p0" fill="none" />
      <path d="M 0,218.070007324 L 0,232.608001709" class="p0" fill="none" />
      <path d="M 53.214290619,218.070007324 L 106.428581238,218.070007324" class="p0" fill="none" />
      <path d="M 53.214000702,218.070007324 L 53.214000702,232.608001709" class="p0" fill="none" />
      <path d="M 106.428581238,218.070007324 L 159.642868042,218.070007324" class="p0" fill="none" />
      <path d="M 106.429000854,218.070007324 L 106.429000854,232.608001709" class="p0" fill="none" />
      <path d="M 159.642868042,218.070007324 L 212.857162476,218.070007324" class="p0" fill="none" />
      <path d="M 212.857162476,218.070007324 L 266.07144165,218.070007324" class="p0" fill="none" />
      <path d="M 266.07144165,218.070007324 L 319.285736084,218.070007324" class="p0" fill="none" />
      <path d="M 319.285736084,218.070007324 L 372.500030518,218.070007324" class="p0" fill="none" />
      <path d="M 372.500030518,218.070007324 L 425.714324951,218.070007324" class="p0" fill="none" />
      <path d="M 372.5,218.070007324 L 372.5,232.608001709" class="p0" fill="none" />
      <path d="M 425.713989258,218.070007324 L 425.713989258,232.608001709" class="p0" fill="none" />
      <path d="M 0,232.608001709 L 53.214290619,232.608001709" class="p0" fill="none" />
      <path d="M 0,232.608001709 L 0,247.145996094" class="p0" fill="none" />
      <path d="M 53.214290619,232.608001709 L 106.428581238,232.608001709" class="p0" fill="none" />
      <path d="M 53.214000702,232.608001709 L 53.214000702,247.145996094" class="p0" fill="none" />
      <path d="M 106.428581238,232.608001709 L 159.642868042,232.608001709" class="p0" fill="none" />
      <path d="M 106.429000854,232.608001709 L 106.429000854,247.145996094" class="p0" fill="none" />
      <path d="M 159.642868042,232.608001709 L 212.857162476,232.608001709" class="p0" fill="none" />
      <path d="M 212.857162476,232.608001709 L 266.07144165,232.608001709" class="p0" fill="none" />
      <path d="M 266.07144165,232.608001709 L 319.285736084,232.608001709" class="p0" fill="none" />
      <path d="M 319.285736084,232.608001709 L 372.500030518,232.608001709" class="p0" fill="none" />
      <path d="M 372.500030518,232.608001709 L 425.714324951,232.608001709" class="p0" fill="none" />
      <path d="M 372.5,232.608001709 L 372.5,247.145996094" class="p0" fill="none" />
      <path d="M 425.713989258,232.608001709 L 425.713989258,247.145996094" class="p0" fill="none" />
      <path d="M 0,247.145996094 L 53.214290619,247.145996094" class="p0" fill="none" />
      <path d="M 0,247.145996094 L 0,261.683990479" class="p0" fill="none" />
      <path d="M 53.214290619,247.145996094 L 106.428581238,247.145996094" class="p0" fill="none" />
      <path d="M 53.214000702,247.145996094 L 53.214000702,261.683990479" class="p0" fill="none" />
      <path d="M 106.428581238,247.145996094 L 159.642868042,247.145996094" class="p0" fill="none" />
      <path d="M 106.429000854,247.145996094 L 106.429000854,261.683990479" class="p0" fill="none" />
      <path d="M 159.642868042,247.145996094 L 212.857162476,247.145996094" class="p0" fill="none" />
      <path d="M 212.857162476,247.145996094 L 266.07144165,247.145996094" class="p0" fill="none" />
      <path d="M 266.07144165,247.145996094 L 319.285736084,247.145996094" class="p0" fill="none" />
      <path d="M 319.285736084,247.145996094 L 372.500030518,247.145996094" class="p0" fill="none" />
      <path d="M 372.500030518,247.145996094 L 425.714324951,247.145996094" class="p0" fill="none" />
      <path d="M 372.5,247.145996094 L 372.5,261.683990479" class="p0" fill="none" />
      <path d="M 425.713989258,247.145996094 L 425.713989258,261.683990479" class="p0" fill="none" />
      <path d="M 0,261.683990479 L 53.214290619,261.683990479" class="p0" fill="none" />
      <path d="M 0,261.683990479 L 0,276.221984863" class="p0" fill="none" />
      <path d="M 53.214290619,261.683990479 L 106.428581238,261.683990479" class="p0" fill="none" />
      <path d="M 53.214000702,261.683990479 L 53.214000702,276.221984863" class="p0" fill="none" />
      <path d="M 106.428581238,261.683990479 L 159.642868042,261.683990479" class="p0" fill="none" />
      <path d="M 106.429000854,261.683990479 L 106.429000854,276.221984863" class="p0" fill="none" />
      <path d="M 159.642868042,261.683990479 L 212.857162476,261.683990479" class="p0" fill="none" />
      <path d="M 212.857162476,261.683990479 L 266.07144165,261.683990479" class="p0" fill="none" />
      <path d="M 266.07144165,261.683990479 L 319.285736084,261.683990479" class="p0" fill="none" />
      <path d="M 319.285736084,261.683990479 L 372.500030518,261.683990479" class="p0" fill="none" />
      <path d="M 372.500030518,261.683990479 L 425.714324951,261.683990479" class="p0" fill="none" />
      <path d="M 372.5,261.683990479 L 372.5,276.221984863" class="p0" fill="none" />
      <path d="M 425.713989258,261.683990479 L 425.713989258,276.221984863" class="p0" fill="none" />
      <path d="M 0,276.221984863 L 53.214290619,276.221984863" class="p0" fill="none" />
      <path d="M 0,276.222015381 L 0,290.760009766" class="p0" fill="none" />
      <path d="M 53.214290619,276.221984863 L 106.428581238,276.221984863" class="p0" fill="none" />
      <path d="M 53.214000702,276.222015381 L 53.214000702,290.760009766" class="p0" fill="none" />
      <path d="M 106.428581238,276.221984863 L 159.642868042,276.221984863" class="p0" fill="none" />
      <path d="M 106.429000854,276.222015381 L 106.429000854,290.760009766" class="p0" fill="none" />
      <path d="M 159.642868042,276.221984863 L 212.857162476,276.221984863" class="p0" fill="none" />
      <path d="M 212.857162476,276.221984863 L 266.07144165,276.221984863" class="p0" fill="none" />
      <path d="M 266.07144165,276.221984863 L 319.285736084,276.221984863" class="p0" fill="none" />
      <path d="M 319.285736084,276.221984863 L 372.500030518,276.221984863" class="p0" fill="none" />
      <path d="M 372.500030518,276.221984863 L 425.714324951,276.221984863" class="p0" fill="none" />
      <path d="M 372.5,276.222015381 L 372.5,290.760009766" class="p0" fill="none" />
      <path d="M 425.713989258,276.222015381 L 425.713989258,290.760009766" class="p0" fill="none" />
      <path d="M 0,290.760009766 L 53.214290619,290.760009766" class="p0" fill="none" />
      <path d="M 0,290.760009766 L 0,305.29800415" class="p0" fill="none" />
      <path d="M 53.214290619,290.760009766 L 106.428581238,290.760009766" class="p0" fill="none" />
      <path d="M 53.214000702,290.760009766 L 53.214000702,305.29800415" class="p0" fill="none" />
      <path d="M 106.428581238,290.760009766 L 159.642868042,290.760009766" class="p0" fill="none" />
      <path d="M 106.429000854,290.760009766 L 106.429000854,305.29800415" class="p0" fill="none" />
      <path d="M 159.642868042,290.760009766 L 212.857162476,290.760009766" class="p0" fill="none" />
      <path d="M 212.857162476,290.760009766 L 266.07144165,290.760009766" class="p0" fill="none" />
      <path d="M 266.07144165,290.760009766 L 319.285736084,290.760009766" class="p0" fill="none" />
      <path d="M 319.285736084,290.760009766 L 372.500030518,290.760009766" class="p0" fill="none" />
      <path d="M 372.500030518,290.760009766 L 425.714324951,290.760009766" class="p0" fill="none" />
      <path d="M 372.5,290.760009766 L 372.5,305.29800415" class="p0" fill="none" />
      <path d="M 425.713989258,290.760009766 L 425.713989258,305.29800415" class="p0" fill="none" />
      <path d="M 0,305.29800415 L 53.214290619,305.29800415" class="p0" fill="none" />
      <path d="M 0,305.29800415 L 0,319.835998535" class="p0" fill="none" />
      <path d="M 53.214290619,305.29800415 L 106.428581238,305.29800415" class="p0" fill="none" />
      <path d="M 106.428581238,305.29800415 L 159.642868042,305.29800415" class="p0" fill="none" />
      <path d="M 159.642868042,305.29800415 L 212.857162476,305.29800415" class="p0" fill="none" />
      <path d="M 212.857162476,305.29800415 L 266.07144165,305.29800415" class="p0" fill="none" />
      <path d="M 266.07144165,305.29800415 L 319.285736084,305.29800415" class="p0" fill="none" />
      <path d="M 319.285736084,305.29800415 L 372.500030518,305.29800415" class="p0" fill="none" />
      <path d="M 372.500030518,305.29800415 L 425.714324951,305.29800415" class="p0" fill="none" />
      <path d="M 425.713989258,305.29800415 L 425.713989258,319.835998535" class="p0" fill="none" />
      <path d="M 0,319.835998535 L 53.214290619,319.835998535" class="p0" fill="none" />
      <path d="M 0,319.835998535 L 0,334.37399292" class="p0" fill="none" />
      <path d="M 53.214290619,319.835998535 L 106.428581238,319.835998535" class="p0" fill="none" />
      <path d="M 106.428581238,319.835998535 L 159.642868042,319.835998535" class="p0" fill="none" />
      <path d="M 159.642868042,319.835998535 L 212.857162476,319.835998535" class="p0" fill="none" />
      <path d="M 159.643005371,319.835998535 L 159.643005371,334.37399292" class="p0" fill="none" />
      <path d="M 212.857162476,319.835998535 L 266.07144165,319.835998535" class="p0" fill="none" />
      <path d="M 266.07144165,319.835998535 L 319.285736084,319.835998535" class="p0" fill="none" />
      <path d="M 266.071014404,319.835998535 L 266.071014404,334.37399292" class="p0" fill="none" />
      <path d="M 319.285736084,319.835998535 L 372.500030518,319.835998535" class="p0" fill="none" />
      <path d="M 372.500030518,319.835998535 L 425.714324951,319.835998535" class="p0" fill="none" />
      <path d="M 425.713989258,319.835998535 L 425.713989258,334.37399292" class="p0" fill="none" />
      <path d="M 0,334.37399292 L 53.214290619,334.37399292" class="p0" fill="none" />
      <path d="M 0,334.37399292 L 0,348.911987305" class="p0" fill="none" />
      <path d="M 53.214290619,334.37399292 L 106.428581238,334.37399292" class="p0" fill="none" />
      <path d="M 106.428581238,334.37399292 L 159.642868042,334.37399292" class="p0" fill="none" />
      <path d="M 159.642868042,334.37399292 L 212.857162476,334.37399292" class="p0" fill="none" />
      <path d="M 159.643005371,334.37399292 L 159.643005371,348.911987305" class="p0" fill="none" />
      <path d="M 212.857162476,334.37399292 L 266.07144165,334.37399292" class="p0" fill="none" />
      <path d="M 266.07144165,334.37399292 L 319.285736084,334.37399292" class="p0" fill="none" />
      <path d="M 266.071014404,334.37399292 L 266.071014404,348.911987305" class="p0" fill="none" />
      <path d="M 319.285736084,334.37399292 L 372.500030518,334.37399292" class="p0" fill="none" />
      <path d="M 372.500030518,334.37399292 L 425.714324951,334.37399292" class="p0" fill="none" />
      <path d="M 425.713989258,334.37399292 L 425.713989258,348.911987305" class="p0" fill="none" />
      <path d="M 0,348.911987305 L 53.214290619,348.911987305" class="p0" fill="none" />
      <path d="M 0,348.911987305 L 0,363.449981689" class="p0" fill="none" />
      <path d="M 53.214290619,348.911987305 L 106.428581238,348.911987305" class="p0" fill="none" />
      <path d="M 106.428581238,348.911987305 L 159.642868042,348.911987305" class="p0" fill="none" />
      <path d="M 159.642868042,348.911987305 L 212.857162476,348.911987305" class="p0" fill="none" />
      <path d="M 159.643005371,348.911987305 L 159.643005371,363.449981689" class="p0" fill="none" />
      <path d="M 212.857162476,348.911987305 L 266.07144165,348.911987305" class="p0" fill="none" />
      <path d="M 212.856994629,348.911987305 L 212.856994629,363.449981689" class="p0" fill="none" />
      <path d="M 266.07144165,348.911987305 L 319.285736084,348.911987305" class="p0" fill="none" />
      <path d="M 266.071014404,348.911987305 L 266.071014404,363.449981689" class="p0" fill="none" />
      <path d="M 319.285736084,348.911987305 L 372.500030518,348.911987305" class="p0" fill="none" />
      <path d="M 372.500030518,348.911987305 L 425.714324951,348.911987305" class="p0" fill="none" />
      <path d="M 425.713989258,348.911987305 L 425.713989258,363.449981689" class="p0" fill="none" />
      <path d="M 0,363.450012207 L 53.214290619,363.450012207" class="p0" fill="none" />
      <path d="M 0,363.450012207 L 0,377.988006592" class="p0" fill="none" />
      <path d="M 53.214290619,363.450012207 L 106.428581238,363.450012207" class="p0" fill="none" />
      <path d="M 106.428581238,363.450012207 L 159.642868042,363.450012207" class="p0" fill="none" />
      <path d="M 159.642868042,363.450012207 L 212.857162476,363.450012207" class="p0" fill="none" />
      <path d="M 159.643005371,363.450012207 L 159.643005371,377.988006592" class="p0" fill="none" />
      <path d="M 212.857162476,363.450012207 L 266.07144165,363.450012207" class="p0" fill="none" />
      <path d="M 212.856994629,363.450012207 L 212.856994629,377.988006592" class="p0" fill="none" />
      <path d="M 266.07144165,363.450012207 L 319.285736084,363.450012207" class="p0" fill="none" />
      <path d="M 266.071014404,363.450012207 L 266.071014404,377.988006592" class="p0" fill="none" />
      <path d="M 319.285736084,363.450012207 L 372.500030518,363.450012207" class="p0" fill="none" />
      <path d="M 372.500030518,363.450012207 L 425.714324951,363.450012207" class="p0" fill="none" />
      <path d="M 425.713989258,363.450012207 L 425.713989258,377.988006592" class="p0" fill="none" />
      <path d="M 0,377.988006592 L 53.214290619,377.988006592" class="p0" fill="none" />
      <path d="M 0,377.988006592 L 0,392.526000977" class="p0" fill="none" />
      <path d="M 53.214290619,377.988006592 L 106.428581238,377.988006592" class="p0" fill="none" />
      <path d="M 53.214000702,377.988006592 L 53.214000702,392.526000977" class="p0" fill="none" />
      <path d="M 106.428581238,377.988006592 L 159.642868042,377.988006592" class="p0" fill="none" />
      <path d="M 106.429000854,377.988006592 L 106.429000854,392.526000977" class="p0" fill="none" />
      <path d="M 159.642868042,377.988006592 L 212.857162476,377.988006592" class="p0" fill="none" />
      <path d="M 159.643005371,377.988006592 L 159.643005371,392.526000977" class="p0" fill="none" />
      <path d="M 212.857162476,377.988006592 L 266.07144165,377.988006592" class="p0" fill="none" />
      <path d="M 212.856994629,377.988006592 L 212.856994629,392.526000977" class="p0" fill="none" />
      <path d="M 266.07144165,377.988006592 L 319.285736084,377.988006592" class="p0" fill="none" />
      <path d="M 266.071014404,377.988006592 L 266.071014404,392.526000977" class="p0" fill="none" />
      <path d="M 319.285736084,377.988006592 L 372.500030518,377.988006592" class="p0" fill="none" />
      <path d="M 319.286010742,377.988006592 L 319.286010742,392.526000977" class="p0" fill="none" />
      <path d="M 372.500030518,377.988006592 L 425.714324951,377.988006592" class="p0" fill="none" />
      <path d="M 372.5,377.988006592 L 372.5,392.526000977" class="p0" fill="none" />
      <path d="M 425.713989258,377.988006592 L 425.713989258,392.526000977" class="p0" fill="none" />
      <path d="M 0,392.526000977 L 53.214290619,392.526000977" class="p0" fill="none" />
      <path d="M 53.214290619,392.526000977 L 106.428581238,392.526000977" class="p0" fill="none" />
      <path d="M 106.428581238,392.526000977 L 159.642868042,392.526000977" class="p0" fill="none" />
      <path d="M 159.642868042,392.526000977 L 212.857162476,392.526000977" class="p0" fill="none" />
      <path d="M 212.857162476,392.526000977 L 266.07144165,392.526000977" class="p0" fill="none" />
      <path d="M 266.07144165,392.526000977 L 319.285736084,392.526000977" class="p0" fill="none" />
      <path d="M 319.285736084,392.526000977 L 372.500030518,392.526000977" class="p0" fill="none" />
      <path d="M 372.500030518,392.526000977 L 425.714324951,392.526000977" class="p0" fill="none" />
     </g>
    </g>
    <defs>
     <clipPath id="CLIP2">
      <path d="M-0.5,-0.5 L426.5,-0.5 L426.5,393.5 L-0.5,393.5 Z " />
     </clipPath>
    </defs>
    <g clip-path="url(#CLIP2)">
     <g>
      <defs>
       <clipPath id="CLIP3">
        <path d="M0.25,0.25 L319.035736084,0.25 L319.035736084,14.288000107 L0.25,14.288000107 Z " />
       </clipPath>
      </defs>
      <g clip-path="url(#CLIP3)">
       <g>
        <g transform="matrix(1,0,0,1,1.075036168,46.27930069)">
         <text x="1" y="-34.872974396" class="f0">P.O.</text>
         <text x="22.066562653" y="-34.872974396" class="f0"> </text>
         <text x="25.333280563" y="-34.872974396" class="f0">1534</text>
         <text x="51.22984314" y="-34.872974396" class="f0"> </text>
         <text x="54.496562958" y="-34.872974396" class="f0">REV.19/79PURCHASINGPURCHASE</text>
         <text x="1" y="-18.881175995" class="f0">REQUISITIONLT-10-79STATIONARYPLEASE</text>
         <text x="227.718902588" y="-18.881175995" class="f0"> </text>
         <text x="230.985626221" y="-18.881175995" class="f0">INCLUDE</text>
         <text x="278.978363037" y="-18.881175995" class="f0"> </text>
         <text x="282.24508667" y="-18.881175995" class="f0">ONLY</text>
         <text x="1" y="-2.889374971" class="f0">ONE</text>
         <text x="25.042186737" y="-2.889374971" class="f0"> </text>
         <text x="28.308904648" y="-2.889374971" class="f0">TYPE</text>
         <text x="54.124607086" y="-2.889374971" class="f0"> </text>
         <text x="57.391326904" y="-2.889374971" class="f0">OF</text>
         <text x="72.25328064" y="-2.889374971" class="f0"> </text>
         <text x="75.519996643" y="-2.889374971" class="f0">MATERIAL</text>
         <text x="130.358825684" y="-2.889374971" class="f0"> </text>
         <text x="133.625549316" y="-2.889374971" class="f0">ON</text>
         <text x="151.597900391" y="-2.889374971" class="f0"> </text>
         <text x="154.864624023" y="-2.889374971" class="f0">THIS</text>
         <text x="179.348846436" y="-2.889374971" class="f0"> </text>
         <text x="182.615570068" y="-2.889374971" class="f0">REQUISITION</text>
        </g>
       </g>
      </g>
      <defs>
       <clipPath id="CLIP4">
        <path d="M319.535736084,0.25 L425.464324951,0.25 L425.464324951,14.288000107 L319.535736084,14.288000107 Z " />
       </clipPath>
      </defs>
      <g clip-path="url(#CLIP4)">
       <g>
        <g transform="matrix(1,0,0,1,320.360778809,30.287500381)">
         <text x="1" y="-18.881175995" class="f0">DATEApril</text>
         <text x="54.485782623" y="-18.881175995" class="f0"> </text>
         <text x="57.752502441" y="-18.881175995" class="f0">19</text>
         <text x="70.700782776" y="-18.881175995" class="f0">，</text>
         <text x="1" y="-2.889374971" class="f0">1988</text>
        </g>
       </g>
      </g>
      <defs>
       <clipPath id="CLIP5">
        <path d="M0.25,14.788000107 L319.035736084,14.788000107 L319.035736084,28.826000214 L0.25,28.826000214 Z " />
       </clipPath>
      </defs>
      <g clip-path="url(#CLIP5)">
       <g>
        <g transform="matrix(1,0,0,1,1.075036168,60.817302704)">
         <text x="1" y="-34.872974396" class="f0">VENDORFOR</text>
         <text x="70.194061279" y="-34.872974396" class="f0"> </text>
         <text x="73.460777283" y="-34.872974396" class="f0">PURCHASING</text>
         <text x="146.158752441" y="-34.872974396" class="f0"> </text>
         <text x="149.425476074" y="-34.872974396" class="f0">DEPARTMENT</text>
         <text x="224.12336731" y="-34.872974396" class="f0"> </text>
         <text x="227.390090942" y="-34.872974396" class="f0">USE</text>
         <text x="1" y="-18.881175995" class="f0">ONLYPiedmont</text>
         <text x="82.597892761" y="-18.881175995" class="f0"> </text>
         <text x="85.864608765" y="-18.881175995" class="f0">Research</text>
         <text x="133.361404419" y="-18.881175995" class="f0"> </text>
         <text x="136.628128052" y="-18.881175995" class="f0">Laboratory</text>
         <text x="193.973602295" y="-18.881175995" class="f0"> </text>
         <text x="197.240325928" y="-18.881175995" class="f0">2748</text>
         <text x="223.136886597" y="-18.881175995" class="f0"> </text>
         <text x="226.403610229" y="-18.881175995" class="f0">Patterson</text>
         <text x="276.897583008" y="-18.881175995" class="f0"> </text>
         <text x="280.164306641" y="-18.881175995" class="f0">Ave.,</text>
         <text x="1" y="-2.889374971" class="f0">Greensboro,N</text>
        </g>
       </g>
      </g>
      <defs>
       <clipPath id="CLIP6">
        <path d="M319.535736084,14.788000107 L425.464324951,14.788000107 L425.464324951,28.826000214 L319.535736084,28.826000214 Z " />
       </clipPath>
      </defs>
      <g clip-path="url(#CLIP6)">
       <g>
        <g transform="matrix(1,0,0,1,320.360778809,28.83370018)">
         <text x="1" y="-2.889374971" class="f0">ORDER</text>
         <text x="38.890701294" y="-2.889374971" class="f0"> </text>
         <text x="42.157421112" y="-2.889374971" class="f0">NO.C</text>
        </g>
       </g>
      </g>
      <defs>
       <clipPath id="CLIP7">
        <path d="M0.25,29.326000214 L319.035736084,29.326000214 L319.035736084,43.363998413 L0.25,43.363998413 Z " />
       </clipPath>
      </defs>
      <g clip-path="url(#CLIP7)">
       <g>
        <g transform="matrix(1,0,0,1,1.075036168,43.371700287)">
         <text x="1" y="-2.889374971" class="f0">27407NET</text>
         <text x="54.744529724" y="-2.889374971" class="f0"> </text>
         <text x="58.011249542" y="-2.889374971" class="f0">15N/ATERMSN/AF.O.B.VIA</text>
        </g>
       </g>
      </g>
      <defs>
       <clipPath id="CLIP8">
        <path d="M319.535736084,29.326000214 L425.464324951,29.326000214 L425.464324951,43.363998413 L319.535736084,43.363998413 Z " />
       </clipPath>
      </defs>
      <g clip-path="url(#CLIP8)">
       <g>
        <g transform="matrix(1,0,0,1,320.360778809,75.355300903)">
         <text x="1" y="-34.872974396" class="f0">Prev.</text>
         <text x="26.686326981" y="-34.872974396" class="f0"> </text>
         <text x="29.953044891" y="-34.872974396" class="f0">or</text>
         <text x="1" y="-18.881175995" class="f0">Recommended</text>
         <text x="1" y="-2.889374971" class="f0">Suppller</text>
        </g>
       </g>
      </g>
      <defs>
       <clipPath id="CLIP9">
        <path d="M0.25,43.863998413 L265.82144165,43.863998413 L265.82144165,57.902000427 L0.25,57.902000427 Z " />
       </clipPath>
      </defs>
      <g clip-path="url(#CLIP9)">
       <g>
        <g transform="matrix(1,0,0,1,1.075036168,73.901504517)">
         <text x="1" y="-18.881175995" class="f0">SHIP</text>
         <text x="25.910078049" y="-18.881175995" class="f0"> </text>
         <text x="29.176795959" y="-18.881175995" class="f0">TO</text>
         <text x="44.502342224" y="-18.881175995" class="f0"> </text>
         <text x="47.769062042" y="-18.881175995" class="f0">(DEPT.,</text>
         <text x="84.33367157" y="-18.881175995" class="f0"> </text>
         <text x="87.600387573" y="-18.881175995" class="f0">BRANCH)Lorillard</text>
         <text x="181.181640625" y="-18.881175995" class="f0"> </text>
         <text x="184.448364258" y="-18.881175995" class="f0">Research</text>
         <text x="1" y="-2.889374971" class="f0">CenterN.</text>
         <text x="47.67742157" y="-2.889374971" class="f0"> </text>
         <text x="50.944141388" y="-2.889374971" class="f0">A.</text>
         <text x="61.369609833" y="-2.889374971" class="f0"> </text>
         <text x="64.636329651" y="-2.889374971" class="f0">Thaggard</text>
        </g>
       </g>
      </g>
      <defs>
       <clipPath id="CLIP10">
        <path d="M266.32144165,43.863998413 L425.464294434,43.863998413 L425.464294434,57.902000427 L266.32144165,57.902000427 Z " />
       </clipPath>
      </defs>
      <g clip-path="url(#CLIP10)">
       <g>
        <g transform="matrix(1,0,0,1,267.146484375,57.909698486)">
         <text x="1" y="-2.889374971" class="f0">DATE</text>
         <text x="29.575702667" y="-2.889374971" class="f0"> </text>
         <text x="32.842422485" y="-2.889374971" class="f0">WANTEDAs</text>
         <text x="94.505783081" y="-2.889374971" class="f0"> </text>
         <text x="97.772499084" y="-2.889374971" class="f0">required</text>
        </g>
       </g>
      </g>
      <defs>
       <clipPath id="CLIP11">
        <path d="M0.25,58.402000427 L425.464324951,58.402000427 L425.464324951,72.440002441 L0.25,72.440002441 Z " />
       </clipPath>
      </defs>
      <g clip-path="url(#CLIP11)">
       <g>
        <g transform="matrix(1,0,0,1,1.075036168,72.4477005)">
         <text x="1" y="-2.889374971" class="f0">420</text>
         <text x="20.422422409" y="-2.889374971" class="f0"> </text>
         <text x="23.68914032" y="-2.889374971" class="f0">English</text>
         <text x="61.407344818" y="-2.889374971" class="f0"> </text>
         <text x="64.674064636" y="-2.889374971" class="f0">St.,</text>
         <text x="80.473983765" y="-2.889374971" class="f0"> </text>
         <text x="83.740699768" y="-2.889374971" class="f0">Greensboro,</text>
         <text x="148.568359375" y="-2.889374971" class="f0"> </text>
         <text x="151.835083008" y="-2.889374971" class="f0">NC</text>
         <text x="168.195632935" y="-2.889374971" class="f0"> </text>
         <text x="171.462356567" y="-2.889374971" class="f0">27405</text>
        </g>
       </g>
      </g>
      <defs>
       <clipPath id="CLIP12">
        <path d="M0.25,72.940002441 L52.964290619,72.940002441 L52.964290619,86.978004456 L0.25,86.978004456 Z " />
       </clipPath>
      </defs>
      <g clip-path="url(#CLIP12)">
       <g>
        <g transform="matrix(1,0,0,1,1.075036168,102.977508545)">
         <text x="1" y="-18.881175995" class="f0">QUANTI</text>
         <text x="1" y="-2.889374971" class="f0">TY</text>
        </g>
       </g>
      </g>
      <defs>
       <clipPath id="CLIP13">
        <path d="M53.464290619,72.940002441 L106.178581238,72.940002441 L106.178581238,86.978004456 L53.464290619,86.978004456 Z " />
       </clipPath>
      </defs>
      <g clip-path="url(#CLIP13)">
       <g>
        <g transform="matrix(1,0,0,1,54.289325714,86.985702515)">
         <text x="1" y="-2.889374971" class="f0">CODE</text>
        </g>
       </g>
      </g>
      <defs>
       <clipPath id="CLIP14">
        <path d="M106.678581238,72.940002441 L372.250030518,72.940002441 L372.250030518,86.978004456 L106.678581238,86.978004456 Z " />
       </clipPath>
      </defs>
      <g clip-path="url(#CLIP14)">
       <g>
        <g transform="matrix(1,0,0,1,107.503616333,86.985702515)">
         <text x="1" y="-2.889374971" class="f0">DESCRIPTION</text>
        </g>
       </g>
      </g>
      <defs>
       <clipPath id="CLIP15">
        <path d="M372.750030518,72.940002441 L425.464324951,72.940002441 L425.464324951,86.978004456 L372.750030518,86.978004456 Z " />
       </clipPath>
      </defs>
      <g clip-path="url(#CLIP15)">
       <g>
        <g transform="matrix(1,0,0,1,373.575073242,102.977508545)">
         <text x="1" y="-18.881175995" class="f0">UNIT</text>
         <text x="1" y="-2.889374971" class="f0">PRICE</text>
        </g>
       </g>
      </g>
      <defs>
       <clipPath id="CLIP16">
        <path d="M53.464290619,87.477996826 L106.178581238,87.477996826 L106.178581238,101.51599884 L53.464290619,101.51599884 Z " />
       </clipPath>
      </defs>
      <g clip-path="url(#CLIP16)">
       <g>
        <g transform="matrix(1,0,0,1,54.289325714,117.51550293)">
         <text x="1" y="-18.881175995" class="f0">This</text>
         <text x="22.174375534" y="-18.881175995" class="f0"> </text>
         <text x="25.441093445" y="-18.881175995" class="f0">is</text>
         <text x="1" y="-2.889374971" class="f0">your</text>
        </g>
       </g>
      </g>
      <defs>
       <clipPath id="CLIP17">
        <path d="M106.678581238,87.477996826 L372.250030518,87.477996826 L372.250030518,101.51599884 L106.678581238,101.51599884 Z " />
       </clipPath>
      </defs>
      <g clip-path="url(#CLIP17)">
       <g>
        <g transform="matrix(1,0,0,1,107.503616333,101.523696899)">
         <text x="1" y="-2.889374971" class="f0">authoxization</text>
         <text x="72.770782471" y="-2.889374971" class="f0"> </text>
         <text x="76.037498474" y="-2.889374971" class="f0">to</text>
         <text x="87.169136047" y="-2.889374971" class="f0"> </text>
         <text x="90.435852051" y="-2.889374971" class="f0">prepare</text>
         <text x="131.59866333" y="-2.889374971" class="f0"> </text>
         <text x="134.865386963" y="-2.889374971" class="f0">cigarette</text>
         <text x="181.472732544" y="-2.889374971" class="f0"> </text>
         <text x="184.739456177" y="-2.889374971" class="f0">smoke</text>
         <text x="219.487426758" y="-2.889374971" class="f0"> </text>
         <text x="222.754150391" y="-2.889374971" class="f0">con</text>
        </g>
       </g>
      </g>
      <defs>
       <clipPath id="CLIP18">
        <path d="M372.750030518,87.477996826 L425.464324951,87.477996826 L425.464324951,101.51599884 L372.750030518,101.51599884 Z " />
       </clipPath>
      </defs>
      <g clip-path="url(#CLIP18)">
       <g>
        <g transform="matrix(1,0,0,1,373.575073242,101.523696899)">
         <text x="1" y="-2.889374971" class="f0">densate</text>
        </g>
       </g>
      </g>
      <defs>
       <clipPath id="CLIP19">
        <path d="M53.464290619,102.01599884 L106.178581238,102.01599884 L106.178581238,116.054000854 L53.464290619,116.054000854 Z " />
       </clipPath>
      </defs>
      <g clip-path="url(#CLIP19)">
       <g>
        <g transform="matrix(1,0,0,1,54.289325714,132.053497314)">
         <text x="1" y="-18.881175995" class="f0">accordin</text>
         <text x="1" y="-2.889374971" class="f0">g</text>
         <text x="8.061717987" y="-2.889374971" class="f0"> </text>
         <text x="11.328436852" y="-2.889374971" class="f0">to</text>
        </g>
       </g>
      </g>
      <defs>
       <clipPath id="CLIP20">
        <path d="M106.678581238,102.01599884 L425.464324951,102.01599884 L425.464324951,116.054000854 L106.678581238,116.054000854 Z " />
       </clipPath>
      </defs>
      <g clip-path="url(#CLIP20)">
       <g>
        <g transform="matrix(1,0,0,1,107.503616333,116.061698914)">
         <text x="1" y="-2.889374971" class="f0">the</text>
         <text x="18.174531937" y="-2.889374971" class="f0"> </text>
         <text x="21.441249847" y="-2.889374971" class="f0">protocol</text>
         <text x="66.350547791" y="-2.889374971" class="f0"> </text>
         <text x="69.617263794" y="-2.889374971" class="f0">"Standard</text>
         <text x="122.256713867" y="-2.889374971" class="f0"> </text>
         <text x="125.523429871" y="-2.889374971" class="f0">Operating</text>
         <text x="179.068511963" y="-2.889374971" class="f0"> </text>
         <text x="182.335235596" y="-2.889374971" class="f0">Procedure</text>
         <text x="236.467895508" y="-2.889374971" class="f0"> </text>
         <text x="239.734619141" y="-2.889374971" class="f0">for</text>
         <text x="254.796020508" y="-2.889374971" class="f0"> </text>
         <text x="258.062744141" y="-2.889374971" class="f0">the</text>
        </g>
       </g>
      </g>
      <defs>
       <clipPath id="CLIP21">
        <path d="M53.464290619,116.554000854 L106.178581238,116.554000854 L106.178581238,130.591995239 L53.464290619,130.591995239 Z " />
       </clipPath>
      </defs>
      <g clip-path="url(#CLIP21)">
       <g>
        <g transform="matrix(1,0,0,1,54.289325714,146.591506958)">
         <text x="1" y="-18.881175995" class="f0">Preparati</text>
         <text x="1" y="-2.889374971" class="f0">on</text>
        </g>
       </g>
      </g>
      <defs>
       <clipPath id="CLIP22">
        <path d="M106.678581238,116.554000854 L372.250030518,116.554000854 L372.250030518,130.591995239 L106.678581238,130.591995239 Z " />
       </clipPath>
      </defs>
      <g clip-path="url(#CLIP22)">
       <g>
        <g transform="matrix(1,0,0,1,107.503616333,130.599700928)">
         <text x="1" y="-2.889374971" class="f0">of</text>
         <text x="11.845937729" y="-2.889374971" class="f0"> </text>
         <text x="15.112656593" y="-2.889374971" class="f0">Smoke</text>
         <text x="51.122032166" y="-2.889374971" class="f0"> </text>
         <text x="54.388751984" y="-2.889374971" class="f0">Condensate</text>
         <text x="117.313522339" y="-2.889374971" class="f0"> </text>
         <text x="120.580238342" y="-2.889374971" class="f0">for</text>
         <text x="135.641647339" y="-2.889374971" class="f0"> </text>
         <text x="138.908370972" y="-2.889374971" class="f0">Mouse</text>
         <text x="174.890792847" y="-2.889374971" class="f0"> </text>
         <text x="178.157516479" y="-2.889374971" class="f0">Skin</text>
         <text x="200.280639648" y="-2.889374971" class="f0"> </text>
         <text x="203.547363281" y="-2.889374971" class="f0">Bioassay,"</text>
        </g>
       </g>
      </g>
      <defs>
       <clipPath id="CLIP23">
        <path d="M372.750030518,116.554000854 L425.464324951,116.554000854 L425.464324951,130.591995239 L372.750030518,130.591995239 Z " />
       </clipPath>
      </defs>
      <g clip-path="url(#CLIP23)">
       <g>
        <g transform="matrix(1,0,0,1,373.575073242,130.599700928)">
         <text x="1" y="-2.889374971" class="f0">for</text>
         <text x="16.061405182" y="-2.889374971" class="f0"> </text>
         <text x="19.328123093" y="-2.889374971" class="f0">the</text>
        </g>
       </g>
      </g>
      <defs>
       <clipPath id="CLIP24">
        <path d="M53.464290619,131.091995239 L106.178581238,131.091995239 L106.178581238,145.129989624 L53.464290619,145.129989624 Z " />
       </clipPath>
      </defs>
      <g clip-path="url(#CLIP24)">
       <g>
        <g transform="matrix(1,0,0,1,54.289325714,161.129501343)">
         <text x="1" y="-18.881175995" class="f0">period</text>
         <text x="1" y="-2.889374971" class="f0">April</text>
        </g>
       </g>
      </g>
      <defs>
       <clipPath id="CLIP25">
        <path d="M106.678581238,131.091995239 L372.250030518,131.091995239 L372.250030518,145.129989624 L106.678581238,145.129989624 Z " />
       </clipPath>
      </defs>
      <g clip-path="url(#CLIP25)">
       <g>
        <g transform="matrix(1,0,0,1,107.503616333,161.129501343)">
         <text x="1" y="-18.881175995" class="f0">1,</text>
         <text x="10.131718636" y="-18.881175995" class="f0"> </text>
         <text x="13.3984375" y="-18.881175995" class="f0">1988</text>
         <text x="39.294998169" y="-18.881175995" class="f0"> </text>
         <text x="42.561717987" y="-18.881175995" class="f0">through</text>
         <text x="85.368667603" y="-18.881175995" class="f0"> </text>
         <text x="88.635383606" y="-18.881175995" class="f0">December</text>
         <text x="142.983673096" y="-18.881175995" class="f0"> </text>
         <text x="146.250396729" y="-18.881175995" class="f0">31</text>
         <text x="159.198684692" y="-18.881175995" class="f0">，</text>
         <text x="170.238677979" y="-18.881175995" class="f0"> </text>
         <text x="173.505401611" y="-18.881175995" class="f0">1988</text>
         <text x="199.40196228" y="-18.881175995" class="f0">。</text>
         <text x="1" y="-2.889374971" class="f0">Condensa</text>
        </g>
       </g>
      </g>
      <defs>
       <clipPath id="CLIP26">
        <path d="M372.750030518,131.091995239 L425.464324951,131.091995239 L425.464324951,145.129989624 L372.750030518,145.129989624 Z " />
       </clipPath>
      </defs>
      <g clip-path="url(#CLIP26)">
       <g>
        <g transform="matrix(1,0,0,1,373.575073242,145.137710571)">
         <text x="1" y="-2.889374971" class="f0">e</text>
         <text x="7.263906002" y="-2.889374971" class="f0"> </text>
         <text x="10.53062439" y="-2.889374971" class="f0">will</text>
         <text x="28.060935974" y="-2.889374971" class="f0"> </text>
         <text x="31.327653885" y="-2.889374971" class="f0">be</text>
        </g>
       </g>
      </g>
      <defs>
       <clipPath id="CLIP27">
        <path d="M53.464290619,145.630004883 L106.178581238,145.630004883 L106.178581238,159.667999268 L53.464290619,159.667999268 Z " />
       </clipPath>
      </defs>
      <g clip-path="url(#CLIP27)">
       <g>
        <g transform="matrix(1,0,0,1,54.289325714,175.667510986)">
         <text x="1" y="-18.881175995" class="f0">prepare</text>
         <text x="1" y="-2.889374971" class="f0">d</text>
         <text x="8.061717987" y="-2.889374971" class="f0"> </text>
         <text x="11.328436852" y="-2.889374971" class="f0">aco</text>
        </g>
       </g>
      </g>
      <defs>
       <clipPath id="CLIP28">
        <path d="M106.678581238,145.630004883 L372.250030518,145.630004883 L372.250030518,159.667999268 L106.678581238,159.667999268 Z " />
       </clipPath>
      </defs>
      <g clip-path="url(#CLIP28)">
       <g>
        <g transform="matrix(1,0,0,1,107.503616333,159.675720215)">
         <text x="1" y="-2.889374971" class="f0">ording</text>
         <text x="36.098358154" y="-2.889374971" class="f0"> </text>
         <text x="39.365077972" y="-2.889374971" class="f0">to</text>
         <text x="50.49671936" y="-2.889374971" class="f0"> </text>
         <text x="53.763439178" y="-2.889374971" class="f0">a</text>
         <text x="59.865627289" y="-2.889374971" class="f0"> </text>
         <text x="63.132347107" y="-2.889374971" class="f0">time</text>
         <text x="86.791801453" y="-2.889374971" class="f0"> </text>
         <text x="90.058517456" y="-2.889374971" class="f0">schedule</text>
         <text x="136.832977295" y="-2.889374971" class="f0"> </text>
         <text x="140.099700928" y="-2.889374971" class="f0">provided</text>
         <text x="187.504852295" y="-2.889374971" class="f0"> </text>
         <text x="190.771575928" y="-2.889374971" class="f0">by</text>
         <text x="203.66595459" y="-2.889374971" class="f0"> </text>
         <text x="206.932678223" y="-2.889374971" class="f0">Lorilla</text>
        </g>
       </g>
      </g>
      <defs>
       <clipPath id="CLIP29">
        <path d="M372.750030518,145.630004883 L425.464324951,145.630004883 L425.464324951,159.667999268 L372.750030518,159.667999268 Z " />
       </clipPath>
      </defs>
      <g clip-path="url(#CLIP29)">
       <g>
        <g transform="matrix(1,0,0,1,373.575073242,159.675720215)">
         <text x="1" y="-2.889374971" class="f0">rd.</text>
         <text x="14.934765816" y="-2.889374971" class="f0"> </text>
         <text x="18.20148468" y="-2.889374971" class="f0">The</text>
        </g>
       </g>
      </g>
      <defs>
       <clipPath id="CLIP30">
        <path d="M53.464290619,160.167999268 L106.178581238,160.167999268 L106.178581238,174.205993652 L53.464290619,174.205993652 Z " />
       </clipPath>
      </defs>
      <g clip-path="url(#CLIP30)">
       <g>
        <g transform="matrix(1,0,0,1,54.289325714,190.205505371)">
         <text x="1" y="-18.881175995" class="f0">fixed</text>
         <text x="1" y="-2.889374971" class="f0">price</text>
        </g>
       </g>
      </g>
      <defs>
       <clipPath id="CLIP31">
        <path d="M106.678581238,160.167999268 L372.250030518,160.167999268 L372.250030518,174.205993652 L106.678581238,174.205993652 Z " />
       </clipPath>
      </defs>
      <g clip-path="url(#CLIP31)">
       <g>
        <g transform="matrix(1,0,0,1,107.503616333,174.2137146)">
         <text x="1" y="-2.889374971" class="f0">for</text>
         <text x="16.061405182" y="-2.889374971" class="f0"> </text>
         <text x="19.328123093" y="-2.889374971" class="f0">condensate</text>
         <text x="80.403900146" y="-2.889374971" class="f0"> </text>
         <text x="83.67061615" y="-2.889374971" class="f0">collection</text>
         <text x="134.773742676" y="-2.889374971" class="f0"> </text>
         <text x="138.040466309" y="-2.889374971" class="f0">will</text>
         <text x="155.570770264" y="-2.889374971" class="f0"> </text>
         <text x="158.837493896" y="-2.889374971" class="f0">be</text>
         <text x="172.15234375" y="-2.889374971" class="f0"> </text>
         <text x="175.419067383" y="-2.889374971" class="f0">at</text>
         <text x="185.634307861" y="-2.889374971" class="f0"> </text>
         <text x="188.901031494" y="-2.889374971" class="f0">a</text>
         <text x="195.003219604" y="-2.889374971" class="f0"> </text>
         <text x="198.269943237" y="-2.889374971" class="f0">rate</text>
         <text x="218.964553833" y="-2.889374971" class="f0"> </text>
         <text x="222.231277466" y="-2.889374971" class="f0">o</text>
        </g>
       </g>
      </g>
      <defs>
       <clipPath id="CLIP32">
        <path d="M53.464290619,174.705993652 L106.178581238,174.705993652 L106.178581238,188.743988037 L53.464290619,188.743988037 Z " />
       </clipPath>
      </defs>
      <g clip-path="url(#CLIP32)">
       <g>
        <g transform="matrix(1,0,0,1,54.289325714,204.743499756)">
         <text x="1" y="-18.881175995" class="f0">$1,750/1</text>
         <text x="1" y="-2.889374971" class="f0">0,00</text>
        </g>
       </g>
      </g>
      <defs>
       <clipPath id="CLIP33">
        <path d="M106.678581238,174.705993652 L372.250030518,174.705993652 L372.250030518,188.743988037 L106.678581238,188.743988037 Z " />
       </clipPath>
      </defs>
      <g clip-path="url(#CLIP33)">
       <g>
        <g transform="matrix(1,0,0,1,107.503616333,188.751708984)">
         <text x="1" y="-2.889374971" class="f0">0</text>
         <text x="7.474140644" y="-2.889374971" class="f0"> </text>
         <text x="10.740859032" y="-2.889374971" class="f0">cigarettes</text>
         <text x="62.458515167" y="-2.889374971" class="f0"> </text>
         <text x="65.725234985" y="-2.889374971" class="f0">smoked.</text>
         <text x="110.192504883" y="-2.889374971" class="f0"> </text>
         <text x="113.459220886" y="-2.889374971" class="f0">Piedmont</text>
         <text x="164.756408691" y="-2.889374971" class="f0"> </text>
         <text x="168.023132324" y="-2.889374971" class="f0">will</text>
         <text x="185.553436279" y="-2.889374971" class="f0"> </text>
         <text x="188.820159912" y="-2.889374971" class="f0">pay</text>
         <text x="207.816726685" y="-2.889374971" class="f0"> </text>
         <text x="211.083450317" y="-2.889374971" class="f0">the</text>
         <text x="228.257980347" y="-2.889374971" class="f0"> </text>
         <text x="231.524703979" y="-2.889374971" class="f0">c</text>
        </g>
       </g>
      </g>
      <defs>
       <clipPath id="CLIP34">
        <path d="M372.750030518,174.705993652 L425.464324951,174.705993652 L425.464324951,188.743988037 L372.750030518,188.743988037 Z " />
       </clipPath>
      </defs>
      <g clip-path="url(#CLIP34)">
       <g>
        <g transform="matrix(1,0,0,1,373.575073242,188.751708984)">
         <text x="1" y="-2.889374971" class="f0">ost</text>
         <text x="17.241952896" y="-2.889374971" class="f0"> </text>
         <text x="20.508670807" y="-2.889374971" class="f0">of</text>
        </g>
       </g>
      </g>
      <defs>
       <clipPath id="CLIP35">
        <path d="M53.464290619,189.244003296 L106.178581238,189.244003296 L106.178581238,203.281997681 L53.464290619,203.281997681 Z " />
       </clipPath>
      </defs>
      <g clip-path="url(#CLIP35)">
       <g>
        <g transform="matrix(1,0,0,1,54.289325714,219.281509399)">
         <text x="1" y="-18.881175995" class="f0">consuma</text>
         <text x="1" y="-2.889374971" class="f0">ble</text>
        </g>
       </g>
      </g>
      <defs>
       <clipPath id="CLIP36">
        <path d="M106.678581238,189.244003296 L372.250030518,189.244003296 L372.250030518,203.281997681 L106.678581238,203.281997681 Z " />
       </clipPath>
      </defs>
      <g clip-path="url(#CLIP36)">
       <g>
        <g transform="matrix(1,0,0,1,107.503616333,203.289718628)">
         <text x="1" y="-2.889374971" class="f0">upplies.</text>
         <text x="41.812419891" y="-2.889374971" class="f0"> </text>
         <text x="45.079139709" y="-2.889374971" class="f0">This</text>
         <text x="66.253517151" y="-2.889374971" class="f0"> </text>
         <text x="69.520233154" y="-2.889374971" class="f0">work</text>
         <text x="95.481483459" y="-2.889374971" class="f0"> </text>
         <text x="98.748199463" y="-2.889374971" class="f0">is</text>
         <text x="106.796401978" y="-2.889374971" class="f0"> </text>
         <text x="110.063117981" y="-2.889374971" class="f0">to</text>
         <text x="121.194755554" y="-2.889374971" class="f0"> </text>
         <text x="124.461471558" y="-2.889374971" class="f0">be</text>
         <text x="137.776321411" y="-2.889374971" class="f0"> </text>
         <text x="141.043045044" y="-2.889374971" class="f0">conducted</text>
         <text x="197.240310669" y="-2.889374971" class="f0"> </text>
         <text x="200.507034302" y="-2.889374971" class="f0">in</text>
         <text x="210.247894287" y="-2.889374971" class="f0"> </text>
         <text x="213.51461792" y="-2.889374971" class="f0">acc</text>
        </g>
       </g>
      </g>
      <defs>
       <clipPath id="CLIP37">
        <path d="M372.750030518,189.244003296 L425.464324951,189.244003296 L425.464324951,203.281997681 L372.750030518,203.281997681 Z " />
       </clipPath>
      </defs>
      <g clip-path="url(#CLIP37)">
       <g>
        <g transform="matrix(1,0,0,1,373.575073242,203.289718628)">
         <text x="1" y="-2.889374971" class="f0">ordance</text>
        </g>
       </g>
      </g>
      <defs>
       <clipPath id="CLIP38">
        <path d="M53.464290619,203.781997681 L106.178581238,203.781997681 L106.178581238,217.819992065 L53.464290619,217.819992065 Z " />
       </clipPath>
      </defs>
      <g clip-path="url(#CLIP38)">
       <g>
        <g transform="matrix(1,0,0,1,54.289325714,233.819503784)">
         <text x="1" y="-18.881175995" class="f0">with</text>
         <text x="23.565156937" y="-18.881175995" class="f0"> </text>
         <text x="26.831874847" y="-18.881175995" class="f0">the</text>
         <text x="1" y="-2.889374971" class="f0">Ded</text>
        </g>
       </g>
      </g>
      <defs>
       <clipPath id="CLIP39">
        <path d="M106.678581238,203.781997681 L372.250030518,203.781997681 L372.250030518,217.819992065 L106.678581238,217.819992065 Z " />
       </clipPath>
      </defs>
      <g clip-path="url(#CLIP39)">
       <g>
        <g transform="matrix(1,0,0,1,107.503616333,233.819503784)">
         <text x="1" y="-18.881175995" class="f0">ember</text>
         <text x="35.138828278" y="-18.881175995" class="f0"> </text>
         <text x="38.405548096" y="-18.881175995" class="f0">10</text>
         <text x="51.35382843" y="-18.881175995" class="f0">，</text>
         <text x="62.393829346" y="-18.881175995" class="f0"> </text>
         <text x="65.660545349" y="-18.881175995" class="f0">1984</text>
         <text x="91.557106018" y="-18.881175995" class="f0"> </text>
         <text x="94.823822021" y="-18.881175995" class="f0">formal</text>
         <text x="129.26991272" y="-18.881175995" class="f0"> </text>
         <text x="132.536636353" y="-18.881175995" class="f0">agreement</text>
         <text x="189.968353271" y="-18.881175995" class="f0"> </text>
         <text x="193.235076904" y="-18.881175995" class="f0">between</text>
         <text x="1" y="-2.889374971" class="f0">Piedm</text>
        </g>
       </g>
      </g>
      <defs>
       <clipPath id="CLIP40">
        <path d="M372.750030518,203.781997681 L425.464324951,203.781997681 L425.464324951,217.819992065 L372.750030518,217.819992065 Z " />
       </clipPath>
      </defs>
      <g clip-path="url(#CLIP40)">
       <g>
        <g transform="matrix(1,0,0,1,373.575073242,233.819503784)">
         <text x="1" y="-18.881175995" class="f0">nt</text>
         <text x="1" y="-2.889374971" class="f0">Reseach</text>
        </g>
       </g>
      </g>
      <defs>
       <clipPath id="CLIP41">
        <path d="M53.464290619,218.320007324 L106.178581238,218.320007324 L106.178581238,232.358001709 L53.464290619,232.358001709 Z " />
       </clipPath>
      </defs>
      <g clip-path="url(#CLIP41)">
       <g>
        <g transform="matrix(1,0,0,1,54.289325714,248.357513428)">
         <text x="1" y="-18.881175995" class="f0">Laborato</text>
         <text x="1" y="-2.889374971" class="f0">ries</text>
        </g>
       </g>
      </g>
      <defs>
       <clipPath id="CLIP42">
        <path d="M106.678581238,218.320007324 L372.250030518,218.320007324 L372.250030518,232.358001709 L106.678581238,232.358001709 Z " />
       </clipPath>
      </defs>
      <g clip-path="url(#CLIP42)">
       <g>
        <g transform="matrix(1,0,0,1,107.503616333,232.365722656)">
         <text x="1" y="-2.889374971" class="f0">and</text>
         <text x="20.966875076" y="-2.889374971" class="f0"> </text>
         <text x="24.233592987" y="-2.889374971" class="f0">Lorillard.</text>
         <text x="69.983825684" y="-2.889374971" class="f0"> </text>
         <text x="73.250541687" y="-2.889374971" class="f0">All</text>
         <text x="86.894210815" y="-2.889374971" class="f0"> </text>
         <text x="90.160926819" y="-2.889374971" class="f0">work</text>
         <text x="116.122177124" y="-2.889374971" class="f0"> </text>
         <text x="119.388893127" y="-2.889374971" class="f0">is</text>
         <text x="127.437095642" y="-2.889374971" class="f0"> </text>
         <text x="130.703811646" y="-2.889374971" class="f0">to</text>
         <text x="141.835449219" y="-2.889374971" class="f0"> </text>
         <text x="145.102172852" y="-2.889374971" class="f0">be</text>
         <text x="158.417022705" y="-2.889374971" class="f0"> </text>
         <text x="161.683746338" y="-2.889374971" class="f0">coordinate</text>
        </g>
       </g>
      </g>
      <defs>
       <clipPath id="CLIP43">
        <path d="M372.750030518,218.320007324 L425.464324951,218.320007324 L425.464324951,232.358001709 L372.750030518,232.358001709 Z " />
       </clipPath>
      </defs>
      <g clip-path="url(#CLIP43)">
       <g>
        <g transform="matrix(1,0,0,1,373.575073242,232.365722656)">
         <text x="1" y="-2.889374971" class="f0">with</text>
         <text x="23.565156937" y="-2.889374971" class="f0"> </text>
         <text x="26.831874847" y="-2.889374971" class="f0">our</text>
        </g>
       </g>
      </g>
      <defs>
       <clipPath id="CLIP44">
        <path d="M53.464290619,232.858001709 L106.178581238,232.858001709 L106.178581238,246.895996094 L53.464290619,246.895996094 Z " />
       </clipPath>
      </defs>
      <g clip-path="url(#CLIP44)">
       <g>
        <g transform="matrix(1,0,0,1,54.289325714,262.895507812)">
         <text x="1" y="-18.881175995" class="f0">Mr.</text>
         <text x="18.659687042" y="-18.881175995" class="f0"> </text>
         <text x="21.926404953" y="-18.881175995" class="f0">Neil</text>
         <text x="1" y="-2.889374971" class="f0">Tha</text>
        </g>
       </g>
      </g>
      <defs>
       <clipPath id="CLIP45">
        <path d="M106.678581238,232.858001709 L372.250030518,232.858001709 L372.250030518,246.895996094 L106.678581238,246.895996094 Z " />
       </clipPath>
      </defs>
      <g clip-path="url(#CLIP45)">
       <g>
        <g transform="matrix(1,0,0,1,107.503616333,246.903717041)">
         <text x="1" y="-2.889374971" class="f0">ggard</text>
         <text x="32.502811432" y="-2.889374971" class="f0"> </text>
         <text x="35.76953125" y="-2.889374971" class="f0">(919)</text>
         <text x="62.566329956" y="-2.889374971" class="f0"> </text>
         <text x="65.833045959" y="-2.889374971" class="f0">373-6628</text>
         <text x="115.928123474" y="-2.889374971" class="f0">。</text>
        </g>
       </g>
      </g>
      <defs>
       <clipPath id="CLIP46">
        <path d="M0.25,320.085998535 L159.392868042,320.085998535 L159.392868042,334.12399292 L0.25,334.12399292 Z " />
       </clipPath>
      </defs>
      <g clip-path="url(#CLIP46)">
       <g>
        <g transform="matrix(1,0,0,1,1.075036168,334.13168335)">
         <text x="1" y="-2.889374971" class="f0">FOLLOW</text>
         <text x="47.424060822" y="-2.889374971" class="f0"> </text>
         <text x="50.69078064" y="-2.889374971" class="f0">UP</text>
         <text x="65.6875" y="-2.889374971" class="f0"> </text>
         <text x="68.954216003" y="-2.889374971" class="f0">DATE</text>
        </g>
       </g>
      </g>
      <defs>
       <clipPath id="CLIP47">
        <path d="M159.892868042,320.085998535 L265.82144165,320.085998535 L265.82144165,334.12399292 L159.892868042,334.12399292 Z " />
       </clipPath>
      </defs>
      <g clip-path="url(#CLIP47)">
       <g>
        <g transform="matrix(1,0,0,1,160.717910767,334.13168335)">
         <text x="1" y="-2.889374971" class="f0">REQUISITION</text>
         <text x="71.924453735" y="-2.889374971" class="f0"> </text>
         <text x="75.191169739" y="-2.889374971" class="f0">NO.</text>
        </g>
       </g>
      </g>
      <defs>
       <clipPath id="CLIP48">
        <path d="M266.32144165,320.085998535 L425.464294434,320.085998535 L425.464294434,334.12399292 L266.32144165,334.12399292 Z " />
       </clipPath>
      </defs>
      <g clip-path="url(#CLIP48)">
       <g>
        <g transform="matrix(1,0,0,1,267.146484375,334.13168335)">
         <text x="1" y="-2.889374971" class="f0">ISSUED</text>
         <text x="39.710079193" y="-2.889374971" class="f0"> </text>
         <text x="42.976799011" y="-2.889374971" class="f0">BY</text>
        </g>
       </g>
      </g>
      <defs>
       <clipPath id="CLIP49">
        <path d="M0.25,349.161987305 L159.392868042,349.161987305 L159.392868042,363.199981689 L0.25,363.199981689 Z " />
       </clipPath>
      </defs>
      <g clip-path="url(#CLIP49)">
       <g>
        <g transform="matrix(1,0,0,1,1.075036168,363.207672119)">
         <text x="1" y="-2.889374971" class="f0">BUDGET</text>
         <text x="45.186954498" y="-2.889374971" class="f0"> </text>
         <text x="48.453674316" y="-2.889374971" class="f0">NO.</text>
        </g>
       </g>
      </g>
      <defs>
       <clipPath id="CLIP50">
        <path d="M159.892868042,349.161987305 L212.607162476,349.161987305 L212.607162476,363.199981689 L159.892868042,363.199981689 Z " />
       </clipPath>
      </defs>
      <g clip-path="url(#CLIP50)">
       <g>
        <g transform="matrix(1,0,0,1,160.717910767,379.199493408)">
         <text x="1" y="-18.881175995" class="f0">ACCT.</text>
         <text x="1" y="-2.889374971" class="f0">NO.</text>
        </g>
       </g>
      </g>
      <defs>
       <clipPath id="CLIP51">
        <path d="M213.107162476,349.161987305 L265.82144165,349.161987305 L265.82144165,363.199981689 L213.107162476,363.199981689 Z " />
       </clipPath>
      </defs>
      <g clip-path="url(#CLIP51)">
       <g>
        <g transform="matrix(1,0,0,1,213.9322052,379.199493408)">
         <text x="1" y="-18.881175995" class="f0">DEPT.</text>
         <text x="1" y="-2.889374971" class="f0">NO.</text>
        </g>
       </g>
      </g>
      <defs>
       <clipPath id="CLIP52">
        <path d="M266.32144165,349.161987305 L425.464294434,349.161987305 L425.464294434,363.199981689 L266.32144165,363.199981689 Z " />
       </clipPath>
      </defs>
      <g clip-path="url(#CLIP52)">
       <g>
        <g transform="matrix(1,0,0,1,267.146484375,363.207672119)">
         <text x="1" y="-2.889374971" class="f0">APPROVED</text>
         <text x="60.426250458" y="-2.889374971" class="f0"> </text>
         <text x="63.692970276" y="-2.889374971" class="f0">BY</text>
        </g>
       </g>
      </g>
      <defs>
       <clipPath id="CLIP53">
        <path d="M159.892868042,363.700012207 L212.607162476,363.700012207 L212.607162476,377.738006592 L159.892868042,377.738006592 Z " />
       </clipPath>
      </defs>
      <g clip-path="url(#CLIP53)">
       <g>
        <g transform="matrix(1,0,0,1,160.717910767,377.745697021)">
         <text x="1" y="-2.889374971" class="f0">4111</text>
        </g>
       </g>
      </g>
      <defs>
       <clipPath id="CLIP54">
        <path d="M213.107162476,363.700012207 L265.82144165,363.700012207 L265.82144165,377.738006592 L213.107162476,377.738006592 Z " />
       </clipPath>
      </defs>
      <g clip-path="url(#CLIP54)">
       <g>
        <g transform="matrix(1,0,0,1,213.9322052,377.745697021)">
         <text x="1" y="-2.889374971" class="f0">8700</text>
        </g>
       </g>
      </g>
      <defs>
       <clipPath id="CLIP55">
        <path d="M0.25,378.238006592 L52.964290619,378.238006592 L52.964290619,392.276000977 L0.25,392.276000977 Z " />
       </clipPath>
      </defs>
      <g clip-path="url(#CLIP55)">
       <g>
        <g transform="matrix(1,0,0,1,1.075036168,391.556793213)">
         <text x="1" y="-2.75999999" class="f1">871A7607</text>
        </g>
       </g>
      </g>
     </g>
    </g>
    <defs>
     <clipPath id="CLIP56">
      <path d="M-0.5,-0.5 L426.5,-0.5 L426.5,393.5 L-0.5,393.5 Z " />
     </clipPath>
    </defs>
    <g clip-path="url(#CLIP56)">
     <g />
    </g>
   </g>
   <g />
   <g />
   <g />
   <g>
    <g>
     <g />
     <g shape-rendering="crispEdges" />
    </g>
    <g>
     <g />
    </g>
    <g>
     <g />
    </g>
   </g>
   <g>
    <text x="10" y="10" class="f2">Evaluation Only. Created with Aspose.Cells for Python via Java.Copyright 2003 - 2023 Aspose Pty Ltd.</text>
   </g>
  </g>
 </g>
 <defs />
 <defs>
  <style type="text/css">
   <![CDATA[
   
.f0
{
font-family:Microsoft YaHei;
font-size:11.039999962px;
fill:#000000;
}

.f1
{
font-family:Calibri;
font-size:11.039999962px;
fill:#000000;
}

.f2
{
font-family:Arial;
font-size:10px;
fill:#FF0000;
}

   
.p0
{
stroke:#FF0000;
stroke-width:2.907599926px;
stroke-linecap:butt;
stroke-linejoin:miter;
}

   ]]></style>
 </defs>
</svg>
