<?xml version="1.0" encoding="UTF-8" standalone="yes"?>
<svg xmlns="http://www.w3.org/2000/svg" xmlns:xlink="http://www.w3.org/1999/xlink" width="612pt" height="792pt">
 <g id="SFixTitle" />
 <g id="SContent">
  <g transform="scale(1.33333)">
   <rect width="100%" height="100%" fill="white" />
   <g>
    <g>
     <g />
     <g shape-rendering="crispEdges" />
    </g>
    <g>
     <g />
    </g>
    <g>
     <g />
    </g>
   </g>
   <g transform="matrix(1,0,0,1,50.400001526,54)">
    <defs>
     <clipPath id="CLIP0">
      <path d="M-0.5,-0.5 L213.5,-0.5 L213.5,131.5 L-0.5,131.5 Z " />
     </clipPath>
    </defs>
    <g clip-path="url(#CLIP0)">
     <g />
     <g shape-rendering="crispEdges" />
    </g>
    <defs>
     <clipPath id="CLIP1">
      <path d="M-0.5,-1.453799963 L213.5,-1.453799963 L213.5,132.546203613 L-0.5,132.546203613 Z " />
     </clipPath>
    </defs>
    <g clip-path="url(#CLIP1)">
     <g>
      <g />
      <path d="M 0,0 L 53.214290619,0" class="p0" fill="none" />
      <path d="M 0,58.152000427 L 53.214290619,58.152000427" class="p0" fill="none" />
      <path d="M 0,116.304000854 L 53.214290619,116.304000854" class="p0" fill="none" />
      <path d="M 0,0 L 0,14.538000107" class="p0" fill="none" />
      <path d="M 0,58.152000427 L 0,72.690002441" class="p0" fill="none" />
      <path d="M 0,116.304000854 L 0,130.841995239" class="p0" fill="none" />
      <path d="M 53.214290619,0 L 106.428581238,0" class="p0" fill="none" />
      <path d="M 53.214290619,58.152000427 L 106.428581238,58.152000427" class="p0" fill="none" />
      <path d="M 53.214290619,116.304000854 L 106.428581238,116.304000854" class="p0" fill="none" />
      <path d="M 53.214000702,58.152000427 L 53.214000702,72.690002441" class="p0" fill="none" />
      <path d="M 53.214000702,116.304000854 L 53.214000702,130.841995239" class="p0" fill="none" />
      <path d="M 106.428581238,0 L 159.642868042,0" class="p0" fill="none" />
      <path d="M 106.428581238,58.152000427 L 159.642868042,58.152000427" class="p0" fill="none" />
      <path d="M 106.428581238,116.304000854 L 159.642868042,116.304000854" class="p0" fill="none" />
      <path d="M 106.429000854,58.152000427 L 106.429000854,72.690002441" class="p0" fill="none" />
      <path d="M 106.429000854,116.304000854 L 106.429000854,130.841995239" class="p0" fill="none" />
      <path d="M 159.642868042,0 L 212.857162476,0" class="p0" fill="none" />
      <path d="M 159.642868042,58.152000427 L 212.857162476,58.152000427" class="p0" fill="none" />
      <path d="M 159.642868042,116.304000854 L 212.857162476,116.304000854" class="p0" fill="none" />
      <path d="M 159.643005371,58.152000427 L 159.643005371,72.690002441" class="p0" fill="none" />
      <path d="M 159.643005371,116.304000854 L 159.643005371,130.841995239" class="p0" fill="none" />
      <path d="M 212.856994629,0 L 212.856994629,14.538000107" class="p0" fill="none" />
      <path d="M 212.856994629,58.152000427 L 212.856994629,72.690002441" class="p0" fill="none" />
      <path d="M 212.856994629,116.304000854 L 212.856994629,130.841995239" class="p0" fill="none" />
      <path d="M 0,14.538000107 L 53.214290619,14.538000107" class="p0" fill="none" />
      <path d="M 0,72.690002441 L 53.214290619,72.690002441" class="p0" fill="none" />
      <path d="M 0,130.841995239 L 53.214290619,130.841995239" class="p0" fill="none" />
      <path d="M 0,14.538000107 L 0,29.076000214" class="p0" fill="none" />
      <path d="M 0,72.690002441 L 0,87.228004456" class="p0" fill="none" />
      <path d="M 53.214290619,14.538000107 L 106.428581238,14.538000107" class="p0" fill="none" />
      <path d="M 53.214290619,72.690002441 L 106.428581238,72.690002441" class="p0" fill="none" />
      <path d="M 53.214290619,130.841995239 L 106.428581238,130.841995239" class="p0" fill="none" />
      <path d="M 53.214000702,72.690002441 L 53.214000702,87.228004456" class="p0" fill="none" />
      <path d="M 106.428581238,14.538000107 L 159.642868042,14.538000107" class="p0" fill="none" />
      <path d="M 106.428581238,72.690002441 L 159.642868042,72.690002441" class="p0" fill="none" />
      <path d="M 106.428581238,130.841995239 L 159.642868042,130.841995239" class="p0" fill="none" />
      <path d="M 106.429000854,72.690002441 L 106.429000854,87.228004456" class="p0" fill="none" />
      <path d="M 159.642868042,14.538000107 L 212.857162476,14.538000107" class="p0" fill="none" />
      <path d="M 159.642868042,72.690002441 L 212.857162476,72.690002441" class="p0" fill="none" />
      <path d="M 159.642868042,130.841995239 L 212.857162476,130.841995239" class="p0" fill="none" />
      <path d="M 159.643005371,72.690002441 L 159.643005371,87.228004456" class="p0" fill="none" />
      <path d="M 212.856994629,14.538000107 L 212.856994629,29.076000214" class="p0" fill="none" />
      <path d="M 212.856994629,72.690002441 L 212.856994629,87.228004456" class="p0" fill="none" />
      <path d="M 0,29.076000214 L 53.214290619,29.076000214" class="p0" fill="none" />
      <path d="M 0,87.227996826 L 53.214290619,87.227996826" class="p0" fill="none" />
      <path d="M 0,29.076000214 L 0,43.613998413" class="p0" fill="none" />
      <path d="M 0,87.227996826 L 0,101.76599884" class="p0" fill="none" />
      <path d="M 53.214290619,29.076000214 L 106.428581238,29.076000214" class="p0" fill="none" />
      <path d="M 53.214290619,87.227996826 L 106.428581238,87.227996826" class="p0" fill="none" />
      <path d="M 53.214000702,87.227996826 L 53.214000702,101.76599884" class="p0" fill="none" />
      <path d="M 106.428581238,29.076000214 L 159.642868042,29.076000214" class="p0" fill="none" />
      <path d="M 106.428581238,87.227996826 L 159.642868042,87.227996826" class="p0" fill="none" />
      <path d="M 106.429000854,87.227996826 L 106.429000854,101.76599884" class="p0" fill="none" />
      <path d="M 159.642868042,29.076000214 L 212.857162476,29.076000214" class="p0" fill="none" />
      <path d="M 159.642868042,87.227996826 L 212.857162476,87.227996826" class="p0" fill="none" />
      <path d="M 159.643005371,87.227996826 L 159.643005371,101.76599884" class="p0" fill="none" />
      <path d="M 212.856994629,29.076000214 L 212.856994629,43.613998413" class="p0" fill="none" />
      <path d="M 212.856994629,87.227996826 L 212.856994629,101.76599884" class="p0" fill="none" />
      <path d="M 0,43.613998413 L 53.214290619,43.613998413" class="p0" fill="none" />
      <path d="M 0,101.76599884 L 53.214290619,101.76599884" class="p0" fill="none" />
      <path d="M 0,43.613998413 L 0,58.152000427" class="p0" fill="none" />
      <path d="M 0,101.76599884 L 0,116.304000854" class="p0" fill="none" />
      <path d="M 53.214290619,43.613998413 L 106.428581238,43.613998413" class="p0" fill="none" />
      <path d="M 53.214290619,101.76599884 L 106.428581238,101.76599884" class="p0" fill="none" />
      <path d="M 53.214000702,43.613998413 L 53.214000702,58.152000427" class="p0" fill="none" />
      <path d="M 53.214000702,101.76599884 L 53.214000702,116.304000854" class="p0" fill="none" />
      <path d="M 106.428581238,43.613998413 L 159.642868042,43.613998413" class="p0" fill="none" />
      <path d="M 106.428581238,101.76599884 L 159.642868042,101.76599884" class="p0" fill="none" />
      <path d="M 106.429000854,43.613998413 L 106.429000854,58.152000427" class="p0" fill="none" />
      <path d="M 106.429000854,101.76599884 L 106.429000854,116.304000854" class="p0" fill="none" />
      <path d="M 159.642868042,43.613998413 L 212.857162476,43.613998413" class="p0" fill="none" />
      <path d="M 159.642868042,101.76599884 L 212.857162476,101.76599884" class="p0" fill="none" />
      <path d="M 159.643005371,43.613998413 L 159.643005371,58.152000427" class="p0" fill="none" />
      <path d="M 159.643005371,101.76599884 L 159.643005371,116.304000854" class="p0" fill="none" />
      <path d="M 212.856994629,43.613998413 L 212.856994629,58.152000427" class="p0" fill="none" />
      <path d="M 212.856994629,101.76599884 L 212.856994629,116.304000854" class="p0" fill="none" />
     </g>
    </g>
    <defs>
     <clipPath id="CLIP2">
      <path d="M-0.5,-0.5 L213.5,-0.5 L213.5,131.5 L-0.5,131.5 Z " />
     </clipPath>
    </defs>
    <g clip-path="url(#CLIP2)">
     <g>
      <defs>
       <clipPath id="CLIP3">
        <path d="M0.25,0.25 L212.607162476,0.25 L212.607162476,14.288000107 L0.25,14.288000107 Z " />
       </clipPath>
      </defs>
      <g clip-path="url(#CLIP3)">
       <g>
        <g transform="matrix(1,0,0,1,1.075036168,14.295700073)">
         <text x="1" y="-2.889374971" class="f0">门</text>
         <text x="12.039999962" y="-2.889374971" class="f0">诊</text>
         <text x="23.079999924" y="-2.889374971" class="f0">检</text>
         <text x="34.119998932" y="-2.889374971" class="f0">验</text>
         <text x="45.159999847" y="-2.889374971" class="f0">报</text>
         <text x="56.200000763" y="-2.889374971" class="f0">告</text>
         <text x="67.239997864" y="-2.889374971" class="f0">单</text>
        </g>
       </g>
      </g>
      <defs>
       <clipPath id="CLIP4">
        <path d="M0.25,14.788000107 L212.607162476,14.788000107 L212.607162476,28.826000214 L0.25,28.826000214 Z " />
       </clipPath>
      </defs>
      <g clip-path="url(#CLIP4)">
       <g>
        <g transform="matrix(1,0,0,1,1.075036168,28.83370018)">
         <text x="1" y="-2.889374971" class="f0">**</text>
         <text x="11.048125267" y="-2.889374971" class="f0">血</text>
         <text x="22.088125229" y="-2.889374971" class="f0">常</text>
         <text x="33.128124237" y="-2.889374971" class="f0">规</text>
         <text x="44.168125153" y="-2.889374971" class="f0">(5</text>
         <text x="54.329452515" y="-2.889374971" class="f0">分</text>
         <text x="65.36945343" y="-2.889374971" class="f0">类</text>
         <text x="76.409454346" y="-2.889374971" class="f0">)</text>
        </g>
       </g>
      </g>
      <defs>
       <clipPath id="CLIP5">
        <path d="M0.25,29.326000214 L212.607162476,29.326000214 L212.607162476,43.363998413 L0.25,43.363998413 Z " />
       </clipPath>
      </defs>
      <g clip-path="url(#CLIP5)">
       <g>
        <g transform="matrix(1,0,0,1,1.075036168,59.363502502)">
         <text x="1" y="-18.881175995" class="f0">标</text>
         <text x="12.039999962" y="-18.881175995" class="f0">本</text>
         <text x="23.079999924" y="-18.881175995" class="f0">状</text>
         <text x="34.119998932" y="-18.881175995" class="f0">态</text>
         <text x="45.159999847" y="-18.881175995" class="f0">：</text>
         <text x="56.200000763" y="-18.881175995" class="f0">正</text>
         <text x="67.239997864" y="-18.881175995" class="f0">常</text>
         <text x="78.279998779" y="-18.881175995" class="f0">临</text>
         <text x="89.319999695" y="-18.881175995" class="f0">床</text>
         <text x="100.36000061" y="-18.881175995" class="f0">诊</text>
         <text x="111.400001526" y="-18.881175995" class="f0">断</text>
         <text x="122.440002441" y="-18.881175995" class="f0">：</text>
         <text x="133.479995728" y="-18.881175995" class="f0">1</text>
         <text x="139.95413208" y="-18.881175995" class="f0">。</text>
         <text x="150.994125366" y="-18.881175995" class="f0">慢</text>
         <text x="162.034118652" y="-18.881175995" class="f0">性</text>
         <text x="173.074111938" y="-18.881175995" class="f0">扁</text>
         <text x="184.114105225" y="-18.881175995" class="f0">桃</text>
         <text x="195.154098511" y="-18.881175995" class="f0">体</text>
         <text x="1" y="-2.889374971" class="f0">炎</text>
        </g>
       </g>
      </g>
      <defs>
       <clipPath id="CLIP6">
        <path d="M0.25,43.863998413 L52.964290619,43.863998413 L52.964290619,57.902000427 L0.25,57.902000427 Z " />
       </clipPath>
      </defs>
      <g clip-path="url(#CLIP6)">
       <g>
        <g transform="matrix(1,0,0,1,1.075036168,57.909698486)">
         <text x="1" y="-2.889374971" class="f0">检</text>
         <text x="12.039999962" y="-2.889374971" class="f0">验</text>
         <text x="23.079999924" y="-2.889374971" class="f0">项</text>
         <text x="34.119998932" y="-2.889374971" class="f0">目</text>
        </g>
       </g>
      </g>
      <defs>
       <clipPath id="CLIP7">
        <path d="M53.464290619,43.863998413 L106.178581238,43.863998413 L106.178581238,57.902000427 L53.464290619,57.902000427 Z " />
       </clipPath>
      </defs>
      <g clip-path="url(#CLIP7)">
       <g>
        <g transform="matrix(1,0,0,1,54.289325714,57.909698486)">
         <text x="1" y="-2.889374971" class="f0">结</text>
         <text x="12.039999962" y="-2.889374971" class="f0">果</text>
        </g>
       </g>
      </g>
      <defs>
       <clipPath id="CLIP8">
        <path d="M106.678581238,43.863998413 L159.392868042,43.863998413 L159.392868042,57.902000427 L106.678581238,57.902000427 Z " />
       </clipPath>
      </defs>
      <g clip-path="url(#CLIP8)">
       <g>
        <g transform="matrix(1,0,0,1,107.503616333,57.909698486)">
         <text x="1" y="-2.889374971" class="f0">参</text>
         <text x="12.039999962" y="-2.889374971" class="f0">考</text>
         <text x="23.079999924" y="-2.889374971" class="f0">范</text>
         <text x="34.119998932" y="-2.889374971" class="f0">围</text>
        </g>
       </g>
      </g>
      <defs>
       <clipPath id="CLIP9">
        <path d="M159.892868042,43.863998413 L212.607162476,43.863998413 L212.607162476,57.902000427 L159.892868042,57.902000427 Z " />
       </clipPath>
      </defs>
      <g clip-path="url(#CLIP9)">
       <g>
        <g transform="matrix(1,0,0,1,160.717910767,57.909698486)">
         <text x="1" y="-2.889374971" class="f0">单</text>
         <text x="12.039999962" y="-2.889374971" class="f0">位</text>
        </g>
       </g>
      </g>
      <defs>
       <clipPath id="CLIP10">
        <path d="M0.25,58.402000427 L52.964290619,58.402000427 L52.964290619,72.440002441 L0.25,72.440002441 Z " />
       </clipPath>
      </defs>
      <g clip-path="url(#CLIP10)">
       <g>
        <g transform="matrix(1,0,0,1,1.075036168,104.431304932)">
         <text x="1" y="-34.872974396" class="f0">中</text>
         <text x="12.039999962" y="-34.872974396" class="f0">性</text>
         <text x="23.079999924" y="-34.872974396" class="f0">细</text>
         <text x="34.119998932" y="-34.872974396" class="f0">胞</text>
         <text x="1" y="-18.881175995" class="f0">百</text>
         <text x="12.039999962" y="-18.881175995" class="f0">分</text>
         <text x="23.079999924" y="-18.881175995" class="f0">率</text>
         <text x="1" y="-2.889374971" class="f0">(NEL%)</text>
        </g>
       </g>
      </g>
      <defs>
       <clipPath id="CLIP11">
        <path d="M53.464290619,58.402000427 L106.178581238,58.402000427 L106.178581238,72.440002441 L53.464290619,72.440002441 Z " />
       </clipPath>
      </defs>
      <g clip-path="url(#CLIP11)">
       <g>
        <g transform="matrix(1,0,0,1,54.289325714,72.4477005)">
         <text x="1" y="-2.889374971" class="f0">77.1</text>
        </g>
       </g>
      </g>
      <defs>
       <clipPath id="CLIP12">
        <path d="M106.678581238,58.402000427 L159.392868042,58.402000427 L159.392868042,72.440002441 L106.678581238,72.440002441 Z " />
       </clipPath>
      </defs>
      <g clip-path="url(#CLIP12)">
       <g>
        <g transform="matrix(1,0,0,1,107.503616333,72.4477005)">
         <text x="1" y="-2.889374971" class="f0">40-75</text>
        </g>
       </g>
      </g>
      <defs>
       <clipPath id="CLIP13">
        <path d="M159.892868042,58.402000427 L212.607162476,58.402000427 L212.607162476,72.440002441 L159.892868042,72.440002441 Z " />
       </clipPath>
      </defs>
      <g clip-path="url(#CLIP13)">
       <g>
        <g transform="matrix(1,0,0,1,160.717910767,72.4477005)">
         <text x="1" y="-2.889374971" class="f0">%</text>
        </g>
       </g>
      </g>
      <defs>
       <clipPath id="CLIP14">
        <path d="M0.25,72.940002441 L52.964290619,72.940002441 L52.964290619,86.978004456 L0.25,86.978004456 Z " />
       </clipPath>
      </defs>
      <g clip-path="url(#CLIP14)">
       <g>
        <g transform="matrix(1,0,0,1,1.075036168,118.969306946)">
         <text x="1" y="-34.872974396" class="f0">淋</text>
         <text x="12.039999962" y="-34.872974396" class="f0">巴</text>
         <text x="23.079999924" y="-34.872974396" class="f0">细</text>
         <text x="34.119998932" y="-34.872974396" class="f0">胞</text>
         <text x="1" y="-18.881175995" class="f0">百</text>
         <text x="12.039999962" y="-18.881175995" class="f0">分</text>
         <text x="23.079999924" y="-18.881175995" class="f0">率</text>
         <text x="1" y="-2.889374971" class="f0">(LYM%)</text>
        </g>
       </g>
      </g>
      <defs>
       <clipPath id="CLIP15">
        <path d="M53.464290619,72.940002441 L106.178581238,72.940002441 L106.178581238,86.978004456 L53.464290619,86.978004456 Z " />
       </clipPath>
      </defs>
      <g clip-path="url(#CLIP15)">
       <g>
        <g transform="matrix(1,0,0,1,54.289325714,86.985702515)">
         <text x="1" y="-2.889374971" class="f0">8.8</text>
        </g>
       </g>
      </g>
      <defs>
       <clipPath id="CLIP16">
        <path d="M106.678581238,72.940002441 L159.392868042,72.940002441 L159.392868042,86.978004456 L106.678581238,86.978004456 Z " />
       </clipPath>
      </defs>
      <g clip-path="url(#CLIP16)">
       <g>
        <g transform="matrix(1,0,0,1,107.503616333,86.985702515)">
         <text x="1" y="-2.889374971" class="f0">20-50</text>
        </g>
       </g>
      </g>
      <defs>
       <clipPath id="CLIP17">
        <path d="M159.892868042,72.940002441 L212.607162476,72.940002441 L212.607162476,86.978004456 L159.892868042,86.978004456 Z " />
       </clipPath>
      </defs>
      <g clip-path="url(#CLIP17)">
       <g>
        <g transform="matrix(1,0,0,1,160.717910767,86.985702515)">
         <text x="1" y="-2.889374971" class="f0">%</text>
        </g>
       </g>
      </g>
      <defs>
       <clipPath id="CLIP18">
        <path d="M0.25,87.477996826 L52.964290619,87.477996826 L52.964290619,101.51599884 L0.25,101.51599884 Z " />
       </clipPath>
      </defs>
      <g clip-path="url(#CLIP18)">
       <g>
        <g transform="matrix(1,0,0,1,1.075036168,149.499099731)">
         <text x="1" y="-50.864776611" class="f0">单</text>
         <text x="12.039999962" y="-50.864776611" class="f0">核</text>
         <text x="23.079999924" y="-50.864776611" class="f0">细</text>
         <text x="34.119998932" y="-50.864776611" class="f0">胞</text>
         <text x="1" y="-34.872974396" class="f0">百</text>
         <text x="12.039999962" y="-34.872974396" class="f0">分</text>
         <text x="23.079999924" y="-34.872974396" class="f0">率</text>
         <text x="1" y="-18.881175995" class="f0">(MONO</text>
         <text x="1" y="-2.889374971" class="f0">%)</text>
        </g>
       </g>
      </g>
      <defs>
       <clipPath id="CLIP19">
        <path d="M53.464290619,87.477996826 L106.178581238,87.477996826 L106.178581238,101.51599884 L53.464290619,101.51599884 Z " />
       </clipPath>
      </defs>
      <g clip-path="url(#CLIP19)">
       <g>
        <g transform="matrix(1,0,0,1,54.289325714,101.523696899)">
         <text x="1" y="-2.889374971" class="f0">7.1</text>
        </g>
       </g>
      </g>
      <defs>
       <clipPath id="CLIP20">
        <path d="M106.678581238,87.477996826 L159.392868042,87.477996826 L159.392868042,101.51599884 L106.678581238,101.51599884 Z " />
       </clipPath>
      </defs>
      <g clip-path="url(#CLIP20)">
       <g>
        <g transform="matrix(1,0,0,1,107.503616333,101.523696899)">
         <text x="1" y="-2.889374971" class="f0">3.0-10.0</text>
        </g>
       </g>
      </g>
      <defs>
       <clipPath id="CLIP21">
        <path d="M159.892868042,87.477996826 L212.607162476,87.477996826 L212.607162476,101.51599884 L159.892868042,101.51599884 Z " />
       </clipPath>
      </defs>
      <g clip-path="url(#CLIP21)">
       <g>
        <g transform="matrix(1,0,0,1,160.717910767,101.523696899)">
         <text x="1" y="-2.889374971" class="f0">%</text>
        </g>
       </g>
      </g>
      <defs>
       <clipPath id="CLIP22">
        <path d="M0.25,102.01599884 L52.964290619,102.01599884 L52.964290619,116.054000854 L0.25,116.054000854 Z " />
       </clipPath>
      </defs>
      <g clip-path="url(#CLIP22)">
       <g>
        <g transform="matrix(1,0,0,1,1.075036168,180.028900146)">
         <text x="1" y="-66.856575012" class="f0">红</text>
         <text x="12.039999962" y="-66.856575012" class="f0">细</text>
         <text x="23.079999924" y="-66.856575012" class="f0">胞</text>
         <text x="34.119998932" y="-66.856575012" class="f0">计</text>
         <text x="1" y="-50.864776611" class="f0">数</text>
         <text x="12.039999962" y="-50.864776611" class="f0">(RBC)</text>
         <text x="1" y="-34.872974396" class="f0">送</text>
         <text x="12.039999962" y="-34.872974396" class="f0">检</text>
         <text x="23.079999924" y="-34.872974396" class="f0">医</text>
         <text x="34.119998932" y="-34.872974396" class="f0">生</text>
         <text x="1" y="-18.881175995" class="f0">：</text>
         <text x="12.039999962" y="-18.881175995" class="f0">检</text>
         <text x="23.079999924" y="-18.881175995" class="f0">验</text>
         <text x="34.119998932" y="-18.881175995" class="f0">者</text>
         <text x="1" y="-2.889374971" class="f0">：</text>
        </g>
       </g>
      </g>
      <defs>
       <clipPath id="CLIP23">
        <path d="M53.464290619,102.01599884 L106.178581238,102.01599884 L106.178581238,116.054000854 L53.464290619,116.054000854 Z " />
       </clipPath>
      </defs>
      <g clip-path="url(#CLIP23)">
       <g>
        <g transform="matrix(1,0,0,1,54.289325714,116.061698914)">
         <text x="1" y="-2.889374971" class="f0">6.66</text>
        </g>
       </g>
      </g>
      <defs>
       <clipPath id="CLIP24">
        <path d="M106.678581238,102.01599884 L159.392868042,102.01599884 L159.392868042,116.054000854 L106.678581238,116.054000854 Z " />
       </clipPath>
      </defs>
      <g clip-path="url(#CLIP24)">
       <g>
        <g transform="matrix(1,0,0,1,107.503616333,116.061698914)">
         <text x="1" y="-2.889374971" class="f0">4.3-5.8</text>
        </g>
       </g>
      </g>
      <defs>
       <clipPath id="CLIP25">
        <path d="M159.892868042,102.01599884 L212.607162476,102.01599884 L212.607162476,116.054000854 L159.892868042,116.054000854 Z " />
       </clipPath>
      </defs>
      <g clip-path="url(#CLIP25)">
       <g>
        <g transform="matrix(1,0,0,1,160.717910767,116.061698914)">
         <text x="1" y="-2.889374971" class="f0">%</text>
        </g>
       </g>
      </g>
      <defs>
       <clipPath id="CLIP26">
        <path d="M0.25,116.554000854 L52.964290619,116.554000854 L52.964290619,130.591995239 L0.25,130.591995239 Z " />
       </clipPath>
      </defs>
      <g clip-path="url(#CLIP26)">
       <g>
        <g transform="matrix(1,0,0,1,1.075036168,129.872787476)">
         <text x="1" y="-2.770781279" class="f1">审</text>
         <text x="12.039999962" y="-2.770781279" class="f1">核</text>
         <text x="23.079999924" y="-2.770781279" class="f1">者</text>
         <text x="34.119998932" y="-2.770781279" class="f1">：</text>
        </g>
       </g>
      </g>
     </g>
    </g>
    <defs>
     <clipPath id="CLIP27">
      <path d="M-0.5,-0.5 L213.5,-0.5 L213.5,131.5 L-0.5,131.5 Z " />
     </clipPath>
    </defs>
    <g clip-path="url(#CLIP27)">
     <g />
    </g>
   </g>
   <g />
   <g />
   <g />
   <g>
    <g>
     <g />
     <g shape-rendering="crispEdges" />
    </g>
    <g>
     <g />
    </g>
    <g>
     <g />
    </g>
   </g>
   <g>
    <text x="10" y="10" class="f2">Evaluation Only. Created with Aspose.Cells for Python via Java.Copyright 2003 - 2023 Aspose Pty Ltd.</text>
   </g>
  </g>
 </g>
 <defs />
 <defs>
  <style type="text/css">
   <![CDATA[
   
.f0
{
font-family:Microsoft YaHei;
font-size:11.039999962px;
fill:#000000;
}

.f1
{
font-family:Microsoft YaHei Light;
font-size:11.039999962px;
fill:#000000;
}

.f2
{
font-family:Arial;
font-size:10px;
fill:#FF0000;
}

   
.p0
{
stroke:#FF0000;
stroke-width:2.907599926px;
stroke-linecap:butt;
stroke-linejoin:miter;
}

   ]]></style>
 </defs>
</svg>
